<svg xmlns="http://www.w3.org/2000/svg" xmlns:xlink="http://www.w3.org/1999/xlink" width="50" zoomAndPan="magnify" viewBox="0 0 37.5 37.499999" height="50" preserveAspectRatio="xMidYMid meet" version="1.0"><defs><clipPath id="c9289fb26d"><path d="M 0.886719 0.886719 L 36.113281 0.886719 L 36.113281 36.113281 L 0.886719 36.113281 Z M 0.886719 0.886719 " clip-rule="nonzero"/></clipPath><clipPath id="3ad4b34026"><path d="M 18.5 0.886719 C 8.773438 0.886719 0.886719 8.773438 0.886719 18.5 C 0.886719 28.226562 8.773438 36.113281 18.5 36.113281 C 28.226562 36.113281 36.113281 28.226562 36.113281 18.5 C 36.113281 8.773438 28.226562 0.886719 18.5 0.886719 Z M 18.5 0.886719 " clip-rule="nonzero"/></clipPath></defs><g clip-path="url(#c9289fb26d)"><g clip-path="url(#3ad4b34026)"><path stroke-linecap="butt" transform="matrix(0.740132, 0, 0, 0.740132, 0.888158, 0.888158)" fill="none" stroke-linejoin="miter" d="M 23.795557 -0.00194436 C 10.653889 -0.00194436 -0.00194497 10.65389 -0.00194497 23.795557 C -0.00194497 36.937225 10.653889 47.593059 23.795557 47.593059 C 36.937224 47.593059 47.593058 36.937225 47.593058 23.795557 C 47.593058 10.65389 36.937224 -0.00194436 23.795557 -0.00194436 Z M 23.795557 -0.00194436 " stroke="#ffffff" stroke-width="16" stroke-opacity="1" stroke-miterlimit="4"/></g></g></svg>