<svg xmlns="http://www.w3.org/2000/svg" xmlns:xlink="http://www.w3.org/1999/xlink" width="313" zoomAndPan="magnify" viewBox="0 0 234.75 234.749995" height="313" preserveAspectRatio="xMidYMid meet" version="1.0"><defs><clipPath id="a77ca59005"><path d="M 69.429688 55 L 154 55 L 154 189.664062 L 69.429688 189.664062 Z M 69.429688 55 " clip-rule="nonzero"/></clipPath><clipPath id="ec29ec05fc"><path d="M 117 45.070312 L 165 45.070312 L 165 88 L 117 88 Z M 117 45.070312 " clip-rule="nonzero"/></clipPath></defs><g clip-path="url(#a77ca59005)"><path fill="#01353c" d="M 152.175781 97.726562 L 143.730469 97.726562 C 143.214844 93.679688 139.707031 90.5625 135.589844 90.5625 C 131.46875 90.5625 127.964844 93.679688 127.445312 97.726562 L 113.382812 97.726562 L 113.382812 83.292969 C 113.382812 82.410156 112.714844 81.691406 111.832031 81.617188 C 108.683594 81.363281 106.21875 78.683594 106.21875 75.519531 C 106.21875 72.355469 108.683594 69.675781 111.832031 69.417969 C 112.714844 69.347656 113.382812 68.628906 113.382812 67.742188 L 113.382812 57.015625 C 113.382812 56.089844 112.632812 55.335938 111.703125 55.335938 C 88.433594 55.335938 69.503906 74.269531 69.503906 97.542969 C 69.503906 110.457031 75.296875 122.484375 85.402344 130.546875 C 89.140625 133.53125 91.609375 138.058594 92.175781 142.976562 L 92.351562 144.515625 C 92.414062 145.089844 92.933594 145.5 93.507812 145.433594 C 94.082031 145.367188 94.492188 144.851562 94.425781 144.277344 L 94.25 142.738281 C 93.621094 137.277344 90.875 132.238281 86.707031 128.910156 C 77.101562 121.25 71.59375 109.816406 71.59375 97.542969 C 71.59375 75.5625 89.359375 57.652344 111.292969 57.429688 L 111.292969 67.375 C 107.246094 67.894531 104.128906 71.398438 104.128906 75.519531 C 104.128906 79.636719 107.246094 83.144531 111.292969 83.664062 L 111.292969 98.132812 C 111.292969 99.058594 112.046875 99.816406 112.976562 99.816406 L 127.8125 99.816406 C 128.695312 99.816406 129.417969 99.148438 129.488281 98.265625 C 129.746094 95.117188 132.425781 92.652344 135.589844 92.652344 C 138.753906 92.652344 141.429688 95.117188 141.6875 98.265625 C 141.761719 99.148438 142.480469 99.816406 143.363281 99.816406 L 151.75 99.816406 C 151.113281 111.191406 145.644531 121.777344 136.703125 128.914062 C 132.535156 132.238281 129.785156 137.277344 129.15625 142.738281 L 128.507812 148.414062 L 118.238281 148.414062 L 118.238281 121.683594 L 122.617188 121.683594 C 126.1875 121.683594 129.089844 118.78125 129.089844 115.214844 C 129.089844 111.648438 126.1875 108.746094 122.617188 108.746094 C 119.050781 108.746094 116.148438 111.648438 116.148438 115.214844 L 116.148438 119.59375 L 111.335938 119.59375 C 110.761719 119.59375 110.292969 120.0625 110.292969 120.640625 C 110.292969 121.21875 110.761719 121.683594 111.335938 121.683594 L 116.148438 121.683594 L 116.148438 148.414062 L 107.257812 148.414062 L 107.257812 115.214844 C 107.257812 111.648438 104.355469 108.746094 100.789062 108.746094 C 97.222656 108.746094 94.316406 111.648438 94.316406 115.214844 C 94.316406 118.78125 97.222656 121.683594 100.789062 121.683594 L 105.167969 121.683594 L 105.167969 148.414062 L 93.488281 148.414062 C 92.257812 148.414062 91.117188 148.902344 90.265625 149.789062 C 89.417969 150.675781 88.976562 151.839844 89.03125 153.066406 L 89.882812 172.941406 C 89.957031 174.699219 91.0625 176.253906 92.699219 176.902344 L 101.207031 180.261719 C 101.414062 180.34375 101.628906 180.40625 101.847656 180.453125 C 102.316406 185.515625 106.578125 189.429688 111.703125 189.429688 C 116.851562 189.429688 121.09375 185.523438 121.5625 180.453125 C 121.777344 180.40625 121.992188 180.34375 122.199219 180.261719 L 130.707031 176.902344 C 132.34375 176.253906 133.449219 174.699219 133.527344 172.941406 L 134.378906 153.066406 C 134.429688 151.839844 133.992188 150.675781 133.140625 149.789062 C 132.453125 149.070312 131.566406 148.617188 130.605469 148.46875 L 131.234375 142.976562 C 131.796875 138.058594 134.265625 133.53125 138.003906 130.546875 C 147.53125 122.945312 153.308594 111.625 153.859375 99.480469 C 153.878906 99.027344 153.710938 98.578125 153.394531 98.246094 C 153.078125 97.914062 152.632812 97.726562 152.175781 97.726562 Z M 122.617188 110.835938 C 125.035156 110.835938 127 112.800781 127 115.214844 C 127 117.628906 125.035156 119.59375 122.617188 119.59375 L 118.238281 119.59375 L 118.238281 115.214844 C 118.238281 112.800781 120.203125 110.835938 122.617188 110.835938 Z M 100.789062 119.59375 C 98.371094 119.59375 96.40625 117.628906 96.40625 115.214844 C 96.40625 112.800781 98.371094 110.835938 100.789062 110.835938 C 103.203125 110.835938 105.167969 112.800781 105.167969 115.214844 L 105.167969 119.59375 Z M 107.707031 186.238281 C 105.710938 185.046875 104.285156 182.992188 103.960938 180.574219 L 108.648438 180.574219 C 107.074219 181.960938 106.742188 184.445312 107.707031 186.238281 Z M 131.632812 151.234375 C 132.082031 151.703125 132.316406 152.324219 132.289062 152.976562 L 131.4375 172.855469 C 131.398438 173.789062 130.8125 174.613281 129.941406 174.957031 L 121.433594 178.316406 C 121.152344 178.425781 120.859375 178.484375 120.5625 178.484375 L 102.847656 178.484375 C 102.546875 178.484375 102.253906 178.425781 101.976562 178.316406 L 93.46875 174.957031 C 92.597656 174.613281 92.007812 173.789062 91.96875 172.851562 L 91.117188 152.976562 C 91.089844 152.324219 91.324219 151.703125 91.773438 151.234375 C 92.226562 150.761719 92.835938 150.503906 93.488281 150.503906 L 129.921875 150.503906 C 130.574219 150.503906 131.179688 150.761719 131.632812 151.234375 Z M 131.632812 151.234375 " fill-opacity="1" fill-rule="nonzero"/></g><path fill="#01353c" d="M 122.386719 157.167969 L 100.605469 161.582031 C 100.039062 161.695312 99.675781 162.246094 99.789062 162.8125 C 99.890625 163.308594 100.324219 163.648438 100.8125 163.648438 C 100.882812 163.648438 100.949219 163.640625 101.019531 163.628906 L 122.800781 159.214844 C 123.367188 159.101562 123.734375 158.546875 123.617188 157.984375 C 123.503906 157.417969 122.953125 157.050781 122.386719 157.167969 Z M 122.386719 157.167969 " fill-opacity="1" fill-rule="nonzero"/><path fill="#01353c" d="M 122.386719 165.359375 L 100.605469 169.773438 C 100.039062 169.886719 99.675781 170.4375 99.789062 171.003906 C 99.890625 171.5 100.324219 171.839844 100.8125 171.839844 C 100.882812 171.839844 100.949219 171.832031 101.019531 171.820312 L 122.800781 167.40625 C 123.367188 167.292969 123.734375 166.738281 123.617188 166.175781 C 123.503906 165.609375 122.953125 165.242188 122.386719 165.359375 Z M 122.386719 165.359375 " fill-opacity="1" fill-rule="nonzero"/><g clip-path="url(#ec29ec05fc)"><path fill="#01353c" d="M 125.757812 45.101562 C 125.054688 45.066406 124.464844 45.628906 124.464844 46.335938 L 124.464844 55.878906 C 124.464844 56.503906 124 57.011719 123.382812 57.105469 C 119.9375 57.625 117.296875 60.601562 117.296875 64.191406 C 117.296875 67.78125 119.9375 70.753906 123.382812 71.273438 C 124 71.367188 124.464844 71.875 124.464844 72.5 L 124.464844 86.203125 C 124.464844 86.886719 125.015625 87.441406 125.699219 87.441406 L 139.40625 87.441406 C 140.027344 87.441406 140.535156 86.976562 140.628906 86.359375 C 141.152344 82.914062 144.125 80.277344 147.714844 80.277344 C 151.304688 80.277344 154.277344 82.914062 154.796875 86.359375 C 154.890625 86.976562 155.402344 87.441406 156.023438 87.441406 L 163.761719 87.441406 C 164.433594 87.441406 164.984375 86.898438 164.984375 86.226562 L 164.984375 86.214844 C 164.984375 64.128906 147.589844 46.109375 125.757812 45.101562 Z M 125.757812 45.101562 " fill-opacity="1" fill-rule="nonzero"/></g></svg>