<svg xmlns="http://www.w3.org/2000/svg" xmlns:xlink="http://www.w3.org/1999/xlink" width="313" zoomAndPan="magnify" viewBox="0 0 234.75 234.749995" height="313" preserveAspectRatio="xMidYMid meet" version="1.0"><defs><clipPath id="6788787c90"><path d="M 35.175781 40 L 194 40 L 194 199.25 L 35.175781 199.25 Z M 35.175781 40 " clip-rule="nonzero"/></clipPath><clipPath id="9aca6aa9da"><path d="M 107.136719 94 L 134 94 L 134 120 L 107.136719 120 Z M 107.136719 94 " clip-rule="nonzero"/></clipPath><clipPath id="23cd4a33b1"><path d="M 107.136719 66.371094 L 175.3125 66.371094 L 175.3125 125.558594 L 107.136719 125.558594 Z M 107.136719 66.371094 " clip-rule="nonzero"/></clipPath></defs><path fill="#01353c" d="M 147.738281 91.679688 L 160.285156 90.167969 L 147.738281 88.65625 C 143.308594 88.121094 139.820312 84.632812 139.285156 80.203125 L 137.773438 67.65625 L 136.261719 80.203125 C 135.730469 84.632812 132.238281 88.121094 127.8125 88.65625 L 115.265625 90.167969 L 127.8125 91.679688 C 132.238281 92.210938 135.730469 95.703125 136.261719 100.132812 L 137.773438 112.675781 L 139.285156 100.132812 C 139.820312 95.703125 143.308594 92.210938 147.738281 91.679688 " fill-opacity="1" fill-rule="nonzero"/><path fill="#01353c" d="M 121.425781 101.195312 L 120.582031 94.183594 L 119.734375 101.195312 C 119.4375 103.671875 117.484375 105.625 115.011719 105.921875 L 107.996094 106.765625 L 115.011719 107.609375 C 117.484375 107.910156 119.4375 109.859375 119.734375 112.335938 L 120.582031 119.351562 L 121.425781 112.335938 C 121.722656 109.859375 123.671875 107.910156 126.148438 107.609375 L 133.164062 106.765625 L 126.148438 105.921875 C 123.675781 105.625 121.722656 103.671875 121.425781 101.195312 " fill-opacity="1" fill-rule="nonzero"/><path fill="#01353c" d="M 156.136719 103.917969 L 155.195312 96.113281 L 154.253906 103.917969 C 153.921875 106.671875 151.75 108.84375 148.996094 109.175781 L 141.195312 110.113281 L 148.996094 111.054688 C 151.75 111.386719 153.921875 113.558594 154.253906 116.3125 L 155.195312 124.113281 L 156.136719 116.3125 C 156.464844 113.558594 158.636719 111.386719 161.390625 111.054688 L 169.195312 110.113281 L 161.390625 109.175781 C 158.636719 108.84375 156.464844 106.671875 156.136719 103.917969 " fill-opacity="1" fill-rule="nonzero"/><g clip-path="url(#6788787c90)"><path fill="#01353c" d="M 171.492188 128.78125 C 153.355469 146.917969 123.84375 146.921875 105.703125 128.78125 C 87.5625 110.640625 87.5625 81.128906 105.703125 62.992188 C 114.769531 53.921875 126.683594 49.390625 138.59375 49.390625 C 150.507812 49.390625 162.421875 53.921875 171.492188 62.992188 C 189.628906 81.128906 189.628906 110.640625 171.492188 128.78125 Z M 99.464844 56.753906 C 79.796875 76.421875 78.0625 107.324219 94.246094 128.980469 L 37.851562 178.535156 C 37.78125 178.59375 37.734375 178.667969 37.667969 178.730469 C 37.605469 178.789062 37.539062 178.828125 37.476562 178.886719 C 37.355469 179.011719 37.265625 179.15625 37.152344 179.289062 C 36.960938 179.5 36.773438 179.714844 36.613281 179.945312 C 36.46875 180.152344 36.347656 180.367188 36.222656 180.585938 C 36.089844 180.816406 35.957031 181.046875 35.851562 181.289062 C 35.746094 181.523438 35.667969 181.765625 35.585938 182.007812 C 35.507812 182.25 35.429688 182.488281 35.371094 182.734375 C 35.3125 182.988281 35.28125 183.238281 35.25 183.496094 C 35.21875 183.746094 35.183594 183.992188 35.175781 184.242188 C 35.167969 184.496094 35.183594 184.75 35.199219 185.003906 C 35.21875 185.257812 35.234375 185.507812 35.273438 185.761719 C 35.3125 186.011719 35.378906 186.253906 35.441406 186.5 C 35.507812 186.75 35.570312 186.996094 35.660156 187.242188 C 35.75 187.484375 35.863281 187.710938 35.976562 187.945312 C 36.089844 188.179688 36.203125 188.414062 36.339844 188.640625 C 36.476562 188.863281 36.636719 189.070312 36.800781 189.28125 C 36.914062 189.433594 37 189.597656 37.128906 189.738281 C 37.183594 189.804688 37.253906 189.847656 37.3125 189.914062 C 37.375 189.976562 37.417969 190.050781 37.476562 190.113281 L 44.371094 197.003906 C 44.429688 197.0625 44.5 197.101562 44.558594 197.160156 C 44.625 197.222656 44.675781 197.296875 44.742188 197.355469 C 44.910156 197.5 45.09375 197.605469 45.265625 197.734375 C 45.433594 197.859375 45.597656 197.996094 45.773438 198.105469 C 46.039062 198.269531 46.3125 198.402344 46.589844 198.535156 C 46.761719 198.617188 46.929688 198.710938 47.109375 198.78125 C 47.429688 198.90625 47.753906 198.992188 48.085938 199.070312 C 48.234375 199.105469 48.375 199.160156 48.523438 199.191406 C 49.007812 199.28125 49.492188 199.332031 49.980469 199.332031 C 49.980469 199.332031 49.980469 199.328125 49.980469 199.328125 C 49.980469 199.328125 49.984375 199.332031 49.984375 199.332031 C 50.515625 199.332031 51.042969 199.269531 51.566406 199.164062 C 51.730469 199.132812 51.890625 199.066406 52.054688 199.019531 C 52.402344 198.925781 52.75 198.832031 53.085938 198.6875 C 53.289062 198.605469 53.472656 198.484375 53.664062 198.382812 C 53.949219 198.234375 54.230469 198.085938 54.5 197.902344 C 54.699219 197.761719 54.882812 197.59375 55.074219 197.433594 C 55.246094 197.285156 55.433594 197.167969 55.597656 197.003906 C 55.660156 196.941406 55.699219 196.867188 55.761719 196.804688 C 55.820312 196.742188 55.890625 196.699219 55.949219 196.632812 L 105.503906 140.238281 C 115.28125 147.542969 126.933594 151.203125 138.597656 151.203125 C 152.769531 151.203125 166.941406 145.808594 177.726562 135.019531 C 199.304688 113.441406 199.304688 78.332031 177.726562 56.753906 C 156.152344 35.175781 121.042969 35.179688 99.464844 56.753906 " fill-opacity="1" fill-rule="nonzero"/></g><path fill="#93e85f" d="M 147.738281 91.679688 L 160.285156 90.167969 L 147.738281 88.65625 C 143.308594 88.121094 139.820312 84.632812 139.285156 80.203125 L 137.773438 67.65625 L 136.261719 80.203125 C 135.730469 84.632812 132.238281 88.121094 127.8125 88.65625 L 115.265625 90.167969 L 127.8125 91.679688 C 132.238281 92.210938 135.730469 95.703125 136.261719 100.132812 L 137.773438 112.675781 L 139.285156 100.132812 C 139.820312 95.703125 143.308594 92.210938 147.738281 91.679688 " fill-opacity="1" fill-rule="nonzero"/><g clip-path="url(#9aca6aa9da)"><path fill="#93e85f" d="M 121.425781 101.195312 L 120.582031 94.183594 L 119.734375 101.195312 C 119.4375 103.671875 117.484375 105.625 115.011719 105.921875 L 107.996094 106.765625 L 115.011719 107.609375 C 117.484375 107.910156 119.4375 109.859375 119.734375 112.335938 L 120.582031 119.351562 L 121.425781 112.335938 C 121.722656 109.859375 123.671875 107.910156 126.148438 107.609375 L 133.164062 106.765625 L 126.148438 105.921875 C 123.675781 105.625 121.722656 103.671875 121.425781 101.195312 " fill-opacity="1" fill-rule="nonzero"/></g><path fill="#93e85f" d="M 156.136719 103.917969 L 155.195312 96.113281 L 154.253906 103.917969 C 153.921875 106.671875 151.75 108.84375 148.996094 109.175781 L 141.195312 110.113281 L 148.996094 111.054688 C 151.75 111.386719 153.921875 113.558594 154.253906 116.3125 L 155.195312 124.113281 L 156.136719 116.3125 C 156.464844 113.558594 158.636719 111.386719 161.390625 111.054688 L 169.195312 110.113281 L 161.390625 109.175781 C 158.636719 108.84375 156.464844 106.671875 156.136719 103.917969 " fill-opacity="1" fill-rule="nonzero"/><g clip-path="url(#23cd4a33b1)"><path fill="#93e85f" d="M 171.492188 128.78125 C 153.355469 146.917969 123.84375 146.921875 105.703125 128.78125 C 87.5625 110.640625 87.5625 81.128906 105.703125 62.992188 C 114.769531 53.921875 126.683594 49.390625 138.59375 49.390625 C 150.507812 49.390625 162.421875 53.921875 171.492188 62.992188 C 189.628906 81.128906 189.628906 110.640625 171.492188 128.78125 Z M 99.464844 56.753906 C 79.796875 76.421875 78.0625 107.324219 94.246094 128.980469 L 37.851562 178.535156 C 37.78125 178.59375 37.734375 178.667969 37.667969 178.730469 C 37.605469 178.789062 37.539062 178.828125 37.476562 178.886719 C 37.355469 179.011719 37.265625 179.15625 37.152344 179.289062 C 36.960938 179.5 36.773438 179.714844 36.613281 179.945312 C 36.46875 180.152344 36.347656 180.367188 36.222656 180.585938 C 36.089844 180.816406 35.957031 181.046875 35.851562 181.289062 C 35.746094 181.523438 35.667969 181.765625 35.585938 182.007812 C 35.507812 182.25 35.429688 182.488281 35.371094 182.734375 C 35.3125 182.988281 35.28125 183.238281 35.25 183.496094 C 35.21875 183.746094 35.183594 183.992188 35.175781 184.242188 C 35.167969 184.496094 35.183594 184.75 35.199219 185.003906 C 35.21875 185.257812 35.234375 185.507812 35.273438 185.761719 C 35.3125 186.011719 35.378906 186.253906 35.441406 186.5 C 35.507812 186.75 35.570312 186.996094 35.660156 187.242188 C 35.75 187.484375 35.863281 187.710938 35.976562 187.945312 C 36.089844 188.179688 36.203125 188.414062 36.339844 188.640625 C 36.476562 188.863281 36.636719 189.070312 36.800781 189.28125 C 36.914062 189.433594 37 189.597656 37.128906 189.738281 C 37.183594 189.804688 37.253906 189.847656 37.3125 189.914062 C 37.375 189.976562 37.417969 190.050781 37.476562 190.113281 L 44.371094 197.003906 C 44.429688 197.0625 44.5 197.101562 44.558594 197.160156 C 44.625 197.222656 44.675781 197.296875 44.742188 197.355469 C 44.910156 197.5 45.09375 197.605469 45.265625 197.734375 C 45.433594 197.859375 45.597656 197.996094 45.773438 198.105469 C 46.039062 198.269531 46.3125 198.402344 46.589844 198.535156 C 46.761719 198.617188 46.929688 198.710938 47.109375 198.78125 C 47.429688 198.90625 47.753906 198.992188 48.085938 199.070312 C 48.234375 199.105469 48.375 199.160156 48.523438 199.191406 C 49.007812 199.28125 49.492188 199.332031 49.980469 199.332031 C 49.980469 199.332031 49.980469 199.328125 49.980469 199.328125 C 49.980469 199.328125 49.984375 199.332031 49.984375 199.332031 C 50.515625 199.332031 51.042969 199.269531 51.566406 199.164062 C 51.730469 199.132812 51.890625 199.066406 52.054688 199.019531 C 52.402344 198.925781 52.75 198.832031 53.085938 198.6875 C 53.289062 198.605469 53.472656 198.484375 53.664062 198.382812 C 53.949219 198.234375 54.230469 198.085938 54.5 197.902344 C 54.699219 197.761719 54.882812 197.59375 55.074219 197.433594 C 55.246094 197.285156 55.433594 197.167969 55.597656 197.003906 C 55.660156 196.941406 55.699219 196.867188 55.761719 196.804688 C 55.820312 196.742188 55.890625 196.699219 55.949219 196.632812 L 105.503906 140.238281 C 115.28125 147.542969 126.933594 151.203125 138.597656 151.203125 C 152.769531 151.203125 166.941406 145.808594 177.726562 135.019531 C 199.304688 113.441406 199.304688 78.332031 177.726562 56.753906 C 156.152344 35.175781 121.042969 35.179688 99.464844 56.753906 " fill-opacity="1" fill-rule="nonzero"/></g></svg>