<svg xmlns="http://www.w3.org/2000/svg" xmlns:xlink="http://www.w3.org/1999/xlink" width="313" zoomAndPan="magnify" viewBox="0 0 234.75 234.749995" height="313" preserveAspectRatio="xMidYMid meet" version="1.0"><defs><clipPath id="0b4f7d7425"><path d="M 51.671875 51.671875 L 182.78125 51.671875 L 182.78125 182.78125 L 51.671875 182.78125 Z M 51.671875 51.671875 " clip-rule="nonzero"/></clipPath></defs><g clip-path="url(#0b4f7d7425)"><path fill="#01353c" d="M 173.023438 82.738281 C 173.03125 82.726562 173.035156 82.714844 173.039062 82.707031 C 173.117188 82.5 173.011719 82.265625 172.804688 82.1875 C 172.761719 82.171875 172.71875 82.195312 172.675781 82.191406 C 161.023438 63.890625 140.570312 51.710938 117.3125 51.710938 C 102.398438 51.710938 88.636719 56.726562 77.601562 65.144531 C 77.476562 65.167969 77.382812 65.246094 77.328125 65.359375 C 61.765625 77.367188 51.710938 96.183594 51.710938 117.316406 C 51.710938 153.488281 81.140625 182.914062 117.3125 182.914062 C 153.484375 182.914062 182.914062 153.484375 182.914062 117.316406 C 182.914062 104.628906 179.285156 92.785156 173.023438 82.738281 Z M 171.59375 149.597656 C 167.855469 151.851562 163.332031 153.8125 158.207031 155.453125 C 159.632812 149.148438 160.492188 143.183594 160.886719 137.539062 C 166.324219 135.738281 171.046875 133.574219 174.84375 131.128906 C 174.988281 135.59375 174.875 139.890625 174.601562 143.914062 C 173.691406 145.863281 172.691406 147.761719 171.59375 149.597656 Z M 90.730469 174.15625 C 89.25 172.652344 87.871094 171.113281 86.585938 169.539062 C 90.660156 170.648438 95.449219 171.71875 100.753906 172.539062 C 102.265625 175 104.027344 177.324219 106.070312 179.472656 C 100.703125 178.503906 95.574219 176.863281 90.765625 174.628906 C 90.855469 174.472656 90.859375 174.285156 90.730469 174.15625 Z M 89.503906 174.027344 C 85.527344 172.070312 81.792969 169.703125 78.34375 166.988281 C 80.269531 167.664062 82.605469 168.417969 85.273438 169.171875 C 86.578125 170.824219 87.984375 172.445312 89.503906 174.027344 Z M 85.746094 168.46875 C 82.71875 164.597656 80.273438 160.542969 78.414062 156.300781 C 83.542969 157.914062 89.273438 159.195312 95.378906 160.121094 C 96.527344 164.183594 98.113281 168.050781 100.203125 171.636719 C 94.734375 170.765625 89.847656 169.621094 85.746094 168.46875 Z M 58.71875 129.003906 C 58.71875 134.296875 59.394531 139.875 60.910156 145.726562 C 57.667969 139.316406 55.488281 132.289062 54.601562 124.871094 C 55.699219 126.3125 57.082031 127.6875 58.71875 129.003906 Z M 62.332031 147.882812 C 60.445312 141.46875 59.589844 135.390625 59.535156 129.640625 C 63.105469 132.320312 67.753906 134.707031 73.238281 136.710938 C 73.421875 143.101562 74.671875 149.195312 76.972656 154.976562 C 71.144531 153.015625 66.148438 150.628906 62.332031 147.882812 Z M 63.011719 108.664062 C 66.636719 111.03125 71.1875 113.144531 76.429688 114.921875 C 74.597656 120.914062 73.425781 127.066406 73.234375 133.265625 C 73.210938 134.097656 73.210938 134.929688 73.21875 135.753906 C 67.683594 133.703125 63.023438 131.28125 59.523438 128.570312 C 59.574219 121.394531 60.878906 114.75 63.011719 108.664062 Z M 60.023438 90.71875 C 61.382812 88.546875 62.863281 86.496094 64.433594 84.554688 C 65.828125 86.910156 68.144531 89.109375 71.210938 91.09375 C 67.820312 95.972656 64.816406 101.433594 62.601562 107.441406 C 59.8125 105.496094 57.648438 103.382812 56.242188 101.140625 C 57.199219 97.527344 58.472656 94.046875 60.023438 90.71875 Z M 63.085938 84.933594 C 63.355469 84.484375 63.636719 84.046875 63.917969 83.601562 C 63.949219 83.667969 63.976562 83.734375 64.007812 83.800781 C 63.703125 84.175781 63.386719 84.546875 63.085938 84.933594 Z M 84.382812 63.417969 C 84.488281 63.398438 84.628906 63.386719 84.867188 63.375 C 85.421875 63.347656 84.941406 63.601562 84.867188 63.804688 C 84.792969 64.003906 84.261719 64.660156 83.933594 64.964844 C 83.605469 65.265625 83.378906 65.46875 83.152344 66.195312 C 82.925781 66.925781 83.152344 66.75 83.378906 66.324219 C 83.605469 65.894531 84.082031 65.542969 84.917969 64.914062 C 85.746094 64.285156 85.472656 64.609375 85.898438 64.410156 C 86.328125 64.207031 86.65625 64.007812 87.210938 63.703125 C 87.765625 63.398438 87.488281 63.503906 87.890625 63.046875 C 88.292969 62.59375 88.546875 62.644531 89.023438 62.265625 C 89.503906 61.886719 89.753906 61.835938 89.957031 61.636719 C 90.15625 61.4375 90.257812 61.359375 90.488281 61.03125 C 90.714844 60.703125 91.015625 60.65625 91.292969 60.25 C 91.570312 59.847656 91.722656 59.847656 91.949219 59.542969 C 91.980469 59.503906 91.984375 59.476562 92 59.445312 C 93.222656 58.90625 94.460938 58.394531 95.722656 57.933594 C 96.046875 58.542969 96.511719 59.132812 97.101562 59.6875 C 94.804688 60.710938 92.402344 61.871094 89.949219 63.175781 C 89.878906 63.1875 89.800781 63.207031 89.707031 63.222656 C 89.484375 63.261719 89.585938 63.246094 89.414062 63.457031 C 88.503906 63.949219 87.585938 64.464844 86.664062 64.996094 C 86.46875 65.054688 86.269531 65.246094 85.976562 65.34375 C 85.671875 65.441406 85.621094 65.542969 85.320312 65.746094 C 85.296875 65.757812 85.308594 65.792969 85.292969 65.808594 C 83.339844 66.980469 81.386719 68.234375 79.441406 69.597656 C 78.992188 68.941406 78.652344 68.261719 78.421875 67.574219 C 80.328125 66.082031 82.3125 64.6875 84.382812 63.417969 Z M 85.363281 66.695312 C 85.394531 66.851562 85.417969 67.003906 85.371094 67.105469 C 85.21875 67.457031 85.371094 67.105469 85.015625 67.15625 C 84.71875 67.199219 84.617188 67.277344 84.238281 67.394531 C 84.613281 67.15625 84.992188 66.925781 85.363281 66.695312 Z M 146.210938 62.386719 C 146.597656 62.777344 146.960938 63.117188 147.222656 63.222656 C 147.726562 63.425781 148.128906 63.726562 148.582031 64.078125 C 149.035156 64.4375 151.65625 67.609375 151.65625 67.609375 C 151.65625 67.609375 151.808594 69.726562 153.472656 70.179688 C 154.617188 70.492188 155.355469 70.804688 155.835938 71.082031 C 155.050781 71.886719 154.109375 72.660156 153.015625 73.394531 C 151.96875 72.324219 150.917969 71.3125 149.886719 70.371094 C 145.683594 66.550781 141.40625 63.550781 137.4375 61.179688 C 138.148438 60.75 138.78125 60.292969 139.3125 59.820312 C 141.660156 60.613281 144 61.472656 146.210938 62.386719 Z M 157.507812 71.441406 C 158.414062 71.1875 158.363281 71.492188 159.417969 72.148438 C 160.480469 72.804688 160.328125 72.5 160.78125 73.660156 C 161.238281 74.820312 161.335938 74.011719 161.335938 75.523438 C 161.335938 77.035156 162.390625 77.992188 162.242188 79 C 162.09375 80.011719 162.671875 80.667969 162.257812 81.523438 C 161.839844 82.378906 161.183594 82.683594 161.589844 83.1875 C 161.992188 83.691406 161.789062 83.589844 162.75 83.792969 C 163.703125 83.992188 165.570312 84.445312 166.078125 84.847656 C 166.582031 85.253906 166.734375 85.960938 166.480469 86.3125 C 166.226562 86.664062 166.023438 86.613281 164.765625 87.472656 C 164.496094 87.652344 164.269531 87.773438 164.054688 87.886719 C 162.839844 85.816406 161.578125 83.871094 160.277344 82.058594 C 160.558594 81.890625 160.808594 81.675781 160.898438 81.390625 C 161 81.085938 160.699219 81.289062 160.898438 80.75 C 161.101562 80.214844 160.933594 80.648438 161.101562 80.214844 C 161.269531 79.777344 161.304688 79.574219 161.304688 79.574219 C 161.304688 79.574219 161.570312 79.335938 161.636719 79.203125 C 161.707031 79.070312 161.734375 79.003906 161.636719 78.566406 C 161.539062 78.128906 161.636719 78.261719 161.335938 77.925781 C 161.03125 77.589844 160.863281 77.457031 160.59375 77.355469 C 160.328125 77.257812 160.191406 77.1875 160.023438 77.15625 C 159.855469 77.121094 159.855469 77.257812 159.554688 77.054688 C 159.25 76.855469 159.167969 76.75 158.808594 76.652344 C 158.445312 76.550781 158.480469 76.585938 158.042969 76.382812 C 157.601562 76.179688 157.4375 76.078125 157.269531 76.011719 C 157.101562 75.945312 157.570312 76.347656 157.101562 75.945312 C 156.632812 75.542969 156.769531 75.707031 156.632812 75.542969 C 156.492188 75.375 156.59375 75.644531 156.292969 75.136719 C 155.992188 74.632812 155.992188 74.632812 155.992188 74.632812 L 155.550781 74.398438 C 155.550781 74.398438 155.691406 74.203125 155.355469 74.265625 C 155.214844 74.289062 155.050781 74.398438 154.847656 74.265625 C 154.648438 74.132812 154.546875 73.792969 154.445312 73.929688 C 154.359375 74.046875 154 74.152344 154.09375 74.523438 C 153.910156 74.332031 153.730469 74.136719 153.550781 73.949219 C 154.675781 73.191406 155.648438 72.390625 156.460938 71.554688 C 156.691406 71.765625 156.71875 71.660156 157.507812 71.441406 Z M 168.496094 85.503906 C 168.292969 85.050781 168.292969 83.992188 169.203125 83.941406 C 169.839844 83.90625 170.691406 84.339844 171.148438 84.601562 C 170.554688 85.507812 169.8125 86.394531 168.941406 87.25 C 168.871094 86.105469 168.683594 85.933594 168.496094 85.503906 Z M 169.363281 101.09375 C 169.421875 101.667969 169.300781 102.328125 169.300781 102.746094 C 169.300781 103.199219 168.796875 103.753906 168.597656 104.710938 C 168.394531 105.667969 167.992188 105.167969 167.992188 107.082031 C 167.992188 108.035156 167.929688 109.488281 168.035156 110.910156 C 165.554688 112.117188 162.808594 113.234375 159.828125 114.242188 C 158.695312 107.546875 156.910156 101.511719 154.761719 96.128906 C 158.621094 94.78125 162 93.214844 164.804688 91.472656 C 165.101562 91.878906 165.34375 92.269531 165.46875 92.765625 C 165.625 93.371094 165.824219 93.722656 166.179688 93.925781 C 166.257812 93.96875 166.328125 93.988281 166.402344 93.996094 C 167.515625 96.335938 168.503906 98.710938 169.363281 101.09375 Z M 138.523438 134.070312 C 138.417969 134.03125 138.328125 134.003906 138.203125 133.953125 C 137.347656 133.597656 137.144531 134.199219 137.144531 133.75 C 137.144531 133.292969 137.144531 133.449219 136.890625 133.09375 C 136.636719 132.742188 136.183594 132.640625 135.527344 132.386719 C 134.871094 132.132812 135.125 132.335938 134.871094 132.335938 C 134.621094 132.335938 134.320312 132.488281 133.761719 132.035156 C 133.207031 131.582031 133.761719 132.035156 133.710938 131.882812 C 133.664062 131.734375 133.964844 131.425781 133.964844 131.425781 C 133.964844 131.425781 133.964844 131.425781 133.664062 131.425781 C 133.359375 131.425781 133.261719 131.226562 133.058594 131.027344 C 132.859375 130.824219 132.503906 130.519531 132.050781 130.519531 C 131.597656 130.519531 131.796875 130.621094 131.394531 130.773438 C 130.992188 130.925781 129.53125 130.925781 129.53125 130.925781 C 129.53125 130.925781 129.027344 130.925781 128.625 130.925781 C 128.21875 130.925781 128.316406 130.925781 127.96875 130.925781 C 127.613281 130.925781 126.957031 130.773438 126.957031 130.773438 C 126.957031 130.773438 126.65625 130.570312 126.101562 130.375 C 125.546875 130.171875 125.851562 130.070312 125.34375 130.019531 C 124.839844 129.96875 124.890625 130.375 124.640625 130.722656 C 124.386719 131.078125 124.640625 130.722656 124.285156 130.925781 C 123.933594 131.125 124.035156 131.480469 124.085938 131.632812 C 124.132812 131.785156 124.085938 132.234375 124.085938 132.234375 C 124.085938 132.234375 123.582031 132.4375 123.277344 132.285156 C 122.972656 132.132812 123.429688 130.976562 123.429688 130.570312 C 123.429688 130.171875 123.429688 130.570312 123.476562 130.21875 C 123.53125 129.867188 123.933594 129.71875 123.882812 129.5625 C 123.832031 129.410156 123.074219 129.96875 122.875 130.019531 C 122.671875 130.070312 122.066406 130.472656 121.3125 131.023438 C 120.554688 131.582031 120.855469 131.277344 120.453125 131.378906 C 120.050781 131.480469 120.050781 131.480469 119.699219 131.980469 C 119.34375 132.484375 119.496094 132.335938 119.34375 132.4375 C 119.195312 132.535156 118.640625 133.75 118.640625 133.75 L 117.984375 133.546875 C 117.984375 133.546875 117.984375 133.546875 117.582031 133.140625 C 117.179688 132.738281 117.582031 132.03125 117.3125 131.730469 C 117.253906 131.667969 117.117188 131.667969 116.949219 131.699219 C 116.929688 129.121094 116.921875 126.527344 116.925781 123.925781 C 117.011719 123.957031 117.121094 123.988281 117.3125 124.042969 C 117.984375 124.222656 117.582031 124.167969 117.984375 124.222656 C 118.386719 124.273438 118.183594 124.625 118.738281 124.222656 C 119.296875 123.816406 119.296875 124.070312 119.296875 123.816406 C 119.296875 123.566406 118.640625 123.109375 118.210938 123.3125 C 117.683594 123.5625 117.078125 123.164062 116.925781 123.3125 C 116.925781 122.574219 116.929688 121.832031 116.933594 121.089844 C 117.046875 121.09375 117.160156 121.09375 117.269531 121.09375 C 117.214844 121.167969 117.164062 121.234375 117.3125 121.347656 C 117.578125 121.550781 116.484375 121.398438 117.335938 121.851562 C 118.183594 122.304688 118.132812 122.304688 118.738281 122.253906 C 119.34375 122.203125 119.34375 122.5 119.902344 122.28125 C 120.453125 122.054688 120.957031 121.75 120.957031 121.75 C 120.957031 121.75 121.609375 121.652344 120.707031 121.398438 C 120.046875 121.214844 119.609375 121.214844 119.222656 121.097656 C 126.050781 121.054688 132.667969 120.59375 138.894531 119.757812 C 138.980469 124.253906 138.867188 129.027344 138.523438 134.070312 Z M 109.816406 125.734375 C 109.417969 125.632812 107.148438 125.632812 106.644531 125.632812 C 106.140625 125.632812 106.746094 124.421875 106.792969 124.167969 C 106.84375 123.921875 106.996094 123.464844 107.097656 123.164062 C 107.203125 122.863281 107.347656 122.609375 107.5 122.257812 C 107.652344 121.90625 107.597656 121.953125 107.753906 121.601562 C 107.90625 121.25 108.007812 121.148438 108.054688 120.894531 C 108.066406 120.847656 108.074219 120.8125 108.085938 120.773438 C 110.722656 120.945312 113.410156 121.050781 116.132812 121.085938 C 116.117188 124.726562 116.121094 128.363281 116.152344 131.972656 C 115.644531 132.183594 115.105469 132.441406 114.863281 132.488281 C 114.359375 132.589844 114.054688 132.539062 113.703125 132.488281 C 113.347656 132.441406 112.644531 132.035156 112.441406 131.835938 C 112.242188 131.632812 111.9375 131.378906 111.9375 131.378906 C 111.9375 131.378906 111.632812 130.925781 111.484375 130.722656 C 111.332031 130.519531 111.386719 130.421875 111.285156 130.269531 C 111.183594 130.117188 111.332031 129.058594 111.332031 128.710938 C 111.332031 128.351562 111.683594 128.050781 111.636719 127.851562 C 111.582031 127.648438 110.222656 125.832031 109.816406 125.734375 Z M 104.375 122.554688 C 104.121094 122.757812 103.820312 122.808594 103.164062 122.808594 C 102.507812 122.808594 102.105469 122.808594 101.703125 122.761719 C 101.300781 122.710938 101.148438 122.660156 100.894531 122.558594 C 100.644531 122.460938 99.785156 122.359375 99.230469 121.902344 C 98.675781 121.449219 99.230469 121.902344 99.03125 121.398438 C 98.828125 120.894531 98.675781 120.691406 98.273438 120.289062 C 98.09375 120.109375 97.941406 119.929688 97.820312 119.757812 C 100.460938 120.117188 103.167969 120.402344 105.9375 120.617188 C 105.605469 120.777344 105.789062 120.839844 105.484375 120.992188 C 105.078125 121.191406 105.179688 121.398438 104.625 122.355469 C 104.070312 123.3125 104.625 122.355469 104.375 122.554688 Z M 160.226562 81.894531 C 160.226562 81.894531 160.207031 81.917969 160.195312 81.9375 C 159.632812 81.160156 159.066406 80.40625 158.496094 79.675781 C 158.449219 79.460938 158.425781 79.378906 158.183594 79.273438 C 157.4375 78.332031 156.683594 77.417969 155.929688 76.550781 C 156.367188 76.671875 156.398438 76.609375 156.597656 76.75 C 156.835938 76.917969 156.902344 77.289062 157.136719 77.425781 C 157.375 77.558594 157.777344 77.558594 158.113281 77.625 C 158.449219 77.691406 158.449219 77.789062 158.582031 77.925781 C 158.71875 78.0625 158.800781 78.363281 158.8125 78.464844 C 158.816406 78.566406 158.886719 78.882812 158.984375 78.996094 C 159.085938 79.101562 158.988281 79.203125 159.253906 79.441406 C 159.523438 79.675781 159.457031 79.699219 159.828125 79.789062 C 160.199219 79.878906 160.199219 79.878906 160.199219 79.878906 C 160.199219 79.878906 160.265625 79.976562 160.199219 80.382812 C 160.128906 80.789062 160.226562 81.894531 160.226562 81.894531 Z M 156.296875 78.21875 C 156.113281 78.503906 155.910156 78.789062 156.0625 78.996094 C 156.265625 79.273438 156.09375 79.472656 156.464844 79.742188 C 156.835938 80.011719 156.769531 80.011719 156.933594 80.214844 C 157.101562 80.414062 156.800781 80.753906 157.136719 81.089844 C 157.472656 81.425781 157.441406 81.796875 157.90625 81.59375 C 158.378906 81.394531 158.117188 81.792969 158.394531 81.1875 C 158.433594 81.105469 158.476562 81.046875 158.515625 81 C 160.300781 83.355469 161.914062 85.777344 163.355469 88.238281 C 163.023438 88.40625 162.875 88.546875 162.945312 88.882812 C 163.066406 89.398438 163.769531 90.21875 164.265625 90.796875 C 161.523438 92.476562 158.207031 93.992188 154.433594 95.3125 C 152.097656 89.625 149.367188 84.683594 146.589844 80.480469 C 146.046875 79.65625 145.496094 78.863281 144.945312 78.082031 C 148.011719 77.027344 150.675781 75.785156 152.867188 74.40625 C 154.070312 75.652344 155.214844 76.925781 156.296875 78.21875 Z M 107.839844 119.953125 C 107.835938 119.953125 107.832031 119.953125 107.828125 119.953125 C 104.3125 119.71875 100.882812 119.371094 97.570312 118.921875 C 97.570312 118.902344 97.570312 118.886719 97.570312 118.828125 C 97.570312 118.675781 97.570312 118.121094 97.570312 117.617188 C 97.570312 117.113281 97.667969 116.808594 97.570312 116.304688 C 97.46875 115.804688 97.769531 115.855469 97.871094 115.601562 C 97.96875 115.347656 98.125 115.449219 98.675781 115.046875 C 99.230469 114.644531 98.675781 114.289062 98.578125 114.140625 C 98.476562 113.988281 98.527344 113.835938 98.527344 113.585938 C 98.527344 113.332031 98.78125 113.382812 98.78125 113.234375 C 98.78125 113.082031 100.492188 112.171875 101.402344 111.871094 C 102.308594 111.570312 101.753906 111.671875 102.308594 111.621094 C 102.863281 111.570312 102.964844 111.820312 104.082031 112.375 C 105.199219 112.929688 104.625 112.425781 105.03125 112.375 C 105.433594 112.324219 105.738281 112.375 106.089844 112.375 C 106.441406 112.375 106.589844 112.171875 106.640625 112.023438 C 106.691406 111.871094 106.339844 111.667969 106.339844 111.519531 C 106.339844 111.367188 106.996094 111.46875 107.296875 111.46875 C 107.597656 111.46875 108.003906 111.46875 108.558594 111.46875 C 109.109375 111.46875 109.363281 111.519531 109.617188 111.769531 C 109.867188 112.023438 110.070312 112.171875 110.675781 112.480469 C 111.277344 112.78125 111.074219 112.527344 111.429688 112.527344 C 111.78125 112.527344 111.78125 112.527344 112.136719 112.527344 C 112.488281 112.527344 112.335938 112.929688 112.386719 113.382812 C 112.4375 113.839844 112.589844 114.140625 112.589844 114.140625 C 112.589844 114.140625 112.589844 114.140625 112.589844 114.742188 C 112.589844 115.351562 112.738281 115.199219 112.894531 115.300781 C 113.042969 115.398438 113.800781 116.863281 114.40625 116.761719 C 115.011719 116.660156 114.707031 116.558594 114.910156 116.253906 C 115.109375 115.953125 115.160156 115.097656 115.160156 115.097656 C 115.160156 115.097656 114.808594 114.644531 114.707031 114.441406 C 114.605469 114.242188 114.40625 113.585938 114.355469 113.28125 C 114.304688 112.976562 114.253906 112.523438 114.152344 112.375 C 114.050781 112.222656 114.152344 111.515625 114.105469 110.964844 C 114.050781 110.40625 114.304688 110.359375 114.359375 110.15625 C 114.40625 109.957031 114.808594 109.652344 114.910156 109.5 C 115.011719 109.347656 115.464844 109.046875 115.667969 108.742188 C 115.796875 108.550781 116.019531 108.429688 116.261719 108.308594 C 116.203125 112.070312 116.160156 115.886719 116.140625 119.71875 C 115.683594 119.515625 115.011719 119.167969 115.011719 119.167969 C 115.011719 119.167969 114.507812 118.726562 114.105469 118.625 C 113.703125 118.523438 113.148438 118.625 112.644531 118.625 C 112.140625 118.625 111.03125 118.804688 110.878906 119.167969 C 110.730469 119.53125 110.527344 119.988281 110.527344 119.988281 C 110.527344 119.988281 110.730469 119.988281 111.03125 119.988281 C 111.332031 119.988281 111.332031 119.835938 111.632812 119.734375 C 111.9375 119.632812 111.886719 119.132812 112.292969 119.28125 C 112.695312 119.429688 113.25 119.085938 113.601562 119.28125 C 113.953125 119.480469 114.507812 119.988281 114.507812 119.988281 C 114.507812 119.988281 114.609375 119.734375 114.761719 119.988281 C 114.816406 120.078125 114.96875 120.171875 115.148438 120.261719 C 112.671875 120.21875 110.238281 120.109375 107.839844 119.953125 Z M 102.996094 70.382812 C 103.820312 70.28125 103.71875 69.980469 104.523438 69.726562 C 105.332031 69.476562 105.382812 69.121094 105.734375 69.324219 C 106.089844 69.523438 105.632812 69.925781 106.136719 70.03125 C 106.640625 70.128906 106.742188 70.570312 107.296875 70.425781 C 107.855469 70.28125 107.398438 70.632812 107.855469 70.28125 C 108.304688 69.929688 108.457031 70.429688 108.304688 69.929688 C 108.15625 69.425781 107.597656 69.121094 107.5 68.667969 C 107.398438 68.214844 107.199219 68.652344 107.296875 68.03125 C 107.398438 67.410156 107.347656 67.308594 107.449219 67.003906 C 107.550781 66.703125 107.550781 66.601562 107.550781 66.296875 C 107.550781 65.996094 107.699219 66.097656 106.894531 65.996094 C 106.839844 65.988281 106.789062 65.992188 106.738281 65.992188 C 107.09375 65.585938 107.441406 65.199219 107.789062 64.8125 C 108.535156 64.605469 107.882812 64.777344 108.609375 64.585938 C 108.796875 64.535156 108.898438 64.519531 108.964844 64.519531 C 108.992188 64.523438 109.023438 64.53125 109.054688 64.535156 C 109.066406 64.546875 109.078125 64.546875 109.09375 64.542969 C 109.550781 64.625 110.023438 64.6875 110.492188 64.753906 C 110.46875 64.859375 110.601562 64.820312 110.757812 64.972656 C 110.925781 65.140625 110.523438 65.089844 110.925781 65.140625 C 111.328125 65.191406 110.875 65.140625 111.328125 65.191406 C 111.785156 65.242188 111.683594 65.441406 111.984375 65.191406 C 112.019531 65.160156 112.042969 65.144531 112.070312 65.121094 C 111.464844 66.46875 110.824219 67.941406 110.167969 69.476562 C 109.9375 69.734375 109.976562 69.695312 110.050781 69.753906 C 109.664062 70.65625 109.273438 71.59375 108.875 72.550781 C 108.699219 72.5625 108.808594 72.347656 108.808594 72.347656 C 108.808594 72.347656 108.808594 71.84375 108.507812 71.691406 C 108.207031 71.542969 108.507812 71.691406 108.054688 71.792969 C 107.597656 71.894531 107.753906 71.84375 107.5 71.742188 C 107.25 71.640625 106.84375 71.542969 106.390625 71.289062 C 105.9375 71.035156 106.089844 71.1875 105.789062 71.035156 C 105.484375 70.882812 105.433594 70.78125 105.179688 70.429688 C 104.929688 70.078125 104.578125 70.785156 104.425781 70.886719 C 104.277344 70.988281 103.164062 71.289062 103.164062 71.289062 C 103.164062 71.289062 103.164062 71.289062 103.164062 71.085938 C 103.164062 70.886719 102.8125 70.886719 102.8125 70.886719 C 102.8125 70.886719 102.707031 70.910156 102.542969 70.933594 C 102.691406 70.75 102.84375 70.5625 102.996094 70.382812 Z M 114.558594 62.066406 C 114.503906 62.519531 114.808594 62.667969 114.960938 62.695312 C 115.113281 62.722656 115.113281 63.222656 115.113281 63.222656 C 115.113281 63.222656 114.050781 63.828125 113.949219 63.679688 C 113.914062 63.621094 113.808594 63.550781 113.695312 63.480469 C 113.96875 62.878906 114.234375 62.304688 114.488281 61.753906 C 114.53125 61.859375 114.570312 61.960938 114.558594 62.066406 Z M 119.144531 60.804688 C 119.296875 60.703125 119.648438 59.796875 119.699219 59.542969 C 119.75 59.292969 119.699219 58.890625 119.699219 58.585938 C 119.699219 58.285156 119.242188 58.183594 118.890625 58.082031 C 118.828125 58.066406 118.773438 58.070312 118.722656 58.074219 C 118.792969 56.589844 118.851562 55.445312 118.890625 54.703125 C 119.457031 55.375 120.371094 56.523438 121.496094 58.140625 C 121.363281 58.222656 121.21875 58.328125 121.140625 58.402344 C 121.039062 58.503906 120.4375 58.671875 120.402344 58.804688 C 120.371094 58.9375 120.265625 59.242188 120.265625 59.242188 C 120.265625 59.242188 120.535156 59.507812 120.265625 59.679688 C 120 59.84375 119.898438 60.585938 120.03125 60.722656 C 120.164062 60.855469 120.269531 60.921875 120.199219 61.089844 C 120.132812 61.257812 119.730469 61.625 119.628906 61.695312 C 119.527344 61.761719 119.15625 62.066406 119.125 62.335938 C 119.09375 62.601562 119.261719 63.007812 119.363281 63.242188 C 119.460938 63.476562 119.695312 63.175781 119.664062 63.746094 C 119.644531 64.023438 119.683594 64.289062 119.792969 64.460938 C 119.335938 64.472656 118.878906 64.488281 118.417969 64.488281 C 118.472656 63.308594 118.519531 62.21875 118.566406 61.207031 C 118.710938 61.0625 119.019531 60.886719 119.144531 60.804688 Z M 118.210938 85.304688 C 118.296875 85.679688 117.96875 85.867188 117.59375 86.03125 C 117.625 85.046875 117.660156 84.078125 117.691406 83.121094 C 118.007812 83.296875 117.953125 83.386719 118.210938 84.09375 C 118.488281 84.851562 118.082031 84.75 118.210938 85.304688 Z M 113.347656 64.234375 C 113.375 64.25 113.394531 64.253906 113.417969 64.265625 C 113.390625 64.265625 113.367188 64.261719 113.339844 64.257812 C 113.34375 64.25 113.34375 64.242188 113.347656 64.234375 Z M 117.574219 65.28125 C 117.554688 65.738281 117.535156 66.207031 117.511719 66.683594 C 117.445312 66.640625 117.386719 66.59375 117.3125 66.550781 C 116.996094 66.347656 116.21875 66.296875 115.617188 66.296875 C 115.011719 66.296875 114.203125 66.902344 113.800781 67.152344 C 113.398438 67.410156 113.800781 67.152344 113.246094 68.414062 C 112.691406 69.675781 113.398438 68.820312 113.5 69.320312 C 113.601562 69.824219 113.5 69.320312 113.601562 69.574219 C 113.703125 69.828125 114.105469 69.976562 114.359375 70.480469 C 114.609375 70.988281 114.40625 70.835938 114.359375 71.289062 C 114.308594 71.742188 114.15625 71.84375 113.851562 72.296875 C 113.550781 72.75 113.652344 72.648438 113.25 72.800781 C 112.84375 72.949219 112.996094 72.75 112.996094 72.75 C 112.996094 72.75 113.097656 71.640625 113.046875 71.488281 C 112.996094 71.339844 113.046875 70.988281 112.84375 71.085938 C 112.644531 71.1875 112.390625 71.386719 112.242188 71.136719 C 112.089844 70.882812 112.140625 70.78125 112.140625 70.78125 C 112.140625 70.78125 111.636719 70.480469 111.535156 70.328125 C 111.433594 70.179688 111.636719 69.875 111.636719 69.875 C 111.636719 69.875 111.941406 69.421875 111.941406 69.269531 C 111.941406 69.121094 111.941406 68.769531 111.941406 68.769531 L 111.839844 68.109375 L 111.839844 67.644531 C 111.875 67.554688 111.914062 67.464844 111.953125 67.382812 L 112.292969 67.152344 L 113.050781 66.851562 L 113.199219 66.195312 L 113.5 65.742188 C 113.5 65.742188 114.761719 65.792969 114.964844 65.792969 C 115.164062 65.792969 116.324219 65.84375 116.527344 65.84375 C 116.714844 65.84375 116.8125 65.335938 116.824219 65.261719 C 117.070312 65.273438 117.320312 65.277344 117.574219 65.28125 Z M 118.210938 70.332031 C 118.4375 70.429688 118.539062 70.785156 118.738281 71.339844 C 118.941406 71.894531 118.839844 71.792969 118.992188 71.792969 C 119.144531 71.792969 119.445312 72.148438 119.445312 72.148438 C 119.445312 72.148438 120.203125 72.804688 120.203125 73.203125 C 120.203125 73.605469 120.054688 73.609375 119.800781 73.808594 C 119.546875 74.011719 119.445312 74.3125 119.398438 74.617188 C 119.347656 74.917969 119.597656 75.421875 119.296875 75.472656 C 118.992188 75.523438 118.992188 75.523438 118.214844 75.523438 C 118.113281 75.523438 118.027344 75.527344 117.964844 75.539062 C 118.027344 73.707031 118.101562 71.960938 118.167969 70.308594 C 118.179688 70.3125 118.203125 70.328125 118.210938 70.332031 Z M 107.308594 80.667969 C 107.304688 80.617188 107.296875 80.585938 107.296875 80.515625 C 107.296875 80.011719 107.550781 79.707031 107.699219 79.15625 C 107.855469 78.601562 108.003906 78.800781 109.0625 77.992188 C 110.121094 77.1875 109.667969 77.742188 110.070312 77.640625 C 110.472656 77.539062 110.375 77.589844 110.625 77.039062 C 110.875 76.484375 111.28125 76.734375 111.886719 76.433594 C 112.488281 76.128906 111.886719 76.433594 112.488281 76.128906 C 113.09375 75.828125 112.488281 76.128906 112.4375 75.574219 C 112.386719 75.023438 112.035156 75.171875 112.691406 75.171875 C 113.347656 75.171875 113.195312 74.921875 113.195312 74.921875 C 113.195312 74.921875 113.195312 74.921875 113.398438 74.566406 C 113.597656 74.214844 113.75 74.667969 113.902344 74.667969 C 114.050781 74.667969 114.355469 74.667969 114.808594 74.414062 C 115.261719 74.160156 115.566406 74.011719 115.816406 73.8125 C 116.070312 73.609375 116.121094 73.558594 116.21875 73.054688 C 116.320312 72.550781 116.019531 72.601562 115.96875 72.25 C 115.914062 71.894531 116.117188 71.84375 116.066406 71.542969 C 116.015625 71.238281 116.015625 71.085938 116.015625 71.085938 C 116.015625 71.085938 116.015625 70.835938 116.167969 70.480469 C 116.320312 70.128906 116.421875 70.429688 116.722656 70.28125 C 117.023438 70.132812 117.175781 70.230469 117.3125 70.03125 C 117.324219 70.011719 117.351562 70.019531 117.371094 70.011719 C 117.230469 73.378906 117.085938 77.164062 116.945312 81.253906 C 113.613281 81.210938 110.386719 81.011719 107.308594 80.667969 Z M 113.746094 65.117188 C 113.742188 65.480469 113.640625 65.441406 113.347656 65.441406 C 113.105469 65.441406 112.941406 65.523438 112.714844 65.648438 C 112.804688 65.445312 112.894531 65.25 112.984375 65.046875 C 113.242188 65.070312 113.488281 65.097656 113.746094 65.117188 Z M 110.453125 70.863281 C 110.53125 70.933594 110.605469 71.003906 110.625 71.136719 C 110.675781 71.492188 110.625 71.136719 110.476562 71.390625 C 110.324219 71.640625 110.269531 71.742188 109.984375 71.988281 C 110.136719 71.609375 110.296875 71.230469 110.453125 70.863281 Z M 116.921875 82.058594 C 116.871094 83.484375 116.824219 84.941406 116.777344 86.429688 C 116.546875 86.59375 116.5 86.765625 116.421875 87.21875 C 116.320312 87.820312 116.675781 87.570312 116.625 88.476562 C 116.570312 89.386719 116.570312 88.933594 116.167969 89.4375 C 115.765625 89.9375 115.566406 89.6875 115.261719 89.636719 C 114.960938 89.585938 114.660156 88.628906 114.558594 87.972656 C 114.457031 87.316406 114.65625 87.316406 114.605469 86.664062 C 114.558594 86.007812 114.355469 86.058594 113.847656 85.703125 C 113.347656 85.351562 113.195312 85.503906 112.691406 85.351562 C 112.1875 85.203125 112.136719 85.25 111.480469 84.949219 C 110.824219 84.644531 111.382812 84.546875 111.027344 84.140625 C 110.675781 83.738281 110.320312 83.636719 109.867188 83.386719 C 109.414062 83.132812 109.0625 82.933594 108.757812 82.832031 C 108.453125 82.730469 108.40625 82.425781 108.351562 81.925781 C 108.335938 81.765625 108.285156 81.65625 108.21875 81.566406 C 111.019531 81.851562 113.929688 82.019531 116.921875 82.058594 Z M 108.660156 93.269531 C 108.859375 93.269531 109.464844 92.816406 110.273438 92.289062 C 110.273438 92.289062 110.273438 92.289062 110.574219 92.460938 C 110.878906 92.632812 110.574219 92.460938 110.523438 92.613281 C 110.476562 92.761719 110.777344 92.761719 111.027344 93.167969 C 111.28125 93.570312 112.59375 94.425781 112.488281 94.679688 C 112.390625 94.933594 112.488281 94.679688 110.777344 94.933594 C 109.0625 95.183594 110.777344 94.933594 110.273438 94.882812 C 109.765625 94.832031 109.765625 94.480469 109.464844 94.378906 C 109.164062 94.277344 109.210938 94.023438 108.609375 93.972656 C 108.003906 93.925781 108.609375 93.972656 108.054688 94.023438 C 107.5 94.074219 107.800781 94.125 107.347656 94.023438 C 106.894531 93.925781 106.894531 93.773438 106.894531 93.773438 C 106.894531 93.773438 108.457031 93.269531 108.660156 93.269531 Z M 125.855469 80.980469 C 125.6875 80.699219 125.539062 80.457031 125.34375 80.261719 C 125.042969 79.960938 125.34375 80.261719 124.992188 80.769531 C 124.636719 81.269531 124.992188 80.769531 125.070312 80.96875 C 125.078125 80.984375 125.070312 81.007812 125.0625 81.03125 C 124.351562 81.082031 123.632812 81.113281 122.910156 81.148438 C 122.703125 81.035156 122.484375 80.878906 122.269531 80.664062 C 121.867188 80.261719 122.21875 80.160156 122.117188 79.65625 C 122.019531 79.152344 122.066406 79.40625 121.714844 79.253906 C 121.363281 79.101562 121.261719 79.101562 121.113281 78.851562 C 120.960938 78.597656 120.554688 78.496094 120.253906 78.398438 C 119.949219 78.296875 119.597656 78.296875 118.84375 78.195312 C 118.085938 78.09375 118.4375 78.347656 118.214844 78.648438 C 118.085938 78.816406 117.941406 79.078125 117.816406 79.476562 C 117.847656 78.675781 117.871094 77.890625 117.902344 77.117188 C 118.003906 77.109375 118.109375 77.085938 118.210938 77.035156 C 118.539062 76.882812 118.941406 76.429688 118.941406 76.429688 C 118.941406 76.429688 119.445312 76.683594 120 77.1875 C 120.554688 77.691406 120.910156 77.992188 121.261719 78.449219 C 121.609375 78.902344 121.917969 79.105469 122.921875 78.648438 C 123.929688 78.195312 123.226562 78.601562 123.929688 78.449219 C 124.636719 78.296875 124.132812 77.992188 123.929688 77.742188 C 123.730469 77.488281 123.378906 77.441406 122.875 77.238281 C 122.367188 77.039062 122.417969 76.882812 122.875 76.933594 C 123.328125 76.984375 123.878906 76.984375 124.535156 76.78125 C 125.191406 76.582031 124.789062 76.230469 124.789062 76.230469 C 124.789062 76.230469 123.984375 75.925781 123.175781 75.273438 C 122.367188 74.617188 122.671875 74.71875 122.574219 74.417969 C 122.472656 74.113281 123.230469 74.265625 123.429688 74.265625 C 123.628906 74.265625 123.882812 74.621094 124.386719 75.074219 C 124.890625 75.523438 124.6875 74.972656 124.6875 74.820312 C 124.6875 74.667969 124.488281 73.8125 124.285156 73.253906 C 124.085938 72.703125 123.378906 73.003906 123.125 72.855469 C 122.875 72.703125 121.867188 71.792969 121.765625 71.640625 C 121.664062 71.492188 121.613281 69.625 121.261719 69.375 C 120.910156 69.121094 120.453125 69.019531 120.152344 68.769531 C 119.847656 68.519531 119.445312 68.265625 119.144531 68.015625 C 118.871094 67.785156 118.558594 67.449219 118.296875 67.234375 C 118.324219 66.566406 118.351562 65.921875 118.382812 65.296875 C 120.148438 65.292969 121.863281 65.203125 123.523438 65.046875 C 123.894531 65.410156 124.269531 65.800781 124.535156 66.03125 C 124.972656 66.402344 125.480469 66.46875 125.546875 67.441406 C 125.613281 68.417969 125.914062 68.316406 126.382812 68.316406 C 126.855469 68.316406 127.222656 68.519531 127.324219 68.585938 C 127.425781 68.652344 127.09375 68.957031 126.992188 69.191406 C 126.890625 69.425781 126.519531 69.695312 126.855469 70.230469 C 127.191406 70.769531 126.589844 71.105469 127.34375 71.003906 C 127.886719 70.929688 128.207031 70.53125 128.410156 70.324219 C 128.496094 70.511719 128.582031 70.703125 128.667969 70.890625 C 128.648438 71.082031 128.625 71.28125 128.601562 71.476562 C 128.535156 72.046875 127.984375 72.988281 128.695312 73.59375 C 129.410156 74.199219 129.542969 74.46875 130.113281 74.734375 C 130.21875 74.785156 130.300781 74.835938 130.382812 74.886719 C 131.066406 76.570312 131.730469 78.363281 132.375 80.253906 C 130.277344 80.566406 128.097656 80.808594 125.855469 80.980469 Z M 120.675781 64.433594 C 121.183594 64.148438 121.722656 63.761719 122.117188 63.847656 C 122.519531 63.933594 122.410156 64.03125 122.703125 64.308594 C 122.03125 64.359375 121.359375 64.40625 120.675781 64.433594 Z M 131.929688 76.621094 C 132.308594 76.949219 132.359375 77.089844 132.90625 77.289062 C 133.542969 77.523438 133.308594 77.726562 133.675781 78.027344 C 134.046875 78.332031 134.316406 78.296875 134.886719 78.296875 C 135.460938 78.296875 135.695312 78.835938 136 78.898438 C 136.296875 78.96875 136.402344 79.070312 136.636719 78.898438 C 136.871094 78.734375 136.871094 79.136719 136.871094 78.496094 C 136.871094 77.859375 137.007812 78.230469 136.871094 77.488281 C 136.738281 76.75 136.234375 74.867188 135.761719 74.03125 C 135.292969 73.191406 135.527344 73.222656 135.929688 72.855469 C 136.332031 72.484375 136.769531 72.585938 136.769531 71.945312 C 136.769531 71.308594 136.398438 71.175781 136.769531 70.332031 C 136.917969 69.996094 137.074219 69.875 137.199219 69.765625 C 139.359375 72.136719 141.546875 74.757812 143.671875 77.683594 C 140.523438 78.695312 137 79.523438 133.191406 80.125 C 132.777344 78.914062 132.359375 77.746094 131.929688 76.621094 Z M 117.609375 64.472656 C 116.480469 64.460938 115.363281 64.417969 114.277344 64.335938 C 114.085938 64.050781 115.125 64.171875 115.363281 64.03125 C 115.617188 63.878906 116.472656 64.179688 116.472656 64.179688 C 116.472656 64.179688 116.925781 64.28125 117.3125 64.230469 C 117.492188 64.207031 117.542969 64.226562 117.558594 64.253906 C 117.578125 64.207031 117.601562 64.125 117.632812 64.039062 C 117.625 64.1875 117.617188 64.328125 117.609375 64.472656 Z M 113.648438 61.65625 C 113.308594 61.46875 113.117188 61.316406 112.882812 61.3125 C 112.589844 61.308594 112.945312 61.410156 112.589844 61.308594 C 112.238281 61.207031 111.835938 61.3125 111.835938 61.3125 C 111.632812 61.5625 111.734375 61.257812 111.632812 61.5625 C 111.53125 61.863281 111.53125 62.40625 111.734375 62.390625 C 111.9375 62.367188 111.632812 62.21875 111.9375 62.367188 C 112.238281 62.519531 111.984375 62.519531 112.238281 62.519531 C 112.488281 62.519531 112.457031 62.359375 112.652344 62.386719 C 112.84375 62.417969 112.441406 62.167969 112.84375 62.417969 C 113.019531 62.527344 113.121094 62.578125 113.203125 62.613281 C 112.984375 63.09375 112.75 63.613281 112.519531 64.125 C 112.511719 64.121094 112.5 64.109375 112.5 64.109375 C 112.5 64.109375 112.476562 64.136719 112.453125 64.167969 C 112.347656 64.15625 112.242188 64.148438 112.140625 64.136719 C 112.140625 64.125 112.136719 64.121094 112.140625 64.109375 C 112.1875 63.527344 112.1875 63.527344 112.1875 63.527344 L 111.988281 63.269531 C 111.988281 63.269531 111.84375 63.214844 111.5625 63.269531 C 111.28125 63.324219 110.882812 63.679688 110.90625 63.828125 C 110.925781 63.953125 111.082031 63.824219 110.984375 63.984375 C 110.65625 63.9375 110.316406 63.894531 109.988281 63.84375 C 110.003906 63.792969 110.011719 63.746094 110.023438 63.671875 C 110.074219 63.222656 110.023438 62.730469 110.023438 62.730469 C 110.023438 62.730469 110.09375 62.449219 110.285156 62.074219 C 112.925781 59.230469 115.109375 57.050781 116.503906 55.707031 C 115.816406 57.078125 114.824219 59.117188 113.648438 61.65625 Z M 121.160156 100.679688 C 121.464844 100.273438 121.867188 100.882812 122.925781 100.125 C 123.984375 99.367188 123.328125 99.820312 123.429688 99.570312 C 123.53125 99.316406 123.429688 99.265625 123.429688 99.015625 C 123.429688 98.765625 123.628906 98.359375 123.628906 98.210938 C 123.628906 98.058594 123.933594 97.855469 124.234375 97.605469 C 124.535156 97.355469 124.636719 97.40625 125.09375 97.199219 C 125.546875 97 125.746094 96.796875 125.894531 96.699219 C 126.050781 96.597656 126.203125 96.246094 127.160156 95.640625 C 128.113281 95.035156 127.207031 95.992188 127.105469 96.246094 C 127.007812 96.496094 126.152344 97.199219 126.300781 97.910156 C 126.453125 98.613281 126.550781 98.109375 127.105469 98.007812 C 127.660156 97.910156 128.519531 97.050781 128.667969 96.796875 C 128.820312 96.542969 130.082031 95.589844 130.03125 95.390625 C 129.980469 95.1875 129.980469 94.933594 129.980469 94.933594 C 129.980469 94.933594 129.527344 94.78125 128.925781 94.480469 C 128.316406 94.175781 128.925781 94.480469 128.015625 94.226562 C 127.109375 93.972656 128.015625 94.226562 127.613281 93.773438 C 127.210938 93.320312 127.613281 93.773438 127.058594 93.574219 C 126.507812 93.371094 127.058594 93.574219 127.058594 93.222656 C 127.058594 92.867188 127.566406 92.964844 127.96875 92.292969 C 128.371094 91.613281 128.21875 91.804688 127.96875 91.503906 C 127.714844 91.203125 127.660156 91.457031 127.109375 91.457031 C 126.554688 91.457031 126.507812 91.503906 125.648438 91.757812 C 124.789062 92.011719 125.648438 91.757812 125.296875 92.292969 C 124.941406 92.828125 125.042969 92.664062 124.789062 92.867188 C 124.539062 93.070312 124.289062 93.222656 123.328125 93.324219 C 122.371094 93.421875 123.328125 93.324219 123.480469 93.019531 C 123.632812 92.714844 123.480469 93.019531 123.984375 92.292969 C 124.488281 91.566406 124.441406 91.859375 124.6875 91.507812 C 124.945312 91.152344 125.445312 91.054688 125.800781 90.800781 C 126.152344 90.546875 126.40625 90.648438 126.910156 90.546875 C 127.414062 90.449219 128.476562 90.546875 129.480469 90.496094 C 130.488281 90.449219 130.335938 90.347656 130.589844 90.042969 C 130.84375 89.742188 131.144531 89.136719 131.246094 88.785156 C 131.347656 88.429688 131.601562 88.480469 131.699219 88.332031 C 131.800781 88.179688 132.355469 87.675781 132.304688 87.371094 C 132.253906 87.070312 132.203125 86.769531 131.953125 86.617188 C 131.699219 86.464844 131.449219 86.464844 130.941406 86.261719 C 130.441406 86.0625 130.542969 86.160156 130.542969 85.558594 C 130.542969 84.953125 130.542969 85.558594 130.390625 85.507812 C 130.242188 85.457031 129.484375 85.105469 128.875 84.851562 C 128.273438 84.597656 128.578125 84.800781 127.921875 84.652344 C 127.265625 84.5 127.316406 83.441406 127.0625 83.1875 C 126.847656 82.972656 126.589844 82.289062 126.304688 81.746094 C 128.476562 81.570312 130.601562 81.328125 132.644531 81.019531 C 133.019531 82.144531 133.390625 83.296875 133.742188 84.492188 C 134.367188 86.582031 134.960938 88.84375 135.519531 91.25 C 135.332031 91.058594 135.304688 91.070312 135.128906 90.878906 C 134.902344 90.625 135.53125 90.648438 134.800781 90.5 C 134.070312 90.347656 133.820312 90.296875 133.617188 90.347656 C 133.414062 90.398438 133.289062 90.375 133.289062 90.375 C 133.289062 90.375 133.214844 90.347656 133.113281 90.246094 C 133.011719 90.148438 132.886719 89.894531 132.886719 89.695312 C 132.886719 89.492188 132.886719 89.242188 132.886719 89.089844 C 132.886719 88.941406 132.988281 88.761719 132.859375 88.785156 C 132.734375 88.8125 132.609375 88.785156 132.609375 88.785156 C 132.203125 89.367188 131.75 89.617188 131.773438 89.792969 C 131.800781 89.972656 131.722656 90.246094 131.773438 90.375 C 131.828125 90.5 131.789062 90.652344 131.753906 90.851562 C 131.726562 91.054688 131.625 91.03125 131.550781 91.410156 C 131.472656 91.785156 131.320312 92.066406 131.320312 92.164062 C 131.320312 92.265625 131.21875 92.316406 131.320312 92.59375 C 131.421875 92.871094 130.640625 92.742188 131.421875 92.871094 C 132.203125 92.996094 131.953125 92.820312 132.757812 92.871094 C 133.566406 92.917969 133.339844 92.792969 134.042969 92.691406 C 134.75 92.59375 134.953125 92.414062 135.105469 92.441406 C 135.253906 92.464844 134.925781 92.707031 134.800781 92.914062 C 134.675781 93.121094 135.128906 93.121094 135.457031 93.121094 C 135.691406 93.121094 135.8125 93.222656 135.953125 93.203125 C 136.378906 95.175781 136.769531 97.25 137.121094 99.417969 C 132.070312 100.160156 126.695312 100.613281 121.132812 100.730469 C 121.140625 100.707031 121.148438 100.699219 121.160156 100.679688 Z M 136.632812 92.53125 C 136.648438 92.46875 136.636719 92.40625 136.589844 92.324219 C 135.949219 89.417969 135.246094 86.730469 134.515625 84.261719 C 134.171875 83.097656 133.8125 81.980469 133.449219 80.882812 C 137.328125 80.257812 140.921875 79.394531 144.128906 78.34375 C 144.742188 79.195312 145.347656 80.054688 145.9375 80.953125 C 148.671875 85.097656 151.367188 89.972656 153.671875 95.574219 C 149.007812 97.144531 143.679688 98.40625 137.914062 99.296875 C 137.527344 96.921875 137.097656 94.667969 136.632812 92.53125 Z M 144.476562 77.429688 C 142.1875 74.25 139.816406 71.394531 137.480469 68.863281 C 137.476562 68.800781 137.480469 68.753906 137.476562 68.683594 C 137.40625 67.375 137.710938 67.84375 137.910156 67.476562 C 138.113281 67.105469 137.582031 66.566406 137.039062 66.234375 C 136.5 65.894531 135.324219 65.089844 134.957031 64.585938 C 134.746094 64.300781 134.148438 63.578125 133.582031 62.957031 C 134.699219 62.558594 135.714844 62.113281 136.625 61.625 C 140.664062 64.007812 145.042969 67.058594 149.34375 70.964844 C 150.378906 71.910156 151.359375 72.871094 152.320312 73.84375 C 150.164062 75.191406 147.527344 76.402344 144.476562 77.429688 Z M 132.953125 62.316406 C 132.769531 62.148438 132.609375 62.011719 132.503906 61.960938 C 132 61.730469 132.335938 62.332031 131.496094 61.359375 C 130.65625 60.386719 130.253906 60.484375 129.878906 60.351562 C 129.511719 60.21875 129.210938 60.050781 128.769531 59.679688 C 128.335938 59.308594 128.640625 59.511719 128.167969 59.242188 C 127.695312 58.976562 127.601562 58.808594 126.757812 58.238281 C 126.257812 57.898438 125.828125 57.90625 125.546875 57.960938 C 123.625 56.496094 122 55.382812 120.820312 54.617188 C 121.039062 54.667969 121.308594 54.730469 121.554688 54.792969 C 124.292969 55.652344 129.574219 57.574219 135.804688 61.148438 C 134.945312 61.570312 133.996094 61.960938 132.953125 62.316406 Z M 124.480469 58.167969 C 124.40625 58.152344 124.238281 58.070312 123.867188 57.832031 C 122.925781 57.226562 122.355469 56.992188 122.121094 57.09375 C 122.023438 57.132812 121.925781 57.183594 121.839844 57.230469 C 121.3125 56.496094 120.832031 55.84375 120.425781 55.324219 C 121.464844 55.996094 122.839844 56.941406 124.480469 58.167969 Z M 117.898438 58.347656 C 117.492188 58.417969 116.871094 58.894531 116.570312 59.039062 C 116.332031 59.160156 115.984375 59.421875 115.347656 59.921875 C 116.730469 57.011719 117.726562 55.0625 118.101562 54.328125 C 118.0625 55.078125 117.992188 56.445312 117.898438 58.347656 Z M 107.921875 63.460938 C 107.648438 63.40625 107.386719 63.339844 107.121094 63.28125 C 107.148438 63.253906 107.160156 63.253906 107.199219 63.222656 C 107.753906 62.769531 107.550781 63.089844 108.003906 62.730469 C 108.457031 62.367188 107.753906 62.667969 108.457031 62.367188 C 109.164062 62.0625 109.164062 62.0625 109.164062 62.0625 L 109.164062 61.511719 L 108.363281 61.5625 C 108.308594 61.660156 108.660156 60.957031 107.804688 61.5625 C 106.945312 62.164062 106.59375 62.0625 106.492188 62.214844 C 106.390625 62.367188 106.039062 62.730469 106.039062 62.730469 C 106.039062 62.730469 105.484375 62.386719 105.535156 62.730469 C 105.542969 62.796875 105.546875 62.839844 105.550781 62.886719 C 104.839844 62.691406 104.171875 62.480469 103.527344 62.257812 C 108.824219 58.871094 113.253906 56.527344 115.785156 55.273438 C 114.070312 56.941406 111.277344 59.746094 107.921875 63.460938 Z M 107.128906 64.160156 C 107.054688 64.234375 107.019531 64.308594 106.894531 64.484375 C 106.640625 64.835938 105.988281 64.734375 106.640625 64.835938 C 106.660156 64.839844 106.667969 64.84375 106.683594 64.847656 C 106.3125 65.265625 105.949219 65.671875 105.570312 66.109375 C 105.515625 66.0625 105.484375 65.988281 105.484375 65.847656 C 105.484375 65.191406 105.179688 65.746094 105.484375 65.191406 C 105.789062 64.636719 106.039062 64.183594 105.835938 64.132812 C 105.636719 64.082031 105.03125 64.132812 105.03125 64.132812 C 104.578125 64.234375 103.671875 64.234375 103.117188 64.6875 C 102.558594 65.140625 102.460938 65.089844 102.105469 65.542969 C 101.753906 65.996094 101.554688 65.996094 101.453125 66.148438 C 101.351562 66.296875 100.746094 66.585938 101.046875 66.695312 C 101.351562 66.800781 101.453125 66.535156 101.804688 66.695312 C 102.160156 66.851562 102.460938 67.207031 102.460938 67.207031 C 102.460938 67.207031 102.460938 67.410156 102.511719 67.609375 C 102.558594 67.808594 101.90625 68.316406 101.957031 68.464844 C 102.007812 68.617188 101.804688 69.019531 101.957031 69.324219 C 102.101562 69.613281 101.890625 69.542969 102.324219 69.941406 C 102.035156 70.292969 101.746094 70.636719 101.453125 70.996094 C 101.335938 71 101.289062 70.996094 101.199219 70.9375 C 101.046875 70.835938 101.046875 70.480469 101.046875 70.480469 C 101.046875 70.480469 101.503906 70.179688 101.503906 70.03125 C 101.503906 69.878906 101.453125 69.675781 101.453125 69.675781 L 101.097656 69.222656 C 101.097656 69.222656 100.546875 68.667969 100.46875 68.515625 C 100.386719 68.363281 99.992188 68.261719 99.992188 68.261719 C 99.992188 68.261719 99.890625 67.660156 99.890625 67.152344 C 99.890625 66.652344 99.386719 66.75 99.386719 66.75 C 99.386719 66.75 98.984375 66.75 98.628906 66.75 C 98.273438 66.75 98.074219 66.902344 97.824219 66.953125 C 97.585938 67 97.289062 66.957031 96.632812 66.953125 C 98.699219 65.453125 100.710938 64.078125 102.617188 62.835938 C 103.984375 63.347656 105.484375 63.800781 107.128906 64.160156 Z M 95.996094 67.425781 C 96.007812 67.414062 96.019531 67.40625 96.03125 67.398438 C 96.015625 67.40625 96.011719 67.414062 95.996094 67.425781 Z M 117.3125 138.238281 C 117.167969 138.289062 117.113281 138.386719 117.03125 138.476562 C 117.011719 137.125 116.992188 135.765625 116.976562 134.402344 C 117.003906 134.492188 117.023438 134.554688 117.023438 134.554688 L 117.53125 134.804688 C 117.53125 134.804688 117.582031 138.132812 117.3125 138.238281 Z M 118.28125 120.296875 C 118.1875 120.296875 118.097656 120.296875 118.003906 120.296875 C 117.980469 120.277344 117.960938 120.257812 117.933594 120.238281 C 117.632812 119.988281 117.839844 119.738281 117.128906 119.785156 C 117.042969 119.792969 117.003906 119.796875 116.9375 119.804688 C 116.960938 115.777344 117.007812 111.761719 117.070312 107.8125 C 117.257812 107.671875 117.4375 107.539062 117.679688 107.382812 C 118.082031 107.132812 117.679688 107.382812 118.210938 106.78125 C 118.738281 106.175781 118.183594 106.273438 118.210938 105.871094 C 118.234375 105.46875 118.488281 103.703125 118.789062 103.855469 C 119.09375 104.003906 118.789062 103.855469 119.445312 103.90625 C 120.105469 103.953125 119.445312 103.90625 119.703125 103.351562 C 119.953125 102.796875 120.253906 102.746094 120.355469 102.496094 C 120.453125 102.246094 120.554688 101.992188 120.707031 101.542969 C 126.492188 101.445312 132.046875 100.996094 137.246094 100.25 C 138.117188 105.839844 138.714844 112.074219 138.875 118.957031 C 132.375 119.828125 125.445312 120.296875 118.28125 120.296875 Z M 138.042969 100.132812 C 143.902344 99.246094 149.28125 97.976562 153.996094 96.390625 C 156.144531 101.765625 157.925781 107.800781 159.050781 114.5 C 153.320312 116.371094 146.773438 117.847656 139.679688 118.84375 C 139.515625 111.964844 138.917969 105.730469 138.042969 100.132812 Z M 136.660156 60.707031 C 133.644531 58.953125 130.855469 57.59375 128.421875 56.53125 C 131.46875 57.355469 134.925781 58.363281 138.421875 59.523438 C 137.910156 59.933594 137.328125 60.335938 136.660156 60.707031 Z M 116.226562 54.160156 C 113.804688 55.332031 108.730469 57.9375 102.5625 61.914062 C 101.019531 61.316406 99.703125 60.632812 98.65625 59.890625 C 106.179688 56.648438 112.40625 54.894531 115.242188 54.183594 C 115.570312 54.175781 115.898438 54.167969 116.226562 54.160156 Z M 101.695312 62.488281 C 99.703125 63.789062 97.621094 65.222656 95.472656 66.804688 C 95.472656 66.71875 95.480469 66.636719 95.453125 66.550781 C 95.351562 66.246094 95.25 65.894531 95.097656 65.644531 C 94.949219 65.390625 94.898438 65.039062 94.796875 64.683594 C 94.695312 64.332031 94.746094 64.332031 94.542969 63.980469 C 94.34375 63.625 93.988281 63.273438 93.886719 62.972656 C 93.785156 62.667969 93.683594 62.667969 93.382812 62.71875 C 93.082031 62.769531 93.082031 62.667969 92.828125 62.769531 C 92.699219 62.820312 92.632812 62.78125 92.503906 62.746094 C 94.304688 61.839844 96.070312 61.019531 97.773438 60.269531 C 98.8125 61.089844 100.132812 61.835938 101.695312 62.488281 Z M 87.992188 65.191406 C 87.839844 65.390625 87.738281 65.390625 87.535156 65.492188 C 87.488281 65.519531 87.449219 65.511719 87.421875 65.480469 C 87.617188 65.367188 87.8125 65.265625 88.011719 65.152344 C 88.003906 65.164062 88.003906 65.175781 87.992188 65.191406 Z M 83.203125 71.742188 C 83.351562 71.742188 83 71.996094 82.75 72.109375 C 82.578125 72.191406 82.523438 72.457031 82.492188 72.6875 C 82.308594 72.546875 82.128906 72.410156 81.957031 72.269531 C 82.300781 72.105469 83.085938 71.742188 83.203125 71.742188 Z M 83.453125 72.953125 C 83.605469 72.953125 84.058594 72.699219 84.058594 72.699219 C 84.058594 72.699219 84.664062 72.449219 84.714844 72.148438 C 84.765625 71.84375 84.917969 73.558594 84.917969 73.558594 C 84.917969 73.558594 85.003906 74 85.050781 74.375 C 84.289062 73.941406 83.578125 73.488281 82.933594 73.023438 C 83.152344 72.992188 83.382812 72.953125 83.453125 72.953125 Z M 85.625 75.941406 C 85.726562 76.246094 85.871094 76.6875 85.824219 76.886719 C 85.769531 77.085938 85.722656 77.339844 85.570312 77.542969 C 85.421875 77.742188 85.421875 78.953125 85.214844 79.15625 C 85.015625 79.355469 85.214844 79.660156 85.066406 80.265625 C 84.917969 80.871094 85.214844 81.023438 85.214844 81.023438 L 85.066406 81.777344 C 85.066406 81.777344 84.816406 82.636719 84.664062 82.9375 C 84.511719 83.242188 84.410156 83.59375 84.410156 83.59375 C 84.410156 83.59375 84.5625 84.601562 84.210938 84.90625 C 83.855469 85.207031 84.210938 84.90625 84.058594 85.054688 C 83.90625 85.207031 83.859375 85.660156 83.757812 86.015625 C 83.65625 86.367188 84.210938 87.121094 84.261719 87.375 C 84.3125 87.625 84.3125 87.878906 84.261719 88.082031 C 84.210938 88.28125 84.460938 88.835938 84.3125 89.191406 C 84.160156 89.542969 83.703125 91.308594 83.453125 91.8125 C 83.203125 92.316406 82.648438 93.070312 82.292969 93.574219 C 81.960938 94.050781 81.882812 94.320312 81.414062 95.148438 C 77.9375 93.902344 74.882812 92.480469 72.324219 90.90625 C 75.773438 86.035156 79.59375 81.746094 83.359375 78.078125 C 84.113281 77.347656 84.871094 76.636719 85.625 75.941406 Z M 81.75 103.292969 C 81.941406 103.425781 81.996094 103.519531 82.34375 103.90625 C 82.796875 104.410156 82.796875 107.179688 82.898438 107.6875 C 83 108.191406 83.65625 108.492188 83.65625 108.492188 C 83.65625 108.492188 83.703125 108.847656 83.65625 109.097656 C 83.605469 109.347656 83.65625 109.800781 83.460938 110.003906 C 83.265625 110.207031 83.503906 110.308594 83.503906 110.308594 C 83.503906 110.308594 83.402344 110.558594 83.503906 110.761719 C 83.605469 110.964844 83.503906 111.214844 83.503906 111.214844 C 83.503906 111.214844 84.007812 111.570312 84.3125 111.71875 C 84.613281 111.867188 84.863281 112.023438 84.816406 112.171875 C 84.765625 112.320312 84.914062 113.484375 84.964844 113.886719 C 85.015625 114.289062 85.167969 114.289062 85.167969 114.492188 C 85.167969 114.691406 85.722656 115.496094 85.722656 115.652344 C 85.722656 115.800781 86.171875 116.054688 86.171875 116.054688 L 86.425781 116.054688 C 86.425781 116.054688 86.527344 115.394531 86.527344 115.246094 C 86.527344 115.097656 86.527344 114.792969 86.527344 114.792969 C 86.527344 114.792969 86.425781 114.539062 86.171875 114.339844 C 85.921875 114.140625 85.820312 113.53125 85.820312 113.53125 C 85.820312 113.53125 85.820312 112.828125 85.722656 112.675781 C 85.621094 112.523438 85.367188 111.417969 85.367188 111.417969 L 85.214844 110.558594 C 85.214844 110.558594 84.964844 109.699219 84.914062 109.550781 C 84.863281 109.398438 84.863281 109.199219 84.761719 108.996094 C 84.660156 108.796875 84.710938 108.238281 84.710938 108.238281 L 84.308594 106.878906 C 84.308594 106.878906 85.015625 106.679688 85.425781 106.878906 C 85.832031 107.082031 85.871094 108.089844 85.46875 108.695312 C 85.0625 109.300781 87.53125 111.921875 87.53125 111.921875 C 87.53125 111.921875 87.585938 112.476562 87.535156 112.828125 C 87.484375 113.183594 88.039062 113.28125 88.039062 113.632812 C 88.039062 113.988281 89.75 116.761719 90.007812 117.515625 C 90.023438 117.570312 90.019531 117.628906 90.035156 117.679688 C 85.515625 116.792969 81.285156 115.707031 77.425781 114.441406 C 78.625 110.640625 80.09375 106.914062 81.75 103.292969 Z M 90.089844 118.492188 C 90.0625 118.96875 89.976562 119.492188 90.007812 120.136719 C 90.054688 121.246094 91.167969 121.902344 91.167969 121.902344 L 92.375 122.757812 L 93.386719 123.109375 C 93.386719 123.109375 93.65625 123.261719 94.078125 123.480469 C 93.265625 129.203125 92.796875 135.042969 92.847656 140.800781 C 85.921875 139.640625 79.558594 138.027344 74.027344 136.042969 C 74.011719 135.132812 74.011719 134.214844 74.042969 133.289062 C 74.230469 127.175781 75.390625 121.101562 77.199219 115.183594 C 81.144531 116.484375 85.476562 117.59375 90.089844 118.492188 Z M 94.835938 123.875 C 96.089844 124.503906 97.839844 125.328125 98.777344 125.480469 C 100.339844 125.734375 100.996094 125.128906 101.703125 125.480469 C 102.410156 125.832031 103.566406 127.09375 104.222656 127.800781 C 104.878906 128.503906 104.828125 128.050781 105.230469 128.300781 C 105.632812 128.550781 105.785156 128.351562 106.691406 128.609375 C 107.597656 128.859375 108.507812 130.621094 108.507812 131.027344 C 108.507812 131.425781 108.808594 131.785156 109.164062 132.386719 C 109.515625 132.992188 109.765625 132.386719 110.320312 132.386719 C 110.878906 132.386719 111.230469 133.75 111.484375 133.695312 C 111.734375 133.648438 112.542969 133.648438 112.542969 133.648438 C 112.542969 133.648438 113.398438 134.152344 113.800781 134.554688 L 114.457031 133.953125 L 115.160156 133.394531 L 115.769531 133.144531 C 115.769531 133.144531 115.957031 133.222656 116.164062 133.3125 C 116.179688 135.1875 116.207031 137.050781 116.238281 138.902344 C 115.90625 139.144531 115.539062 139.484375 115.316406 139.648438 C 114.960938 139.902344 114.707031 141.210938 114.308594 142.066406 C 114.199219 142.296875 114.125 142.546875 114.070312 142.792969 C 106.949219 142.605469 100.070312 141.972656 93.652344 140.9375 C 93.597656 135.269531 94.042969 129.515625 94.835938 123.875 Z M 113.964844 143.597656 C 113.949219 143.886719 113.949219 144.125 113.949219 144.179688 C 113.949219 144.332031 114.355469 144.738281 114.355469 145.144531 C 114.355469 145.539062 114.355469 145.144531 114.152344 145.191406 C 113.949219 145.242188 113.652344 146 113.449219 146.25 C 113.246094 146.5 113.449219 147.410156 113.449219 147.710938 C 113.449219 148.011719 113.851562 148.417969 114.304688 148.570312 C 114.632812 148.679688 115.808594 149.300781 116.53125 149.789062 C 116.671875 153.683594 116.855469 157.4375 117.09375 160.988281 C 109.773438 160.933594 102.667969 160.386719 96.015625 159.40625 C 94.488281 153.816406 93.773438 147.867188 93.65625 141.804688 C 100.019531 142.800781 106.851562 143.417969 113.964844 143.597656 Z M 117.363281 150.664062 C 117.65625 151.125 118 151.726562 118.183594 151.949219 C 118.429688 152.25 118.390625 152.851562 118.210938 153.160156 C 118.03125 153.457031 118.691406 153.558594 118.839844 153.964844 C 118.992188 154.367188 119.242188 154.316406 119.34375 154.570312 C 119.445312 154.820312 119.847656 155.171875 120.101562 155.578125 C 120.355469 155.980469 121.613281 156.480469 122.269531 156.535156 C 122.925781 156.582031 124.839844 157.039062 125.042969 157.648438 C 125.113281 157.867188 125.035156 159.214844 124.882812 160.859375 C 122.703125 160.949219 120.503906 161.003906 118.28125 161.003906 C 118.152344 161.003906 118.027344 161 117.898438 161 C 117.679688 157.710938 117.503906 154.25 117.363281 150.664062 Z M 118.28125 161.8125 C 120.476562 161.8125 122.648438 161.753906 124.800781 161.667969 C 124.519531 164.328125 124.074219 167.390625 123.730469 167.824219 C 123.160156 168.542969 122.992188 168.363281 121.90625 173.050781 C 120.941406 173.078125 119.976562 173.109375 119.015625 173.113281 C 118.589844 169.691406 118.234375 165.890625 117.953125 161.804688 C 118.0625 161.804688 118.171875 161.8125 118.28125 161.8125 Z M 131.09375 172.113281 C 131.191406 171.957031 132 171.910156 132.203125 171.859375 C 132.203125 171.859375 132.210938 171.855469 132.214844 171.855469 C 132.179688 171.984375 132.140625 172.121094 132.109375 172.25 C 131.738281 172.296875 131.375 172.328125 131.003906 172.371094 C 131.039062 172.242188 131.070312 172.140625 131.09375 172.113281 Z M 148.445312 139.988281 C 147.835938 139.804688 147.816406 139.847656 147.476562 139.796875 C 147.121094 139.746094 146.570312 139.699219 145.710938 139.34375 C 144.851562 138.988281 144.046875 139.445312 144.046875 139.445312 L 144.953125 138.636719 C 144.953125 138.636719 145.003906 137.980469 144.5 137.074219 C 143.84375 133.996094 139.910156 134.25 139.609375 134.25 C 139.519531 134.25 139.421875 134.253906 139.320312 134.246094 C 139.675781 129.105469 139.789062 124.230469 139.699219 119.648438 C 146.820312 118.648438 153.402344 117.164062 159.183594 115.277344 C 160.226562 121.867188 160.625 129.097656 160.113281 136.960938 C 156.515625 138.128906 152.605469 139.144531 148.445312 139.988281 Z M 159.960938 115.023438 C 162.917969 114.027344 165.648438 112.925781 168.125 111.730469 C 168.269531 112.855469 168.550781 113.890625 169.101562 114.542969 C 170.464844 116.15625 170.464844 116.054688 170.410156 117.316406 C 170.363281 118.574219 170.363281 119.328125 170.664062 119.53125 C 170.96875 119.734375 171.625 120.945312 171.921875 121.347656 C 172.226562 121.75 172.179688 122.203125 172.628906 122.808594 C 173.066406 123.386719 172.734375 123.648438 174.398438 124.113281 C 174.59375 126.167969 174.734375 128.203125 174.816406 130.207031 C 171.085938 132.679688 166.386719 134.859375 160.945312 136.6875 C 161.425781 128.835938 161.015625 121.613281 159.960938 115.023438 Z M 174.292969 90.597656 C 174.292969 90.597656 173.132812 89.890625 172.929688 90.144531 C 172.730469 90.394531 171.625 91.757812 171.625 91.757812 C 171.625 91.757812 171.167969 93.269531 171.066406 93.421875 C 170.96875 93.570312 168.847656 95.285156 168.746094 95.4375 C 168.660156 95.578125 168.488281 96.007812 168.417969 96.539062 C 168.039062 95.652344 167.644531 94.78125 167.242188 93.929688 C 167.308594 93.929688 167.363281 93.917969 167.4375 93.925781 C 168.097656 93.976562 169.003906 93.882812 169.15625 94.007812 C 169.304688 94.128906 169.757812 93.925781 170.210938 93.371094 C 170.667969 92.816406 170.464844 92.464844 170.210938 91.609375 C 169.957031 90.75 169.457031 90.296875 169.355469 89.640625 C 169.28125 89.15625 169.125 88.945312 169.027344 88.316406 C 170.097656 87.324219 170.992188 86.292969 171.710938 85.230469 C 172.742188 86.96875 173.695312 88.765625 174.554688 90.613281 Z M 144.769531 60.941406 C 143.191406 60.328125 141.574219 59.738281 139.949219 59.183594 C 140.140625 58.972656 140.300781 58.757812 140.457031 58.542969 C 141.75 59.054688 143.03125 59.597656 144.285156 60.195312 C 144.402344 60.4375 144.578125 60.703125 144.769531 60.941406 Z M 139.101562 58.898438 C 133.289062 56.949219 127.503906 55.414062 123.574219 54.445312 C 129.1875 55 134.589844 56.300781 139.679688 58.238281 C 139.511719 58.460938 139.320312 58.683594 139.101562 58.898438 Z M 111.347656 54.421875 C 107.972656 55.421875 103.269531 57.003906 97.941406 59.324219 C 97.324219 58.796875 96.835938 58.246094 96.503906 57.671875 C 101.226562 56.019531 106.195312 54.90625 111.347656 54.421875 Z M 80.175781 70.070312 C 80.144531 70.199219 80.113281 70.320312 80.09375 70.441406 C 80.035156 70.375 79.976562 70.3125 79.921875 70.242188 C 80.003906 70.183594 80.09375 70.128906 80.175781 70.070312 Z M 79.855469 71.308594 C 79.804688 71.570312 79.90625 71.691406 79.824219 72.097656 C 79.722656 72.601562 79.824219 72.097656 79.523438 72.25 C 79.449219 72.28125 79.414062 72.300781 79.394531 72.308594 C 79.394531 72.308594 79.386719 72.316406 79.382812 72.316406 C 79.375 72.320312 79.363281 72.328125 79.316406 72.347656 C 79.117188 72.449219 79.019531 72.648438 78.816406 72.648438 C 78.617188 72.648438 78.109375 72.953125 78.109375 72.953125 C 78.109375 72.953125 77.65625 73.207031 77.351562 73.207031 C 77.050781 73.207031 77.101562 73.457031 76.75 73.507812 C 76.398438 73.558594 76.296875 73.558594 75.992188 73.558594 C 75.691406 73.558594 75.992188 74.0625 75.992188 74.0625 C 75.992188 74.0625 77.050781 74.164062 77.453125 74.113281 C 77.859375 74.0625 78.007812 74.011719 78.3125 73.914062 C 78.613281 73.8125 79.21875 73.8125 79.472656 73.660156 C 79.722656 73.507812 80.328125 73.15625 80.328125 73.15625 C 80.328125 73.15625 81.085938 73.003906 81.285156 72.953125 C 81.363281 72.933594 81.421875 72.878906 81.46875 72.816406 C 82.523438 73.679688 83.765625 74.5 85.164062 75.273438 C 84.375 75.992188 83.59375 76.726562 82.816406 77.480469 C 79.003906 81.195312 75.132812 85.535156 71.644531 90.46875 C 68.5625 88.476562 66.28125 86.265625 64.972656 83.890625 C 69.269531 78.707031 74.214844 74.339844 79.316406 70.683594 C 79.488281 70.894531 79.667969 71.101562 79.855469 71.308594 Z M 71.894531 91.523438 C 74.488281 93.113281 77.558594 94.558594 81.042969 95.824219 C 80.824219 96.261719 80.875 96.292969 80.875 96.292969 C 80.875 96.292969 81.035156 98.3125 80.933594 99.117188 C 80.835938 99.925781 80.882812 101.789062 80.933594 102.398438 C 80.957031 102.65625 81.003906 102.773438 81.074219 102.855469 C 79.382812 106.539062 77.882812 110.320312 76.660156 114.183594 C 71.40625 112.402344 66.875 110.289062 63.292969 107.910156 C 65.496094 101.882812 68.496094 96.414062 71.894531 91.523438 Z M 74.058594 137.011719 C 79.59375 138.96875 85.9375 140.546875 92.855469 141.675781 C 92.964844 147.722656 93.660156 153.671875 95.152344 159.273438 C 88.941406 158.3125 83.148438 156.980469 77.984375 155.316406 C 75.585938 149.535156 74.28125 143.417969 74.058594 137.011719 Z M 96.261719 160.253906 C 102.867188 161.214844 109.910156 161.742188 117.148438 161.792969 C 117.429688 165.882812 117.777344 169.691406 118.203125 173.125 C 112.167969 173.101562 106.460938 172.582031 101.246094 171.800781 C 99.082031 168.214844 97.445312 164.339844 96.261719 160.253906 Z M 121.71875 173.859375 C 121.714844 173.867188 121.714844 173.871094 121.714844 173.878906 C 120.453125 179.421875 121.714844 180.277344 121.714844 180.277344 C 121.714844 180.277344 122.523438 180.175781 122.671875 180.023438 C 122.824219 179.875 123.78125 179.875 124.035156 179.71875 C 124.285156 179.574219 124.285156 179.519531 124.4375 179.269531 C 124.585938 179.019531 124.789062 178.816406 124.789062 178.816406 C 124.789062 178.816406 125.394531 178.210938 125.597656 177.90625 C 125.796875 177.609375 126.101562 177.40625 126.203125 177.101562 C 126.300781 176.800781 126.203125 176.75 126.203125 176.75 C 126.203125 176.75 126.402344 176.195312 126.453125 175.992188 C 126.503906 175.789062 126.808594 175.890625 127.058594 175.789062 C 127.308594 175.6875 127.613281 175.539062 127.714844 175.335938 C 127.816406 175.136719 127.96875 174.632812 127.96875 174.332031 C 127.96875 174.027344 128.371094 173.878906 128.671875 173.726562 C 128.972656 173.574219 129.328125 173.976562 130.035156 173.925781 C 130.339844 173.902344 130.5625 173.582031 130.71875 173.210938 C 131.109375 173.171875 131.496094 173.132812 131.882812 173.089844 C 131.351562 175.089844 130.785156 177.117188 130.183594 179.171875 C 126.933594 179.847656 123.589844 180.265625 120.179688 180.421875 C 119.78125 178.472656 119.433594 176.292969 119.121094 173.917969 C 119.980469 173.917969 120.847656 173.886719 121.71875 173.859375 Z M 132.742188 172.996094 C 139.816406 172.078125 147.046875 170.460938 154.371094 168.210938 C 154.371094 168.210938 154.375 168.214844 154.382812 168.214844 C 154.464844 168.214844 154.550781 168.183594 154.617188 168.136719 C 154.726562 168.101562 154.832031 168.066406 154.941406 168.035156 C 147.953125 173.230469 139.859375 177.007812 131.082031 178.964844 C 131.664062 176.949219 132.226562 174.957031 132.742188 172.996094 Z M 132.972656 172.144531 C 133.007812 171.992188 133.042969 171.84375 133.082031 171.695312 C 133.296875 171.660156 133.511719 171.625 133.664062 171.609375 C 134.066406 171.558594 134.214844 171.300781 134.769531 171.101562 C 135.324219 170.902344 135.175781 170.902344 135.882812 170.296875 C 136.589844 169.691406 134.167969 168.582031 134.769531 168.078125 C 135.378906 167.574219 134.871094 168.328125 135.476562 168.734375 C 136.082031 169.136719 135.882812 168.835938 136.386719 168.835938 C 136.890625 168.835938 136.9375 168.785156 137.542969 168.632812 C 138.148438 168.484375 138.148438 168.632812 138.65625 168.328125 C 139.160156 168.027344 138.65625 168.328125 139.363281 167.773438 C 140.066406 167.222656 139.664062 167.527344 140.265625 166.917969 C 140.875 166.3125 140.722656 166.464844 141.328125 165.605469 C 141.929688 164.75 141.777344 164.902344 143.796875 163.695312 C 145.8125 162.484375 144.101562 162.886719 143.996094 162.078125 C 143.898438 161.273438 144.148438 161.527344 144.503906 160.820312 C 144.726562 160.363281 146.804688 159.519531 148.617188 158.796875 C 151.589844 158.164062 154.425781 157.445312 157.113281 156.632812 C 156.28125 160.140625 155.273438 163.75 154.070312 167.460938 C 146.921875 169.648438 139.871094 171.226562 132.972656 172.144531 Z M 151.585938 157.296875 C 151.546875 157.195312 151.558594 157.019531 151.8125 156.636719 C 152.566406 155.476562 153.023438 155.226562 153.171875 154.875 C 153.324219 154.515625 153.878906 153.863281 154.027344 153.308594 C 154.179688 152.75 154.230469 152.953125 154.179688 152.605469 C 154.128906 152.246094 153.824219 150.027344 154.378906 148.972656 C 154.933594 147.914062 155.691406 147.5625 156.347656 146.550781 C 157 145.539062 157 145.742188 157.507812 145.191406 C 158.007812 144.640625 158.261719 143.980469 158.363281 143.375 C 158.460938 142.769531 158.363281 142.21875 157.960938 141.816406 C 157.558594 141.40625 157.304688 141.816406 156.75 141.3125 C 156.199219 140.804688 155.941406 140.757812 154.632812 140.5 C 153.324219 140.25 153.773438 140.804688 152.363281 140.703125 C 150.953125 140.601562 151.710938 140.90625 150.75 140.804688 C 149.875 140.714844 150.589844 140.785156 150.449219 140.375 C 153.835938 139.632812 157.050781 138.773438 160.054688 137.8125 C 159.644531 143.460938 158.769531 149.425781 157.320312 155.726562 C 155.480469 156.292969 153.566406 156.816406 151.585938 157.296875 Z M 175.648438 130.597656 C 177.15625 129.574219 178.507812 128.496094 179.683594 127.375 C 178.871094 132.417969 177.46875 137.261719 175.539062 141.835938 C 175.75 137.917969 175.773438 134.179688 175.648438 130.597656 Z M 175.605469 129.660156 C 175.53125 127.871094 175.417969 126.117188 175.261719 124.410156 C 176.265625 124.894531 175.761719 125.40625 176.964844 124.671875 C 178.375 123.816406 179.179688 122.761719 179.890625 121.847656 C 180.070312 121.617188 180.226562 121.390625 180.363281 121.179688 C 180.265625 122.816406 180.101562 124.4375 179.875 126.042969 C 178.671875 127.304688 177.242188 128.507812 175.605469 129.660156 Z M 77.761719 68.09375 C 78.019531 68.757812 78.382812 69.410156 78.832031 70.042969 C 73.773438 73.667969 68.863281 77.992188 64.574219 83.105469 C 64.523438 83 64.484375 82.894531 64.4375 82.789062 C 68.085938 77.222656 72.589844 72.257812 77.761719 68.09375 Z M 55.976562 102.179688 C 57.464844 104.316406 59.609375 106.332031 62.324219 108.191406 C 60.179688 114.230469 58.84375 120.816406 58.71875 127.921875 C 56.917969 126.421875 55.46875 124.839844 54.417969 123.191406 C 54.234375 121.257812 54.132812 119.296875 54.132812 117.316406 C 54.132812 112.097656 54.78125 107.03125 55.976562 102.179688 Z M 62.777344 149.152344 C 66.671875 151.785156 71.628906 154.082031 77.378906 155.960938 C 79.164062 160.175781 81.511719 164.230469 84.429688 168.09375 C 81.609375 167.269531 79.214844 166.457031 77.316406 165.765625 C 77.171875 165.71875 77.039062 165.773438 76.929688 165.859375 C 71.296875 161.167969 66.503906 155.511719 62.777344 149.152344 Z M 107.460938 179.71875 C 105.28125 177.558594 103.394531 175.210938 101.789062 172.695312 C 106.890625 173.433594 112.449219 173.917969 118.3125 173.929688 C 118.621094 176.304688 118.96875 178.484375 119.359375 180.445312 C 118.679688 180.464844 118 180.492188 117.3125 180.492188 C 113.964844 180.492188 110.671875 180.226562 107.460938 179.71875 Z M 156.742188 166.628906 C 156.160156 166.820312 155.582031 166.988281 155 167.171875 C 156.183594 163.464844 157.1875 159.855469 158.003906 156.351562 C 162.765625 154.863281 167.042969 153.101562 170.667969 151.085938 C 166.90625 157.007812 162.195312 162.261719 156.742188 166.628906 Z M 156.742188 166.628906 " fill-opacity="1" fill-rule="nonzero"/></g><path fill="#01353c" d="M 121.816406 122.761719 C 121.765625 122.960938 121.007812 122.910156 120.808594 123.265625 C 120.605469 123.613281 120.253906 123.921875 120.808594 123.96875 C 121.363281 124.019531 121.664062 123.921875 122.269531 123.96875 C 122.875 124.019531 122.269531 124.097656 123.074219 123.984375 C 123.882812 123.871094 123.53125 124.121094 124.335938 123.769531 C 125.140625 123.417969 125.648438 123.367188 126.101562 123.367188 C 126.550781 123.367188 126.550781 122.9375 126.757812 123.070312 C 126.957031 123.214844 127.109375 123.589844 127.109375 123.070312 C 127.109375 122.558594 127.058594 122.367188 126.203125 122.363281 C 125.34375 122.355469 125.09375 122.367188 124.789062 122.363281 C 124.488281 122.355469 123.808594 122.363281 123.808594 122.363281 L 123.078125 122.105469 C 122.070312 122.152344 121.816406 122.363281 121.816406 122.363281 C 121.816406 122.363281 122.273438 122.710938 122.445312 122.761719 C 122.625 122.808594 121.867188 122.554688 121.816406 122.761719 Z M 121.816406 122.761719 " fill-opacity="1" fill-rule="nonzero"/><path fill="#01353c" d="M 128.914062 123.835938 C 129.378906 123.816406 129.125 123.921875 129.378906 123.816406 C 129.628906 123.714844 129.328125 123.964844 129.628906 123.714844 C 129.933594 123.464844 129.933594 123.464844 129.933594 123.464844 C 129.933594 123.464844 130.035156 123.265625 130.183594 123.265625 C 130.335938 123.265625 130.335938 122.882812 130.183594 123.070312 C 130.035156 123.265625 129.28125 123.070312 129.28125 123.070312 C 128.925781 123.109375 128.625 123.160156 128.574219 123.265625 C 128.523438 123.363281 128.574219 123.363281 128.574219 123.566406 C 128.574219 123.769531 128.449219 123.855469 128.914062 123.835938 Z M 128.914062 123.835938 " fill-opacity="1" fill-rule="nonzero"/><path fill="#01353c" d="M 145.070312 69.894531 C 144.5 69.828125 144.46875 69.726562 144.195312 69.492188 C 143.925781 69.253906 143.617188 69.1875 143.503906 69.1875 C 143.390625 69.1875 143.222656 69.1875 143.222656 69.1875 C 142.984375 69.523438 142.886719 69.761719 142.851562 69.859375 C 142.816406 69.960938 142.417969 70.230469 142.417969 70.230469 C 142.417969 70.230469 142.382812 70.199219 142.144531 70.230469 C 141.914062 70.265625 141.410156 69.625 141.273438 70.230469 C 141.136719 70.835938 140.9375 70.769531 141.273438 71.171875 C 141.609375 71.578125 142.417969 72.015625 142.785156 72.25 C 143.15625 72.484375 143.054688 72.71875 143.898438 72.820312 C 144.738281 72.921875 144.402344 73.324219 145.070312 72.617188 C 145.742188 71.910156 145.640625 72.449219 145.777344 71.578125 C 145.914062 70.703125 146.007812 70.808594 145.777344 70.429688 C 145.542969 70.0625 145.640625 69.960938 145.070312 69.894531 Z M 145.070312 69.894531 " fill-opacity="1" fill-rule="nonzero"/><path fill="#01353c" d="M 109.039062 68.523438 C 109.023438 68.546875 109.027344 68.554688 109.039062 68.523438 Z M 109.039062 68.523438 " fill-opacity="1" fill-rule="nonzero"/><path fill="#01353c" d="M 109.0625 68.363281 C 109.0625 68.449219 109.050781 68.496094 109.039062 68.523438 C 109.0625 68.484375 109.136719 68.410156 109.363281 68.363281 C 109.867188 68.261719 109.617188 68.464844 109.867188 68.261719 C 110.117188 68.0625 109.71875 68.261719 110.117188 68.0625 C 110.523438 67.863281 110.421875 68.261719 110.523438 67.863281 C 110.625 67.460938 110.375 67.808594 110.523438 67.28125 C 110.675781 66.753906 110.472656 67.105469 110.675781 66.753906 C 110.875 66.402344 110.726562 66.703125 110.875 66.402344 C 111.027344 66.097656 110.480469 66.148438 110.480469 66.148438 C 110.480469 66.148438 110.371094 66.195312 110.117188 66.449219 C 109.867188 66.703125 109.363281 66.753906 109.160156 66.902344 C 108.960938 67.054688 109.160156 66.550781 108.960938 67.054688 C 108.757812 67.558594 108.859375 67.699219 108.960938 68.03125 C 109.0625 68.363281 109.0625 68.011719 109.0625 68.363281 Z M 109.0625 68.363281 " fill-opacity="1" fill-rule="nonzero"/><path fill="#01353c" d="M 114.808594 76.128906 C 114.558594 75.828125 114.65625 75.574219 114.203125 75.574219 C 113.75 75.574219 113.75 75.574219 113.75 75.574219 C 113.75 75.574219 113.246094 75.878906 113.199219 76.179688 C 113.148438 76.480469 112.824219 76.332031 112.882812 76.632812 C 112.945312 76.933594 112.472656 76.683594 112.882812 77.1875 C 113.296875 77.691406 113.550781 77.589844 113.75 77.789062 C 113.953125 77.992188 113.550781 78.292969 113.75 78.394531 C 113.953125 78.496094 113.449219 78.75 114.203125 78.394531 C 114.960938 78.042969 114.40625 78.546875 114.960938 78.042969 C 115.515625 77.539062 115.464844 77.992188 115.515625 77.539062 C 115.566406 77.085938 115.871094 77.1875 115.515625 76.832031 C 115.160156 76.480469 115.0625 76.429688 114.808594 76.128906 Z M 114.808594 76.128906 " fill-opacity="1" fill-rule="nonzero"/></svg>