<svg xmlns="http://www.w3.org/2000/svg" xmlns:xlink="http://www.w3.org/1999/xlink" width="313" zoomAndPan="magnify" viewBox="0 0 234.75 234.749995" height="313" preserveAspectRatio="xMidYMid meet" version="1.0"><defs><clipPath id="bee0193411"><path d="M 55 58 L 180 58 L 180 177.460938 L 55 177.460938 Z M 55 58 " clip-rule="nonzero"/></clipPath></defs><g clip-path="url(#bee0193411)"><path fill="#01353c" d="M 179.191406 63.183594 C 178.613281 61.574219 177.320312 60.265625 175.457031 59.394531 C 170.238281 56.957031 160.238281 57.816406 149.984375 61.578125 C 148.503906 62.121094 147.050781 62.714844 145.640625 63.351562 C 144.707031 62.300781 143.582031 61.34375 142.203125 60.550781 C 137.839844 58.027344 133.414062 58.527344 129.664062 59.347656 L 98.941406 66.074219 C 96.480469 66.609375 94.523438 68.058594 93.277344 70.261719 L 56.496094 135.28125 C 54.148438 139.4375 55.585938 144.75 59.703125 147.128906 L 110.1875 176.277344 C 111.507812 177.035156 112.96875 177.425781 114.453125 177.425781 C 115.210938 177.425781 115.972656 177.324219 116.726562 177.121094 C 118.960938 176.511719 120.820312 175.0625 121.964844 173.039062 L 158.746094 108.019531 C 159.984375 105.824219 160.226562 103.394531 159.441406 100.996094 L 154.070312 84.570312 C 155.316406 84.195312 156.570312 83.78125 157.832031 83.316406 C 164.304688 80.941406 170.066406 77.71875 174.054688 74.242188 C 178.53125 70.339844 180.355469 66.414062 179.191406 63.183594 Z M 155.636719 102.238281 C 156.074219 103.578125 155.953125 104.824219 155.261719 106.046875 L 118.480469 171.066406 C 117.867188 172.152344 116.867188 172.929688 115.671875 173.253906 C 114.484375 173.578125 113.25 173.421875 112.191406 172.808594 L 61.707031 143.660156 C 59.484375 142.378906 58.710938 139.503906 59.984375 137.253906 L 96.761719 72.234375 C 97.453125 71.019531 98.441406 70.28125 99.792969 69.988281 L 130.519531 63.261719 C 132.238281 62.886719 133.71875 62.695312 135.039062 62.695312 C 137.03125 62.695312 138.660156 63.128906 140.203125 64.019531 C 142.769531 65.503906 144.386719 67.839844 145.773438 72.082031 L 148.945312 81.785156 C 144.851562 82.699219 141.300781 82.980469 138.554688 82.8125 C 138.871094 81.3125 138.765625 79.75 138.222656 78.269531 C 136.65625 74.007812 131.933594 71.804688 127.695312 73.355469 C 125.644531 74.105469 124.011719 75.609375 123.09375 77.59375 C 122.167969 79.589844 122.074219 81.832031 122.835938 83.902344 C 124.058594 87.238281 127.21875 89.3125 130.570312 89.3125 C 131.5 89.3125 132.441406 89.152344 133.363281 88.816406 C 134.617188 88.355469 135.714844 87.613281 136.589844 86.65625 C 137.675781 86.800781 138.847656 86.875 140.09375 86.875 C 143.117188 86.875 146.5625 86.441406 150.195312 85.601562 Z M 126.726562 79.277344 C 127.144531 78.378906 127.851562 77.671875 128.734375 77.257812 C 128.0625 79.148438 128.246094 80.652344 128.625 81.714844 C 129.128906 83.117188 130.175781 84.292969 131.675781 85.148438 C 129.59375 85.734375 127.359375 84.609375 126.59375 82.523438 C 126.203125 81.453125 126.25 80.304688 126.726562 79.277344 Z M 134.058594 81.875 C 133.167969 81.457031 132.609375 80.949219 132.394531 80.359375 C 132.144531 79.664062 132.339844 78.730469 132.941406 77.65625 C 133.613281 78.132812 134.15625 78.816406 134.460938 79.648438 C 134.753906 80.445312 134.800781 81.292969 134.609375 82.097656 C 134.414062 82.027344 134.226562 81.953125 134.058594 81.875 Z M 156.453125 79.558594 C 155.214844 80.011719 154.003906 80.414062 152.828125 80.765625 L 149.582031 70.835938 C 149.140625 69.492188 148.617188 68.089844 147.917969 66.726562 C 149.042969 66.238281 150.195312 65.769531 151.367188 65.339844 C 161.886719 61.476562 170.351562 61.433594 173.761719 63.023438 C 174.652344 63.441406 175.210938 63.949219 175.421875 64.539062 C 176.492188 67.511719 169.792969 74.660156 156.453125 79.558594 Z M 118.921875 147.765625 C 118.550781 148.410156 117.878906 148.769531 117.183594 148.769531 C 116.84375 148.769531 116.5 148.683594 116.1875 148.5 L 80.007812 127.613281 C 79.050781 127.0625 78.722656 125.835938 79.277344 124.878906 C 79.828125 123.917969 81.054688 123.589844 82.011719 124.144531 L 118.1875 145.03125 C 119.144531 145.585938 119.476562 146.808594 118.921875 147.765625 Z M 112.535156 158.832031 C 112.164062 159.476562 111.488281 159.835938 110.796875 159.835938 C 110.457031 159.835938 110.113281 159.746094 109.796875 159.566406 L 73.621094 138.679688 C 72.660156 138.125 72.332031 136.902344 72.886719 135.941406 C 73.441406 134.984375 74.664062 134.65625 75.625 135.210938 L 111.800781 156.097656 C 112.757812 156.652344 113.085938 157.875 112.535156 158.832031 Z M 125.3125 136.703125 C 124.941406 137.34375 124.265625 137.703125 123.574219 137.703125 C 123.234375 137.703125 122.890625 137.617188 122.574219 137.4375 L 86.398438 116.546875 C 85.4375 115.996094 85.109375 114.769531 85.664062 113.8125 C 86.21875 112.851562 87.441406 112.523438 88.402344 113.078125 L 124.578125 133.964844 C 125.535156 134.519531 125.863281 135.742188 125.3125 136.703125 Z M 125.3125 136.703125 " fill-opacity="1" fill-rule="nonzero"/></g></svg>