<svg xmlns="http://www.w3.org/2000/svg" xmlns:xlink="http://www.w3.org/1999/xlink" width="313" zoomAndPan="magnify" viewBox="0 0 234.75 234.749995" height="313" preserveAspectRatio="xMidYMid meet" version="1.0"><defs><clipPath id="633b19c273"><path d="M 32.242188 51.792969 L 202 51.792969 L 202 182.90625 L 32.242188 182.90625 Z M 32.242188 51.792969 " clip-rule="nonzero"/></clipPath></defs><g clip-path="url(#633b19c273)"><path fill="#01353c" d="M 180.539062 51.773438 L 123.957031 51.773438 C 123.265625 51.773438 122.574219 51.808594 121.882812 51.875 C 121.191406 51.941406 120.503906 52.042969 119.824219 52.179688 C 119.144531 52.3125 118.472656 52.480469 117.808594 52.679688 C 117.144531 52.882812 116.492188 53.113281 115.847656 53.378906 C 115.207031 53.644531 114.582031 53.941406 113.96875 54.265625 C 113.355469 54.59375 112.761719 54.949219 112.183594 55.335938 C 111.605469 55.71875 111.050781 56.132812 110.511719 56.570312 C 109.976562 57.011719 109.460938 57.476562 108.972656 57.964844 C 108.480469 58.457031 108.015625 58.96875 107.574219 59.503906 C 107.132812 60.042969 106.71875 60.597656 106.332031 61.175781 C 105.945312 61.75 105.589844 62.34375 105.261719 62.957031 C 104.933594 63.570312 104.636719 64.195312 104.371094 64.835938 C 104.105469 65.476562 103.871094 66.128906 103.667969 66.792969 C 103.46875 67.457031 103.296875 68.128906 103.164062 68.808594 C 103.027344 69.488281 102.925781 70.175781 102.855469 70.867188 C 102.785156 71.554688 102.753906 72.25 102.75 72.941406 L 102.75 84.648438 L 54.152344 84.648438 C 53.457031 84.648438 52.765625 84.683594 52.074219 84.753906 C 51.382812 84.820312 50.699219 84.921875 50.019531 85.058594 C 49.335938 85.195312 48.664062 85.363281 48 85.566406 C 47.335938 85.769531 46.683594 86.003906 46.042969 86.269531 C 45.402344 86.535156 44.773438 86.832031 44.164062 87.160156 C 43.550781 87.488281 42.957031 87.84375 42.378906 88.230469 C 41.804688 88.617188 41.246094 89.027344 40.710938 89.46875 C 40.171875 89.910156 39.660156 90.375 39.167969 90.867188 C 38.679688 91.359375 38.214844 91.871094 37.773438 92.410156 C 37.332031 92.945312 36.921875 93.503906 36.535156 94.078125 C 36.148438 94.65625 35.792969 95.253906 35.464844 95.863281 C 35.140625 96.476562 34.84375 97.101562 34.578125 97.746094 C 34.3125 98.386719 34.078125 99.039062 33.875 99.703125 C 33.675781 100.367188 33.507812 101.039062 33.371094 101.722656 C 33.238281 102.402344 33.132812 103.085938 33.066406 103.777344 C 33 104.46875 32.964844 105.160156 32.964844 105.855469 L 32.964844 138.007812 C 32.964844 139.273438 33.082031 140.53125 33.308594 141.777344 C 33.535156 143.023438 33.871094 144.242188 34.316406 145.429688 C 34.761719 146.613281 35.308594 147.75 35.957031 148.839844 C 36.605469 149.929688 37.347656 150.949219 38.179688 151.90625 C 39.011719 152.863281 39.921875 153.734375 40.910156 154.527344 C 41.898438 155.320312 42.949219 156.019531 44.0625 156.621094 C 45.175781 157.226562 46.335938 157.726562 47.539062 158.121094 C 48.742188 158.519531 49.972656 158.804688 51.226562 158.980469 L 51.226562 179.621094 C 51.230469 180.152344 51.367188 180.648438 51.640625 181.105469 C 51.910156 181.5625 52.28125 181.917969 52.746094 182.171875 C 53.210938 182.425781 53.710938 182.546875 54.242188 182.53125 C 54.773438 182.515625 55.265625 182.363281 55.714844 182.082031 L 91.980469 159.175781 L 110.867188 159.175781 C 111.558594 159.171875 112.25 159.136719 112.9375 159.066406 C 113.625 158.996094 114.304688 158.890625 114.984375 158.753906 C 115.660156 158.617188 116.328125 158.445312 116.992188 158.242188 C 117.652344 158.039062 118.300781 157.804688 118.9375 157.539062 C 119.574219 157.269531 120.199219 156.972656 120.808594 156.644531 C 121.417969 156.316406 122.007812 155.960938 122.582031 155.574219 C 123.15625 155.191406 123.707031 154.777344 124.242188 154.335938 C 124.773438 153.898438 125.285156 153.433594 125.773438 152.941406 C 126.261719 152.453125 126.722656 151.941406 127.160156 151.40625 C 127.597656 150.871094 128.007812 150.3125 128.390625 149.738281 C 128.773438 149.164062 129.128906 148.570312 129.453125 147.960938 C 129.777344 147.351562 130.074219 146.726562 130.335938 146.085938 C 130.601562 145.449219 130.832031 144.796875 131.03125 144.136719 C 131.230469 143.472656 131.398438 142.804688 131.535156 142.125 C 131.667969 141.449219 131.769531 140.765625 131.835938 140.078125 C 131.90625 139.390625 131.9375 138.699219 131.9375 138.007812 L 131.9375 126.300781 L 142.804688 126.300781 L 178.9375 149.167969 C 179.414062 149.464844 179.9375 149.613281 180.5 149.617188 C 181 149.617188 181.476562 149.5 181.921875 149.265625 C 182.386719 149.003906 182.753906 148.644531 183.023438 148.183594 C 183.292969 147.722656 183.425781 147.222656 183.425781 146.691406 L 183.425781 126.066406 C 184.679688 125.890625 185.910156 125.605469 187.113281 125.210938 C 188.316406 124.8125 189.472656 124.3125 190.589844 123.710938 C 191.703125 123.105469 192.753906 122.40625 193.742188 121.613281 C 194.730469 120.820312 195.640625 119.949219 196.472656 118.992188 C 197.304688 118.035156 198.046875 117.015625 198.695312 115.925781 C 199.34375 114.839844 199.890625 113.703125 200.335938 112.515625 C 200.78125 111.328125 201.117188 110.113281 201.34375 108.867188 C 201.570312 107.617188 201.683594 106.363281 201.6875 105.09375 L 201.6875 72.941406 C 201.683594 72.25 201.648438 71.558594 201.582031 70.871094 C 201.511719 70.179688 201.410156 69.496094 201.273438 68.816406 C 201.136719 68.140625 200.96875 67.46875 200.765625 66.804688 C 200.566406 66.144531 200.332031 65.492188 200.066406 64.851562 C 199.800781 64.214844 199.503906 63.585938 199.179688 62.976562 C 198.851562 62.367188 198.496094 61.773438 198.109375 61.199219 C 197.726562 60.621094 197.3125 60.066406 196.875 59.53125 C 196.4375 58.996094 195.972656 58.484375 195.480469 57.992188 C 194.992188 57.503906 194.480469 57.039062 193.945312 56.597656 C 193.410156 56.160156 192.855469 55.746094 192.28125 55.359375 C 191.703125 54.976562 191.109375 54.617188 190.5 54.292969 C 189.890625 53.964844 189.265625 53.667969 188.625 53.402344 C 187.988281 53.136719 187.335938 52.902344 186.671875 52.699219 C 186.011719 52.496094 185.339844 52.328125 184.660156 52.191406 C 183.984375 52.054688 183.300781 51.953125 182.609375 51.882812 C 181.921875 51.8125 181.230469 51.777344 180.539062 51.773438 Z M 126.085938 138.007812 C 126.085938 139.011719 125.984375 140.007812 125.789062 140.996094 C 125.589844 141.980469 125.300781 142.9375 124.914062 143.867188 C 124.527344 144.792969 124.058594 145.675781 123.5 146.511719 C 122.941406 147.347656 122.304688 148.121094 121.59375 148.832031 C 120.882812 149.542969 120.109375 150.175781 119.273438 150.738281 C 118.4375 151.296875 117.554688 151.765625 116.628906 152.152344 C 115.699219 152.539062 114.742188 152.828125 113.757812 153.027344 C 112.769531 153.222656 111.773438 153.320312 110.769531 153.324219 L 91.046875 153.324219 C 90.472656 153.320312 89.945312 153.476562 89.464844 153.792969 L 57.097656 174.296875 L 57.097656 156.171875 C 57.097656 155.785156 57.023438 155.410156 56.875 155.050781 C 56.726562 154.695312 56.515625 154.378906 56.242188 154.101562 C 55.96875 153.828125 55.652344 153.617188 55.292969 153.46875 C 54.933594 153.320312 54.558594 153.246094 54.171875 153.246094 C 53.167969 153.246094 52.171875 153.144531 51.183594 152.949219 C 50.199219 152.75 49.238281 152.460938 48.3125 152.074219 C 47.382812 151.691406 46.5 151.21875 45.664062 150.660156 C 44.828125 150.101562 44.054688 149.464844 43.339844 148.753906 C 42.628906 148.042969 41.992188 147.269531 41.433594 146.4375 C 40.875 145.601562 40.402344 144.71875 40.015625 143.789062 C 39.628906 142.859375 39.335938 141.902344 39.136719 140.917969 C 38.941406 139.933594 38.839844 138.9375 38.835938 137.929688 L 38.835938 105.855469 C 38.839844 104.851562 38.941406 103.855469 39.136719 102.867188 C 39.335938 101.882812 39.628906 100.925781 40.015625 99.996094 C 40.402344 99.066406 40.875 98.1875 41.433594 97.351562 C 41.992188 96.515625 42.628906 95.742188 43.339844 95.03125 C 44.054688 94.320312 44.828125 93.6875 45.664062 93.128906 C 46.5 92.570312 47.382812 92.097656 48.3125 91.710938 C 49.238281 91.324219 50.199219 91.035156 51.183594 90.839844 C 52.171875 90.640625 53.167969 90.542969 54.171875 90.539062 L 110.75 90.539062 C 111.757812 90.542969 112.75 90.640625 113.738281 90.839844 C 114.722656 91.035156 115.679688 91.328125 116.609375 91.710938 C 117.535156 92.097656 118.417969 92.570312 119.253906 93.128906 C 120.089844 93.6875 120.863281 94.320312 121.574219 95.03125 C 122.285156 95.742188 122.921875 96.515625 123.480469 97.351562 C 124.039062 98.1875 124.507812 99.070312 124.894531 100 C 125.28125 100.925781 125.570312 101.882812 125.769531 102.871094 C 125.964844 103.855469 126.066406 104.851562 126.066406 105.855469 Z M 195.871094 105.09375 C 195.871094 106.101562 195.769531 107.097656 195.570312 108.082031 C 195.371094 109.070312 195.082031 110.027344 194.695312 110.953125 C 194.308594 111.882812 193.835938 112.765625 193.273438 113.601562 C 192.714844 114.4375 192.078125 115.210938 191.367188 115.921875 C 190.65625 116.628906 189.882812 117.265625 189.046875 117.824219 C 188.210938 118.382812 187.328125 118.855469 186.398438 119.238281 C 185.46875 119.625 184.511719 119.914062 183.527344 120.113281 C 182.539062 120.308594 181.542969 120.410156 180.539062 120.410156 C 180.148438 120.410156 179.777344 120.484375 179.417969 120.632812 C 179.058594 120.78125 178.742188 120.992188 178.46875 121.265625 C 178.195312 121.542969 177.980469 121.859375 177.832031 122.21875 C 177.683594 122.574219 177.609375 122.949219 177.609375 123.335938 L 177.609375 141.382812 L 145.222656 120.878906 C 144.746094 120.5625 144.21875 120.40625 143.644531 120.410156 L 131.9375 120.410156 L 131.9375 105.855469 C 131.9375 105.164062 131.902344 104.472656 131.835938 103.78125 C 131.765625 103.09375 131.664062 102.40625 131.527344 101.726562 C 131.394531 101.046875 131.222656 100.375 131.023438 99.714844 C 130.820312 99.050781 130.585938 98.398438 130.320312 97.757812 C 130.054688 97.117188 129.761719 96.492188 129.433594 95.882812 C 129.105469 95.269531 128.75 94.675781 128.363281 94.101562 C 127.980469 93.523438 127.566406 92.96875 127.128906 92.433594 C 126.6875 91.898438 126.222656 91.382812 125.734375 90.894531 C 125.242188 90.402344 124.730469 89.9375 124.195312 89.5 C 123.65625 89.058594 123.101562 88.644531 122.527344 88.261719 C 121.949219 87.875 121.355469 87.519531 120.746094 87.191406 C 120.132812 86.867188 119.507812 86.570312 118.867188 86.304688 C 118.226562 86.039062 117.574219 85.804688 116.914062 85.605469 C 116.25 85.402344 115.578125 85.234375 114.898438 85.097656 C 114.21875 84.960938 113.535156 84.859375 112.84375 84.792969 C 112.15625 84.722656 111.464844 84.6875 110.769531 84.6875 L 108.605469 84.6875 L 108.605469 72.980469 C 108.605469 71.976562 108.703125 70.980469 108.902344 69.996094 C 109.097656 69.007812 109.390625 68.050781 109.777344 67.125 C 110.160156 66.195312 110.632812 65.3125 111.191406 64.476562 C 111.75 63.640625 112.386719 62.867188 113.097656 62.15625 C 113.808594 61.445312 114.578125 60.8125 115.414062 60.253906 C 116.25 59.695312 117.132812 59.222656 118.0625 58.835938 C 118.992188 58.453125 119.949219 58.160156 120.933594 57.964844 C 121.917969 57.765625 122.914062 57.667969 123.917969 57.667969 L 180.5 57.667969 C 181.503906 57.667969 182.5 57.765625 183.488281 57.964844 C 184.472656 58.160156 185.429688 58.453125 186.359375 58.835938 C 187.289062 59.222656 188.171875 59.695312 189.007812 60.253906 C 189.84375 60.8125 190.617188 61.445312 191.328125 62.15625 C 192.039062 62.867188 192.675781 63.640625 193.234375 64.476562 C 193.796875 65.3125 194.269531 66.195312 194.65625 67.121094 C 195.042969 68.050781 195.332031 69.007812 195.53125 69.996094 C 195.730469 70.980469 195.832031 71.976562 195.832031 72.980469 Z M 195.871094 105.09375 " fill-opacity="1" fill-rule="nonzero"/></g><path fill="#01353c" d="M 85.074219 102.5 C 84.828125 102.007812 84.46875 101.613281 83.996094 101.324219 C 83.527344 101.035156 83.015625 100.890625 82.460938 100.890625 C 81.910156 100.890625 81.398438 101.035156 80.925781 101.324219 C 80.453125 101.613281 80.09375 102.007812 79.847656 102.5 L 61.800781 138.046875 C 61.601562 138.394531 61.480469 138.765625 61.433594 139.164062 C 61.386719 139.5625 61.421875 139.953125 61.535156 140.335938 C 61.648438 140.722656 61.835938 141.066406 62.09375 141.375 C 62.347656 141.683594 62.65625 141.925781 63.011719 142.109375 C 63.367188 142.289062 63.746094 142.394531 64.144531 142.421875 C 64.546875 142.449219 64.933594 142.394531 65.3125 142.261719 C 65.691406 142.128906 66.027344 141.925781 66.320312 141.65625 C 66.617188 141.382812 66.84375 141.066406 67.007812 140.699219 L 73.234375 128.449219 L 91.691406 128.449219 L 97.835938 140.699219 C 98 141.066406 98.230469 141.382812 98.523438 141.65625 C 98.816406 141.925781 99.15625 142.128906 99.53125 142.261719 C 99.910156 142.394531 100.296875 142.449219 100.699219 142.421875 C 101.097656 142.394531 101.476562 142.289062 101.832031 142.109375 C 102.191406 141.925781 102.496094 141.683594 102.753906 141.375 C 103.007812 141.066406 103.195312 140.722656 103.308594 140.335938 C 103.421875 139.953125 103.457031 139.5625 103.410156 139.164062 C 103.367188 138.765625 103.242188 138.394531 103.042969 138.046875 Z M 76.199219 122.59375 L 82.460938 110.285156 L 88.703125 122.59375 Z M 76.199219 122.59375 " fill-opacity="1" fill-rule="nonzero"/><path fill="#01353c" d="M 169.339844 102.773438 L 157.925781 95.085938 C 160.296875 91.339844 162.246094 87.386719 163.777344 83.222656 L 167.679688 83.222656 C 168.070312 83.222656 168.441406 83.148438 168.800781 83 C 169.160156 82.851562 169.476562 82.640625 169.75 82.367188 C 170.023438 82.09375 170.234375 81.777344 170.382812 81.417969 C 170.53125 81.058594 170.605469 80.6875 170.605469 80.296875 C 170.605469 79.910156 170.53125 79.535156 170.382812 79.179688 C 170.234375 78.820312 170.023438 78.503906 169.75 78.230469 C 169.476562 77.953125 169.160156 77.742188 168.800781 77.59375 C 168.441406 77.445312 168.070312 77.371094 167.679688 77.371094 L 155.859375 77.371094 L 155.859375 71.285156 C 155.859375 70.894531 155.785156 70.523438 155.632812 70.164062 C 155.484375 69.804688 155.273438 69.488281 155 69.214844 C 154.726562 68.941406 154.410156 68.730469 154.050781 68.582031 C 153.691406 68.433594 153.320312 68.359375 152.929688 68.359375 C 152.542969 68.359375 152.167969 68.433594 151.8125 68.582031 C 151.453125 68.730469 151.136719 68.941406 150.863281 69.214844 C 150.585938 69.488281 150.375 69.804688 150.226562 70.164062 C 150.078125 70.523438 150.003906 70.894531 150.003906 71.285156 L 150.003906 77.371094 L 136.855469 77.371094 C 136.464844 77.371094 136.09375 77.445312 135.734375 77.59375 C 135.375 77.742188 135.058594 77.953125 134.785156 78.230469 C 134.511719 78.503906 134.300781 78.820312 134.152344 79.179688 C 134.003906 79.535156 133.929688 79.910156 133.929688 80.296875 C 133.929688 80.6875 134.003906 81.058594 134.152344 81.417969 C 134.300781 81.777344 134.511719 82.09375 134.785156 82.367188 C 135.058594 82.640625 135.375 82.851562 135.734375 83 C 136.09375 83.148438 136.464844 83.222656 136.855469 83.222656 L 157.554688 83.222656 C 156.304688 86.207031 154.808594 89.0625 153.066406 91.789062 L 145.710938 86.832031 C 145.382812 86.617188 145.027344 86.46875 144.640625 86.394531 C 144.253906 86.320312 143.867188 86.320312 143.480469 86.398438 C 143.09375 86.476562 142.734375 86.625 142.410156 86.847656 C 142.082031 87.066406 141.808594 87.34375 141.59375 87.671875 C 141.375 88 141.230469 88.359375 141.152344 88.746094 C 141.078125 89.132812 141.082031 89.519531 141.160156 89.90625 C 141.238281 90.289062 141.390625 90.648438 141.609375 90.972656 C 141.832031 91.300781 142.105469 91.570312 142.433594 91.789062 L 149.691406 96.667969 C 147.417969 99.542969 144.902344 102.191406 142.140625 104.605469 C 141.851562 104.867188 141.621094 105.171875 141.453125 105.519531 C 141.28125 105.871094 141.1875 106.242188 141.164062 106.628906 C 141.140625 107.015625 141.195312 107.394531 141.320312 107.761719 C 141.449219 108.128906 141.644531 108.460938 141.902344 108.75 C 142.160156 109.042969 142.464844 109.273438 142.8125 109.441406 C 143.164062 109.609375 143.535156 109.707031 143.921875 109.730469 C 144.308594 109.753906 144.6875 109.703125 145.054688 109.574219 C 145.421875 109.449219 145.753906 109.253906 146.042969 108.996094 C 149.179688 106.246094 152.035156 103.230469 154.609375 99.945312 L 166.121094 107.75 C 166.609375 108.078125 167.148438 108.238281 167.738281 108.234375 C 168.050781 108.234375 168.355469 108.1875 168.652344 108.085938 C 168.949219 107.988281 169.222656 107.847656 169.472656 107.660156 C 169.726562 107.472656 169.941406 107.253906 170.121094 107 C 170.300781 106.742188 170.4375 106.464844 170.527344 106.167969 C 170.621094 105.867188 170.664062 105.5625 170.65625 105.25 C 170.652344 104.9375 170.597656 104.632812 170.492188 104.339844 C 170.386719 104.042969 170.242188 103.773438 170.050781 103.527344 C 169.859375 103.277344 169.636719 103.066406 169.378906 102.890625 Z M 169.339844 102.773438 " fill-opacity="1" fill-rule="nonzero"/></svg>