<svg xmlns="http://www.w3.org/2000/svg" xmlns:xlink="http://www.w3.org/1999/xlink" width="313" zoomAndPan="magnify" viewBox="0 0 234.75 234.749995" height="313" preserveAspectRatio="xMidYMid meet" version="1.0"><defs><clipPath id="13a4fa28ae"><path d="M 64 50.304688 L 176 50.304688 L 176 124 L 64 124 Z M 64 50.304688 " clip-rule="nonzero"/></clipPath></defs><path fill="#01353c" d="M 58.652344 145.914062 C 59.996094 145.773438 61.398438 145.835938 62.75 145.835938 L 74.515625 145.835938 C 80.902344 145.824219 80.53125 146.867188 80.492188 153.21875 L 80.492188 174.242188 C 80.492188 177.382812 81.664062 182.523438 77.414062 182.945312 C 75.050781 183.175781 58.617188 183.425781 57.316406 182.574219 C 55.167969 181.167969 55.675781 178.417969 55.675781 176.210938 L 55.671875 156.242188 C 55.671875 152.746094 54.410156 146.753906 58.652344 145.914062 Z M 58.652344 145.914062 " fill-opacity="1" fill-rule="nonzero"/><g clip-path="url(#13a4fa28ae)"><path fill="#01353c" d="M 171.546875 50.496094 C 173.375 50.308594 176.007812 50.761719 175.632812 53.167969 C 175.433594 54.4375 168.253906 68.824219 167.269531 70.589844 C 165.320312 74.082031 162.742188 70.070312 161.441406 68.3125 C 156.835938 72.054688 152.53125 76.203125 148.199219 80.253906 L 132.152344 94.996094 C 126.320312 100.332031 126.996094 98.730469 119.582031 97.140625 C 114.277344 96.003906 108.152344 94.640625 102.808594 93.851562 C 101.46875 94.886719 100.148438 96.097656 98.882812 97.226562 L 76.96875 117.027344 C 74.414062 119.320312 71.1875 123.574219 67.660156 123.109375 C 65.71875 122.570312 64.363281 120.585938 64.757812 118.574219 C 65.121094 116.699219 67.304688 115.238281 68.632812 114.027344 L 89.71875 94.949219 C 91.539062 93.324219 93.34375 91.683594 95.132812 90.023438 C 101.3125 84.277344 100.140625 85.304688 108.257812 86.835938 C 114.082031 87.933594 119.878906 89.144531 125.6875 90.308594 C 127.628906 88.632812 129.410156 86.734375 131.324219 85.015625 C 139.859375 77.347656 148.300781 69.542969 156.648438 61.671875 C 155.527344 60.503906 151.789062 55.949219 151.539062 54.527344 C 151.039062 51.644531 157.464844 51.902344 159.058594 51.742188 Z M 171.546875 50.496094 " fill-opacity="1" fill-rule="nonzero"/></g><path fill="#01353c" d="M 90.820312 128.675781 C 95.460938 128.480469 105.292969 128.191406 109.789062 128.742188 C 113.550781 129.207031 112.5625 134.546875 112.5625 137.125 L 112.570312 175.941406 C 112.574219 178.78125 113.207031 182.40625 109.433594 182.972656 C 108.097656 183.128906 106.703125 183.054688 105.359375 183.054688 L 93.828125 183.0625 C 87.191406 183.117188 87.925781 181.71875 87.929688 175.164062 L 87.96875 141.1875 C 87.980469 137.460938 86.339844 129.535156 90.820312 128.675781 Z M 90.820312 128.675781 " fill-opacity="1" fill-rule="nonzero"/><path fill="#01353c" d="M 122.523438 113.195312 C 127.683594 112.996094 136.453125 112.742188 141.546875 113.199219 C 145.53125 113.554688 144.460938 118.902344 144.460938 121.585938 L 144.460938 164.207031 C 144.460938 169.25 144.609375 174.332031 144.460938 179.371094 C 144.40625 181.207031 143.75 182.417969 141.84375 182.875 C 140.34375 183.109375 138.816406 183.054688 137.304688 183.054688 L 126.230469 183.066406 C 118.554688 183.074219 119.90625 180.929688 119.90625 174.410156 L 119.90625 132.179688 C 119.902344 127.015625 119.765625 121.808594 119.917969 116.644531 C 119.972656 114.8125 120.683594 113.695312 122.523438 113.195312 Z M 122.523438 113.195312 " fill-opacity="1" fill-rule="nonzero"/><path fill="#01353c" d="M 154.6875 84.398438 C 155.601562 84.257812 156.628906 84.339844 157.554688 84.339844 L 170.941406 84.339844 C 177.277344 84.335938 178.664062 83.546875 178.65625 90.554688 L 178.648438 172.296875 C 178.652344 176.167969 180.085938 182.355469 175.230469 183.039062 C 171.210938 183.15625 167.15625 183.054688 163.132812 183.054688 C 160.222656 183.054688 152.957031 184.199219 151.9375 180.632812 C 151.628906 179.554688 151.816406 174.871094 151.816406 173.414062 L 151.820312 94.871094 C 151.820312 91.378906 150.539062 85.402344 154.6875 84.398438 Z M 154.6875 84.398438 " fill-opacity="1" fill-rule="nonzero"/></svg>