<svg xmlns="http://www.w3.org/2000/svg" xmlns:xlink="http://www.w3.org/1999/xlink" width="313" zoomAndPan="magnify" viewBox="0 0 234.75 234.749995" height="313" preserveAspectRatio="xMidYMid meet" version="1.0"><defs><clipPath id="fa0c158689"><path d="M 115 46.558594 L 125 46.558594 L 125 59 L 115 59 Z M 115 46.558594 " clip-rule="nonzero"/></clipPath><clipPath id="5961762ced"><path d="M 47.972656 110 L 63 110 L 63 123 L 47.972656 123 Z M 47.972656 110 " clip-rule="nonzero"/></clipPath><clipPath id="5daaf33991"><path d="M 178 110 L 186.574219 110 L 186.574219 123 L 178 123 Z M 178 110 " clip-rule="nonzero"/></clipPath></defs><path fill="#01353c" d="M 157.109375 78.789062 C 152.214844 73.898438 146.523438 70.058594 140.175781 67.375 C 133.605469 64.597656 126.632812 63.1875 119.441406 63.1875 C 112.25 63.1875 105.273438 64.597656 98.707031 67.375 C 92.359375 70.058594 86.664062 73.898438 81.773438 78.789062 C 76.882812 83.683594 73.042969 89.382812 70.359375 95.722656 C 67.578125 102.292969 66.171875 109.269531 66.171875 116.457031 C 66.171875 123.648438 67.578125 130.628906 70.359375 137.195312 C 73.042969 143.539062 76.882812 149.234375 81.773438 154.125 C 86.667969 159.019531 92.363281 162.859375 98.707031 165.542969 C 105.277344 168.320312 112.25 169.730469 119.441406 169.730469 C 126.632812 169.730469 133.609375 168.320312 140.175781 165.542969 C 146.523438 162.859375 152.21875 159.015625 157.109375 154.125 C 162.003906 149.234375 165.839844 143.539062 168.523438 137.195312 C 171.300781 130.625 172.710938 123.648438 172.710938 116.457031 C 172.710938 109.269531 171.300781 102.289062 168.523438 95.722656 C 165.839844 89.378906 162 83.679688 157.109375 78.789062 Z M 163.5625 140.070312 L 161.527344 138.898438 L 159.917969 141.6875 L 161.949219 142.859375 C 157.886719 149.378906 152.363281 154.898438 145.84375 158.964844 L 144.671875 156.933594 L 141.878906 158.550781 L 143.054688 160.582031 C 136.015625 164.363281 127.976562 166.511719 119.441406 166.511719 C 110.90625 166.511719 102.863281 164.363281 95.828125 160.582031 L 97 158.550781 L 94.210938 156.9375 L 93.039062 158.96875 C 86.519531 154.90625 81 149.382812 76.9375 142.863281 L 78.96875 141.691406 L 77.355469 138.902344 L 75.320312 140.074219 C 71.539062 133.039062 69.394531 125 69.394531 116.464844 C 69.394531 107.929688 71.542969 99.890625 75.324219 92.851562 L 77.355469 94.027344 L 78.96875 91.234375 L 76.941406 90.0625 C 81.003906 83.546875 86.523438 78.023438 93.046875 73.960938 L 94.21875 75.988281 L 97.007812 74.375 L 95.835938 72.34375 C 102.871094 68.5625 110.914062 66.417969 119.445312 66.417969 C 127.976562 66.417969 136.019531 68.566406 143.054688 72.347656 L 141.878906 74.382812 L 144.671875 75.992188 L 145.84375 73.964844 C 152.359375 78.027344 157.882812 83.546875 161.949219 90.066406 L 159.921875 91.238281 L 161.535156 94.027344 L 163.570312 92.855469 C 167.351562 99.894531 169.496094 107.933594 169.496094 116.46875 C 169.496094 125.003906 167.351562 133.042969 163.570312 140.078125 Z M 163.5625 140.070312 " fill-opacity="1" fill-rule="nonzero"/><path fill="#01353c" d="M 150.992188 84.90625 C 146.894531 80.808594 142.121094 77.589844 136.808594 75.34375 C 131.613281 73.144531 126.113281 71.96875 120.449219 71.847656 L 120.085938 67.925781 L 119.445312 67.957031 L 118.804688 67.925781 L 118.441406 71.847656 C 112.769531 71.972656 107.269531 73.148438 102.074219 75.34375 C 96.761719 77.589844 91.988281 80.808594 87.894531 84.90625 C 83.796875 89.003906 80.578125 93.777344 78.332031 99.089844 C 76.132812 104.285156 74.957031 109.785156 74.835938 115.453125 L 70.910156 115.816406 L 70.941406 116.457031 L 70.910156 117.097656 L 74.835938 117.460938 C 74.960938 123.132812 76.132812 128.632812 78.332031 133.828125 C 80.578125 139.140625 83.796875 143.914062 87.894531 148.011719 C 91.988281 152.105469 96.761719 155.324219 102.074219 157.574219 C 107.269531 159.773438 112.769531 160.945312 118.441406 161.070312 L 118.804688 164.996094 L 119.445312 164.964844 L 120.085938 164.996094 L 120.449219 161.070312 C 126.113281 160.945312 131.613281 159.773438 136.808594 157.574219 C 142.121094 155.324219 146.894531 152.105469 150.992188 148.011719 C 155.089844 143.914062 158.308594 139.140625 160.554688 133.828125 C 162.753906 128.632812 163.929688 123.132812 164.054688 117.460938 L 167.980469 117.097656 L 167.949219 116.457031 L 167.980469 115.816406 L 164.054688 115.453125 C 163.929688 109.785156 162.753906 104.285156 160.554688 99.089844 C 158.308594 93.777344 155.089844 89.003906 150.992188 84.90625 Z M 131.875 130.261719 L 123.824219 124.609375 L 124.03125 122.414062 L 131.878906 130.261719 Z M 123.058594 115.8125 C 123.097656 116.023438 123.117188 116.238281 123.117188 116.457031 C 123.117188 116.679688 123.09375 116.894531 123.058594 117.105469 C 122.984375 117.527344 122.839844 117.925781 122.632812 118.285156 C 122.308594 118.851562 121.835938 119.324219 121.265625 119.652344 C 120.90625 119.855469 120.507812 120.003906 120.089844 120.078125 C 119.878906 120.117188 119.664062 120.132812 119.445312 120.132812 C 119.226562 120.132812 119.011719 120.113281 118.800781 120.078125 C 118.378906 120 117.980469 119.855469 117.621094 119.652344 C 117.054688 119.324219 116.582031 118.851562 116.253906 118.285156 C 116.046875 117.921875 115.902344 117.523438 115.824219 117.101562 C 115.785156 116.894531 115.769531 116.675781 115.769531 116.457031 C 115.769531 116.238281 115.789062 116.023438 115.824219 115.8125 C 115.902344 115.390625 116.046875 114.992188 116.253906 114.632812 C 116.582031 114.066406 117.054688 113.589844 117.621094 113.265625 C 117.984375 113.0625 118.382812 112.910156 118.804688 112.839844 C 119.011719 112.800781 119.226562 112.785156 119.449219 112.785156 C 119.667969 112.785156 119.882812 112.804688 120.09375 112.839844 C 120.515625 112.914062 120.914062 113.0625 121.273438 113.265625 C 121.839844 113.589844 122.316406 114.066406 122.640625 114.632812 C 122.84375 114.992188 122.996094 115.390625 123.066406 115.8125 Z M 114.851562 110.503906 L 107.003906 102.65625 L 115.054688 108.308594 L 114.851562 110.507812 Z M 113.484375 111.871094 L 111.289062 112.078125 L 105.640625 104.027344 L 113.488281 111.875 Z M 113.484375 121.046875 L 105.636719 128.894531 L 111.285156 120.847656 L 113.480469 121.050781 Z M 114.851562 122.414062 L 115.054688 124.609375 L 107.007812 130.261719 L 114.855469 122.410156 Z M 125.394531 121.046875 L 127.59375 120.84375 L 133.246094 128.894531 L 125.398438 121.046875 Z M 125.394531 111.871094 L 133.242188 104.023438 L 127.589844 112.078125 L 125.390625 111.871094 Z M 124.027344 110.503906 L 123.820312 108.304688 L 131.875 102.652344 L 124.027344 110.5 Z M 118.136719 75.082031 L 115.265625 106.089844 L 99.015625 94.683594 L 98.398438 95.417969 L 97.667969 96.03125 L 109.066406 112.28125 L 78.058594 115.152344 C 78.738281 93.359375 96.339844 75.757812 118.136719 75.082031 Z M 78.058594 117.765625 L 109.066406 120.636719 L 97.667969 136.886719 L 98.398438 137.5 L 99.015625 138.234375 L 115.265625 126.832031 L 118.136719 157.839844 C 96.34375 157.160156 78.738281 139.558594 78.058594 117.765625 Z M 120.742188 157.839844 L 123.613281 126.832031 L 139.863281 138.234375 L 140.476562 137.5 L 141.210938 136.886719 L 129.808594 120.636719 L 160.816406 117.765625 C 160.136719 139.554688 142.535156 157.160156 120.742188 157.839844 Z M 129.808594 112.28125 L 141.214844 96.03125 L 140.484375 95.414062 L 139.867188 94.683594 L 123.617188 106.089844 L 120.746094 75.082031 C 142.539062 75.757812 160.140625 93.359375 160.820312 115.152344 Z M 129.808594 112.28125 " fill-opacity="1" fill-rule="nonzero"/><g clip-path="url(#fa0c158689)"><path fill="#01353c" d="M 117.332031 49.839844 L 122.335938 58.679688 L 124.523438 58.679688 L 124.523438 46.554688 L 122.589844 46.554688 L 122.589844 55.53125 L 117.5625 46.554688 L 115.394531 46.554688 L 115.394531 58.679688 L 117.332031 58.679688 Z M 117.332031 49.839844 " fill-opacity="1" fill-rule="nonzero"/></g><path fill="#01353c" d="M 121.890625 181.398438 C 121.386719 181.1875 120.761719 181.007812 120.007812 180.855469 C 119.980469 180.851562 119.949219 180.84375 119.914062 180.835938 C 119.882812 180.832031 119.851562 180.824219 119.824219 180.820312 C 119.800781 180.8125 119.785156 180.808594 119.761719 180.804688 C 119.742188 180.804688 119.722656 180.796875 119.699219 180.792969 C 119.117188 180.671875 118.660156 180.5625 118.335938 180.460938 C 118.011719 180.359375 117.742188 180.195312 117.523438 179.972656 C 117.304688 179.753906 117.195312 179.449219 117.195312 179.0625 L 117.195312 179.054688 C 117.195312 178.542969 117.40625 178.148438 117.828125 177.867188 C 118.246094 177.585938 118.84375 177.445312 119.605469 177.445312 C 120.066406 177.445312 120.542969 177.53125 121.027344 177.707031 C 121.511719 177.878906 121.988281 178.132812 122.453125 178.464844 L 123.421875 176.820312 C 123.027344 176.542969 122.617188 176.308594 122.199219 176.121094 C 121.777344 175.933594 121.347656 175.792969 120.914062 175.695312 C 120.476562 175.597656 120.039062 175.550781 119.605469 175.550781 C 118.683594 175.550781 117.894531 175.691406 117.238281 175.976562 C 116.582031 176.261719 116.082031 176.675781 115.734375 177.21875 C 115.390625 177.765625 115.21875 178.421875 115.21875 179.191406 L 115.21875 179.199219 C 115.21875 180.066406 115.402344 180.734375 115.769531 181.210938 C 116.136719 181.679688 116.582031 182.011719 117.105469 182.195312 C 117.628906 182.378906 118.296875 182.535156 119.109375 182.667969 L 119.257812 182.691406 C 119.257812 182.691406 119.292969 182.699219 119.308594 182.699219 C 119.328125 182.699219 119.339844 182.699219 119.359375 182.707031 C 119.863281 182.796875 120.277344 182.890625 120.601562 182.992188 C 120.921875 183.097656 121.1875 183.257812 121.382812 183.480469 C 121.585938 183.695312 121.683594 183.996094 121.683594 184.367188 L 121.683594 184.375 C 121.683594 184.90625 121.460938 185.3125 121.011719 185.601562 C 120.566406 185.894531 119.9375 186.035156 119.121094 186.035156 C 118.472656 186.035156 117.855469 185.933594 117.273438 185.730469 C 116.691406 185.527344 116.167969 185.226562 115.699219 184.832031 L 114.640625 186.425781 C 115.027344 186.753906 115.460938 187.027344 115.929688 187.253906 C 116.398438 187.476562 116.902344 187.644531 117.4375 187.757812 C 117.976562 187.875 118.535156 187.929688 119.117188 187.929688 C 120.074219 187.929688 120.890625 187.789062 121.570312 187.507812 C 122.25 187.226562 122.765625 186.8125 123.121094 186.277344 C 123.480469 185.738281 123.65625 185.089844 123.65625 184.335938 L 123.65625 184.316406 C 123.65625 183.511719 123.488281 182.871094 123.148438 182.40625 C 122.808594 181.9375 122.386719 181.597656 121.882812 181.386719 Z M 121.890625 181.398438 " fill-opacity="1" fill-rule="nonzero"/><g clip-path="url(#5961762ced)"><path fill="#01353c" d="M 58.199219 119.085938 L 55.796875 110.285156 L 54.292969 110.285156 L 51.890625 119.085938 L 50.039062 110.285156 L 47.976562 110.285156 L 50.855469 122.417969 L 52.800781 122.417969 L 55.09375 113.941406 L 57.289062 122.417969 L 59.234375 122.417969 L 62.109375 110.285156 L 60.050781 110.285156 Z M 58.199219 119.085938 " fill-opacity="1" fill-rule="nonzero"/></g><g clip-path="url(#5daaf33991)"><path fill="#01353c" d="M 186.511719 112.195312 L 186.511719 110.285156 L 178.550781 110.285156 L 178.550781 122.417969 L 186.511719 122.417969 L 186.511719 120.507812 L 180.546875 120.507812 L 180.546875 117.34375 L 185.597656 117.34375 L 185.597656 115.445312 L 180.546875 115.445312 L 180.546875 112.195312 Z M 186.511719 112.195312 " fill-opacity="1" fill-rule="nonzero"/></g></svg>