<svg xmlns="http://www.w3.org/2000/svg" xmlns:xlink="http://www.w3.org/1999/xlink" width="40" zoomAndPan="magnify" viewBox="0 0 30 30.000001" height="40" preserveAspectRatio="xMidYMid meet" version="1.0"><defs><g/><clipPath id="08487891ef"><path d="M 0.484375 0 L 29.515625 0 L 29.515625 29.03125 L 0.484375 29.03125 Z M 0.484375 0 " clip-rule="nonzero"/></clipPath><clipPath id="9f16c5eae9"><path d="M 0.484375 0 L 29.515625 0 L 29.515625 29.03125 L 0.484375 29.03125 Z M 0.484375 0 " clip-rule="nonzero"/></clipPath><clipPath id="ce67b053a0"><path d="M 1.933594 0 L 28.066406 0 C 28.867188 0 29.515625 0.648438 29.515625 1.453125 L 29.515625 27.582031 C 29.515625 28.382812 28.867188 29.03125 28.066406 29.03125 L 1.933594 29.03125 C 1.132812 29.03125 0.484375 28.382812 0.484375 27.582031 L 0.484375 1.453125 C 0.484375 0.648438 1.132812 0 1.933594 0 Z M 1.933594 0 " clip-rule="nonzero"/></clipPath><clipPath id="3195787f09"><path d="M 0.484375 0 L 29.515625 0 L 29.515625 29.03125 L 0.484375 29.03125 Z M 0.484375 0 " clip-rule="nonzero"/></clipPath><clipPath id="4e2b96a806"><path d="M 1.933594 0 L 28.066406 0 C 28.867188 0 29.515625 0.648438 29.515625 1.453125 L 29.515625 27.582031 C 29.515625 28.382812 28.867188 29.03125 28.066406 29.03125 L 1.933594 29.03125 C 1.132812 29.03125 0.484375 28.382812 0.484375 27.582031 L 0.484375 1.453125 C 0.484375 0.648438 1.132812 0 1.933594 0 Z M 1.933594 0 " clip-rule="nonzero"/></clipPath><clipPath id="28f882876c"><rect x="0" width="30" y="0" height="30"/></clipPath><clipPath id="824d14e71b"><rect x="0" width="26" y="0" height="19"/></clipPath></defs><g clip-path="url(#08487891ef)"><path fill="#ffffff" d="M 0.484375 0 L 29.515625 0 L 29.515625 29.03125 L 0.484375 29.03125 Z M 0.484375 0 " fill-opacity="1" fill-rule="nonzero"/><path fill="#ffffff" d="M 0.484375 0 L 29.515625 0 L 29.515625 29.03125 L 0.484375 29.03125 Z M 0.484375 0 " fill-opacity="1" fill-rule="nonzero"/></g><g clip-path="url(#9f16c5eae9)"><g clip-path="url(#ce67b053a0)"><g transform="matrix(1, 0, 0, 1, 0, 0.000000000000005692)"><g clip-path="url(#28f882876c)"><g clip-path="url(#3195787f09)"><g clip-path="url(#4e2b96a806)"><path fill="#93e85f" d="M 0.484375 0 L 29.515625 0 L 29.515625 29.03125 L 0.484375 29.03125 Z M 0.484375 0 " fill-opacity="1" fill-rule="nonzero"/></g></g></g></g></g></g><g transform="matrix(1, 0, 0, 1, 2, 5)"><g clip-path="url(#824d14e71b)"><g fill="#000000" fill-opacity="1"><g transform="translate(1.775423, 15.251424)"><g><path d="M 7.527344 0.265625 L 6.027344 0.265625 C 5.898438 0.265625 5.792969 0.226562 5.703125 0.148438 C 5.621094 0.078125 5.566406 -0.0195312 5.539062 -0.140625 L 5.144531 -2.214844 L 5.402344 -2.261719 L 5.402344 -2 L 2.886719 -2 L 2.886719 -2.261719 L 3.148438 -2.214844 L 2.765625 -0.144531 L 2.761719 -0.140625 C 2.738281 -0.0195312 2.683594 0.078125 2.601562 0.148438 C 2.511719 0.226562 2.40625 0.265625 2.277344 0.265625 L 0.765625 0.265625 C 0.589844 0.265625 0.464844 0.210938 0.378906 0.101562 C 0.292969 -0.0117188 0.277344 -0.148438 0.324219 -0.316406 L 0.578125 -0.242188 L 0.320312 -0.296875 L 2.667969 -11.175781 C 2.695312 -11.300781 2.753906 -11.402344 2.839844 -11.472656 C 2.929688 -11.546875 3.039062 -11.582031 3.167969 -11.582031 L 5.136719 -11.582031 C 5.265625 -11.582031 5.375 -11.546875 5.464844 -11.472656 C 5.550781 -11.402344 5.609375 -11.300781 5.636719 -11.175781 L 7.984375 -0.292969 L 7.984375 -0.285156 C 8.015625 -0.125 7.984375 0.00390625 7.902344 0.109375 C 7.816406 0.214844 7.691406 0.265625 7.527344 0.265625 Z M 7.527344 -0.265625 C 7.535156 -0.265625 7.539062 -0.265625 7.542969 -0.265625 C 7.542969 -0.265625 7.542969 -0.265625 7.539062 -0.265625 C 7.523438 -0.257812 7.503906 -0.246094 7.492188 -0.230469 C 7.476562 -0.210938 7.46875 -0.195312 7.464844 -0.175781 C 7.464844 -0.179688 7.464844 -0.1875 7.464844 -0.195312 L 7.722656 -0.242188 L 7.464844 -0.183594 L 5.117188 -11.0625 C 5.113281 -11.070312 5.113281 -11.078125 5.113281 -11.078125 C 5.113281 -11.074219 5.121094 -11.070312 5.125 -11.0625 C 5.132812 -11.058594 5.140625 -11.054688 5.144531 -11.050781 C 5.144531 -11.050781 5.140625 -11.050781 5.136719 -11.050781 L 3.167969 -11.050781 C 3.164062 -11.050781 3.160156 -11.050781 3.160156 -11.050781 C 3.164062 -11.054688 3.171875 -11.058594 3.179688 -11.0625 C 3.183594 -11.070312 3.1875 -11.074219 3.191406 -11.078125 C 3.191406 -11.078125 3.191406 -11.070312 3.1875 -11.0625 L 0.835938 -0.175781 L 0.835938 -0.164062 C 0.832031 -0.15625 0.832031 -0.152344 0.832031 -0.148438 C 0.832031 -0.148438 0.832031 -0.148438 0.828125 -0.152344 C 0.828125 -0.175781 0.820312 -0.199219 0.800781 -0.222656 C 0.785156 -0.242188 0.765625 -0.257812 0.742188 -0.265625 C 0.746094 -0.265625 0.753906 -0.265625 0.765625 -0.265625 L 2.277344 -0.265625 C 2.269531 -0.261719 2.257812 -0.257812 2.25 -0.25 C 2.246094 -0.242188 2.242188 -0.238281 2.238281 -0.234375 C 2.242188 -0.238281 2.242188 -0.246094 2.246094 -0.253906 L 2.503906 -0.199219 L 2.242188 -0.246094 L 2.664062 -2.527344 L 5.625 -2.527344 L 6.058594 -0.253906 C 6.0625 -0.246094 6.0625 -0.238281 6.066406 -0.234375 C 6.0625 -0.238281 6.058594 -0.242188 6.054688 -0.25 C 6.046875 -0.257812 6.035156 -0.261719 6.027344 -0.265625 Z M 4.789062 -3.855469 L 3.882812 -8.792969 L 4.144531 -8.84375 L 4.40625 -8.792969 L 3.5 -3.855469 L 3.238281 -3.90625 L 3.238281 -4.171875 L 5.050781 -4.171875 L 5.050781 -3.90625 Z M 5.367188 -3.640625 L 2.921875 -3.640625 L 3.882812 -8.890625 L 4.40625 -8.890625 L 5.3125 -3.953125 Z M 5.367188 -3.640625 "/></g></g></g><g fill="#000000" fill-opacity="1"><g transform="translate(10.0639, 15.251424)"><g><path d="M 6.617188 -11.089844 L 6.617188 -9.675781 C 6.617188 -9.527344 6.574219 -9.40625 6.488281 -9.3125 C 6.398438 -9.21875 6.277344 -9.171875 6.125 -9.171875 L 2.589844 -9.171875 L 2.589844 -9.4375 L 2.855469 -9.4375 L 2.855469 -6.605469 L 2.589844 -6.605469 L 2.589844 -6.871094 L 5.289062 -6.871094 C 5.441406 -6.871094 5.5625 -6.824219 5.652344 -6.726562 C 5.738281 -6.636719 5.78125 -6.515625 5.78125 -6.367188 L 5.78125 -4.964844 C 5.78125 -4.816406 5.738281 -4.695312 5.652344 -4.601562 C 5.5625 -4.507812 5.441406 -4.460938 5.289062 -4.460938 L 2.589844 -4.460938 L 2.589844 -4.726562 L 2.855469 -4.726562 L 2.855469 -1.867188 L 2.589844 -1.867188 L 2.589844 -2.132812 L 6.125 -2.132812 C 6.273438 -2.132812 6.394531 -2.089844 6.484375 -2 C 6.574219 -1.910156 6.617188 -1.789062 6.617188 -1.640625 L 6.617188 -0.226562 C 6.617188 -0.078125 6.574219 0.0429688 6.484375 0.132812 C 6.394531 0.21875 6.273438 0.265625 6.125 0.265625 L 0.917969 0.265625 C 0.773438 0.265625 0.65625 0.21875 0.566406 0.125 C 0.484375 0.0351562 0.441406 -0.0820312 0.441406 -0.226562 L 0.441406 -11.089844 C 0.441406 -11.238281 0.484375 -11.355469 0.566406 -11.441406 C 0.65625 -11.535156 0.773438 -11.582031 0.917969 -11.582031 L 6.125 -11.582031 C 6.273438 -11.582031 6.394531 -11.539062 6.484375 -11.449219 C 6.574219 -11.359375 6.617188 -11.238281 6.617188 -11.089844 Z M 6.085938 -11.089844 C 6.085938 -11.097656 6.085938 -11.101562 6.085938 -11.105469 C 6.089844 -11.09375 6.097656 -11.085938 6.109375 -11.074219 C 6.117188 -11.0625 6.128906 -11.054688 6.140625 -11.050781 C 6.136719 -11.050781 6.132812 -11.050781 6.125 -11.050781 L 0.917969 -11.050781 C 0.914062 -11.050781 0.910156 -11.050781 0.910156 -11.050781 C 0.910156 -11.050781 0.914062 -11.050781 0.914062 -11.054688 C 0.929688 -11.058594 0.941406 -11.066406 0.953125 -11.078125 C 0.964844 -11.089844 0.972656 -11.101562 0.972656 -11.109375 C 0.972656 -11.109375 0.972656 -11.101562 0.972656 -11.089844 L 0.972656 -0.226562 C 0.972656 -0.214844 0.972656 -0.210938 0.972656 -0.207031 C 0.972656 -0.21875 0.964844 -0.226562 0.953125 -0.238281 C 0.941406 -0.25 0.929688 -0.257812 0.914062 -0.265625 C 0.914062 -0.265625 0.910156 -0.265625 0.910156 -0.265625 C 0.910156 -0.265625 0.914062 -0.265625 0.917969 -0.265625 L 6.125 -0.265625 C 6.132812 -0.265625 6.136719 -0.265625 6.140625 -0.265625 C 6.128906 -0.261719 6.117188 -0.253906 6.109375 -0.246094 C 6.097656 -0.234375 6.089844 -0.222656 6.085938 -0.210938 C 6.085938 -0.214844 6.085938 -0.21875 6.085938 -0.226562 L 6.085938 -1.640625 C 6.085938 -1.648438 6.085938 -1.652344 6.085938 -1.65625 C 6.089844 -1.644531 6.097656 -1.632812 6.109375 -1.625 C 6.117188 -1.613281 6.128906 -1.605469 6.140625 -1.601562 C 6.136719 -1.601562 6.132812 -1.601562 6.125 -1.601562 L 2.324219 -1.601562 L 2.324219 -4.992188 L 5.289062 -4.992188 C 5.296875 -4.992188 5.300781 -4.992188 5.304688 -4.992188 C 5.304688 -4.992188 5.304688 -4.992188 5.300781 -4.992188 C 5.289062 -4.984375 5.277344 -4.976562 5.265625 -4.96875 C 5.257812 -4.957031 5.253906 -4.949219 5.25 -4.941406 C 5.25 -4.945312 5.25 -4.953125 5.25 -4.964844 L 5.25 -6.367188 C 5.25 -6.378906 5.25 -6.386719 5.25 -6.390625 C 5.253906 -6.382812 5.257812 -6.375 5.265625 -6.363281 C 5.277344 -6.351562 5.289062 -6.347656 5.300781 -6.339844 C 5.304688 -6.339844 5.304688 -6.339844 5.304688 -6.339844 C 5.300781 -6.339844 5.296875 -6.339844 5.289062 -6.339844 L 2.324219 -6.339844 L 2.324219 -9.703125 L 6.125 -9.703125 C 6.132812 -9.703125 6.136719 -9.703125 6.140625 -9.703125 C 6.140625 -9.703125 6.136719 -9.703125 6.136719 -9.703125 C 6.125 -9.695312 6.113281 -9.6875 6.101562 -9.679688 C 6.09375 -9.667969 6.085938 -9.660156 6.085938 -9.652344 C 6.085938 -9.65625 6.085938 -9.664062 6.085938 -9.675781 Z M 6.085938 -11.089844 "/></g></g></g><g fill="#000000" fill-opacity="1"><g transform="translate(17.121832, 15.251424)"><g><path d="M 0.441406 -2.039062 L 0.441406 -9.28125 C 0.441406 -10.023438 0.644531 -10.59375 1.042969 -10.992188 C 1.445312 -11.386719 2.011719 -11.582031 2.746094 -11.582031 L 4.328125 -11.582031 C 5.070312 -11.582031 5.640625 -11.386719 6.039062 -10.988281 C 6.433594 -10.59375 6.632812 -10.023438 6.632812 -9.28125 L 6.632812 -2.039062 C 6.632812 -1.304688 6.433594 -0.738281 6.039062 -0.335938 C 5.640625 0.0664062 5.074219 0.265625 4.328125 0.265625 L 2.746094 0.265625 C 2.011719 0.265625 1.445312 0.0664062 1.042969 -0.335938 C 0.640625 -0.738281 0.441406 -1.304688 0.441406 -2.039062 Z M 0.972656 -2.039062 C 0.972656 -1.449219 1.121094 -1.007812 1.417969 -0.710938 C 1.714844 -0.414062 2.15625 -0.265625 2.746094 -0.265625 L 4.328125 -0.265625 C 4.925781 -0.265625 5.367188 -0.414062 5.660156 -0.710938 C 5.953125 -1.007812 6.101562 -1.449219 6.101562 -2.039062 L 6.101562 -9.28125 C 6.101562 -9.875 5.953125 -10.320312 5.664062 -10.613281 C 5.371094 -10.90625 4.925781 -11.050781 4.328125 -11.050781 L 2.746094 -11.050781 C 2.15625 -11.050781 1.714844 -10.90625 1.417969 -10.613281 C 1.121094 -10.320312 0.972656 -9.875 0.972656 -9.28125 Z M 3.15625 -2.089844 L 3.976562 -2.089844 C 4.089844 -2.089844 4.167969 -2.113281 4.210938 -2.152344 C 4.253906 -2.195312 4.277344 -2.277344 4.277344 -2.390625 L 4.277344 -8.925781 C 4.277344 -9.042969 4.253906 -9.121094 4.210938 -9.164062 C 4.167969 -9.207031 4.089844 -9.226562 3.976562 -9.226562 L 3.15625 -9.226562 C 3.039062 -9.226562 2.960938 -9.207031 2.917969 -9.164062 C 2.875 -9.121094 2.855469 -9.042969 2.855469 -8.925781 L 2.855469 -2.390625 C 2.855469 -2.277344 2.875 -2.195312 2.917969 -2.152344 C 2.960938 -2.113281 3.039062 -2.089844 3.15625 -2.089844 Z M 3.15625 -1.558594 C 2.894531 -1.558594 2.6875 -1.632812 2.542969 -1.777344 C 2.398438 -1.925781 2.324219 -2.128906 2.324219 -2.390625 L 2.324219 -8.925781 C 2.324219 -9.1875 2.398438 -9.394531 2.542969 -9.539062 C 2.6875 -9.683594 2.894531 -9.757812 3.15625 -9.757812 L 3.976562 -9.757812 C 4.238281 -9.757812 4.441406 -9.683594 4.585938 -9.539062 C 4.734375 -9.394531 4.804688 -9.1875 4.804688 -8.925781 L 4.804688 -2.390625 C 4.804688 -2.128906 4.734375 -1.925781 4.585938 -1.777344 C 4.441406 -1.632812 4.238281 -1.558594 3.976562 -1.558594 Z M 3.15625 -1.558594 "/></g></g></g></g></g></svg>