<svg xmlns="http://www.w3.org/2000/svg" xmlns:xlink="http://www.w3.org/1999/xlink" width="40" zoomAndPan="magnify" viewBox="0 0 30 30.000001" height="40" preserveAspectRatio="xMidYMid meet" version="1.0"><defs><clipPath id="93bcb56f38"><path d="M 0.484375 0 L 29.515625 0 L 29.515625 29.03125 L 0.484375 29.03125 Z M 0.484375 0 " clip-rule="nonzero"/></clipPath><clipPath id="f50b55570b"><path d="M 1.933594 0 L 28.066406 0 C 28.867188 0 29.515625 0.648438 29.515625 1.453125 L 29.515625 27.582031 C 29.515625 28.382812 28.867188 29.03125 28.066406 29.03125 L 1.933594 29.03125 C 1.132812 29.03125 0.484375 28.382812 0.484375 27.582031 L 0.484375 1.453125 C 0.484375 0.648438 1.132812 0 1.933594 0 Z M 1.933594 0 " clip-rule="nonzero"/></clipPath><clipPath id="ac144b8141"><path d="M 0.484375 0 L 29.515625 0 L 29.515625 29.03125 L 0.484375 29.03125 Z M 0.484375 0 " clip-rule="nonzero"/></clipPath><clipPath id="6863b8b0ee"><path d="M 1.933594 0 L 28.066406 0 C 28.867188 0 29.515625 0.648438 29.515625 1.453125 L 29.515625 27.582031 C 29.515625 28.382812 28.867188 29.03125 28.066406 29.03125 L 1.933594 29.03125 C 1.132812 29.03125 0.484375 28.382812 0.484375 27.582031 L 0.484375 1.453125 C 0.484375 0.648438 1.132812 0 1.933594 0 Z M 1.933594 0 " clip-rule="nonzero"/></clipPath><clipPath id="54c11b3c11"><rect x="0" width="30" y="0" height="30"/></clipPath><clipPath id="ed9acff04b"><path d="M 4.976562 5.441406 L 25.300781 5.441406 L 25.300781 23.585938 L 4.976562 23.585938 Z M 4.976562 5.441406 " clip-rule="nonzero"/></clipPath></defs><g clip-path="url(#93bcb56f38)"><g clip-path="url(#f50b55570b)"><g transform="matrix(1, 0, 0, 1, 0, 0.000000000000005692)"><g clip-path="url(#54c11b3c11)"><g clip-path="url(#ac144b8141)"><g clip-path="url(#6863b8b0ee)"><path fill="#93e85f" d="M 0.484375 0 L 29.515625 0 L 29.515625 29.03125 L 0.484375 29.03125 Z M 0.484375 0 " fill-opacity="1" fill-rule="nonzero"/></g></g></g></g></g></g><g clip-path="url(#ed9acff04b)"><path fill="#000000" d="M 19.976562 7.355469 L 15.621094 7.355469 L 15.621094 5.925781 C 15.621094 5.792969 15.574219 5.679688 15.480469 5.589844 C 15.386719 5.496094 15.273438 5.449219 15.140625 5.449219 C 15.003906 5.449219 14.890625 5.496094 14.796875 5.589844 C 14.703125 5.679688 14.65625 5.792969 14.65625 5.925781 L 14.65625 7.355469 L 10.300781 7.355469 C 9.980469 7.359375 9.671875 7.417969 9.375 7.539062 C 9.078125 7.660156 8.816406 7.832031 8.589844 8.054688 C 8.363281 8.28125 8.1875 8.539062 8.066406 8.832031 C 7.941406 9.121094 7.882812 9.425781 7.882812 9.742188 L 7.882812 18.332031 C 7.882812 18.648438 7.941406 18.953125 8.066406 19.242188 C 8.1875 19.535156 8.363281 19.792969 8.589844 20.015625 C 8.816406 20.242188 9.078125 20.414062 9.375 20.535156 C 9.671875 20.65625 9.980469 20.714844 10.300781 20.714844 L 12.945312 20.714844 L 14.738281 23.367188 C 14.78125 23.433594 14.839844 23.484375 14.910156 23.523438 C 14.980469 23.558594 15.058594 23.578125 15.140625 23.578125 C 15.21875 23.578125 15.296875 23.558594 15.367188 23.523438 C 15.4375 23.484375 15.496094 23.433594 15.542969 23.367188 L 17.332031 20.714844 L 19.976562 20.714844 C 20.296875 20.714844 20.605469 20.65625 20.902344 20.535156 C 21.199219 20.414062 21.460938 20.242188 21.6875 20.015625 C 21.914062 19.792969 22.089844 19.535156 22.210938 19.242188 C 22.335938 18.953125 22.398438 18.648438 22.398438 18.332031 L 22.398438 9.742188 C 22.398438 9.425781 22.335938 9.121094 22.210938 8.832031 C 22.089844 8.539062 21.914062 8.28125 21.6875 8.054688 C 21.460938 7.832031 21.199219 7.660156 20.902344 7.539062 C 20.605469 7.417969 20.296875 7.359375 19.976562 7.355469 Z M 21.429688 18.332031 C 21.429688 18.519531 21.390625 18.703125 21.320312 18.878906 C 21.246094 19.054688 21.140625 19.207031 21.003906 19.34375 C 20.867188 19.476562 20.710938 19.582031 20.53125 19.652344 C 20.355469 19.726562 20.171875 19.761719 19.976562 19.761719 L 17.074219 19.761719 C 16.902344 19.761719 16.769531 19.832031 16.671875 19.976562 L 15.140625 22.242188 L 13.605469 19.976562 C 13.511719 19.832031 13.375 19.761719 13.203125 19.761719 L 10.300781 19.761719 C 10.109375 19.761719 9.921875 19.726562 9.746094 19.652344 C 9.566406 19.582031 9.410156 19.476562 9.273438 19.34375 C 9.136719 19.207031 9.035156 19.054688 8.960938 18.878906 C 8.886719 18.703125 8.847656 18.519531 8.847656 18.332031 L 8.847656 16.898438 L 21.429688 16.898438 Z M 21.429688 15.945312 L 8.847656 15.945312 L 8.847656 9.742188 C 8.847656 9.554688 8.886719 9.371094 8.960938 9.195312 C 9.035156 9.019531 9.136719 8.867188 9.273438 8.730469 C 9.410156 8.597656 9.566406 8.492188 9.746094 8.421875 C 9.921875 8.347656 10.109375 8.3125 10.300781 8.3125 L 19.976562 8.3125 C 20.171875 8.3125 20.355469 8.347656 20.53125 8.421875 C 20.710938 8.492188 20.867188 8.597656 21.003906 8.730469 C 21.140625 8.867188 21.246094 9.019531 21.320312 9.195312 C 21.390625 9.371094 21.429688 9.554688 21.429688 9.742188 Z M 13.203125 12.605469 C 13.203125 12.730469 13.179688 12.855469 13.128906 12.96875 C 13.082031 13.085938 13.011719 13.191406 12.921875 13.28125 C 12.828125 13.371094 12.726562 13.4375 12.605469 13.488281 C 12.488281 13.535156 12.363281 13.558594 12.234375 13.558594 C 12.109375 13.558594 11.984375 13.535156 11.867188 13.488281 C 11.746094 13.4375 11.640625 13.371094 11.550781 13.28125 C 11.460938 13.191406 11.390625 13.085938 11.339844 12.96875 C 11.292969 12.855469 11.269531 12.730469 11.269531 12.605469 C 11.269531 12.480469 11.292969 12.355469 11.339844 12.242188 C 11.390625 12.125 11.460938 12.019531 11.550781 11.929688 C 11.640625 11.839844 11.746094 11.773438 11.867188 11.722656 C 11.984375 11.675781 12.109375 11.652344 12.234375 11.652344 C 12.363281 11.652344 12.488281 11.675781 12.605469 11.722656 C 12.726562 11.773438 12.828125 11.839844 12.921875 11.929688 C 13.011719 12.019531 13.082031 12.125 13.128906 12.242188 C 13.179688 12.355469 13.203125 12.480469 13.203125 12.605469 Z M 19.011719 12.605469 C 19.011719 12.730469 18.984375 12.855469 18.9375 12.96875 C 18.886719 13.085938 18.816406 13.191406 18.726562 13.28125 C 18.636719 13.371094 18.53125 13.4375 18.414062 13.488281 C 18.292969 13.535156 18.171875 13.558594 18.042969 13.558594 C 17.914062 13.558594 17.789062 13.535156 17.671875 13.488281 C 17.554688 13.4375 17.449219 13.371094 17.359375 13.28125 C 17.265625 13.191406 17.195312 13.085938 17.148438 12.96875 C 17.097656 12.855469 17.074219 12.730469 17.074219 12.605469 C 17.074219 12.480469 17.097656 12.355469 17.148438 12.242188 C 17.195312 12.125 17.265625 12.019531 17.359375 11.929688 C 17.449219 11.839844 17.554688 11.773438 17.671875 11.722656 C 17.789062 11.675781 17.914062 11.652344 18.042969 11.652344 C 18.171875 11.652344 18.292969 11.675781 18.414062 11.722656 C 18.53125 11.773438 18.636719 11.839844 18.726562 11.929688 C 18.816406 12.019531 18.886719 12.125 18.9375 12.242188 C 18.984375 12.355469 19.011719 12.480469 19.011719 12.605469 Z M 5.945312 10.695312 L 5.945312 14.515625 C 5.945312 14.644531 5.898438 14.757812 5.804688 14.851562 C 5.710938 14.945312 5.59375 14.992188 5.460938 14.992188 C 5.328125 14.992188 5.214844 14.945312 5.121094 14.851562 C 5.023438 14.757812 4.976562 14.644531 4.976562 14.515625 L 4.976562 10.695312 C 4.976562 10.566406 5.023438 10.453125 5.121094 10.359375 C 5.214844 10.265625 5.328125 10.21875 5.460938 10.21875 C 5.59375 10.21875 5.710938 10.265625 5.804688 10.359375 C 5.898438 10.453125 5.945312 10.566406 5.945312 10.695312 Z M 25.300781 10.695312 L 25.300781 14.515625 C 25.300781 14.644531 25.253906 14.757812 25.160156 14.851562 C 25.0625 14.945312 24.949219 14.992188 24.816406 14.992188 C 24.683594 14.992188 24.570312 14.945312 24.472656 14.851562 C 24.378906 14.757812 24.332031 14.644531 24.332031 14.515625 L 24.332031 10.695312 C 24.332031 10.566406 24.378906 10.453125 24.472656 10.359375 C 24.570312 10.265625 24.683594 10.21875 24.816406 10.21875 C 24.949219 10.21875 25.0625 10.265625 25.160156 10.359375 C 25.253906 10.453125 25.300781 10.566406 25.300781 10.695312 Z M 25.300781 10.695312 " fill-opacity="1" fill-rule="nonzero"/></g></svg>