<svg xmlns="http://www.w3.org/2000/svg" xmlns:xlink="http://www.w3.org/1999/xlink" width="40" zoomAndPan="magnify" viewBox="0 0 30 30.000001" height="40" preserveAspectRatio="xMidYMid meet" version="1.0"><defs><clipPath id="6ac301d22b"><path d="M 0.484375 0 L 29.515625 0 L 29.515625 29.03125 L 0.484375 29.03125 Z M 0.484375 0 " clip-rule="nonzero"/></clipPath><clipPath id="32c27c6629"><path d="M 1.933594 0 L 28.066406 0 C 28.867188 0 29.515625 0.648438 29.515625 1.453125 L 29.515625 27.582031 C 29.515625 28.382812 28.867188 29.03125 28.066406 29.03125 L 1.933594 29.03125 C 1.132812 29.03125 0.484375 28.382812 0.484375 27.582031 L 0.484375 1.453125 C 0.484375 0.648438 1.132812 0 1.933594 0 Z M 1.933594 0 " clip-rule="nonzero"/></clipPath><clipPath id="4bcd91b0be"><path d="M 0.484375 0 L 29.515625 0 L 29.515625 29.03125 L 0.484375 29.03125 Z M 0.484375 0 " clip-rule="nonzero"/></clipPath><clipPath id="2afe99b688"><path d="M 1.933594 0 L 28.066406 0 C 28.867188 0 29.515625 0.648438 29.515625 1.453125 L 29.515625 27.582031 C 29.515625 28.382812 28.867188 29.03125 28.066406 29.03125 L 1.933594 29.03125 C 1.132812 29.03125 0.484375 28.382812 0.484375 27.582031 L 0.484375 1.453125 C 0.484375 0.648438 1.132812 0 1.933594 0 Z M 1.933594 0 " clip-rule="nonzero"/></clipPath><clipPath id="3f5c2b016d"><rect x="0" width="30" y="0" height="30"/></clipPath><clipPath id="013dabe29c"><path d="M 12 22 L 18 22 L 18 24.167969 L 12 24.167969 Z M 12 22 " clip-rule="nonzero"/></clipPath><clipPath id="791791a068"><path d="M 5.976562 4.574219 L 24.125 4.574219 L 24.125 22 L 5.976562 22 Z M 5.976562 4.574219 " clip-rule="nonzero"/></clipPath></defs><g clip-path="url(#6ac301d22b)"><g clip-path="url(#32c27c6629)"><g transform="matrix(1, 0, 0, 1, 0, 0.000000000000005692)"><g clip-path="url(#3f5c2b016d)"><g clip-path="url(#4bcd91b0be)"><g clip-path="url(#2afe99b688)"><path fill="#93e85f" d="M 0.484375 0 L 29.515625 0 L 29.515625 29.03125 L 0.484375 29.03125 Z M 0.484375 0 " fill-opacity="1" fill-rule="nonzero"/></g></g></g></g></g></g><g clip-path="url(#013dabe29c)"><path fill="#231f20" d="M 15.050781 23.28125 C 14.328125 23.28125 13.679688 22.867188 13.390625 22.21875 L 12.558594 22.574219 C 12.996094 23.539062 13.972656 24.167969 15.050781 24.167969 C 16.148438 24.167969 17.128906 23.53125 17.554688 22.546875 L 16.722656 22.199219 C 16.433594 22.859375 15.78125 23.28125 15.050781 23.28125 Z M 15.050781 23.28125 " fill-opacity="1" fill-rule="nonzero"/></g><g clip-path="url(#791791a068)"><path fill="#231f20" d="M 23.949219 20.28125 L 21.554688 18.328125 C 21.453125 18.242188 21.394531 18.121094 21.394531 17.988281 L 21.394531 12.632812 C 21.394531 10.917969 20.695312 9.320312 19.425781 8.136719 C 18.683594 7.441406 17.796875 6.949219 16.839844 6.675781 C 16.859375 6.539062 16.867188 6.402344 16.855469 6.257812 C 16.789062 5.5 16.21875 4.859375 15.46875 4.695312 C 14.917969 4.574219 14.355469 4.699219 13.917969 5.039062 C 13.488281 5.375 13.242188 5.878906 13.242188 6.421875 C 13.242188 6.511719 13.257812 6.59375 13.269531 6.679688 C 10.621094 7.453125 8.710938 9.898438 8.710938 12.796875 L 8.710938 17.984375 C 8.710938 18.117188 8.648438 18.242188 8.546875 18.324219 L 6.15625 20.277344 C 6.050781 20.363281 5.992188 20.488281 5.992188 20.617188 L 5.992188 21.0625 C 5.992188 21.308594 6.195312 21.507812 6.445312 21.507812 L 23.65625 21.507812 C 23.90625 21.507812 24.109375 21.308594 24.109375 21.0625 L 24.109375 20.617188 C 24.105469 20.488281 24.046875 20.363281 23.949219 20.28125 Z M 14.140625 6.421875 C 14.140625 6.148438 14.265625 5.898438 14.480469 5.726562 C 14.699219 5.554688 14.976562 5.492188 15.265625 5.554688 C 15.628906 5.636719 15.914062 5.960938 15.953125 6.332031 C 15.957031 6.382812 15.949219 6.433594 15.945312 6.484375 C 15.550781 6.429688 15.152344 6.410156 14.738281 6.425781 C 14.539062 6.433594 14.339844 6.453125 14.144531 6.484375 C 14.148438 6.460938 14.140625 6.441406 14.140625 6.421875 Z M 7.152344 20.621094 L 9.125 19.007812 C 9.433594 18.753906 9.613281 18.382812 9.613281 17.984375 L 9.613281 12.796875 C 9.613281 9.855469 11.886719 7.445312 14.789062 7.3125 C 16.292969 7.242188 17.71875 7.765625 18.800781 8.777344 C 19.886719 9.792969 20.484375 11.160156 20.484375 12.632812 L 20.484375 17.984375 C 20.484375 18.378906 20.664062 18.753906 20.972656 19.007812 L 22.945312 20.621094 Z M 7.152344 20.621094 " fill-opacity="1" fill-rule="nonzero"/></g></svg>