<svg xmlns="http://www.w3.org/2000/svg" xmlns:xlink="http://www.w3.org/1999/xlink" width="500" zoomAndPan="magnify" viewBox="0 0 375 374.999991" height="500" preserveAspectRatio="xMidYMid meet" version="1.0"><defs><clipPath id="15a87f7cf8"><path d="M 7.5 0 L 367.5 0 C 371.640625 0 375 3.359375 375 7.5 L 375 367.5 C 375 371.640625 371.640625 375 367.5 375 L 7.5 375 C 3.359375 375 0 371.640625 0 367.5 L 0 7.5 C 0 3.359375 3.359375 0 7.5 0 Z M 7.5 0 " clip-rule="nonzero"/></clipPath><clipPath id="a982fb7bcc"><path d="M 0 0 L 375 0 L 375 375 L 0 375 Z M 0 0 " clip-rule="nonzero"/></clipPath><clipPath id="01739ac869"><path d="M 7.5 0 L 367.5 0 C 371.640625 0 375 3.359375 375 7.5 L 375 367.5 C 375 371.640625 371.640625 375 367.5 375 L 7.5 375 C 3.359375 375 0 371.640625 0 367.5 L 0 7.5 C 0 3.359375 3.359375 0 7.5 0 Z M 7.5 0 " clip-rule="nonzero"/></clipPath><clipPath id="0458b82a6e"><rect x="0" width="375" y="0" height="375"/></clipPath><clipPath id="85f8c311c7"><path d="M 256 34 L 348 34 L 348 126 L 256 126 Z M 256 34 " clip-rule="nonzero"/></clipPath><clipPath id="e0c411c0df"><path d="M 302.433594 -10.859375 L 393.066406 79.777344 L 347.210938 125.628906 L 256.578125 34.996094 Z M 302.433594 -10.859375 " clip-rule="nonzero"/></clipPath><clipPath id="48274b6f9e"><path d="M 347.730469 34.4375 L 347.171875 125.589844 L 256.578125 34.996094 Z M 347.730469 34.4375 " clip-rule="nonzero"/></clipPath><clipPath id="f749affe79"><path d="M 0.558594 0.320312 L 91.761719 0.320312 L 91.761719 91.761719 L 0.558594 91.761719 Z M 0.558594 0.320312 " clip-rule="nonzero"/></clipPath><clipPath id="59a24a999b"><path d="M 46.433594 -44.859375 L 137.066406 45.777344 L 91.210938 91.628906 L 0.578125 0.996094 Z M 46.433594 -44.859375 " clip-rule="nonzero"/></clipPath><clipPath id="14a73f5680"><path d="M 91.730469 0.4375 L 91.171875 91.589844 L 0.578125 0.996094 Z M 91.730469 0.4375 " clip-rule="nonzero"/></clipPath><clipPath id="a1b8c55f9c"><rect x="0" width="92" y="0" height="92"/></clipPath><clipPath id="552a2d9aee"><path d="M 196 91 L 288 91 L 288 183 L 196 183 Z M 196 91 " clip-rule="nonzero"/></clipPath><clipPath id="6ed72f8e22"><path d="M 242.25 46.320312 L 332.882812 136.957031 L 287.027344 182.8125 L 196.394531 92.175781 Z M 242.25 46.320312 " clip-rule="nonzero"/></clipPath><clipPath id="2f565f383d"><path d="M 287.546875 91.621094 L 286.988281 182.773438 L 196.394531 92.175781 Z M 287.546875 91.621094 " clip-rule="nonzero"/></clipPath><clipPath id="df3f659258"><path d="M 0.320312 0.441406 L 91.761719 0.441406 L 91.761719 91.878906 L 0.320312 91.878906 Z M 0.320312 0.441406 " clip-rule="nonzero"/></clipPath><clipPath id="56e766b861"><path d="M 46.25 -44.679688 L 136.882812 45.957031 L 91.027344 91.8125 L 0.394531 1.175781 Z M 46.25 -44.679688 " clip-rule="nonzero"/></clipPath><clipPath id="0b6482f7fc"><path d="M 91.546875 0.621094 L 90.988281 91.773438 L 0.394531 1.175781 Z M 91.546875 0.621094 " clip-rule="nonzero"/></clipPath><clipPath id="3ddbc96a18"><rect x="0" width="92" y="0" height="92"/></clipPath><clipPath id="ec58abd633"><path d="M 136 148 L 228 148 L 228 240 L 136 240 Z M 136 148 " clip-rule="nonzero"/></clipPath><clipPath id="0d9f2c80b0"><path d="M 182.066406 103.503906 L 272.699219 194.136719 L 226.84375 239.992188 L 136.210938 149.355469 Z M 182.066406 103.503906 " clip-rule="nonzero"/></clipPath><clipPath id="3a96aeeea7"><path d="M 227.363281 148.800781 L 226.804688 239.953125 L 136.210938 149.355469 Z M 227.363281 148.800781 " clip-rule="nonzero"/></clipPath><clipPath id="541153d9f1"><path d="M 0.078125 0.558594 L 91.519531 0.558594 L 91.519531 92 L 0.078125 92 Z M 0.078125 0.558594 " clip-rule="nonzero"/></clipPath><clipPath id="ebc53c2280"><path d="M 46.066406 -44.496094 L 136.699219 46.136719 L 90.84375 91.992188 L 0.210938 1.355469 Z M 46.066406 -44.496094 " clip-rule="nonzero"/></clipPath><clipPath id="78306742e8"><path d="M 91.363281 0.800781 L 90.804688 91.953125 L 0.210938 1.355469 Z M 91.363281 0.800781 " clip-rule="nonzero"/></clipPath><clipPath id="5d706f0c26"><rect x="0" width="92" y="0" height="92"/></clipPath><clipPath id="b17fd0e882"><path d="M 76 205 L 168 205 L 168 298 L 76 298 Z M 76 205 " clip-rule="nonzero"/></clipPath><clipPath id="594f49eb05"><path d="M 121.882812 160.683594 L 212.515625 251.316406 L 166.660156 297.171875 L 76.027344 206.535156 Z M 121.882812 160.683594 " clip-rule="nonzero"/></clipPath><clipPath id="c25740df91"><path d="M 167.179688 205.980469 L 166.621094 297.132812 L 76.027344 206.535156 Z M 167.179688 205.980469 " clip-rule="nonzero"/></clipPath><clipPath id="0748fef54c"><path d="M 0 0.921875 L 91.28125 0.921875 L 91.28125 92.359375 L 0 92.359375 Z M 0 0.921875 " clip-rule="nonzero"/></clipPath><clipPath id="7a065f48a6"><path d="M 45.882812 -44.316406 L 136.515625 46.316406 L 90.660156 92.171875 L 0.0273438 1.535156 Z M 45.882812 -44.316406 " clip-rule="nonzero"/></clipPath><clipPath id="435558b3f0"><path d="M 91.179688 0.980469 L 90.621094 92.132812 L 0.0273438 1.535156 Z M 91.179688 0.980469 " clip-rule="nonzero"/></clipPath><clipPath id="d2b83f1acf"><rect x="0" width="92" y="0" height="93"/></clipPath><clipPath id="a00f981779"><path d="M 15 263 L 107 263 L 107 355 L 15 355 Z M 15 263 " clip-rule="nonzero"/></clipPath><clipPath id="2a7b5554f2"><path d="M 61.699219 217.863281 L 152.332031 308.496094 L 106.480469 354.351562 L 15.84375 263.71875 Z M 61.699219 217.863281 " clip-rule="nonzero"/></clipPath><clipPath id="4ccbcee381"><path d="M 106.996094 263.160156 L 106.441406 354.3125 L 15.84375 263.71875 Z M 106.996094 263.160156 " clip-rule="nonzero"/></clipPath><clipPath id="b5301d0c38"><path d="M 0.839844 0.0390625 L 92 0.0390625 L 92 91.480469 L 0.839844 91.480469 Z M 0.839844 0.0390625 " clip-rule="nonzero"/></clipPath><clipPath id="d8bea3ed2f"><path d="M 46.699219 -45.136719 L 137.332031 45.496094 L 91.480469 91.351562 L 0.84375 0.71875 Z M 46.699219 -45.136719 " clip-rule="nonzero"/></clipPath><clipPath id="9ed4efe92d"><path d="M 91.996094 0.160156 L 91.441406 91.3125 L 0.84375 0.71875 Z M 91.996094 0.160156 " clip-rule="nonzero"/></clipPath><clipPath id="051362a86e"><rect x="0" width="92" y="0" height="92"/></clipPath></defs><g clip-path="url(#15a87f7cf8)"><g transform="matrix(1, 0, 0, 1, 0, 0)"><g clip-path="url(#0458b82a6e)"><g clip-path="url(#a982fb7bcc)"><g clip-path="url(#01739ac869)"><rect x="-82.5" width="540" fill="#ffffff" height="539.999987" y="-82.499998" fill-opacity="1"/></g></g></g></g></g><g clip-path="url(#85f8c311c7)"><g clip-path="url(#e0c411c0df)"><g clip-path="url(#48274b6f9e)"><g transform="matrix(1, 0, 0, 1, 256, 34)"><g clip-path="url(#a1b8c55f9c)"><g clip-path="url(#f749affe79)"><g clip-path="url(#59a24a999b)"><g clip-path="url(#14a73f5680)"><path fill="#93e85f" d="M 46.433594 -44.859375 L 137.066406 45.777344 L 91.210938 91.628906 L 0.578125 0.996094 Z M 46.433594 -44.859375 " fill-opacity="1" fill-rule="nonzero"/></g></g></g></g></g></g></g></g><g clip-path="url(#552a2d9aee)"><g clip-path="url(#6ed72f8e22)"><g clip-path="url(#2f565f383d)"><g transform="matrix(1, 0, 0, 1, 196, 91)"><g clip-path="url(#3ddbc96a18)"><g clip-path="url(#df3f659258)"><g clip-path="url(#56e766b861)"><g clip-path="url(#0b6482f7fc)"><path fill="#155655" d="M 46.25 -44.679688 L 136.882812 45.957031 L 91.027344 91.8125 L 0.394531 1.175781 Z M 46.25 -44.679688 " fill-opacity="1" fill-rule="nonzero"/></g></g></g></g></g></g></g></g><g clip-path="url(#ec58abd633)"><g clip-path="url(#0d9f2c80b0)"><g clip-path="url(#3a96aeeea7)"><g transform="matrix(1, 0, 0, 1, 136, 148)"><g clip-path="url(#5d706f0c26)"><g clip-path="url(#541153d9f1)"><g clip-path="url(#ebc53c2280)"><g clip-path="url(#78306742e8)"><path fill="#93e85f" d="M 46.066406 -44.496094 L 136.699219 46.136719 L 90.84375 91.992188 L 0.210938 1.355469 Z M 46.066406 -44.496094 " fill-opacity="1" fill-rule="nonzero"/></g></g></g></g></g></g></g></g><g clip-path="url(#b17fd0e882)"><g clip-path="url(#594f49eb05)"><g clip-path="url(#c25740df91)"><g transform="matrix(1, 0, 0, 1, 76, 205)"><g clip-path="url(#d2b83f1acf)"><g clip-path="url(#0748fef54c)"><g clip-path="url(#7a065f48a6)"><g clip-path="url(#435558b3f0)"><path fill="#155655" d="M 45.882812 -44.316406 L 136.515625 46.316406 L 90.660156 92.171875 L 0.0273438 1.535156 Z M 45.882812 -44.316406 " fill-opacity="1" fill-rule="nonzero"/></g></g></g></g></g></g></g></g><g clip-path="url(#a00f981779)"><g clip-path="url(#2a7b5554f2)"><g clip-path="url(#4ccbcee381)"><g transform="matrix(1, 0, 0, 1, 15, 263)"><g clip-path="url(#051362a86e)"><g clip-path="url(#b5301d0c38)"><g clip-path="url(#d8bea3ed2f)"><g clip-path="url(#9ed4efe92d)"><path fill="#93e85f" d="M 46.699219 -45.136719 L 137.332031 45.496094 L 91.480469 91.351562 L 0.84375 0.71875 Z M 46.699219 -45.136719 " fill-opacity="1" fill-rule="nonzero"/></g></g></g></g></g></g></g></g></svg>