<svg xmlns="http://www.w3.org/2000/svg" xmlns:xlink="http://www.w3.org/1999/xlink" width="40" zoomAndPan="magnify" viewBox="0 0 30 30.000001" height="40" preserveAspectRatio="xMidYMid meet" version="1.0"><defs><clipPath id="3b0f109f9c"><path d="M 0.484375 0 L 29.515625 0 L 29.515625 29.03125 L 0.484375 29.03125 Z M 0.484375 0 " clip-rule="nonzero"/></clipPath><clipPath id="1f444619cd"><path d="M 1.933594 0 L 28.066406 0 C 28.867188 0 29.515625 0.648438 29.515625 1.453125 L 29.515625 27.582031 C 29.515625 28.382812 28.867188 29.03125 28.066406 29.03125 L 1.933594 29.03125 C 1.132812 29.03125 0.484375 28.382812 0.484375 27.582031 L 0.484375 1.453125 C 0.484375 0.648438 1.132812 0 1.933594 0 Z M 1.933594 0 " clip-rule="nonzero"/></clipPath><clipPath id="2b6a77d93b"><path d="M 0.484375 0 L 29.515625 0 L 29.515625 29.03125 L 0.484375 29.03125 Z M 0.484375 0 " clip-rule="nonzero"/></clipPath><clipPath id="6044f52677"><path d="M 1.933594 0 L 28.066406 0 C 28.867188 0 29.515625 0.648438 29.515625 1.453125 L 29.515625 27.582031 C 29.515625 28.382812 28.867188 29.03125 28.066406 29.03125 L 1.933594 29.03125 C 1.132812 29.03125 0.484375 28.382812 0.484375 27.582031 L 0.484375 1.453125 C 0.484375 0.648438 1.132812 0 1.933594 0 Z M 1.933594 0 " clip-rule="nonzero"/></clipPath><clipPath id="63713d9974"><rect x="0" width="30" y="0" height="30"/></clipPath><clipPath id="99b3f7bbe7"><path d="M 4.011719 5.410156 L 10 5.410156 L 10 10 L 4.011719 10 Z M 4.011719 5.410156 " clip-rule="nonzero"/></clipPath><clipPath id="ba16e59105"><path d="M 4.011719 10 L 10 10 L 10 15 L 4.011719 15 Z M 4.011719 10 " clip-rule="nonzero"/></clipPath><clipPath id="ac7a9004a1"><path d="M 4.011719 15 L 10 15 L 10 20 L 4.011719 20 Z M 4.011719 15 " clip-rule="nonzero"/></clipPath><clipPath id="11ee695915"><path d="M 16 10 L 25.785156 10 L 25.785156 20 L 16 20 Z M 16 10 " clip-rule="nonzero"/></clipPath><clipPath id="968b7ddad2"><path d="M 22 18 L 25.785156 18 L 25.785156 23.554688 L 22 23.554688 Z M 22 18 " clip-rule="nonzero"/></clipPath></defs><g clip-path="url(#3b0f109f9c)"><g clip-path="url(#1f444619cd)"><g transform="matrix(1, 0, 0, 1, 0, 0.000000000000005692)"><g clip-path="url(#63713d9974)"><g clip-path="url(#2b6a77d93b)"><g clip-path="url(#6044f52677)"><path fill="#93e85f" d="M 0.484375 0 L 29.515625 0 L 29.515625 29.03125 L 0.484375 29.03125 Z M 0.484375 0 " fill-opacity="1" fill-rule="nonzero"/></g></g></g></g></g></g><g clip-path="url(#99b3f7bbe7)"><path fill="#000000" d="M 8.25 9.277344 L 5.089844 9.277344 C 4.496094 9.277344 4.015625 8.792969 4.015625 8.199219 L 4.015625 6.488281 C 4.015625 5.890625 4.496094 5.410156 5.089844 5.410156 L 8.25 5.410156 C 8.839844 5.410156 9.320312 5.890625 9.320312 6.488281 L 9.320312 8.199219 C 9.320312 8.792969 8.839844 9.277344 8.25 9.277344 Z M 5.089844 5.902344 C 4.765625 5.902344 4.507812 6.164062 4.507812 6.488281 L 4.507812 8.199219 C 4.507812 8.523438 4.765625 8.785156 5.089844 8.785156 L 8.25 8.785156 C 8.570312 8.785156 8.828125 8.523438 8.828125 8.199219 L 8.828125 6.488281 C 8.828125 6.164062 8.570312 5.902344 8.25 5.902344 Z M 5.089844 5.902344 " fill-opacity="1" fill-rule="nonzero"/></g><path fill="#000000" d="M 21.425781 6.539062 L 10.195312 6.539062 C 10.058594 6.539062 9.949219 6.429688 9.949219 6.292969 C 9.949219 6.15625 10.058594 6.042969 10.195312 6.042969 L 21.425781 6.042969 C 21.5625 6.042969 21.671875 6.15625 21.671875 6.292969 C 21.671875 6.429688 21.5625 6.539062 21.425781 6.539062 Z M 21.425781 6.539062 " fill-opacity="1" fill-rule="nonzero"/><path fill="#000000" d="M 21.425781 8.640625 L 10.195312 8.640625 C 10.058594 8.640625 9.949219 8.53125 9.949219 8.394531 C 9.949219 8.257812 10.058594 8.148438 10.195312 8.148438 L 21.425781 8.148438 C 21.5625 8.148438 21.671875 8.257812 21.671875 8.394531 C 21.671875 8.53125 21.5625 8.640625 21.425781 8.640625 Z M 21.425781 8.640625 " fill-opacity="1" fill-rule="nonzero"/><g clip-path="url(#ba16e59105)"><path fill="#000000" d="M 8.25 14.460938 L 5.089844 14.460938 C 4.496094 14.460938 4.015625 13.976562 4.015625 13.382812 L 4.015625 11.671875 C 4.015625 11.074219 4.496094 10.589844 5.089844 10.589844 L 8.25 10.589844 C 8.839844 10.589844 9.320312 11.074219 9.320312 11.671875 L 9.320312 13.382812 C 9.320312 13.976562 8.839844 14.460938 8.25 14.460938 Z M 5.089844 11.085938 C 4.765625 11.085938 4.507812 11.347656 4.507812 11.671875 L 4.507812 13.382812 C 4.507812 13.703125 4.765625 13.964844 5.089844 13.964844 L 8.25 13.964844 C 8.570312 13.964844 8.828125 13.703125 8.828125 13.382812 L 8.828125 11.671875 C 8.828125 11.347656 8.570312 11.085938 8.25 11.085938 Z M 5.089844 11.085938 " fill-opacity="1" fill-rule="nonzero"/></g><path fill="#000000" d="M 16.65625 11.722656 L 10.195312 11.722656 C 10.058594 11.722656 9.949219 11.609375 9.949219 11.476562 C 9.949219 11.339844 10.058594 11.226562 10.195312 11.226562 L 16.65625 11.226562 C 16.789062 11.226562 16.902344 11.339844 16.902344 11.476562 C 16.902344 11.609375 16.789062 11.722656 16.65625 11.722656 Z M 16.65625 11.722656 " fill-opacity="1" fill-rule="nonzero"/><path fill="#000000" d="M 15.253906 13.824219 L 10.195312 13.824219 C 10.058594 13.824219 9.949219 13.714844 9.949219 13.578125 C 9.949219 13.441406 10.058594 13.332031 10.195312 13.332031 L 15.253906 13.332031 C 15.390625 13.332031 15.5 13.441406 15.5 13.578125 C 15.5 13.714844 15.390625 13.824219 15.253906 13.824219 Z M 15.253906 13.824219 " fill-opacity="1" fill-rule="nonzero"/><g clip-path="url(#ac7a9004a1)"><path fill="#000000" d="M 8.25 19.644531 L 5.089844 19.644531 C 4.496094 19.644531 4.015625 19.160156 4.015625 18.566406 L 4.015625 16.855469 C 4.015625 16.257812 4.496094 15.773438 5.089844 15.773438 L 8.25 15.773438 C 8.839844 15.773438 9.320312 16.257812 9.320312 16.855469 L 9.320312 18.566406 C 9.320312 19.160156 8.839844 19.644531 8.25 19.644531 Z M 5.089844 16.269531 C 4.765625 16.269531 4.507812 16.53125 4.507812 16.855469 L 4.507812 18.566406 C 4.507812 18.886719 4.765625 19.148438 5.089844 19.148438 L 8.25 19.148438 C 8.570312 19.148438 8.828125 18.886719 8.828125 18.566406 L 8.828125 16.855469 C 8.828125 16.53125 8.570312 16.269531 8.25 16.269531 Z M 5.089844 16.269531 " fill-opacity="1" fill-rule="nonzero"/></g><path fill="#000000" d="M 15.265625 16.90625 L 10.195312 16.90625 C 10.058594 16.90625 9.949219 16.792969 9.949219 16.660156 C 9.949219 16.523438 10.058594 16.410156 10.195312 16.410156 L 15.265625 16.410156 C 15.402344 16.410156 15.511719 16.523438 15.511719 16.660156 C 15.511719 16.792969 15.402344 16.90625 15.265625 16.90625 Z M 15.265625 16.90625 " fill-opacity="1" fill-rule="nonzero"/><path fill="#000000" d="M 16.710938 19.007812 L 10.195312 19.007812 C 10.058594 19.007812 9.949219 18.898438 9.949219 18.761719 C 9.949219 18.625 10.058594 18.515625 10.195312 18.515625 L 16.710938 18.515625 C 16.847656 18.515625 16.957031 18.625 16.957031 18.761719 C 16.957031 18.898438 16.847656 19.007812 16.710938 19.007812 Z M 16.710938 19.007812 " fill-opacity="1" fill-rule="nonzero"/><g clip-path="url(#11ee695915)"><path fill="#000000" d="M 20.789062 19.441406 C 20.414062 19.441406 20.039062 19.390625 19.664062 19.292969 C 18.550781 18.992188 17.621094 18.273438 17.042969 17.269531 C 16.46875 16.265625 16.316406 15.09375 16.613281 13.972656 C 16.910156 12.855469 17.625 11.917969 18.625 11.339844 C 20.6875 10.140625 23.332031 10.855469 24.523438 12.925781 C 25.710938 15 25.003906 17.660156 22.941406 18.859375 C 22.277344 19.242188 21.539062 19.441406 20.789062 19.441406 Z M 20.777344 11.25 C 20.128906 11.25 19.472656 11.417969 18.871094 11.765625 C 17.984375 12.28125 17.351562 13.109375 17.085938 14.101562 C 16.824219 15.09375 16.957031 16.132812 17.46875 17.019531 C 17.980469 17.910156 18.804688 18.546875 19.792969 18.8125 C 20.78125 19.078125 21.8125 18.941406 22.695312 18.429688 C 24.523438 17.367188 25.152344 15.011719 24.097656 13.171875 C 23.390625 11.941406 22.101562 11.25 20.777344 11.25 Z M 20.777344 11.25 " fill-opacity="1" fill-rule="nonzero"/></g><g clip-path="url(#968b7ddad2)"><path fill="#000000" d="M 25.496094 23.550781 C 25.410156 23.550781 25.328125 23.507812 25.28125 23.429688 L 22.605469 18.765625 C 22.539062 18.648438 22.578125 18.496094 22.695312 18.429688 C 22.8125 18.359375 22.964844 18.402344 23.03125 18.519531 L 25.707031 23.179688 C 25.777344 23.300781 25.734375 23.449219 25.617188 23.519531 C 25.578125 23.542969 25.539062 23.550781 25.496094 23.550781 Z M 25.496094 23.550781 " fill-opacity="1" fill-rule="nonzero"/></g></svg>