<svg xmlns="http://www.w3.org/2000/svg" xmlns:xlink="http://www.w3.org/1999/xlink" width="40" zoomAndPan="magnify" viewBox="0 0 30 30.000001" height="40" preserveAspectRatio="xMidYMid meet" version="1.0"><defs><clipPath id="e2044fed70"><path d="M 0.484375 0 L 29.515625 0 L 29.515625 29.03125 L 0.484375 29.03125 Z M 0.484375 0 " clip-rule="nonzero"/></clipPath><clipPath id="bd6803eca5"><path d="M 1.933594 0 L 28.066406 0 C 28.867188 0 29.515625 0.648438 29.515625 1.453125 L 29.515625 27.582031 C 29.515625 28.382812 28.867188 29.03125 28.066406 29.03125 L 1.933594 29.03125 C 1.132812 29.03125 0.484375 28.382812 0.484375 27.582031 L 0.484375 1.453125 C 0.484375 0.648438 1.132812 0 1.933594 0 Z M 1.933594 0 " clip-rule="nonzero"/></clipPath><clipPath id="afbc979aa6"><path d="M 0.484375 0 L 29.515625 0 L 29.515625 29.03125 L 0.484375 29.03125 Z M 0.484375 0 " clip-rule="nonzero"/></clipPath><clipPath id="cff2ad623f"><path d="M 1.933594 0 L 28.066406 0 C 28.867188 0 29.515625 0.648438 29.515625 1.453125 L 29.515625 27.582031 C 29.515625 28.382812 28.867188 29.03125 28.066406 29.03125 L 1.933594 29.03125 C 1.132812 29.03125 0.484375 28.382812 0.484375 27.582031 L 0.484375 1.453125 C 0.484375 0.648438 1.132812 0 1.933594 0 Z M 1.933594 0 " clip-rule="nonzero"/></clipPath><clipPath id="2d2e27aecd"><rect x="0" width="30" y="0" height="30"/></clipPath><clipPath id="f87686f34b"><path d="M 13 4.199219 L 18 4.199219 L 18 9 L 13 9 Z M 13 4.199219 " clip-rule="nonzero"/></clipPath><clipPath id="0257453cbd"><path d="M 12 9 L 26.613281 9 L 26.613281 23.796875 L 12 23.796875 Z M 12 9 " clip-rule="nonzero"/></clipPath><clipPath id="a07b585ccc"><path d="M 10 17 L 17 17 L 17 23.796875 L 10 23.796875 Z M 10 17 " clip-rule="nonzero"/></clipPath></defs><g clip-path="url(#e2044fed70)"><g clip-path="url(#bd6803eca5)"><g transform="matrix(1, 0, 0, 1, 0, 0.000000000000005692)"><g clip-path="url(#2d2e27aecd)"><g clip-path="url(#afbc979aa6)"><g clip-path="url(#cff2ad623f)"><path fill="#93e85f" d="M 0.484375 0 L 29.515625 0 L 29.515625 29.03125 L 0.484375 29.03125 Z M 0.484375 0 " fill-opacity="1" fill-rule="nonzero"/></g></g></g></g></g></g><g clip-path="url(#f87686f34b)"><path fill="#000000" d="M 15.320312 4.257812 C 14.929688 4.277344 14.539062 4.40625 14.203125 4.65625 C 13.304688 5.316406 13.117188 6.578125 13.785156 7.464844 C 14.457031 8.359375 15.726562 8.542969 16.625 7.878906 C 17.523438 7.21875 17.710938 5.960938 17.039062 5.066406 C 16.621094 4.511719 15.96875 4.230469 15.320312 4.257812 Z M 15.320312 4.257812 " fill-opacity="1" fill-rule="evenodd"/></g><path fill="#000000" d="M 9.945312 6.535156 C 9.84375 6.539062 9.738281 6.5625 9.628906 6.605469 L 6.855469 7.648438 C 5.742188 8.058594 6.375 9.707031 7.480469 9.28125 L 9.800781 8.410156 L 11.070312 9.347656 L 8.417969 12.390625 C 8.085938 12.769531 7.996094 13.40625 8.386719 13.726562 L 10.957031 15.847656 L 8.65625 18.488281 C 7.792969 19.515625 9.316406 20.820312 10.214844 19.824219 L 13.207031 16.394531 C 13.589844 15.960938 13.535156 15.304688 13.089844 14.9375 L 11.328125 13.488281 L 12.234375 12.449219 C 12.164062 12.335938 12.101562 12.21875 12.054688 12.09375 C 11.894531 11.683594 11.867188 11.210938 12.046875 10.753906 C 12.226562 10.292969 12.640625 9.882812 13.152344 9.695312 L 14.035156 9.363281 L 10.46875 6.722656 C 10.28125 6.585938 10.117188 6.53125 9.945312 6.535156 Z M 9.945312 6.535156 " fill-opacity="1" fill-rule="evenodd"/><path fill="#000000" d="M 7.992188 14.179688 L 4.261719 18.460938 C 3.390625 19.488281 4.921875 20.804688 5.824219 19.800781 L 9.582031 15.492188 Z M 7.992188 14.179688 " fill-opacity="1" fill-rule="evenodd"/><path fill="#000000" d="M 21.960938 7.226562 C 21.574219 7.246094 21.183594 7.375 20.847656 7.625 C 19.949219 8.285156 19.761719 9.542969 20.429688 10.433594 C 21.097656 11.328125 22.371094 11.511719 23.269531 10.847656 C 24.167969 10.1875 24.355469 8.929688 23.683594 8.035156 C 23.265625 7.480469 22.613281 7.199219 21.960938 7.226562 Z M 21.960938 7.226562 " fill-opacity="1" fill-rule="evenodd"/><g clip-path="url(#0257453cbd)"><path fill="#000000" d="M 16.589844 9.503906 C 16.488281 9.507812 16.382812 9.53125 16.269531 9.574219 L 13.496094 10.617188 C 12.386719 11.027344 13.019531 12.675781 14.125 12.25 L 16.445312 11.378906 L 17.714844 12.316406 L 15.0625 15.359375 C 14.730469 15.738281 14.640625 16.375 15.03125 16.695312 L 17.601562 18.816406 L 15.300781 21.457031 C 14.4375 22.484375 15.960938 23.789062 16.859375 22.792969 L 19.851562 19.363281 C 20.234375 18.929688 20.179688 18.273438 19.730469 17.90625 L 17.972656 16.457031 L 20.066406 14.058594 L 21.851562 15.375 C 22.089844 15.554688 22.40625 15.597656 22.6875 15.492188 L 25.457031 14.449219 C 26.601562 14.058594 25.953125 12.355469 24.835938 12.816406 L 22.511719 13.6875 L 17.109375 9.695312 C 16.925781 9.554688 16.761719 9.5 16.589844 9.503906 Z M 16.589844 9.503906 " fill-opacity="1" fill-rule="evenodd"/></g><g clip-path="url(#a07b585ccc)"><path fill="#000000" d="M 14.636719 17.148438 L 10.90625 21.429688 C 10.035156 22.457031 11.566406 23.773438 12.46875 22.769531 L 16.226562 18.460938 Z M 14.636719 17.148438 " fill-opacity="1" fill-rule="evenodd"/></g></svg>