<svg xmlns="http://www.w3.org/2000/svg" xmlns:xlink="http://www.w3.org/1999/xlink" width="40" zoomAndPan="magnify" viewBox="0 0 30 30.000001" height="40" preserveAspectRatio="xMidYMid meet" version="1.0"><defs><clipPath id="0e4c00b39b"><path d="M 0.484375 0 L 29.515625 0 L 29.515625 29.03125 L 0.484375 29.03125 Z M 0.484375 0 " clip-rule="nonzero"/></clipPath><clipPath id="e09adb80d1"><path d="M 1.933594 0 L 28.066406 0 C 28.867188 0 29.515625 0.648438 29.515625 1.453125 L 29.515625 27.582031 C 29.515625 28.382812 28.867188 29.03125 28.066406 29.03125 L 1.933594 29.03125 C 1.132812 29.03125 0.484375 28.382812 0.484375 27.582031 L 0.484375 1.453125 C 0.484375 0.648438 1.132812 0 1.933594 0 Z M 1.933594 0 " clip-rule="nonzero"/></clipPath><clipPath id="3e7c790558"><path d="M 0.484375 0 L 29.515625 0 L 29.515625 29.03125 L 0.484375 29.03125 Z M 0.484375 0 " clip-rule="nonzero"/></clipPath><clipPath id="cc1ba4c865"><path d="M 1.933594 0 L 28.066406 0 C 28.867188 0 29.515625 0.648438 29.515625 1.453125 L 29.515625 27.582031 C 29.515625 28.382812 28.867188 29.03125 28.066406 29.03125 L 1.933594 29.03125 C 1.132812 29.03125 0.484375 28.382812 0.484375 27.582031 L 0.484375 1.453125 C 0.484375 0.648438 1.132812 0 1.933594 0 Z M 1.933594 0 " clip-rule="nonzero"/></clipPath><clipPath id="707608c040"><rect x="0" width="30" y="0" height="30"/></clipPath><clipPath id="c9bc91421e"><path d="M 8 4.574219 L 13 4.574219 L 13 11 L 8 11 Z M 8 4.574219 " clip-rule="nonzero"/></clipPath><clipPath id="c51fbe0549"><path d="M 17 4.574219 L 21 4.574219 L 21 11 L 17 11 Z M 17 4.574219 " clip-rule="nonzero"/></clipPath><clipPath id="d986714764"><path d="M 5.054688 10 L 10 10 L 10 16 L 5.054688 16 Z M 5.054688 10 " clip-rule="nonzero"/></clipPath><clipPath id="f9828e5acb"><path d="M 5.054688 19 L 10 19 L 10 24.167969 L 5.054688 24.167969 Z M 5.054688 19 " clip-rule="nonzero"/></clipPath><clipPath id="36f601c8c5"><path d="M 20 19 L 24 19 L 24 24.167969 L 20 24.167969 Z M 20 19 " clip-rule="nonzero"/></clipPath></defs><g clip-path="url(#0e4c00b39b)"><g clip-path="url(#e09adb80d1)"><g transform="matrix(1, 0, 0, 1, 0, 0.000000000000005692)"><g clip-path="url(#707608c040)"><g clip-path="url(#3e7c790558)"><g clip-path="url(#cc1ba4c865)"><path fill="#93e85f" d="M 0.484375 0 L 29.515625 0 L 29.515625 29.03125 L 0.484375 29.03125 Z M 0.484375 0 " fill-opacity="1" fill-rule="nonzero"/></g></g></g></g></g></g><path fill="#000000" d="M 14.847656 23.597656 C 11.433594 23.597656 8.644531 20.808594 8.644531 17.390625 C 8.644531 15.191406 9.816406 13.148438 11.695312 12.039062 C 11.660156 11.832031 11.636719 11.625 11.636719 11.417969 C 11.636719 9.640625 13.082031 8.195312 14.847656 8.195312 C 16.625 8.195312 18.070312 9.640625 18.070312 11.417969 C 18.070312 11.625 18.046875 11.832031 18.003906 12.039062 C 19.894531 13.148438 21.0625 15.191406 21.0625 17.390625 C 21.0625 20.808594 18.277344 23.597656 14.847656 23.597656 Z M 14.847656 8.65625 C 13.335938 8.65625 12.097656 9.894531 12.097656 11.417969 C 12.097656 11.648438 12.132812 11.875 12.175781 12.09375 C 12.210938 12.199219 12.164062 12.300781 12.074219 12.359375 C 10.238281 13.367188 9.105469 15.292969 9.105469 17.382812 C 9.105469 20.558594 11.683594 23.136719 14.847656 23.136719 C 18.027344 23.136719 20.605469 20.558594 20.605469 17.382812 C 20.605469 15.292969 19.457031 13.367188 17.636719 12.359375 C 17.542969 12.300781 17.496094 12.199219 17.519531 12.09375 C 17.578125 11.875 17.601562 11.648438 17.601562 11.417969 C 17.613281 9.894531 16.375 8.65625 14.847656 8.65625 Z M 14.847656 8.65625 " fill-opacity="1" fill-rule="evenodd"/><g clip-path="url(#c9bc91421e)"><path fill="#000000" d="M 12.328125 10.054688 C 12.28125 10.054688 12.234375 10.042969 12.199219 10.019531 L 8.933594 7.886719 C 8.851562 7.839844 8.804688 7.738281 8.828125 7.644531 L 9.609375 4.765625 C 9.644531 4.640625 9.757812 4.574219 9.882812 4.605469 C 10.011719 4.640625 10.078125 4.765625 10.042969 4.882812 L 9.320312 7.601562 L 12.453125 9.628906 C 12.554688 9.699219 12.589844 9.847656 12.519531 9.949219 C 12.476562 10.019531 12.40625 10.054688 12.328125 10.054688 Z M 12.328125 10.054688 " fill-opacity="1" fill-rule="evenodd"/></g><g clip-path="url(#c51fbe0549)"><path fill="#000000" d="M 17.382812 10.054688 C 17.304688 10.054688 17.234375 10.019531 17.1875 9.949219 C 17.121094 9.847656 17.152344 9.710938 17.257812 9.640625 L 20.386719 7.601562 L 19.664062 4.882812 C 19.628906 4.757812 19.699219 4.628906 19.824219 4.605469 C 19.941406 4.574219 20.066406 4.640625 20.101562 4.765625 L 20.871094 7.644531 C 20.902344 7.738281 20.859375 7.839844 20.777344 7.886719 L 17.507812 10.019531 C 17.464844 10.042969 17.429688 10.054688 17.382812 10.054688 Z M 17.382812 10.054688 " fill-opacity="1" fill-rule="evenodd"/></g><g clip-path="url(#d986714764)"><path fill="#000000" d="M 9.367188 15.226562 C 9.34375 15.226562 9.3125 15.226562 9.277344 15.214844 L 6.089844 13.828125 C 5.972656 13.769531 5.917969 13.644531 5.960938 13.527344 L 7.121094 10.648438 C 7.167969 10.535156 7.292969 10.476562 7.417969 10.523438 C 7.535156 10.570312 7.589844 10.707031 7.542969 10.820312 L 6.46875 13.492188 L 9.460938 14.789062 C 9.574219 14.847656 9.632812 14.972656 9.585938 15.085938 C 9.539062 15.179688 9.460938 15.226562 9.367188 15.226562 Z M 9.367188 15.226562 " fill-opacity="1" fill-rule="evenodd"/></g><path fill="#000000" d="M 20.339844 15.226562 C 20.25 15.226562 20.160156 15.179688 20.125 15.085938 C 20.078125 14.972656 20.136719 14.835938 20.25 14.789062 L 23.230469 13.492188 L 22.164062 10.820312 C 22.117188 10.707031 22.175781 10.570312 22.292969 10.523438 C 22.40625 10.476562 22.542969 10.535156 22.589844 10.648438 L 23.746094 13.527344 C 23.792969 13.644531 23.734375 13.78125 23.621094 13.828125 L 20.433594 15.214844 C 20.398438 15.226562 20.363281 15.226562 20.339844 15.226562 Z M 20.339844 15.226562 " fill-opacity="1" fill-rule="evenodd"/><g clip-path="url(#f9828e5acb)"><path fill="#000000" d="M 7.328125 24.167969 C 7.234375 24.167969 7.15625 24.113281 7.121094 24.019531 L 5.960938 21.140625 C 5.917969 21.027344 5.972656 20.902344 6.089844 20.855469 L 9.242188 19.480469 C 9.355469 19.421875 9.492188 19.480469 9.539062 19.59375 C 9.597656 19.707031 9.539062 19.847656 9.425781 19.902344 L 6.46875 21.1875 L 7.542969 23.847656 C 7.589844 23.964844 7.535156 24.101562 7.417969 24.144531 C 7.382812 24.15625 7.359375 24.167969 7.328125 24.167969 Z M 7.328125 24.167969 " fill-opacity="1" fill-rule="evenodd"/></g><g clip-path="url(#36f601c8c5)"><path fill="#000000" d="M 22.382812 24.167969 C 22.347656 24.167969 22.324219 24.15625 22.292969 24.144531 C 22.175781 24.101562 22.117188 23.972656 22.164062 23.847656 L 23.230469 21.1875 L 20.285156 19.902344 C 20.167969 19.847656 20.113281 19.707031 20.160156 19.59375 C 20.214844 19.480469 20.351562 19.433594 20.46875 19.480469 L 23.621094 20.855469 C 23.734375 20.902344 23.792969 21.027344 23.746094 21.152344 L 22.589844 24.019531 C 22.554688 24.113281 22.472656 24.167969 22.382812 24.167969 Z M 22.382812 24.167969 " fill-opacity="1" fill-rule="evenodd"/></g><path fill="#000000" d="M 19.5625 21.300781 C 19.515625 21.300781 19.457031 21.28125 19.414062 21.246094 C 18.164062 20.109375 16.535156 19.492188 14.847656 19.492188 C 13.164062 19.492188 11.546875 20.109375 10.296875 21.246094 C 10.203125 21.324219 10.054688 21.3125 9.976562 21.222656 C 9.882812 21.128906 9.894531 20.980469 9.988281 20.902344 C 11.328125 19.699219 13.046875 19.03125 14.847656 19.03125 C 16.648438 19.03125 18.382812 19.699219 19.722656 20.902344 C 19.8125 20.980469 19.824219 21.128906 19.734375 21.222656 C 19.6875 21.28125 19.628906 21.300781 19.5625 21.300781 Z M 19.5625 21.300781 " fill-opacity="1" fill-rule="evenodd"/><path fill="#000000" d="M 9.3125 19.878906 C 9.265625 19.878906 9.21875 19.859375 9.171875 19.824219 C 9.070312 19.753906 9.058594 19.605469 9.136719 19.503906 C 10.527344 17.738281 12.601562 16.714844 14.847656 16.714844 C 17.097656 16.714844 19.183594 17.738281 20.570312 19.503906 C 20.652344 19.605469 20.628906 19.753906 20.535156 19.824219 C 20.433594 19.902344 20.285156 19.890625 20.203125 19.789062 C 18.910156 18.125 16.960938 17.175781 14.847656 17.175781 C 12.75 17.175781 10.789062 18.125 9.492188 19.789062 C 9.449219 19.847656 9.378906 19.878906 9.3125 19.878906 Z M 9.3125 19.878906 " fill-opacity="1" fill-rule="evenodd"/><path fill="#000000" d="M 20.8125 18.160156 C 20.730469 18.160156 20.664062 18.125 20.617188 18.058594 C 19.355469 16.0625 17.210938 14.871094 14.847656 14.871094 C 12.5 14.871094 10.34375 16.0625 9.09375 18.058594 C 9.023438 18.160156 8.886719 18.195312 8.773438 18.125 C 8.667969 18.058594 8.632812 17.921875 8.703125 17.804688 C 10.042969 15.683594 12.335938 14.410156 14.847656 14.410156 C 17.359375 14.410156 19.664062 15.683594 21.007812 17.804688 C 21.0625 17.921875 21.042969 18.058594 20.925781 18.125 C 20.890625 18.148438 20.847656 18.160156 20.8125 18.160156 Z M 20.8125 18.160156 " fill-opacity="1" fill-rule="evenodd"/><path fill="#000000" d="M 13.597656 11.027344 C 13.210938 11.027344 12.898438 10.707031 12.898438 10.316406 C 12.898438 9.925781 13.210938 9.605469 13.597656 9.605469 C 13.988281 9.605469 14.308594 9.925781 14.308594 10.316406 C 14.308594 10.707031 13.988281 11.027344 13.597656 11.027344 Z M 13.597656 10.066406 C 13.460938 10.066406 13.359375 10.179688 13.359375 10.316406 C 13.359375 10.453125 13.460938 10.570312 13.597656 10.570312 C 13.738281 10.570312 13.851562 10.453125 13.851562 10.316406 C 13.851562 10.179688 13.738281 10.066406 13.597656 10.066406 Z M 13.597656 10.066406 " fill-opacity="1" fill-rule="evenodd"/><path fill="#000000" d="M 16.109375 11.027344 C 15.71875 11.027344 15.398438 10.707031 15.398438 10.316406 C 15.398438 9.925781 15.71875 9.605469 16.109375 9.605469 C 16.5 9.605469 16.808594 9.925781 16.808594 10.316406 C 16.808594 10.707031 16.5 11.027344 16.109375 11.027344 Z M 16.109375 10.066406 C 15.972656 10.066406 15.859375 10.179688 15.859375 10.316406 C 15.859375 10.453125 15.972656 10.570312 16.109375 10.570312 C 16.25 10.570312 16.351562 10.453125 16.351562 10.316406 C 16.351562 10.179688 16.25 10.066406 16.109375 10.066406 Z M 16.109375 10.066406 " fill-opacity="1" fill-rule="evenodd"/></svg>