<svg xmlns="http://www.w3.org/2000/svg" xmlns:xlink="http://www.w3.org/1999/xlink" width="40" zoomAndPan="magnify" viewBox="0 0 30 30.000001" height="40" preserveAspectRatio="xMidYMid meet" version="1.0"><defs><clipPath id="636d9c74d8"><path d="M 0.484375 0 L 29.515625 0 L 29.515625 29.03125 L 0.484375 29.03125 Z M 0.484375 0 " clip-rule="nonzero"/></clipPath><clipPath id="22b21f3c1d"><path d="M 1.933594 0 L 28.066406 0 C 28.867188 0 29.515625 0.648438 29.515625 1.453125 L 29.515625 27.582031 C 29.515625 28.382812 28.867188 29.03125 28.066406 29.03125 L 1.933594 29.03125 C 1.132812 29.03125 0.484375 28.382812 0.484375 27.582031 L 0.484375 1.453125 C 0.484375 0.648438 1.132812 0 1.933594 0 Z M 1.933594 0 " clip-rule="nonzero"/></clipPath><clipPath id="c42f954610"><path d="M 0.484375 0 L 29.515625 0 L 29.515625 29.03125 L 0.484375 29.03125 Z M 0.484375 0 " clip-rule="nonzero"/></clipPath><clipPath id="c3e06c6add"><path d="M 1.933594 0 L 28.066406 0 C 28.867188 0 29.515625 0.648438 29.515625 1.453125 L 29.515625 27.582031 C 29.515625 28.382812 28.867188 29.03125 28.066406 29.03125 L 1.933594 29.03125 C 1.132812 29.03125 0.484375 28.382812 0.484375 27.582031 L 0.484375 1.453125 C 0.484375 0.648438 1.132812 0 1.933594 0 Z M 1.933594 0 " clip-rule="nonzero"/></clipPath><clipPath id="94d6bba35d"><rect x="0" width="30" y="0" height="30"/></clipPath><clipPath id="fc190d85e3"><path d="M 7.09375 16.976562 L 8.527344 16.976562 L 8.527344 24.28125 L 7.09375 24.28125 Z M 7.09375 16.976562 " clip-rule="nonzero"/></clipPath><clipPath id="eb5139d6f6"><path d="M 11.824219 15.78125 L 13.257812 15.78125 L 13.257812 24.28125 L 11.824219 24.28125 Z M 11.824219 15.78125 " clip-rule="nonzero"/></clipPath><clipPath id="95b4c3ec06"><path d="M 16.554688 13.871094 L 17.992188 13.871094 L 17.992188 24.28125 L 16.554688 24.28125 Z M 16.554688 13.871094 " clip-rule="nonzero"/></clipPath><clipPath id="68a187683f"><path d="M 21.285156 11.367188 L 22.722656 11.367188 L 22.722656 24.28125 L 21.285156 24.28125 Z M 21.285156 11.367188 " clip-rule="nonzero"/></clipPath><clipPath id="97d261600a"><path d="M 3.746094 4.683594 L 26.246094 4.683594 L 26.246094 17 L 3.746094 17 Z M 3.746094 4.683594 " clip-rule="nonzero"/></clipPath><clipPath id="5a21cc5d77"><path d="M 19.425781 4.683594 L 26.214844 4.683594 L 26.214844 11.425781 L 19.425781 11.425781 Z M 19.425781 4.683594 " clip-rule="nonzero"/></clipPath></defs><g clip-path="url(#636d9c74d8)"><g clip-path="url(#22b21f3c1d)"><g transform="matrix(1, 0, 0, 1, 0, 0.000000000000005692)"><g clip-path="url(#94d6bba35d)"><g clip-path="url(#c42f954610)"><g clip-path="url(#c3e06c6add)"><path fill="#93e85f" d="M 0.484375 0 L 29.515625 0 L 29.515625 29.03125 L 0.484375 29.03125 Z M 0.484375 0 " fill-opacity="1" fill-rule="nonzero"/></g></g></g></g></g></g><g clip-path="url(#fc190d85e3)"><path fill="#191716" d="M 8.5 17.679688 L 8.5 23.59375 C 8.5 23.972656 8.191406 24.28125 7.8125 24.28125 C 7.429688 24.28125 7.121094 23.972656 7.121094 23.59375 L 7.121094 17.679688 C 7.121094 17.300781 7.429688 16.992188 7.8125 16.992188 C 8.191406 16.992188 8.5 17.300781 8.5 17.679688 " fill-opacity="1" fill-rule="evenodd"/></g><g clip-path="url(#eb5139d6f6)"><path fill="#191716" d="M 13.242188 16.488281 L 13.242188 23.59375 C 13.242188 23.972656 12.933594 24.28125 12.550781 24.28125 C 12.171875 24.28125 11.859375 23.972656 11.859375 23.59375 L 11.859375 16.488281 C 11.859375 16.109375 12.171875 15.800781 12.550781 15.800781 C 12.933594 15.800781 13.242188 16.109375 13.242188 16.488281 " fill-opacity="1" fill-rule="evenodd"/></g><g clip-path="url(#95b4c3ec06)"><path fill="#191716" d="M 17.980469 14.585938 L 17.980469 23.59375 C 17.980469 23.972656 17.671875 24.28125 17.289062 24.28125 C 16.910156 24.28125 16.601562 23.972656 16.601562 23.59375 L 16.601562 14.585938 C 16.601562 14.203125 16.910156 13.898438 17.289062 13.898438 C 17.671875 13.898438 17.980469 14.203125 17.980469 14.585938 " fill-opacity="1" fill-rule="evenodd"/></g><g clip-path="url(#68a187683f)"><path fill="#191716" d="M 22.71875 12.097656 L 22.71875 23.59375 C 22.71875 23.972656 22.410156 24.28125 22.03125 24.28125 C 21.648438 24.28125 21.339844 23.972656 21.339844 23.59375 L 21.339844 12.097656 C 21.339844 11.71875 21.648438 11.410156 22.03125 11.410156 C 22.410156 11.410156 22.71875 11.71875 22.71875 12.097656 " fill-opacity="1" fill-rule="evenodd"/></g><g clip-path="url(#97d261600a)"><path fill="#191716" d="M 4.457031 16.242188 C 4.078125 16.222656 3.78125 15.902344 3.800781 15.523438 C 3.816406 15.148438 4.136719 14.851562 4.515625 14.867188 C 5.140625 14.894531 5.804688 14.859375 6.421875 14.804688 C 8.070312 14.664062 9.714844 14.339844 11.300781 13.878906 C 16.632812 12.332031 21.222656 9.238281 24.832031 5.039062 C 25.078125 4.75 25.515625 4.71875 25.800781 4.964844 C 26.089844 5.207031 26.125 5.644531 25.878906 5.929688 C 22.097656 10.332031 17.28125 13.566406 11.6875 15.191406 C 10.015625 15.679688 8.277344 16.019531 6.539062 16.171875 C 6.035156 16.214844 5.53125 16.242188 5.03125 16.25 C 4.839844 16.25 4.644531 16.25 4.457031 16.242188 " fill-opacity="1" fill-rule="evenodd"/></g><g clip-path="url(#5a21cc5d77)"><path fill="#191716" d="M 19.804688 4.683594 C 19.617188 4.683594 19.460938 4.835938 19.460938 5.027344 C 19.460938 5.265625 25.832031 11.414062 25.871094 11.414062 C 26.0625 11.414062 26.214844 11.261719 26.214844 11.074219 L 26.214844 5.058594 C 26.214844 5.046875 26.21875 5.035156 26.21875 5.027344 C 26.21875 4.835938 26.0625 4.683594 25.871094 4.683594 L 19.804688 4.683594 " fill-opacity="1" fill-rule="nonzero"/></g></svg>