<svg xmlns="http://www.w3.org/2000/svg" xmlns:xlink="http://www.w3.org/1999/xlink" width="40" zoomAndPan="magnify" viewBox="0 0 30 30.000001" height="40" preserveAspectRatio="xMidYMid meet" version="1.0"><defs><clipPath id="7730aece5b"><path d="M 0.484375 0 L 29.515625 0 L 29.515625 29.03125 L 0.484375 29.03125 Z M 0.484375 0 " clip-rule="nonzero"/></clipPath><clipPath id="5e83c768d6"><path d="M 0.484375 0 L 29.515625 0 L 29.515625 29.03125 L 0.484375 29.03125 Z M 0.484375 0 " clip-rule="nonzero"/></clipPath><clipPath id="27f02eede6"><path d="M 1.933594 0 L 28.066406 0 C 28.867188 0 29.515625 0.648438 29.515625 1.453125 L 29.515625 27.582031 C 29.515625 28.382812 28.867188 29.03125 28.066406 29.03125 L 1.933594 29.03125 C 1.132812 29.03125 0.484375 28.382812 0.484375 27.582031 L 0.484375 1.453125 C 0.484375 0.648438 1.132812 0 1.933594 0 Z M 1.933594 0 " clip-rule="nonzero"/></clipPath><clipPath id="c67b8231ba"><path d="M 0.484375 0 L 29.515625 0 L 29.515625 29.03125 L 0.484375 29.03125 Z M 0.484375 0 " clip-rule="nonzero"/></clipPath><clipPath id="7495b9f2ed"><path d="M 1.933594 0 L 28.066406 0 C 28.867188 0 29.515625 0.648438 29.515625 1.453125 L 29.515625 27.582031 C 29.515625 28.382812 28.867188 29.03125 28.066406 29.03125 L 1.933594 29.03125 C 1.132812 29.03125 0.484375 28.382812 0.484375 27.582031 L 0.484375 1.453125 C 0.484375 0.648438 1.132812 0 1.933594 0 Z M 1.933594 0 " clip-rule="nonzero"/></clipPath><clipPath id="8e6c43e075"><rect x="0" width="30" y="0" height="30"/></clipPath><clipPath id="9900109090"><path d="M 4.59375 5 L 25.640625 5 L 25.640625 26.128906 L 4.59375 26.128906 Z M 4.59375 5 " clip-rule="nonzero"/></clipPath><clipPath id="d2e52c0d2d"><path d="M 13 2.902344 L 23 2.902344 L 23 13 L 13 13 Z M 13 2.902344 " clip-rule="nonzero"/></clipPath></defs><g clip-path="url(#7730aece5b)"><path fill="#ffffff" d="M 0.484375 0 L 29.515625 0 L 29.515625 29.03125 L 0.484375 29.03125 Z M 0.484375 0 " fill-opacity="1" fill-rule="nonzero"/><path fill="#ffffff" d="M 0.484375 0 L 29.515625 0 L 29.515625 29.03125 L 0.484375 29.03125 Z M 0.484375 0 " fill-opacity="1" fill-rule="nonzero"/></g><g clip-path="url(#5e83c768d6)"><g clip-path="url(#27f02eede6)"><g transform="matrix(1, 0, 0, 1, 0, 0.000000000000005692)"><g clip-path="url(#8e6c43e075)"><g clip-path="url(#c67b8231ba)"><g clip-path="url(#7495b9f2ed)"><path fill="#93e85f" d="M 0.484375 0 L 29.515625 0 L 29.515625 29.03125 L 0.484375 29.03125 Z M 0.484375 0 " fill-opacity="1" fill-rule="nonzero"/></g></g></g></g></g></g><g clip-path="url(#9900109090)"><path fill="#000000" d="M 25.382812 23.929688 L 20.160156 18.75 C 20.164062 18.75 20.164062 18.746094 20.167969 18.742188 C 20.917969 17.710938 21.417969 16.554688 21.648438 15.300781 C 21.875 14.089844 21.828125 12.820312 21.519531 11.636719 C 21.46875 11.445312 21.335938 11.292969 21.148438 11.21875 C 20.960938 11.144531 20.757812 11.160156 20.582031 11.265625 C 20.34375 11.410156 20.230469 11.683594 20.300781 11.949219 C 20.613281 13.15625 20.609375 14.4375 20.285156 15.648438 C 19.949219 16.894531 19.28125 18.039062 18.351562 18.953125 C 16.957031 20.320312 15.109375 21.078125 13.148438 21.078125 C 13.148438 21.078125 13.140625 21.078125 13.140625 21.078125 C 11.179688 21.078125 9.347656 20.328125 7.976562 18.964844 C 5.132812 16.144531 5.167969 11.539062 8.046875 8.707031 C 9.199219 7.570312 10.660156 6.859375 12.269531 6.644531 C 12.601562 6.601562 12.839844 6.308594 12.808594 5.972656 C 12.792969 5.804688 12.710938 5.652344 12.574219 5.542969 C 12.441406 5.4375 12.269531 5.390625 12.101562 5.414062 C 10.222656 5.667969 8.515625 6.503906 7.164062 7.832031 C 5.53125 9.4375 4.625 11.574219 4.605469 13.84375 C 4.59375 16.113281 5.46875 18.242188 7.082031 19.84375 C 8.527344 21.28125 10.453125 22.15625 12.503906 22.300781 C 12.710938 22.316406 12.917969 22.324219 13.125 22.324219 C 14.945312 22.324219 16.726562 21.757812 18.203125 20.695312 C 18.207031 20.691406 18.210938 20.691406 18.210938 20.691406 L 23.425781 25.859375 C 23.589844 26.023438 23.808594 26.113281 24.042969 26.113281 C 24.28125 26.117188 24.507812 26.027344 24.679688 25.859375 L 25.378906 25.167969 C 25.546875 25 25.636719 24.78125 25.640625 24.546875 C 25.636719 24.316406 25.546875 24.09375 25.382812 23.929688 Z M 25.382812 23.929688 " fill-opacity="1" fill-rule="nonzero"/></g><g clip-path="url(#d2e52c0d2d)"><path fill="#000000" d="M 22.433594 7.265625 L 21.917969 7.074219 C 21.523438 6.933594 21.148438 6.746094 20.792969 6.523438 C 20.449219 6.300781 20.121094 6.042969 19.828125 5.753906 C 19.535156 5.464844 19.273438 5.140625 19.046875 4.796875 C 18.820312 4.449219 18.632812 4.074219 18.488281 3.6875 L 18.296875 3.175781 C 18.238281 3.019531 18.085938 2.914062 17.914062 2.914062 C 17.746094 2.914062 17.589844 3.019531 17.53125 3.179688 L 17.339844 3.691406 C 17.195312 4.078125 17.003906 4.449219 16.78125 4.796875 C 16.554688 5.140625 16.296875 5.464844 16 5.753906 C 15.710938 6.042969 15.382812 6.300781 15.035156 6.523438 C 14.683594 6.75 14.304688 6.933594 13.914062 7.078125 L 13.394531 7.269531 C 13.238281 7.328125 13.128906 7.476562 13.128906 7.644531 C 13.128906 7.8125 13.238281 7.96875 13.394531 8.023438 L 13.914062 8.214844 C 14.304688 8.355469 14.683594 8.546875 15.035156 8.765625 C 15.382812 8.988281 15.707031 9.246094 16 9.539062 C 16.292969 9.828125 16.554688 10.148438 16.78125 10.492188 C 17.007812 10.839844 17.195312 11.214844 17.339844 11.601562 L 17.53125 12.113281 C 17.59375 12.269531 17.746094 12.378906 17.914062 12.378906 C 18.085938 12.378906 18.238281 12.269531 18.296875 12.113281 L 18.488281 11.601562 C 18.632812 11.214844 18.824219 10.839844 19.046875 10.492188 C 19.273438 10.148438 19.535156 9.828125 19.828125 9.539062 C 20.121094 9.25 20.445312 8.988281 20.792969 8.765625 C 21.148438 8.542969 21.523438 8.355469 21.917969 8.214844 L 22.433594 8.023438 C 22.59375 7.964844 22.699219 7.8125 22.699219 7.644531 C 22.699219 7.476562 22.59375 7.324219 22.433594 7.265625 Z M 20.296875 7.644531 C 20.242188 7.679688 20.183594 7.710938 20.128906 7.75 C 19.707031 8.015625 19.316406 8.332031 18.960938 8.679688 C 18.605469 9.03125 18.289062 9.417969 18.019531 9.835938 C 17.984375 9.890625 17.949219 9.945312 17.914062 10 C 17.878906 9.949219 17.847656 9.890625 17.808594 9.835938 C 17.539062 9.417969 17.222656 9.03125 16.867188 8.679688 C 16.511719 8.332031 16.121094 8.015625 15.699219 7.75 C 15.644531 7.714844 15.589844 7.679688 15.53125 7.644531 C 15.585938 7.613281 15.644531 7.578125 15.699219 7.542969 C 16.121094 7.277344 16.511719 6.960938 16.867188 6.613281 C 17.222656 6.261719 17.539062 5.871094 17.808594 5.457031 C 17.84375 5.402344 17.878906 5.347656 17.914062 5.289062 C 17.949219 5.34375 17.980469 5.402344 18.019531 5.457031 C 18.289062 5.871094 18.605469 6.261719 18.960938 6.613281 C 19.316406 6.960938 19.707031 7.277344 20.128906 7.542969 C 20.183594 7.578125 20.238281 7.613281 20.296875 7.644531 Z M 20.296875 7.644531 " fill-opacity="1" fill-rule="nonzero"/></g></svg>