<svg xmlns="http://www.w3.org/2000/svg" xmlns:xlink="http://www.w3.org/1999/xlink" width="40" zoomAndPan="magnify" viewBox="0 0 30 30.000001" height="40" preserveAspectRatio="xMidYMid meet" version="1.0"><defs><clipPath id="9f46a133b8"><path d="M 0.484375 0 L 29.515625 0 L 29.515625 29.03125 L 0.484375 29.03125 Z M 0.484375 0 " clip-rule="nonzero"/></clipPath><clipPath id="3295406598"><path d="M 1.933594 0 L 28.066406 0 C 28.867188 0 29.515625 0.648438 29.515625 1.453125 L 29.515625 27.582031 C 29.515625 28.382812 28.867188 29.03125 28.066406 29.03125 L 1.933594 29.03125 C 1.132812 29.03125 0.484375 28.382812 0.484375 27.582031 L 0.484375 1.453125 C 0.484375 0.648438 1.132812 0 1.933594 0 Z M 1.933594 0 " clip-rule="nonzero"/></clipPath><clipPath id="ebc8f44c4d"><path d="M 0.484375 0 L 29.515625 0 L 29.515625 29.03125 L 0.484375 29.03125 Z M 0.484375 0 " clip-rule="nonzero"/></clipPath><clipPath id="14f36f0bcf"><path d="M 1.933594 0 L 28.066406 0 C 28.867188 0 29.515625 0.648438 29.515625 1.453125 L 29.515625 27.582031 C 29.515625 28.382812 28.867188 29.03125 28.066406 29.03125 L 1.933594 29.03125 C 1.132812 29.03125 0.484375 28.382812 0.484375 27.582031 L 0.484375 1.453125 C 0.484375 0.648438 1.132812 0 1.933594 0 Z M 1.933594 0 " clip-rule="nonzero"/></clipPath><clipPath id="bc1dd96496"><rect x="0" width="30" y="0" height="30"/></clipPath><clipPath id="c7cb59bcaf"><path d="M 3.386719 7.738281 L 26.613281 7.738281 L 26.613281 21.527344 L 3.386719 21.527344 Z M 3.386719 7.738281 " clip-rule="nonzero"/></clipPath></defs><g clip-path="url(#9f46a133b8)"><g clip-path="url(#3295406598)"><g transform="matrix(1, 0, 0, 1, 0, 0.000000000000005692)"><g clip-path="url(#bc1dd96496)"><g clip-path="url(#ebc8f44c4d)"><g clip-path="url(#14f36f0bcf)"><path fill="#93e85f" d="M 0.484375 0 L 29.515625 0 L 29.515625 29.03125 L 0.484375 29.03125 Z M 0.484375 0 " fill-opacity="1" fill-rule="nonzero"/></g></g></g></g></g></g><g clip-path="url(#c7cb59bcaf)"><path fill="#000000" d="M 24.507812 7.792969 C 23.339844 7.792969 22.402344 8.75 22.402344 9.933594 C 22.402344 10.59375 22.691406 11.1875 23.179688 11.582031 L 18.644531 18.144531 C 18.386719 17.976562 18.09375 17.910156 17.769531 17.910156 C 17.382812 17.910156 16.992188 18.042969 16.699219 18.273438 L 12.003906 13.066406 C 12.230469 12.804688 12.359375 12.472656 12.359375 12.078125 C 12.359375 11.253906 11.710938 10.59375 10.902344 10.59375 C 10.09375 10.59375 9.445312 11.253906 9.445312 12.078125 C 9.445312 12.375 9.542969 12.671875 9.671875 12.902344 L 5.070312 16.757812 C 4.878906 16.59375 4.652344 16.496094 4.390625 16.496094 C 3.839844 16.496094 3.386719 16.957031 3.386719 17.515625 C 3.386719 18.078125 3.839844 18.539062 4.390625 18.539062 C 4.941406 18.539062 5.394531 18.078125 5.394531 17.515625 C 5.394531 17.320312 5.332031 17.152344 5.265625 16.988281 L 9.867188 13.132812 C 10.125 13.394531 10.480469 13.5625 10.871094 13.5625 C 11.195312 13.5625 11.484375 13.460938 11.746094 13.265625 L 16.472656 18.503906 C 16.183594 18.835938 16.019531 19.230469 16.019531 19.691406 C 16.019531 20.679688 16.796875 21.472656 17.769531 21.472656 C 18.742188 21.472656 19.519531 20.679688 19.519531 19.691406 C 19.519531 19.132812 19.292969 18.671875 18.902344 18.339844 L 23.4375 11.78125 C 23.761719 11.980469 24.117188 12.078125 24.507812 12.078125 C 25.671875 12.078125 26.613281 11.121094 26.613281 9.933594 C 26.613281 8.75 25.671875 7.792969 24.507812 7.792969 Z M 24.507812 7.792969 " fill-opacity="1" fill-rule="nonzero"/></g></svg>