<svg xmlns="http://www.w3.org/2000/svg" xmlns:xlink="http://www.w3.org/1999/xlink" width="40" zoomAndPan="magnify" viewBox="0 0 30 30.000001" height="40" preserveAspectRatio="xMidYMid meet" version="1.0"><defs><clipPath id="98ad215356"><path d="M 0.484375 0 L 29.515625 0 L 29.515625 29.03125 L 0.484375 29.03125 Z M 0.484375 0 " clip-rule="nonzero"/></clipPath><clipPath id="17b9847c9b"><path d="M 1.933594 0 L 28.066406 0 C 28.867188 0 29.515625 0.648438 29.515625 1.453125 L 29.515625 27.582031 C 29.515625 28.382812 28.867188 29.03125 28.066406 29.03125 L 1.933594 29.03125 C 1.132812 29.03125 0.484375 28.382812 0.484375 27.582031 L 0.484375 1.453125 C 0.484375 0.648438 1.132812 0 1.933594 0 Z M 1.933594 0 " clip-rule="nonzero"/></clipPath><clipPath id="5c7c183f47"><path d="M 0.484375 0 L 29.515625 0 L 29.515625 29.03125 L 0.484375 29.03125 Z M 0.484375 0 " clip-rule="nonzero"/></clipPath><clipPath id="b1c0adb59e"><path d="M 1.933594 0 L 28.066406 0 C 28.867188 0 29.515625 0.648438 29.515625 1.453125 L 29.515625 27.582031 C 29.515625 28.382812 28.867188 29.03125 28.066406 29.03125 L 1.933594 29.03125 C 1.132812 29.03125 0.484375 28.382812 0.484375 27.582031 L 0.484375 1.453125 C 0.484375 0.648438 1.132812 0 1.933594 0 Z M 1.933594 0 " clip-rule="nonzero"/></clipPath><clipPath id="91b0b4642c"><rect x="0" width="30" y="0" height="30"/></clipPath><clipPath id="52a9330eac"><path d="M 3.386719 4.867188 L 26.613281 4.867188 L 26.613281 24.464844 L 3.386719 24.464844 Z M 3.386719 4.867188 " clip-rule="nonzero"/></clipPath></defs><g clip-path="url(#98ad215356)"><g clip-path="url(#17b9847c9b)"><g transform="matrix(1, 0, 0, 1, 0, 0.000000000000005692)"><g clip-path="url(#91b0b4642c)"><g clip-path="url(#5c7c183f47)"><g clip-path="url(#b1c0adb59e)"><path fill="#93e85f" d="M 0.484375 0 L 29.515625 0 L 29.515625 29.03125 L 0.484375 29.03125 Z M 0.484375 0 " fill-opacity="1" fill-rule="nonzero"/></g></g></g></g></g></g><g clip-path="url(#52a9330eac)"><path fill="#000000" d="M 25.308594 9.074219 L 21.410156 9.074219 C 20.703125 9.074219 20.128906 9.65625 20.128906 10.371094 L 20.128906 23.167969 C 20.128906 23.882812 20.703125 24.464844 21.410156 24.464844 L 25.308594 24.464844 C 26.015625 24.464844 26.585938 23.882812 26.585938 23.167969 L 26.585938 10.371094 C 26.585938 9.65625 26.015625 9.074219 25.308594 9.074219 Z M 25.761719 23.167969 C 25.761719 23.421875 25.558594 23.625 25.308594 23.625 L 21.410156 23.625 C 21.160156 23.625 20.957031 23.421875 20.957031 23.167969 L 20.957031 10.371094 C 20.957031 10.117188 21.160156 9.914062 21.410156 9.914062 L 25.308594 9.914062 C 25.558594 9.914062 25.761719 10.117188 25.761719 10.371094 Z M 16.949219 12.703125 L 13.046875 12.703125 C 12.34375 12.703125 11.769531 13.289062 11.769531 14.003906 L 11.769531 23.167969 C 11.769531 23.882812 12.34375 24.464844 13.046875 24.464844 L 16.949219 24.464844 C 17.652344 24.464844 18.226562 23.882812 18.226562 23.167969 L 18.226562 14.003906 C 18.226562 13.289062 17.652344 12.703125 16.949219 12.703125 Z M 17.402344 23.167969 C 17.402344 23.421875 17.199219 23.625 16.949219 23.625 L 13.046875 23.625 C 12.800781 23.625 12.597656 23.421875 12.597656 23.167969 L 12.597656 14.003906 C 12.597656 13.75 12.800781 13.542969 13.046875 13.542969 L 16.949219 13.542969 C 17.199219 13.542969 17.402344 13.75 17.402344 14.003906 Z M 8.589844 16.335938 L 4.6875 16.335938 C 3.984375 16.335938 3.410156 16.917969 3.410156 17.636719 L 3.410156 23.167969 C 3.410156 23.882812 3.984375 24.464844 4.6875 24.464844 L 8.589844 24.464844 C 9.292969 24.464844 9.867188 23.882812 9.867188 23.167969 L 9.867188 17.636719 C 9.867188 16.917969 9.292969 16.335938 8.589844 16.335938 Z M 9.039062 23.167969 C 9.039062 23.421875 8.835938 23.625 8.589844 23.625 L 4.6875 23.625 C 4.4375 23.625 4.234375 23.421875 4.234375 23.167969 L 4.234375 17.636719 C 4.234375 17.382812 4.4375 17.175781 4.6875 17.175781 L 8.589844 17.175781 C 8.835938 17.175781 9.039062 17.382812 9.039062 17.636719 Z M 19.324219 4.867188 L 16.328125 4.867188 C 16.101562 4.867188 15.914062 5.054688 15.914062 5.285156 C 15.914062 5.519531 16.101562 5.707031 16.328125 5.707031 L 18.351562 5.707031 L 13.992188 9.964844 L 11.296875 7.941406 C 11.132812 7.816406 10.898438 7.835938 10.757812 7.988281 L 4.210938 14.855469 C 4.050781 15.023438 4.054688 15.289062 4.21875 15.449219 C 4.300781 15.527344 4.402344 15.566406 4.507812 15.566406 C 4.617188 15.566406 4.722656 15.523438 4.804688 15.441406 L 11.097656 8.835938 L 13.78125 10.851562 C 13.945312 10.972656 14.167969 10.957031 14.3125 10.816406 L 18.914062 6.324219 L 18.914062 8.457031 C 18.914062 8.691406 19.097656 8.878906 19.324219 8.878906 C 19.554688 8.878906 19.738281 8.691406 19.738281 8.457031 L 19.738281 5.285156 C 19.738281 5.054688 19.554688 4.867188 19.324219 4.867188 Z M 19.324219 4.867188 " fill-opacity="1" fill-rule="nonzero"/></g></svg>