<svg xmlns="http://www.w3.org/2000/svg" xmlns:xlink="http://www.w3.org/1999/xlink" width="40" zoomAndPan="magnify" viewBox="0 0 30 30.000001" height="40" preserveAspectRatio="xMidYMid meet" version="1.0"><defs><clipPath id="7c367ce62d"><path d="M 0.484375 0 L 29.515625 0 L 29.515625 29.03125 L 0.484375 29.03125 Z M 0.484375 0 " clip-rule="nonzero"/></clipPath><clipPath id="40cbd4b994"><path d="M 1.933594 0 L 28.066406 0 C 28.867188 0 29.515625 0.648438 29.515625 1.453125 L 29.515625 27.582031 C 29.515625 28.382812 28.867188 29.03125 28.066406 29.03125 L 1.933594 29.03125 C 1.132812 29.03125 0.484375 28.382812 0.484375 27.582031 L 0.484375 1.453125 C 0.484375 0.648438 1.132812 0 1.933594 0 Z M 1.933594 0 " clip-rule="nonzero"/></clipPath><clipPath id="db57caeebc"><path d="M 0.484375 0 L 29.515625 0 L 29.515625 29.03125 L 0.484375 29.03125 Z M 0.484375 0 " clip-rule="nonzero"/></clipPath><clipPath id="3147731261"><path d="M 1.933594 0 L 28.066406 0 C 28.867188 0 29.515625 0.648438 29.515625 1.453125 L 29.515625 27.582031 C 29.515625 28.382812 28.867188 29.03125 28.066406 29.03125 L 1.933594 29.03125 C 1.132812 29.03125 0.484375 28.382812 0.484375 27.582031 L 0.484375 1.453125 C 0.484375 0.648438 1.132812 0 1.933594 0 Z M 1.933594 0 " clip-rule="nonzero"/></clipPath><clipPath id="1ead562a77"><rect x="0" width="30" y="0" height="30"/></clipPath><clipPath id="383727b7b0"><path d="M 3.386719 6.578125 L 26.613281 6.578125 L 26.613281 22.542969 L 3.386719 22.542969 Z M 3.386719 6.578125 " clip-rule="nonzero"/></clipPath></defs><g clip-path="url(#7c367ce62d)"><g clip-path="url(#40cbd4b994)"><g transform="matrix(1, 0, 0, 1, 0, 0.000000000000005692)"><g clip-path="url(#1ead562a77)"><g clip-path="url(#db57caeebc)"><g clip-path="url(#3147731261)"><path fill="#93e85f" d="M 0.484375 0 L 29.515625 0 L 29.515625 29.03125 L 0.484375 29.03125 Z M 0.484375 0 " fill-opacity="1" fill-rule="nonzero"/></g></g></g></g></g></g><g clip-path="url(#383727b7b0)"><path fill="#000000" d="M 15 22.367188 C 7.382812 22.367188 3.613281 15.144531 3.453125 14.839844 C 3.359375 14.652344 3.359375 14.464844 3.453125 14.277344 C 3.613281 13.96875 7.382812 6.753906 15 6.753906 C 22.617188 6.753906 26.390625 13.96875 26.546875 14.277344 C 26.640625 14.464844 26.640625 14.652344 26.546875 14.839844 C 26.390625 15.144531 22.617188 22.367188 15 22.367188 Z M 4.699219 14.558594 C 5.464844 15.851562 8.945312 21.136719 15 21.136719 C 21.054688 21.136719 24.542969 15.851562 25.300781 14.566406 C 24.535156 13.269531 21.054688 7.984375 15 7.984375 C 8.945312 7.984375 5.457031 13.269531 4.699219 14.558594 Z M 15 19.941406 C 14.648438 19.941406 14.300781 19.90625 13.957031 19.835938 C 13.609375 19.769531 13.277344 19.667969 12.953125 19.53125 C 12.628906 19.394531 12.320312 19.230469 12.027344 19.035156 C 11.734375 18.835938 11.464844 18.613281 11.214844 18.363281 C 10.96875 18.113281 10.746094 17.84375 10.550781 17.546875 C 10.355469 17.253906 10.191406 16.945312 10.054688 16.617188 C 9.921875 16.292969 9.820312 15.957031 9.75 15.609375 C 9.683594 15.261719 9.648438 14.910156 9.648438 14.558594 C 9.648438 14.207031 9.683594 13.855469 9.75 13.507812 C 9.820312 13.160156 9.921875 12.824219 10.054688 12.5 C 10.191406 12.171875 10.355469 11.863281 10.550781 11.566406 C 10.746094 11.273438 10.96875 11.003906 11.214844 10.753906 C 11.464844 10.503906 11.734375 10.28125 12.027344 10.082031 C 12.320312 9.886719 12.628906 9.722656 12.953125 9.585938 C 13.277344 9.449219 13.609375 9.347656 13.957031 9.28125 C 14.300781 9.210938 14.648438 9.175781 15 9.175781 C 15.351562 9.175781 15.699219 9.210938 16.042969 9.28125 C 16.390625 9.347656 16.722656 9.449219 17.046875 9.585938 C 17.371094 9.722656 17.679688 9.886719 17.972656 10.082031 C 18.265625 10.28125 18.535156 10.503906 18.785156 10.753906 C 19.03125 11.003906 19.253906 11.273438 19.449219 11.566406 C 19.644531 11.863281 19.808594 12.171875 19.945312 12.5 C 20.078125 12.824219 20.179688 13.160156 20.25 13.507812 C 20.316406 13.855469 20.351562 14.207031 20.351562 14.558594 C 20.351562 14.910156 20.316406 15.261719 20.246094 15.609375 C 20.179688 15.953125 20.078125 16.289062 19.941406 16.617188 C 19.808594 16.945312 19.644531 17.253906 19.449219 17.546875 C 19.253906 17.839844 19.03125 18.113281 18.78125 18.363281 C 18.535156 18.613281 18.265625 18.835938 17.972656 19.03125 C 17.679688 19.226562 17.371094 19.394531 17.046875 19.53125 C 16.722656 19.664062 16.386719 19.765625 16.042969 19.835938 C 15.699219 19.90625 15.351562 19.941406 15 19.941406 Z M 15 10.40625 C 14.730469 10.40625 14.460938 10.433594 14.195312 10.484375 C 13.929688 10.539062 13.671875 10.617188 13.417969 10.722656 C 13.167969 10.824219 12.929688 10.953125 12.707031 11.105469 C 12.480469 11.257812 12.273438 11.429688 12.082031 11.621094 C 11.886719 11.816406 11.71875 12.023438 11.566406 12.25 C 11.414062 12.476562 11.289062 12.71875 11.183594 12.96875 C 11.082031 13.222656 11.003906 13.480469 10.949219 13.75 C 10.898438 14.015625 10.871094 14.285156 10.871094 14.558594 C 10.871094 14.832031 10.898438 15.101562 10.949219 15.367188 C 11.003906 15.636719 11.082031 15.894531 11.183594 16.148438 C 11.289062 16.398438 11.414062 16.640625 11.566406 16.867188 C 11.71875 17.09375 11.886719 17.300781 12.082031 17.496094 C 12.273438 17.6875 12.480469 17.859375 12.707031 18.011719 C 12.929688 18.164062 13.167969 18.289062 13.417969 18.394531 C 13.671875 18.5 13.929688 18.578125 14.195312 18.632812 C 14.460938 18.683594 14.730469 18.710938 15 18.710938 C 15.269531 18.710938 15.539062 18.683594 15.804688 18.632812 C 16.070312 18.578125 16.328125 18.5 16.582031 18.394531 C 16.832031 18.289062 17.070312 18.164062 17.292969 18.011719 C 17.519531 17.859375 17.726562 17.6875 17.917969 17.496094 C 18.113281 17.300781 18.28125 17.09375 18.433594 16.867188 C 18.585938 16.640625 18.710938 16.398438 18.816406 16.148438 C 18.917969 15.894531 18.996094 15.636719 19.050781 15.367188 C 19.101562 15.101562 19.128906 14.832031 19.128906 14.558594 C 19.128906 14.285156 19.101562 14.015625 19.050781 13.75 C 18.996094 13.480469 18.917969 13.222656 18.8125 12.96875 C 18.710938 12.71875 18.582031 12.480469 18.433594 12.253906 C 18.28125 12.027344 18.109375 11.816406 17.917969 11.625 C 17.726562 11.429688 17.519531 11.257812 17.292969 11.105469 C 17.066406 10.957031 16.828125 10.828125 16.578125 10.722656 C 16.328125 10.617188 16.070312 10.539062 15.804688 10.484375 C 15.539062 10.433594 15.269531 10.40625 15 10.40625 Z M 15 10.40625 " fill-opacity="1" fill-rule="nonzero"/></g></svg>