<svg xmlns="http://www.w3.org/2000/svg" xmlns:xlink="http://www.w3.org/1999/xlink" width="500" zoomAndPan="magnify" viewBox="0 0 375 374.999991" height="500" preserveAspectRatio="xMidYMid meet" version="1.0"><defs><clipPath id="b21c2ee306"><path d="M 7.5 0 L 367.5 0 C 371.640625 0 375 3.359375 375 7.5 L 375 367.5 C 375 371.640625 371.640625 375 367.5 375 L 7.5 375 C 3.359375 375 0 371.640625 0 367.5 L 0 7.5 C 0 3.359375 3.359375 0 7.5 0 Z M 7.5 0 " clip-rule="nonzero"/></clipPath><clipPath id="961d559b50"><path d="M 0 0 L 375 0 L 375 375 L 0 375 Z M 0 0 " clip-rule="nonzero"/></clipPath><clipPath id="12d4208332"><path d="M 7.5 0 L 367.5 0 C 371.640625 0 375 3.359375 375 7.5 L 375 367.5 C 375 371.640625 371.640625 375 367.5 375 L 7.5 375 C 3.359375 375 0 371.640625 0 367.5 L 0 7.5 C 0 3.359375 3.359375 0 7.5 0 Z M 7.5 0 " clip-rule="nonzero"/></clipPath><clipPath id="d1aca3d53b"><rect x="0" width="375" y="0" height="375"/></clipPath><clipPath id="02fcc8d71e"><path d="M 106 12.203125 L 269 12.203125 L 269 182.453125 L 106 182.453125 Z M 106 12.203125 " clip-rule="nonzero"/></clipPath><clipPath id="2b4aee884e"><path d="M 80.71875 83 L 99 83 L 99 143 L 80.71875 143 Z M 80.71875 83 " clip-rule="nonzero"/></clipPath><clipPath id="e144f7ef24"><path d="M 275 83 L 294.46875 83 L 294.46875 143 L 275 143 Z M 275 83 " clip-rule="nonzero"/></clipPath><clipPath id="f5bafc1c4f"><path d="M 81.234375 189.738281 L 293.484375 189.738281 L 293.484375 333 L 81.234375 333 Z M 81.234375 189.738281 " clip-rule="nonzero"/></clipPath><clipPath id="d9ae4efa56"><path d="M 125 353 L 251 353 L 251 365.988281 L 125 365.988281 Z M 125 353 " clip-rule="nonzero"/></clipPath></defs><g clip-path="url(#b21c2ee306)"><g transform="matrix(1, 0, 0, 1, 0, 0)"><g clip-path="url(#d1aca3d53b)"><g clip-path="url(#961d559b50)"><g clip-path="url(#12d4208332)"><rect x="-82.5" width="540" fill="#ffffff" height="539.999987" y="-82.499998" fill-opacity="1"/></g></g></g></g></g><g clip-path="url(#02fcc8d71e)"><path fill="#155655" d="M 232.59375 182.230469 L 142.269531 182.230469 C 122.378906 182.230469 106.242188 166.09375 106.242188 146.324219 L 106.242188 87.777344 C 106.242188 67.886719 122.378906 51.75 142.269531 51.75 L 183.554688 51.75 L 183.679688 37.988281 C 178.300781 36.359375 174.296875 31.355469 174.296875 25.351562 C 174.296875 18.09375 180.300781 12.214844 187.558594 12.214844 C 194.8125 12.214844 200.820312 18.09375 200.820312 25.351562 C 200.820312 31.355469 196.691406 36.484375 191.1875 38.113281 L 191.0625 51.75 L 232.59375 51.75 C 252.363281 51.75 268.5 67.886719 268.5 87.777344 L 268.5 146.449219 C 268.5 166.21875 252.363281 182.230469 232.59375 182.230469 Z M 153.53125 125.433594 C 142.898438 125.433594 134.515625 117.050781 134.515625 106.542969 C 134.515625 95.910156 142.898438 87.527344 153.53125 87.527344 C 164.164062 87.527344 172.421875 95.910156 172.421875 106.542969 C 172.421875 117.050781 164.164062 125.433594 153.53125 125.433594 Z M 153.53125 95.035156 C 147.023438 95.035156 142.019531 100.039062 142.019531 106.542969 C 142.019531 112.921875 147.023438 117.925781 153.53125 117.925781 C 159.910156 117.925781 165.039062 112.921875 165.039062 106.542969 C 165.039062 100.039062 159.910156 95.035156 153.53125 95.035156 Z M 221.460938 124.683594 C 210.828125 124.683594 202.320312 116.175781 202.320312 105.667969 C 202.320312 95.160156 210.828125 86.652344 221.460938 86.652344 C 231.84375 86.652344 240.351562 95.160156 240.351562 105.667969 C 240.351562 116.175781 231.84375 124.683594 221.460938 124.683594 Z M 221.460938 94.15625 C 214.957031 94.15625 209.828125 99.414062 209.828125 105.667969 C 209.828125 112.046875 214.957031 117.300781 221.460938 117.300781 C 227.839844 117.300781 232.84375 112.046875 232.84375 105.667969 C 232.84375 99.164062 227.714844 94.15625 221.460938 94.15625 Z M 186.058594 147.453125 C 178.925781 147.453125 172.671875 144.074219 169.167969 141.070312 C 167.542969 139.695312 167.417969 137.195312 168.792969 135.816406 C 170.167969 134.316406 172.421875 134.066406 174.046875 135.566406 C 175.171875 136.566406 186.058594 145.199219 196.441406 135.691406 C 197.941406 134.316406 200.195312 134.316406 201.820312 135.816406 C 203.195312 137.445312 203.195312 139.695312 201.695312 141.195312 C 196.441406 145.699219 191.0625 147.453125 186.058594 147.453125 Z M 186.058594 147.453125 " fill-opacity="1" fill-rule="evenodd"/></g><g clip-path="url(#2b4aee884e)"><path fill="#155655" d="M 98.734375 142.074219 L 97.234375 142.074219 C 88.226562 142.074219 80.71875 134.691406 80.71875 125.558594 L 80.71875 100.039062 C 80.71875 90.90625 88.226562 83.398438 97.234375 83.398438 L 98.984375 83.398438 C 98.859375 84.773438 98.734375 86.277344 98.734375 87.777344 Z M 98.734375 142.074219 " fill-opacity="1" fill-rule="evenodd"/></g><g clip-path="url(#e144f7ef24)"><path fill="#155655" d="M 277.507812 142.074219 L 276.007812 142.074219 L 276.007812 87.777344 C 276.007812 86.152344 275.882812 84.648438 275.757812 83.273438 L 277.507812 83.273438 C 286.765625 83.273438 294.269531 90.65625 294.269531 99.914062 L 294.269531 125.558594 C 294.269531 134.816406 286.765625 142.074219 277.507812 142.074219 Z M 277.507812 142.074219 " fill-opacity="1" fill-rule="evenodd"/></g><g clip-path="url(#f5bafc1c4f)"><path fill="#93e85f" d="M 284.492188 302.90625 L 90.507812 302.90625 L 90.507812 199.90625 C 90.507812 199.445312 90.882812 199.078125 91.34375 199.078125 L 283.660156 199.078125 C 284.113281 199.078125 284.492188 199.445312 284.492188 199.90625 Z M 208.761719 322.859375 C 207.765625 323.859375 206.382812 324.480469 204.859375 324.480469 L 170.140625 324.480469 C 167.089844 324.480469 164.617188 322 164.617188 318.949219 C 164.617188 317.425781 165.234375 316.042969 166.234375 315.042969 C 167.230469 314.042969 168.613281 313.425781 170.140625 313.425781 L 204.859375 313.425781 C 207.910156 313.425781 210.382812 315.898438 210.382812 318.949219 C 210.382812 320.476562 209.765625 321.859375 208.761719 322.859375 Z M 283.660156 189.800781 L 91.34375 189.800781 C 85.765625 189.800781 81.230469 194.335938 81.230469 199.90625 L 81.230469 322.261719 C 81.230469 327.832031 85.765625 332.371094 91.34375 332.371094 L 283.660156 332.371094 C 289.230469 332.371094 293.769531 327.832031 293.769531 322.261719 L 293.769531 199.90625 C 293.769531 194.335938 289.230469 189.800781 283.660156 189.800781 " fill-opacity="1" fill-rule="nonzero"/></g><path fill="#93e85f" d="M 207.597656 318.949219 C 207.597656 319.683594 207.308594 320.375 206.796875 320.894531 C 206.277344 321.410156 205.589844 321.699219 204.859375 321.699219 L 170.140625 321.699219 C 168.628906 321.699219 167.398438 320.464844 167.398438 318.949219 C 167.398438 318.214844 167.683594 317.53125 168.207031 317.007812 C 168.722656 316.492188 169.40625 316.207031 170.140625 316.207031 L 204.859375 316.207031 C 206.367188 316.207031 207.597656 317.4375 207.597656 318.949219 " fill-opacity="1" fill-rule="nonzero"/><g clip-path="url(#d9ae4efa56)"><path fill="#93e85f" d="M 250.003906 365.53125 L 125 365.53125 C 127.480469 358.253906 134.386719 353.003906 142.496094 353.003906 L 232.507812 353.003906 C 240.621094 353.003906 247.519531 358.253906 250.003906 365.53125 " fill-opacity="1" fill-rule="nonzero"/></g><path fill="#93e85f" d="M 211.292969 349.644531 L 163.710938 349.644531 L 168.390625 335.730469 L 206.613281 335.730469 L 211.292969 349.644531 " fill-opacity="1" fill-rule="nonzero"/></svg>