<svg xmlns="http://www.w3.org/2000/svg" xmlns:xlink="http://www.w3.org/1999/xlink" width="40" zoomAndPan="magnify" viewBox="0 0 30 30.000001" height="40" preserveAspectRatio="xMidYMid meet" version="1.0"><defs><clipPath id="88e075e2ff"><path d="M 0.484375 0 L 29.515625 0 L 29.515625 29.03125 L 0.484375 29.03125 Z M 0.484375 0 " clip-rule="nonzero"/></clipPath><clipPath id="267082f867"><path d="M 0.484375 0 L 29.515625 0 L 29.515625 29.03125 L 0.484375 29.03125 Z M 0.484375 0 " clip-rule="nonzero"/></clipPath><clipPath id="6a219e88dc"><path d="M 1.933594 0 L 28.066406 0 C 28.867188 0 29.515625 0.648438 29.515625 1.453125 L 29.515625 27.582031 C 29.515625 28.382812 28.867188 29.03125 28.066406 29.03125 L 1.933594 29.03125 C 1.132812 29.03125 0.484375 28.382812 0.484375 27.582031 L 0.484375 1.453125 C 0.484375 0.648438 1.132812 0 1.933594 0 Z M 1.933594 0 " clip-rule="nonzero"/></clipPath><clipPath id="541719016a"><path d="M 0.484375 0 L 29.515625 0 L 29.515625 29.03125 L 0.484375 29.03125 Z M 0.484375 0 " clip-rule="nonzero"/></clipPath><clipPath id="5f1e2f5579"><path d="M 1.933594 0 L 28.066406 0 C 28.867188 0 29.515625 0.648438 29.515625 1.453125 L 29.515625 27.582031 C 29.515625 28.382812 28.867188 29.03125 28.066406 29.03125 L 1.933594 29.03125 C 1.132812 29.03125 0.484375 28.382812 0.484375 27.582031 L 0.484375 1.453125 C 0.484375 0.648438 1.132812 0 1.933594 0 Z M 1.933594 0 " clip-rule="nonzero"/></clipPath><clipPath id="c7015404fb"><rect x="0" width="30" y="0" height="30"/></clipPath><clipPath id="c24e5b30c7"><path d="M 3.386719 3 L 26.613281 3 L 26.613281 26.128906 L 3.386719 26.128906 Z M 3.386719 3 " clip-rule="nonzero"/></clipPath></defs><g clip-path="url(#88e075e2ff)"><path fill="#ffffff" d="M 0.484375 0 L 29.515625 0 L 29.515625 29.03125 L 0.484375 29.03125 Z M 0.484375 0 " fill-opacity="1" fill-rule="nonzero"/><path fill="#ffffff" d="M 0.484375 0 L 29.515625 0 L 29.515625 29.03125 L 0.484375 29.03125 Z M 0.484375 0 " fill-opacity="1" fill-rule="nonzero"/></g><g clip-path="url(#267082f867)"><g clip-path="url(#6a219e88dc)"><g transform="matrix(1, 0, 0, 1, 0, 0.000000000000005692)"><g clip-path="url(#c7015404fb)"><g clip-path="url(#541719016a)"><g clip-path="url(#5f1e2f5579)"><path fill="#93e85f" d="M 0.484375 0 L 29.515625 0 L 29.515625 29.03125 L 0.484375 29.03125 Z M 0.484375 0 " fill-opacity="1" fill-rule="nonzero"/></g></g></g></g></g></g><g clip-path="url(#c24e5b30c7)"><path fill="#000000" d="M 26.503906 13.625 C 26.023438 8.160156 21.726562 3.796875 16.285156 3.25 C 12.84375 2.90625 9.460938 4.105469 7.023438 6.546875 C 4.589844 8.984375 3.386719 12.367188 3.726562 15.824219 C 4.273438 21.359375 8.875 25.78125 14.425781 26.105469 C 14.652344 26.117188 14.878906 26.125 15.105469 26.125 C 17.097656 26.125 19.039062 25.613281 20.761719 24.628906 C 21.238281 24.355469 21.40625 23.75 21.132812 23.273438 C 20.863281 22.796875 20.257812 22.628906 19.78125 22.902344 C 18.195312 23.808594 16.378906 24.226562 14.542969 24.121094 C 9.953125 23.851562 6.152344 20.203125 5.699219 15.628906 C 5.417969 12.765625 6.410156 9.96875 8.425781 7.949219 C 10.441406 5.933594 13.234375 4.941406 16.089844 5.226562 C 20.511719 5.671875 24.140625 9.355469 24.527344 13.800781 C 24.617188 14.832031 24.546875 15.855469 24.3125 16.847656 C 24.058594 17.914062 23.070312 18.65625 21.957031 18.617188 C 21.070312 18.585938 20.375 17.863281 20.375 16.972656 L 20.375 9.757812 C 20.375 9.210938 19.929688 8.765625 19.382812 8.765625 C 18.835938 8.765625 18.390625 9.210938 18.390625 9.757812 L 18.390625 10.011719 C 17.449219 9.34375 16.308594 8.960938 15.109375 8.960938 C 11.976562 8.960938 9.425781 11.515625 9.425781 14.65625 C 9.425781 17.800781 11.976562 20.355469 15.109375 20.355469 C 16.542969 20.355469 17.898438 19.804688 18.925781 18.875 C 19.539062 19.875 20.621094 20.558594 21.882812 20.605469 C 23.953125 20.679688 25.773438 19.292969 26.242188 17.304688 C 26.523438 16.105469 26.613281 14.871094 26.503906 13.625 Z M 15.109375 18.367188 C 12.886719 18.367188 11.117188 16.394531 11.449219 14.105469 C 11.648438 12.726562 12.644531 11.546875 13.96875 11.125 C 15.550781 10.621094 17.152344 11.21875 18.058594 12.429688 C 18.285156 12.730469 18.390625 13.105469 18.390625 13.480469 L 18.390625 15.835938 C 18.390625 16.210938 18.285156 16.582031 18.0625 16.882812 C 17.371094 17.800781 16.285156 18.367188 15.109375 18.367188 Z M 15.109375 18.367188 " fill-opacity="1" fill-rule="nonzero"/></g></svg>