<svg xmlns="http://www.w3.org/2000/svg" xmlns:xlink="http://www.w3.org/1999/xlink" width="500" zoomAndPan="magnify" viewBox="0 0 375 374.999991" height="500" preserveAspectRatio="xMidYMid meet" version="1.0"><defs><clipPath id="dd2b3b36b5"><path d="M 7.5 0 L 367.5 0 C 371.640625 0 375 3.359375 375 7.5 L 375 367.5 C 375 371.640625 371.640625 375 367.5 375 L 7.5 375 C 3.359375 375 0 371.640625 0 367.5 L 0 7.5 C 0 3.359375 3.359375 0 7.5 0 Z M 7.5 0 " clip-rule="nonzero"/></clipPath><clipPath id="c606a4a0e5"><path d="M 0 0 L 375 0 L 375 375 L 0 375 Z M 0 0 " clip-rule="nonzero"/></clipPath><clipPath id="dc1e3b6363"><path d="M 7.5 0 L 367.5 0 C 371.640625 0 375 3.359375 375 7.5 L 375 367.5 C 375 371.640625 371.640625 375 367.5 375 L 7.5 375 C 3.359375 375 0 371.640625 0 367.5 L 0 7.5 C 0 3.359375 3.359375 0 7.5 0 Z M 7.5 0 " clip-rule="nonzero"/></clipPath><clipPath id="51f397b28b"><rect x="0" width="375" y="0" height="375"/></clipPath><clipPath id="e03724b004"><path d="M 32.3125 218.644531 L 116.800781 218.644531 L 116.800781 363.527344 L 32.3125 363.527344 Z M 32.3125 218.644531 " clip-rule="nonzero"/></clipPath><clipPath id="4718f71f9c"><path d="M 36.0625 218.644531 L 113.050781 218.644531 C 114.042969 218.644531 115 219.039062 115.703125 219.742188 C 116.40625 220.445312 116.800781 221.398438 116.800781 222.394531 L 116.800781 359.472656 C 116.800781 360.46875 116.40625 361.421875 115.703125 362.125 C 115 362.828125 114.042969 363.222656 113.050781 363.222656 L 36.0625 363.222656 C 35.066406 363.222656 34.113281 362.828125 33.410156 362.125 C 32.707031 361.421875 32.3125 360.46875 32.3125 359.472656 L 32.3125 222.394531 C 32.3125 221.398438 32.707031 220.445312 33.410156 219.742188 C 34.113281 219.039062 35.066406 218.644531 36.0625 218.644531 Z M 36.0625 218.644531 " clip-rule="nonzero"/></clipPath><clipPath id="bbd5ad7d41"><path d="M 0.3125 0.644531 L 84.800781 0.644531 L 84.800781 145.359375 L 0.3125 145.359375 Z M 0.3125 0.644531 " clip-rule="nonzero"/></clipPath><clipPath id="9e6c139f3e"><path d="M 4.0625 0.644531 L 81.050781 0.644531 C 82.042969 0.644531 83 1.039062 83.703125 1.742188 C 84.40625 2.445312 84.800781 3.398438 84.800781 4.394531 L 84.800781 141.472656 C 84.800781 142.46875 84.40625 143.421875 83.703125 144.125 C 83 144.828125 82.042969 145.222656 81.050781 145.222656 L 4.0625 145.222656 C 3.066406 145.222656 2.113281 144.828125 1.410156 144.125 C 0.707031 143.421875 0.3125 142.46875 0.3125 141.472656 L 0.3125 4.394531 C 0.3125 3.398438 0.707031 2.445312 1.410156 1.742188 C 2.113281 1.039062 3.066406 0.644531 4.0625 0.644531 Z M 4.0625 0.644531 " clip-rule="nonzero"/></clipPath><clipPath id="926e917a4e"><rect x="0" width="85" y="0" height="146"/></clipPath><clipPath id="f9429b27d7"><path d="M 145.210938 183.972656 L 229.699219 183.972656 L 229.699219 363.511719 L 145.210938 363.511719 Z M 145.210938 183.972656 " clip-rule="nonzero"/></clipPath><clipPath id="3360a74ddf"><path d="M 148.960938 183.972656 L 225.949219 183.972656 C 226.945312 183.972656 227.898438 184.367188 228.601562 185.070312 C 229.304688 185.773438 229.699219 186.726562 229.699219 187.722656 L 229.699219 359.472656 C 229.699219 360.46875 229.304688 361.421875 228.601562 362.125 C 227.898438 362.828125 226.945312 363.222656 225.949219 363.222656 L 148.960938 363.222656 C 147.964844 363.222656 147.011719 362.828125 146.308594 362.125 C 145.605469 361.421875 145.210938 360.46875 145.210938 359.472656 L 145.210938 187.722656 C 145.210938 186.726562 145.605469 185.773438 146.308594 185.070312 C 147.011719 184.367188 147.964844 183.972656 148.960938 183.972656 Z M 148.960938 183.972656 " clip-rule="nonzero"/></clipPath><clipPath id="581426e87d"><path d="M 0.210938 0.972656 L 84.699219 0.972656 L 84.699219 180.359375 L 0.210938 180.359375 Z M 0.210938 0.972656 " clip-rule="nonzero"/></clipPath><clipPath id="e3ffe292b7"><path d="M 3.960938 0.972656 L 80.949219 0.972656 C 81.945312 0.972656 82.898438 1.367188 83.601562 2.070312 C 84.304688 2.773438 84.699219 3.726562 84.699219 4.722656 L 84.699219 176.472656 C 84.699219 177.46875 84.304688 178.421875 83.601562 179.125 C 82.898438 179.828125 81.945312 180.222656 80.949219 180.222656 L 3.960938 180.222656 C 2.964844 180.222656 2.011719 179.828125 1.308594 179.125 C 0.605469 178.421875 0.210938 177.46875 0.210938 176.472656 L 0.210938 4.722656 C 0.210938 3.726562 0.605469 2.773438 1.308594 2.070312 C 2.011719 1.367188 2.964844 0.972656 3.960938 0.972656 Z M 3.960938 0.972656 " clip-rule="nonzero"/></clipPath><clipPath id="e662686dd8"><rect x="0" width="85" y="0" height="181"/></clipPath><clipPath id="8091b43eba"><path d="M 258.199219 161.203125 L 342.6875 161.203125 L 342.6875 363.515625 L 258.199219 363.515625 Z M 258.199219 161.203125 " clip-rule="nonzero"/></clipPath><clipPath id="6fda333ff2"><path d="M 261.949219 161.203125 L 338.9375 161.203125 C 339.933594 161.203125 340.886719 161.597656 341.589844 162.300781 C 342.292969 163.007812 342.6875 163.960938 342.6875 164.953125 L 342.6875 359.472656 C 342.6875 360.46875 342.292969 361.421875 341.589844 362.125 C 340.886719 362.828125 339.933594 363.222656 338.9375 363.222656 L 261.949219 363.222656 C 260.957031 363.222656 260 362.828125 259.296875 362.125 C 258.59375 361.421875 258.199219 360.46875 258.199219 359.472656 L 258.199219 164.953125 C 258.199219 163.960938 258.59375 163.007812 259.296875 162.300781 C 260 161.597656 260.957031 161.203125 261.949219 161.203125 Z M 261.949219 161.203125 " clip-rule="nonzero"/></clipPath><clipPath id="b78a900a9f"><path d="M 0.199219 0.203125 L 84.6875 0.203125 L 84.6875 202.359375 L 0.199219 202.359375 Z M 0.199219 0.203125 " clip-rule="nonzero"/></clipPath><clipPath id="5351426015"><path d="M 3.949219 0.203125 L 80.9375 0.203125 C 81.933594 0.203125 82.886719 0.597656 83.589844 1.300781 C 84.292969 2.007812 84.6875 2.960938 84.6875 3.953125 L 84.6875 198.472656 C 84.6875 199.46875 84.292969 200.421875 83.589844 201.125 C 82.886719 201.828125 81.933594 202.222656 80.9375 202.222656 L 3.949219 202.222656 C 2.957031 202.222656 2 201.828125 1.296875 201.125 C 0.59375 200.421875 0.199219 199.46875 0.199219 198.472656 L 0.199219 3.953125 C 0.199219 2.960938 0.59375 2.007812 1.296875 1.300781 C 2 0.597656 2.957031 0.203125 3.949219 0.203125 Z M 3.949219 0.203125 " clip-rule="nonzero"/></clipPath><clipPath id="24e9204d18"><rect x="0" width="85" y="0" height="203"/></clipPath><clipPath id="b76af13b9e"><path d="M 39 10.503906 L 307.5 10.503906 L 307.5 209.59375 L 39 209.59375 Z M 39 10.503906 " clip-rule="nonzero"/></clipPath></defs><g clip-path="url(#dd2b3b36b5)"><g transform="matrix(1, 0, 0, 1, 0, 0)"><g clip-path="url(#51f397b28b)"><g clip-path="url(#c606a4a0e5)"><g clip-path="url(#dc1e3b6363)"><rect x="-82.5" width="540" fill="#ffffff" height="539.999987" y="-82.499998" fill-opacity="1"/></g></g></g></g></g><g clip-path="url(#e03724b004)"><g clip-path="url(#4718f71f9c)"><g transform="matrix(1, 0, 0, 1, 32, 218)"><g clip-path="url(#926e917a4e)"><g clip-path="url(#bbd5ad7d41)"><g clip-path="url(#9e6c139f3e)"><path fill="#93e85f" d="M 0.3125 0.644531 L 84.800781 0.644531 L 84.800781 145.199219 L 0.3125 145.199219 Z M 0.3125 0.644531 " fill-opacity="1" fill-rule="nonzero"/></g></g></g></g></g></g><g clip-path="url(#f9429b27d7)"><g clip-path="url(#3360a74ddf)"><g transform="matrix(1, 0, 0, 1, 145, 183)"><g clip-path="url(#e662686dd8)"><g clip-path="url(#581426e87d)"><g clip-path="url(#e3ffe292b7)"><path fill="#155655" d="M 0.210938 0.972656 L 84.699219 0.972656 L 84.699219 180.183594 L 0.210938 180.183594 Z M 0.210938 0.972656 " fill-opacity="1" fill-rule="nonzero"/></g></g></g></g></g></g><g clip-path="url(#8091b43eba)"><g clip-path="url(#6fda333ff2)"><g transform="matrix(1, 0, 0, 1, 258, 161)"><g clip-path="url(#24e9204d18)"><g clip-path="url(#b78a900a9f)"><g clip-path="url(#5351426015)"><path fill="#93e85f" d="M 0.199219 0.203125 L 84.6875 0.203125 L 84.6875 202.1875 L 0.199219 202.1875 Z M 0.199219 0.203125 " fill-opacity="1" fill-rule="nonzero"/></g></g></g></g></g></g><g clip-path="url(#b76af13b9e)"><path fill="#155655" d="M 295.898438 74.65625 L 307.675781 12.707031 C 307.917969 11.421875 306.789062 10.292969 305.503906 10.535156 L 243.554688 22.308594 C 242.089844 22.589844 241.53125 24.390625 242.585938 25.449219 L 257.789062 40.652344 C 258.515625 41.375 258.515625 42.550781 257.789062 43.277344 L 187.640625 113.429688 C 186.914062 114.15625 185.738281 114.15625 185.011719 113.429688 L 152.828125 81.246094 C 152.105469 80.523438 150.929688 80.523438 150.203125 81.246094 L 39.542969 191.90625 C 38.820312 192.632812 38.820312 193.808594 39.542969 194.53125 L 54.058594 209.046875 C 54.785156 209.773438 55.960938 209.773438 56.683594 209.046875 L 150.203125 115.527344 C 150.929688 114.804688 152.105469 114.804688 152.828125 115.527344 L 185.011719 147.710938 C 185.738281 148.4375 186.914062 148.4375 187.640625 147.710938 L 274.933594 60.417969 C 275.65625 59.695312 276.832031 59.695312 277.558594 60.417969 L 292.761719 75.625 C 293.816406 76.679688 295.621094 76.121094 295.898438 74.65625 " fill-opacity="1" fill-rule="nonzero"/></g></svg>