<svg xmlns="http://www.w3.org/2000/svg" xmlns:xlink="http://www.w3.org/1999/xlink" width="500" zoomAndPan="magnify" viewBox="0 0 375 374.999991" height="500" preserveAspectRatio="xMidYMid meet" version="1.0"><defs><clipPath id="e74b4bc62a"><path d="M 37.5 50 L 337.5 50 L 337.5 325 L 37.5 325 Z M 37.5 50 " clip-rule="nonzero"/></clipPath></defs><g clip-path="url(#e74b4bc62a)"><path fill="#8fe45a" d="M 337.59375 91.070312 L 337.59375 221.925781 C 337.59375 244.097656 319.613281 262.128906 297.484375 262.128906 L 228.261719 262.128906 C 227.5625 262.128906 226.910156 262.40625 226.398438 262.871094 L 167.003906 321.566406 C 165 323.523438 162.4375 324.550781 159.78125 324.550781 C 158.433594 324.550781 157.082031 324.269531 155.824219 323.757812 C 152.003906 322.175781 149.535156 318.445312 149.535156 314.300781 L 149.535156 264.78125 C 149.535156 263.339844 148.371094 262.175781 146.925781 262.175781 L 77.5625 262.175781 C 55.386719 262.175781 37.359375 244.144531 37.359375 221.972656 L 37.359375 91.164062 C 37.359375 68.992188 55.386719 50.960938 77.5625 50.960938 L 297.4375 50.960938 C 319.566406 50.960938 337.546875 68.945312 337.546875 91.070312 Z M 337.59375 91.070312 " fill-opacity="1" fill-rule="nonzero"/></g></svg>