<svg xmlns="http://www.w3.org/2000/svg" xmlns:xlink="http://www.w3.org/1999/xlink" width="500" zoomAndPan="magnify" viewBox="0 0 375 374.999991" height="500" preserveAspectRatio="xMidYMid meet" version="1.0"><defs><clipPath id="65e3ef433b"><path d="M 37.5 56.863281 L 337.5 56.863281 L 337.5 317.863281 L 37.5 317.863281 Z M 37.5 56.863281 " clip-rule="nonzero"/></clipPath><clipPath id="f9c16eb0af"><path d="M 0.00390625 0.613281 L 375 0.613281 L 375 374.863281 L 0.00390625 374.863281 Z M 0.00390625 0.613281 " clip-rule="nonzero"/></clipPath><clipPath id="1276ab98e2"><path d="M 17.253906 0.613281 L 357.746094 0.613281 C 362.320312 0.613281 366.707031 2.429688 369.945312 5.664062 C 373.179688 8.902344 374.996094 13.289062 374.996094 17.863281 L 374.996094 357.742188 C 374.996094 362.316406 373.179688 366.707031 369.945312 369.941406 C 366.707031 373.175781 362.320312 374.992188 357.746094 374.992188 L 17.253906 374.992188 C 12.679688 374.992188 8.289062 373.175781 5.054688 369.941406 C 1.820312 366.707031 0.00390625 362.316406 0.00390625 357.742188 L 0.00390625 17.863281 C 0.00390625 13.289062 1.820312 8.902344 5.054688 5.664062 C 8.289062 2.429688 12.679688 0.613281 17.253906 0.613281 Z M 17.253906 0.613281 " clip-rule="nonzero"/></clipPath></defs><g clip-path="url(#65e3ef433b)"><path fill="#c1ff72" d="M 305.144531 282.132812 C 310.089844 277.546875 314.570312 272.453125 318.488281 266.96875 C 330.796875 250.027344 337.300781 230.339844 337.300781 210.039062 C 337.300781 162.820312 302.40625 121.898438 252.273438 109.921875 C 232.003906 77.167969 193.882812 56.863281 152.285156 56.863281 C 89.101562 56.863281 37.699219 103.425781 37.699219 160.660156 C 37.699219 180.960938 44.203125 200.648438 56.496094 217.566406 C 60.300781 222.898438 64.789062 227.988281 69.863281 232.734375 L 52.078125 258.425781 C 51.433594 259.355469 51.226562 260.519531 51.503906 261.613281 C 51.785156 262.707031 52.527344 263.628906 53.539062 264.132812 C 59.585938 267.15625 66.46875 268.753906 73.4375 268.753906 C 86.28125 268.753906 97.960938 263.570312 104.78125 255.039062 C 110.625 257.472656 116.636719 259.398438 122.667969 260.820312 C 142.941406 293.546875 181.082031 313.835938 222.714844 313.835938 C 239.324219 313.835938 255.28125 310.699219 270.203125 304.507812 C 276.933594 312.984375 288.613281 318.132812 301.5625 318.132812 C 308.648438 318.132812 315.527344 316.566406 321.460938 313.597656 C 322.46875 313.09375 323.214844 312.175781 323.496094 311.082031 C 323.773438 309.988281 323.566406 308.824219 322.925781 307.898438 Z M 100.128906 248.140625 C 95.25 255.925781 84.773438 260.957031 73.4375 260.957031 C 69.238281 260.957031 65.085938 260.257812 61.21875 258.921875 L 78.222656 234.363281 C 79.351562 232.734375 79.078125 230.519531 77.589844 229.210938 C 71.894531 224.207031 66.933594 218.761719 62.824219 213.011719 C 51.488281 197.40625 45.5 179.304688 45.5 160.660156 C 45.5 107.726562 93.40625 64.664062 152.285156 64.664062 C 191.746094 64.664062 227.832031 84.066406 246.476562 115.3125 C 254.773438 129.085938 259.160156 144.765625 259.160156 160.660156 C 259.160156 213.59375 211.21875 256.660156 152.285156 256.660156 C 143.199219 256.660156 134.359375 255.632812 125.9375 253.59375 C 118.824219 252.019531 111.789062 249.683594 105.027344 246.652344 C 103.25 245.855469 101.160156 246.488281 100.128906 248.140625 Z M 301.5625 310.335938 C 290.113281 310.335938 279.640625 305.347656 274.886719 297.628906 C 274.15625 296.445312 272.882812 295.777344 271.566406 295.777344 C 271.03125 295.777344 270.492188 295.882812 269.976562 296.113281 C 255.226562 302.699219 239.324219 306.035156 222.714844 306.035156 C 186.527344 306.035156 153.1875 289.765625 133.515625 263.035156 C 134.027344 263.117188 134.558594 263.140625 135.070312 263.214844 C 137.09375 263.5 139.132812 263.734375 141.1875 263.917969 C 142.03125 263.992188 142.871094 264.078125 143.71875 264.136719 C 146.550781 264.328125 149.402344 264.457031 152.285156 264.457031 C 215.515625 264.457031 266.957031 217.894531 266.957031 160.660156 C 266.957031 158.664062 266.878906 156.667969 266.753906 154.679688 C 266.714844 154.050781 266.644531 153.421875 266.59375 152.789062 C 266.476562 151.425781 266.34375 150.0625 266.171875 148.703125 C 266.078125 147.980469 265.972656 147.261719 265.863281 146.542969 C 265.667969 145.25 265.445312 143.960938 265.195312 142.679688 C 265.0625 141.976562 264.929688 141.277344 264.777344 140.582031 C 264.472656 139.179688 264.128906 137.789062 263.761719 136.402344 C 263.617188 135.855469 263.492188 135.308594 263.335938 134.765625 C 262.796875 132.855469 262.203125 130.964844 261.542969 129.089844 C 261.414062 128.726562 261.261719 128.371094 261.128906 128.007812 C 260.578125 126.496094 259.996094 124.996094 259.367188 123.511719 C 259.09375 122.871094 258.800781 122.238281 258.515625 121.605469 C 258.179688 120.859375 257.871094 120.105469 257.519531 119.371094 C 300.316406 132.476562 329.5 168.6875 329.5 210.039062 C 329.5 228.679688 323.511719 246.785156 312.160156 262.414062 C 307.90625 268.367188 302.953125 273.800781 297.433594 278.570312 C 295.925781 279.871094 295.644531 282.097656 296.773438 283.734375 L 313.777344 308.367188 C 309.96875 309.660156 305.820312 310.335938 301.5625 310.335938 Z M 301.5625 310.335938 " fill-opacity="1" fill-rule="nonzero"/></g><path fill="#c1ff72" d="M 109.046875 149.609375 C 101.710938 149.609375 96.472656 155.058594 96.472656 162.8125 C 96.472656 170.355469 101.503906 176.007812 108.832031 176.007812 C 116.585938 176.007812 121.40625 170.355469 121.40625 162.8125 C 121.40625 155.058594 116.382812 149.609375 109.046875 149.609375 Z M 109.046875 149.609375 " fill-opacity="1" fill-rule="nonzero"/><path fill="#c1ff72" d="M 152.222656 176.007812 C 159.976562 176.007812 164.796875 170.355469 164.796875 162.8125 C 164.796875 155.058594 159.773438 149.609375 152.4375 149.609375 C 145.101562 149.609375 139.863281 155.058594 139.863281 162.8125 C 139.863281 170.355469 144.894531 176.007812 152.222656 176.007812 Z M 152.222656 176.007812 " fill-opacity="1" fill-rule="nonzero"/><path fill="#c1ff72" d="M 195.613281 176.007812 C 203.367188 176.007812 208.1875 170.355469 208.1875 162.8125 C 208.1875 155.058594 203.164062 149.609375 195.828125 149.609375 C 188.492188 149.609375 183.253906 155.058594 183.253906 162.8125 C 183.253906 170.355469 188.285156 176.007812 195.613281 176.007812 Z M 195.613281 176.007812 " fill-opacity="1" fill-rule="nonzero"/><g clip-path="url(#f9c16eb0af)"><g clip-path="url(#1276ab98e2)"><path stroke-linecap="butt" transform="matrix(0.75, 0, 0, 0.75, 0.00373959, 0.613636)" fill="none" stroke-linejoin="miter" d="M 23.000224 -0.000473437 L 476.989837 -0.000473437 C 483.088796 -0.000473437 488.942963 2.421402 493.255463 6.733902 C 497.567963 11.051611 499.989838 16.900569 499.989838 22.999528 L 499.989838 476.171433 C 499.989838 482.270392 497.567963 488.124559 493.255463 492.437059 C 488.942963 496.749559 483.088796 499.171434 476.989837 499.171434 L 23.000224 499.171434 C 16.901265 499.171434 11.047098 496.749559 6.734598 492.437059 C 2.422097 488.124559 0.000222213 482.270392 0.000222213 476.171433 L 0.000222213 22.999528 C 0.000222213 16.900569 2.422097 11.051611 6.734598 6.733902 C 11.047098 2.421402 16.901265 -0.000473437 23.000224 -0.000473437 Z M 23.000224 -0.000473437 " stroke="#275800" stroke-width="6" stroke-opacity="1" stroke-miterlimit="4"/></g></g></svg>