<svg xmlns="http://www.w3.org/2000/svg" xmlns:xlink="http://www.w3.org/1999/xlink" width="500" zoomAndPan="magnify" viewBox="0 0 375 374.999991" height="500" preserveAspectRatio="xMidYMid meet" version="1.0"><defs><clipPath id="019f97a6ac"><path d="M 7.5 0 L 367.5 0 C 371.640625 0 375 3.359375 375 7.5 L 375 367.5 C 375 371.640625 371.640625 375 367.5 375 L 7.5 375 C 3.359375 375 0 371.640625 0 367.5 L 0 7.5 C 0 3.359375 3.359375 0 7.5 0 Z M 7.5 0 " clip-rule="nonzero"/></clipPath><clipPath id="2d87216d36"><path d="M 0 0 L 375 0 L 375 375 L 0 375 Z M 0 0 " clip-rule="nonzero"/></clipPath><clipPath id="606cea6f05"><path d="M 7.5 0 L 367.5 0 C 371.640625 0 375 3.359375 375 7.5 L 375 367.5 C 375 371.640625 371.640625 375 367.5 375 L 7.5 375 C 3.359375 375 0 371.640625 0 367.5 L 0 7.5 C 0 3.359375 3.359375 0 7.5 0 Z M 7.5 0 " clip-rule="nonzero"/></clipPath><clipPath id="d78bfe112c"><rect x="0" width="375" y="0" height="375"/></clipPath><clipPath id="0f579819be"><path d="M 116.820312 139.429688 L 183.980469 139.429688 L 183.980469 277.949219 L 116.820312 277.949219 Z M 116.820312 139.429688 " clip-rule="nonzero"/></clipPath><clipPath id="2794518c0f"><path d="M 120.570312 139.429688 L 180.230469 139.429688 C 181.226562 139.429688 182.179688 139.824219 182.882812 140.527344 C 183.585938 141.230469 183.980469 142.183594 183.980469 143.179688 L 183.980469 274.074219 C 183.980469 275.066406 183.585938 276.019531 182.882812 276.722656 C 182.179688 277.425781 181.226562 277.824219 180.230469 277.824219 L 120.570312 277.824219 C 119.574219 277.824219 118.621094 277.425781 117.917969 276.722656 C 117.214844 276.019531 116.820312 275.066406 116.820312 274.074219 L 116.820312 143.179688 C 116.820312 142.183594 117.214844 141.230469 117.917969 140.527344 C 118.621094 139.824219 119.574219 139.429688 120.570312 139.429688 Z M 120.570312 139.429688 " clip-rule="nonzero"/></clipPath><clipPath id="a79ff8273d"><path d="M 0.820312 0.429688 L 67.980469 0.429688 L 67.980469 138.921875 L 0.820312 138.921875 Z M 0.820312 0.429688 " clip-rule="nonzero"/></clipPath><clipPath id="2913360ba7"><path d="M 4.570312 0.429688 L 64.230469 0.429688 C 65.226562 0.429688 66.179688 0.824219 66.882812 1.527344 C 67.585938 2.230469 67.980469 3.183594 67.980469 4.179688 L 67.980469 135.074219 C 67.980469 136.066406 67.585938 137.019531 66.882812 137.722656 C 66.179688 138.425781 65.226562 138.824219 64.230469 138.824219 L 4.570312 138.824219 C 3.574219 138.824219 2.621094 138.425781 1.917969 137.722656 C 1.214844 137.019531 0.820312 136.066406 0.820312 135.074219 L 0.820312 4.179688 C 0.820312 3.183594 1.214844 2.230469 1.917969 1.527344 C 2.621094 0.824219 3.574219 0.429688 4.570312 0.429688 Z M 4.570312 0.429688 " clip-rule="nonzero"/></clipPath><clipPath id="e6d89858cb"><rect x="0" width="68" y="0" height="139"/></clipPath><clipPath id="39a1ee0b48"><path d="M 206.566406 106.242188 L 273.726562 106.242188 L 273.726562 278 L 206.566406 278 Z M 206.566406 106.242188 " clip-rule="nonzero"/></clipPath><clipPath id="c7c4c41e82"><path d="M 210.316406 106.242188 L 269.976562 106.242188 C 270.972656 106.242188 271.925781 106.636719 272.628906 107.339844 C 273.332031 108.042969 273.726562 108.996094 273.726562 109.992188 L 273.726562 274.074219 C 273.726562 275.066406 273.332031 276.019531 272.628906 276.722656 C 271.925781 277.425781 270.972656 277.824219 269.976562 277.824219 L 210.316406 277.824219 C 209.320312 277.824219 208.367188 277.425781 207.664062 276.722656 C 206.960938 276.019531 206.566406 275.066406 206.566406 274.074219 L 206.566406 109.992188 C 206.566406 108.996094 206.960938 108.042969 207.664062 107.339844 C 208.367188 106.636719 209.320312 106.242188 210.316406 106.242188 Z M 210.316406 106.242188 " clip-rule="nonzero"/></clipPath><clipPath id="eddebbed63"><path d="M 0.566406 0.242188 L 67.726562 0.242188 L 67.726562 171.921875 L 0.566406 171.921875 Z M 0.566406 0.242188 " clip-rule="nonzero"/></clipPath><clipPath id="55fd530c3b"><path d="M 4.316406 0.242188 L 63.976562 0.242188 C 64.972656 0.242188 65.925781 0.636719 66.628906 1.339844 C 67.332031 2.042969 67.726562 2.996094 67.726562 3.992188 L 67.726562 168.074219 C 67.726562 169.066406 67.332031 170.019531 66.628906 170.722656 C 65.925781 171.425781 64.972656 171.824219 63.976562 171.824219 L 4.316406 171.824219 C 3.320312 171.824219 2.367188 171.425781 1.664062 170.722656 C 0.960938 170.019531 0.566406 169.066406 0.566406 168.074219 L 0.566406 3.992188 C 0.566406 2.996094 0.960938 2.042969 1.664062 1.339844 C 2.367188 0.636719 3.320312 0.242188 4.316406 0.242188 Z M 4.316406 0.242188 " clip-rule="nonzero"/></clipPath><clipPath id="9851907bc0"><rect x="0" width="68" y="0" height="172"/></clipPath><clipPath id="97c6736285"><path d="M 296.382812 84.445312 L 363.542969 84.445312 L 363.542969 278 L 296.382812 278 Z M 296.382812 84.445312 " clip-rule="nonzero"/></clipPath><clipPath id="2ae8af4868"><path d="M 300.132812 84.445312 L 359.792969 84.445312 C 360.785156 84.445312 361.742188 84.839844 362.445312 85.546875 C 363.148438 86.25 363.542969 87.203125 363.542969 88.195312 L 363.542969 274.074219 C 363.542969 275.066406 363.148438 276.019531 362.445312 276.722656 C 361.742188 277.425781 360.785156 277.824219 359.792969 277.824219 L 300.132812 277.824219 C 299.136719 277.824219 298.183594 277.425781 297.480469 276.722656 C 296.777344 276.019531 296.382812 275.066406 296.382812 274.074219 L 296.382812 88.195312 C 296.382812 87.203125 296.777344 86.25 297.480469 85.546875 C 298.183594 84.839844 299.136719 84.445312 300.132812 84.445312 Z M 300.132812 84.445312 " clip-rule="nonzero"/></clipPath><clipPath id="cdaf37b7ae"><path d="M 0.382812 0.445312 L 67.542969 0.445312 L 67.542969 193.921875 L 0.382812 193.921875 Z M 0.382812 0.445312 " clip-rule="nonzero"/></clipPath><clipPath id="7a6937631a"><path d="M 4.132812 0.445312 L 63.792969 0.445312 C 64.785156 0.445312 65.742188 0.839844 66.445312 1.546875 C 67.148438 2.25 67.542969 3.203125 67.542969 4.195312 L 67.542969 190.074219 C 67.542969 191.066406 67.148438 192.019531 66.445312 192.722656 C 65.742188 193.425781 64.785156 193.824219 63.792969 193.824219 L 4.132812 193.824219 C 3.136719 193.824219 2.183594 193.425781 1.480469 192.722656 C 0.777344 192.019531 0.382812 191.066406 0.382812 190.074219 L 0.382812 4.195312 C 0.382812 3.203125 0.777344 2.25 1.480469 1.546875 C 2.183594 0.839844 3.136719 0.445312 4.132812 0.445312 Z M 4.132812 0.445312 " clip-rule="nonzero"/></clipPath><clipPath id="86c7ccbfae"><rect x="0" width="68" y="0" height="194"/></clipPath><clipPath id="de459ab52c"><path d="M 118.914062 66.671875 L 181.914062 66.671875 L 181.914062 129.671875 L 118.914062 129.671875 Z M 118.914062 66.671875 " clip-rule="nonzero"/></clipPath><clipPath id="78f37c982b"><path d="M 208.660156 35.1875 L 271.660156 35.1875 L 271.660156 98.1875 L 208.660156 98.1875 Z M 208.660156 35.1875 " clip-rule="nonzero"/></clipPath><clipPath id="7f473bbafe"><path d="M 298.460938 11.972656 L 361.460938 11.972656 L 361.460938 74.972656 L 298.460938 74.972656 Z M 298.460938 11.972656 " clip-rule="nonzero"/></clipPath><clipPath id="d0e7c6591a"><path d="M 36.117188 198.402344 L 187.066406 198.402344 L 187.066406 349.351562 L 36.117188 349.351562 Z M 36.117188 198.402344 " clip-rule="nonzero"/></clipPath><clipPath id="2016e415a1"><path d="M 111.589844 198.402344 C 69.90625 198.402344 36.117188 232.195312 36.117188 273.878906 C 36.117188 315.5625 69.90625 349.351562 111.589844 349.351562 C 153.273438 349.351562 187.066406 315.5625 187.066406 273.878906 C 187.066406 232.195312 153.273438 198.402344 111.589844 198.402344 Z M 111.589844 198.402344 " clip-rule="nonzero"/></clipPath><clipPath id="c7322b540f"><path d="M 0.117188 0.402344 L 151.066406 0.402344 L 151.066406 151.351562 L 0.117188 151.351562 Z M 0.117188 0.402344 " clip-rule="nonzero"/></clipPath><clipPath id="ea3baebc90"><path d="M 75.589844 0.402344 C 33.90625 0.402344 0.117188 34.195312 0.117188 75.878906 C 0.117188 117.5625 33.90625 151.351562 75.589844 151.351562 C 117.273438 151.351562 151.066406 117.5625 151.066406 75.878906 C 151.066406 34.195312 117.273438 0.402344 75.589844 0.402344 Z M 75.589844 0.402344 " clip-rule="nonzero"/></clipPath><clipPath id="603c50b85d"><rect x="0" width="152" y="0" height="152"/></clipPath><clipPath id="9dc2b6b56d"><path d="M 10 207 L 175 207 L 175 359 L 10 359 Z M 10 207 " clip-rule="nonzero"/></clipPath><clipPath id="b9b03379be"><path d="M 177.835938 210.382812 L 170.816406 366.976562 L 8.230469 359.691406 L 15.246094 203.097656 Z M 177.835938 210.382812 " clip-rule="nonzero"/></clipPath><clipPath id="413e085941"><path d="M 177.835938 210.382812 L 170.816406 366.976562 L 8.230469 359.691406 L 15.246094 203.097656 Z M 177.835938 210.382812 " clip-rule="nonzero"/></clipPath></defs><g clip-path="url(#019f97a6ac)"><g transform="matrix(1, 0, 0, 1, 0, 0)"><g clip-path="url(#d78bfe112c)"><g clip-path="url(#2d87216d36)"><g clip-path="url(#606cea6f05)"><rect x="-82.5" width="540" fill="#ffffff" height="539.999987" y="-82.499998" fill-opacity="1"/></g></g></g></g></g><g clip-path="url(#0f579819be)"><g clip-path="url(#2794518c0f)"><g transform="matrix(1, 0, 0, 1, 116, 139)"><g clip-path="url(#e6d89858cb)"><g clip-path="url(#a79ff8273d)"><g clip-path="url(#2913360ba7)"><path fill="#93e85f" d="M 0.820312 0.429688 L 67.980469 0.429688 L 67.980469 138.949219 L 0.820312 138.949219 Z M 0.820312 0.429688 " fill-opacity="1" fill-rule="nonzero"/></g></g></g></g></g></g><g clip-path="url(#39a1ee0b48)"><g clip-path="url(#c7c4c41e82)"><g transform="matrix(1, 0, 0, 1, 206, 106)"><g clip-path="url(#9851907bc0)"><g clip-path="url(#eddebbed63)"><g clip-path="url(#55fd530c3b)"><path fill="#155655" d="M 0.566406 0.242188 L 67.726562 0.242188 L 67.726562 171.816406 L 0.566406 171.816406 Z M 0.566406 0.242188 " fill-opacity="1" fill-rule="nonzero"/></g></g></g></g></g></g><g clip-path="url(#97c6736285)"><g clip-path="url(#2ae8af4868)"><g transform="matrix(1, 0, 0, 1, 296, 84)"><g clip-path="url(#86c7ccbfae)"><g clip-path="url(#cdaf37b7ae)"><g clip-path="url(#7a6937631a)"><path fill="#93e85f" d="M 0.382812 0.445312 L 67.542969 0.445312 L 67.542969 193.796875 L 0.382812 193.796875 Z M 0.382812 0.445312 " fill-opacity="1" fill-rule="nonzero"/></g></g></g></g></g></g><g clip-path="url(#de459ab52c)"><path fill="#93e85f" d="M 180.859375 129.632812 L 119.941406 129.632812 C 119.390625 129.632812 118.941406 129.1875 118.941406 128.632812 L 118.941406 122.941406 C 118.941406 113.476562 126.644531 105.773438 136.113281 105.773438 L 164.6875 105.773438 C 174.15625 105.773438 181.859375 113.476562 181.859375 122.941406 L 181.859375 128.632812 C 181.859375 129.1875 181.410156 129.632812 180.859375 129.632812 Z M 150.402344 103.085938 C 140.359375 103.085938 132.191406 94.917969 132.191406 84.878906 C 132.191406 74.839844 140.359375 66.671875 150.402344 66.671875 C 160.441406 66.671875 168.609375 74.839844 168.609375 84.878906 C 168.609375 94.917969 160.441406 103.085938 150.402344 103.085938 Z M 150.402344 103.085938 " fill-opacity="1" fill-rule="nonzero"/></g><g clip-path="url(#78f37c982b)"><path fill="#155655" d="M 270.605469 98.148438 L 209.683594 98.148438 C 209.132812 98.148438 208.6875 97.699219 208.6875 97.148438 L 208.6875 91.457031 C 208.6875 81.988281 216.390625 74.285156 225.859375 74.285156 L 254.433594 74.285156 C 263.902344 74.285156 271.605469 81.988281 271.605469 91.457031 L 271.605469 97.148438 C 271.605469 97.699219 271.15625 98.148438 270.605469 98.148438 Z M 240.144531 71.601562 C 230.105469 71.601562 221.9375 63.433594 221.9375 53.394531 C 221.9375 43.355469 230.105469 35.1875 240.144531 35.1875 C 250.183594 35.1875 258.351562 43.355469 258.351562 53.394531 C 258.351562 63.433594 250.183594 71.601562 240.144531 71.601562 Z M 240.144531 71.601562 " fill-opacity="1" fill-rule="nonzero"/></g><g clip-path="url(#7f473bbafe)"><path fill="#93e85f" d="M 360.40625 74.933594 L 299.484375 74.933594 C 298.933594 74.933594 298.484375 74.488281 298.484375 73.933594 L 298.484375 68.242188 C 298.484375 58.777344 306.1875 51.074219 315.65625 51.074219 L 344.230469 51.074219 C 353.699219 51.074219 361.402344 58.777344 361.402344 68.242188 L 361.402344 73.933594 C 361.402344 74.488281 360.957031 74.933594 360.40625 74.933594 Z M 329.945312 48.386719 C 319.90625 48.386719 311.738281 40.21875 311.738281 30.179688 C 311.738281 20.140625 319.90625 11.972656 329.945312 11.972656 C 339.984375 11.972656 348.152344 20.140625 348.152344 30.179688 C 348.152344 40.21875 339.984375 48.386719 329.945312 48.386719 Z M 329.945312 48.386719 " fill-opacity="1" fill-rule="nonzero"/></g><g clip-path="url(#d0e7c6591a)"><g clip-path="url(#2016e415a1)"><g transform="matrix(1, 0, 0, 1, 36, 198)"><g clip-path="url(#603c50b85d)"><g clip-path="url(#c7322b540f)"><g clip-path="url(#ea3baebc90)"><path fill="#ffffff" d="M 0.117188 0.402344 L 151.066406 0.402344 L 151.066406 151.351562 L 0.117188 151.351562 Z M 0.117188 0.402344 " fill-opacity="1" fill-rule="nonzero"/></g></g></g></g></g></g><g clip-path="url(#9dc2b6b56d)"><g clip-path="url(#b9b03379be)"><g clip-path="url(#413e085941)"><path fill="#155655" d="M 174.878906 276.3125 C 175.664062 258.835938 169.472656 241.761719 157.664062 228.847656 C 145.859375 215.933594 129.40625 208.238281 111.929688 207.453125 C 94.449219 206.671875 77.375 212.863281 64.460938 224.667969 C 51.546875 236.476562 43.851562 252.925781 43.070312 270.40625 C 42.636719 281.382812 44.949219 292.292969 49.800781 302.148438 L 15.453125 333.03125 C 9.390625 338.484375 8.898438 347.757812 14.351562 353.820312 C 19.804688 359.886719 29.074219 360.378906 35.140625 354.925781 L 68.300781 325.109375 C 79.089844 333.644531 92.277344 338.59375 106.019531 339.265625 C 123.5 340.050781 140.574219 333.855469 153.488281 322.050781 C 166.402344 310.246094 174.097656 293.792969 174.878906 276.3125 Z M 155.683594 276.207031 C 155.160156 287.886719 149.800781 298.871094 140.785156 306.742188 C 131.769531 314.613281 119.835938 318.726562 107.609375 318.179688 C 94.359375 317.554688 82.007812 311.515625 73.703125 301.601562 C 73.527344 301.382812 73.34375 301.164062 73.152344 300.949219 C 73.042969 300.828125 72.929688 300.714844 72.820312 300.601562 C 66.335938 292.40625 63.03125 282.320312 63.480469 272.074219 C 64.003906 260.398438 69.363281 249.414062 78.378906 241.542969 C 87.394531 233.671875 99.328125 229.558594 111.554688 230.105469 C 123.78125 230.652344 135.300781 235.816406 143.574219 244.464844 C 151.851562 253.109375 156.207031 264.527344 155.683594 276.207031 Z M 155.683594 276.207031 " fill-opacity="1" fill-rule="evenodd"/></g></g></g></svg>