<svg xmlns="http://www.w3.org/2000/svg" xmlns:xlink="http://www.w3.org/1999/xlink" width="40" zoomAndPan="magnify" viewBox="0 0 30 30.000001" height="40" preserveAspectRatio="xMidYMid meet" version="1.0"><defs><clipPath id="0859166b2e"><path d="M 0.484375 0 L 29.515625 0 L 29.515625 29.03125 L 0.484375 29.03125 Z M 0.484375 0 " clip-rule="nonzero"/></clipPath><clipPath id="9ee7fc69d7"><path d="M 0.484375 0 L 29.515625 0 L 29.515625 29.03125 L 0.484375 29.03125 Z M 0.484375 0 " clip-rule="nonzero"/></clipPath><clipPath id="d55c028efb"><path d="M 1.933594 0 L 28.066406 0 C 28.867188 0 29.515625 0.648438 29.515625 1.453125 L 29.515625 27.582031 C 29.515625 28.382812 28.867188 29.03125 28.066406 29.03125 L 1.933594 29.03125 C 1.132812 29.03125 0.484375 28.382812 0.484375 27.582031 L 0.484375 1.453125 C 0.484375 0.648438 1.132812 0 1.933594 0 Z M 1.933594 0 " clip-rule="nonzero"/></clipPath><clipPath id="c96dd4d3b4"><path d="M 0.484375 0 L 29.515625 0 L 29.515625 29.03125 L 0.484375 29.03125 Z M 0.484375 0 " clip-rule="nonzero"/></clipPath><clipPath id="2143d9de03"><path d="M 1.933594 0 L 28.066406 0 C 28.867188 0 29.515625 0.648438 29.515625 1.453125 L 29.515625 27.582031 C 29.515625 28.382812 28.867188 29.03125 28.066406 29.03125 L 1.933594 29.03125 C 1.132812 29.03125 0.484375 28.382812 0.484375 27.582031 L 0.484375 1.453125 C 0.484375 0.648438 1.132812 0 1.933594 0 Z M 1.933594 0 " clip-rule="nonzero"/></clipPath><clipPath id="407d0a3007"><rect x="0" width="30" y="0" height="30"/></clipPath><clipPath id="e206998912"><path d="M 17 14 L 26.613281 14 L 26.613281 21 L 17 21 Z M 17 14 " clip-rule="nonzero"/></clipPath><clipPath id="710804dadc"><path d="M 3.386719 14 L 13 14 L 13 21 L 3.386719 21 Z M 3.386719 14 " clip-rule="nonzero"/></clipPath><clipPath id="e85513327d"><path d="M 8 15 L 22 15 L 22 22.414062 L 8 22.414062 Z M 8 15 " clip-rule="nonzero"/></clipPath><clipPath id="4c950444b4"><path d="M 10 6.445312 L 20 6.445312 L 20 15 L 10 15 Z M 10 6.445312 " clip-rule="nonzero"/></clipPath></defs><g clip-path="url(#0859166b2e)"><path fill="#ffffff" d="M 0.484375 0 L 29.515625 0 L 29.515625 29.03125 L 0.484375 29.03125 Z M 0.484375 0 " fill-opacity="1" fill-rule="nonzero"/><path fill="#ffffff" d="M 0.484375 0 L 29.515625 0 L 29.515625 29.03125 L 0.484375 29.03125 Z M 0.484375 0 " fill-opacity="1" fill-rule="nonzero"/></g><g clip-path="url(#9ee7fc69d7)"><g clip-path="url(#d55c028efb)"><g transform="matrix(1, 0, 0, 1, 0, 0.000000000000005692)"><g clip-path="url(#407d0a3007)"><g clip-path="url(#c96dd4d3b4)"><g clip-path="url(#2143d9de03)"><path fill="#93e85f" d="M 0.484375 0 L 29.515625 0 L 29.515625 29.03125 L 0.484375 29.03125 Z M 0.484375 0 " fill-opacity="1" fill-rule="nonzero"/></g></g></g></g></g></g><g clip-path="url(#e206998912)"><path fill="#000000" d="M 21.695312 20.679688 L 26.582031 20.679688 C 26 16.183594 23.75 14.964844 21.066406 14.964844 C 19.894531 14.964844 18.804688 15.199219 17.902344 15.832031 C 19.789062 16.582031 21.046875 18.1875 21.695312 20.679688 " fill-opacity="1" fill-rule="nonzero"/></g><path fill="#000000" d="M 21.066406 7.164062 C 20.199219 7.164062 19.410156 7.484375 18.804688 8.011719 C 19.300781 8.742188 19.589844 9.617188 19.589844 10.5625 C 19.589844 11.535156 19.277344 12.433594 18.753906 13.175781 C 19.367188 13.726562 20.175781 14.066406 21.066406 14.066406 C 22.972656 14.066406 24.515625 12.519531 24.515625 10.617188 C 24.515625 8.707031 22.972656 7.164062 21.066406 7.164062 " fill-opacity="1" fill-rule="nonzero"/><g clip-path="url(#710804dadc)"><path fill="#000000" d="M 8.3125 20.679688 L 3.425781 20.679688 C 4.011719 16.183594 6.257812 14.964844 8.941406 14.964844 C 10.113281 14.964844 11.203125 15.199219 12.109375 15.832031 C 10.21875 16.582031 8.960938 18.1875 8.3125 20.679688 " fill-opacity="1" fill-rule="nonzero"/></g><path fill="#000000" d="M 8.941406 7.164062 C 9.808594 7.164062 10.597656 7.484375 11.207031 8.011719 C 10.710938 8.742188 10.417969 9.617188 10.417969 10.5625 C 10.417969 11.535156 10.730469 12.433594 11.253906 13.175781 C 10.640625 13.726562 9.832031 14.066406 8.941406 14.066406 C 7.035156 14.066406 5.488281 12.519531 5.488281 10.617188 C 5.488281 8.707031 7.035156 7.164062 8.941406 7.164062 " fill-opacity="1" fill-rule="nonzero"/><g clip-path="url(#e85513327d)"><path fill="#000000" d="M 21.585938 22.578125 C 20.894531 17.210938 18.210938 15.753906 15.003906 15.753906 C 11.796875 15.753906 9.117188 17.210938 8.421875 22.578125 L 21.585938 22.578125 " fill-opacity="1" fill-rule="nonzero"/></g><g clip-path="url(#4c950444b4)"><path fill="#000000" d="M 19.125 10.5625 C 19.125 12.835938 17.277344 14.683594 15.003906 14.683594 C 12.730469 14.683594 10.882812 12.835938 10.882812 10.5625 C 10.882812 8.285156 12.730469 6.441406 15.003906 6.441406 C 17.277344 6.441406 19.125 8.285156 19.125 10.5625 " fill-opacity="1" fill-rule="nonzero"/></g></svg>