<svg xmlns="http://www.w3.org/2000/svg" xmlns:xlink="http://www.w3.org/1999/xlink" width="40" zoomAndPan="magnify" viewBox="0 0 30 30.000001" height="40" preserveAspectRatio="xMidYMid meet" version="1.0"><defs><clipPath id="b2c58952cb"><path d="M 0.484375 0 L 29.515625 0 L 29.515625 29.03125 L 0.484375 29.03125 Z M 0.484375 0 " clip-rule="nonzero"/></clipPath><clipPath id="b7c4552980"><path d="M 0.484375 0 L 29.515625 0 L 29.515625 29.03125 L 0.484375 29.03125 Z M 0.484375 0 " clip-rule="nonzero"/></clipPath><clipPath id="3089d00bf1"><path d="M 1.933594 0 L 28.066406 0 C 28.867188 0 29.515625 0.648438 29.515625 1.453125 L 29.515625 27.582031 C 29.515625 28.382812 28.867188 29.03125 28.066406 29.03125 L 1.933594 29.03125 C 1.132812 29.03125 0.484375 28.382812 0.484375 27.582031 L 0.484375 1.453125 C 0.484375 0.648438 1.132812 0 1.933594 0 Z M 1.933594 0 " clip-rule="nonzero"/></clipPath><clipPath id="443a9baf4b"><path d="M 0.484375 0 L 29.515625 0 L 29.515625 29.03125 L 0.484375 29.03125 Z M 0.484375 0 " clip-rule="nonzero"/></clipPath><clipPath id="9c56817c87"><path d="M 1.933594 0 L 28.066406 0 C 28.867188 0 29.515625 0.648438 29.515625 1.453125 L 29.515625 27.582031 C 29.515625 28.382812 28.867188 29.03125 28.066406 29.03125 L 1.933594 29.03125 C 1.132812 29.03125 0.484375 28.382812 0.484375 27.582031 L 0.484375 1.453125 C 0.484375 0.648438 1.132812 0 1.933594 0 Z M 1.933594 0 " clip-rule="nonzero"/></clipPath><clipPath id="f6eaa92445"><rect x="0" width="30" y="0" height="30"/></clipPath><clipPath id="5b5fd6ee26"><path d="M 4.105469 2.902344 L 23 2.902344 L 23 26.128906 L 4.105469 26.128906 Z M 4.105469 2.902344 " clip-rule="nonzero"/></clipPath><clipPath id="a253c452d5"><path d="M 16 12 L 26.605469 12 L 26.605469 23 L 16 23 Z M 16 12 " clip-rule="nonzero"/></clipPath></defs><g clip-path="url(#b2c58952cb)"><path fill="#ffffff" d="M 0.484375 0 L 29.515625 0 L 29.515625 29.03125 L 0.484375 29.03125 Z M 0.484375 0 " fill-opacity="1" fill-rule="nonzero"/><path fill="#ffffff" d="M 0.484375 0 L 29.515625 0 L 29.515625 29.03125 L 0.484375 29.03125 Z M 0.484375 0 " fill-opacity="1" fill-rule="nonzero"/></g><g clip-path="url(#b7c4552980)"><g clip-path="url(#3089d00bf1)"><g transform="matrix(1, 0, 0, 1, 0, 0.000000000000005692)"><g clip-path="url(#f6eaa92445)"><g clip-path="url(#443a9baf4b)"><g clip-path="url(#9c56817c87)"><path fill="#93e85f" d="M 0.484375 0 L 29.515625 0 L 29.515625 29.03125 L 0.484375 29.03125 Z M 0.484375 0 " fill-opacity="1" fill-rule="nonzero"/></g></g></g></g></g></g><path fill="#000000" d="M 21.820312 10.164062 C 21.722656 10.164062 21.652344 10.238281 21.652344 10.335938 L 21.652344 13.5625 C 21.625 13.660156 21.699219 13.757812 21.820312 13.757812 C 21.917969 13.78125 22.015625 13.710938 22.015625 13.585938 C 22.015625 13.5625 22.015625 13.5625 22.015625 13.539062 L 22.015625 10.335938 C 22.015625 10.238281 21.945312 10.164062 21.820312 10.164062 C 21.847656 10.164062 21.820312 10.164062 21.820312 10.164062 Z M 21.820312 10.164062 " fill-opacity="1" fill-rule="nonzero"/><g clip-path="url(#5b5fd6ee26)"><path fill="#000000" d="M 21.820312 20.382812 C 21.722656 20.382812 21.652344 20.457031 21.652344 20.554688 L 21.652344 23.5625 C 21.652344 24.761719 20.671875 25.738281 19.472656 25.738281 L 6.710938 25.738281 C 5.515625 25.761719 4.535156 24.785156 4.535156 23.585938 L 4.535156 5.445312 C 4.535156 4.246094 5.515625 3.269531 6.710938 3.269531 L 15.417969 3.269531 C 15.269531 3.464844 15.171875 3.710938 15.195312 3.953125 L 15.195312 8.183594 C 15.21875 8.746094 15.683594 9.210938 16.273438 9.1875 L 21.652344 9.1875 L 21.652344 9.285156 C 21.625 9.382812 21.699219 9.480469 21.820312 9.480469 C 21.917969 9.503906 22.015625 9.429688 22.015625 9.308594 C 22.015625 9.285156 22.015625 9.285156 22.015625 9.257812 L 22.015625 9.039062 C 22.015625 9.039062 22.015625 9.015625 22.015625 9.015625 C 22.015625 9.015625 22.015625 9.015625 22.015625 8.992188 C 22.015625 8.964844 22.015625 8.964844 22.015625 8.941406 C 21.992188 8.820312 21.945312 8.722656 21.871094 8.648438 L 16.371094 3.074219 C 16.273438 2.953125 16.101562 2.902344 15.953125 2.902344 L 6.710938 2.902344 C 5.320312 2.902344 4.171875 4.050781 4.171875 5.445312 L 4.171875 23.585938 C 4.171875 25.003906 5.320312 26.128906 6.710938 26.128906 L 19.472656 26.128906 C 20.890625 26.128906 22.015625 24.980469 22.015625 23.585938 L 22.015625 20.554688 C 22.015625 20.457031 21.945312 20.382812 21.820312 20.382812 C 21.847656 20.382812 21.820312 20.382812 21.820312 20.382812 Z M 21.503906 8.820312 L 16.273438 8.820312 C 15.90625 8.84375 15.585938 8.550781 15.5625 8.183594 L 15.5625 3.953125 C 15.515625 3.636719 15.734375 3.367188 16.050781 3.320312 C 16.078125 3.320312 16.078125 3.320312 16.101562 3.320312 C 16.101562 3.320312 16.125 3.320312 16.125 3.34375 Z M 21.503906 8.820312 " fill-opacity="1" fill-rule="nonzero"/></g><path fill="#000000" d="M 15.90625 18.5 L 7.03125 18.5 C 6.933594 18.527344 6.859375 18.597656 6.859375 18.695312 C 6.859375 18.769531 6.933594 18.84375 7.03125 18.867188 L 15.90625 18.867188 C 16.003906 18.890625 16.101562 18.820312 16.101562 18.695312 C 16.101562 18.574219 16.050781 18.5 15.929688 18.5 C 15.953125 18.5 15.929688 18.5 15.90625 18.5 Z M 15.90625 18.5 " fill-opacity="1" fill-rule="nonzero"/><path fill="#000000" d="M 19.597656 15.445312 C 19.597656 15.347656 19.523438 15.273438 19.425781 15.273438 L 7.03125 15.273438 C 6.933594 15.296875 6.859375 15.371094 6.859375 15.46875 C 6.859375 15.542969 6.933594 15.617188 7.03125 15.640625 L 19.402344 15.640625 C 19.5 15.640625 19.597656 15.566406 19.597656 15.445312 C 19.597656 15.46875 19.597656 15.46875 19.597656 15.445312 Z M 19.597656 15.445312 " fill-opacity="1" fill-rule="nonzero"/><path fill="#000000" d="M 19.402344 12.046875 L 7.03125 12.046875 C 6.933594 12.070312 6.859375 12.144531 6.859375 12.242188 C 6.859375 12.316406 6.933594 12.390625 7.03125 12.414062 L 19.402344 12.414062 C 19.5 12.4375 19.597656 12.363281 19.597656 12.242188 C 19.621094 12.144531 19.546875 12.046875 19.425781 12.046875 C 19.449219 12.046875 19.425781 12.046875 19.402344 12.046875 Z M 19.402344 12.046875 " fill-opacity="1" fill-rule="nonzero"/><path fill="#000000" d="M 7.03125 21.726562 C 6.933594 21.753906 6.859375 21.824219 6.859375 21.925781 C 6.859375 21.996094 6.933594 22.070312 7.03125 22.09375 L 11.0625 22.09375 C 11.164062 22.121094 11.261719 22.046875 11.261719 21.925781 C 11.285156 21.824219 11.210938 21.726562 11.089844 21.726562 C 11.0625 21.726562 11.0625 21.726562 11.039062 21.726562 Z M 7.03125 21.726562 " fill-opacity="1" fill-rule="nonzero"/><path fill="#000000" d="M 15.90625 21.726562 L 12.140625 21.726562 C 12.042969 21.753906 11.96875 21.824219 11.96875 21.925781 C 11.96875 21.996094 12.042969 22.070312 12.140625 22.09375 L 15.90625 22.09375 C 16.003906 22.121094 16.101562 22.046875 16.101562 21.925781 C 16.125 21.824219 16.050781 21.726562 15.929688 21.726562 C 15.953125 21.726562 15.929688 21.726562 15.90625 21.726562 Z M 15.90625 21.726562 " fill-opacity="1" fill-rule="nonzero"/><path fill="#000000" d="M 12.875 8.992188 C 12.875 8.894531 12.800781 8.820312 12.703125 8.820312 L 6.761719 8.820312 C 6.664062 8.84375 6.589844 8.917969 6.589844 9.015625 C 6.589844 9.089844 6.664062 9.160156 6.761719 9.1875 L 12.679688 9.1875 C 12.777344 9.1875 12.875 9.113281 12.875 8.992188 C 12.875 9.015625 12.875 8.992188 12.875 8.992188 Z M 12.875 8.992188 " fill-opacity="1" fill-rule="nonzero"/><g clip-path="url(#a253c452d5)"><path fill="#000000" d="M 26.074219 12.855469 C 25.855469 12.632812 25.5625 12.511719 25.269531 12.511719 C 25.023438 12.511719 24.78125 12.609375 24.585938 12.757812 C 24.386719 12.757812 24.191406 12.828125 24.046875 12.976562 L 17.542969 19.480469 C 17.445312 19.578125 17.394531 19.675781 17.371094 19.796875 C 17.347656 19.820312 17.347656 19.847656 17.347656 19.871094 L 16.761719 21.996094 C 16.734375 22.070312 16.761719 22.121094 16.808594 22.167969 C 16.835938 22.191406 16.882812 22.21875 16.933594 22.21875 C 16.957031 22.21875 16.957031 22.21875 16.980469 22.21875 L 18.007812 21.949219 C 18.105469 21.925781 18.15625 21.800781 18.105469 21.703125 C 18.082031 21.628906 17.984375 21.582031 17.910156 21.582031 L 17.175781 21.777344 L 17.519531 20.507812 L 18.449219 21.433594 C 18.59375 21.582031 18.765625 21.65625 18.960938 21.65625 C 19.15625 21.65625 19.351562 21.582031 19.472656 21.433594 L 25.976562 14.933594 C 26.125 14.761719 26.222656 14.539062 26.171875 14.320312 C 26.539062 13.878906 26.492188 13.246094 26.074219 12.855469 Z M 25.269531 12.878906 C 25.488281 12.878906 25.683594 12.953125 25.832031 13.097656 C 26.027344 13.292969 26.101562 13.585938 26.027344 13.855469 L 25.046875 12.902344 C 25.148438 12.902344 25.195312 12.878906 25.269531 12.878906 Z M 25.757812 14.6875 L 19.253906 21.191406 C 19.109375 21.335938 18.886719 21.335938 18.742188 21.191406 L 17.8125 20.238281 C 17.738281 20.164062 17.714844 20.066406 17.714844 19.992188 C 17.714844 19.894531 17.738281 19.796875 17.8125 19.722656 L 24.316406 13.21875 C 24.460938 13.074219 24.683594 13.074219 24.828125 13.21875 L 25.757812 14.175781 C 25.878906 14.320312 25.878906 14.539062 25.757812 14.6875 Z M 25.757812 14.6875 " fill-opacity="1" fill-rule="nonzero"/></g><path fill="#000000" d="M 24.65625 14.027344 L 18.714844 19.96875 C 18.644531 20.042969 18.644531 20.164062 18.714844 20.238281 C 18.789062 20.308594 18.914062 20.308594 18.984375 20.238281 L 24.925781 14.296875 C 25 14.222656 25 14.101562 24.925781 14.050781 C 24.851562 13.976562 24.753906 13.976562 24.65625 14.027344 Z M 24.65625 14.027344 " fill-opacity="1" fill-rule="nonzero"/></svg>