<svg xmlns="http://www.w3.org/2000/svg" xmlns:xlink="http://www.w3.org/1999/xlink" width="40" zoomAndPan="magnify" viewBox="0 0 30 30.000001" height="40" preserveAspectRatio="xMidYMid meet" version="1.0"><defs><clipPath id="c1fe29e73d"><path d="M 10 16 L 20 16 L 20 25.789062 L 10 25.789062 Z M 10 16 " clip-rule="nonzero"/></clipPath><clipPath id="859a7f78d8"><path d="M 19 11 L 29.492188 11 L 29.492188 18 L 19 18 Z M 19 11 " clip-rule="nonzero"/></clipPath><clipPath id="836f281ec6"><path d="M 1.183594 11 L 11 11 L 11 18 L 1.183594 18 Z M 1.183594 11 " clip-rule="nonzero"/></clipPath><clipPath id="93995d4799"><path d="M 11 4.015625 L 19 4.015625 L 19 16 L 11 16 Z M 11 4.015625 " clip-rule="nonzero"/></clipPath></defs><path fill="#01353c" d="M 15.328125 5.636719 C 14.910156 5.636719 14.519531 5.765625 14.167969 5.984375 C 13.730469 6.292969 13.488281 6.730469 13.488281 7.1875 C 13.488281 7.515625 13.597656 7.824219 13.816406 8.085938 C 14.167969 8.5 14.277344 9.046875 14.144531 9.574219 C 14.144531 9.574219 14.144531 9.59375 14.144531 9.59375 L 12.222656 15.171875 C 12.222656 15.195312 12.222656 15.214844 12.242188 15.238281 C 12.265625 15.261719 12.285156 15.261719 12.308594 15.261719 L 18.347656 15.261719 C 18.367188 15.261719 18.390625 15.261719 18.410156 15.238281 C 18.433594 15.214844 18.433594 15.195312 18.433594 15.171875 L 16.507812 9.59375 C 16.507812 9.59375 16.507812 9.574219 16.507812 9.574219 C 16.378906 9.046875 16.507812 8.5 16.859375 8.085938 C 17.144531 7.734375 17.253906 7.296875 17.144531 6.859375 C 17.011719 6.246094 16.441406 5.765625 15.722656 5.65625 C 15.566406 5.636719 15.4375 5.636719 15.328125 5.636719 Z M 15.328125 5.636719 " fill-opacity="1" fill-rule="nonzero"/><g clip-path="url(#c1fe29e73d)"><path fill="#93e85f" d="M 12.679688 25.542969 C 12.265625 25.542969 11.847656 25.433594 11.5 25.191406 C 10.953125 24.839844 10.625 24.25 10.558594 23.617188 C 10.492188 22.960938 10.734375 22.304688 11.191406 21.824219 C 11.519531 21.496094 11.914062 21.296875 12.351562 21.210938 C 12.570312 21.167969 12.769531 21.035156 12.898438 20.839844 L 14.933594 16.8125 C 15.085938 16.550781 15.304688 16.398438 15.589844 16.355469 C 15.851562 16.308594 16.136719 16.398438 16.3125 16.59375 L 19.460938 19.746094 C 19.660156 19.941406 19.746094 20.203125 19.703125 20.464844 C 19.660156 20.75 19.503906 20.992188 19.242188 21.121094 L 15.21875 23.15625 C 15.019531 23.289062 14.890625 23.484375 14.847656 23.726562 C 14.738281 24.316406 14.386719 24.820312 13.882812 25.167969 C 13.535156 25.410156 13.097656 25.542969 12.679688 25.542969 Z M 15.722656 17.230469 L 13.6875 21.253906 C 13.6875 21.277344 13.664062 21.277344 13.664062 21.296875 C 13.402344 21.714844 12.988281 21.976562 12.527344 22.0625 C 12.265625 22.105469 12.003906 22.238281 11.828125 22.433594 C 11.542969 22.71875 11.390625 23.113281 11.433594 23.507812 C 11.476562 23.902344 11.675781 24.230469 12.003906 24.425781 C 12.417969 24.710938 13.007812 24.6875 13.425781 24.402344 C 13.730469 24.183594 13.949219 23.878906 14.015625 23.527344 C 14.101562 23.070312 14.386719 22.652344 14.78125 22.390625 C 14.800781 22.390625 14.800781 22.371094 14.824219 22.371094 L 18.847656 20.355469 Z M 18.847656 20.355469 Z M 18.847656 20.355469 " fill-opacity="1" fill-rule="nonzero"/></g><g clip-path="url(#859a7f78d8)"><path fill="#231f20" d="M 28.867188 13.050781 C 28.453125 12.546875 27.816406 12.242188 27.160156 12.242188 C 26.703125 12.242188 26.285156 12.371094 25.914062 12.636719 C 25.738281 12.765625 25.5 12.808594 25.28125 12.765625 L 20.863281 11.367188 C 20.597656 11.277344 20.316406 11.34375 20.097656 11.519531 C 19.878906 11.695312 19.746094 11.933594 19.746094 12.199219 L 19.746094 16.59375 C 19.746094 16.855469 19.878906 17.121094 20.097656 17.273438 C 20.25 17.382812 20.425781 17.449219 20.621094 17.449219 C 20.707031 17.449219 20.796875 17.425781 20.882812 17.402344 L 25.300781 16.003906 C 25.542969 15.960938 25.761719 16.003906 25.957031 16.136719 C 26.441406 16.464844 27.050781 16.59375 27.644531 16.464844 C 28.496094 16.289062 29.175781 15.632812 29.347656 14.800781 C 29.4375 14.1875 29.285156 13.53125 28.867188 13.050781 Z M 28.453125 14.648438 C 28.363281 15.128906 27.949219 15.523438 27.445312 15.632812 C 27.074219 15.699219 26.722656 15.632812 26.417969 15.433594 C 26.023438 15.171875 25.542969 15.085938 25.082031 15.171875 C 25.0625 15.171875 25.0625 15.171875 25.039062 15.195312 L 20.597656 16.574219 L 20.597656 12.199219 L 25.039062 13.597656 C 25.0625 13.597656 25.0625 13.597656 25.082031 13.621094 C 25.566406 13.707031 26.046875 13.621094 26.417969 13.355469 C 26.636719 13.203125 26.898438 13.117188 27.183594 13.117188 C 27.578125 13.117188 27.972656 13.292969 28.210938 13.597656 C 28.429688 13.902344 28.519531 14.253906 28.453125 14.648438 Z M 28.453125 14.648438 " fill-opacity="1" fill-rule="nonzero"/></g><g clip-path="url(#836f281ec6)"><path fill="#231f20" d="M 10.625 11.496094 C 10.40625 11.324219 10.121094 11.277344 9.835938 11.367188 L 5.417969 12.765625 C 5.175781 12.808594 4.957031 12.765625 4.785156 12.636719 C 4.410156 12.371094 3.972656 12.242188 3.535156 12.242188 C 2.878906 12.242188 2.246094 12.527344 1.832031 13.050781 C 1.4375 13.554688 1.261719 14.1875 1.394531 14.824219 C 1.566406 15.652344 2.246094 16.308594 3.097656 16.484375 C 3.691406 16.59375 4.28125 16.484375 4.785156 16.15625 C 4.980469 16.027344 5.199219 15.980469 5.441406 16.027344 L 9.859375 17.425781 C 9.945312 17.449219 10.035156 17.46875 10.097656 17.46875 C 10.296875 17.46875 10.472656 17.402344 10.625 17.292969 C 10.84375 17.121094 10.972656 16.878906 10.972656 16.617188 L 10.972656 12.175781 C 10.972656 11.914062 10.84375 11.671875 10.625 11.496094 Z M 10.097656 16.574219 L 5.679688 15.171875 C 5.660156 15.171875 5.660156 15.171875 5.636719 15.152344 C 5.503906 15.128906 5.394531 15.105469 5.265625 15.105469 C 4.914062 15.105469 4.566406 15.214844 4.28125 15.390625 C 3.972656 15.589844 3.625 15.652344 3.253906 15.589844 C 2.75 15.5 2.332031 15.085938 2.246094 14.605469 C 2.179688 14.230469 2.269531 13.859375 2.507812 13.554688 C 2.75 13.246094 3.144531 13.074219 3.535156 13.074219 C 3.820312 13.074219 4.082031 13.160156 4.300781 13.3125 C 4.675781 13.574219 5.175781 13.664062 5.636719 13.574219 C 5.660156 13.574219 5.660156 13.574219 5.679688 13.554688 L 10.097656 12.175781 Z M 10.097656 16.574219 " fill-opacity="1" fill-rule="nonzero"/></g><g clip-path="url(#93995d4799)"><path fill="#231f20" d="M 17.1875 8.71875 C 17.121094 8.433594 17.1875 8.152344 17.339844 7.933594 C 17.710938 7.386719 17.84375 6.707031 17.710938 6.050781 C 17.515625 5.109375 16.769531 4.34375 15.808594 4.148438 C 15.085938 4.015625 14.34375 4.191406 13.796875 4.652344 C 13.226562 5.109375 12.898438 5.808594 12.898438 6.53125 C 12.898438 7.035156 13.050781 7.515625 13.335938 7.933594 C 13.488281 8.152344 13.535156 8.433594 13.488281 8.71875 L 11.871094 14.277344 C 11.785156 14.558594 11.847656 14.867188 12.023438 15.105469 C 12.199219 15.347656 12.484375 15.480469 12.769531 15.480469 L 17.910156 15.480469 C 18.214844 15.480469 18.476562 15.347656 18.652344 15.105469 C 18.828125 14.867188 18.894531 14.558594 18.804688 14.277344 Z M 17.953125 14.582031 C 17.953125 14.605469 17.929688 14.605469 17.910156 14.605469 L 12.789062 14.605469 C 12.769531 14.605469 12.746094 14.605469 12.746094 14.582031 C 12.722656 14.558594 12.722656 14.539062 12.746094 14.515625 L 14.386719 8.9375 C 14.386719 8.9375 14.386719 8.917969 14.386719 8.917969 C 14.496094 8.390625 14.386719 7.84375 14.101562 7.429688 C 13.925781 7.167969 13.816406 6.859375 13.816406 6.53125 C 13.816406 6.050781 14.035156 5.613281 14.386719 5.328125 C 14.671875 5.089844 15 4.980469 15.371094 4.980469 C 15.480469 4.980469 15.589844 4.980469 15.699219 5 C 16.289062 5.109375 16.792969 5.613281 16.902344 6.203125 C 16.988281 6.640625 16.902344 7.058594 16.660156 7.429688 C 16.355469 7.867188 16.269531 8.390625 16.378906 8.917969 C 16.378906 8.917969 16.378906 8.9375 16.378906 8.9375 L 17.972656 14.515625 C 17.972656 14.539062 17.972656 14.558594 17.953125 14.582031 Z M 17.953125 14.582031 " fill-opacity="1" fill-rule="nonzero"/></g></svg>