<svg xmlns="http://www.w3.org/2000/svg" xmlns:xlink="http://www.w3.org/1999/xlink" width="40" zoomAndPan="magnify" viewBox="0 0 30 30.000001" height="40" preserveAspectRatio="xMidYMid meet" version="1.0"><defs><clipPath id="787bfcc411"><path d="M 21 9.253906 L 28.824219 9.253906 L 28.824219 17 L 21 17 Z M 21 9.253906 " clip-rule="nonzero"/></clipPath><clipPath id="ab9ec712e0"><path d="M 1.242188 9.253906 L 10 9.253906 L 10 20 L 1.242188 20 Z M 1.242188 9.253906 " clip-rule="nonzero"/></clipPath></defs><g clip-path="url(#787bfcc411)"><path fill="#01353c" d="M 28.527344 9.433594 C 24.574219 9.253906 24.289062 10.539062 23.503906 12.601562 L 21.972656 12.78125 L 21.617188 14.203125 C 21.617188 14.203125 22.421875 13.636719 22.648438 13.808594 C 22.769531 13.90625 22.542969 14.34375 22.542969 14.34375 L 23.007812 14.875 L 23.003906 14.878906 L 23.039062 14.917969 L 23.074219 14.953125 L 23.082031 14.945312 L 23.613281 15.414062 C 23.613281 15.414062 24.054688 15.1875 24.144531 15.304688 C 24.316406 15.527344 23.75 16.339844 23.75 16.339844 L 25.171875 15.980469 L 25.351562 14.449219 C 27.421875 13.671875 28.707031 13.386719 28.527344 9.433594 Z M 27.242188 11.734375 C 27.039062 12.902344 25.53125 12.902344 25.328125 11.734375 C 25.324219 11.699219 25.324219 11.65625 25.328125 11.621094 C 25.53125 10.457031 27.039062 10.457031 27.242188 11.621094 C 27.25 11.65625 27.25 11.695312 27.242188 11.734375 Z M 27.242188 11.734375 " fill-opacity="1" fill-rule="nonzero"/></g><path fill="#f15a24" d="M 22.164062 14.988281 C 22.386719 14.765625 22.75 14.765625 22.972656 14.988281 C 23.195312 15.210938 23.195312 15.574219 22.972656 15.796875 C 22.75 16.015625 21.765625 16.195312 21.765625 16.195312 C 21.765625 16.195312 21.945312 15.210938 22.164062 14.988281 Z M 22.164062 14.988281 " fill-opacity="1" fill-rule="nonzero"/><g clip-path="url(#ab9ec712e0)"><path fill="#009245" d="M 9.417969 16.703125 C 9.417969 18.601562 7.902344 19.777344 5.464844 19.777344 C 3.367188 19.777344 2.03125 19.019531 1.398438 17.453125 L 1.289062 17.195312 L 3.199219 16.207031 L 3.324219 16.519531 C 3.621094 17.265625 4.4375 17.710938 5.488281 17.710938 C 5.890625 17.710938 7.1875 17.636719 7.1875 16.703125 C 7.1875 16.507812 7.1875 15.914062 5.445312 15.722656 C 3.621094 15.507812 1.761719 14.988281 1.761719 12.792969 C 1.761719 10.855469 3.605469 9.972656 5.429688 9.960938 C 7.234375 9.960938 8.507812 10.617188 9.117188 11.855469 L 9.25 12.117188 L 7.429688 13.050781 L 7.289062 12.804688 C 7.035156 12.410156 6.324219 11.988281 5.476562 11.988281 C 4.539062 11.988281 3.976562 12.304688 3.976562 12.839844 C 3.976562 13.273438 4.441406 13.492188 5.644531 13.636719 C 6.871094 13.785156 9.417969 14.097656 9.417969 16.703125 Z M 9.417969 16.703125 " fill-opacity="1" fill-rule="nonzero"/></g><path fill="#0071bc" d="M 10.503906 10.253906 L 17.613281 10.253906 L 17.613281 12.445312 L 12.734375 12.445312 L 12.734375 13.839844 L 17.441406 13.839844 L 17.441406 15.96875 L 12.734375 15.96875 L 12.734375 17.328125 L 17.613281 17.328125 L 17.613281 19.542969 L 10.503906 19.542969 Z M 10.503906 10.253906 " fill-opacity="1" fill-rule="nonzero"/><path fill="#93e85f" d="M 27.734375 13.632812 C 27.835938 14.054688 27.886719 14.503906 27.886719 14.957031 C 27.863281 17.34375 26.382812 19.753906 23.128906 19.753906 C 21.628906 19.753906 20.378906 19.238281 19.523438 18.265625 C 18.769531 17.410156 18.355469 16.238281 18.355469 14.964844 C 18.355469 13.691406 18.773438 12.5 19.539062 11.621094 C 20.40625 10.617188 21.652344 10.085938 23.132812 10.085938 C 23.566406 10.085938 23.976562 10.132812 24.359375 10.222656 C 23.894531 10.742188 23.636719 11.417969 23.347656 12.191406 C 23.277344 12.183594 23.207031 12.183594 23.132812 12.183594 C 22.386719 12.183594 21.78125 12.417969 21.335938 12.878906 C 20.832031 13.390625 20.558594 14.164062 20.582031 14.988281 C 20.597656 15.609375 20.832031 17.648438 23.132812 17.648438 C 24.976562 17.648438 25.652344 16.269531 25.675781 14.976562 C 25.675781 14.875 25.675781 14.765625 25.667969 14.664062 L 25.757812 14.628906 C 26.53125 14.335938 27.207031 14.078125 27.734375 13.632812 Z M 27.734375 13.632812 " fill-opacity="1" fill-rule="nonzero"/></svg>