<svg xmlns="http://www.w3.org/2000/svg" xmlns:xlink="http://www.w3.org/1999/xlink" width="40" zoomAndPan="magnify" viewBox="0 0 30 30.000001" height="40" preserveAspectRatio="xMidYMid meet" version="1.0"><defs><clipPath id="75c36bee0b"><path d="M 1.925781 2.902344 L 28 2.902344 L 28 28.304688 L 1.925781 28.304688 Z M 1.925781 2.902344 " clip-rule="nonzero"/></clipPath><clipPath id="654f7e986e"><path d="M 13 7 L 28.054688 7 L 28.054688 17 L 13 17 Z M 13 7 " clip-rule="nonzero"/></clipPath></defs><g clip-path="url(#75c36bee0b)"><path fill="#93e85f" d="M 14.527344 7.761719 C 10.253906 7.761719 6.792969 11.222656 6.792969 15.492188 C 6.792969 19.761719 10.257812 23.226562 14.527344 23.226562 C 18.796875 23.226562 22.257812 19.761719 22.257812 15.492188 C 22.257812 11.222656 18.796875 7.761719 14.527344 7.761719 Z M 14.527344 22.457031 C 10.679688 22.457031 7.5625 19.339844 7.5625 15.492188 C 7.5625 11.644531 10.679688 8.527344 14.527344 8.527344 C 18.371094 8.527344 21.492188 11.644531 21.492188 15.492188 C 21.492188 19.339844 18.371094 22.457031 14.527344 22.457031 Z M 14.527344 12.574219 C 12.914062 12.574219 11.609375 13.882812 11.609375 15.492188 C 11.609375 17.101562 12.914062 18.410156 14.527344 18.410156 C 16.136719 18.410156 17.441406 17.101562 17.441406 15.492188 C 17.445312 13.882812 16.136719 12.574219 14.527344 12.574219 Z M 14.527344 18.121094 C 13.074219 18.121094 11.898438 16.945312 11.898438 15.492188 C 11.898438 14.042969 13.074219 12.867188 14.527344 12.867188 C 15.976562 12.867188 17.152344 14.042969 17.152344 15.492188 C 17.152344 16.941406 15.976562 18.121094 14.527344 18.121094 Z M 26.914062 13.238281 C 27.046875 13.96875 27.117188 14.722656 27.117188 15.492188 C 27.117188 22.445312 21.480469 28.082031 14.527344 28.082031 C 7.574219 28.082031 1.9375 22.445312 1.9375 15.492188 C 1.9375 8.539062 7.574219 2.902344 14.527344 2.902344 C 18.070312 2.902344 21.273438 4.367188 23.5625 6.726562 L 22.507812 7.4375 C 20.457031 5.40625 17.636719 4.152344 14.527344 4.152344 C 8.265625 4.152344 3.1875 9.230469 3.1875 15.492188 C 3.1875 21.753906 8.265625 26.832031 14.527344 26.832031 C 20.789062 26.832031 25.867188 21.753906 25.867188 15.492188 C 25.867188 14.992188 25.832031 14.496094 25.769531 14.011719 Z M 26.914062 13.238281 " fill-opacity="1" fill-rule="nonzero"/></g><g clip-path="url(#654f7e986e)"><path fill="#93e85f" d="M 26.535156 9.539062 L 27.863281 10.257812 L 25.058594 11.746094 L 24.019531 10.871094 L 15.613281 15.332031 C 15.621094 15.386719 15.625 15.4375 15.625 15.492188 C 15.625 16.101562 15.132812 16.59375 14.527344 16.59375 C 13.917969 16.59375 13.425781 16.101562 13.425781 15.492188 C 13.425781 14.886719 13.917969 14.390625 14.527344 14.390625 C 14.734375 14.390625 14.925781 14.449219 15.089844 14.550781 L 23.675781 9.996094 L 23.855469 8.425781 L 26.222656 7.167969 L 26.085938 8.71875 L 27.75 7.835938 L 28.191406 8.660156 Z M 26.535156 9.539062 " fill-opacity="1" fill-rule="nonzero"/></g></svg>