<svg xmlns="http://www.w3.org/2000/svg" xmlns:xlink="http://www.w3.org/1999/xlink" width="40" zoomAndPan="magnify" viewBox="0 0 30 30.000001" height="40" preserveAspectRatio="xMidYMid meet" version="1.0"><defs><clipPath id="f927d5985f"><path d="M 8.5 8.015625 L 21.5 8.015625 L 21.5 21.015625 L 8.5 21.015625 Z M 8.5 8.015625 " clip-rule="nonzero"/></clipPath><clipPath id="ac24d8eafc"><path d="M 15 8.015625 C 11.410156 8.015625 8.5 10.925781 8.5 14.515625 C 8.5 18.105469 11.410156 21.015625 15 21.015625 C 18.589844 21.015625 21.5 18.105469 21.5 14.515625 C 21.5 10.925781 18.589844 8.015625 15 8.015625 Z M 15 8.015625 " clip-rule="nonzero"/></clipPath><clipPath id="927ea0dc32"><path d="M 0.5 0.015625 L 13.5 0.015625 L 13.5 13.015625 L 0.5 13.015625 Z M 0.5 0.015625 " clip-rule="nonzero"/></clipPath><clipPath id="55dce0c8c8"><path d="M 7 0.015625 C 3.410156 0.015625 0.5 2.925781 0.5 6.515625 C 0.5 10.105469 3.410156 13.015625 7 13.015625 C 10.589844 13.015625 13.5 10.105469 13.5 6.515625 C 13.5 2.925781 10.589844 0.015625 7 0.015625 Z M 7 0.015625 " clip-rule="nonzero"/></clipPath><clipPath id="fd511864dc"><rect x="0" width="14" y="0" height="14"/></clipPath><clipPath id="f04a761634"><path d="M 1.421875 6.761719 L 28.277344 6.761719 L 28.277344 22.003906 L 1.421875 22.003906 Z M 1.421875 6.761719 " clip-rule="nonzero"/></clipPath></defs><g clip-path="url(#f927d5985f)"><g clip-path="url(#ac24d8eafc)"><g transform="matrix(1, 0, 0, 1, 8, 8)"><g clip-path="url(#fd511864dc)"><g clip-path="url(#927ea0dc32)"><g clip-path="url(#55dce0c8c8)"><path fill="#93e85f" d="M 0.5 0.015625 L 13.5 0.015625 L 13.5 13.015625 L 0.5 13.015625 Z M 0.5 0.015625 " fill-opacity="1" fill-rule="nonzero"/></g></g></g></g></g></g><g clip-path="url(#f04a761634)"><path fill="#01353c" d="M 28.304688 14.082031 C 27.589844 12.960938 26.746094 11.949219 25.773438 11.046875 C 24.800781 10.140625 23.730469 9.371094 22.5625 8.742188 C 21.394531 8.109375 20.164062 7.632812 18.875 7.3125 C 17.585938 6.996094 16.277344 6.84375 14.949219 6.855469 C 13.621094 6.84375 12.3125 6.996094 11.023438 7.3125 C 9.734375 7.632812 8.507812 8.109375 7.335938 8.742188 C 6.167969 9.371094 5.097656 10.140625 4.125 11.046875 C 3.15625 11.949219 2.3125 12.960938 1.597656 14.082031 C 1.414062 14.402344 1.414062 14.71875 1.597656 15.039062 C 2.3125 16.15625 3.15625 17.167969 4.125 18.074219 C 5.097656 18.980469 6.167969 19.746094 7.335938 20.378906 C 8.507812 21.011719 9.734375 21.488281 11.023438 21.804688 C 12.3125 22.125 13.621094 22.277344 14.949219 22.261719 C 16.277344 22.277344 17.585938 22.125 18.875 21.804688 C 20.164062 21.488281 21.394531 21.011719 22.5625 20.378906 C 23.730469 19.746094 24.800781 18.980469 25.773438 18.074219 C 26.746094 17.167969 27.589844 16.15625 28.304688 15.039062 C 28.484375 14.71875 28.484375 14.402344 28.304688 14.082031 Z M 14.949219 20.335938 C 14.570312 20.335938 14.195312 20.300781 13.824219 20.226562 C 13.449219 20.152344 13.089844 20.042969 12.738281 19.898438 C 12.390625 19.753906 12.054688 19.574219 11.742188 19.363281 C 11.425781 19.152344 11.132812 18.914062 10.863281 18.644531 C 10.597656 18.378906 10.355469 18.085938 10.144531 17.769531 C 9.9375 17.453125 9.757812 17.121094 9.613281 16.769531 C 9.46875 16.421875 9.359375 16.058594 9.285156 15.6875 C 9.210938 15.316406 9.171875 14.9375 9.171875 14.558594 C 9.171875 14.179688 9.210938 13.804688 9.285156 13.433594 C 9.359375 13.0625 9.46875 12.699219 9.613281 12.347656 C 9.757812 12 9.9375 11.664062 10.144531 11.351562 C 10.355469 11.035156 10.597656 10.742188 10.863281 10.476562 C 11.132812 10.207031 11.425781 9.96875 11.742188 9.757812 C 12.054688 9.546875 12.390625 9.367188 12.738281 9.222656 C 13.089844 9.078125 13.449219 8.96875 13.824219 8.894531 C 14.195312 8.820312 14.570312 8.78125 14.949219 8.78125 C 15.328125 8.78125 15.707031 8.820312 16.078125 8.894531 C 16.449219 8.96875 16.8125 9.078125 17.160156 9.222656 C 17.511719 9.367188 17.84375 9.546875 18.160156 9.757812 C 18.476562 9.96875 18.765625 10.207031 19.035156 10.476562 C 19.304688 10.742188 19.542969 11.035156 19.753906 11.351562 C 19.964844 11.664062 20.144531 12 20.289062 12.347656 C 20.433594 12.699219 20.542969 13.0625 20.617188 13.433594 C 20.691406 13.804688 20.726562 14.179688 20.726562 14.558594 C 20.726562 14.9375 20.691406 15.316406 20.617188 15.6875 C 20.542969 16.058594 20.429688 16.417969 20.285156 16.769531 C 20.140625 17.121094 19.960938 17.453125 19.753906 17.769531 C 19.542969 18.082031 19.300781 18.375 19.035156 18.644531 C 18.765625 18.910156 18.472656 19.152344 18.160156 19.363281 C 17.84375 19.574219 17.511719 19.75 17.160156 19.894531 C 16.808594 20.042969 16.449219 20.152344 16.078125 20.226562 C 15.703125 20.300781 15.328125 20.335938 14.949219 20.335938 Z M 17.839844 14.558594 C 17.839844 14.941406 17.765625 15.3125 17.617188 15.664062 C 17.472656 16.019531 17.265625 16.332031 16.992188 16.601562 C 16.722656 16.875 16.410156 17.082031 16.054688 17.230469 C 15.703125 17.375 15.332031 17.449219 14.949219 17.449219 C 14.566406 17.449219 14.199219 17.375 13.84375 17.230469 C 13.492188 17.082031 13.179688 16.875 12.90625 16.601562 C 12.636719 16.332031 12.429688 16.019531 12.28125 15.664062 C 12.136719 15.3125 12.0625 14.941406 12.0625 14.558594 C 12.0625 14.175781 12.136719 13.808594 12.28125 13.453125 C 12.429688 13.101562 12.636719 12.789062 12.90625 12.515625 C 13.179688 12.246094 13.492188 12.039062 13.84375 11.890625 C 14.199219 11.746094 14.566406 11.671875 14.949219 11.671875 C 15.332031 11.671875 15.703125 11.746094 16.054688 11.890625 C 16.410156 12.039062 16.722656 12.246094 16.992188 12.519531 C 17.261719 12.789062 17.472656 13.101562 17.617188 13.457031 C 17.765625 13.808594 17.839844 14.175781 17.839844 14.558594 Z M 17.839844 14.558594 " fill-opacity="1" fill-rule="nonzero"/></g></svg>