<svg xmlns="http://www.w3.org/2000/svg" xmlns:xlink="http://www.w3.org/1999/xlink" width="40" zoomAndPan="magnify" viewBox="0 0 30 30.000001" height="40" preserveAspectRatio="xMidYMid meet" version="1.0"><defs><clipPath id="d011b68f76"><path d="M 0.882812 0.894531 L 13.949219 0.894531 L 13.949219 28.472656 L 0.882812 28.472656 Z M 0.882812 0.894531 " clip-rule="nonzero"/></clipPath><clipPath id="720beb2fcb"><path d="M 14.441406 0.894531 L 28.960938 0.894531 L 28.960938 28.472656 L 14.441406 28.472656 Z M 14.441406 0.894531 " clip-rule="nonzero"/></clipPath></defs><g clip-path="url(#d011b68f76)"><path fill="#01353c" d="M 12.886719 9.75 L 10.515625 9.75 C 10.519531 9.707031 10.519531 9.664062 10.519531 9.621094 C 10.519531 8.492188 9.601562 7.570312 8.472656 7.570312 C 7.339844 7.570312 6.421875 8.492188 6.421875 9.621094 C 6.421875 9.664062 6.421875 9.707031 6.425781 9.75 L 4.054688 9.75 C 3.863281 9.75 3.703125 9.90625 3.703125 10.101562 L 3.703125 11.519531 L 2.363281 12.625 C 1.617188 13.238281 1.203125 14.039062 1.128906 15.003906 L 0.929688 17.710938 C 0.886719 18.292969 0.972656 18.8125 1.207031 19.347656 L 2.90625 23.269531 L 2.90625 24.449219 L 2.585938 24.449219 C 1.910156 24.449219 1.359375 25 1.359375 25.675781 L 1.359375 27.785156 C 1.359375 27.976562 1.519531 28.132812 1.710938 28.132812 L 9.539062 28.132812 C 9.734375 28.132812 9.890625 27.976562 9.890625 27.785156 L 9.890625 25.675781 C 9.890625 25 9.339844 24.449219 8.664062 24.449219 L 8.347656 24.449219 L 8.347656 23.328125 L 9.273438 21.152344 C 9.464844 20.703125 9.546875 20.285156 9.546875 19.796875 L 9.546875 19.28125 L 12.886719 19.28125 C 13.078125 19.28125 13.238281 19.125 13.238281 18.929688 L 13.238281 15.746094 C 13.238281 15.621094 13.171875 15.507812 13.066406 15.445312 C 12.960938 15.382812 12.832031 15.375 12.722656 15.433594 C 12.527344 15.535156 12.316406 15.589844 12.09375 15.589844 C 11.351562 15.589844 10.746094 14.984375 10.746094 14.242188 C 10.746094 13.5 11.351562 12.894531 12.09375 12.894531 C 12.316406 12.894531 12.527344 12.945312 12.722656 13.050781 C 12.832031 13.105469 12.960938 13.105469 13.066406 13.039062 C 13.171875 12.976562 13.238281 12.863281 13.238281 12.738281 L 13.238281 10.101562 C 13.238281 9.90625 13.078125 9.75 12.886719 9.75 Z M 9.191406 25.675781 L 9.191406 27.433594 L 2.0625 27.433594 L 2.0625 26.644531 L 7.164062 26.644531 C 7.355469 26.644531 7.515625 26.484375 7.515625 26.292969 C 7.515625 26.097656 7.355469 25.941406 7.164062 25.941406 L 2.0625 25.941406 L 2.0625 25.675781 C 2.0625 25.386719 2.296875 25.152344 2.589844 25.152344 L 8.664062 25.152344 C 8.953125 25.152344 9.191406 25.386719 9.191406 25.675781 Z M 8.847656 19.796875 C 8.847656 20.1875 8.78125 20.519531 8.628906 20.878906 L 7.675781 23.121094 C 7.65625 23.164062 7.648438 23.210938 7.648438 23.257812 L 7.648438 24.449219 L 3.605469 24.449219 L 3.605469 23.195312 C 3.605469 23.148438 3.597656 23.101562 3.578125 23.054688 L 1.847656 19.066406 C 1.660156 18.636719 1.59375 18.234375 1.628906 17.761719 L 1.828125 15.054688 C 1.886719 14.289062 2.214844 13.65625 2.808594 13.164062 L 3.703125 12.425781 L 3.703125 16.496094 C 3.703125 16.574219 3.730469 16.648438 3.777344 16.710938 L 5.113281 18.445312 C 5.417969 18.835938 5.917969 18.988281 6.386719 18.828125 C 6.859375 18.667969 7.164062 18.242188 7.164062 17.746094 L 7.164062 15.3125 C 7.164062 14.847656 7.539062 14.46875 8.003906 14.46875 C 8.46875 14.46875 8.847656 14.847656 8.847656 15.3125 Z M 12.535156 12.242188 C 12.390625 12.210938 12.242188 12.195312 12.09375 12.195312 C 10.964844 12.195312 10.046875 13.113281 10.046875 14.242188 C 10.046875 15.371094 10.964844 16.292969 12.09375 16.292969 C 12.242188 16.292969 12.390625 16.273438 12.535156 16.242188 L 12.535156 18.582031 L 9.550781 18.582031 L 9.550781 15.3125 C 9.550781 14.460938 8.855469 13.769531 8.003906 13.769531 C 7.152344 13.769531 6.460938 14.460938 6.460938 15.3125 L 6.460938 17.746094 C 6.460938 17.941406 6.347656 18.101562 6.160156 18.164062 C 5.976562 18.226562 5.789062 18.171875 5.667969 18.015625 L 4.40625 16.378906 L 4.40625 10.453125 L 6.84375 10.453125 C 6.953125 10.453125 7.054688 10.398438 7.121094 10.308594 C 7.1875 10.222656 7.210938 10.105469 7.179688 10 C 7.140625 9.878906 7.125 9.75 7.125 9.621094 C 7.125 8.875 7.726562 8.273438 8.472656 8.273438 C 9.214844 8.273438 9.816406 8.875 9.816406 9.621094 C 9.816406 9.75 9.800781 9.878906 9.761719 10 C 9.730469 10.105469 9.753906 10.222656 9.820312 10.308594 C 9.886719 10.398438 9.988281 10.453125 10.101562 10.453125 L 12.535156 10.453125 Z M 28.792969 9.6875 L 27.09375 5.765625 L 27.09375 4.582031 L 27.410156 4.582031 C 28.089844 4.582031 28.640625 4.03125 28.640625 3.355469 L 28.640625 1.25 C 28.640625 1.054688 28.480469 0.898438 28.289062 0.898438 L 20.457031 0.898438 C 20.265625 0.898438 20.109375 1.054688 20.109375 1.25 L 20.109375 3.355469 C 20.109375 4.03125 20.660156 4.582031 21.335938 4.582031 L 21.652344 4.582031 L 21.652344 5.703125 L 20.726562 7.882812 C 20.535156 8.332031 20.453125 8.75 20.453125 9.238281 L 20.453125 9.75 L 17.113281 9.75 C 16.921875 9.75 16.761719 9.910156 16.761719 10.101562 L 16.761719 12.472656 C 16.71875 12.46875 16.675781 12.46875 16.632812 12.46875 C 15.503906 12.46875 14.582031 13.386719 14.582031 14.515625 C 14.582031 15.648438 15.503906 16.566406 16.632812 16.566406 C 16.675781 16.566406 16.71875 16.566406 16.761719 16.5625 L 16.761719 18.933594 C 16.761719 19.125 16.921875 19.285156 17.113281 19.285156 L 19.753906 19.285156 C 19.875 19.285156 19.992188 19.21875 20.054688 19.113281 C 20.117188 19.007812 20.121094 18.878906 20.0625 18.769531 C 19.960938 18.574219 19.910156 18.363281 19.910156 18.140625 C 19.910156 17.398438 20.511719 16.792969 21.253906 16.792969 C 22 16.792969 22.601562 17.398438 22.601562 18.140625 C 22.601562 18.363281 22.550781 18.574219 22.449219 18.769531 C 22.390625 18.878906 22.394531 19.007812 22.457031 19.113281 C 22.519531 19.21875 22.636719 19.285156 22.757812 19.285156 L 25.945312 19.285156 C 26.140625 19.285156 26.296875 19.125 26.296875 18.933594 L 26.296875 17.515625 L 27.640625 16.410156 C 28.382812 15.792969 28.796875 14.992188 28.871094 14.03125 L 29.070312 11.320312 C 29.113281 10.738281 29.027344 10.21875 28.792969 9.6875 Z M 20.808594 3.355469 L 20.808594 1.601562 L 27.9375 1.601562 L 27.9375 2.390625 L 22.835938 2.390625 C 22.640625 2.390625 22.484375 2.546875 22.484375 2.742188 C 22.484375 2.933594 22.640625 3.089844 22.835938 3.089844 L 27.9375 3.089844 L 27.9375 3.355469 C 27.9375 3.644531 27.699219 3.882812 27.410156 3.882812 L 21.335938 3.882812 C 21.042969 3.882812 20.808594 3.644531 20.808594 3.355469 Z M 25.59375 18.582031 L 23.253906 18.582031 C 23.289062 18.4375 23.304688 18.289062 23.304688 18.140625 C 23.304688 17.011719 22.382812 16.089844 21.253906 16.089844 C 20.125 16.089844 19.207031 17.011719 19.207031 18.140625 C 19.207031 18.289062 19.222656 18.4375 19.253906 18.582031 L 17.464844 18.582031 L 17.464844 16.144531 C 17.464844 16.035156 17.414062 15.929688 17.324219 15.863281 C 17.234375 15.796875 17.121094 15.777344 17.015625 15.808594 C 16.890625 15.84375 16.761719 15.863281 16.632812 15.863281 C 15.890625 15.863281 15.285156 15.257812 15.285156 14.515625 C 15.285156 13.773438 15.890625 13.167969 16.632812 13.167969 C 16.761719 13.167969 16.890625 13.1875 17.015625 13.222656 C 17.121094 13.253906 17.234375 13.234375 17.324219 13.167969 C 17.414062 13.101562 17.464844 13 17.464844 12.886719 L 17.464844 10.453125 L 20.453125 10.453125 L 20.453125 13.722656 C 20.453125 14.574219 21.144531 15.265625 21.996094 15.265625 C 22.847656 15.265625 23.539062 14.574219 23.539062 13.722656 L 23.539062 11.285156 C 23.539062 11.089844 23.652344 10.929688 23.839844 10.867188 C 24.023438 10.804688 24.210938 10.863281 24.332031 11.015625 L 25.59375 12.65625 Z M 28.371094 11.269531 L 28.167969 13.976562 C 28.113281 14.742188 27.785156 15.378906 27.191406 15.867188 L 26.292969 16.605469 L 26.292969 12.535156 C 26.292969 12.457031 26.269531 12.382812 26.222656 12.320312 L 24.886719 10.589844 C 24.582031 10.195312 24.082031 10.042969 23.613281 10.203125 C 23.140625 10.363281 22.835938 10.789062 22.835938 11.289062 L 22.835938 13.722656 C 22.835938 14.1875 22.457031 14.566406 21.996094 14.566406 C 21.53125 14.566406 21.152344 14.1875 21.152344 13.722656 L 21.152344 9.238281 C 21.152344 8.847656 21.21875 8.515625 21.371094 8.15625 L 22.324219 5.914062 C 22.34375 5.871094 22.351562 5.824219 22.351562 5.777344 L 22.351562 4.582031 L 26.394531 4.582031 L 26.394531 5.839844 C 26.394531 5.886719 26.402344 5.933594 26.421875 5.976562 L 28.152344 9.964844 C 28.339844 10.398438 28.40625 10.800781 28.371094 11.269531 Z M 28.371094 11.269531 " fill-opacity="1" fill-rule="nonzero"/></g><g clip-path="url(#720beb2fcb)"><path fill="#93e85f" d="M 12.886719 9.75 L 10.515625 9.75 C 10.519531 9.707031 10.519531 9.664062 10.519531 9.621094 C 10.519531 8.492188 9.601562 7.570312 8.472656 7.570312 C 7.339844 7.570312 6.421875 8.492188 6.421875 9.621094 C 6.421875 9.664062 6.421875 9.707031 6.425781 9.75 L 4.054688 9.75 C 3.863281 9.75 3.703125 9.90625 3.703125 10.101562 L 3.703125 11.519531 L 2.363281 12.625 C 1.617188 13.238281 1.203125 14.039062 1.128906 15.003906 L 0.929688 17.710938 C 0.886719 18.292969 0.972656 18.8125 1.207031 19.347656 L 2.90625 23.269531 L 2.90625 24.449219 L 2.585938 24.449219 C 1.910156 24.449219 1.359375 25 1.359375 25.675781 L 1.359375 27.785156 C 1.359375 27.976562 1.519531 28.132812 1.710938 28.132812 L 9.539062 28.132812 C 9.734375 28.132812 9.890625 27.976562 9.890625 27.785156 L 9.890625 25.675781 C 9.890625 25 9.339844 24.449219 8.664062 24.449219 L 8.347656 24.449219 L 8.347656 23.328125 L 9.273438 21.152344 C 9.464844 20.703125 9.546875 20.285156 9.546875 19.796875 L 9.546875 19.28125 L 12.886719 19.28125 C 13.078125 19.28125 13.238281 19.125 13.238281 18.929688 L 13.238281 15.746094 C 13.238281 15.621094 13.171875 15.507812 13.066406 15.445312 C 12.960938 15.382812 12.832031 15.375 12.722656 15.433594 C 12.527344 15.535156 12.316406 15.589844 12.09375 15.589844 C 11.351562 15.589844 10.746094 14.984375 10.746094 14.242188 C 10.746094 13.5 11.351562 12.894531 12.09375 12.894531 C 12.316406 12.894531 12.527344 12.945312 12.722656 13.050781 C 12.832031 13.105469 12.960938 13.105469 13.066406 13.039062 C 13.171875 12.976562 13.238281 12.863281 13.238281 12.738281 L 13.238281 10.101562 C 13.238281 9.90625 13.078125 9.75 12.886719 9.75 Z M 9.191406 25.675781 L 9.191406 27.433594 L 2.0625 27.433594 L 2.0625 26.644531 L 7.164062 26.644531 C 7.355469 26.644531 7.515625 26.484375 7.515625 26.292969 C 7.515625 26.097656 7.355469 25.941406 7.164062 25.941406 L 2.0625 25.941406 L 2.0625 25.675781 C 2.0625 25.386719 2.296875 25.152344 2.589844 25.152344 L 8.664062 25.152344 C 8.953125 25.152344 9.191406 25.386719 9.191406 25.675781 Z M 8.847656 19.796875 C 8.847656 20.1875 8.78125 20.519531 8.628906 20.878906 L 7.675781 23.121094 C 7.65625 23.164062 7.648438 23.210938 7.648438 23.257812 L 7.648438 24.449219 L 3.605469 24.449219 L 3.605469 23.195312 C 3.605469 23.148438 3.597656 23.101562 3.578125 23.054688 L 1.847656 19.066406 C 1.660156 18.636719 1.59375 18.234375 1.628906 17.761719 L 1.828125 15.054688 C 1.886719 14.289062 2.214844 13.65625 2.808594 13.164062 L 3.703125 12.425781 L 3.703125 16.496094 C 3.703125 16.574219 3.730469 16.648438 3.777344 16.710938 L 5.113281 18.445312 C 5.417969 18.835938 5.917969 18.988281 6.386719 18.828125 C 6.859375 18.667969 7.164062 18.242188 7.164062 17.746094 L 7.164062 15.3125 C 7.164062 14.847656 7.539062 14.46875 8.003906 14.46875 C 8.46875 14.46875 8.847656 14.847656 8.847656 15.3125 Z M 12.535156 12.242188 C 12.390625 12.210938 12.242188 12.195312 12.09375 12.195312 C 10.964844 12.195312 10.046875 13.113281 10.046875 14.242188 C 10.046875 15.371094 10.964844 16.292969 12.09375 16.292969 C 12.242188 16.292969 12.390625 16.273438 12.535156 16.242188 L 12.535156 18.582031 L 9.550781 18.582031 L 9.550781 15.3125 C 9.550781 14.460938 8.855469 13.769531 8.003906 13.769531 C 7.152344 13.769531 6.460938 14.460938 6.460938 15.3125 L 6.460938 17.746094 C 6.460938 17.941406 6.347656 18.101562 6.160156 18.164062 C 5.976562 18.226562 5.789062 18.171875 5.667969 18.015625 L 4.40625 16.378906 L 4.40625 10.453125 L 6.84375 10.453125 C 6.953125 10.453125 7.054688 10.398438 7.121094 10.308594 C 7.1875 10.222656 7.210938 10.105469 7.179688 10 C 7.140625 9.878906 7.125 9.75 7.125 9.621094 C 7.125 8.875 7.726562 8.273438 8.472656 8.273438 C 9.214844 8.273438 9.816406 8.875 9.816406 9.621094 C 9.816406 9.75 9.800781 9.878906 9.761719 10 C 9.730469 10.105469 9.753906 10.222656 9.820312 10.308594 C 9.886719 10.398438 9.988281 10.453125 10.101562 10.453125 L 12.535156 10.453125 Z M 28.792969 9.6875 L 27.09375 5.765625 L 27.09375 4.582031 L 27.410156 4.582031 C 28.089844 4.582031 28.640625 4.03125 28.640625 3.355469 L 28.640625 1.25 C 28.640625 1.054688 28.480469 0.898438 28.289062 0.898438 L 20.457031 0.898438 C 20.265625 0.898438 20.109375 1.054688 20.109375 1.25 L 20.109375 3.355469 C 20.109375 4.03125 20.660156 4.582031 21.335938 4.582031 L 21.652344 4.582031 L 21.652344 5.703125 L 20.726562 7.882812 C 20.535156 8.332031 20.453125 8.75 20.453125 9.238281 L 20.453125 9.75 L 17.113281 9.75 C 16.921875 9.75 16.761719 9.910156 16.761719 10.101562 L 16.761719 12.472656 C 16.71875 12.46875 16.675781 12.46875 16.632812 12.46875 C 15.503906 12.46875 14.582031 13.386719 14.582031 14.515625 C 14.582031 15.648438 15.503906 16.566406 16.632812 16.566406 C 16.675781 16.566406 16.71875 16.566406 16.761719 16.5625 L 16.761719 18.933594 C 16.761719 19.125 16.921875 19.285156 17.113281 19.285156 L 19.753906 19.285156 C 19.875 19.285156 19.992188 19.21875 20.054688 19.113281 C 20.117188 19.007812 20.121094 18.878906 20.0625 18.769531 C 19.960938 18.574219 19.910156 18.363281 19.910156 18.140625 C 19.910156 17.398438 20.511719 16.792969 21.253906 16.792969 C 22 16.792969 22.601562 17.398438 22.601562 18.140625 C 22.601562 18.363281 22.550781 18.574219 22.449219 18.769531 C 22.390625 18.878906 22.394531 19.007812 22.457031 19.113281 C 22.519531 19.21875 22.636719 19.285156 22.757812 19.285156 L 25.945312 19.285156 C 26.140625 19.285156 26.296875 19.125 26.296875 18.933594 L 26.296875 17.515625 L 27.640625 16.410156 C 28.382812 15.792969 28.796875 14.992188 28.871094 14.03125 L 29.070312 11.320312 C 29.113281 10.738281 29.027344 10.21875 28.792969 9.6875 Z M 20.808594 3.355469 L 20.808594 1.601562 L 27.9375 1.601562 L 27.9375 2.390625 L 22.835938 2.390625 C 22.640625 2.390625 22.484375 2.546875 22.484375 2.742188 C 22.484375 2.933594 22.640625 3.089844 22.835938 3.089844 L 27.9375 3.089844 L 27.9375 3.355469 C 27.9375 3.644531 27.699219 3.882812 27.410156 3.882812 L 21.335938 3.882812 C 21.042969 3.882812 20.808594 3.644531 20.808594 3.355469 Z M 25.59375 18.582031 L 23.253906 18.582031 C 23.289062 18.4375 23.304688 18.289062 23.304688 18.140625 C 23.304688 17.011719 22.382812 16.089844 21.253906 16.089844 C 20.125 16.089844 19.207031 17.011719 19.207031 18.140625 C 19.207031 18.289062 19.222656 18.4375 19.253906 18.582031 L 17.464844 18.582031 L 17.464844 16.144531 C 17.464844 16.035156 17.414062 15.929688 17.324219 15.863281 C 17.234375 15.796875 17.121094 15.777344 17.015625 15.808594 C 16.890625 15.84375 16.761719 15.863281 16.632812 15.863281 C 15.890625 15.863281 15.285156 15.257812 15.285156 14.515625 C 15.285156 13.773438 15.890625 13.167969 16.632812 13.167969 C 16.761719 13.167969 16.890625 13.1875 17.015625 13.222656 C 17.121094 13.253906 17.234375 13.234375 17.324219 13.167969 C 17.414062 13.101562 17.464844 13 17.464844 12.886719 L 17.464844 10.453125 L 20.453125 10.453125 L 20.453125 13.722656 C 20.453125 14.574219 21.144531 15.265625 21.996094 15.265625 C 22.847656 15.265625 23.539062 14.574219 23.539062 13.722656 L 23.539062 11.285156 C 23.539062 11.089844 23.652344 10.929688 23.839844 10.867188 C 24.023438 10.804688 24.210938 10.863281 24.332031 11.015625 L 25.59375 12.65625 Z M 28.371094 11.269531 L 28.167969 13.976562 C 28.113281 14.742188 27.785156 15.378906 27.191406 15.867188 L 26.292969 16.605469 L 26.292969 12.535156 C 26.292969 12.457031 26.269531 12.382812 26.222656 12.320312 L 24.886719 10.589844 C 24.582031 10.195312 24.082031 10.042969 23.613281 10.203125 C 23.140625 10.363281 22.835938 10.789062 22.835938 11.289062 L 22.835938 13.722656 C 22.835938 14.1875 22.457031 14.566406 21.996094 14.566406 C 21.53125 14.566406 21.152344 14.1875 21.152344 13.722656 L 21.152344 9.238281 C 21.152344 8.847656 21.21875 8.515625 21.371094 8.15625 L 22.324219 5.914062 C 22.34375 5.871094 22.351562 5.824219 22.351562 5.777344 L 22.351562 4.582031 L 26.394531 4.582031 L 26.394531 5.839844 C 26.394531 5.886719 26.402344 5.933594 26.421875 5.976562 L 28.152344 9.964844 C 28.339844 10.398438 28.40625 10.800781 28.371094 11.269531 Z M 28.371094 11.269531 " fill-opacity="1" fill-rule="nonzero"/></g></svg>