<svg xmlns="http://www.w3.org/2000/svg" xmlns:xlink="http://www.w3.org/1999/xlink" width="40" zoomAndPan="magnify" viewBox="0 0 30 30.000001" height="40" preserveAspectRatio="xMidYMid meet" version="1.0"><defs><clipPath id="bcc7a8f15f"><path d="M 1.753906 1.269531 L 28.609375 1.269531 L 28.609375 28 L 1.753906 28 Z M 1.753906 1.269531 " clip-rule="nonzero"/></clipPath><clipPath id="f93f9ed0d7"><path d="M 7.054688 6.792969 L 23.019531 6.792969 L 23.019531 22.761719 L 7.054688 22.761719 Z M 7.054688 6.792969 " clip-rule="nonzero"/></clipPath><clipPath id="6f1c40d238"><path d="M 7.054688 17 L 23 17 L 23 22.761719 L 7.054688 22.761719 Z M 7.054688 17 " clip-rule="nonzero"/></clipPath><clipPath id="210c932955"><path d="M 7.054688 7 L 23 7 L 23 13 L 7.054688 13 Z M 7.054688 7 " clip-rule="nonzero"/></clipPath><clipPath id="6fe12c5b2f"><path d="M 7.054688 12 L 23 12 L 23 17 L 7.054688 17 Z M 7.054688 12 " clip-rule="nonzero"/></clipPath></defs><g clip-path="url(#bcc7a8f15f)"><path fill="#01353c" d="M 15 1.269531 C 7.679688 1.269531 1.753906 7.195312 1.753906 14.515625 C 1.753906 21.835938 7.679688 27.761719 15 27.761719 C 22.320312 27.761719 28.246094 21.835938 28.246094 14.515625 C 28.246094 7.195312 22.320312 1.269531 15 1.269531 Z M 15 26.203125 C 8.554688 26.203125 3.3125 20.960938 3.3125 14.515625 C 3.3125 8.070312 8.554688 2.828125 15 2.828125 C 21.445312 2.828125 26.6875 8.070312 26.6875 14.515625 C 26.6875 20.960938 21.445312 26.203125 15 26.203125 Z M 15 26.203125 " fill-opacity="1" fill-rule="nonzero"/></g><path fill="#01353c" d="M 22.011719 19.191406 L 14.085938 19.191406 C 13.765625 18.285156 12.898438 17.632812 11.882812 17.632812 C 10.867188 17.632812 10 18.285156 9.679688 19.191406 L 7.988281 19.191406 C 7.558594 19.191406 7.207031 19.539062 7.207031 19.96875 C 7.207031 20.402344 7.558594 20.75 7.988281 20.75 L 9.679688 20.75 C 10 21.65625 10.867188 22.308594 11.882812 22.308594 C 12.898438 22.308594 13.765625 21.65625 14.085938 20.75 L 22.011719 20.75 C 22.441406 20.75 22.792969 20.402344 22.792969 19.96875 C 22.792969 19.539062 22.441406 19.191406 22.011719 19.191406 Z M 22.011719 19.191406 " fill-opacity="1" fill-rule="nonzero"/><path fill="#01353c" d="M 22.011719 9.0625 L 14.085938 9.0625 C 13.765625 8.15625 12.898438 7.503906 11.882812 7.503906 C 10.867188 7.503906 10 8.15625 9.679688 9.0625 L 7.988281 9.0625 C 7.558594 9.0625 7.207031 9.410156 7.207031 9.839844 C 7.207031 10.269531 7.558594 10.621094 7.988281 10.621094 L 9.679688 10.621094 C 10 11.527344 10.867188 12.179688 11.882812 12.179688 C 12.898438 12.179688 13.765625 11.527344 14.085938 10.621094 L 22.011719 10.621094 C 22.441406 10.621094 22.792969 10.269531 22.792969 9.839844 C 22.792969 9.410156 22.441406 9.0625 22.011719 9.0625 Z M 22.011719 9.0625 " fill-opacity="1" fill-rule="nonzero"/><path fill="#01353c" d="M 22.011719 13.738281 L 20.320312 13.738281 C 20 12.828125 19.132812 12.179688 18.117188 12.179688 C 17.101562 12.179688 16.234375 12.828125 15.914062 13.738281 L 7.988281 13.738281 C 7.558594 13.738281 7.207031 14.085938 7.207031 14.515625 C 7.207031 14.945312 7.558594 15.296875 7.988281 15.296875 L 15.914062 15.296875 C 16.234375 16.203125 17.101562 16.855469 18.117188 16.855469 C 19.132812 16.855469 20 16.203125 20.320312 15.296875 L 22.011719 15.296875 C 22.441406 15.296875 22.792969 14.945312 22.792969 14.515625 C 22.792969 14.085938 22.441406 13.738281 22.011719 13.738281 Z M 22.011719 13.738281 " fill-opacity="1" fill-rule="nonzero"/><g clip-path="url(#f93f9ed0d7)"><path fill="#93e85f" d="M 15 1.269531 C 7.679688 1.269531 1.753906 7.195312 1.753906 14.515625 C 1.753906 21.835938 7.679688 27.761719 15 27.761719 C 22.320312 27.761719 28.246094 21.835938 28.246094 14.515625 C 28.246094 7.195312 22.320312 1.269531 15 1.269531 Z M 15 26.203125 C 8.554688 26.203125 3.3125 20.960938 3.3125 14.515625 C 3.3125 8.070312 8.554688 2.828125 15 2.828125 C 21.445312 2.828125 26.6875 8.070312 26.6875 14.515625 C 26.6875 20.960938 21.445312 26.203125 15 26.203125 Z M 15 26.203125 " fill-opacity="1" fill-rule="nonzero"/></g><g clip-path="url(#6f1c40d238)"><path fill="#93e85f" d="M 22.011719 19.191406 L 14.085938 19.191406 C 13.765625 18.285156 12.898438 17.632812 11.882812 17.632812 C 10.867188 17.632812 10 18.285156 9.679688 19.191406 L 7.988281 19.191406 C 7.558594 19.191406 7.207031 19.539062 7.207031 19.96875 C 7.207031 20.402344 7.558594 20.75 7.988281 20.75 L 9.679688 20.75 C 10 21.65625 10.867188 22.308594 11.882812 22.308594 C 12.898438 22.308594 13.765625 21.65625 14.085938 20.75 L 22.011719 20.75 C 22.441406 20.75 22.792969 20.402344 22.792969 19.96875 C 22.792969 19.539062 22.441406 19.191406 22.011719 19.191406 Z M 22.011719 19.191406 " fill-opacity="1" fill-rule="nonzero"/></g><g clip-path="url(#210c932955)"><path fill="#93e85f" d="M 22.011719 9.0625 L 14.085938 9.0625 C 13.765625 8.15625 12.898438 7.503906 11.882812 7.503906 C 10.867188 7.503906 10 8.15625 9.679688 9.0625 L 7.988281 9.0625 C 7.558594 9.0625 7.207031 9.410156 7.207031 9.839844 C 7.207031 10.269531 7.558594 10.621094 7.988281 10.621094 L 9.679688 10.621094 C 10 11.527344 10.867188 12.179688 11.882812 12.179688 C 12.898438 12.179688 13.765625 11.527344 14.085938 10.621094 L 22.011719 10.621094 C 22.441406 10.621094 22.792969 10.269531 22.792969 9.839844 C 22.792969 9.410156 22.441406 9.0625 22.011719 9.0625 Z M 22.011719 9.0625 " fill-opacity="1" fill-rule="nonzero"/></g><g clip-path="url(#6fe12c5b2f)"><path fill="#93e85f" d="M 22.011719 13.738281 L 20.320312 13.738281 C 20 12.828125 19.132812 12.179688 18.117188 12.179688 C 17.101562 12.179688 16.234375 12.828125 15.914062 13.738281 L 7.988281 13.738281 C 7.558594 13.738281 7.207031 14.085938 7.207031 14.515625 C 7.207031 14.945312 7.558594 15.296875 7.988281 15.296875 L 15.914062 15.296875 C 16.234375 16.203125 17.101562 16.855469 18.117188 16.855469 C 19.132812 16.855469 20 16.203125 20.320312 15.296875 L 22.011719 15.296875 C 22.441406 15.296875 22.792969 14.945312 22.792969 14.515625 C 22.792969 14.085938 22.441406 13.738281 22.011719 13.738281 Z M 22.011719 13.738281 " fill-opacity="1" fill-rule="nonzero"/></g></svg>