<svg xmlns="http://www.w3.org/2000/svg" xmlns:xlink="http://www.w3.org/1999/xlink" width="500" zoomAndPan="magnify" viewBox="0 0 375 374.999991" height="500" preserveAspectRatio="xMidYMid meet" version="1.2"><defs><clipPath id="09a7b299c5"><path d="M 93 0 L 325.730469 0 L 325.730469 175 L 93 175 Z M 93 0 "/></clipPath></defs><g id="457387488a"><path style=" stroke:none;fill-rule:nonzero;fill:#ff2200;fill-opacity:1;" d="M 323.84375 264.003906 L 321.003906 375.007812 L 270.761719 373.71875 L 273.601562 262.714844 Z M 323.84375 264.003906 "/><path style=" stroke:none;fill-rule:nonzero;fill:#f75239;fill-opacity:1;" d="M 252.296875 200.507812 L 250.261719 372.59375 L 200.003906 371.996094 L 202.042969 199.910156 Z M 252.296875 200.507812 "/><path style=" stroke:none;fill-rule:nonzero;fill:#ff7863;fill-opacity:1;" d="M 177.789062 119.828125 L 176.859375 369.957031 L 126.597656 369.769531 L 127.53125 119.640625 Z M 177.789062 119.828125 "/><path style=" stroke:none;fill-rule:nonzero;fill:#ff9686;fill-opacity:1;" d="M 102.609375 42.679688 L 99.257812 369.484375 L 49 368.964844 L 52.351562 42.164062 Z M 102.609375 42.679688 "/><g clip-rule="nonzero" clip-path="url(#09a7b299c5)"><path style=" stroke:none;fill-rule:nonzero;fill:#f2674e;fill-opacity:1;" d="M 93.363281 24.789062 L 115.382812 26.972656 L 115.710938 0.00390625 C 141.777344 40.632812 163.175781 70.445312 179.917969 89.449219 C 194.261719 105.890625 208.703125 117.894531 223.246094 125.457031 C 240.210938 134.460938 262.140625 140.652344 289.035156 144.035156 L 292.9375 128.597656 L 325.714844 160.128906 L 282.132812 174.308594 L 286.058594 159.875 C 262.59375 155.910156 244.28125 151.492188 231.117188 146.621094 C 215.339844 141.265625 199.398438 132.414062 183.289062 120.066406 C 159.082031 100.714844 129.109375 68.953125 93.363281 24.789062 "/></g></g></svg>