<svg xmlns="http://www.w3.org/2000/svg" xmlns:xlink="http://www.w3.org/1999/xlink" width="313" zoomAndPan="magnify" viewBox="0 0 234.75 234.749995" height="313" preserveAspectRatio="xMidYMid meet" version="1.0"><defs><clipPath id="bb2aa54335"><path d="M 2.707031 2.707031 L 231.964844 2.707031 L 231.964844 231.964844 L 2.707031 231.964844 Z M 2.707031 2.707031 " clip-rule="nonzero"/></clipPath></defs><g clip-path="url(#bb2aa54335)"><path fill="#01353c" d="M 136.65625 153.707031 L 135.839844 153.707031 C 129.511719 171.496094 118.023438 180.386719 101.378906 180.386719 C 88.894531 180.386719 78.824219 175.726562 71.183594 166.410156 C 63.539062 157.097656 59.714844 144.199219 59.714844 127.722656 C 59.714844 106.402344 65.007812 89.054688 75.589844 75.6875 C 86.171875 62.320312 98.929688 55.644531 113.855469 55.644531 C 127.34375 55.644531 135.792969 61.089844 139.230469 71.988281 L 139.777344 71.988281 L 141.125 58.164062 L 171.664062 58.164062 C 167.59375 97.828125 165.546875 123.769531 165.546875 135.960938 C 165.546875 149.003906 168.984375 155.511719 175.867188 155.511719 C 183.109375 155.511719 189.082031 150.578125 193.777344 140.710938 C 198.484375 130.84375 200.84375 117.945312 200.84375 102.023438 C 200.84375 80.234375 194.09375 62.375 180.625 48.453125 C 167.132812 34.53125 148.324219 27.570312 124.164062 27.570312 C 98.289062 27.570312 76.769531 36.859375 59.632812 55.441406 C 42.488281 74.011719 33.914062 96.675781 33.914062 123.398438 C 33.914062 149.285156 41.492188 169.679688 56.648438 184.578125 C 71.800781 199.480469 92.71875 206.933594 119.414062 206.933594 C 139.777344 206.933594 158.410156 202.933594 175.328125 194.921875 L 175.328125 221.601562 C 159.855469 228.386719 139.953125 231.789062 115.617188 231.789062 C 82.226562 231.789062 55.0625 221.9375 34.117188 202.246094 C 13.175781 182.554688 2.707031 156.085938 2.707031 122.832031 C 2.707031 88.9375 13.878906 60.445312 36.234375 37.351562 C 58.566406 14.257812 87.34375 2.707031 122.535156 2.707031 C 155.109375 2.707031 181.460938 11.667969 201.59375 29.597656 C 221.726562 47.527344 231.789062 71.148438 231.789062 100.488281 C 231.789062 124.613281 225.636719 143.953125 213.328125 158.535156 C 201.03125 173.109375 185.777344 180.394531 167.601562 180.394531 C 158.648438 180.394531 151.355469 177.929688 145.75 172.992188 C 140.128906 168.050781 137.097656 161.617188 136.65625 153.707031 Z M 118.605469 79.953125 C 110.464844 79.953125 103.839844 84.726562 98.726562 94.269531 C 93.609375 103.820312 91.054688 114.867188 91.054688 127.441406 C 91.054688 136.386719 92.796875 143.34375 96.277344 148.332031 C 99.757812 153.320312 104.253906 155.804688 109.777344 155.804688 C 118.289062 155.804688 124.976562 151.109375 129.863281 141.699219 C 134.746094 132.296875 137.1875 119.722656 137.1875 103.988281 C 137.1875 96.535156 135.484375 90.664062 132.09375 86.382812 C 128.703125 82.101562 124.21875 79.953125 118.605469 79.953125 Z M 118.605469 79.953125 " fill-opacity="1" fill-rule="nonzero"/></g></svg>