<svg xmlns="http://www.w3.org/2000/svg" xmlns:xlink="http://www.w3.org/1999/xlink" width="40" zoomAndPan="magnify" viewBox="0 0 30 30.000001" height="40" preserveAspectRatio="xMidYMid meet" version="1.0"><defs><g/><clipPath id="d5042b897f"><path d="M 0.484375 0 L 29.515625 0 L 29.515625 29.03125 L 0.484375 29.03125 Z M 0.484375 0 " clip-rule="nonzero"/></clipPath><clipPath id="ad0bc9e780"><path d="M 1.933594 0 L 28.066406 0 C 28.867188 0 29.515625 0.648438 29.515625 1.453125 L 29.515625 27.582031 C 29.515625 28.382812 28.867188 29.03125 28.066406 29.03125 L 1.933594 29.03125 C 1.132812 29.03125 0.484375 28.382812 0.484375 27.582031 L 0.484375 1.453125 C 0.484375 0.648438 1.132812 0 1.933594 0 Z M 1.933594 0 " clip-rule="nonzero"/></clipPath><clipPath id="394c9d8a3d"><path d="M 0.484375 0 L 29.515625 0 L 29.515625 29.03125 L 0.484375 29.03125 Z M 0.484375 0 " clip-rule="nonzero"/></clipPath><clipPath id="bfec90b968"><path d="M 1.933594 0 L 28.066406 0 C 28.867188 0 29.515625 0.648438 29.515625 1.453125 L 29.515625 27.582031 C 29.515625 28.382812 28.867188 29.03125 28.066406 29.03125 L 1.933594 29.03125 C 1.132812 29.03125 0.484375 28.382812 0.484375 27.582031 L 0.484375 1.453125 C 0.484375 0.648438 1.132812 0 1.933594 0 Z M 1.933594 0 " clip-rule="nonzero"/></clipPath><clipPath id="56cb2de35b"><rect x="0" width="30" y="0" height="30"/></clipPath><clipPath id="92a3fea6c4"><path d="M 0.484375 4 L 29 4 L 29 25 L 0.484375 25 Z M 0.484375 4 " clip-rule="nonzero"/></clipPath><clipPath id="d07f329c1c"><rect x="0" width="29" y="0" height="21"/></clipPath></defs><g clip-path="url(#d5042b897f)"><g clip-path="url(#ad0bc9e780)"><g transform="matrix(1, 0, 0, 1, 0, 0.000000000000005692)"><g clip-path="url(#56cb2de35b)"><g clip-path="url(#394c9d8a3d)"><g clip-path="url(#bfec90b968)"><path fill="#93e85f" d="M 0.484375 0 L 29.515625 0 L 29.515625 29.03125 L 0.484375 29.03125 Z M 0.484375 0 " fill-opacity="1" fill-rule="nonzero"/></g></g></g></g></g></g><g clip-path="url(#92a3fea6c4)"><g transform="matrix(1, 0, 0, 1, 0, 4)"><g clip-path="url(#d07f329c1c)"><g fill="#000000" fill-opacity="1"><g transform="translate(2.094342, 17.403659)"><g><path d="M 0.53125 -2.445312 L 0.53125 -11.144531 C 0.53125 -12.039062 0.773438 -12.722656 1.253906 -13.199219 C 1.734375 -13.671875 2.414062 -13.910156 3.296875 -13.910156 L 5.539062 -13.910156 C 6.417969 -13.910156 7.097656 -13.671875 7.582031 -13.199219 C 8.0625 -12.722656 8.304688 -12.039062 8.304688 -11.144531 L 8.304688 -9.378906 C 8.304688 -9.199219 8.25 -9.054688 8.140625 -8.949219 C 8.035156 -8.839844 7.890625 -8.789062 7.714844 -8.789062 L 6.015625 -8.789062 C 5.835938 -8.789062 5.691406 -8.839844 5.585938 -8.949219 C 5.476562 -9.054688 5.421875 -9.199219 5.421875 -9.378906 L 5.421875 -10.667969 C 5.421875 -10.808594 5.398438 -10.902344 5.347656 -10.953125 C 5.296875 -11.003906 5.203125 -11.03125 5.0625 -11.03125 L 3.839844 -11.03125 C 3.699219 -11.03125 3.605469 -11.003906 3.554688 -10.953125 C 3.503906 -10.902344 3.480469 -10.808594 3.480469 -10.667969 L 3.480469 -2.921875 C 3.480469 -2.785156 3.503906 -2.6875 3.554688 -2.636719 C 3.605469 -2.585938 3.699219 -2.5625 3.839844 -2.5625 L 5.0625 -2.5625 C 5.203125 -2.5625 5.296875 -2.585938 5.347656 -2.636719 C 5.398438 -2.6875 5.421875 -2.785156 5.421875 -2.921875 L 5.421875 -5.199219 L 5.742188 -5.199219 L 5.742188 -4.878906 L 4.859375 -4.878906 C 4.679688 -4.878906 4.539062 -4.933594 4.429688 -5.042969 C 4.320312 -5.148438 4.269531 -5.292969 4.269531 -5.46875 L 4.269531 -7.167969 C 4.269531 -7.347656 4.320312 -7.492188 4.429688 -7.597656 C 4.539062 -7.707031 4.679688 -7.761719 4.859375 -7.761719 L 7.714844 -7.761719 C 7.890625 -7.761719 8.035156 -7.707031 8.140625 -7.597656 C 8.25 -7.492188 8.304688 -7.347656 8.304688 -7.167969 L 8.304688 -2.445312 C 8.304688 -1.566406 8.0625 -0.882812 7.582031 -0.402344 C 7.101562 0.078125 6.417969 0.320312 5.539062 0.320312 L 3.296875 0.320312 C 2.414062 0.320312 1.734375 0.078125 1.253906 -0.402344 C 0.769531 -0.882812 0.53125 -1.566406 0.53125 -2.445312 Z M 1.167969 -2.445312 C 1.167969 -1.742188 1.347656 -1.210938 1.703125 -0.855469 C 2.058594 -0.496094 2.589844 -0.320312 3.296875 -0.320312 L 5.539062 -0.320312 C 6.242188 -0.320312 6.773438 -0.496094 7.132812 -0.855469 C 7.488281 -1.210938 7.667969 -1.742188 7.667969 -2.445312 L 7.667969 -7.167969 C 7.667969 -7.175781 7.664062 -7.183594 7.664062 -7.1875 C 7.671875 -7.175781 7.679688 -7.160156 7.691406 -7.148438 C 7.703125 -7.136719 7.71875 -7.125 7.730469 -7.121094 C 7.726562 -7.121094 7.71875 -7.121094 7.714844 -7.121094 L 4.859375 -7.121094 C 4.851562 -7.121094 4.84375 -7.121094 4.839844 -7.121094 C 4.855469 -7.125 4.867188 -7.136719 4.878906 -7.148438 C 4.894531 -7.160156 4.902344 -7.175781 4.90625 -7.1875 C 4.90625 -7.183594 4.90625 -7.175781 4.90625 -7.167969 L 4.90625 -5.46875 C 4.90625 -5.464844 4.90625 -5.457031 4.90625 -5.453125 C 4.902344 -5.464844 4.894531 -5.480469 4.878906 -5.492188 C 4.867188 -5.503906 4.855469 -5.511719 4.839844 -5.519531 C 4.84375 -5.519531 4.851562 -5.515625 4.859375 -5.515625 L 6.0625 -5.515625 L 6.0625 -2.921875 C 6.0625 -2.609375 5.972656 -2.363281 5.796875 -2.1875 C 5.621094 -2.011719 5.378906 -1.925781 5.0625 -1.925781 L 3.839844 -1.925781 C 3.523438 -1.925781 3.28125 -2.011719 3.105469 -2.1875 C 2.929688 -2.363281 2.839844 -2.609375 2.839844 -2.921875 L 2.839844 -10.667969 C 2.839844 -10.984375 2.929688 -11.230469 3.105469 -11.40625 C 3.28125 -11.578125 3.523438 -11.667969 3.839844 -11.667969 L 5.0625 -11.667969 C 5.378906 -11.667969 5.621094 -11.578125 5.796875 -11.40625 C 5.972656 -11.230469 6.0625 -10.984375 6.0625 -10.667969 L 6.0625 -9.378906 C 6.0625 -9.371094 6.0625 -9.363281 6.0625 -9.359375 C 6.058594 -9.375 6.046875 -9.386719 6.035156 -9.398438 C 6.023438 -9.414062 6.007812 -9.421875 5.996094 -9.425781 C 6 -9.425781 6.007812 -9.425781 6.015625 -9.425781 L 7.714844 -9.425781 C 7.71875 -9.425781 7.726562 -9.425781 7.730469 -9.425781 C 7.71875 -9.421875 7.703125 -9.414062 7.691406 -9.398438 C 7.679688 -9.386719 7.671875 -9.375 7.664062 -9.359375 C 7.664062 -9.363281 7.667969 -9.371094 7.667969 -9.378906 L 7.667969 -11.144531 C 7.667969 -11.859375 7.488281 -12.394531 7.132812 -12.746094 C 6.777344 -13.097656 6.246094 -13.273438 5.539062 -13.273438 L 3.296875 -13.273438 C 2.589844 -13.273438 2.058594 -13.097656 1.703125 -12.746094 C 1.347656 -12.394531 1.167969 -11.859375 1.167969 -11.144531 Z M 1.167969 -2.445312 "/></g></g></g><g fill="#000000" fill-opacity="1"><g transform="translate(10.92694, 17.403659)"><g><path d="M 7.945312 -13.320312 L 7.945312 -11.621094 C 7.945312 -11.441406 7.894531 -11.296875 7.792969 -11.1875 C 7.683594 -11.070312 7.539062 -11.011719 7.355469 -11.011719 L 3.109375 -11.011719 L 3.109375 -11.332031 L 3.429688 -11.332031 L 3.429688 -7.933594 L 3.109375 -7.933594 L 3.109375 -8.253906 L 6.355469 -8.253906 C 6.535156 -8.253906 6.683594 -8.195312 6.789062 -8.082031 C 6.894531 -7.972656 6.945312 -7.824219 6.945312 -7.644531 L 6.945312 -5.964844 C 6.945312 -5.78125 6.894531 -5.636719 6.789062 -5.527344 C 6.683594 -5.414062 6.535156 -5.355469 6.355469 -5.355469 L 3.109375 -5.355469 L 3.109375 -5.675781 L 3.429688 -5.675781 L 3.429688 -2.242188 L 3.109375 -2.242188 L 3.109375 -2.5625 L 7.355469 -2.5625 C 7.535156 -2.5625 7.679688 -2.507812 7.785156 -2.398438 C 7.894531 -2.292969 7.945312 -2.148438 7.945312 -1.972656 L 7.945312 -0.273438 C 7.945312 -0.09375 7.894531 0.0507812 7.785156 0.15625 C 7.679688 0.265625 7.535156 0.320312 7.355469 0.320312 L 1.105469 0.320312 C 0.925781 0.320312 0.785156 0.261719 0.679688 0.148438 C 0.582031 0.0429688 0.53125 -0.0976562 0.53125 -0.273438 L 0.53125 -13.320312 C 0.53125 -13.496094 0.582031 -13.636719 0.679688 -13.742188 C 0.785156 -13.855469 0.925781 -13.910156 1.105469 -13.910156 L 7.355469 -13.910156 C 7.535156 -13.910156 7.679688 -13.855469 7.785156 -13.75 C 7.894531 -13.640625 7.945312 -13.5 7.945312 -13.320312 Z M 7.308594 -13.320312 C 7.308594 -13.328125 7.308594 -13.332031 7.308594 -13.339844 L 7.308594 -13.335938 C 7.3125 -13.324219 7.320312 -13.3125 7.335938 -13.296875 C 7.347656 -13.285156 7.359375 -13.277344 7.375 -13.273438 C 7.371094 -13.273438 7.363281 -13.273438 7.355469 -13.273438 L 1.105469 -13.273438 C 1.097656 -13.273438 1.09375 -13.273438 1.09375 -13.273438 C 1.09375 -13.273438 1.097656 -13.273438 1.097656 -13.273438 C 1.117188 -13.28125 1.132812 -13.289062 1.144531 -13.304688 C 1.15625 -13.316406 1.164062 -13.332031 1.167969 -13.34375 C 1.167969 -13.339844 1.167969 -13.332031 1.167969 -13.320312 L 1.167969 -0.273438 C 1.167969 -0.257812 1.167969 -0.25 1.167969 -0.246094 C 1.164062 -0.261719 1.15625 -0.273438 1.144531 -0.285156 C 1.132812 -0.300781 1.117188 -0.3125 1.097656 -0.316406 C 1.097656 -0.320312 1.09375 -0.320312 1.09375 -0.320312 C 1.09375 -0.320312 1.097656 -0.320312 1.105469 -0.320312 L 7.355469 -0.320312 C 7.363281 -0.320312 7.371094 -0.320312 7.375 -0.320312 C 7.359375 -0.316406 7.347656 -0.304688 7.335938 -0.292969 C 7.320312 -0.28125 7.3125 -0.265625 7.308594 -0.253906 C 7.308594 -0.257812 7.308594 -0.265625 7.308594 -0.273438 L 7.308594 -1.972656 C 7.308594 -1.976562 7.308594 -1.984375 7.308594 -1.988281 C 7.3125 -1.976562 7.320312 -1.960938 7.335938 -1.949219 C 7.347656 -1.9375 7.359375 -1.929688 7.375 -1.921875 C 7.371094 -1.921875 7.363281 -1.925781 7.355469 -1.925781 L 2.789062 -1.925781 L 2.789062 -5.992188 L 6.355469 -5.992188 C 6.359375 -5.992188 6.367188 -5.992188 6.371094 -5.992188 C 6.371094 -5.992188 6.367188 -5.992188 6.367188 -5.992188 C 6.351562 -5.988281 6.339844 -5.976562 6.324219 -5.964844 C 6.316406 -5.953125 6.308594 -5.941406 6.304688 -5.933594 C 6.304688 -5.9375 6.308594 -5.949219 6.308594 -5.964844 L 6.308594 -7.644531 C 6.308594 -7.660156 6.304688 -7.671875 6.304688 -7.675781 C 6.308594 -7.664062 6.316406 -7.65625 6.324219 -7.644531 C 6.339844 -7.628906 6.351562 -7.621094 6.367188 -7.617188 C 6.367188 -7.613281 6.371094 -7.613281 6.371094 -7.613281 C 6.367188 -7.613281 6.359375 -7.613281 6.355469 -7.613281 L 2.789062 -7.613281 L 2.789062 -11.652344 L 7.355469 -11.652344 C 7.363281 -11.652344 7.367188 -11.652344 7.371094 -11.652344 C 7.371094 -11.652344 7.371094 -11.652344 7.367188 -11.648438 C 7.355469 -11.644531 7.339844 -11.636719 7.328125 -11.621094 C 7.316406 -11.609375 7.308594 -11.601562 7.308594 -11.589844 C 7.308594 -11.59375 7.308594 -11.605469 7.308594 -11.621094 Z M 7.308594 -13.320312 "/></g></g></g><g fill="#000000" fill-opacity="1"><g transform="translate(19.402826, 17.403659)"><g><path d="M 0.53125 -2.445312 L 0.53125 -11.144531 C 0.53125 -12.039062 0.773438 -12.722656 1.253906 -13.199219 C 1.734375 -13.671875 2.414062 -13.910156 3.296875 -13.910156 L 5.199219 -13.910156 C 6.089844 -13.910156 6.773438 -13.671875 7.25 -13.195312 C 7.726562 -12.722656 7.964844 -12.039062 7.964844 -11.144531 L 7.964844 -2.445312 C 7.964844 -1.566406 7.726562 -0.886719 7.253906 -0.40625 C 6.777344 0.078125 6.089844 0.320312 5.199219 0.320312 L 3.296875 0.320312 C 2.414062 0.320312 1.734375 0.078125 1.253906 -0.402344 C 0.769531 -0.882812 0.53125 -1.566406 0.53125 -2.445312 Z M 1.167969 -2.445312 C 1.167969 -1.742188 1.347656 -1.210938 1.703125 -0.855469 C 2.058594 -0.496094 2.589844 -0.320312 3.296875 -0.320312 L 5.199219 -0.320312 C 5.914062 -0.320312 6.445312 -0.496094 6.796875 -0.851562 C 7.148438 -1.210938 7.328125 -1.742188 7.328125 -2.445312 L 7.328125 -11.144531 C 7.328125 -11.859375 7.152344 -12.394531 6.800781 -12.746094 C 6.449219 -13.097656 5.914062 -13.273438 5.199219 -13.273438 L 3.296875 -13.273438 C 2.589844 -13.273438 2.058594 -13.097656 1.703125 -12.746094 C 1.347656 -12.394531 1.167969 -11.859375 1.167969 -11.144531 Z M 3.789062 -2.511719 L 4.773438 -2.511719 C 4.914062 -2.511719 5.007812 -2.535156 5.058594 -2.585938 C 5.109375 -2.636719 5.136719 -2.734375 5.136719 -2.871094 L 5.136719 -10.71875 C 5.136719 -10.859375 5.109375 -10.953125 5.058594 -11.003906 C 5.007812 -11.054688 4.914062 -11.082031 4.773438 -11.082031 L 3.789062 -11.082031 C 3.648438 -11.082031 3.554688 -11.054688 3.503906 -11.003906 C 3.453125 -10.953125 3.429688 -10.859375 3.429688 -10.71875 L 3.429688 -2.871094 C 3.429688 -2.734375 3.453125 -2.636719 3.503906 -2.585938 C 3.554688 -2.535156 3.648438 -2.511719 3.789062 -2.511719 Z M 3.789062 -1.871094 C 3.472656 -1.871094 3.230469 -1.960938 3.054688 -2.136719 C 2.878906 -2.3125 2.789062 -2.554688 2.789062 -2.871094 L 2.789062 -10.71875 C 2.789062 -11.035156 2.878906 -11.28125 3.054688 -11.457031 C 3.230469 -11.628906 3.472656 -11.71875 3.789062 -11.71875 L 4.773438 -11.71875 C 5.089844 -11.71875 5.332031 -11.628906 5.507812 -11.457031 C 5.683594 -11.28125 5.773438 -11.035156 5.773438 -10.71875 L 5.773438 -2.871094 C 5.773438 -2.554688 5.683594 -2.3125 5.507812 -2.136719 C 5.332031 -1.960938 5.089844 -1.871094 4.773438 -1.871094 Z M 3.789062 -1.871094 "/></g></g></g></g></g></g></svg>