<svg xmlns="http://www.w3.org/2000/svg" xmlns:xlink="http://www.w3.org/1999/xlink" width="500" zoomAndPan="magnify" viewBox="0 0 375 374.999991" height="500" preserveAspectRatio="xMidYMid meet" version="1.0"><defs><clipPath id="77680f0883"><path d="M 7.5 0 L 367.5 0 C 371.640625 0 375 3.359375 375 7.5 L 375 367.5 C 375 371.640625 371.640625 375 367.5 375 L 7.5 375 C 3.359375 375 0 371.640625 0 367.5 L 0 7.5 C 0 3.359375 3.359375 0 7.5 0 Z M 7.5 0 " clip-rule="nonzero"/></clipPath><clipPath id="5d2a92f8fd"><path d="M 0 0 L 375 0 L 375 375 L 0 375 Z M 0 0 " clip-rule="nonzero"/></clipPath><clipPath id="5531b935e6"><path d="M 7.5 0 L 367.5 0 C 371.640625 0 375 3.359375 375 7.5 L 375 367.5 C 375 371.640625 371.640625 375 367.5 375 L 7.5 375 C 3.359375 375 0 371.640625 0 367.5 L 0 7.5 C 0 3.359375 3.359375 0 7.5 0 Z M 7.5 0 " clip-rule="nonzero"/></clipPath><clipPath id="3d2ce98ebf"><rect x="0" width="375" y="0" height="375"/></clipPath><clipPath id="87720896e2"><path d="M 12.5 184.628906 L 61.667969 184.628906 L 61.667969 268.183594 L 12.5 268.183594 Z M 12.5 184.628906 " clip-rule="nonzero"/></clipPath><clipPath id="5c03004140"><path d="M 16.25 184.628906 L 57.917969 184.628906 C 58.914062 184.628906 59.867188 185.023438 60.570312 185.726562 C 61.273438 186.429688 61.667969 187.386719 61.667969 188.378906 L 61.667969 264.296875 C 61.667969 265.292969 61.273438 266.246094 60.570312 266.949219 C 59.867188 267.652344 58.914062 268.046875 57.917969 268.046875 L 16.25 268.046875 C 15.253906 268.046875 14.300781 267.652344 13.597656 266.949219 C 12.894531 266.246094 12.5 265.292969 12.5 264.296875 L 12.5 188.378906 C 12.5 187.386719 12.894531 186.429688 13.597656 185.726562 C 14.300781 185.023438 15.253906 184.628906 16.25 184.628906 Z M 16.25 184.628906 " clip-rule="nonzero"/></clipPath><clipPath id="5f5f72244a"><path d="M 0.5 0.628906 L 49.667969 0.628906 L 49.667969 84 L 0.5 84 Z M 0.5 0.628906 " clip-rule="nonzero"/></clipPath><clipPath id="2dba6c5e51"><path d="M 4.25 0.628906 L 45.917969 0.628906 C 46.914062 0.628906 47.867188 1.023438 48.570312 1.726562 C 49.273438 2.429688 49.667969 3.386719 49.667969 4.378906 L 49.667969 80.296875 C 49.667969 81.292969 49.273438 82.246094 48.570312 82.949219 C 47.867188 83.652344 46.914062 84.046875 45.917969 84.046875 L 4.25 84.046875 C 3.253906 84.046875 2.300781 83.652344 1.597656 82.949219 C 0.894531 82.246094 0.5 81.292969 0.5 80.296875 L 0.5 4.378906 C 0.5 3.386719 0.894531 2.429688 1.597656 1.726562 C 2.300781 1.023438 3.253906 0.628906 4.25 0.628906 Z M 4.25 0.628906 " clip-rule="nonzero"/></clipPath><clipPath id="77cc829be3"><rect x="0" width="50" y="0" height="85"/></clipPath><clipPath id="6a2032b21f"><path d="M 78.203125 146.519531 L 127.375 146.519531 L 127.375 268.105469 L 78.203125 268.105469 Z M 78.203125 146.519531 " clip-rule="nonzero"/></clipPath><clipPath id="8c0bf7ec1c"><path d="M 81.953125 146.519531 L 123.625 146.519531 C 124.621094 146.519531 125.574219 146.914062 126.277344 147.621094 C 126.980469 148.324219 127.375 149.277344 127.375 150.269531 L 127.375 264.296875 C 127.375 265.292969 126.980469 266.246094 126.277344 266.949219 C 125.574219 267.652344 124.621094 268.046875 123.625 268.046875 L 81.953125 268.046875 C 80.960938 268.046875 80.007812 267.652344 79.304688 266.949219 C 78.597656 266.246094 78.203125 265.292969 78.203125 264.296875 L 78.203125 150.269531 C 78.203125 149.277344 78.597656 148.324219 79.304688 147.621094 C 80.007812 146.914062 80.960938 146.519531 81.953125 146.519531 Z M 81.953125 146.519531 " clip-rule="nonzero"/></clipPath><clipPath id="b2c0e0bae4"><path d="M 0.203125 0.519531 L 49.375 0.519531 L 49.375 122.078125 L 0.203125 122.078125 Z M 0.203125 0.519531 " clip-rule="nonzero"/></clipPath><clipPath id="6148497dac"><path d="M 3.953125 0.519531 L 45.625 0.519531 C 46.621094 0.519531 47.574219 0.914062 48.277344 1.621094 C 48.980469 2.324219 49.375 3.277344 49.375 4.269531 L 49.375 118.296875 C 49.375 119.292969 48.980469 120.246094 48.277344 120.949219 C 47.574219 121.652344 46.621094 122.046875 45.625 122.046875 L 3.953125 122.046875 C 2.960938 122.046875 2.007812 121.652344 1.304688 120.949219 C 0.597656 120.246094 0.203125 119.292969 0.203125 118.296875 L 0.203125 4.269531 C 0.203125 3.277344 0.597656 2.324219 1.304688 1.621094 C 2.007812 0.914062 2.960938 0.519531 3.953125 0.519531 Z M 3.953125 0.519531 " clip-rule="nonzero"/></clipPath><clipPath id="60a6b8148d"><rect x="0" width="50" y="0" height="123"/></clipPath><clipPath id="b09c034681"><path d="M 143.960938 109.09375 L 193.132812 109.09375 L 193.132812 268.132812 L 143.960938 268.132812 Z M 143.960938 109.09375 " clip-rule="nonzero"/></clipPath><clipPath id="b03a8ce193"><path d="M 147.710938 109.09375 L 189.382812 109.09375 C 190.378906 109.09375 191.332031 109.488281 192.035156 110.191406 C 192.738281 110.894531 193.132812 111.851562 193.132812 112.84375 L 193.132812 264.296875 C 193.132812 265.292969 192.738281 266.246094 192.035156 266.949219 C 191.332031 267.652344 190.378906 268.046875 189.382812 268.046875 L 147.710938 268.046875 C 146.71875 268.046875 145.765625 267.652344 145.0625 266.949219 C 144.359375 266.246094 143.960938 265.292969 143.960938 264.296875 L 143.960938 112.84375 C 143.960938 111.851562 144.359375 110.894531 145.0625 110.191406 C 145.765625 109.488281 146.71875 109.09375 147.710938 109.09375 Z M 147.710938 109.09375 " clip-rule="nonzero"/></clipPath><clipPath id="1fe5592725"><path d="M 0.960938 0.09375 L 50.132812 0.09375 L 50.132812 159.078125 L 0.960938 159.078125 Z M 0.960938 0.09375 " clip-rule="nonzero"/></clipPath><clipPath id="3460fc5c2d"><path d="M 4.710938 0.09375 L 46.382812 0.09375 C 47.378906 0.09375 48.332031 0.488281 49.035156 1.191406 C 49.738281 1.894531 50.132812 2.851562 50.132812 3.84375 L 50.132812 155.296875 C 50.132812 156.292969 49.738281 157.246094 49.035156 157.949219 C 48.332031 158.652344 47.378906 159.046875 46.382812 159.046875 L 4.710938 159.046875 C 3.71875 159.046875 2.765625 158.652344 2.0625 157.949219 C 1.359375 157.246094 0.960938 156.292969 0.960938 155.296875 L 0.960938 3.84375 C 0.960938 2.851562 1.359375 1.894531 2.0625 1.191406 C 2.765625 0.488281 3.71875 0.09375 4.710938 0.09375 Z M 4.710938 0.09375 " clip-rule="nonzero"/></clipPath><clipPath id="7b2f42ba82"><rect x="0" width="51" y="0" height="160"/></clipPath><clipPath id="2922cd9621"><path d="M 215.652344 85.007812 L 264.824219 85.007812 L 264.824219 268.058594 L 215.652344 268.058594 Z M 215.652344 85.007812 " clip-rule="nonzero"/></clipPath><clipPath id="c665c566f6"><path d="M 219.402344 85.007812 L 261.074219 85.007812 C 262.066406 85.007812 263.023438 85.402344 263.726562 86.105469 C 264.429688 86.808594 264.824219 87.761719 264.824219 88.757812 L 264.824219 264.296875 C 264.824219 265.292969 264.429688 266.246094 263.726562 266.949219 C 263.023438 267.652344 262.066406 268.046875 261.074219 268.046875 L 219.402344 268.046875 C 218.40625 268.046875 217.453125 267.652344 216.75 266.949219 C 216.046875 266.246094 215.652344 265.292969 215.652344 264.296875 L 215.652344 88.757812 C 215.652344 87.761719 216.046875 86.808594 216.75 86.105469 C 217.453125 85.402344 218.40625 85.007812 219.402344 85.007812 Z M 219.402344 85.007812 " clip-rule="nonzero"/></clipPath><clipPath id="4ecbae8aaf"><path d="M 0.652344 0.0078125 L 49.824219 0.0078125 L 49.824219 183.058594 L 0.652344 183.058594 Z M 0.652344 0.0078125 " clip-rule="nonzero"/></clipPath><clipPath id="c73f0081f2"><path d="M 4.402344 0.0078125 L 46.074219 0.0078125 C 47.066406 0.0078125 48.023438 0.402344 48.726562 1.105469 C 49.429688 1.808594 49.824219 2.761719 49.824219 3.757812 L 49.824219 179.296875 C 49.824219 180.292969 49.429688 181.246094 48.726562 181.949219 C 48.023438 182.652344 47.066406 183.046875 46.074219 183.046875 L 4.402344 183.046875 C 3.40625 183.046875 2.453125 182.652344 1.75 181.949219 C 1.046875 181.246094 0.652344 180.292969 0.652344 179.296875 L 0.652344 3.757812 C 0.652344 2.761719 1.046875 1.808594 1.75 1.105469 C 2.453125 0.402344 3.40625 0.0078125 4.402344 0.0078125 Z M 4.402344 0.0078125 " clip-rule="nonzero"/></clipPath><clipPath id="02f06ac960"><rect x="0" width="50" y="0" height="184"/></clipPath><clipPath id="9f80be0ac6"><path d="M 282.085938 54.082031 L 331.257812 54.082031 L 331.257812 268.058594 L 282.085938 268.058594 Z M 282.085938 54.082031 " clip-rule="nonzero"/></clipPath><clipPath id="bd74a29f81"><path d="M 285.835938 54.082031 L 327.507812 54.082031 C 328.5 54.082031 329.453125 54.480469 330.15625 55.183594 C 330.863281 55.886719 331.257812 56.839844 331.257812 57.832031 L 331.257812 264.296875 C 331.257812 265.292969 330.863281 266.246094 330.15625 266.949219 C 329.453125 267.652344 328.5 268.046875 327.507812 268.046875 L 285.835938 268.046875 C 284.839844 268.046875 283.886719 267.652344 283.183594 266.949219 C 282.480469 266.246094 282.085938 265.292969 282.085938 264.296875 L 282.085938 57.832031 C 282.085938 56.839844 282.480469 55.886719 283.183594 55.183594 C 283.886719 54.480469 284.839844 54.082031 285.835938 54.082031 Z M 285.835938 54.082031 " clip-rule="nonzero"/></clipPath><clipPath id="f3f6da0f3c"><path d="M 0.0859375 0.0820312 L 49.257812 0.0820312 L 49.257812 214.058594 L 0.0859375 214.058594 Z M 0.0859375 0.0820312 " clip-rule="nonzero"/></clipPath><clipPath id="734d646227"><path d="M 3.835938 0.0820312 L 45.507812 0.0820312 C 46.5 0.0820312 47.453125 0.480469 48.15625 1.183594 C 48.863281 1.886719 49.257812 2.839844 49.257812 3.832031 L 49.257812 210.296875 C 49.257812 211.292969 48.863281 212.246094 48.15625 212.949219 C 47.453125 213.652344 46.5 214.046875 45.507812 214.046875 L 3.835938 214.046875 C 2.839844 214.046875 1.886719 213.652344 1.183594 212.949219 C 0.480469 212.246094 0.0859375 211.292969 0.0859375 210.296875 L 0.0859375 3.832031 C 0.0859375 2.839844 0.480469 1.886719 1.183594 1.183594 C 1.886719 0.480469 2.839844 0.0820312 3.835938 0.0820312 Z M 3.835938 0.0820312 " clip-rule="nonzero"/></clipPath><clipPath id="fc795449d2"><rect x="0" width="50" y="0" height="215"/></clipPath><clipPath id="c5a5892413"><path d="M 111.261719 201.472656 L 366.214844 201.472656 L 366.214844 375 L 111.261719 375 Z M 111.261719 201.472656 " clip-rule="nonzero"/></clipPath><clipPath id="320d45b970"><path d="M 238.738281 201.472656 C 168.335938 201.472656 111.261719 258.542969 111.261719 328.949219 C 111.261719 399.351562 168.335938 456.421875 238.738281 456.421875 C 309.140625 456.421875 366.214844 399.351562 366.214844 328.949219 C 366.214844 258.542969 309.140625 201.472656 238.738281 201.472656 Z M 238.738281 201.472656 " clip-rule="nonzero"/></clipPath><clipPath id="3601fa71f6"><path d="M 0.261719 0.472656 L 255.214844 0.472656 L 255.214844 174 L 0.261719 174 Z M 0.261719 0.472656 " clip-rule="nonzero"/></clipPath><clipPath id="c8081b946a"><path d="M 127.738281 0.472656 C 57.335938 0.472656 0.261719 57.542969 0.261719 127.949219 C 0.261719 198.351562 57.335938 255.421875 127.738281 255.421875 C 198.140625 255.421875 255.214844 198.351562 255.214844 127.949219 C 255.214844 57.542969 198.140625 0.472656 127.738281 0.472656 Z M 127.738281 0.472656 " clip-rule="nonzero"/></clipPath><clipPath id="02d53e00d5"><rect x="0" width="256" y="0" height="174"/></clipPath><clipPath id="274d39de77"><path d="M 321 312 L 363.925781 312 L 363.925781 364.761719 L 321 364.761719 Z M 321 312 " clip-rule="nonzero"/></clipPath><clipPath id="628cda1622"><path d="M 117 312 L 159 312 L 159 364.761719 L 117 364.761719 Z M 117 312 " clip-rule="nonzero"/></clipPath><clipPath id="9fc675aebf"><path d="M 214 235.121094 L 343.46875 235.121094 L 343.46875 364.589844 L 214 364.589844 Z M 214 235.121094 " clip-rule="nonzero"/></clipPath></defs><g clip-path="url(#77680f0883)"><g transform="matrix(1, 0, 0, 1, 0, 0)"><g clip-path="url(#3d2ce98ebf)"><g clip-path="url(#5d2a92f8fd)"><g clip-path="url(#5531b935e6)"><rect x="-82.5" width="540" fill="#ffffff" height="539.999987" y="-82.499998" fill-opacity="1"/></g></g></g></g></g><g clip-path="url(#87720896e2)"><g clip-path="url(#5c03004140)"><g transform="matrix(1, 0, 0, 1, 12, 184)"><g clip-path="url(#77cc829be3)"><g clip-path="url(#5f5f72244a)"><g clip-path="url(#2dba6c5e51)"><path fill="#93e85f" d="M 0.5 0.628906 L 49.667969 0.628906 L 49.667969 83.992188 L 0.5 83.992188 Z M 0.5 0.628906 " fill-opacity="1" fill-rule="nonzero"/></g></g></g></g></g></g><g clip-path="url(#6a2032b21f)"><g clip-path="url(#8c0bf7ec1c)"><g transform="matrix(1, 0, 0, 1, 78, 146)"><g clip-path="url(#60a6b8148d)"><g clip-path="url(#b2c0e0bae4)"><g clip-path="url(#6148497dac)"><path fill="#155655" d="M 0.203125 0.519531 L 49.375 0.519531 L 49.375 122.105469 L 0.203125 122.105469 Z M 0.203125 0.519531 " fill-opacity="1" fill-rule="nonzero"/></g></g></g></g></g></g><g clip-path="url(#b09c034681)"><g clip-path="url(#b03a8ce193)"><g transform="matrix(1, 0, 0, 1, 143, 109)"><g clip-path="url(#7b2f42ba82)"><g clip-path="url(#1fe5592725)"><g clip-path="url(#3460fc5c2d)"><path fill="#93e85f" d="M 0.960938 0.09375 L 50.132812 0.09375 L 50.132812 159.132812 L 0.960938 159.132812 Z M 0.960938 0.09375 " fill-opacity="1" fill-rule="nonzero"/></g></g></g></g></g></g><g clip-path="url(#2922cd9621)"><g clip-path="url(#c665c566f6)"><g transform="matrix(1, 0, 0, 1, 215, 85)"><g clip-path="url(#02f06ac960)"><g clip-path="url(#4ecbae8aaf)"><g clip-path="url(#c73f0081f2)"><path fill="#155655" d="M 0.652344 0.0078125 L 49.824219 0.0078125 L 49.824219 183.058594 L 0.652344 183.058594 Z M 0.652344 0.0078125 " fill-opacity="1" fill-rule="nonzero"/></g></g></g></g></g></g><g clip-path="url(#9f80be0ac6)"><g clip-path="url(#bd74a29f81)"><g transform="matrix(1, 0, 0, 1, 282, 54)"><g clip-path="url(#fc795449d2)"><g clip-path="url(#f3f6da0f3c)"><g clip-path="url(#734d646227)"><path fill="#93e85f" d="M 0.0859375 0.0820312 L 49.257812 0.0820312 L 49.257812 214.058594 L 0.0859375 214.058594 Z M 0.0859375 0.0820312 " fill-opacity="1" fill-rule="nonzero"/></g></g></g></g></g></g><g clip-path="url(#c5a5892413)"><g clip-path="url(#320d45b970)"><g transform="matrix(1, 0, 0, 1, 111, 201)"><g clip-path="url(#02d53e00d5)"><g clip-path="url(#3601fa71f6)"><g clip-path="url(#c8081b946a)"><path fill="#ffffff" d="M 0.261719 0.472656 L 255.214844 0.472656 L 255.214844 255.421875 L 0.261719 255.421875 Z M 0.261719 0.472656 " fill-opacity="1" fill-rule="nonzero"/></g></g></g></g></g></g><path stroke-linecap="butt" transform="matrix(0.686583, -0.301834, 0.301834, 0.686583, 10.083297, 141.027413)" fill="none" stroke-linejoin="miter" d="M -0.00199547 7.998328 L 384.45935 7.999083 " stroke="#000000" stroke-width="16" stroke-opacity="1" stroke-miterlimit="4"/><path stroke-linecap="round" transform="matrix(0.686583, -0.301834, 0.301834, 0.686583, 10.083297, 141.027413)" fill-opacity="1" fill="#000000" fill-rule="nonzero" stroke-linejoin="round" d="M 388.460359 -15.997948 L 420.462127 7.998607 L 388.4622 31.998698 Z M 388.460359 -15.997948 " stroke="#000000" stroke-width="16" stroke-opacity="1" stroke-miterlimit="4"/><path fill="#000000" d="M 204.640625 224.972656 C 204.054688 222.792969 201.738281 221.578125 199.609375 222.324219 C 185.410156 227.277344 171.945312 234.914062 159.988281 245.230469 C 158.292969 246.695312 158.210938 249.300781 159.796875 250.886719 L 182.957031 274.046875 C 184.359375 275.449219 186.597656 275.570312 188.132812 274.316406 C 195.078125 268.660156 202.726562 264.300781 210.757812 261.238281 C 212.617188 260.53125 213.628906 258.515625 213.113281 256.59375 L 204.640625 224.972656 " fill-opacity="1" fill-rule="nonzero"/><path fill="#000000" d="M 152.71875 257.96875 C 151.132812 256.378906 148.523438 256.460938 147.058594 258.160156 C 136.742188 270.113281 129.105469 283.582031 124.152344 297.777344 C 123.40625 299.910156 124.621094 302.226562 126.804688 302.808594 L 158.421875 311.28125 C 160.34375 311.796875 162.359375 310.789062 163.066406 308.925781 C 166.128906 300.898438 170.488281 293.246094 176.148438 286.304688 C 177.402344 284.765625 177.28125 282.527344 175.878906 281.128906 L 152.71875 257.96875 " fill-opacity="1" fill-rule="nonzero"/><g clip-path="url(#274d39de77)"><path fill="#000000" d="M 361.003906 315.527344 C 360.585938 313.304688 358.375 311.898438 356.191406 312.484375 L 324.546875 320.960938 C 322.636719 321.476562 321.414062 323.351562 321.726562 325.308594 C 323.105469 333.960938 323.105469 342.796875 321.726562 351.453125 C 321.414062 353.40625 322.636719 355.28125 324.546875 355.796875 L 356.191406 364.273438 C 358.375 364.859375 360.585938 363.453125 361.003906 361.234375 C 363.847656 346.140625 363.847656 330.617188 361.003906 315.527344 " fill-opacity="1" fill-rule="nonzero"/></g><path fill="#000000" d="M 222.792969 254.042969 C 223.304688 255.953125 225.183594 257.175781 227.136719 256.863281 C 235.792969 255.480469 244.625 255.480469 253.28125 256.863281 C 255.238281 257.175781 257.113281 255.953125 257.628906 254.042969 L 266.105469 222.398438 C 266.691406 220.214844 265.285156 218.003906 263.0625 217.585938 C 247.96875 214.742188 232.449219 214.742188 217.355469 217.585938 C 215.136719 218.003906 213.730469 220.214844 214.316406 222.398438 L 222.792969 254.042969 " fill-opacity="1" fill-rule="nonzero"/><g clip-path="url(#628cda1622)"><path fill="#000000" d="M 155.871094 320.960938 L 124.226562 312.484375 C 122.042969 311.898438 119.832031 313.304688 119.414062 315.527344 C 116.574219 330.617188 116.574219 346.140625 119.414062 361.234375 C 119.832031 363.453125 122.042969 364.859375 124.226562 364.273438 L 155.871094 355.796875 C 157.785156 355.28125 159.003906 353.40625 158.695312 351.453125 C 157.3125 342.796875 157.3125 333.960938 158.695312 325.308594 C 159.003906 323.351562 157.785156 321.476562 155.871094 320.960938 " fill-opacity="1" fill-rule="nonzero"/></g><g clip-path="url(#9fc675aebf)"><path fill="#000000" d="M 340.511719 235.886719 L 225.140625 316.945312 C 211.820312 326.300781 210.167969 345.40625 221.675781 356.914062 C 233.183594 368.421875 252.289062 366.769531 261.644531 353.449219 L 342.703125 238.078125 C 343.714844 236.636719 341.953125 234.875 340.511719 235.886719 " fill-opacity="1" fill-rule="nonzero"/></g><path fill="#000000" d="M 269.6875 261.25 C 273.515625 262.710938 277.253906 264.46875 280.871094 266.523438 C 281.859375 267.082031 283.085938 267.007812 284.015625 266.355469 L 314.253906 245.109375 C 315.90625 243.949219 315.933594 241.523438 314.324219 240.300781 C 303.960938 232.449219 292.640625 226.449219 280.8125 222.324219 C 278.636719 221.5625 276.378906 222.746094 275.78125 224.972656 L 267.296875 256.628906 C 266.78125 258.554688 267.824219 260.535156 269.6875 261.25 " fill-opacity="1" fill-rule="nonzero"/><path fill="#000000" d="M 353.617188 302.808594 C 355.84375 302.210938 357.027344 299.953125 356.265625 297.777344 C 352.136719 285.945312 346.140625 274.628906 338.285156 264.265625 C 337.066406 262.65625 334.640625 262.683594 333.480469 264.335938 L 312.234375 294.574219 C 311.582031 295.503906 311.507812 296.730469 312.066406 297.71875 C 314.121094 301.335938 315.878906 305.074219 317.339844 308.902344 C 318.050781 310.765625 320.035156 311.808594 321.960938 311.292969 L 353.617188 302.808594 " fill-opacity="1" fill-rule="nonzero"/></svg>