<svg xmlns="http://www.w3.org/2000/svg" xmlns:xlink="http://www.w3.org/1999/xlink" width="40" zoomAndPan="magnify" viewBox="0 0 30 30.000001" height="40" preserveAspectRatio="xMidYMid meet" version="1.0"><defs><clipPath id="1e92a60648"><path d="M 0.484375 0 L 29.515625 0 L 29.515625 29.03125 L 0.484375 29.03125 Z M 0.484375 0 " clip-rule="nonzero"/></clipPath><clipPath id="b05160af06"><path d="M 0.484375 0 L 29.515625 0 L 29.515625 29.03125 L 0.484375 29.03125 Z M 0.484375 0 " clip-rule="nonzero"/></clipPath><clipPath id="41733ff446"><path d="M 1.933594 0 L 28.066406 0 C 28.867188 0 29.515625 0.648438 29.515625 1.453125 L 29.515625 27.582031 C 29.515625 28.382812 28.867188 29.03125 28.066406 29.03125 L 1.933594 29.03125 C 1.132812 29.03125 0.484375 28.382812 0.484375 27.582031 L 0.484375 1.453125 C 0.484375 0.648438 1.132812 0 1.933594 0 Z M 1.933594 0 " clip-rule="nonzero"/></clipPath><clipPath id="217aa5d78e"><path d="M 0.484375 0 L 29.515625 0 L 29.515625 29.03125 L 0.484375 29.03125 Z M 0.484375 0 " clip-rule="nonzero"/></clipPath><clipPath id="3d05eb21aa"><path d="M 1.933594 0 L 28.066406 0 C 28.867188 0 29.515625 0.648438 29.515625 1.453125 L 29.515625 27.582031 C 29.515625 28.382812 28.867188 29.03125 28.066406 29.03125 L 1.933594 29.03125 C 1.132812 29.03125 0.484375 28.382812 0.484375 27.582031 L 0.484375 1.453125 C 0.484375 0.648438 1.132812 0 1.933594 0 Z M 1.933594 0 " clip-rule="nonzero"/></clipPath><clipPath id="1b744760f2"><rect x="0" width="30" y="0" height="30"/></clipPath><clipPath id="7b9a5f0851"><path d="M 7.59375 2.902344 L 22.109375 2.902344 L 22.109375 26.128906 L 7.59375 26.128906 Z M 7.59375 2.902344 " clip-rule="nonzero"/></clipPath></defs><g clip-path="url(#1e92a60648)"><path fill="#ffffff" d="M 0.484375 0 L 29.515625 0 L 29.515625 29.03125 L 0.484375 29.03125 Z M 0.484375 0 " fill-opacity="1" fill-rule="nonzero"/><path fill="#ffffff" d="M 0.484375 0 L 29.515625 0 L 29.515625 29.03125 L 0.484375 29.03125 Z M 0.484375 0 " fill-opacity="1" fill-rule="nonzero"/></g><g clip-path="url(#b05160af06)"><g clip-path="url(#41733ff446)"><g transform="matrix(1, 0, 0, 1, 0, 0.000000000000005692)"><g clip-path="url(#1b744760f2)"><g clip-path="url(#217aa5d78e)"><g clip-path="url(#3d05eb21aa)"><path fill="#93e85f" d="M 0.484375 0 L 29.515625 0 L 29.515625 29.03125 L 0.484375 29.03125 Z M 0.484375 0 " fill-opacity="1" fill-rule="nonzero"/></g></g></g></g></g></g><g clip-path="url(#7b9a5f0851)"><path fill="#000000" d="M 14.84375 6.121094 C 12.625 6.121094 10.824219 7.957031 10.824219 10.222656 C 10.824219 12.492188 12.625 14.324219 14.84375 14.324219 C 17.066406 14.324219 18.867188 12.492188 18.867188 10.222656 C 18.867188 7.960938 17.066406 6.121094 14.84375 6.121094 Z M 14.84375 13.796875 C 12.914062 13.796875 11.34375 12.195312 11.34375 10.222656 C 11.34375 8.253906 12.914062 6.652344 14.84375 6.652344 C 16.777344 6.652344 18.347656 8.253906 18.347656 10.222656 C 18.347656 12.195312 16.777344 13.796875 14.84375 13.796875 Z M 21.5625 7.285156 C 21.214844 6.441406 20.722656 5.679688 20.089844 5.03125 C 19.460938 4.375 18.722656 3.859375 17.90625 3.496094 C 17.105469 3.140625 16.175781 2.945312 15.136719 2.914062 C 15.023438 2.902344 14.910156 2.902344 14.800781 2.902344 C 13.839844 2.902344 13 3.035156 12.246094 3.308594 C 11.398438 3.613281 10.625 4.078125 9.953125 4.6875 C 9.277344 5.289062 8.734375 6.015625 8.335938 6.828125 C 7.925781 7.65625 7.679688 8.585938 7.617188 9.511719 C 7.601562 9.679688 7.597656 9.851562 7.597656 10.019531 C 7.597656 11.941406 8.515625 13.570312 9.40625 15.144531 C 9.5 15.308594 9.597656 15.480469 9.6875 15.648438 L 14.851562 24.941406 L 20.011719 15.648438 C 20.105469 15.480469 20.199219 15.316406 20.296875 15.144531 C 21.183594 13.570312 22.101562 11.9375 22.101562 10.019531 C 22.097656 9.085938 21.910156 8.136719 21.5625 7.285156 Z M 19.558594 15.390625 C 19.039062 16.328125 18.519531 17.261719 17.996094 18.199219 C 17.449219 19.183594 16.902344 20.167969 16.351562 21.152344 C 15.953125 21.878906 15.550781 22.597656 15.152344 23.324219 C 15.050781 23.503906 14.949219 23.6875 14.84375 23.871094 C 14.746094 23.691406 14.644531 23.507812 14.539062 23.324219 C 14.140625 22.597656 13.738281 21.878906 13.339844 21.152344 C 12.792969 20.167969 12.246094 19.183594 11.695312 18.199219 C 11.175781 17.261719 10.65625 16.328125 10.132812 15.390625 C 9.210938 13.726562 8.113281 12.003906 8.113281 10.019531 C 8.113281 9.863281 8.117188 9.703125 8.128906 9.550781 C 8.1875 8.6875 8.417969 7.839844 8.800781 7.066406 C 9.167969 6.3125 9.683594 5.640625 10.296875 5.082031 C 10.917969 4.523438 11.640625 4.085938 12.421875 3.804688 C 13.289062 3.492188 14.210938 3.40625 15.128906 3.4375 C 16.011719 3.464844 16.894531 3.617188 17.703125 3.976562 C 18.460938 4.3125 19.152344 4.796875 19.730469 5.398438 C 20.300781 5.996094 20.765625 6.707031 21.082031 7.484375 C 21.410156 8.28125 21.578125 9.152344 21.578125 10.019531 C 21.578125 12 20.480469 13.726562 19.558594 15.390625 Z M 16.589844 24.824219 C 16.589844 25.007812 15.804688 25.15625 14.84375 25.15625 C 13.878906 25.15625 13.101562 25.007812 13.101562 24.824219 C 13.101562 24.6875 13.535156 24.566406 14.152344 24.515625 L 14.199219 24.589844 C 13.769531 24.632812 13.480469 24.722656 13.480469 24.820312 C 13.480469 24.964844 14.089844 25.078125 14.84375 25.078125 C 15.601562 25.078125 16.210938 24.964844 16.210938 24.820312 C 16.210938 24.722656 15.925781 24.632812 15.5 24.589844 L 15.546875 24.515625 C 16.160156 24.574219 16.589844 24.6875 16.589844 24.824219 Z M 20.085938 24.824219 C 20.085938 25.308594 19.554688 25.621094 18.359375 25.851562 C 17.417969 26.03125 16.171875 26.128906 14.851562 26.128906 C 13.523438 26.128906 12.277344 26.03125 11.339844 25.851562 C 10.148438 25.621094 9.613281 25.308594 9.613281 24.824219 C 9.613281 24.339844 10.148438 24.023438 11.339844 23.796875 C 11.96875 23.675781 12.734375 23.59375 13.5625 23.550781 L 13.789062 23.917969 C 11.609375 24.011719 9.984375 24.382812 9.984375 24.824219 C 9.984375 25.335938 12.164062 25.753906 14.855469 25.753906 C 17.546875 25.753906 19.726562 25.339844 19.726562 24.824219 C 19.726562 24.378906 18.089844 24.011719 15.90625 23.917969 L 16.121094 23.550781 C 16.960938 23.59375 17.738281 23.675781 18.371094 23.796875 C 19.554688 24.023438 20.085938 24.339844 20.085938 24.824219 Z M 20.085938 24.824219 " fill-opacity="1" fill-rule="nonzero"/></g></svg>