<svg xmlns="http://www.w3.org/2000/svg" xmlns:xlink="http://www.w3.org/1999/xlink" width="313" zoomAndPan="magnify" viewBox="0 0 234.75 234.749995" height="313" preserveAspectRatio="xMidYMid meet" version="1.0"><defs><clipPath id="707889fd42"><path d="M 53 5.203125 L 182 5.203125 L 182 206 L 53 206 Z M 53 5.203125 " clip-rule="nonzero"/></clipPath><clipPath id="81e757fb60"><path d="M 43.066406 182.648438 L 191.375 182.648438 L 191.375 229.035156 L 43.066406 229.035156 Z M 43.066406 182.648438 " clip-rule="nonzero"/></clipPath></defs><g clip-path="url(#707889fd42)"><path fill="#01353c" d="M 117.21875 108.703125 C 94.566406 108.703125 76.203125 90.339844 76.203125 67.683594 C 76.203125 45.03125 94.566406 26.667969 117.21875 26.667969 C 139.875 26.667969 158.238281 45.03125 158.238281 67.683594 C 158.238281 90.339844 139.875 108.703125 117.21875 108.703125 Z M 118.828125 5.464844 C 118.292969 5.453125 117.757812 5.445312 117.21875 5.445312 C 116.683594 5.445312 116.148438 5.453125 115.613281 5.464844 C 67.652344 6.542969 38.089844 58.484375 60.789062 100.753906 L 117.21875 205.851562 L 173.65625 100.753906 C 196.351562 58.484375 166.789062 6.542969 118.828125 5.464844 " fill-opacity="1" fill-rule="nonzero"/></g><g clip-path="url(#81e757fb60)"><path fill="#01353c" d="M 140.367188 182.667969 L 138.980469 185.25 C 162.324219 187.726562 178.933594 194.070312 178.933594 201.507812 C 178.933594 210.75 153.289062 218.304688 120.941406 218.84375 C 119.710938 218.867188 118.46875 218.878906 117.21875 218.878906 C 115.972656 218.878906 114.734375 218.867188 113.5 218.84375 C 81.152344 218.304688 55.511719 210.75 55.511719 201.507812 C 55.511719 194.070312 72.117188 187.726562 95.460938 185.25 L 94.074219 182.667969 C 64.457031 185.785156 43.066406 194.71875 43.066406 205.257812 C 43.066406 218.390625 76.265625 229.035156 117.21875 229.035156 C 158.175781 229.035156 191.378906 218.390625 191.378906 205.257812 C 191.378906 194.71875 169.988281 185.785156 140.367188 182.667969 " fill-opacity="1" fill-rule="nonzero"/></g></svg>