<svg xmlns="http://www.w3.org/2000/svg" xmlns:xlink="http://www.w3.org/1999/xlink" width="40" zoomAndPan="magnify" viewBox="0 0 30 30.000001" height="40" preserveAspectRatio="xMidYMid meet" version="1.0"><defs><clipPath id="264462b39b"><path d="M 0.484375 0 L 29.515625 0 L 29.515625 29.03125 L 0.484375 29.03125 Z M 0.484375 0 " clip-rule="nonzero"/></clipPath><clipPath id="49c8ad6e06"><path d="M 0.484375 0 L 29.515625 0 L 29.515625 29.03125 L 0.484375 29.03125 Z M 0.484375 0 " clip-rule="nonzero"/></clipPath><clipPath id="b92fbb8db3"><path d="M 1.933594 0 L 28.066406 0 C 28.867188 0 29.515625 0.648438 29.515625 1.453125 L 29.515625 27.582031 C 29.515625 28.382812 28.867188 29.03125 28.066406 29.03125 L 1.933594 29.03125 C 1.132812 29.03125 0.484375 28.382812 0.484375 27.582031 L 0.484375 1.453125 C 0.484375 0.648438 1.132812 0 1.933594 0 Z M 1.933594 0 " clip-rule="nonzero"/></clipPath><clipPath id="255003c7b2"><path d="M 0.484375 0 L 29.515625 0 L 29.515625 29.03125 L 0.484375 29.03125 Z M 0.484375 0 " clip-rule="nonzero"/></clipPath><clipPath id="f451b051c6"><path d="M 1.933594 0 L 28.066406 0 C 28.867188 0 29.515625 0.648438 29.515625 1.453125 L 29.515625 27.582031 C 29.515625 28.382812 28.867188 29.03125 28.066406 29.03125 L 1.933594 29.03125 C 1.132812 29.03125 0.484375 28.382812 0.484375 27.582031 L 0.484375 1.453125 C 0.484375 0.648438 1.132812 0 1.933594 0 Z M 1.933594 0 " clip-rule="nonzero"/></clipPath><clipPath id="93e0466681"><rect x="0" width="30" y="0" height="30"/></clipPath><clipPath id="fa78820d92"><path d="M 4 22 L 25.773438 22 L 25.773438 22.835938 L 4 22.835938 Z M 4 22 " clip-rule="nonzero"/></clipPath><clipPath id="b50db04bde"><path d="M 21 6.144531 L 24 6.144531 L 24 9 L 21 9 Z M 21 6.144531 " clip-rule="nonzero"/></clipPath></defs><g clip-path="url(#264462b39b)"><path fill="#ffffff" d="M 0.484375 0 L 29.515625 0 L 29.515625 29.03125 L 0.484375 29.03125 Z M 0.484375 0 " fill-opacity="1" fill-rule="nonzero"/><path fill="#ffffff" d="M 0.484375 0 L 29.515625 0 L 29.515625 29.03125 L 0.484375 29.03125 Z M 0.484375 0 " fill-opacity="1" fill-rule="nonzero"/></g><g clip-path="url(#49c8ad6e06)"><g clip-path="url(#b92fbb8db3)"><g transform="matrix(1, 0, 0, 1, 0, 0.000000000000005692)"><g clip-path="url(#93e0466681)"><g clip-path="url(#255003c7b2)"><g clip-path="url(#f451b051c6)"><path fill="#93e85f" d="M 0.484375 0 L 29.515625 0 L 29.515625 29.03125 L 0.484375 29.03125 Z M 0.484375 0 " fill-opacity="1" fill-rule="nonzero"/></g></g></g></g></g></g><g clip-path="url(#fa78820d92)"><path fill="#000000" d="M 25.46875 22.835938 L 4.304688 22.835938 C 4.136719 22.835938 4.007812 22.707031 4.007812 22.492188 C 4.007812 22.324219 4.136719 22.195312 4.304688 22.195312 L 25.46875 22.195312 C 25.640625 22.195312 25.769531 22.324219 25.769531 22.492188 C 25.769531 22.707031 25.640625 22.835938 25.46875 22.835938 Z M 25.46875 22.835938 " fill-opacity="1" fill-rule="evenodd"/></g><path fill="#000000" d="M 5.878906 21.59375 L 5.878906 18.726562 C 5.878906 18.554688 6.003906 18.386719 6.21875 18.386719 L 8.726562 18.386719 C 8.894531 18.386719 9.066406 18.554688 9.066406 18.726562 L 9.066406 21.59375 Z M 5.878906 21.59375 " fill-opacity="1" fill-rule="evenodd"/><path fill="#000000" d="M 10.851562 21.59375 L 10.851562 14.875 C 10.851562 14.703125 10.976562 14.53125 11.148438 14.53125 L 13.699219 14.53125 C 13.867188 14.53125 13.996094 14.703125 13.996094 14.875 L 13.996094 21.59375 Z M 10.851562 21.59375 " fill-opacity="1" fill-rule="evenodd"/><path fill="#000000" d="M 15.78125 21.59375 L 15.78125 16.117188 C 15.78125 15.902344 15.90625 15.773438 16.078125 15.773438 L 18.628906 15.773438 C 18.796875 15.773438 18.925781 15.902344 18.925781 16.117188 L 18.925781 21.59375 Z M 15.78125 21.59375 " fill-opacity="1" fill-rule="evenodd"/><path fill="#000000" d="M 20.710938 21.59375 L 20.710938 12.007812 C 20.710938 11.835938 20.839844 11.707031 21.050781 11.707031 L 23.558594 11.707031 C 23.726562 11.707031 23.855469 11.835938 23.855469 12.007812 L 23.855469 21.59375 Z M 20.710938 21.59375 " fill-opacity="1" fill-rule="evenodd"/><path fill="#000000" d="M 8.257812 13.890625 C 8.171875 13.890625 8.089844 13.847656 8.003906 13.761719 C 7.917969 13.589844 7.917969 13.417969 8.046875 13.292969 L 11.445312 10.679688 C 11.574219 10.550781 11.785156 10.59375 11.871094 10.722656 C 11.996094 10.851562 11.957031 11.066406 11.828125 11.152344 L 8.429688 13.804688 C 8.386719 13.847656 8.300781 13.890625 8.257812 13.890625 Z M 16.417969 11.621094 C 16.417969 11.621094 16.375 11.621094 16.332031 11.621094 L 13.316406 10.851562 C 13.144531 10.851562 13.058594 10.636719 13.101562 10.507812 C 13.144531 10.335938 13.316406 10.210938 13.484375 10.253906 L 16.503906 11.023438 C 16.628906 11.066406 16.757812 11.238281 16.714844 11.363281 C 16.671875 11.535156 16.546875 11.621094 16.417969 11.621094 Z M 18.117188 11.238281 C 18.03125 11.238281 17.949219 11.195312 17.863281 11.109375 C 17.777344 10.980469 17.777344 10.765625 17.90625 10.679688 L 21.347656 7.855469 C 21.476562 7.769531 21.6875 7.769531 21.773438 7.898438 C 21.902344 8.027344 21.859375 8.242188 21.773438 8.324219 L 18.332031 11.152344 C 18.289062 11.195312 18.203125 11.238281 18.117188 11.238281 Z M 18.117188 11.238281 " fill-opacity="1" fill-rule="evenodd"/><path fill="#000000" d="M 7.449219 15.472656 C 6.726562 15.472656 6.132812 14.875 6.132812 14.148438 C 6.132812 13.417969 6.726562 12.863281 7.449219 12.863281 C 8.171875 12.863281 8.769531 13.417969 8.769531 14.148438 C 8.769531 14.875 8.171875 15.472656 7.449219 15.472656 Z M 7.449219 15.472656 " fill-opacity="1" fill-rule="evenodd"/><path fill="#000000" d="M 12.421875 11.621094 C 11.699219 11.621094 11.105469 11.066406 11.105469 10.296875 C 11.105469 9.566406 11.699219 9.011719 12.421875 9.011719 C 13.144531 9.011719 13.742188 9.566406 13.742188 10.296875 C 13.742188 11.066406 13.144531 11.621094 12.421875 11.621094 Z M 12.421875 11.621094 " fill-opacity="1" fill-rule="evenodd"/><path fill="#000000" d="M 17.351562 12.863281 C 16.628906 12.863281 16.078125 12.308594 16.078125 11.578125 C 16.078125 10.851562 16.628906 10.253906 17.351562 10.253906 C 18.074219 10.253906 18.671875 10.851562 18.671875 11.578125 C 18.671875 12.308594 18.074219 12.863281 17.351562 12.863281 Z M 17.351562 12.863281 " fill-opacity="1" fill-rule="evenodd"/><g clip-path="url(#b50db04bde)"><path fill="#000000" d="M 22.324219 8.796875 C 21.601562 8.796875 21.007812 8.199219 21.007812 7.46875 C 21.007812 6.742188 21.601562 6.144531 22.324219 6.144531 C 23.046875 6.144531 23.644531 6.742188 23.644531 7.46875 C 23.644531 8.199219 23.046875 8.796875 22.324219 8.796875 Z M 22.324219 8.796875 " fill-opacity="1" fill-rule="evenodd"/></g></svg>