<svg xmlns="http://www.w3.org/2000/svg" xmlns:xlink="http://www.w3.org/1999/xlink" width="500" zoomAndPan="magnify" viewBox="0 0 375 374.999991" height="500" preserveAspectRatio="xMidYMid meet" version="1.0"><defs><clipPath id="6ecb74a4a6"><path d="M 37.5 37.5 L 337.5 37.5 L 337.5 337.5 L 37.5 337.5 Z M 37.5 37.5 " clip-rule="nonzero"/></clipPath></defs><g clip-path="url(#6ecb74a4a6)"><path fill="#8fe45a" d="M 293.605469 81.457031 C 265.273438 53.125 227.605469 37.519531 187.53125 37.519531 C 147.457031 37.519531 109.792969 53.125 81.457031 81.457031 C 53.117188 109.789062 37.519531 147.457031 37.519531 187.53125 C 37.519531 227.605469 53.121094 265.269531 81.457031 293.605469 C 109.789062 321.945312 147.457031 337.542969 187.53125 337.542969 C 227.605469 337.542969 265.269531 321.9375 293.605469 293.605469 C 321.945312 265.273438 337.542969 227.605469 337.542969 187.53125 C 337.542969 147.457031 321.9375 109.792969 293.605469 81.457031 Z M 262.789062 249.640625 C 262.789062 256.804688 256.960938 262.632812 249.792969 262.632812 L 125.1875 262.632812 C 118.019531 262.632812 112.191406 256.804688 112.191406 249.640625 L 112.191406 246.472656 C 112.191406 239.304688 118.019531 233.476562 125.1875 233.476562 L 249.792969 233.476562 C 256.960938 233.476562 262.789062 239.304688 262.789062 246.472656 Z M 262.789062 189.113281 C 262.789062 196.277344 256.960938 202.105469 249.792969 202.105469 L 125.1875 202.105469 C 118.019531 202.105469 112.191406 196.277344 112.191406 189.113281 L 112.191406 185.945312 C 112.191406 178.777344 118.019531 172.949219 125.1875 172.949219 L 249.792969 172.949219 C 256.960938 172.949219 262.789062 178.777344 262.789062 185.945312 Z M 262.789062 128.585938 C 262.789062 135.75 256.960938 141.578125 249.792969 141.578125 L 125.1875 141.578125 C 118.019531 141.578125 112.191406 135.75 112.191406 128.585938 L 112.191406 125.417969 C 112.191406 118.25 118.019531 112.421875 125.1875 112.421875 L 249.792969 112.421875 C 256.960938 112.421875 262.789062 118.25 262.789062 125.417969 Z M 262.789062 128.585938 " fill-opacity="1" fill-rule="nonzero"/></g></svg>