<svg xmlns="http://www.w3.org/2000/svg" xmlns:xlink="http://www.w3.org/1999/xlink" width="313" zoomAndPan="magnify" viewBox="0 0 234.75 234.749995" height="313" preserveAspectRatio="xMidYMid meet" version="1.0"><defs><clipPath id="09b679f6c4"><path d="M 25.527344 61.332031 L 208.585938 61.332031 L 208.585938 198.097656 L 25.527344 198.097656 Z M 25.527344 61.332031 " clip-rule="nonzero"/></clipPath><clipPath id="5d676d84c7"><path d="M 4 30.523438 L 231 30.523438 L 231 75 L 4 75 Z M 4 30.523438 " clip-rule="nonzero"/></clipPath><clipPath id="d18ee17de4"><path d="M 2.488281 83 L 59 83 L 59 101 L 2.488281 101 Z M 2.488281 83 " clip-rule="nonzero"/></clipPath><clipPath id="f6403c3557"><path d="M 175 83 L 231.742188 83 L 231.742188 101 L 175 101 Z M 175 83 " clip-rule="nonzero"/></clipPath></defs><g clip-path="url(#09b679f6c4)"><path fill="#93e85f" d="M 154.714844 117.21875 C 154.714844 118.421875 153.746094 119.398438 152.539062 119.398438 L 140.269531 119.398438 C 139.066406 119.398438 138.089844 118.421875 138.089844 117.21875 L 138.089844 110.820312 C 138.089844 109.625 139.066406 108.648438 140.269531 108.648438 L 152.539062 108.648438 C 153.746094 108.648438 154.714844 109.625 154.714844 110.820312 Z M 154.714844 136.203125 C 154.714844 137.40625 153.746094 138.378906 152.539062 138.378906 L 140.269531 138.378906 C 139.066406 138.378906 138.089844 137.40625 138.089844 136.203125 L 138.089844 129.816406 C 138.089844 128.609375 139.066406 127.632812 140.269531 127.632812 L 152.539062 127.632812 C 153.746094 127.632812 154.714844 128.609375 154.714844 129.816406 Z M 154.714844 155.191406 C 154.714844 156.394531 153.746094 157.371094 152.539062 157.371094 L 140.269531 157.371094 C 139.066406 157.371094 138.089844 156.394531 138.089844 155.191406 L 138.089844 148.800781 C 138.089844 147.597656 139.066406 146.632812 140.269531 146.632812 L 152.539062 146.632812 C 153.746094 146.632812 154.714844 147.597656 154.714844 148.800781 Z M 125.371094 117.21875 C 125.371094 118.421875 124.398438 119.398438 123.195312 119.398438 L 110.921875 119.398438 C 109.714844 119.398438 108.742188 118.421875 108.742188 117.21875 L 108.742188 110.820312 C 108.742188 109.625 109.714844 108.648438 110.921875 108.648438 L 123.195312 108.648438 C 124.398438 108.648438 125.371094 109.625 125.371094 110.820312 Z M 125.371094 136.203125 C 125.371094 137.40625 124.398438 138.378906 123.195312 138.378906 L 110.921875 138.378906 C 109.714844 138.378906 108.742188 137.40625 108.742188 136.203125 L 108.742188 129.816406 C 108.742188 128.609375 109.714844 127.632812 110.921875 127.632812 L 123.195312 127.632812 C 124.398438 127.632812 125.371094 128.609375 125.371094 129.816406 Z M 125.371094 155.191406 C 125.371094 156.394531 124.398438 157.371094 123.195312 157.371094 L 110.921875 157.371094 C 109.714844 157.371094 108.742188 156.394531 108.742188 155.191406 L 108.742188 148.800781 C 108.742188 147.597656 109.714844 146.632812 110.921875 146.632812 L 123.195312 146.632812 C 124.398438 146.632812 125.371094 147.597656 125.371094 148.800781 Z M 96.023438 117.21875 C 96.023438 118.421875 95.046875 119.398438 93.847656 119.398438 L 81.570312 119.398438 C 80.367188 119.398438 79.390625 118.421875 79.390625 117.21875 L 79.390625 110.820312 C 79.390625 109.625 80.367188 108.648438 81.570312 108.648438 L 93.847656 108.648438 C 95.046875 108.648438 96.023438 109.625 96.023438 110.820312 Z M 96.023438 136.203125 C 96.023438 137.40625 95.046875 138.378906 93.847656 138.378906 L 81.570312 138.378906 C 80.367188 138.378906 79.390625 137.40625 79.390625 136.203125 L 79.390625 129.816406 C 79.390625 128.609375 80.367188 127.632812 81.570312 127.632812 L 93.847656 127.632812 C 95.046875 127.632812 96.023438 128.609375 96.023438 129.816406 Z M 96.023438 155.191406 C 96.023438 156.394531 95.046875 157.371094 93.847656 157.371094 L 81.570312 157.371094 C 80.367188 157.371094 79.390625 156.394531 79.390625 155.191406 L 79.390625 148.800781 C 79.390625 147.597656 80.367188 146.632812 81.570312 146.632812 L 93.847656 146.632812 C 95.046875 146.632812 96.023438 147.597656 96.023438 148.800781 Z M 163.964844 85.609375 C 161.410156 73.957031 158.871094 70.800781 152.859375 70.027344 L 152.859375 63.984375 C 152.859375 62.671875 151.785156 61.585938 150.453125 61.585938 L 143.910156 61.585938 C 142.589844 61.585938 141.507812 62.671875 141.507812 63.984375 L 141.507812 69.789062 L 92.597656 69.789062 L 92.597656 63.984375 C 92.597656 62.671875 91.523438 61.585938 90.199219 61.585938 L 83.660156 61.585938 C 82.332031 61.585938 81.253906 62.671875 81.253906 63.984375 L 81.253906 70.027344 C 75.246094 70.800781 72.703125 73.960938 70.148438 85.609375 C 66.859375 100.625 53.492188 112.566406 42.996094 123.859375 C 29.851562 138.015625 25.730469 172.675781 25.730469 172.675781 C 25.730469 182.230469 33.480469 189.972656 43.03125 189.972656 L 46.21875 189.972656 L 46.21875 194.695312 C 46.21875 196.578125 47.613281 198.097656 49.34375 198.097656 L 59.636719 198.097656 C 61.355469 198.097656 62.761719 196.578125 62.761719 194.695312 L 62.761719 189.972656 L 171.347656 189.972656 L 171.347656 194.695312 C 171.347656 196.578125 172.753906 198.097656 174.476562 198.097656 L 184.773438 198.097656 C 186.5 198.097656 187.894531 196.578125 187.894531 194.695312 L 187.894531 189.972656 L 191.085938 189.972656 C 200.640625 189.972656 208.382812 182.230469 208.382812 172.675781 C 208.382812 172.675781 204.261719 138.015625 191.121094 123.859375 C 180.628906 112.566406 167.261719 100.625 163.964844 85.609375 " fill-opacity="1" fill-rule="nonzero"/></g><g clip-path="url(#5d676d84c7)"><path fill="#93e85f" d="M 60.855469 73.457031 C 62.09375 63.15625 72.773438 54.777344 84.53125 54.726562 L 149.585938 54.726562 C 161.339844 54.777344 172.019531 63.15625 173.253906 73.457031 L 173.394531 74.589844 L 230.078125 74.8125 C 230.050781 74.554688 230.027344 74.265625 230 74.007812 C 227.121094 50.1875 201.894531 30.722656 158.730469 30.523438 L 75.382812 30.523438 C 32.214844 30.722656 6.992188 50.1875 4.117188 74.007812 C 4.082031 74.265625 4.0625 74.554688 4.035156 74.8125 L 60.722656 74.589844 L 60.855469 73.457031 " fill-opacity="1" fill-rule="nonzero"/></g><g clip-path="url(#d18ee17de4)"><path fill="#93e85f" d="M 57.53125 93.925781 L 58.835938 83.085938 L 2.757812 83.324219 C 2.757812 83.324219 3.378906 89.972656 4.632812 93.757812 C 5.550781 96.496094 7.925781 99.804688 11.316406 100.582031 L 50.101562 100.582031 C 53.761719 100.5625 57.089844 97.585938 57.53125 93.925781 " fill-opacity="1" fill-rule="nonzero"/></g><g clip-path="url(#f6403c3557)"><path fill="#93e85f" d="M 229.480469 93.757812 C 230.734375 89.972656 231.355469 83.324219 231.355469 83.324219 L 175.285156 83.085938 L 176.585938 93.925781 C 177.027344 97.585938 180.351562 100.5625 184.015625 100.582031 L 222.800781 100.582031 C 226.191406 99.804688 228.5625 96.496094 229.480469 93.757812 " fill-opacity="1" fill-rule="nonzero"/></g></svg>