<svg xmlns="http://www.w3.org/2000/svg" xmlns:xlink="http://www.w3.org/1999/xlink" width="40" zoomAndPan="magnify" viewBox="0 0 30 30.000001" height="40" preserveAspectRatio="xMidYMid meet" version="1.0"><defs><clipPath id="f93e434346"><path d="M 0.484375 0 L 29.515625 0 L 29.515625 29.03125 L 0.484375 29.03125 Z M 0.484375 0 " clip-rule="nonzero"/></clipPath><clipPath id="fa458a5cf8"><path d="M 0.484375 0 L 29.515625 0 L 29.515625 29.03125 L 0.484375 29.03125 Z M 0.484375 0 " clip-rule="nonzero"/></clipPath><clipPath id="3355292b23"><path d="M 1.933594 0 L 28.066406 0 C 28.867188 0 29.515625 0.648438 29.515625 1.453125 L 29.515625 27.582031 C 29.515625 28.382812 28.867188 29.03125 28.066406 29.03125 L 1.933594 29.03125 C 1.132812 29.03125 0.484375 28.382812 0.484375 27.582031 L 0.484375 1.453125 C 0.484375 0.648438 1.132812 0 1.933594 0 Z M 1.933594 0 " clip-rule="nonzero"/></clipPath><clipPath id="23bf42667b"><path d="M 0.484375 0 L 29.515625 0 L 29.515625 29.03125 L 0.484375 29.03125 Z M 0.484375 0 " clip-rule="nonzero"/></clipPath><clipPath id="9fdc8db9ee"><path d="M 1.933594 0 L 28.066406 0 C 28.867188 0 29.515625 0.648438 29.515625 1.453125 L 29.515625 27.582031 C 29.515625 28.382812 28.867188 29.03125 28.066406 29.03125 L 1.933594 29.03125 C 1.132812 29.03125 0.484375 28.382812 0.484375 27.582031 L 0.484375 1.453125 C 0.484375 0.648438 1.132812 0 1.933594 0 Z M 1.933594 0 " clip-rule="nonzero"/></clipPath><clipPath id="c816534855"><rect x="0" width="30" y="0" height="30"/></clipPath><clipPath id="d11049c483"><path d="M 3.386719 5.5 L 26.613281 5.5 L 26.613281 23.648438 L 3.386719 23.648438 Z M 3.386719 5.5 " clip-rule="nonzero"/></clipPath></defs><g clip-path="url(#f93e434346)"><path fill="#ffffff" d="M 0.484375 0 L 29.515625 0 L 29.515625 29.03125 L 0.484375 29.03125 Z M 0.484375 0 " fill-opacity="1" fill-rule="nonzero"/><path fill="#ffffff" d="M 0.484375 0 L 29.515625 0 L 29.515625 29.03125 L 0.484375 29.03125 Z M 0.484375 0 " fill-opacity="1" fill-rule="nonzero"/></g><g clip-path="url(#fa458a5cf8)"><g clip-path="url(#3355292b23)"><g transform="matrix(1, 0, 0, 1, 0, 0.000000000000005692)"><g clip-path="url(#c816534855)"><g clip-path="url(#23bf42667b)"><g clip-path="url(#9fdc8db9ee)"><path fill="#93e85f" d="M 0.484375 0 L 29.515625 0 L 29.515625 29.03125 L 0.484375 29.03125 Z M 0.484375 0 " fill-opacity="1" fill-rule="nonzero"/></g></g></g></g></g></g><path fill="#000000" d="M 19.222656 18.042969 C 19.460938 18.042969 19.652344 18.238281 19.652344 18.476562 C 19.652344 18.710938 19.460938 18.90625 19.222656 18.90625 L 14.730469 18.90625 C 14.492188 18.90625 14.300781 18.710938 14.300781 18.476562 C 14.300781 18.238281 14.492188 18.042969 14.730469 18.042969 Z M 19.222656 18.042969 " fill-opacity="1" fill-rule="nonzero"/><path fill="#000000" d="M 9.285156 11.925781 C 9.453125 11.75 9.714844 11.761719 9.890625 11.914062 L 12.941406 14.886719 C 13.203125 15.140625 13.203125 15.5625 12.941406 15.816406 L 9.890625 18.785156 C 9.722656 18.949219 9.449219 18.945312 9.285156 18.773438 C 9.121094 18.601562 9.125 18.332031 9.296875 18.164062 L 12.1875 15.351562 L 9.296875 12.535156 C 9.136719 12.363281 9.117188 12.101562 9.285156 11.925781 Z M 9.285156 11.925781 " fill-opacity="1" fill-rule="nonzero"/><g clip-path="url(#d11049c483)"><path fill="#000000" d="M 22.324219 5.9375 C 22.546875 5.503906 23.175781 5.503906 23.402344 5.9375 C 23.894531 7 24.597656 7.894531 25.605469 8.503906 L 26.25 8.894531 C 26.617188 9.148438 26.617188 9.699219 26.25 9.953125 L 25.605469 10.34375 C 25.3125 10.523438 25.035156 10.726562 24.785156 10.953125 C 24.785156 11.019531 24.789062 11.082031 24.789062 11.148438 L 24.789062 19.769531 C 24.789062 21.902344 23.035156 23.621094 20.9375 23.648438 L 7.238281 23.648438 C 5.113281 23.648438 3.386719 21.910156 3.386719 19.769531 L 3.386719 11.148438 C 3.386719 9.003906 5.113281 7.269531 7.238281 7.269531 L 20.9375 7.269531 C 21.128906 7.269531 21.316406 7.285156 21.496094 7.308594 C 21.84375 6.890625 22.09375 6.429688 22.324219 5.9375 Z M 7.238281 8.132812 C 5.585938 8.132812 4.242188 9.480469 4.242188 11.148438 L 4.242188 19.769531 C 4.242188 21.433594 5.585938 22.785156 7.238281 22.785156 L 20.9375 22.785156 C 22.566406 22.761719 23.933594 21.429688 23.933594 19.769531 L 23.933594 11.929688 C 23.730469 12.222656 23.566406 12.539062 23.421875 12.863281 C 23.203125 13.332031 22.515625 13.367188 22.300781 12.863281 C 21.847656 11.816406 21.085938 10.941406 20.117188 10.34375 L 19.511719 9.976562 C 19.097656 9.726562 19.097656 9.121094 19.511719 8.871094 L 20.117188 8.503906 C 20.304688 8.390625 20.488281 8.265625 20.660156 8.132812 Z M 22.863281 6.800781 C 22.261719 7.941406 21.34375 8.769531 20.257812 9.425781 C 21.34375 10.078125 22.261719 10.910156 22.863281 12.046875 C 23.464844 10.90625 24.378906 10.078125 25.464844 9.425781 C 24.378906 8.769531 23.464844 7.941406 22.863281 6.800781 Z M 22.863281 6.800781 " fill-opacity="1" fill-rule="evenodd"/></g></svg>