<svg xmlns="http://www.w3.org/2000/svg" xmlns:xlink="http://www.w3.org/1999/xlink" width="500" zoomAndPan="magnify" viewBox="0 0 375 374.999991" height="500" preserveAspectRatio="xMidYMid meet" version="1.0"><defs><clipPath id="8fd6b88009"><path d="M 7.5 0 L 367.5 0 C 371.640625 0 375 3.359375 375 7.5 L 375 367.5 C 375 371.640625 371.640625 375 367.5 375 L 7.5 375 C 3.359375 375 0 371.640625 0 367.5 L 0 7.5 C 0 3.359375 3.359375 0 7.5 0 Z M 7.5 0 " clip-rule="nonzero"/></clipPath><clipPath id="3b0fe5a47a"><path d="M 0 0 L 375 0 L 375 375 L 0 375 Z M 0 0 " clip-rule="nonzero"/></clipPath><clipPath id="e19acf6310"><path d="M 7.5 0 L 367.5 0 C 371.640625 0 375 3.359375 375 7.5 L 375 367.5 C 375 371.640625 371.640625 375 367.5 375 L 7.5 375 C 3.359375 375 0 371.640625 0 367.5 L 0 7.5 C 0 3.359375 3.359375 0 7.5 0 Z M 7.5 0 " clip-rule="nonzero"/></clipPath><clipPath id="10a06b0696"><rect x="0" width="375" y="0" height="375"/></clipPath><clipPath id="8f50464dbc"><path d="M 14 11.515625 L 221 11.515625 L 221 358 L 14 358 Z M 14 11.515625 " clip-rule="nonzero"/></clipPath><clipPath id="7037d45fac"><path d="M 110.59375 224 L 359 224 L 359 365.167969 L 110.59375 365.167969 Z M 110.59375 224 " clip-rule="nonzero"/></clipPath><clipPath id="4bf6ab0ba0"><path d="M 169.578125 244.582031 L 278.027344 244.582031 L 278.027344 353.03125 L 169.578125 353.03125 Z M 169.578125 244.582031 " clip-rule="nonzero"/></clipPath><clipPath id="e272ff2d29"><path d="M 0.578125 0.582031 L 109.027344 0.582031 L 109.027344 109.03125 L 0.578125 109.03125 Z M 0.578125 0.582031 " clip-rule="nonzero"/></clipPath><clipPath id="32ca51e920"><rect x="0" width="110" y="0" height="110"/></clipPath><clipPath id="ba27addfc3"><path d="M 117 224 L 365 224 L 365 365.167969 L 117 365.167969 Z M 117 224 " clip-rule="nonzero"/></clipPath></defs><g clip-path="url(#8fd6b88009)"><g transform="matrix(1, 0, 0, 1, 0, 0)"><g clip-path="url(#10a06b0696)"><g clip-path="url(#3b0fe5a47a)"><g clip-path="url(#e19acf6310)"><rect x="-82.5" width="540" fill="#ffffff" height="539.999987" y="-82.499998" fill-opacity="1"/></g></g></g></g></g><g clip-path="url(#8f50464dbc)"><path fill="#155655" d="M 117.253906 11.851562 C 11.65625 11.851562 17.027344 11.515625 15.167969 18.21875 C 13.90625 22.757812 13.90625 23.847656 15.136719 28.289062 C 16.480469 33.117188 18.390625 34.765625 22.65625 34.765625 L 26.265625 34.765625 L 26.921875 49.800781 C 27.644531 66.347656 28.691406 74.527344 30.964844 81.347656 C 34.730469 92.640625 44.242188 107.949219 55.445312 120.738281 C 62.136719 128.378906 66.242188 132.109375 87.582031 149.933594 C 92.53125 154.066406 98.203125 159.8125 100.183594 162.699219 C 109.472656 176.230469 108.769531 195.804688 98.515625 209.25 C 97.175781 211.003906 88.644531 218.617188 79.554688 226.164062 C 62.121094 240.644531 52.492188 250.769531 43.578125 263.992188 C 30.691406 283.101562 28.089844 291.765625 26.90625 319.476562 L 26.261719 334.550781 L 22.589844 334.550781 C 20.234375 334.550781 18.253906 335.214844 17.074219 336.394531 C 14.511719 338.960938 13.632812 345.921875 15.234375 350.984375 C 16.292969 354.335938 17.132812 355.285156 19.871094 356.21875 C 22.367188 357.070312 47.078125 357.371094 117.523438 357.410156 C 222.835938 357.472656 217.476562 357.804688 219.339844 351.097656 C 222.109375 341.117188 218.710938 334.550781 210.773438 334.550781 L 207.953125 334.550781 L 207.933594 327.632812 C 207.902344 317.644531 206.253906 297.847656 205.0625 293.191406 C 203.210938 285.933594 200.039062 278.808594 194.792969 270.109375 C 184.605469 253.203125 173.332031 240.953125 152.101562 223.707031 C 145.277344 218.160156 137.824219 211.203125 135.542969 208.246094 C 125.773438 195.578125 125.101562 176.964844 133.914062 163.183594 C 137.140625 158.140625 139.105469 156.308594 159.738281 139.078125 C 177.242188 124.457031 191.324219 107.5 199.191406 91.558594 C 205.191406 79.40625 206.601562 72.398438 207.585938 49.800781 L 208.242188 34.765625 L 211.75 34.765625 C 218.289062 34.765625 221.800781 27.410156 219.445312 18.660156 C 217.5 11.441406 223.65625 11.851562 117.253906 11.851562 Z M 31.980469 34.765625 L 202.527344 34.765625 L 201.894531 50.757812 C 201.089844 71.03125 199.679688 77.714844 193.667969 89.664062 C 184.871094 107.144531 172.367188 121.410156 148.304688 141.421875 C 128.386719 157.984375 123.230469 165.984375 122.28125 181.792969 C 121.152344 200.492188 126.886719 210.578125 148.761719 228.390625 C 172.226562 247.503906 184.867188 262.050781 194.148438 280.609375 C 199.667969 291.640625 201.148438 298.882812 201.90625 318.558594 L 202.523438 334.550781 L 31.984375 334.550781 L 32.601562 318.558594 C 32.941406 309.765625 33.863281 299.574219 34.652344 295.914062 C 39 275.761719 56.953125 251.84375 84.808594 229.089844 C 98.84375 217.625 104.382812 211.734375 107.917969 204.511719 C 111.21875 197.777344 112.433594 192.429688 112.433594 184.660156 C 112.433594 173.109375 108.976562 163.859375 101.457031 155.300781 C 99.035156 152.542969 91.609375 145.832031 84.957031 140.386719 C 61.832031 121.46875 47.671875 104.777344 39.003906 86.238281 C 34.824219 77.292969 33.335938 69.023438 32.613281 50.757812 Z M 65.792969 88.304688 C 58.867188 88.410156 51.863281 89.445312 44.707031 91.882812 C 44.742188 93.503906 57.296875 110.78125 63.261719 117.40625 C 66.910156 121.464844 76.148438 129.96875 83.789062 136.308594 C 101.21875 150.765625 106.703125 156.488281 110.402344 164.078125 C 115.007812 173.523438 115.492188 178.761719 115.164062 215.71875 L 114.867188 249.148438 L 111.730469 255.515625 C 107.601562 263.898438 99.597656 271.195312 83.433594 281.316406 C 56.050781 298.460938 46.109375 307.316406 39.734375 320.242188 C 37.796875 324.175781 35.941406 328.359375 35.613281 329.542969 L 35.015625 331.6875 L 199.488281 331.6875 L 198.886719 329.542969 C 198.554688 328.359375 196.738281 324.183594 194.847656 320.261719 C 190.1875 310.589844 178.6875 299.085938 164.695312 290.101562 C 132.355469 269.332031 127.679688 265.472656 122.761719 255.480469 L 119.640625 249.144531 L 119.640625 212.367188 C 119.640625 178.859375 119.800781 175.121094 121.4375 170.335938 C 124.660156 160.910156 130.90625 152.785156 141.875 143.753906 C 166.246094 123.6875 174.246094 115.589844 184.222656 100.878906 C 191.148438 90.667969 191.117188 90.546875 182.527344 94.464844 C 138.335938 114.316406 103.199219 87.734375 65.792969 88.304688 Z M 158.953125 115.757812 C 159.613281 115.757812 160.242188 116.019531 160.707031 116.484375 C 161.675781 117.453125 161.675781 119.019531 160.707031 119.988281 C 153.144531 127.554688 139.496094 132.082031 126.96875 147.683594 C 126.113281 148.753906 124.550781 148.921875 123.484375 148.066406 C 122.414062 147.210938 122.246094 145.648438 123.101562 144.578125 C 136.425781 127.984375 151.226562 122.460938 157.203125 116.484375 C 157.667969 116.019531 158.296875 115.757812 158.953125 115.757812 Z M 158.953125 115.757812 " fill-opacity="1" fill-rule="nonzero"/></g><g clip-path="url(#7037d45fac)"><path fill="#ffffff" d="M 356.871094 290.515625 C 355.242188 287.960938 353.535156 285.464844 351.75 283.019531 C 349.960938 280.574219 348.097656 278.191406 346.160156 275.863281 C 344.222656 273.539062 342.210938 271.277344 340.132812 269.078125 C 338.050781 266.878906 335.902344 264.75 333.683594 262.6875 C 331.46875 260.625 329.1875 258.632812 326.84375 256.714844 C 324.503906 254.796875 322.101562 252.957031 319.640625 251.191406 C 317.183594 249.425781 314.667969 247.738281 312.101562 246.132812 C 309.535156 244.527344 306.921875 243 304.257812 241.5625 C 301.597656 240.121094 298.890625 238.765625 296.140625 237.496094 C 293.394531 236.226562 290.609375 235.046875 287.785156 233.953125 C 284.960938 232.859375 282.105469 231.859375 279.21875 230.945312 C 276.332031 230.035156 273.417969 229.214844 270.480469 228.488281 C 267.539062 227.757812 264.582031 227.125 261.601562 226.585938 C 258.621094 226.046875 255.628906 225.601562 252.621094 225.25 C 249.613281 224.902344 246.597656 224.648438 243.574219 224.488281 C 240.550781 224.328125 237.527344 224.265625 234.5 224.300781 C 231.472656 224.265625 228.445312 224.328125 225.421875 224.488281 C 222.398438 224.648438 219.382812 224.902344 216.378906 225.25 C 213.371094 225.601562 210.375 226.046875 207.398438 226.585938 C 204.417969 227.125 201.460938 227.757812 198.519531 228.488281 C 195.582031 229.214844 192.667969 230.035156 189.78125 230.945312 C 186.894531 231.859375 184.039062 232.859375 181.214844 233.953125 C 178.390625 235.046875 175.605469 236.226562 172.855469 237.496094 C 170.109375 238.765625 167.402344 240.121094 164.738281 241.5625 C 162.078125 243 159.460938 244.527344 156.894531 246.132812 C 154.328125 247.738281 151.816406 249.425781 149.355469 251.191406 C 146.898438 252.957031 144.496094 254.796875 142.152344 256.714844 C 139.8125 258.632812 137.53125 260.625 135.316406 262.6875 C 133.097656 264.75 130.949219 266.878906 128.867188 269.078125 C 126.785156 271.277344 124.777344 273.539062 122.839844 275.863281 C 120.898438 278.191406 119.039062 280.574219 117.25 283.019531 C 115.464844 285.464844 113.753906 287.960938 112.125 290.515625 C 111.746094 291.179688 111.457031 291.882812 111.257812 292.625 C 111.0625 293.367188 110.964844 294.125 110.964844 294.890625 C 110.964844 295.660156 111.0625 296.414062 111.257812 297.15625 C 111.457031 297.898438 111.746094 298.601562 112.125 299.269531 C 113.753906 301.820312 115.464844 304.320312 117.25 306.761719 C 119.039062 309.207031 120.898438 311.59375 122.839844 313.917969 C 124.777344 316.242188 126.785156 318.507812 128.867188 320.703125 C 130.949219 322.902344 133.097656 325.035156 135.316406 327.097656 C 137.53125 329.160156 139.8125 331.148438 142.152344 333.066406 C 144.496094 334.984375 146.898438 336.828125 149.355469 338.59375 C 151.816406 340.359375 154.328125 342.042969 156.894531 343.652344 C 159.460938 345.257812 162.078125 346.78125 164.738281 348.222656 C 167.402344 349.664062 170.109375 351.015625 172.855469 352.285156 C 175.605469 353.554688 178.390625 354.738281 181.214844 355.828125 C 184.039062 356.921875 186.894531 357.925781 189.78125 358.835938 C 192.667969 359.75 195.582031 360.566406 198.519531 361.296875 C 201.460938 362.023438 204.417969 362.65625 207.398438 363.195312 C 210.375 363.734375 213.371094 364.179688 216.378906 364.53125 C 219.382812 364.878906 222.398438 365.136719 225.421875 365.292969 C 228.445312 365.453125 231.472656 365.515625 234.5 365.484375 C 237.527344 365.515625 240.550781 365.453125 243.574219 365.292969 C 246.597656 365.136719 249.613281 364.878906 252.621094 364.53125 C 255.628906 364.179688 258.621094 363.734375 261.601562 363.195312 C 264.582031 362.65625 267.539062 362.023438 270.480469 361.296875 C 273.417969 360.566406 276.332031 359.75 279.21875 358.835938 C 282.105469 357.925781 284.960938 356.921875 287.785156 355.828125 C 290.609375 354.738281 293.394531 353.554688 296.140625 352.285156 C 298.890625 351.015625 301.597656 349.664062 304.257812 348.222656 C 306.921875 346.78125 309.535156 345.257812 312.101562 343.652344 C 314.667969 342.042969 317.183594 340.359375 319.640625 338.59375 C 322.101562 336.828125 324.503906 334.984375 326.84375 333.066406 C 329.1875 331.148438 331.46875 329.160156 333.683594 327.097656 C 335.902344 325.035156 338.050781 322.902344 340.132812 320.703125 C 342.210938 318.507812 344.222656 316.242188 346.160156 313.917969 C 348.097656 311.59375 349.960938 309.207031 351.75 306.761719 C 353.535156 304.320312 355.242188 301.820312 356.871094 299.269531 C 357.253906 298.601562 357.542969 297.898438 357.738281 297.15625 C 357.9375 296.414062 358.035156 295.660156 358.035156 294.890625 C 358.035156 294.125 357.9375 293.367188 357.738281 292.625 C 357.542969 291.882812 357.253906 291.179688 356.871094 290.515625 Z M 234.5 347.835938 C 232.765625 347.835938 231.035156 347.75 229.308594 347.582031 C 227.585938 347.410156 225.871094 347.15625 224.171875 346.816406 C 222.46875 346.480469 220.789062 346.058594 219.128906 345.554688 C 217.472656 345.050781 215.839844 344.46875 214.238281 343.804688 C 212.636719 343.140625 211.070312 342.402344 209.542969 341.582031 C 208.011719 340.765625 206.527344 339.875 205.085938 338.914062 C 203.644531 337.949219 202.253906 336.917969 200.914062 335.816406 C 199.570312 334.71875 198.289062 333.554688 197.0625 332.328125 C 195.835938 331.101562 194.671875 329.820312 193.574219 328.480469 C 192.472656 327.136719 191.441406 325.746094 190.476562 324.304688 C 189.515625 322.863281 188.625 321.378906 187.808594 319.847656 C 186.988281 318.320312 186.25 316.753906 185.585938 315.152344 C 184.921875 313.550781 184.339844 311.917969 183.835938 310.261719 C 183.332031 308.601562 182.910156 306.921875 182.574219 305.21875 C 182.234375 303.519531 181.980469 301.804688 181.808594 300.082031 C 181.640625 298.355469 181.554688 296.625 181.554688 294.890625 C 181.554688 293.15625 181.640625 291.425781 181.808594 289.703125 C 181.980469 287.976562 182.234375 286.261719 182.574219 284.5625 C 182.910156 282.863281 183.332031 281.183594 183.835938 279.523438 C 184.339844 277.863281 184.921875 276.234375 185.585938 274.628906 C 186.25 273.027344 186.988281 271.460938 187.808594 269.933594 C 188.625 268.40625 189.515625 266.917969 190.476562 265.476562 C 191.441406 264.035156 192.472656 262.644531 193.574219 261.304688 C 194.671875 259.964844 195.835938 258.679688 197.0625 257.453125 C 198.289062 256.226562 199.570312 255.066406 200.914062 253.964844 C 202.253906 252.863281 203.644531 251.832031 205.085938 250.871094 C 206.527344 249.90625 208.011719 249.015625 209.542969 248.199219 C 211.070312 247.382812 212.636719 246.640625 214.238281 245.976562 C 215.839844 245.3125 217.472656 244.730469 219.128906 244.226562 C 220.789062 243.722656 222.46875 243.304688 224.171875 242.964844 C 225.871094 242.625 227.585938 242.371094 229.308594 242.203125 C 231.035156 242.03125 232.765625 241.949219 234.5 241.949219 C 236.234375 241.949219 237.964844 242.03125 239.6875 242.203125 C 241.414062 242.371094 243.128906 242.625 244.828125 242.964844 C 246.527344 243.304688 248.210938 243.722656 249.867188 244.226562 C 251.527344 244.730469 253.160156 245.3125 254.761719 245.976562 C 256.363281 246.640625 257.929688 247.382812 259.457031 248.199219 C 260.988281 249.015625 262.472656 249.90625 263.914062 250.871094 C 265.355469 251.832031 266.746094 252.863281 268.085938 253.964844 C 269.425781 255.066406 270.710938 256.226562 271.9375 257.453125 C 273.164062 258.679688 274.324219 259.964844 275.425781 261.304688 C 276.527344 262.644531 277.558594 264.035156 278.519531 265.476562 C 279.484375 266.917969 280.375 268.40625 281.191406 269.933594 C 282.007812 271.460938 282.75 273.027344 283.414062 274.628906 C 284.078125 276.234375 284.660156 277.863281 285.164062 279.523438 C 285.667969 281.183594 286.089844 282.863281 286.425781 284.5625 C 286.765625 286.261719 287.019531 287.976562 287.1875 289.703125 C 287.359375 291.425781 287.445312 293.15625 287.445312 294.890625 C 287.441406 296.625 287.355469 298.355469 287.183594 300.078125 C 287.011719 301.804688 286.757812 303.515625 286.417969 305.214844 C 286.078125 306.914062 285.65625 308.59375 285.152344 310.253906 C 284.648438 311.914062 284.0625 313.542969 283.398438 315.144531 C 282.734375 316.746094 281.992188 318.308594 281.175781 319.835938 C 280.355469 321.367188 279.464844 322.851562 278.503906 324.292969 C 277.539062 325.734375 276.507812 327.125 275.40625 328.464844 C 274.308594 329.804688 273.144531 331.085938 271.917969 332.3125 C 270.695312 333.539062 269.410156 334.699219 268.070312 335.800781 C 266.730469 336.898438 265.339844 337.929688 263.898438 338.894531 C 262.457031 339.859375 260.972656 340.75 259.445312 341.566406 C 257.917969 342.382812 256.351562 343.125 254.75 343.789062 C 253.148438 344.453125 251.519531 345.039062 249.863281 345.542969 C 248.203125 346.046875 246.523438 346.46875 244.824219 346.808594 C 243.125 347.148438 241.414062 347.402344 239.6875 347.574219 C 237.960938 347.746094 236.234375 347.832031 234.5 347.835938 Z M 260.972656 294.890625 C 260.972656 295.757812 260.929688 296.625 260.84375 297.484375 C 260.757812 298.347656 260.632812 299.207031 260.460938 300.054688 C 260.292969 300.90625 260.082031 301.746094 259.832031 302.574219 C 259.578125 303.40625 259.289062 304.21875 258.957031 305.023438 C 258.625 305.824219 258.253906 306.605469 257.847656 307.371094 C 257.4375 308.132812 256.992188 308.878906 256.511719 309.597656 C 256.027344 310.320312 255.511719 311.015625 254.960938 311.683594 C 254.414062 312.355469 253.832031 312.996094 253.21875 313.609375 C 252.605469 314.222656 251.964844 314.804688 251.292969 315.355469 C 250.621094 315.90625 249.925781 316.421875 249.207031 316.902344 C 248.484375 317.382812 247.742188 317.828125 246.976562 318.238281 C 246.214844 318.644531 245.429688 319.015625 244.628906 319.347656 C 243.828125 319.679688 243.011719 319.972656 242.183594 320.222656 C 241.355469 320.476562 240.515625 320.683594 239.664062 320.855469 C 238.8125 321.023438 237.957031 321.152344 237.09375 321.234375 C 236.230469 321.320312 235.367188 321.363281 234.5 321.363281 C 233.632812 321.363281 232.769531 321.320312 231.90625 321.234375 C 231.042969 321.152344 230.183594 321.023438 229.335938 320.855469 C 228.484375 320.683594 227.644531 320.476562 226.816406 320.222656 C 225.984375 319.972656 225.171875 319.679688 224.371094 319.347656 C 223.566406 319.015625 222.785156 318.644531 222.019531 318.238281 C 221.257812 317.828125 220.511719 317.382812 219.792969 316.902344 C 219.070312 316.421875 218.375 315.90625 217.707031 315.355469 C 217.035156 314.804688 216.394531 314.222656 215.78125 313.609375 C 215.167969 312.996094 214.585938 312.355469 214.035156 311.683594 C 213.488281 311.015625 212.96875 310.320312 212.488281 309.597656 C 212.007812 308.878906 211.5625 308.132812 211.152344 307.371094 C 210.746094 306.605469 210.375 305.824219 210.042969 305.023438 C 209.710938 304.21875 209.417969 303.40625 209.167969 302.574219 C 208.914062 301.746094 208.707031 300.90625 208.535156 300.054688 C 208.367188 299.207031 208.238281 298.347656 208.15625 297.484375 C 208.070312 296.625 208.027344 295.757812 208.027344 294.890625 C 208.027344 294.023438 208.070312 293.160156 208.15625 292.296875 C 208.238281 291.433594 208.367188 290.578125 208.535156 289.726562 C 208.707031 288.875 208.914062 288.035156 209.167969 287.207031 C 209.417969 286.378906 209.710938 285.5625 210.042969 284.761719 C 210.375 283.960938 210.746094 283.175781 211.152344 282.414062 C 211.5625 281.648438 212.007812 280.90625 212.488281 280.183594 C 212.96875 279.464844 213.488281 278.769531 214.035156 278.097656 C 214.585938 277.425781 215.167969 276.785156 215.78125 276.171875 C 216.394531 275.558594 217.035156 274.976562 217.707031 274.429688 C 218.375 273.878906 219.070312 273.363281 219.792969 272.878906 C 220.511719 272.398438 221.257812 271.953125 222.019531 271.546875 C 222.785156 271.136719 223.566406 270.765625 224.371094 270.433594 C 225.171875 270.101562 225.984375 269.8125 226.816406 269.558594 C 227.644531 269.308594 228.484375 269.097656 229.335938 268.929688 C 230.183594 268.757812 231.042969 268.632812 231.90625 268.546875 C 232.769531 268.460938 233.632812 268.417969 234.5 268.417969 C 235.367188 268.421875 236.230469 268.464844 237.09375 268.550781 C 237.957031 268.636719 238.8125 268.761719 239.660156 268.933594 C 240.511719 269.101562 241.351562 269.3125 242.179688 269.566406 C 243.011719 269.816406 243.824219 270.109375 244.625 270.441406 C 245.425781 270.773438 246.207031 271.144531 246.972656 271.554688 C 247.738281 271.960938 248.480469 272.40625 249.199219 272.890625 C 249.921875 273.371094 250.617188 273.886719 251.285156 274.4375 C 251.957031 274.988281 252.597656 275.566406 253.210938 276.179688 C 253.824219 276.792969 254.402344 277.433594 254.953125 278.105469 C 255.503906 278.773438 256.019531 279.46875 256.5 280.191406 C 256.984375 280.910156 257.429688 281.652344 257.835938 282.417969 C 258.246094 283.183594 258.617188 283.964844 258.949219 284.765625 C 259.28125 285.566406 259.574219 286.378906 259.824219 287.210938 C 260.078125 288.039062 260.289062 288.878906 260.457031 289.730469 C 260.628906 290.578125 260.753906 291.433594 260.839844 292.296875 C 260.925781 293.160156 260.96875 294.023438 260.972656 294.890625 Z M 260.972656 294.890625 " fill-opacity="1" fill-rule="nonzero"/></g><g clip-path="url(#4bf6ab0ba0)"><g transform="matrix(1, 0, 0, 1, 169, 244)"><g clip-path="url(#32ca51e920)"><g clip-path="url(#e272ff2d29)"><path fill="#ffffff" d="M 0.578125 0.582031 L 109.027344 0.582031 L 109.027344 109.03125 L 0.578125 109.03125 Z M 0.578125 0.582031 " fill-opacity="1" fill-rule="nonzero"/></g></g></g></g><g clip-path="url(#ba27addfc3)"><path fill="#93e85f" d="M 362.972656 290.515625 C 361.34375 287.960938 359.636719 285.464844 357.851562 283.019531 C 356.0625 280.574219 354.199219 278.191406 352.261719 275.863281 C 350.324219 273.539062 348.3125 271.277344 346.230469 269.078125 C 344.152344 266.878906 342 264.75 339.785156 262.6875 C 337.570312 260.625 335.289062 258.632812 332.945312 256.714844 C 330.605469 254.796875 328.203125 252.957031 325.742188 251.191406 C 323.285156 249.425781 320.769531 247.738281 318.203125 246.132812 C 315.636719 244.527344 313.023438 243 310.359375 241.5625 C 307.699219 240.121094 304.992188 238.765625 302.242188 237.496094 C 299.496094 236.226562 296.707031 235.046875 293.886719 233.953125 C 291.0625 232.859375 288.207031 231.859375 285.320312 230.945312 C 282.433594 230.035156 279.519531 229.214844 276.582031 228.488281 C 273.640625 227.757812 270.683594 227.125 267.703125 226.585938 C 264.722656 226.046875 261.730469 225.601562 258.722656 225.25 C 255.714844 224.902344 252.699219 224.648438 249.675781 224.488281 C 246.652344 224.328125 243.628906 224.265625 240.601562 224.300781 C 237.574219 224.265625 234.546875 224.328125 231.523438 224.488281 C 228.5 224.648438 225.484375 224.902344 222.476562 225.25 C 219.472656 225.601562 216.476562 226.046875 213.5 226.585938 C 210.519531 227.125 207.558594 227.757812 204.621094 228.488281 C 201.683594 229.214844 198.769531 230.035156 195.882812 230.945312 C 192.996094 231.859375 190.140625 232.859375 187.316406 233.953125 C 184.492188 235.046875 181.707031 236.226562 178.957031 237.496094 C 176.210938 238.765625 173.503906 240.121094 170.839844 241.5625 C 168.179688 243 165.5625 244.527344 162.996094 246.132812 C 160.429688 247.738281 157.917969 249.425781 155.457031 251.191406 C 153 252.957031 150.597656 254.796875 148.253906 256.714844 C 145.914062 258.632812 143.632812 260.625 141.417969 262.6875 C 139.199219 264.75 137.050781 266.878906 134.96875 269.078125 C 132.886719 271.277344 130.878906 273.539062 128.941406 275.863281 C 127 278.191406 125.140625 280.574219 123.351562 283.019531 C 121.566406 285.464844 119.855469 287.960938 118.226562 290.515625 C 117.847656 291.179688 117.558594 291.882812 117.359375 292.625 C 117.164062 293.367188 117.066406 294.125 117.066406 294.890625 C 117.066406 295.660156 117.164062 296.414062 117.359375 297.15625 C 117.558594 297.898438 117.847656 298.601562 118.226562 299.269531 C 119.855469 301.820312 121.566406 304.320312 123.351562 306.761719 C 125.140625 309.207031 127 311.59375 128.941406 313.917969 C 130.878906 316.242188 132.886719 318.507812 134.96875 320.703125 C 137.050781 322.902344 139.199219 325.035156 141.417969 327.097656 C 143.632812 329.160156 145.914062 331.148438 148.253906 333.066406 C 150.597656 334.984375 153 336.828125 155.457031 338.59375 C 157.917969 340.359375 160.429688 342.042969 162.996094 343.652344 C 165.5625 345.257812 168.179688 346.78125 170.839844 348.222656 C 173.503906 349.664062 176.210938 351.015625 178.957031 352.285156 C 181.707031 353.554688 184.492188 354.738281 187.316406 355.828125 C 190.140625 356.921875 192.996094 357.925781 195.882812 358.835938 C 198.769531 359.75 201.683594 360.566406 204.621094 361.296875 C 207.558594 362.023438 210.519531 362.65625 213.5 363.195312 C 216.476562 363.734375 219.472656 364.179688 222.476562 364.53125 C 225.484375 364.878906 228.5 365.136719 231.523438 365.292969 C 234.546875 365.453125 237.574219 365.515625 240.601562 365.484375 C 243.628906 365.515625 246.652344 365.453125 249.675781 365.292969 C 252.699219 365.136719 255.714844 364.878906 258.722656 364.53125 C 261.730469 364.179688 264.722656 363.734375 267.703125 363.195312 C 270.683594 362.65625 273.640625 362.023438 276.582031 361.296875 C 279.519531 360.566406 282.433594 359.75 285.320312 358.835938 C 288.207031 357.925781 291.0625 356.921875 293.886719 355.828125 C 296.710938 354.738281 299.496094 353.554688 302.242188 352.285156 C 304.992188 351.015625 307.699219 349.664062 310.359375 348.222656 C 313.023438 346.78125 315.636719 345.257812 318.203125 343.652344 C 320.769531 342.042969 323.285156 340.359375 325.742188 338.59375 C 328.203125 336.828125 330.605469 334.984375 332.945312 333.066406 C 335.289062 331.148438 337.570312 329.160156 339.785156 327.097656 C 342 325.035156 344.152344 322.902344 346.230469 320.703125 C 348.3125 318.507812 350.324219 316.242188 352.261719 313.917969 C 354.199219 311.59375 356.0625 309.207031 357.851562 306.761719 C 359.636719 304.320312 361.34375 301.820312 362.972656 299.269531 C 363.355469 298.601562 363.644531 297.898438 363.839844 297.15625 C 364.039062 296.414062 364.136719 295.660156 364.136719 294.890625 C 364.136719 294.125 364.039062 293.367188 363.839844 292.625 C 363.644531 291.882812 363.355469 291.179688 362.972656 290.515625 Z M 240.601562 347.835938 C 238.867188 347.835938 237.136719 347.75 235.410156 347.582031 C 233.6875 347.410156 231.972656 347.15625 230.273438 346.816406 C 228.570312 346.480469 226.890625 346.058594 225.230469 345.554688 C 223.574219 345.050781 221.941406 344.46875 220.339844 343.804688 C 218.738281 343.140625 217.171875 342.402344 215.644531 341.582031 C 214.113281 340.765625 212.628906 339.875 211.1875 338.914062 C 209.746094 337.949219 208.355469 336.917969 207.011719 335.816406 C 205.671875 334.71875 204.390625 333.554688 203.164062 332.328125 C 201.9375 331.101562 200.773438 329.820312 199.675781 328.480469 C 198.574219 327.136719 197.542969 325.746094 196.578125 324.304688 C 195.617188 322.863281 194.726562 321.378906 193.910156 319.847656 C 193.089844 318.320312 192.351562 316.753906 191.6875 315.152344 C 191.023438 313.550781 190.441406 311.917969 189.9375 310.261719 C 189.433594 308.601562 189.011719 306.921875 188.675781 305.21875 C 188.335938 303.519531 188.082031 301.804688 187.910156 300.082031 C 187.742188 298.355469 187.65625 296.625 187.65625 294.890625 C 187.65625 293.15625 187.742188 291.425781 187.910156 289.703125 C 188.082031 287.976562 188.335938 286.261719 188.675781 284.5625 C 189.011719 282.863281 189.433594 281.183594 189.9375 279.523438 C 190.441406 277.863281 191.023438 276.234375 191.6875 274.628906 C 192.351562 273.027344 193.089844 271.460938 193.910156 269.933594 C 194.726562 268.40625 195.617188 266.917969 196.578125 265.476562 C 197.542969 264.035156 198.574219 262.644531 199.675781 261.304688 C 200.773438 259.964844 201.9375 258.679688 203.164062 257.453125 C 204.390625 256.226562 205.671875 255.066406 207.011719 253.964844 C 208.355469 252.863281 209.746094 251.832031 211.1875 250.871094 C 212.628906 249.90625 214.113281 249.015625 215.644531 248.199219 C 217.171875 247.382812 218.738281 246.640625 220.339844 245.976562 C 221.941406 245.3125 223.574219 244.730469 225.230469 244.226562 C 226.890625 243.722656 228.570312 243.304688 230.273438 242.964844 C 231.972656 242.625 233.6875 242.371094 235.410156 242.203125 C 237.136719 242.03125 238.867188 241.949219 240.601562 241.949219 C 242.335938 241.949219 244.066406 242.03125 245.789062 242.203125 C 247.515625 242.371094 249.230469 242.625 250.929688 242.964844 C 252.628906 243.304688 254.308594 243.722656 255.96875 244.226562 C 257.628906 244.730469 259.257812 245.3125 260.863281 245.976562 C 262.464844 246.640625 264.03125 247.382812 265.558594 248.199219 C 267.085938 249.015625 268.574219 249.90625 270.015625 250.871094 C 271.457031 251.832031 272.847656 252.863281 274.1875 253.964844 C 275.527344 255.066406 276.8125 256.226562 278.039062 257.453125 C 279.265625 258.679688 280.425781 259.964844 281.527344 261.304688 C 282.628906 262.644531 283.660156 264.035156 284.621094 265.476562 C 285.585938 266.917969 286.476562 268.40625 287.292969 269.933594 C 288.109375 271.460938 288.851562 273.027344 289.515625 274.628906 C 290.179688 276.234375 290.761719 277.863281 291.265625 279.523438 C 291.769531 281.183594 292.1875 282.863281 292.527344 284.5625 C 292.867188 286.261719 293.121094 287.976562 293.289062 289.703125 C 293.460938 291.425781 293.546875 293.15625 293.546875 294.890625 C 293.542969 296.625 293.457031 298.355469 293.285156 300.078125 C 293.113281 301.804688 292.859375 303.515625 292.519531 305.214844 C 292.179688 306.914062 291.757812 308.59375 291.253906 310.253906 C 290.746094 311.914062 290.164062 313.542969 289.5 315.144531 C 288.835938 316.746094 288.09375 318.308594 287.277344 319.835938 C 286.457031 321.367188 285.566406 322.851562 284.605469 324.292969 C 283.640625 325.734375 282.609375 327.125 281.507812 328.464844 C 280.410156 329.804688 279.246094 331.085938 278.019531 332.3125 C 276.796875 333.539062 275.511719 334.699219 274.171875 335.800781 C 272.832031 336.898438 271.441406 337.929688 270 338.894531 C 268.558594 339.859375 267.074219 340.75 265.546875 341.566406 C 264.019531 342.382812 262.453125 343.125 260.851562 343.789062 C 259.25 344.453125 257.621094 345.039062 255.964844 345.542969 C 254.304688 346.046875 252.625 346.46875 250.925781 346.808594 C 249.226562 347.148438 247.511719 347.402344 245.789062 347.574219 C 244.0625 347.746094 242.335938 347.832031 240.601562 347.835938 Z M 267.074219 294.890625 C 267.074219 295.757812 267.03125 296.625 266.945312 297.484375 C 266.859375 298.347656 266.734375 299.207031 266.5625 300.054688 C 266.394531 300.90625 266.183594 301.746094 265.933594 302.574219 C 265.679688 303.40625 265.390625 304.21875 265.058594 305.023438 C 264.726562 305.824219 264.355469 306.605469 263.945312 307.371094 C 263.539062 308.132812 263.09375 308.878906 262.613281 309.597656 C 262.128906 310.320312 261.613281 311.015625 261.0625 311.683594 C 260.515625 312.355469 259.933594 312.996094 259.320312 313.609375 C 258.707031 314.222656 258.066406 314.804688 257.394531 315.355469 C 256.722656 315.90625 256.027344 316.421875 255.308594 316.902344 C 254.585938 317.382812 253.84375 317.828125 253.078125 318.238281 C 252.316406 318.644531 251.53125 319.015625 250.730469 319.347656 C 249.929688 319.679688 249.113281 319.972656 248.285156 320.222656 C 247.457031 320.476562 246.617188 320.683594 245.765625 320.855469 C 244.914062 321.023438 244.058594 321.152344 243.195312 321.234375 C 242.332031 321.320312 241.46875 321.363281 240.601562 321.363281 C 239.734375 321.363281 238.867188 321.320312 238.007812 321.234375 C 237.144531 321.152344 236.285156 321.023438 235.4375 320.855469 C 234.585938 320.683594 233.746094 320.476562 232.917969 320.222656 C 232.085938 319.972656 231.273438 319.679688 230.46875 319.347656 C 229.667969 319.015625 228.886719 318.644531 228.121094 318.238281 C 227.359375 317.828125 226.613281 317.382812 225.894531 316.902344 C 225.171875 316.421875 224.476562 315.90625 223.808594 315.355469 C 223.136719 314.804688 222.496094 314.222656 221.882812 313.609375 C 221.269531 312.996094 220.6875 312.355469 220.136719 311.683594 C 219.585938 311.015625 219.070312 310.320312 218.589844 309.597656 C 218.109375 308.878906 217.664062 308.132812 217.253906 307.371094 C 216.847656 306.605469 216.476562 305.824219 216.144531 305.023438 C 215.8125 304.21875 215.519531 303.40625 215.269531 302.574219 C 215.015625 301.746094 214.808594 300.90625 214.636719 300.054688 C 214.46875 299.207031 214.339844 298.347656 214.257812 297.484375 C 214.171875 296.625 214.128906 295.757812 214.128906 294.890625 C 214.128906 294.023438 214.171875 293.160156 214.257812 292.296875 C 214.339844 291.433594 214.46875 290.578125 214.636719 289.726562 C 214.808594 288.875 215.015625 288.035156 215.269531 287.207031 C 215.519531 286.378906 215.8125 285.5625 216.144531 284.761719 C 216.476562 283.960938 216.847656 283.175781 217.253906 282.414062 C 217.664062 281.648438 218.109375 280.90625 218.589844 280.183594 C 219.070312 279.464844 219.585938 278.769531 220.136719 278.097656 C 220.6875 277.425781 221.269531 276.785156 221.882812 276.171875 C 222.496094 275.558594 223.136719 274.976562 223.808594 274.429688 C 224.476562 273.878906 225.171875 273.363281 225.894531 272.878906 C 226.613281 272.398438 227.359375 271.953125 228.121094 271.546875 C 228.886719 271.136719 229.667969 270.765625 230.46875 270.433594 C 231.273438 270.101562 232.085938 269.8125 232.917969 269.558594 C 233.746094 269.308594 234.585938 269.097656 235.4375 268.929688 C 236.285156 268.757812 237.144531 268.632812 238.007812 268.546875 C 238.867188 268.460938 239.734375 268.417969 240.601562 268.417969 C 241.46875 268.421875 242.332031 268.464844 243.195312 268.550781 C 244.058594 268.636719 244.914062 268.761719 245.761719 268.933594 C 246.613281 269.101562 247.453125 269.3125 248.28125 269.566406 C 249.113281 269.816406 249.925781 270.109375 250.726562 270.441406 C 251.527344 270.773438 252.308594 271.144531 253.074219 271.554688 C 253.839844 271.960938 254.582031 272.40625 255.300781 272.890625 C 256.023438 273.371094 256.71875 273.886719 257.386719 274.4375 C 258.058594 274.988281 258.699219 275.566406 259.3125 276.179688 C 259.925781 276.792969 260.503906 277.433594 261.054688 278.105469 C 261.605469 278.773438 262.121094 279.46875 262.601562 280.191406 C 263.085938 280.910156 263.53125 281.652344 263.9375 282.417969 C 264.347656 283.183594 264.71875 283.964844 265.050781 284.765625 C 265.382812 285.566406 265.675781 286.378906 265.925781 287.210938 C 266.179688 288.039062 266.390625 288.878906 266.558594 289.730469 C 266.730469 290.578125 266.855469 291.433594 266.941406 292.296875 C 267.027344 293.160156 267.070312 294.023438 267.074219 294.890625 Z M 267.074219 294.890625 " fill-opacity="1" fill-rule="nonzero"/></g></svg>