<svg xmlns="http://www.w3.org/2000/svg" xmlns:xlink="http://www.w3.org/1999/xlink" width="500" zoomAndPan="magnify" viewBox="0 0 375 374.999991" height="500" preserveAspectRatio="xMidYMid meet" version="1.0"><metadata><ContainsAiGeneratedContent>Yes</ContainsAiGeneratedContent></metadata><defs><clipPath id="497f47056d"><path d="M 0 3.617188 L 258.75 3.617188 L 258.75 307.367188 L 0 307.367188 Z M 0 3.617188 " clip-rule="nonzero"/></clipPath><clipPath id="6eb83c54e9"><path d="M 193.296875 187.5 L 374.796875 187.5 L 374.796875 375 L 193.296875 375 Z M 193.296875 187.5 " clip-rule="nonzero"/></clipPath></defs><g clip-path="url(#497f47056d)"><path fill="#1b575f" d="M 129.398438 108.382812 C 58.335938 108.382812 10.601562 84.003906 10.601562 61.230469 C 10.601562 38.460938 58.335938 14.082031 129.398438 14.082031 C 200.457031 14.082031 248.195312 38.460938 248.195312 61.230469 C 248.195312 84.003906 200.457031 108.382812 129.398438 108.382812 Z M 248.195312 132.46875 C 248.195312 155.238281 200.457031 179.621094 129.398438 179.621094 C 58.335938 179.621094 10.601562 155.238281 10.601562 132.46875 C 10.601562 130.894531 10.835938 129.316406 11.269531 127.738281 C 17.933594 134.457031 27.496094 140.539062 39.679688 145.6875 C 63.730469 155.839844 95.59375 161.433594 129.398438 161.433594 C 163.207031 161.433594 195.066406 155.839844 219.117188 145.6875 C 231.300781 140.539062 240.859375 134.457031 247.527344 127.738281 C 247.960938 129.316406 248.195312 130.894531 248.195312 132.46875 Z M 129.398438 254.105469 C 58.335938 254.105469 10.601562 229.726562 10.601562 206.953125 C 10.601562 204.570312 11.105469 202.171875 12.097656 199.792969 C 18.71875 206.1875 27.992188 211.988281 39.679688 216.925781 C 63.730469 227.082031 95.59375 232.671875 129.398438 232.671875 C 163.207031 232.671875 195.066406 227.082031 219.117188 216.925781 C 230.804688 211.988281 240.074219 206.1875 246.699219 199.792969 C 247.691406 202.171875 248.195312 204.570312 248.195312 206.953125 C 248.195312 229.726562 200.457031 254.105469 129.398438 254.105469 Z M 226.214844 268.71875 L 217.234375 271.929688 C 214.664062 272.84375 211.84375 271.507812 210.925781 268.9375 C 210.011719 266.375 211.347656 263.546875 213.914062 262.632812 L 222.898438 259.425781 C 225.464844 258.507812 228.289062 259.847656 229.207031 262.410156 C 230.121094 264.980469 228.785156 267.804688 226.214844 268.71875 Z M 226.214844 192.722656 L 217.234375 195.929688 C 214.664062 196.847656 211.84375 195.507812 210.925781 192.941406 C 210.011719 190.375 211.347656 187.550781 213.914062 186.632812 L 222.898438 183.425781 C 225.464844 182.511719 228.289062 183.847656 229.207031 186.414062 C 230.121094 188.980469 228.785156 191.804688 226.214844 192.722656 Z M 213.914062 115.394531 L 222.898438 112.1875 C 225.464844 111.269531 228.289062 112.609375 229.207031 115.175781 C 230.121094 117.742188 228.785156 120.566406 226.214844 121.484375 L 217.234375 124.691406 C 214.664062 125.605469 211.84375 124.269531 210.925781 121.703125 C 210.011719 119.132812 211.347656 116.3125 213.914062 115.394531 Z M 219.117188 19.394531 C 195.066406 9.238281 163.207031 3.644531 129.398438 3.644531 C 95.59375 3.644531 63.730469 9.238281 39.679688 19.394531 C 14.203125 30.15625 0.167969 45.011719 0.167969 61.230469 L 0.167969 103.851562 C 0.167969 108.773438 1.46875 113.5625 3.980469 118.15625 C 1.453125 122.785156 0.167969 127.582031 0.167969 132.46875 L 0.167969 175.089844 C 0.167969 180.59375 1.789062 185.9375 4.917969 191.019531 C 1.769531 196.144531 0.167969 201.496094 0.167969 206.953125 L 0.167969 249.574219 C 0.167969 265.792969 14.203125 280.652344 39.679688 291.410156 C 63.730469 301.5625 95.59375 307.160156 129.398438 307.160156 C 163.207031 307.160156 195.066406 301.5625 219.117188 291.410156 C 244.59375 280.652344 258.625 265.792969 258.625 249.574219 L 258.625 206.953125 C 258.625 201.496094 257.027344 196.140625 253.875 191.019531 C 257.007812 185.9375 258.625 180.59375 258.625 175.089844 L 258.625 132.46875 C 258.625 127.582031 257.34375 122.78125 254.816406 118.15625 C 257.328125 113.5625 258.625 108.773438 258.625 103.851562 L 258.625 61.230469 C 258.625 45.011719 244.59375 30.15625 219.117188 19.394531 " fill-opacity="1" fill-rule="nonzero"/></g><g clip-path="url(#6eb83c54e9)"><path fill="#93e85f" d="M 333.066406 355.023438 L 333.066406 363.246094 C 333.066406 369.710938 338.3125 374.957031 344.777344 374.957031 C 351.238281 374.957031 356.484375 369.710938 356.484375 363.246094 L 356.484375 329.328125 C 356.484375 329.289062 356.484375 329.246094 356.484375 329.207031 C 356.449219 325.910156 355.03125 322.648438 352.3125 320.363281 C 350.148438 318.542969 347.515625 317.640625 344.890625 317.617188 C 344.851562 317.617188 344.8125 317.617188 344.777344 317.617188 L 310.855469 317.617188 C 304.394531 317.617188 299.144531 322.863281 299.144531 329.328125 C 299.144531 335.328125 303.667969 340.28125 309.488281 340.957031 C 301.667969 344.132812 293.121094 345.882812 284.167969 345.882812 C 246.949219 345.882812 216.730469 315.667969 216.730469 278.445312 C 216.730469 271.984375 211.484375 266.738281 205.023438 266.738281 C 198.558594 266.738281 193.3125 271.984375 193.3125 278.445312 C 193.3125 328.589844 234.023438 369.304688 284.167969 369.304688 C 302.164062 369.304688 318.949219 364.0625 333.066406 355.023438 Z M 211.851562 233.339844 C 211.886719 236.636719 213.304688 239.898438 216.027344 242.183594 C 218.191406 244.003906 220.820312 244.90625 223.445312 244.929688 C 223.484375 244.929688 223.523438 244.929688 223.558594 244.929688 L 257.480469 244.929688 C 263.941406 244.929688 269.191406 239.683594 269.191406 233.21875 C 269.191406 227.21875 264.667969 222.265625 258.847656 221.589844 C 266.667969 218.414062 275.214844 216.664062 284.167969 216.664062 C 321.386719 216.664062 351.605469 246.882812 351.605469 284.101562 C 351.605469 290.5625 356.851562 295.808594 363.316406 295.808594 C 369.777344 295.808594 375.027344 290.5625 375.027344 284.101562 C 375.027344 233.953125 334.3125 193.242188 284.167969 193.242188 C 266.171875 193.242188 249.390625 198.484375 235.273438 207.523438 L 235.273438 199.300781 C 235.273438 192.835938 230.023438 187.589844 223.558594 187.589844 C 217.097656 187.589844 211.851562 192.835938 211.851562 199.300781 L 211.851562 233.21875 C 211.851562 233.261719 211.851562 233.300781 211.851562 233.339844 Z M 211.851562 233.339844 " fill-opacity="1" fill-rule="evenodd"/></g></svg>