<svg xmlns="http://www.w3.org/2000/svg" xmlns:xlink="http://www.w3.org/1999/xlink" width="500" zoomAndPan="magnify" viewBox="0 0 375 374.999991" height="500" preserveAspectRatio="xMidYMid meet" version="1.0"><metadata><ContainsAiGeneratedContent>Yes</ContainsAiGeneratedContent></metadata><defs><clipPath id="6b222398cb"><path d="M 86.347656 162.238281 L 288.847656 162.238281 L 288.847656 364.738281 L 86.347656 364.738281 Z M 86.347656 162.238281 " clip-rule="nonzero"/></clipPath><clipPath id="446dd82746"><path d="M 5.09375 173.085938 L 94.960938 173.085938 L 94.960938 258.613281 L 5.09375 258.613281 Z M 5.09375 173.085938 " clip-rule="nonzero"/></clipPath><clipPath id="90779a39c6"><path d="M 49.960938 173.085938 L 60.550781 205.753906 L 94.824219 205.753906 L 67.097656 225.945312 L 77.6875 258.613281 L 49.960938 238.421875 L 22.230469 258.613281 L 32.824219 225.945312 L 5.09375 205.753906 L 39.367188 205.753906 Z M 49.960938 173.085938 " clip-rule="nonzero"/></clipPath><clipPath id="42afa67c97"><path d="M 0.09375 0.0859375 L 89.960938 0.0859375 L 89.960938 85.613281 L 0.09375 85.613281 Z M 0.09375 0.0859375 " clip-rule="nonzero"/></clipPath><clipPath id="97a63cbe37"><path d="M 44.960938 0.0859375 L 55.550781 32.753906 L 89.824219 32.753906 L 62.097656 52.945312 L 72.6875 85.613281 L 44.960938 65.421875 L 17.230469 85.613281 L 27.824219 52.945312 L 0.09375 32.753906 L 34.367188 32.753906 Z M 44.960938 0.0859375 " clip-rule="nonzero"/></clipPath><clipPath id="bcf3394068"><rect x="0" width="90" y="0" height="86"/></clipPath><clipPath id="e6e4a641df"><path d="M 276.101562 173.085938 L 365.96875 173.085938 L 365.96875 258.613281 L 276.101562 258.613281 Z M 276.101562 173.085938 " clip-rule="nonzero"/></clipPath><clipPath id="2b4a870939"><path d="M 320.96875 173.085938 L 331.558594 205.753906 L 365.832031 205.753906 L 338.105469 225.945312 L 348.695312 258.613281 L 320.96875 238.421875 L 293.238281 258.613281 L 303.832031 225.945312 L 276.101562 205.753906 L 310.375 205.753906 Z M 320.96875 173.085938 " clip-rule="nonzero"/></clipPath><clipPath id="375a410609"><path d="M 0.101562 0.0859375 L 89.96875 0.0859375 L 89.96875 85.613281 L 0.101562 85.613281 Z M 0.101562 0.0859375 " clip-rule="nonzero"/></clipPath><clipPath id="8b368aba2d"><path d="M 44.96875 0.0859375 L 55.558594 32.753906 L 89.832031 32.753906 L 62.105469 52.945312 L 72.695312 85.613281 L 44.96875 65.421875 L 17.238281 85.613281 L 27.832031 52.945312 L 0.101562 32.753906 L 34.375 32.753906 Z M 44.96875 0.0859375 " clip-rule="nonzero"/></clipPath><clipPath id="72010bba27"><rect x="0" width="90" y="0" height="86"/></clipPath><clipPath id="7370db1e3b"><path d="M 49.960938 76.710938 L 139.828125 76.710938 L 139.828125 162.234375 L 49.960938 162.234375 Z M 49.960938 76.710938 " clip-rule="nonzero"/></clipPath><clipPath id="e66f542cfa"><path d="M 94.824219 76.710938 L 105.417969 109.378906 L 139.691406 109.378906 L 111.960938 129.570312 L 122.554688 162.234375 L 94.824219 142.046875 L 67.097656 162.234375 L 77.6875 129.570312 L 49.960938 109.378906 L 84.234375 109.378906 Z M 94.824219 76.710938 " clip-rule="nonzero"/></clipPath><clipPath id="eba752846a"><path d="M 0.960938 0.710938 L 90.828125 0.710938 L 90.828125 86.234375 L 0.960938 86.234375 Z M 0.960938 0.710938 " clip-rule="nonzero"/></clipPath><clipPath id="551a5e8780"><path d="M 45.824219 0.710938 L 56.417969 33.378906 L 90.691406 33.378906 L 62.960938 53.570312 L 73.554688 86.234375 L 45.824219 66.046875 L 18.097656 86.234375 L 28.6875 53.570312 L 0.960938 33.378906 L 35.234375 33.378906 Z M 45.824219 0.710938 " clip-rule="nonzero"/></clipPath><clipPath id="1e6a360311"><rect x="0" width="91" y="0" height="87"/></clipPath><clipPath id="aca49d4969"><path d="M 139.691406 6.847656 L 229.558594 6.847656 L 229.558594 92.375 L 139.691406 92.375 Z M 139.691406 6.847656 " clip-rule="nonzero"/></clipPath><clipPath id="5239a3c938"><path d="M 184.554688 6.847656 L 195.148438 39.515625 L 229.421875 39.515625 L 201.691406 59.707031 L 212.285156 92.375 L 184.554688 72.183594 L 156.828125 92.375 L 167.417969 59.707031 L 139.691406 39.515625 L 173.964844 39.515625 Z M 184.554688 6.847656 " clip-rule="nonzero"/></clipPath><clipPath id="a6954af5cc"><path d="M 0.691406 0.847656 L 90.441406 0.847656 L 90.441406 86.375 L 0.691406 86.375 Z M 0.691406 0.847656 " clip-rule="nonzero"/></clipPath><clipPath id="62c1a3aad0"><path d="M 45.554688 0.847656 L 56.148438 33.515625 L 90.421875 33.515625 L 62.691406 53.707031 L 73.285156 86.375 L 45.554688 66.183594 L 17.828125 86.375 L 28.417969 53.707031 L 0.691406 33.515625 L 34.964844 33.515625 Z M 45.554688 0.847656 " clip-rule="nonzero"/></clipPath><clipPath id="f259a39ab6"><rect x="0" width="91" y="0" height="87"/></clipPath><clipPath id="4df565cabf"><path d="M 231.238281 76.710938 L 321 76.710938 L 321 162.234375 L 231.238281 162.234375 Z M 231.238281 76.710938 " clip-rule="nonzero"/></clipPath><clipPath id="3fcaf815d7"><path d="M 276.101562 76.710938 L 286.691406 109.378906 L 320.96875 109.378906 L 293.238281 129.570312 L 303.832031 162.234375 L 276.101562 142.046875 L 248.375 162.234375 L 258.964844 129.570312 L 231.238281 109.378906 L 265.511719 109.378906 Z M 276.101562 76.710938 " clip-rule="nonzero"/></clipPath><clipPath id="225a891fe4"><path d="M 0.238281 0.710938 L 90 0.710938 L 90 86.234375 L 0.238281 86.234375 Z M 0.238281 0.710938 " clip-rule="nonzero"/></clipPath><clipPath id="2dca9cfa9c"><path d="M 45.101562 0.710938 L 55.691406 33.378906 L 89.96875 33.378906 L 62.238281 53.570312 L 72.832031 86.234375 L 45.101562 66.046875 L 17.375 86.234375 L 27.964844 53.570312 L 0.238281 33.378906 L 34.511719 33.378906 Z M 45.101562 0.710938 " clip-rule="nonzero"/></clipPath><clipPath id="21748d3b55"><rect x="0" width="90" y="0" height="87"/></clipPath></defs><g clip-path="url(#6b222398cb)"><path fill="#000000" d="M 285.566406 364.722656 L 89.644531 364.722656 C 87.871094 364.722656 86.433594 363.285156 86.433594 361.511719 L 86.433594 343.207031 C 86.433594 312.757812 111.207031 287.984375 141.65625 287.984375 L 233.554688 287.984375 C 264.003906 287.984375 288.777344 312.757812 288.777344 343.207031 L 288.777344 361.511719 C 288.777344 363.285156 287.339844 364.722656 285.566406 364.722656 Z M 187.605469 279.351562 C 155.316406 279.351562 129.046875 253.082031 129.046875 220.792969 C 129.046875 188.503906 155.316406 162.238281 187.605469 162.238281 C 219.894531 162.238281 246.160156 188.503906 246.160156 220.792969 C 246.160156 253.082031 219.894531 279.351562 187.605469 279.351562 Z M 187.605469 279.351562 " fill-opacity="1" fill-rule="nonzero"/></g><g clip-path="url(#446dd82746)"><g clip-path="url(#90779a39c6)"><g transform="matrix(1, 0, 0, 1, 5, 173)"><g clip-path="url(#bcf3394068)"><g clip-path="url(#42afa67c97)"><g clip-path="url(#97a63cbe37)"><path fill="#1b575f" d="M 0.09375 0.0859375 L 89.960938 0.0859375 L 89.960938 85.613281 L 0.09375 85.613281 Z M 0.09375 0.0859375 " fill-opacity="1" fill-rule="nonzero"/></g></g></g></g></g></g><g clip-path="url(#e6e4a641df)"><g clip-path="url(#2b4a870939)"><g transform="matrix(1, 0, 0, 1, 276, 173)"><g clip-path="url(#72010bba27)"><g clip-path="url(#375a410609)"><g clip-path="url(#8b368aba2d)"><path fill="#1b575f" d="M 0.101562 0.0859375 L 89.96875 0.0859375 L 89.96875 85.613281 L 0.101562 85.613281 Z M 0.101562 0.0859375 " fill-opacity="1" fill-rule="nonzero"/></g></g></g></g></g></g><g clip-path="url(#7370db1e3b)"><g clip-path="url(#e66f542cfa)"><g transform="matrix(1, 0, 0, 1, 49, 76)"><g clip-path="url(#1e6a360311)"><g clip-path="url(#eba752846a)"><g clip-path="url(#551a5e8780)"><path fill="#93e85f" d="M 0.960938 0.710938 L 90.828125 0.710938 L 90.828125 86.234375 L 0.960938 86.234375 Z M 0.960938 0.710938 " fill-opacity="1" fill-rule="nonzero"/></g></g></g></g></g></g><g clip-path="url(#aca49d4969)"><g clip-path="url(#5239a3c938)"><g transform="matrix(1, 0, 0, 1, 139, 6)"><g clip-path="url(#f259a39ab6)"><g clip-path="url(#a6954af5cc)"><g clip-path="url(#62c1a3aad0)"><path fill="#1b575f" d="M 0.691406 0.847656 L 90.558594 0.847656 L 90.558594 86.375 L 0.691406 86.375 Z M 0.691406 0.847656 " fill-opacity="1" fill-rule="nonzero"/></g></g></g></g></g></g><g clip-path="url(#4df565cabf)"><g clip-path="url(#3fcaf815d7)"><g transform="matrix(1, 0, 0, 1, 231, 76)"><g clip-path="url(#21748d3b55)"><g clip-path="url(#225a891fe4)"><g clip-path="url(#2dca9cfa9c)"><path fill="#93e85f" d="M 0.238281 0.710938 L 90.105469 0.710938 L 90.105469 86.234375 L 0.238281 86.234375 Z M 0.238281 0.710938 " fill-opacity="1" fill-rule="nonzero"/></g></g></g></g></g></g></svg>