<svg xmlns="http://www.w3.org/2000/svg" xmlns:xlink="http://www.w3.org/1999/xlink" width="500" zoomAndPan="magnify" viewBox="0 0 375 374.999991" height="500" preserveAspectRatio="xMidYMid meet" version="1.0"><metadata><ContainsAiGeneratedContent>Yes</ContainsAiGeneratedContent></metadata><defs><clipPath id="58903018d9"><path d="M 15.921875 4.042969 L 359.078125 4.042969 L 359.078125 347.203125 L 15.921875 347.203125 Z M 15.921875 4.042969 " clip-rule="nonzero"/></clipPath><clipPath id="148a8c2cc4"><path d="M 187.5 4.042969 C 92.738281 4.042969 15.921875 80.859375 15.921875 175.621094 C 15.921875 270.382812 92.738281 347.203125 187.5 347.203125 C 282.261719 347.203125 359.078125 270.382812 359.078125 175.621094 C 359.078125 80.859375 282.261719 4.042969 187.5 4.042969 Z M 187.5 4.042969 " clip-rule="nonzero"/></clipPath><clipPath id="6f7440ddec"><path d="M 0.921875 0.0429688 L 344.078125 0.0429688 L 344.078125 343.203125 L 0.921875 343.203125 Z M 0.921875 0.0429688 " clip-rule="nonzero"/></clipPath><clipPath id="1a010cc28a"><path d="M 172.5 0.0429688 C 77.738281 0.0429688 0.921875 76.859375 0.921875 171.621094 C 0.921875 266.382812 77.738281 343.203125 172.5 343.203125 C 267.261719 343.203125 344.078125 266.382812 344.078125 171.621094 C 344.078125 76.859375 267.261719 0.0429688 172.5 0.0429688 Z M 172.5 0.0429688 " clip-rule="nonzero"/></clipPath><clipPath id="c0deed44fc"><rect x="0" width="345" y="0" height="344"/></clipPath><clipPath id="3280e757db"><path d="M 15.921875 4.042969 L 359.070312 4.042969 L 359.070312 347.191406 L 15.921875 347.191406 Z M 15.921875 4.042969 " clip-rule="nonzero"/></clipPath><clipPath id="21c206f519"><path d="M 187.496094 4.042969 C 92.738281 4.042969 15.921875 80.859375 15.921875 175.617188 C 15.921875 270.375 92.738281 347.191406 187.496094 347.191406 C 282.253906 347.191406 359.070312 270.375 359.070312 175.617188 C 359.070312 80.859375 282.253906 4.042969 187.496094 4.042969 Z M 187.496094 4.042969 " clip-rule="nonzero"/></clipPath><clipPath id="2d3434521d"><path d="M 62.40625 50.527344 L 312.59375 50.527344 L 312.59375 300.714844 L 62.40625 300.714844 Z M 62.40625 50.527344 " clip-rule="nonzero"/></clipPath><clipPath id="f183e5a96f"><path d="M 187.5 50.527344 C 118.414062 50.527344 62.40625 106.535156 62.40625 175.621094 C 62.40625 244.710938 118.414062 300.714844 187.5 300.714844 C 256.585938 300.714844 312.59375 244.710938 312.59375 175.621094 C 312.59375 106.535156 256.585938 50.527344 187.5 50.527344 Z M 187.5 50.527344 " clip-rule="nonzero"/></clipPath><clipPath id="81ddef4330"><path d="M 0.40625 0.527344 L 250.59375 0.527344 L 250.59375 250.714844 L 0.40625 250.714844 Z M 0.40625 0.527344 " clip-rule="nonzero"/></clipPath><clipPath id="6288a3fb9c"><path d="M 125.5 0.527344 C 56.414062 0.527344 0.40625 56.535156 0.40625 125.621094 C 0.40625 194.710938 56.414062 250.714844 125.5 250.714844 C 194.585938 250.714844 250.59375 194.710938 250.59375 125.621094 C 250.59375 56.535156 194.585938 0.527344 125.5 0.527344 Z M 125.5 0.527344 " clip-rule="nonzero"/></clipPath><clipPath id="f7d35135ce"><rect x="0" width="251" y="0" height="251"/></clipPath><clipPath id="194fcc1771"><path d="M 62.40625 50.527344 L 312.589844 50.527344 L 312.589844 300.710938 L 62.40625 300.710938 Z M 62.40625 50.527344 " clip-rule="nonzero"/></clipPath><clipPath id="83c2ae1164"><path d="M 187.496094 50.527344 C 118.410156 50.527344 62.40625 106.53125 62.40625 175.617188 C 62.40625 244.707031 118.410156 300.710938 187.496094 300.710938 C 256.582031 300.710938 312.589844 244.707031 312.589844 175.617188 C 312.589844 106.53125 256.582031 50.527344 187.496094 50.527344 Z M 187.496094 50.527344 " clip-rule="nonzero"/></clipPath><clipPath id="061a447df7"><path d="M 102.421875 90.542969 L 272.578125 90.542969 L 272.578125 260.699219 L 102.421875 260.699219 Z M 102.421875 90.542969 " clip-rule="nonzero"/></clipPath><clipPath id="43561a7506"><path d="M 187.5 90.542969 C 140.511719 90.542969 102.421875 128.636719 102.421875 175.621094 C 102.421875 222.609375 140.511719 260.699219 187.5 260.699219 C 234.488281 260.699219 272.578125 222.609375 272.578125 175.621094 C 272.578125 128.636719 234.488281 90.542969 187.5 90.542969 Z M 187.5 90.542969 " clip-rule="nonzero"/></clipPath><clipPath id="29d1734970"><path d="M 0.421875 0.542969 L 170.578125 0.542969 L 170.578125 170.699219 L 0.421875 170.699219 Z M 0.421875 0.542969 " clip-rule="nonzero"/></clipPath><clipPath id="46e30ca4c4"><path d="M 85.5 0.542969 C 38.511719 0.542969 0.421875 38.636719 0.421875 85.621094 C 0.421875 132.609375 38.511719 170.699219 85.5 170.699219 C 132.488281 170.699219 170.578125 132.609375 170.578125 85.621094 C 170.578125 38.636719 132.488281 0.542969 85.5 0.542969 Z M 85.5 0.542969 " clip-rule="nonzero"/></clipPath><clipPath id="a33f326913"><rect x="0" width="171" y="0" height="171"/></clipPath><clipPath id="993f130a27"><path d="M 102.421875 90.542969 L 272.566406 90.542969 L 272.566406 260.6875 L 102.421875 260.6875 Z M 102.421875 90.542969 " clip-rule="nonzero"/></clipPath><clipPath id="7b6b20a65a"><path d="M 187.496094 90.542969 C 140.511719 90.542969 102.421875 128.632812 102.421875 175.617188 C 102.421875 222.601562 140.511719 260.6875 187.496094 260.6875 C 234.480469 260.6875 272.566406 222.601562 272.566406 175.617188 C 272.566406 128.632812 234.480469 90.542969 187.496094 90.542969 Z M 187.496094 90.542969 " clip-rule="nonzero"/></clipPath><clipPath id="552b5497c0"><path d="M 70.941406 184.765625 L 309 184.765625 L 309 347.203125 L 70.941406 347.203125 Z M 70.941406 184.765625 " clip-rule="nonzero"/></clipPath><clipPath id="a126895857"><path d="M 189.925781 184.765625 L 308.910156 347.203125 L 70.941406 347.203125 Z M 189.925781 184.765625 " clip-rule="nonzero"/></clipPath><clipPath id="785059742b"><path d="M 0.941406 0.765625 L 239 0.765625 L 239 163.203125 L 0.941406 163.203125 Z M 0.941406 0.765625 " clip-rule="nonzero"/></clipPath><clipPath id="18113cc5d6"><path d="M 119.925781 0.765625 L 238.910156 163.203125 L 0.941406 163.203125 Z M 119.925781 0.765625 " clip-rule="nonzero"/></clipPath><clipPath id="a12083dc12"><rect x="0" width="239" y="0" height="164"/></clipPath><clipPath id="a449ed2f4d"><path d="M 153 138.597656 L 221.925781 138.597656 L 221.925781 200.699219 L 153 200.699219 Z M 153 138.597656 " clip-rule="nonzero"/></clipPath><clipPath id="090e174efe"><path d="M 192.710938 141.875 L 221.113281 191.582031 C 222.191406 193.46875 222.183594 195.785156 221.09375 197.664062 C 220.003906 199.542969 217.996094 200.699219 215.820312 200.699219 L 159.179688 200.699219 C 157.003906 200.699219 154.996094 199.542969 153.90625 197.664062 C 152.816406 195.785156 152.808594 193.46875 153.886719 191.582031 L 182.289062 141.875 C 183.359375 140.007812 185.347656 138.851562 187.5 138.851562 C 189.652344 138.851562 191.640625 140.007812 192.710938 141.875 Z M 192.710938 141.875 " clip-rule="nonzero"/></clipPath><clipPath id="19a163f5de"><path d="M 0 0.71875 L 68.925781 0.71875 L 68.925781 62.699219 L 0 62.699219 Z M 0 0.71875 " clip-rule="nonzero"/></clipPath><clipPath id="dac30ec098"><path d="M 39.710938 3.875 L 68.113281 53.582031 C 69.191406 55.46875 69.183594 57.785156 68.09375 59.664062 C 67.003906 61.542969 64.996094 62.699219 62.820312 62.699219 L 6.179688 62.699219 C 4.003906 62.699219 1.996094 61.542969 0.90625 59.664062 C -0.183594 57.785156 -0.191406 55.46875 0.886719 53.582031 L 29.289062 3.875 C 30.359375 2.007812 32.347656 0.851562 34.5 0.851562 C 36.652344 0.851562 38.640625 2.007812 39.710938 3.875 Z M 39.710938 3.875 " clip-rule="nonzero"/></clipPath><clipPath id="1f67817d8d"><rect x="0" width="69" y="0" height="63"/></clipPath></defs><g clip-path="url(#58903018d9)"><g clip-path="url(#148a8c2cc4)"><g transform="matrix(1, 0, 0, 1, 15, 4)"><g clip-path="url(#c0deed44fc)"><g clip-path="url(#6f7440ddec)"><g clip-path="url(#1a010cc28a)"><path fill="#ffffff" d="M 0.921875 0.0429688 L 344.078125 0.0429688 L 344.078125 343.203125 L 0.921875 343.203125 Z M 0.921875 0.0429688 " fill-opacity="1" fill-rule="nonzero"/></g></g></g></g></g></g><g clip-path="url(#3280e757db)"><g clip-path="url(#21c206f519)"><path stroke-linecap="butt" transform="matrix(0.75, 0, 0, 0.75, 15.920482, 4.042177)" fill="none" stroke-linejoin="miter" d="M 228.767512 0.00105511 C 102.423746 0.00105511 0.00185742 102.422943 0.00185742 228.76671 C 0.00185742 355.110476 102.423746 457.532364 228.767512 457.532364 C 355.111278 457.532364 457.533167 355.110476 457.533167 228.76671 C 457.533167 102.422943 355.111278 0.00105511 228.767512 0.00105511 Z M 228.767512 0.00105511 " stroke="#1b575f" stroke-width="80" stroke-opacity="1" stroke-miterlimit="4"/></g></g><g clip-path="url(#2d3434521d)"><g clip-path="url(#f183e5a96f)"><g transform="matrix(1, 0, 0, 1, 62, 50)"><g clip-path="url(#f7d35135ce)"><g clip-path="url(#81ddef4330)"><g clip-path="url(#6288a3fb9c)"><path fill="#ffffff" d="M 0.40625 0.527344 L 250.59375 0.527344 L 250.59375 250.714844 L 0.40625 250.714844 Z M 0.40625 0.527344 " fill-opacity="1" fill-rule="nonzero"/></g></g></g></g></g></g><g clip-path="url(#194fcc1771)"><g clip-path="url(#83c2ae1164)"><path stroke-linecap="butt" transform="matrix(0.75, 0, 0, 0.75, 62.405472, 50.527175)" fill="none" stroke-linejoin="miter" d="M 166.787506 0.000224891 C 74.672917 0.000224891 0.0010368 74.672105 0.0010368 166.786694 C 0.0010368 258.906492 74.672917 333.578372 166.787506 333.578372 C 258.902095 333.578372 333.579184 258.906492 333.579184 166.786694 C 333.579184 74.672105 258.902095 0.000224891 166.787506 0.000224891 Z M 166.787506 0.000224891 " stroke="#93e85f" stroke-width="80" stroke-opacity="1" stroke-miterlimit="4"/></g></g><g clip-path="url(#061a447df7)"><g clip-path="url(#43561a7506)"><g transform="matrix(1, 0, 0, 1, 102, 90)"><g clip-path="url(#a33f326913)"><g clip-path="url(#29d1734970)"><g clip-path="url(#46e30ca4c4)"><path fill="#ffffff" d="M 0.421875 0.542969 L 170.578125 0.542969 L 170.578125 170.699219 L 0.421875 170.699219 Z M 0.421875 0.542969 " fill-opacity="1" fill-rule="nonzero"/></g></g></g></g></g></g><g clip-path="url(#993f130a27)"><g clip-path="url(#7b6b20a65a)"><path stroke-linecap="butt" transform="matrix(0.75, 0, 0, 0.75, 102.422986, 90.544681)" fill="none" stroke-linejoin="miter" d="M 113.430811 -0.00228334 C 50.784977 -0.00228334 -0.00148103 50.784175 -0.00148103 113.430009 C -0.00148103 176.075842 50.784977 226.857092 113.430811 226.857092 C 176.076644 226.857092 226.857894 176.075842 226.857894 113.430009 C 226.857894 50.784175 176.076644 -0.00228334 113.430811 -0.00228334 Z M 113.430811 -0.00228334 " stroke="#1b575f" stroke-width="80" stroke-opacity="1" stroke-miterlimit="4"/></g></g><g clip-path="url(#552b5497c0)"><g clip-path="url(#a126895857)"><g transform="matrix(1, 0, 0, 1, 70, 184)"><g clip-path="url(#a12083dc12)"><g clip-path="url(#785059742b)"><g clip-path="url(#18113cc5d6)"><path fill="#ffffff" d="M 0.941406 0.765625 L 238.882812 0.765625 L 238.882812 163.203125 L 0.941406 163.203125 Z M 0.941406 0.765625 " fill-opacity="1" fill-rule="nonzero"/></g></g></g></g></g></g><path stroke-linecap="butt" transform="matrix(0, -0.75, 0.75, 0, 174.374201, 402.007181)" fill="none" stroke-linejoin="miter" d="M -0.000842265 17.501066 L 272.113759 17.501066 " stroke="#93e85f" stroke-width="35" stroke-opacity="1" stroke-miterlimit="4"/><g clip-path="url(#a449ed2f4d)"><g clip-path="url(#090e174efe)"><g transform="matrix(1, 0, 0, 1, 153, 138)"><g clip-path="url(#1f67817d8d)"><g clip-path="url(#19a163f5de)"><g clip-path="url(#dac30ec098)"><path fill="#93e85f" d="M -4.320312 -5.238281 L 73.4375 -5.238281 L 73.4375 62.699219 L -4.320312 62.699219 Z M -4.320312 -5.238281 " fill-opacity="1" fill-rule="nonzero"/></g></g></g></g></g></g></svg>