<svg xmlns="http://www.w3.org/2000/svg" xmlns:xlink="http://www.w3.org/1999/xlink" width="500" zoomAndPan="magnify" viewBox="0 0 375 374.999991" height="500" preserveAspectRatio="xMidYMid meet" version="1.0"><metadata><ContainsAiGeneratedContent>Yes</ContainsAiGeneratedContent></metadata><defs><clipPath id="a917c02778"><path d="M 7.261719 25.875 L 368.761719 25.875 L 368.761719 339.375 L 7.261719 339.375 Z M 7.261719 25.875 " clip-rule="nonzero"/></clipPath></defs><g clip-path="url(#a917c02778)"><path fill="#1b575f" d="M 143.378906 318.222656 C 88.367188 298.019531 49.121094 245.171875 49.121094 183.152344 C 49.121094 132.421875 75.386719 87.824219 115.0625 62.214844 L 131.089844 89.972656 C 100.96875 110.015625 81.117188 144.265625 81.117188 183.15625 C 81.117188 230.074219 110.007812 270.234375 150.96875 286.84375 Z M 297.535156 298.28125 L 313.058594 313.804688 L 330.691406 313.804688 C 333.171875 305.953125 340.511719 300.261719 349.183594 300.261719 C 359.890625 300.261719 368.570312 308.945312 368.570312 319.652344 C 368.570312 330.359375 359.890625 339.042969 349.183594 339.042969 C 340.511719 339.042969 333.171875 333.351562 330.691406 325.5 L 310.636719 325.5 C 309.136719 325.5 307.640625 324.929688 306.5 323.785156 L 288.558594 305.84375 C 291.644531 303.4375 294.636719 300.910156 297.535156 298.28125 Z M 26.804688 25.90625 C 16.09375 25.90625 7.414062 34.585938 7.414062 45.296875 C 7.414062 53.964844 13.105469 61.304688 20.957031 63.785156 L 20.957031 81.503906 L 20.972656 81.503906 C 20.972656 83.246094 21.753906 84.96875 23.238281 86.117188 L 55.191406 110.914062 C 57.015625 107.4375 58.972656 104.03125 61.054688 100.699219 L 32.652344 78.660156 L 32.652344 63.785156 C 40.503906 61.304688 46.195312 53.964844 46.195312 45.296875 C 46.195312 34.585938 37.511719 25.90625 26.804688 25.90625 Z M 349.183594 25.90625 C 359.890625 25.90625 368.570312 34.589844 368.570312 45.296875 C 368.570312 56.003906 359.890625 64.683594 349.183594 64.683594 C 340.511719 64.683594 333.171875 58.992188 330.691406 51.144531 L 301.5 51.144531 L 289.464844 61.183594 C 286.328125 58.703125 283.097656 56.335938 279.773438 54.097656 L 295.699219 40.820312 C 296.785156 39.914062 298.109375 39.472656 299.421875 39.472656 L 299.421875 39.449219 L 330.691406 39.449219 C 333.171875 31.597656 340.511719 25.90625 349.183594 25.90625 Z M 335.910156 199.238281 L 303.546875 200.03125 C 295.410156 253.796875 249 295.003906 192.964844 295.003906 C 189.878906 295.003906 186.824219 294.871094 183.804688 294.628906 L 176.210938 326.023438 C 181.710938 326.660156 187.296875 327 192.964844 327 C 266.96875 327 327.910156 271.109375 335.910156 199.238281 Z M 192.964844 39.308594 C 176.3125 39.308594 160.324219 42.148438 145.449219 47.351562 L 161.816406 75.703125 C 171.707031 72.84375 182.15625 71.304688 192.964844 71.304688 C 249 71.304688 295.410156 112.511719 303.546875 166.273438 L 335.730469 165.484375 C 327.019531 94.378906 266.425781 39.308594 192.964844 39.308594 Z M 192.964844 39.308594 " fill-opacity="1" fill-rule="evenodd"/></g><path fill="#93e85f" d="M 219.800781 150.148438 C 246.410156 175.28125 269.300781 211.199219 246.421875 241.160156 C 237.15625 253.296875 224.015625 259.792969 208.746094 259.792969 L 176.28125 259.792969 C 161.011719 259.792969 147.867188 253.292969 138.601562 241.15625 C 115.734375 211.195312 138.621094 175.277344 165.230469 150.148438 Z M 186.667969 169.132812 L 186.667969 174.441406 C 183.425781 175.261719 180.519531 176.953125 178.226562 179.25 C 174.917969 182.558594 172.863281 187.125 172.863281 192.152344 C 172.863281 197.183594 174.917969 201.75 178.226562 205.058594 C 181.53125 208.363281 186.097656 210.417969 191.128906 210.417969 L 193.902344 210.417969 C 195.703125 210.417969 197.34375 211.160156 198.535156 212.351562 C 199.730469 213.542969 200.46875 215.183594 200.46875 216.984375 C 200.46875 218.785156 199.730469 220.425781 198.535156 221.617188 C 197.34375 222.808594 195.703125 223.550781 193.902344 223.550781 L 189.996094 223.550781 C 188.890625 223.550781 187.878906 223.296875 187.007812 222.851562 C 186.097656 222.382812 185.289062 221.675781 184.65625 220.804688 C 182.765625 218.191406 179.113281 217.609375 176.503906 219.5 C 173.890625 221.394531 173.308594 225.046875 175.199219 227.65625 C 176.871094 229.96875 179.101562 231.886719 181.710938 233.226562 C 183.261719 234.023438 184.925781 234.605469 186.667969 234.933594 L 186.667969 240.007812 C 186.667969 243.238281 189.285156 245.855469 192.515625 245.855469 C 195.746094 245.855469 198.363281 243.238281 198.363281 240.007812 L 198.363281 234.695312 C 201.609375 233.875 204.511719 232.183594 206.808594 229.886719 C 210.113281 226.582031 212.167969 222.011719 212.167969 216.984375 C 212.167969 211.957031 210.113281 207.386719 206.808594 204.082031 C 203.5 200.773438 198.933594 198.71875 193.902344 198.71875 L 191.128906 198.71875 C 189.328125 198.71875 187.6875 197.980469 186.496094 196.785156 C 185.304688 195.59375 184.5625 193.953125 184.5625 192.152344 C 184.5625 190.355469 185.304688 188.714844 186.496094 187.519531 C 187.6875 186.328125 189.328125 185.585938 191.128906 185.585938 L 195.039062 185.585938 C 196.140625 185.585938 197.152344 185.839844 198.023438 186.285156 C 198.933594 186.753906 199.742188 187.460938 200.375 188.335938 C 202.265625 190.945312 205.917969 191.53125 208.53125 189.636719 C 211.140625 187.742188 211.722656 184.09375 209.832031 181.480469 C 208.160156 179.167969 205.929688 177.25 203.320312 175.914062 C 201.769531 175.117188 200.105469 174.53125 198.363281 174.203125 L 198.363281 169.132812 C 198.363281 165.902344 195.746094 163.28125 192.515625 163.28125 C 189.285156 163.28125 186.667969 165.902344 186.667969 169.132812 Z M 165.976562 138.449219 C 164.40625 134.289062 163.492188 132.578125 159.023438 126.203125 C 151.082031 114.867188 152.695312 111.027344 172.089844 118.195312 C 180.230469 121.207031 176.804688 106.511719 192.515625 106.511719 C 208.226562 106.511719 204.796875 121.207031 212.941406 118.195312 C 232.335938 111.027344 233.945312 114.867188 226.007812 126.203125 C 221.539062 132.578125 220.625 134.289062 219.054688 138.449219 Z M 165.976562 138.449219 " fill-opacity="1" fill-rule="evenodd"/></svg>