<svg xmlns="http://www.w3.org/2000/svg" xmlns:xlink="http://www.w3.org/1999/xlink" width="500" zoomAndPan="magnify" viewBox="0 0 375 374.999991" height="500" preserveAspectRatio="xMidYMid meet" version="1.0"><metadata><ContainsAiGeneratedContent>Yes</ContainsAiGeneratedContent></metadata><defs><clipPath id="5c476ac1e4"><path d="M 5.644531 12.917969 L 369.394531 12.917969 L 369.394531 362.417969 L 5.644531 362.417969 Z M 5.644531 12.917969 " clip-rule="nonzero"/></clipPath></defs><g clip-path="url(#5c476ac1e4)"><path fill="#1b575f" d="M 369.179688 175.738281 C 369.179688 168.679688 366.5 161.621094 361.160156 156.269531 L 361.132812 156.246094 C 355.9375 151.046875 349.113281 148.378906 342.257812 148.234375 C 342.058594 146.433594 341.695312 144.664062 341.121094 142.929688 C 339.8125 138.914062 337.535156 135.179688 334.320312 131.964844 L 334.292969 131.964844 C 328.941406 126.613281 321.882812 123.945312 314.824219 123.945312 L 314.824219 123.917969 C 307.769531 123.917969 300.703125 126.605469 295.34375 131.964844 L 225.710938 201.597656 L 99.453125 201.707031 C 99.289062 201.679688 99.136719 201.660156 98.972656 201.652344 C 95.09375 201.378906 91.132812 201.941406 87.398438 203.332031 C 83.957031 204.613281 80.722656 206.59375 77.945312 209.28125 L 77.582031 209.617188 L 7.59375 279.621094 C 6.351562 280.867188 5.785156 282.546875 5.90625 284.171875 L 5.90625 355.765625 L 5.878906 356.285156 C 5.878906 359.507812 8.492188 362.125 11.71875 362.125 L 75.453125 362.105469 C 76.980469 362.105469 78.507812 361.507812 79.652344 360.316406 L 95.519531 343.8125 L 241.480469 307.070312 C 246.183594 305.609375 250.953125 302.867188 255.601562 299.378906 C 260.035156 296.054688 264.378906 292.066406 268.429688 287.898438 C 268.457031 287.871094 268.472656 287.84375 268.5 287.816406 C 268.675781 287.679688 268.847656 287.535156 269 287.371094 L 361.152344 195.21875 C 366.507812 189.859375 369.199219 182.785156 369.199219 175.738281 Z M 303.609375 140.230469 C 306.6875 137.152344 310.765625 135.605469 314.84375 135.605469 L 314.84375 135.578125 C 318.914062 135.578125 322.992188 137.125 326.078125 140.222656 C 327.988281 142.128906 329.324219 144.28125 330.058594 146.535156 C 330.46875 147.796875 330.703125 149.105469 330.757812 150.441406 C 327.640625 151.773438 324.726562 153.710938 322.191406 156.234375 L 255.332031 223.097656 C 254.167969 217.910156 251.550781 213.277344 247.917969 209.664062 C 245.585938 207.328125 242.832031 205.410156 239.796875 204.03125 Z M 357.527344 175.738281 C 357.527344 179.816406 355.980469 183.882812 352.902344 186.972656 L 260.753906 279.121094 C 260.664062 279.214844 260.582031 279.3125 260.5 279.414062 C 260.363281 279.53125 260.226562 279.660156 260.089844 279.785156 C 256.382812 283.601562 252.488281 287.199219 248.636719 290.085938 C 245.09375 292.738281 241.585938 294.808594 238.328125 295.863281 L 91.078125 332.914062 C 89.871094 333.214844 88.84375 333.875 88.082031 334.757812 L 72.992188 350.453125 L 17.53125 350.453125 L 17.53125 286.1875 L 86.082031 217.621094 C 87.671875 216.101562 89.507812 214.976562 91.449219 214.25 C 93.585938 213.460938 95.890625 213.140625 98.191406 213.296875 C 98.300781 213.304688 98.410156 213.296875 98.515625 213.304688 C 98.761719 213.332031 99 213.359375 99.253906 213.359375 L 228.445312 213.25 L 228.460938 213.277344 C 232.832031 213.277344 236.800781 215.058594 239.652344 217.917969 L 239.652344 217.945312 C 242.542969 220.835938 244.339844 224.804688 244.347656 229.144531 L 244.320312 229.164062 C 244.320312 233.523438 242.53125 237.492188 239.652344 240.375 C 236.773438 243.253906 232.804688 245.042969 228.445312 245.042969 L 138.519531 245.042969 C 135.296875 245.042969 132.679688 247.65625 132.679688 250.882812 C 132.679688 254.105469 135.296875 256.722656 138.519531 256.722656 L 228.445312 256.722656 C 236.027344 256.722656 242.921875 253.625 247.910156 248.628906 C 249.773438 246.769531 251.371094 244.640625 252.640625 242.308594 L 330.429688 164.519531 C 333.511719 161.441406 337.589844 159.894531 341.667969 159.894531 L 341.667969 159.867188 C 345.734375 159.867188 349.816406 161.414062 352.910156 164.5 C 356 167.597656 357.542969 171.675781 357.542969 175.746094 L 357.527344 175.746094 Z M 148.511719 84.214844 C 151.890625 87.691406 156.367188 89.492188 160.882812 89.589844 C 165.253906 89.683594 169.675781 88.164062 173.15625 85.023438 C 173.316406 84.886719 173.480469 84.742188 173.636719 84.578125 C 177.105469 81.199219 178.914062 76.71875 179.011719 72.207031 C 179.105469 67.835938 177.585938 63.421875 174.445312 59.933594 L 174 59.453125 C 170.621094 55.984375 166.140625 54.183594 161.628906 54.085938 C 157.257812 53.992188 152.84375 55.511719 149.355469 58.652344 C 149.191406 58.789062 149.03125 58.933594 148.875 59.109375 C 145.40625 62.488281 143.597656 66.957031 143.496094 71.480469 C 143.40625 75.847656 144.921875 80.261719 148.066406 83.75 C 148.203125 83.894531 148.347656 84.058594 148.511719 84.214844 Z M 157.03125 67.402344 L 157.25 67.199219 C 158.429688 66.175781 159.921875 65.675781 161.390625 65.703125 C 162.945312 65.738281 164.5 66.375 165.679688 67.601562 L 165.742188 67.691406 L 165.871094 67.820312 C 166.894531 69 167.394531 70.488281 167.367188 71.960938 C 167.332031 73.515625 166.695312 75.066406 165.46875 76.246094 L 165.253906 76.449219 C 164.070312 77.472656 162.582031 77.972656 161.109375 77.945312 C 159.558594 77.917969 158.003906 77.273438 156.824219 76.046875 L 156.621094 75.832031 C 155.585938 74.640625 155.097656 73.160156 155.125 71.679688 C 155.160156 70.136719 155.796875 68.582031 157.03125 67.402344 Z M 153.125 130.710938 L 212.882812 56.238281 C 214.902344 53.730469 218.570312 53.332031 221.070312 55.347656 C 223.574219 57.363281 223.976562 61.035156 221.957031 63.53125 L 162.199219 138.003906 C 160.183594 140.511719 156.515625 140.910156 154.015625 138.894531 C 151.507812 136.886719 151.109375 133.21875 153.125 130.710938 Z M 201.539062 109.601562 C 198.007812 112.988281 196.179688 117.496094 196.082031 122.054688 C 195.988281 126.433594 197.507812 130.847656 200.648438 134.328125 C 200.785156 134.488281 200.929688 134.652344 201.09375 134.808594 C 204.472656 138.277344 208.941406 140.085938 213.464844 140.183594 C 217.835938 140.277344 222.25 138.757812 225.738281 135.617188 C 225.910156 135.480469 226.074219 135.335938 226.21875 135.171875 C 229.699219 131.792969 231.496094 127.3125 231.597656 122.800781 C 231.695312 118.257812 230.050781 113.671875 226.664062 110.128906 C 223.277344 106.59375 218.769531 104.769531 214.210938 104.667969 C 209.667969 104.570312 205.082031 106.214844 201.539062 109.601562 Z M 219.960938 122.5625 C 219.933594 124.117188 219.289062 125.671875 218.0625 126.851562 L 217.84375 127.050781 C 216.652344 128.085938 215.171875 128.578125 213.691406 128.550781 C 212.140625 128.511719 210.585938 127.878906 209.40625 126.652344 L 209.207031 126.433594 C 208.171875 125.253906 207.679688 123.761719 207.707031 122.28125 C 207.734375 120.730469 208.378906 119.175781 209.605469 117.996094 C 210.824219 116.832031 212.402344 116.269531 213.964844 116.296875 C 215.519531 116.324219 217.082031 116.96875 218.253906 118.195312 C 219.425781 119.410156 219.988281 121 219.960938 122.5625 Z M 187.542969 177.945312 C 210.324219 177.945312 230.960938 168.707031 245.882812 153.773438 C 260.816406 138.839844 270.054688 118.210938 270.054688 95.433594 C 270.054688 72.652344 260.816406 52.015625 245.882812 37.089844 C 230.960938 22.15625 210.332031 12.917969 187.542969 12.917969 C 164.761719 12.917969 144.125 22.15625 129.199219 37.089844 C 114.269531 52.023438 105.03125 72.652344 105.03125 95.433594 C 105.03125 118.210938 114.269531 138.851562 129.199219 153.773438 C 144.132812 168.707031 164.761719 177.945312 187.542969 177.945312 Z M 137.457031 45.347656 C 150.273438 32.53125 167.984375 24.601562 187.542969 24.601562 C 207.109375 24.601562 224.820312 32.53125 237.628906 45.347656 C 250.445312 58.164062 258.375 75.875 258.375 95.433594 C 258.375 114.996094 250.445312 132.710938 237.628906 145.515625 C 224.8125 158.332031 207.097656 166.261719 187.542969 166.261719 C 167.984375 166.261719 150.273438 158.332031 137.457031 145.515625 C 124.640625 132.699219 116.710938 114.988281 116.710938 95.433594 C 116.710938 75.875 124.640625 58.164062 137.457031 45.347656 Z M 137.457031 45.347656 " fill-opacity="1" fill-rule="nonzero"/><path fill="#1b575f" d="M 369.179688 175.738281 C 369.179688 168.679688 366.5 161.621094 361.160156 156.269531 L 361.132812 156.246094 C 355.9375 151.046875 349.113281 148.378906 342.257812 148.234375 C 342.058594 146.433594 341.695312 144.664062 341.121094 142.929688 C 339.8125 138.914062 337.535156 135.179688 334.320312 131.964844 L 334.292969 131.964844 C 328.941406 126.613281 321.882812 123.945312 314.824219 123.945312 L 314.824219 123.917969 C 307.769531 123.917969 300.703125 126.605469 295.34375 131.964844 L 225.710938 201.597656 L 99.453125 201.707031 C 99.289062 201.679688 99.136719 201.660156 98.972656 201.652344 C 95.09375 201.378906 91.132812 201.941406 87.398438 203.332031 C 83.957031 204.613281 80.722656 206.59375 77.945312 209.28125 L 77.582031 209.617188 L 7.59375 279.621094 C 6.351562 280.867188 5.785156 282.546875 5.90625 284.171875 L 5.90625 355.765625 L 5.878906 356.285156 C 5.878906 359.507812 8.492188 362.125 11.71875 362.125 L 75.453125 362.105469 C 76.980469 362.105469 78.507812 361.507812 79.652344 360.316406 L 95.519531 343.8125 L 241.480469 307.070312 C 246.183594 305.609375 250.953125 302.867188 255.601562 299.378906 C 260.035156 296.054688 264.378906 292.066406 268.429688 287.898438 C 268.457031 287.871094 268.472656 287.84375 268.5 287.816406 C 268.675781 287.679688 268.847656 287.535156 269 287.371094 L 361.152344 195.21875 C 366.507812 189.859375 369.199219 182.785156 369.199219 175.738281 Z M 303.609375 140.230469 C 306.6875 137.152344 310.765625 135.605469 314.84375 135.605469 L 314.84375 135.578125 C 318.914062 135.578125 322.992188 137.125 326.078125 140.222656 C 327.988281 142.128906 329.324219 144.28125 330.058594 146.535156 C 330.46875 147.796875 330.703125 149.105469 330.757812 150.441406 C 327.640625 151.773438 324.726562 153.710938 322.191406 156.234375 L 255.332031 223.097656 C 254.167969 217.910156 251.550781 213.277344 247.917969 209.664062 C 245.585938 207.328125 242.832031 205.410156 239.796875 204.03125 Z M 357.527344 175.738281 C 357.527344 179.816406 355.980469 183.882812 352.902344 186.972656 L 260.753906 279.121094 C 260.664062 279.214844 260.582031 279.3125 260.5 279.414062 C 260.363281 279.53125 260.226562 279.660156 260.089844 279.785156 C 256.382812 283.601562 252.488281 287.199219 248.636719 290.085938 C 245.09375 292.738281 241.585938 294.808594 238.328125 295.863281 L 91.078125 332.914062 C 89.871094 333.214844 88.84375 333.875 88.082031 334.757812 L 72.992188 350.453125 L 17.53125 350.453125 L 17.53125 286.1875 L 86.082031 217.621094 C 87.671875 216.101562 89.507812 214.976562 91.449219 214.25 C 93.585938 213.460938 95.890625 213.140625 98.191406 213.296875 C 98.300781 213.304688 98.410156 213.296875 98.515625 213.304688 C 98.761719 213.332031 99 213.359375 99.253906 213.359375 L 228.445312 213.25 L 228.460938 213.277344 C 232.832031 213.277344 236.800781 215.058594 239.652344 217.917969 L 239.652344 217.945312 C 242.542969 220.835938 244.339844 224.804688 244.347656 229.144531 L 244.320312 229.164062 C 244.320312 233.523438 242.53125 237.492188 239.652344 240.375 C 236.773438 243.253906 232.804688 245.042969 228.445312 245.042969 L 138.519531 245.042969 C 135.296875 245.042969 132.679688 247.65625 132.679688 250.882812 C 132.679688 254.105469 135.296875 256.722656 138.519531 256.722656 L 228.445312 256.722656 C 236.027344 256.722656 242.921875 253.625 247.910156 248.628906 C 249.773438 246.769531 251.371094 244.640625 252.640625 242.308594 L 330.429688 164.519531 C 333.511719 161.441406 337.589844 159.894531 341.667969 159.894531 L 341.667969 159.867188 C 345.734375 159.867188 349.816406 161.414062 352.910156 164.5 C 356 167.597656 357.542969 171.675781 357.542969 175.746094 L 357.527344 175.746094 Z M 148.511719 84.214844 C 151.890625 87.691406 156.367188 89.492188 160.882812 89.589844 C 165.253906 89.683594 169.675781 88.164062 173.15625 85.023438 C 173.316406 84.886719 173.480469 84.742188 173.636719 84.578125 C 177.105469 81.199219 178.914062 76.71875 179.011719 72.207031 C 179.105469 67.835938 177.585938 63.421875 174.445312 59.933594 L 174 59.453125 C 170.621094 55.984375 166.140625 54.183594 161.628906 54.085938 C 157.257812 53.992188 152.84375 55.511719 149.355469 58.652344 C 149.191406 58.789062 149.03125 58.933594 148.875 59.109375 C 145.40625 62.488281 143.597656 66.957031 143.496094 71.480469 C 143.40625 75.847656 144.921875 80.261719 148.066406 83.75 C 148.203125 83.894531 148.347656 84.058594 148.511719 84.214844 Z M 157.03125 67.402344 L 157.25 67.199219 C 158.429688 66.175781 159.921875 65.675781 161.390625 65.703125 C 162.945312 65.738281 164.5 66.375 165.679688 67.601562 L 165.742188 67.691406 L 165.871094 67.820312 C 166.894531 69 167.394531 70.488281 167.367188 71.960938 C 167.332031 73.515625 166.695312 75.066406 165.46875 76.246094 L 165.253906 76.449219 C 164.070312 77.472656 162.582031 77.972656 161.109375 77.945312 C 159.558594 77.917969 158.003906 77.273438 156.824219 76.046875 L 156.621094 75.832031 C 155.585938 74.640625 155.097656 73.160156 155.125 71.679688 C 155.160156 70.136719 155.796875 68.582031 157.03125 67.402344 Z M 153.125 130.710938 L 212.882812 56.238281 C 214.902344 53.730469 218.570312 53.332031 221.070312 55.347656 C 223.574219 57.363281 223.976562 61.035156 221.957031 63.53125 L 162.199219 138.003906 C 160.183594 140.511719 156.515625 140.910156 154.015625 138.894531 C 151.507812 136.886719 151.109375 133.21875 153.125 130.710938 Z M 201.539062 109.601562 C 198.007812 112.988281 196.179688 117.496094 196.082031 122.054688 C 195.988281 126.433594 197.507812 130.847656 200.648438 134.328125 C 200.785156 134.488281 200.929688 134.652344 201.09375 134.808594 C 204.472656 138.277344 208.941406 140.085938 213.464844 140.183594 C 217.835938 140.277344 222.25 138.757812 225.738281 135.617188 C 225.910156 135.480469 226.074219 135.335938 226.21875 135.171875 C 229.699219 131.792969 231.496094 127.3125 231.597656 122.800781 C 231.695312 118.257812 230.050781 113.671875 226.664062 110.128906 C 223.277344 106.59375 218.769531 104.769531 214.210938 104.667969 C 209.667969 104.570312 205.082031 106.214844 201.539062 109.601562 Z M 219.960938 122.5625 C 219.933594 124.117188 219.289062 125.671875 218.0625 126.851562 L 217.84375 127.050781 C 216.652344 128.085938 215.171875 128.578125 213.691406 128.550781 C 212.140625 128.511719 210.585938 127.878906 209.40625 126.652344 L 209.207031 126.433594 C 208.171875 125.253906 207.679688 123.761719 207.707031 122.28125 C 207.734375 120.730469 208.378906 119.175781 209.605469 117.996094 C 210.824219 116.832031 212.402344 116.269531 213.964844 116.296875 C 215.519531 116.324219 217.082031 116.96875 218.253906 118.195312 C 219.425781 119.410156 219.988281 121 219.960938 122.5625 Z M 187.542969 177.945312 C 210.324219 177.945312 230.960938 168.707031 245.882812 153.773438 C 260.816406 138.839844 270.054688 118.210938 270.054688 95.433594 C 270.054688 72.652344 260.816406 52.015625 245.882812 37.089844 C 230.960938 22.15625 210.332031 12.917969 187.542969 12.917969 C 164.761719 12.917969 144.125 22.15625 129.199219 37.089844 C 114.269531 52.023438 105.03125 72.652344 105.03125 95.433594 C 105.03125 118.210938 114.269531 138.851562 129.199219 153.773438 C 144.132812 168.707031 164.761719 177.945312 187.542969 177.945312 Z M 137.457031 45.347656 C 150.273438 32.53125 167.984375 24.601562 187.542969 24.601562 C 207.109375 24.601562 224.820312 32.53125 237.628906 45.347656 C 250.445312 58.164062 258.375 75.875 258.375 95.433594 C 258.375 114.996094 250.445312 132.710938 237.628906 145.515625 C 224.8125 158.332031 207.097656 166.261719 187.542969 166.261719 C 167.984375 166.261719 150.273438 158.332031 137.457031 145.515625 C 124.640625 132.699219 116.710938 114.988281 116.710938 95.433594 C 116.710938 75.875 124.640625 58.164062 137.457031 45.347656 Z M 137.457031 45.347656 " fill-opacity="1" fill-rule="nonzero"/></g></svg>