<svg xmlns="http://www.w3.org/2000/svg" xmlns:xlink="http://www.w3.org/1999/xlink" width="500" zoomAndPan="magnify" viewBox="0 0 375 374.999991" height="500" preserveAspectRatio="xMidYMid meet" version="1.0"><metadata><ContainsAiGeneratedContent>Yes</ContainsAiGeneratedContent></metadata><defs><clipPath id="147cbdd27c"><path d="M 53 28.125 L 337 28.125 L 337 214 L 53 214 Z M 53 28.125 " clip-rule="nonzero"/></clipPath><clipPath id="6ddd02f88f"><path d="M 271.40625 109.6875 L 337 109.6875 L 337 214 L 271.40625 214 Z M 271.40625 109.6875 " clip-rule="nonzero"/></clipPath><clipPath id="1efd9096d0"><path d="M 274 114 L 344.90625 114 L 344.90625 367 L 274 367 Z M 274 114 " clip-rule="nonzero"/></clipPath></defs><path fill="#1b575f" d="M 38.398438 271.414062 C 41.820312 271.058594 45.382812 271.214844 48.820312 271.214844 L 78.761719 271.210938 C 95.015625 271.183594 94.066406 273.839844 93.96875 289.992188 L 93.964844 343.492188 C 93.96875 351.484375 96.949219 364.5625 86.132812 365.640625 C 80.121094 366.21875 38.308594 366.859375 35 364.695312 C 29.527344 361.117188 30.828125 354.113281 30.824219 348.496094 L 30.8125 297.6875 C 30.8125 288.796875 27.597656 273.542969 38.398438 271.414062 Z M 38.398438 271.414062 " fill-opacity="1" fill-rule="nonzero"/><g clip-path="url(#147cbdd27c)"><path fill="#1b575f" d="M 325.660156 28.617188 C 330.308594 28.148438 337.007812 29.296875 336.050781 35.421875 C 335.546875 38.644531 317.28125 75.257812 314.769531 79.753906 C 309.808594 88.632812 303.257812 78.421875 299.941406 73.957031 C 288.21875 83.472656 277.277344 94.03125 266.25 104.335938 L 225.414062 141.851562 C 210.578125 155.421875 212.292969 151.351562 193.433594 147.304688 C 179.9375 144.410156 164.351562 140.949219 150.753906 138.941406 C 147.347656 141.570312 143.980469 144.652344 140.765625 147.527344 L 84.996094 197.90625 C 78.507812 203.746094 70.289062 214.566406 61.3125 213.378906 C 56.375 212.011719 52.933594 206.964844 53.929688 201.84375 C 54.859375 197.070312 60.410156 193.359375 63.789062 190.28125 L 117.441406 141.730469 C 122.082031 137.597656 126.671875 133.421875 131.222656 129.191406 C 146.941406 114.570312 143.960938 117.1875 164.621094 121.082031 C 179.4375 123.875 194.183594 126.957031 208.96875 129.921875 C 213.902344 125.660156 218.441406 120.828125 223.308594 116.449219 C 245.03125 96.9375 266.507812 77.085938 287.75 57.054688 C 284.894531 54.082031 275.378906 42.492188 274.75 38.871094 C 273.472656 31.539062 289.820312 32.199219 293.878906 31.792969 Z M 325.660156 28.617188 " fill-opacity="1" fill-rule="nonzero"/></g><path fill="#1b575f" d="M 120.246094 227.546875 C 132.058594 227.046875 157.070312 226.3125 168.519531 227.71875 C 178.089844 228.894531 175.570312 242.484375 175.566406 249.050781 L 175.59375 347.820312 C 175.601562 355.042969 177.214844 364.261719 167.605469 365.707031 C 164.207031 366.105469 160.664062 365.917969 157.242188 365.917969 L 127.898438 365.929688 C 111.019531 366.074219 112.878906 362.511719 112.894531 345.839844 L 112.988281 259.386719 C 113.015625 249.902344 108.84375 229.730469 120.246094 227.546875 Z M 120.246094 227.546875 " fill-opacity="1" fill-rule="nonzero"/><path fill="#1b575f" d="M 200.921875 188.160156 C 214.050781 187.648438 236.359375 187.003906 249.320312 188.164062 C 259.460938 189.074219 256.738281 202.675781 256.734375 209.503906 L 256.738281 317.953125 C 256.738281 330.789062 257.117188 343.722656 256.734375 356.542969 C 256.597656 361.214844 254.925781 364.296875 250.074219 365.457031 C 246.257812 366.050781 242.375 365.914062 238.527344 365.917969 L 210.351562 365.945312 C 190.820312 365.96875 194.257812 360.503906 194.253906 343.917969 L 194.253906 236.464844 C 194.25 223.320312 193.902344 210.074219 194.285156 196.9375 C 194.421875 192.269531 196.230469 189.425781 200.921875 188.160156 Z M 200.921875 188.160156 " fill-opacity="1" fill-rule="nonzero"/><path fill="#1b575f" d="M 282.761719 114.886719 C 285.082031 114.523438 287.703125 114.738281 290.050781 114.734375 L 324.109375 114.730469 C 340.234375 114.71875 343.765625 112.714844 343.746094 130.542969 L 343.730469 338.539062 C 343.738281 348.394531 347.378906 364.136719 335.03125 365.875 C 324.796875 366.171875 314.484375 365.914062 304.242188 365.914062 C 296.835938 365.914062 278.351562 368.832031 275.757812 359.75 C 274.976562 357.011719 275.449219 345.09375 275.453125 341.386719 L 275.460938 141.535156 C 275.457031 132.644531 272.203125 117.4375 282.761719 114.886719 Z M 282.761719 114.886719 " fill-opacity="1" fill-rule="nonzero"/><g clip-path="url(#6ddd02f88f)"><path fill="#93e85f" d="M 325.660156 28.617188 C 330.308594 28.148438 337.007812 29.296875 336.050781 35.421875 C 335.546875 38.644531 317.28125 75.257812 314.769531 79.753906 C 309.808594 88.632812 303.257812 78.421875 299.941406 73.957031 C 288.21875 83.472656 277.277344 94.03125 266.25 104.335938 L 225.414062 141.851562 C 210.578125 155.421875 212.292969 151.351562 193.433594 147.304688 C 179.9375 144.410156 164.351562 140.949219 150.753906 138.941406 C 147.347656 141.570312 143.980469 144.652344 140.765625 147.527344 L 84.996094 197.90625 C 78.507812 203.746094 70.289062 214.566406 61.3125 213.378906 C 56.375 212.011719 52.933594 206.964844 53.929688 201.84375 C 54.859375 197.070312 60.410156 193.359375 63.789062 190.28125 L 117.441406 141.730469 C 122.082031 137.597656 126.671875 133.421875 131.222656 129.191406 C 146.941406 114.570312 143.960938 117.1875 164.621094 121.082031 C 179.4375 123.875 194.183594 126.957031 208.96875 129.921875 C 213.902344 125.660156 218.441406 120.828125 223.308594 116.449219 C 245.027344 96.9375 266.507812 77.085938 287.75 57.054688 C 284.894531 54.082031 275.378906 42.492188 274.75 38.871094 C 273.472656 31.539062 289.820312 32.199219 293.878906 31.792969 Z M 325.660156 28.617188 " fill-opacity="1" fill-rule="nonzero"/></g><g clip-path="url(#1efd9096d0)"><path fill="#93e85f" d="M 282.761719 114.886719 C 285.082031 114.523438 287.703125 114.738281 290.050781 114.734375 L 324.109375 114.730469 C 340.234375 114.71875 343.765625 112.714844 343.746094 130.542969 L 343.730469 338.539062 C 343.738281 348.394531 347.378906 364.136719 335.03125 365.875 C 324.796875 366.171875 314.484375 365.914062 304.242188 365.914062 C 296.835938 365.914062 278.351562 368.832031 275.757812 359.75 C 274.976562 357.011719 275.449219 345.09375 275.453125 341.386719 L 275.460938 141.535156 C 275.457031 132.644531 272.203125 117.4375 282.761719 114.886719 Z M 282.761719 114.886719 " fill-opacity="1" fill-rule="nonzero"/></g><path fill="#93e85f" d="M 120.246094 227.910156 C 132.058594 227.410156 157.070312 226.675781 168.519531 228.082031 C 178.089844 229.261719 175.570312 242.847656 175.566406 249.414062 L 175.59375 348.183594 C 175.601562 355.40625 177.214844 364.625 167.605469 366.070312 C 164.207031 366.46875 160.664062 366.28125 157.242188 366.28125 L 127.898438 366.292969 C 111.019531 366.4375 112.878906 362.875 112.894531 346.203125 L 112.988281 259.75 C 113.015625 250.265625 108.84375 230.09375 120.246094 227.910156 Z M 120.246094 227.910156 " fill-opacity="1" fill-rule="nonzero"/></svg>