<svg xmlns="http://www.w3.org/2000/svg" xmlns:xlink="http://www.w3.org/1999/xlink" width="500" zoomAndPan="magnify" viewBox="0 0 375 374.999991" height="500" preserveAspectRatio="xMidYMid meet" version="1.0"><metadata><ContainsAiGeneratedContent>Yes</ContainsAiGeneratedContent></metadata><defs><clipPath id="41cb80ca8e"><path d="M 217 9.070312 L 290 9.070312 L 290 82 L 217 82 Z M 217 9.070312 " clip-rule="nonzero"/></clipPath><clipPath id="a621a7fc60"><path d="M 15 208 L 148 208 L 148 374.320312 L 15 374.320312 Z M 15 208 " clip-rule="nonzero"/></clipPath><clipPath id="df22d66c4a"><path d="M 217 9.070312 L 290 9.070312 L 290 82 L 217 82 Z M 217 9.070312 " clip-rule="nonzero"/></clipPath><clipPath id="5de8bcc54d"><path d="M 214.539062 64 L 249 64 L 249 91.570312 L 214.539062 91.570312 Z M 214.539062 64 " clip-rule="nonzero"/></clipPath></defs><g clip-path="url(#41cb80ca8e)"><path fill="#1b575f" d="M 289.613281 45.214844 C 289.613281 46.398438 289.554688 47.582031 289.441406 48.757812 C 289.324219 49.9375 289.148438 51.105469 288.917969 52.269531 C 288.6875 53.429688 288.402344 54.578125 288.058594 55.710938 C 287.714844 56.84375 287.316406 57.957031 286.863281 59.050781 C 286.410156 60.144531 285.902344 61.210938 285.34375 62.257812 C 284.789062 63.300781 284.179688 64.316406 283.523438 65.300781 C 282.863281 66.285156 282.160156 67.234375 281.410156 68.148438 C 280.65625 69.0625 279.863281 69.941406 279.027344 70.777344 C 278.1875 71.613281 277.3125 72.40625 276.398438 73.160156 C 275.484375 73.910156 274.53125 74.613281 273.546875 75.273438 C 272.5625 75.929688 271.550781 76.539062 270.507812 77.097656 C 269.460938 77.652344 268.394531 78.160156 267.300781 78.613281 C 266.207031 79.066406 265.09375 79.464844 263.960938 79.808594 C 262.828125 80.152344 261.679688 80.4375 260.519531 80.667969 C 259.355469 80.902344 258.1875 81.074219 257.007812 81.191406 C 255.832031 81.304688 254.648438 81.363281 253.464844 81.363281 C 252.28125 81.363281 251.101562 81.304688 249.921875 81.191406 C 248.746094 81.074219 247.574219 80.902344 246.414062 80.667969 C 245.253906 80.4375 244.105469 80.152344 242.972656 79.808594 C 241.839844 79.464844 240.726562 79.066406 239.632812 78.613281 C 238.539062 78.160156 237.46875 77.652344 236.425781 77.097656 C 235.382812 76.539062 234.367188 75.929688 233.382812 75.273438 C 232.398438 74.613281 231.449219 73.910156 230.535156 73.160156 C 229.617188 72.40625 228.742188 71.613281 227.90625 70.777344 C 227.070312 69.941406 226.273438 69.0625 225.523438 68.148438 C 224.773438 67.234375 224.066406 66.285156 223.410156 65.300781 C 222.753906 64.316406 222.144531 63.300781 221.585938 62.257812 C 221.027344 61.210938 220.523438 60.144531 220.070312 59.050781 C 219.617188 57.957031 219.21875 56.84375 218.875 55.710938 C 218.53125 54.578125 218.242188 53.429688 218.011719 52.269531 C 217.78125 51.105469 217.609375 49.9375 217.492188 48.757812 C 217.375 47.582031 217.316406 46.398438 217.316406 45.214844 C 217.316406 44.03125 217.375 42.851562 217.492188 41.671875 C 217.609375 40.496094 217.78125 39.324219 218.011719 38.164062 C 218.242188 37.003906 218.53125 35.855469 218.875 34.722656 C 219.21875 33.589844 219.617188 32.476562 220.070312 31.382812 C 220.523438 30.289062 221.027344 29.21875 221.585938 28.175781 C 222.144531 27.132812 222.753906 26.117188 223.410156 25.132812 C 224.066406 24.148438 224.773438 23.199219 225.523438 22.285156 C 226.273438 21.371094 227.070312 20.492188 227.90625 19.65625 C 228.742188 18.820312 229.617188 18.023438 230.535156 17.273438 C 231.449219 16.523438 232.398438 15.816406 233.382812 15.160156 C 234.367188 14.503906 235.382812 13.894531 236.425781 13.335938 C 237.46875 12.777344 238.539062 12.273438 239.632812 11.820312 C 240.726562 11.367188 241.839844 10.96875 242.972656 10.625 C 244.105469 10.28125 245.253906 9.992188 246.414062 9.761719 C 247.574219 9.53125 248.746094 9.359375 249.921875 9.242188 C 251.101562 9.125 252.28125 9.070312 253.464844 9.070312 C 254.648438 9.070312 255.832031 9.125 257.007812 9.242188 C 258.1875 9.359375 259.355469 9.53125 260.519531 9.761719 C 261.679688 9.992188 262.828125 10.28125 263.960938 10.625 C 265.09375 10.96875 266.207031 11.367188 267.300781 11.820312 C 268.394531 12.273438 269.460938 12.777344 270.507812 13.335938 C 271.550781 13.894531 272.5625 14.503906 273.546875 15.160156 C 274.53125 15.816406 275.484375 16.523438 276.398438 17.273438 C 277.3125 18.023438 278.1875 18.820312 279.027344 19.65625 C 279.863281 20.492188 280.65625 21.371094 281.410156 22.285156 C 282.160156 23.199219 282.863281 24.148438 283.523438 25.132812 C 284.179688 26.117188 284.789062 27.132812 285.34375 28.175781 C 285.902344 29.21875 286.410156 30.289062 286.863281 31.382812 C 287.316406 32.476562 287.714844 33.589844 288.058594 34.722656 C 288.402344 35.855469 288.6875 37.003906 288.917969 38.164062 C 289.148438 39.324219 289.324219 40.496094 289.441406 41.671875 C 289.554688 42.851562 289.613281 44.03125 289.613281 45.214844 Z M 289.613281 45.214844 " fill-opacity="1" fill-rule="nonzero"/></g><path fill="#1b575f" d="M 356.425781 105.722656 C 351.96875 98.867188 342.785156 96.925781 335.929688 101.378906 L 277.640625 139.308594 L 247.640625 112.1875 C 246.703125 117.03125 244.898438 121.808594 242.222656 126.285156 L 234.089844 139.882812 L 266.214844 168.921875 C 269.027344 171.460938 272.566406 172.738281 276.15625 172.738281 C 278.941406 172.738281 281.753906 171.9375 284.222656 170.339844 L 352.0625 126.195312 C 358.9375 121.761719 360.882812 112.597656 356.425781 105.722656 Z M 356.425781 105.722656 " fill-opacity="1" fill-rule="nonzero"/><g clip-path="url(#a621a7fc60)"><path fill="#1b575f" d="M 133.964844 225.773438 C 126.8125 221.5 121.328125 215.488281 117.695312 208.636719 L 97.863281 271.105469 L 21.453125 343.835938 C 14.390625 350.554688 14.117188 361.703125 20.835938 368.765625 C 24.308594 372.398438 28.949219 374.25 33.609375 374.25 C 37.972656 374.25 42.335938 372.625 45.765625 369.382812 L 125.464844 293.542969 C 127.613281 291.488281 129.210938 288.929688 130.101562 286.117188 L 147.492188 231.347656 L 145.9375 230.753906 C 141.730469 229.65625 137.710938 228.011719 133.964844 225.773438 Z M 133.964844 225.773438 " fill-opacity="1" fill-rule="nonzero"/></g><path fill="#1b575f" d="M 238.386719 218.917969 L 186.769531 199.039062 L 233.542969 120.824219 C 242.222656 106.292969 237.496094 87.464844 222.960938 78.78125 C 220.128906 77.089844 217.136719 75.902344 214.074219 75.195312 C 212.472656 74.464844 210.738281 73.960938 208.886719 73.777344 L 118.8125 64.59375 C 115.890625 64.296875 112.917969 64.796875 110.246094 66.054688 L 45.652344 96.285156 C 37.492188 100.101562 33.972656 109.789062 37.789062 117.945312 C 40.554688 123.863281 46.425781 127.335938 52.550781 127.335938 C 54.859375 127.335938 57.210938 126.835938 59.453125 125.804688 L 119.957031 97.496094 L 172.832031 102.867188 L 130.238281 174.109375 C 121.554688 188.640625 126.285156 207.46875 140.816406 216.152344 C 143.699219 217.890625 146.757812 219.078125 149.890625 219.761719 L 207.515625 241.949219 L 157.75 315.023438 C 152.675781 322.472656 154.621094 332.59375 162.046875 337.667969 C 164.855469 339.585938 168.054688 340.5 171.207031 340.5 C 176.417969 340.5 181.535156 338.007812 184.6875 333.371094 L 246.015625 243.296875 C 248.828125 239.183594 249.582031 234.019531 248.097656 229.269531 C 246.609375 224.515625 243.046875 220.722656 238.386719 218.917969 Z M 238.386719 218.917969 " fill-opacity="1" fill-rule="nonzero"/><g clip-path="url(#df22d66c4a)"><path fill="#93e85f" d="M 289.613281 45.214844 C 289.613281 46.398438 289.554688 47.582031 289.441406 48.757812 C 289.324219 49.9375 289.148438 51.105469 288.917969 52.269531 C 288.6875 53.429688 288.402344 54.578125 288.058594 55.710938 C 287.714844 56.84375 287.316406 57.957031 286.863281 59.050781 C 286.410156 60.144531 285.902344 61.210938 285.34375 62.257812 C 284.789062 63.300781 284.179688 64.316406 283.523438 65.300781 C 282.863281 66.285156 282.160156 67.234375 281.410156 68.148438 C 280.65625 69.0625 279.863281 69.941406 279.027344 70.777344 C 278.1875 71.613281 277.3125 72.40625 276.398438 73.160156 C 275.484375 73.910156 274.53125 74.613281 273.546875 75.273438 C 272.5625 75.929688 271.550781 76.539062 270.507812 77.097656 C 269.460938 77.652344 268.394531 78.160156 267.300781 78.613281 C 266.207031 79.066406 265.09375 79.464844 263.960938 79.808594 C 262.828125 80.152344 261.679688 80.4375 260.519531 80.667969 C 259.355469 80.902344 258.1875 81.074219 257.007812 81.191406 C 255.832031 81.304688 254.648438 81.363281 253.464844 81.363281 C 252.28125 81.363281 251.101562 81.304688 249.921875 81.191406 C 248.746094 81.074219 247.574219 80.902344 246.414062 80.667969 C 245.253906 80.4375 244.105469 80.152344 242.972656 79.808594 C 241.839844 79.464844 240.726562 79.066406 239.632812 78.613281 C 238.539062 78.160156 237.46875 77.652344 236.425781 77.097656 C 235.382812 76.539062 234.367188 75.929688 233.382812 75.273438 C 232.398438 74.613281 231.449219 73.910156 230.535156 73.160156 C 229.617188 72.40625 228.742188 71.613281 227.90625 70.777344 C 227.070312 69.941406 226.273438 69.0625 225.523438 68.148438 C 224.773438 67.234375 224.066406 66.285156 223.410156 65.300781 C 222.753906 64.316406 222.144531 63.300781 221.585938 62.257812 C 221.027344 61.210938 220.523438 60.144531 220.070312 59.050781 C 219.617188 57.957031 219.21875 56.84375 218.875 55.710938 C 218.53125 54.578125 218.242188 53.429688 218.011719 52.269531 C 217.78125 51.105469 217.609375 49.9375 217.492188 48.757812 C 217.375 47.582031 217.316406 46.398438 217.316406 45.214844 C 217.316406 44.03125 217.375 42.851562 217.492188 41.671875 C 217.609375 40.496094 217.78125 39.324219 218.011719 38.164062 C 218.242188 37.003906 218.53125 35.855469 218.875 34.722656 C 219.21875 33.589844 219.617188 32.476562 220.070312 31.382812 C 220.523438 30.289062 221.027344 29.21875 221.585938 28.175781 C 222.144531 27.132812 222.753906 26.117188 223.410156 25.132812 C 224.066406 24.148438 224.773438 23.199219 225.523438 22.285156 C 226.273438 21.371094 227.070312 20.492188 227.90625 19.65625 C 228.742188 18.820312 229.617188 18.023438 230.535156 17.273438 C 231.449219 16.523438 232.398438 15.816406 233.382812 15.160156 C 234.367188 14.503906 235.382812 13.894531 236.425781 13.335938 C 237.46875 12.777344 238.539062 12.273438 239.632812 11.820312 C 240.726562 11.367188 241.839844 10.96875 242.972656 10.625 C 244.105469 10.28125 245.253906 9.992188 246.414062 9.761719 C 247.574219 9.53125 248.746094 9.359375 249.921875 9.242188 C 251.101562 9.125 252.28125 9.070312 253.464844 9.070312 C 254.648438 9.070312 255.832031 9.125 257.007812 9.242188 C 258.1875 9.359375 259.355469 9.53125 260.519531 9.761719 C 261.679688 9.992188 262.828125 10.28125 263.960938 10.625 C 265.09375 10.96875 266.207031 11.367188 267.300781 11.820312 C 268.394531 12.273438 269.460938 12.777344 270.507812 13.335938 C 271.550781 13.894531 272.5625 14.503906 273.546875 15.160156 C 274.53125 15.816406 275.484375 16.523438 276.398438 17.273438 C 277.3125 18.023438 278.1875 18.820312 279.027344 19.65625 C 279.863281 20.492188 280.65625 21.371094 281.410156 22.285156 C 282.160156 23.199219 282.863281 24.148438 283.523438 25.132812 C 284.179688 26.117188 284.789062 27.132812 285.34375 28.175781 C 285.902344 29.21875 286.410156 30.289062 286.863281 31.382812 C 287.316406 32.476562 287.714844 33.589844 288.058594 34.722656 C 288.402344 35.855469 288.6875 37.003906 288.917969 38.164062 C 289.148438 39.324219 289.324219 40.496094 289.441406 41.671875 C 289.554688 42.851562 289.613281 44.03125 289.613281 45.214844 Z M 289.613281 45.214844 " fill-opacity="1" fill-rule="nonzero"/></g><g clip-path="url(#5de8bcc54d)"><path fill="#93e85f" d="M 238.386719 218.917969 L 186.769531 199.039062 L 233.542969 120.824219 C 242.222656 106.292969 237.496094 87.464844 222.960938 78.78125 C 220.128906 77.089844 217.136719 75.902344 214.074219 75.195312 C 212.472656 74.464844 210.738281 73.960938 208.886719 73.777344 L 118.8125 64.59375 C 115.890625 64.296875 112.917969 64.796875 110.246094 66.054688 L 45.652344 96.285156 C 37.492188 100.101562 33.972656 109.789062 37.789062 117.945312 C 40.554688 123.863281 46.425781 127.335938 52.550781 127.335938 C 54.859375 127.335938 57.210938 126.835938 59.453125 125.804688 L 119.957031 97.496094 L 172.832031 102.867188 L 130.238281 174.109375 C 121.554688 188.640625 126.285156 207.46875 140.816406 216.152344 C 143.699219 217.890625 146.757812 219.078125 149.890625 219.761719 L 207.515625 241.949219 L 157.75 315.023438 C 152.675781 322.472656 154.621094 332.59375 162.046875 337.667969 C 164.855469 339.585938 168.054688 340.5 171.207031 340.5 C 176.417969 340.5 181.535156 338.007812 184.6875 333.371094 L 246.015625 243.296875 C 248.828125 239.183594 249.582031 234.019531 248.097656 229.269531 C 246.609375 224.515625 243.046875 220.722656 238.386719 218.917969 Z M 238.386719 218.917969 " fill-opacity="1" fill-rule="nonzero"/></g></svg>