<svg xmlns="http://www.w3.org/2000/svg" xmlns:xlink="http://www.w3.org/1999/xlink" width="500" zoomAndPan="magnify" viewBox="0 0 375 374.999991" height="500" preserveAspectRatio="xMidYMid meet" version="1.0"><metadata><ContainsAiGeneratedContent>Yes</ContainsAiGeneratedContent></metadata><defs><clipPath id="e89b3430dc"><path d="M 57.507812 52.933594 L 256.613281 52.933594 L 256.613281 252.039062 L 57.507812 252.039062 Z M 57.507812 52.933594 " clip-rule="nonzero"/></clipPath><clipPath id="816f572878"><path d="M 157.058594 52.933594 C 102.078125 52.933594 57.507812 97.503906 57.507812 152.488281 C 57.507812 207.46875 102.078125 252.039062 157.058594 252.039062 C 212.039062 252.039062 256.613281 207.46875 256.613281 152.488281 C 256.613281 97.503906 212.039062 52.933594 157.058594 52.933594 Z M 157.058594 52.933594 " clip-rule="nonzero"/></clipPath><clipPath id="024a67a380"><path d="M 0.507812 0.933594 L 199.613281 0.933594 L 199.613281 200.039062 L 0.507812 200.039062 Z M 0.507812 0.933594 " clip-rule="nonzero"/></clipPath><clipPath id="2f75c3805c"><path d="M 100.058594 0.933594 C 45.078125 0.933594 0.507812 45.503906 0.507812 100.488281 C 0.507812 155.46875 45.078125 200.039062 100.058594 200.039062 C 155.039062 200.039062 199.613281 155.46875 199.613281 100.488281 C 199.613281 45.503906 155.039062 0.933594 100.058594 0.933594 Z M 100.058594 0.933594 " clip-rule="nonzero"/></clipPath><clipPath id="a1c4d3b3ec"><rect x="0" width="200" y="0" height="201"/></clipPath><clipPath id="5e143d2d50"><path d="M 21.105469 16.972656 L 370.605469 16.972656 L 370.605469 361.222656 L 21.105469 361.222656 Z M 21.105469 16.972656 " clip-rule="nonzero"/></clipPath></defs><g clip-path="url(#e89b3430dc)"><g clip-path="url(#816f572878)"><g transform="matrix(1, 0, 0, 1, 57, 52)"><g clip-path="url(#a1c4d3b3ec)"><g clip-path="url(#024a67a380)"><g clip-path="url(#2f75c3805c)"><path fill="#93e85f" d="M 0.507812 0.933594 L 199.613281 0.933594 L 199.613281 200.039062 L 0.507812 200.039062 Z M 0.507812 0.933594 " fill-opacity="1" fill-rule="nonzero"/></g></g></g></g></g></g><path fill="#1b575f" d="M 342.722656 327.371094 C 342.722656 327.75 342.683594 328.121094 342.609375 328.492188 C 342.539062 328.859375 342.429688 329.21875 342.285156 329.566406 C 342.140625 329.914062 341.964844 330.246094 341.753906 330.558594 C 341.546875 330.871094 341.308594 331.160156 341.042969 331.425781 C 340.777344 331.691406 340.484375 331.929688 340.171875 332.140625 C 339.859375 332.347656 339.53125 332.523438 339.183594 332.667969 C 338.832031 332.8125 338.476562 332.921875 338.105469 332.996094 C 337.738281 333.070312 337.363281 333.105469 336.988281 333.105469 C 336.613281 333.105469 336.238281 333.070312 335.871094 332.996094 C 335.5 332.921875 335.140625 332.8125 334.792969 332.667969 C 334.445312 332.523438 334.117188 332.347656 333.804688 332.140625 C 333.488281 331.929688 333.199219 331.691406 332.933594 331.425781 C 332.667969 331.160156 332.429688 330.871094 332.222656 330.558594 C 332.011719 330.246094 331.835938 329.914062 331.691406 329.566406 C 331.546875 329.21875 331.4375 328.859375 331.363281 328.492188 C 331.292969 328.121094 331.253906 327.75 331.253906 327.371094 C 331.253906 326.996094 331.292969 326.625 331.363281 326.253906 C 331.4375 325.886719 331.546875 325.527344 331.691406 325.179688 C 331.835938 324.832031 332.011719 324.5 332.222656 324.1875 C 332.429688 323.875 332.667969 323.585938 332.933594 323.320312 C 333.199219 323.050781 333.488281 322.816406 333.800781 322.605469 C 334.117188 322.398438 334.445312 322.21875 334.792969 322.078125 C 335.140625 321.933594 335.5 321.824219 335.871094 321.75 C 336.238281 321.675781 336.613281 321.640625 336.988281 321.640625 C 337.363281 321.640625 337.738281 321.675781 338.105469 321.75 C 338.476562 321.824219 338.832031 321.933594 339.183594 322.078125 C 339.53125 322.21875 339.859375 322.398438 340.171875 322.605469 C 340.484375 322.816406 340.773438 323.054688 341.042969 323.320312 C 341.308594 323.585938 341.546875 323.875 341.753906 324.1875 C 341.964844 324.5 342.140625 324.832031 342.285156 325.179688 C 342.429688 325.527344 342.535156 325.886719 342.609375 326.253906 C 342.683594 326.625 342.722656 326.996094 342.722656 327.371094 Z M 342.722656 327.371094 " fill-opacity="1" fill-rule="nonzero"/><g clip-path="url(#5e143d2d50)"><path fill="#1b575f" d="M 156.261719 287.515625 C 187.929688 287.515625 217.140625 276.59375 240.074219 258.304688 L 278.292969 296.523438 L 276.382812 298.433594 C 274.472656 300.347656 274.199219 303.621094 276.109375 305.804688 L 318.96875 355.492188 C 321.972656 359.039062 326.339844 360.953125 330.980469 361.222656 C 331.253906 361.222656 331.253906 361.222656 331.527344 361.222656 C 335.894531 361.222656 339.992188 359.585938 343.265625 356.308594 L 365.652344 333.925781 C 368.929688 330.648438 370.566406 326.28125 370.566406 321.640625 C 370.292969 317 368.382812 312.632812 364.832031 309.628906 L 315.148438 266.496094 C 312.964844 264.582031 309.6875 264.855469 307.777344 266.765625 L 305.867188 268.679688 L 267.101562 229.640625 C 282.386719 207.800781 291.671875 181.046875 291.671875 152.109375 C 291.671875 77.578125 230.792969 16.972656 156.261719 16.972656 C 81.734375 16.972656 21.128906 77.578125 21.128906 152.382812 C 21.128906 227.183594 81.734375 287.515625 156.261719 287.515625 Z M 311.871094 278.234375 L 357.734375 317.816406 C 358.828125 318.910156 359.648438 320.273438 359.648438 321.914062 C 359.648438 323.550781 359.101562 324.914062 358.007812 326.007812 L 335.621094 348.394531 C 334.53125 349.484375 332.894531 350.03125 331.527344 350.03125 C 329.890625 350.03125 328.523438 349.210938 327.433594 348.121094 L 287.847656 302.257812 Z M 298.222656 276.59375 L 285.9375 288.878906 L 248.535156 251.207031 C 252.632812 247.382812 256.726562 243.015625 260.546875 238.648438 Z M 156.261719 27.894531 C 224.785156 27.894531 280.476562 83.585938 280.476562 152.382812 C 280.476562 220.902344 224.785156 276.867188 156.261719 276.867188 C 87.742188 276.867188 32.050781 220.902344 32.050781 152.382812 C 32.050781 83.585938 87.742188 27.894531 156.261719 27.894531 Z M 156.261719 27.894531 " fill-opacity="1" fill-rule="nonzero"/></g><path fill="#1b575f" d="M 156.261719 262.125 C 216.867188 262.125 266.007812 212.714844 266.007812 152.109375 C 266.007812 91.503906 216.867188 42.089844 156.261719 42.089844 C 95.65625 42.089844 46.519531 91.777344 46.519531 152.382812 C 46.519531 212.988281 95.65625 262.125 156.261719 262.125 Z M 156.261719 53.28125 C 210.863281 53.28125 255.089844 97.78125 255.089844 152.382812 C 255.089844 206.980469 210.589844 251.480469 156.261719 251.480469 C 101.9375 251.480469 57.4375 206.707031 57.4375 152.382812 C 57.4375 97.78125 101.9375 53.28125 156.261719 53.28125 Z M 156.261719 53.28125 " fill-opacity="1" fill-rule="nonzero"/><path fill="#1b575f" d="M 114.222656 139.003906 C 113.128906 154.292969 119.683594 169.035156 131.695312 178.589844 C 135.242188 181.320312 137.152344 185.414062 137.152344 189.507812 L 137.152344 197.972656 C 137.152344 203.160156 141.25 208.617188 146.980469 208.617188 L 171.550781 208.617188 C 177.285156 208.617188 181.105469 203.160156 181.105469 197.972656 L 181.105469 189.78125 C 181.105469 185.414062 183.289062 181.046875 186.839844 178.316406 C 197.757812 169.582031 204.039062 156.203125 204.039062 142.007812 C 204.039062 129.175781 198.578125 116.617188 189.296875 108.15625 C 180.015625 99.691406 168.273438 95.324219 155.71875 96.417969 C 133.605469 97.78125 115.859375 116.074219 114.222656 139.003906 Z M 125.140625 139.550781 C 126.234375 122.078125 139.882812 108.15625 156.808594 107.0625 C 166.089844 106.246094 175.101562 109.519531 181.925781 116.074219 C 189.023438 122.625 193.117188 132.179688 193.117188 142.007812 C 193.117188 152.925781 188.203125 163.027344 179.742188 169.851562 C 173.460938 174.765625 169.914062 182.136719 169.914062 189.78125 L 169.914062 197.699219 L 148.074219 197.699219 L 148.074219 189.234375 C 148.074219 181.59375 144.523438 174.492188 138.519531 169.851562 C 129.507812 162.753906 124.59375 151.289062 125.140625 139.550781 Z M 125.140625 139.550781 " fill-opacity="1" fill-rule="nonzero"/><path fill="#1b575f" d="M 170.460938 214.625 L 147.800781 214.625 C 144.796875 214.625 142.339844 217.082031 142.339844 220.085938 C 142.339844 223.085938 144.796875 225.542969 147.800781 225.542969 L 170.460938 225.542969 C 173.460938 225.542969 175.917969 223.085938 175.917969 220.085938 C 175.917969 217.082031 173.460938 214.625 170.460938 214.625 Z M 170.460938 214.625 " fill-opacity="1" fill-rule="nonzero"/><path fill="#1b575f" d="M 165 231.550781 L 153.804688 231.550781 C 150.804688 231.550781 148.347656 234.007812 148.347656 237.011719 C 148.347656 240.011719 150.804688 242.46875 153.804688 242.46875 L 165 242.46875 C 168.003906 242.46875 170.460938 240.011719 170.460938 237.011719 C 170.460938 234.007812 168.003906 231.550781 165 231.550781 Z M 165 231.550781 " fill-opacity="1" fill-rule="nonzero"/><path fill="#1b575f" d="M 159.265625 86.863281 C 162.269531 86.863281 164.726562 84.40625 164.726562 81.402344 L 164.726562 67.753906 C 164.726562 64.75 162.269531 62.292969 159.265625 62.292969 C 156.261719 62.292969 153.804688 64.75 153.804688 67.753906 L 153.804688 81.402344 C 153.804688 84.40625 156.261719 86.863281 159.265625 86.863281 Z M 159.265625 86.863281 " fill-opacity="1" fill-rule="nonzero"/><path fill="#1b575f" d="M 199.941406 103.242188 C 201.308594 103.242188 202.671875 102.695312 203.765625 101.605469 L 211.410156 93.960938 C 213.59375 91.777344 213.59375 88.226562 211.410156 86.316406 C 209.226562 84.132812 205.675781 84.132812 203.765625 86.316406 L 196.121094 93.960938 C 193.9375 96.144531 193.9375 99.691406 196.121094 101.605469 C 197.214844 102.695312 198.578125 103.242188 199.941406 103.242188 Z M 199.941406 103.242188 " fill-opacity="1" fill-rule="nonzero"/><path fill="#1b575f" d="M 210.863281 138.183594 C 210.863281 141.1875 213.320312 143.644531 216.324219 143.644531 L 226.96875 143.644531 C 229.972656 143.644531 232.429688 141.1875 232.429688 138.183594 C 232.429688 135.183594 229.972656 132.726562 226.96875 132.726562 L 216.324219 132.726562 C 213.320312 132.726562 210.863281 135.183594 210.863281 138.183594 Z M 210.863281 138.183594 " fill-opacity="1" fill-rule="nonzero"/><path fill="#1b575f" d="M 91.5625 143.644531 L 102.210938 143.644531 C 105.210938 143.644531 107.667969 141.1875 107.667969 138.183594 C 107.667969 135.183594 105.210938 132.726562 102.210938 132.726562 L 91.5625 132.726562 C 88.558594 132.726562 86.101562 135.183594 86.101562 138.183594 C 86.101562 141.1875 88.558594 143.644531 91.5625 143.644531 Z M 91.5625 143.644531 " fill-opacity="1" fill-rule="nonzero"/><path fill="#1b575f" d="M 114.222656 100.511719 C 115.3125 101.605469 116.679688 102.148438 118.042969 102.148438 C 119.410156 102.148438 120.773438 101.605469 121.867188 100.511719 C 124.050781 98.328125 124.050781 95.050781 121.867188 92.867188 L 114.496094 85.222656 C 112.3125 83.039062 109.035156 83.039062 106.851562 85.222656 C 104.667969 87.40625 104.667969 90.683594 106.851562 92.867188 Z M 114.222656 100.511719 " fill-opacity="1" fill-rule="nonzero"/></svg>