<svg xmlns="http://www.w3.org/2000/svg" xmlns:xlink="http://www.w3.org/1999/xlink" width="500" zoomAndPan="magnify" viewBox="0 0 375 374.999991" height="500" preserveAspectRatio="xMidYMid meet" version="1.0"><metadata><ContainsAiGeneratedContent>Yes</ContainsAiGeneratedContent></metadata><defs><clipPath id="26843d58c3"><path d="M 80.585938 3.445312 L 294.335938 3.445312 L 294.335938 212.695312 L 80.585938 212.695312 Z M 80.585938 3.445312 " clip-rule="nonzero"/></clipPath><clipPath id="73db7240ca"><path d="M 83.625 204.648438 L 291.375 204.648438 L 291.375 370.957031 L 83.625 370.957031 Z M 83.625 204.648438 " clip-rule="nonzero"/></clipPath></defs><g clip-path="url(#26843d58c3)"><path fill="#93e85f" d="M 273.636719 233.171875 C 273.53125 231.4375 273.339844 229.765625 273.089844 228.140625 C 272.671875 225.214844 271.210938 222.6875 269.105469 220.878906 C 267 219.042969 264.28125 217.976562 261.34375 217.976562 L 113.621094 217.976562 C 110.660156 217.976562 107.941406 219.042969 105.835938 220.878906 C 103.726562 222.695312 102.261719 225.222656 101.851562 228.140625 C 101.597656 229.765625 101.429688 231.4375 101.304688 233.171875 C 101.179688 234.902344 101.113281 236.59375 101.113281 238.246094 C 101.15625 238.246094 101.113281 297.433594 101.113281 302.824219 C 101.113281 308.355469 103.367188 313.367188 107 317.027344 C 110.628906 320.65625 115.660156 322.910156 121.199219 322.910156 L 121.425781 322.910156 C 123.246094 337.671875 130.03125 350.953125 140.070312 360.992188 C 151.847656 372.789062 168.132812 380.097656 186.023438 380.097656 L 188.878906 380.097656 C 206.792969 380.097656 223.054688 372.789062 234.855469 360.992188 C 244.878906 350.953125 251.6875 337.671875 253.484375 322.910156 L 253.734375 322.910156 C 259.265625 322.910156 264.296875 320.65625 267.933594 317.027344 C 271.566406 313.371094 273.820312 308.363281 273.820312 302.824219 C 273.820312 297.441406 273.773438 238.246094 273.820312 238.246094 C 273.820312 236.59375 273.761719 234.902344 273.636719 233.171875 Z M 120.949219 310.941406 C 118.820312 310.882812 116.875 309.984375 115.453125 308.5625 C 113.972656 307.082031 113.054688 305.058594 113.054688 302.816406 L 113.054688 284.839844 C 113.054688 282.605469 113.972656 280.582031 115.453125 279.09375 C 116.875 277.671875 118.8125 276.773438 120.949219 276.714844 Z M 242.023438 315.015625 C 242.023438 329.628906 236.027344 342.910156 226.40625 352.535156 C 216.78125 362.160156 203.5 368.148438 188.886719 368.148438 L 186.03125 368.148438 C 171.4375 368.148438 158.160156 362.15625 148.511719 352.535156 C 138.882812 342.910156 132.917969 329.628906 132.917969 315.015625 L 132.917969 274.550781 C 132.917969 271.066406 134.339844 267.914062 136.636719 265.613281 C 138.933594 263.316406 142.085938 261.894531 145.570312 261.894531 L 150.453125 261.894531 C 153.652344 261.894531 156.699219 261.453125 159.683594 260.5625 C 162.628906 259.664062 165.40625 258.332031 168.09375 256.511719 L 176.449219 250.9375 C 179.851562 248.660156 183.652344 247.511719 187.472656 247.511719 C 191.273438 247.511719 195.074219 248.660156 198.5 250.9375 L 206.832031 256.511719 C 209.539062 258.332031 212.304688 259.664062 215.242188 260.5625 C 218.226562 261.460938 221.273438 261.894531 224.492188 261.894531 L 229.355469 261.894531 C 232.839844 261.894531 236.011719 263.316406 238.308594 265.613281 C 240.585938 267.914062 242.03125 271.066406 242.03125 274.550781 L 242.03125 315.015625 Z M 261.878906 302.816406 C 261.878906 305.050781 260.960938 307.074219 259.480469 308.5625 C 258.058594 309.984375 256.121094 310.898438 253.96875 310.941406 L 253.96875 276.722656 C 256.121094 276.78125 258.066406 277.679688 259.480469 279.101562 C 260.960938 280.582031 261.878906 282.605469 261.878906 284.847656 Z M 293.324219 112.265625 L 273.636719 131.953125 C 272.839844 132.75 271.714844 132.976562 270.6875 132.535156 C 269.664062 132.117188 269.015625 131.15625 269.015625 130.054688 L 269.015625 122.828125 C 269.015625 121.324219 267.808594 120.117188 266.320312 120.117188 L 246.972656 120.117188 C 247.429688 116.964844 247.664062 113.710938 247.664062 110.367188 C 247.664062 107.042969 247.390625 103.765625 246.871094 100.589844 L 266.328125 100.589844 C 267.808594 100.589844 269.023438 99.382812 269.023438 97.894531 L 269.023438 90.667969 C 269.023438 89.542969 269.671875 88.601562 270.695312 88.1875 C 271.71875 87.746094 272.847656 87.980469 273.644531 88.769531 L 293.332031 108.457031 C 294.363281 109.503906 294.363281 111.21875 293.324219 112.265625 Z M 236.320312 47.683594 C 237.367188 46.640625 237.367188 44.929688 236.320312 43.863281 L 231.203125 38.765625 C 230.40625 37.96875 230.199219 36.84375 230.621094 35.820312 C 231.054688 34.796875 232 34.148438 233.101562 34.148438 L 260.953125 34.148438 C 262.433594 34.148438 263.648438 35.355469 263.648438 36.84375 L 263.648438 64.691406 C 263.648438 65.796875 263.023438 66.761719 261.976562 67.175781 C 260.953125 67.617188 259.824219 67.378906 259.050781 66.59375 L 253.933594 61.480469 C 252.886719 60.433594 251.179688 60.433594 250.109375 61.480469 L 236.367188 75.269531 C 232.542969 69.945312 227.867188 65.289062 222.5625 61.464844 Z M 165.273438 27.140625 C 164.855469 26.097656 165.082031 24.992188 165.855469 24.195312 L 185.542969 4.507812 C 186.613281 3.460938 188.320312 3.460938 189.367188 4.507812 L 209.054688 24.195312 C 209.851562 24.992188 210.054688 26.097656 209.636719 27.140625 C 209.195312 28.167969 208.257812 28.792969 207.15625 28.792969 L 199.90625 28.792969 C 198.425781 28.792969 197.210938 30 197.210938 31.488281 L 197.210938 50.96875 C 194.035156 50.445312 190.78125 50.175781 187.460938 50.175781 C 184.113281 50.175781 180.859375 50.445312 177.683594 50.96875 L 177.683594 31.480469 C 177.683594 30 176.476562 28.785156 174.988281 28.785156 L 167.765625 28.785156 C 166.652344 28.792969 165.707031 28.167969 165.273438 27.140625 Z M 111.261719 64.699219 L 111.261719 36.851562 C 111.261719 35.371094 112.472656 34.15625 113.957031 34.15625 L 141.808594 34.15625 C 142.914062 34.15625 143.878906 34.800781 144.289062 35.828125 C 144.710938 36.851562 144.496094 37.976562 143.707031 38.773438 L 138.589844 43.863281 C 137.542969 44.929688 137.542969 46.640625 138.589844 47.683594 L 152.371094 61.464844 C 147.042969 65.289062 142.367188 69.945312 138.542969 75.269531 L 124.785156 61.488281 C 123.738281 60.441406 122.03125 60.441406 120.964844 61.488281 L 115.84375 66.597656 C 115.070312 67.394531 113.945312 67.625 112.921875 67.179688 C 111.890625 66.769531 111.261719 65.804688 111.261719 64.699219 Z M 101.304688 131.953125 L 81.617188 112.265625 C 80.550781 111.21875 80.550781 109.511719 81.617188 108.464844 L 101.304688 88.753906 C 102.078125 87.980469 103.207031 87.753906 104.230469 88.1875 C 105.273438 88.609375 105.902344 89.542969 105.902344 90.667969 L 105.902344 97.894531 C 105.902344 99.375 107.109375 100.589844 108.597656 100.589844 L 128.054688 100.589844 C 127.554688 103.765625 127.28125 107.042969 127.28125 110.367188 C 127.28125 113.710938 127.488281 116.964844 127.953125 120.117188 L 108.597656 120.117188 C 107.117188 120.117188 105.902344 121.324219 105.902344 122.828125 L 105.902344 130.054688 C 105.902344 131.15625 105.273438 132.121094 104.230469 132.535156 C 103.199219 132.976562 102.070312 132.742188 101.304688 131.953125 Z M 139.214844 110.363281 C 139.214844 83.722656 160.804688 62.113281 187.464844 62.113281 C 214.109375 62.113281 235.695312 83.722656 235.695312 110.363281 C 235.695312 130.679688 226.28125 138.007812 216.757812 149.160156 C 215.589844 150.515625 214.585938 151.890625 213.710938 153.335938 C 212.890625 153.253906 212.058594 153.1875 211.226562 153.1875 L 203.523438 153.1875 L 203.523438 129.15625 L 206.050781 129.15625 C 210.035156 129.15625 213.652344 127.527344 216.28125 124.917969 C 218.886719 122.289062 220.515625 118.671875 220.515625 114.6875 C 220.515625 110.703125 218.886719 107.066406 216.28125 104.457031 C 213.652344 101.828125 210.035156 100.199219 206.050781 100.199219 C 202.066406 100.199219 198.449219 101.828125 195.820312 104.457031 C 193.210938 107.066406 191.582031 110.703125 191.582031 114.6875 L 191.582031 117.214844 L 183.355469 117.214844 L 183.355469 114.6875 C 183.355469 110.703125 181.730469 107.066406 179.097656 104.457031 C 176.492188 101.828125 172.851562 100.199219 168.867188 100.199219 C 164.882812 100.199219 161.265625 101.828125 158.636719 104.457031 C 156.03125 107.066406 154.402344 110.703125 154.402344 114.6875 C 154.402344 118.671875 156.03125 122.289062 158.636719 124.917969 C 161.265625 127.527344 164.882812 129.15625 168.867188 129.15625 L 171.394531 129.15625 L 171.394531 153.1875 L 163.691406 153.1875 C 162.859375 153.1875 162.019531 153.246094 161.207031 153.335938 C 160.332031 151.890625 159.332031 150.515625 158.179688 149.160156 C 148.636719 138.007812 139.214844 130.679688 139.214844 110.363281 Z M 206.050781 117.207031 L 203.523438 117.207031 L 203.523438 114.679688 C 203.523438 113.988281 203.816406 113.347656 204.273438 112.882812 C 204.730469 112.425781 205.355469 112.15625 206.050781 112.15625 C 206.742188 112.15625 207.367188 112.425781 207.824219 112.882812 C 208.28125 113.339844 208.574219 113.988281 208.574219 114.679688 C 208.574219 115.375 208.28125 116 207.824219 116.457031 C 207.367188 116.921875 206.734375 117.207031 206.050781 117.207031 Z M 170.660156 112.890625 C 171.113281 113.347656 171.386719 113.996094 171.386719 114.6875 L 171.386719 117.214844 L 168.859375 117.214844 C 168.167969 117.214844 167.542969 116.921875 167.085938 116.464844 C 166.628906 116.007812 166.335938 115.382812 166.335938 114.6875 C 166.335938 113.996094 166.628906 113.355469 167.085938 112.890625 C 167.542969 112.425781 168.167969 112.164062 168.859375 112.164062 C 169.554688 112.164062 170.179688 112.425781 170.660156 112.890625 Z M 191.578125 129.15625 L 191.578125 153.1875 L 183.347656 153.1875 L 183.347656 129.15625 Z M 165.523438 194.421875 L 209.394531 194.421875 C 209.039062 199.554688 204.738281 203.628906 199.515625 203.628906 L 175.402344 203.628906 C 170.179688 203.628906 165.878906 199.554688 165.523438 194.421875 Z M 211.226562 182.472656 L 163.691406 182.472656 C 158.933594 182.472656 155.027344 178.570312 155.027344 173.8125 C 155.027344 169.03125 158.933594 165.128906 163.691406 165.128906 L 211.226562 165.128906 C 215.984375 165.128906 219.890625 169.03125 219.890625 173.8125 C 219.890625 178.570312 215.984375 182.472656 211.226562 182.472656 Z M 211.226562 182.472656 " fill-opacity="1" fill-rule="evenodd"/></g><g clip-path="url(#73db7240ca)"><path fill="#1b575f" d="M 275.027344 225.21875 C 274.921875 223.5 274.734375 221.84375 274.484375 220.230469 C 274.070312 217.332031 272.621094 214.824219 270.535156 213.03125 C 268.445312 211.210938 265.75 210.152344 262.835938 210.152344 L 116.378906 210.152344 C 113.441406 210.152344 110.746094 211.210938 108.660156 213.03125 C 106.570312 214.832031 105.117188 217.339844 104.707031 220.230469 C 104.460938 221.84375 104.292969 223.5 104.167969 225.21875 C 104.042969 226.933594 103.980469 228.613281 103.980469 230.25 C 104.023438 230.25 103.980469 288.933594 103.980469 294.277344 C 103.980469 299.761719 106.214844 304.726562 109.8125 308.355469 C 113.414062 311.957031 118.402344 314.191406 123.890625 314.191406 L 124.117188 314.191406 C 125.921875 328.824219 132.648438 341.992188 142.601562 351.945312 C 154.277344 363.644531 170.425781 370.886719 188.160156 370.886719 L 190.996094 370.886719 C 208.753906 370.886719 224.878906 363.644531 236.578125 351.945312 C 246.515625 341.992188 253.265625 328.824219 255.046875 314.191406 L 255.292969 314.191406 C 260.777344 314.191406 265.765625 311.957031 269.375 308.355469 C 272.972656 304.734375 275.207031 299.769531 275.207031 294.277344 C 275.207031 288.9375 275.164062 230.25 275.207031 230.25 C 275.207031 228.613281 275.148438 226.933594 275.027344 225.21875 Z M 123.644531 302.324219 C 121.535156 302.265625 119.605469 301.375 118.195312 299.964844 C 116.730469 298.5 115.816406 296.488281 115.816406 294.269531 L 115.816406 276.445312 C 115.816406 274.230469 116.730469 272.222656 118.195312 270.75 C 119.605469 269.339844 121.527344 268.449219 123.644531 268.390625 Z M 243.683594 306.363281 C 243.683594 320.851562 237.738281 334.019531 228.203125 343.5625 C 218.65625 353.105469 205.492188 359.042969 191.003906 359.042969 L 188.167969 359.042969 C 173.703125 359.042969 160.535156 353.097656 150.96875 343.5625 C 141.425781 334.019531 135.511719 320.851562 135.511719 306.363281 L 135.511719 266.242188 C 135.511719 262.789062 136.921875 259.664062 139.199219 257.386719 C 141.476562 255.105469 144.601562 253.699219 148.054688 253.699219 L 152.898438 253.699219 C 156.066406 253.699219 159.089844 253.257812 162.046875 252.375 C 164.96875 251.484375 167.722656 250.164062 170.386719 248.359375 L 178.667969 242.832031 C 182.042969 240.574219 185.8125 239.433594 189.601562 239.433594 C 193.367188 239.433594 197.136719 240.574219 200.53125 242.832031 L 208.792969 248.359375 C 211.480469 250.164062 214.21875 251.484375 217.132812 252.375 C 220.089844 253.265625 223.113281 253.699219 226.304688 253.699219 L 231.121094 253.699219 C 234.578125 253.699219 237.722656 255.105469 240.003906 257.386719 C 242.257812 259.664062 243.691406 262.789062 243.691406 266.242188 L 243.691406 306.363281 Z M 263.371094 294.269531 C 263.371094 296.484375 262.457031 298.492188 260.988281 299.964844 C 259.582031 301.375 257.660156 302.28125 255.527344 302.324219 L 255.527344 268.398438 C 257.660156 268.457031 259.589844 269.347656 260.988281 270.757812 C 262.457031 272.222656 263.371094 274.230469 263.371094 276.453125 Z M 294.546875 105.347656 L 275.027344 124.867188 C 274.238281 125.65625 273.121094 125.882812 272.105469 125.441406 C 271.089844 125.027344 270.445312 124.078125 270.445312 122.980469 L 270.445312 115.820312 C 270.445312 114.328125 269.25 113.132812 267.773438 113.132812 L 248.589844 113.132812 C 249.042969 110.003906 249.277344 106.777344 249.277344 103.460938 C 249.277344 100.167969 249.007812 96.917969 248.488281 93.773438 L 267.78125 93.773438 C 269.25 93.773438 270.453125 92.574219 270.453125 91.097656 L 270.453125 83.9375 C 270.453125 82.816406 271.097656 81.882812 272.113281 81.476562 C 273.125 81.035156 274.246094 81.269531 275.03125 82.050781 L 294.550781 101.570312 C 295.574219 102.609375 295.574219 104.308594 294.546875 105.347656 Z M 238.03125 41.316406 C 239.066406 40.28125 239.066406 38.585938 238.03125 37.527344 L 232.957031 32.476562 C 232.167969 31.6875 231.960938 30.570312 232.378906 29.554688 C 232.808594 28.539062 233.746094 27.894531 234.839844 27.894531 L 262.449219 27.894531 C 263.917969 27.894531 265.125 29.09375 265.125 30.570312 L 265.125 58.179688 C 265.125 59.273438 264.503906 60.230469 263.464844 60.640625 C 262.449219 61.078125 261.332031 60.84375 260.566406 60.0625 L 255.492188 54.996094 C 254.453125 53.957031 252.761719 53.957031 251.703125 54.996094 L 238.074219 68.667969 C 234.285156 63.386719 229.648438 58.769531 224.390625 54.980469 Z M 167.589844 20.953125 C 167.175781 19.914062 167.402344 18.820312 168.167969 18.03125 L 187.6875 -1.488281 C 188.746094 -2.527344 190.441406 -2.527344 191.476562 -1.488281 L 210.996094 18.03125 C 211.785156 18.820312 211.988281 19.914062 211.574219 20.953125 C 211.136719 21.964844 210.207031 22.585938 209.113281 22.585938 L 201.925781 22.585938 C 200.460938 22.585938 199.253906 23.785156 199.253906 25.261719 L 199.253906 44.574219 C 196.105469 44.054688 192.878906 43.785156 189.585938 43.785156 C 186.269531 43.785156 183.042969 44.054688 179.894531 44.574219 L 179.894531 25.253906 C 179.894531 23.785156 178.699219 22.578125 177.222656 22.578125 L 170.058594 22.578125 C 168.957031 22.585938 168.023438 21.964844 167.589844 20.953125 Z M 114.042969 58.1875 L 114.042969 30.574219 C 114.042969 29.109375 115.238281 27.902344 116.714844 27.902344 L 144.324219 27.902344 C 145.421875 27.902344 146.378906 28.546875 146.785156 29.5625 C 147.203125 30.574219 146.992188 31.695312 146.210938 32.480469 L 141.132812 37.527344 C 140.097656 38.585938 140.097656 40.28125 141.132812 41.316406 L 154.796875 54.980469 C 149.515625 58.769531 144.878906 63.386719 141.089844 68.667969 L 127.449219 55.003906 C 126.410156 53.964844 124.71875 53.964844 123.660156 55.003906 L 118.582031 60.070312 C 117.816406 60.859375 116.699219 61.085938 115.683594 60.648438 C 114.664062 60.238281 114.042969 59.28125 114.042969 58.1875 Z M 104.167969 124.867188 L 84.648438 105.347656 C 83.589844 104.308594 83.589844 102.617188 84.648438 101.578125 L 104.167969 82.035156 C 104.933594 81.269531 106.050781 81.042969 107.066406 81.476562 C 108.105469 81.890625 108.726562 82.816406 108.726562 83.9375 L 108.726562 91.097656 C 108.726562 92.566406 109.921875 93.773438 111.398438 93.773438 L 130.691406 93.773438 C 130.195312 96.917969 129.925781 100.167969 129.925781 103.460938 C 129.925781 106.777344 130.128906 110.003906 130.589844 113.132812 L 111.398438 113.132812 C 109.929688 113.132812 108.726562 114.328125 108.726562 115.820312 L 108.726562 122.980469 C 108.726562 124.078125 108.105469 125.035156 107.066406 125.441406 C 106.046875 125.882812 104.929688 125.648438 104.167969 124.867188 Z M 141.753906 103.460938 C 141.753906 77.050781 163.15625 55.625 189.59375 55.625 C 216.007812 55.625 237.410156 77.050781 237.410156 103.460938 C 237.410156 123.601562 228.078125 130.867188 218.636719 141.925781 C 217.472656 143.269531 216.480469 144.632812 215.613281 146.066406 C 214.800781 145.984375 213.976562 145.917969 213.152344 145.917969 L 205.511719 145.917969 L 205.511719 122.089844 L 208.019531 122.089844 C 211.96875 122.089844 215.554688 120.476562 218.160156 117.890625 C 220.746094 115.285156 222.359375 111.699219 222.359375 107.75 C 222.359375 103.796875 220.746094 100.191406 218.160156 97.605469 C 215.554688 95 211.96875 93.386719 208.019531 93.386719 C 204.066406 93.386719 200.480469 95 197.875 97.605469 C 195.289062 100.191406 193.675781 103.796875 193.675781 107.75 L 193.675781 110.253906 L 185.519531 110.253906 L 185.519531 107.75 C 185.519531 103.796875 183.90625 100.191406 181.296875 97.605469 C 178.710938 95 175.105469 93.386719 171.15625 93.386719 C 167.203125 93.386719 163.617188 95 161.011719 97.605469 C 158.425781 100.191406 156.8125 103.796875 156.8125 107.75 C 156.8125 111.699219 158.425781 115.285156 161.011719 117.890625 C 163.617188 120.476562 167.203125 122.089844 171.15625 122.089844 L 173.660156 122.089844 L 173.660156 145.917969 L 166.019531 145.917969 C 165.195312 145.917969 164.363281 145.976562 163.558594 146.066406 C 162.691406 144.632812 161.699219 143.269531 160.558594 141.925781 C 151.09375 130.867188 141.753906 123.601562 141.753906 103.460938 Z M 208.019531 110.246094 L 205.511719 110.246094 L 205.511719 107.742188 C 205.511719 107.054688 205.804688 106.421875 206.257812 105.960938 C 206.710938 105.507812 207.332031 105.238281 208.019531 105.238281 C 208.703125 105.238281 209.324219 105.507812 209.777344 105.960938 C 210.230469 106.414062 210.523438 107.054688 210.523438 107.742188 C 210.523438 108.429688 210.230469 109.050781 209.777344 109.5 C 209.324219 109.960938 208.695312 110.246094 208.019531 110.246094 Z M 172.929688 105.96875 C 173.382812 106.421875 173.652344 107.0625 173.652344 107.75 L 173.652344 110.253906 L 171.148438 110.253906 C 170.460938 110.253906 169.839844 109.960938 169.386719 109.507812 C 168.933594 109.054688 168.640625 108.4375 168.640625 107.75 C 168.640625 107.0625 168.933594 106.425781 169.386719 105.96875 C 169.839844 105.507812 170.460938 105.246094 171.148438 105.246094 C 171.832031 105.246094 172.453125 105.507812 172.929688 105.96875 Z M 193.667969 122.089844 L 193.667969 145.917969 L 185.511719 145.917969 L 185.511719 122.089844 Z M 167.839844 186.800781 L 211.332031 186.800781 C 210.980469 191.890625 206.71875 195.925781 201.539062 195.925781 L 177.632812 195.925781 C 172.453125 195.925781 168.191406 191.890625 167.839844 186.800781 Z M 213.152344 174.953125 L 166.019531 174.953125 C 161.304688 174.953125 157.433594 171.082031 157.433594 166.367188 C 157.433594 161.628906 161.304688 157.757812 166.019531 157.757812 L 213.152344 157.757812 C 217.867188 157.757812 221.738281 161.628906 221.738281 166.367188 C 221.738281 171.082031 217.867188 174.953125 213.152344 174.953125 Z M 213.152344 174.953125 " fill-opacity="1" fill-rule="evenodd"/></g></svg>