<svg xmlns="http://www.w3.org/2000/svg" xmlns:xlink="http://www.w3.org/1999/xlink" width="500" zoomAndPan="magnify" viewBox="0 0 375 374.999991" height="500" preserveAspectRatio="xMidYMid meet" version="1.0"><metadata><ContainsAiGeneratedContent>Yes</ContainsAiGeneratedContent></metadata><defs><clipPath id="a426c59502"><path d="M 104 137 L 272 137 L 272 361.429688 L 104 361.429688 Z M 104 137 " clip-rule="nonzero"/></clipPath><clipPath id="26a66c296a"><path d="M 98.785156 134.179688 L 117 134.179688 L 117 155 L 98.785156 155 Z M 98.785156 134.179688 " clip-rule="nonzero"/></clipPath><clipPath id="df54c780c3"><path d="M 261 134.179688 L 276.535156 134.179688 L 276.535156 155 L 261 155 Z M 261 134.179688 " clip-rule="nonzero"/></clipPath><clipPath id="9af9156973"><path d="M 45 89 L 123 89 L 123 171 L 45 171 Z M 45 89 " clip-rule="nonzero"/></clipPath><clipPath id="b40183ee83"><path d="M 16.433594 143.574219 L 55.40625 71.710938 L 153.640625 124.984375 L 114.667969 196.847656 Z M 16.433594 143.574219 " clip-rule="nonzero"/></clipPath><clipPath id="aad1337fce"><path d="M -58.421875 281.605469 L 134.292969 -73.753906 L 408.558594 74.984375 L 215.84375 430.34375 Z M -58.421875 281.605469 " clip-rule="nonzero"/></clipPath><clipPath id="eb4886f48a"><path d="M 138 18 L 202 18 L 202 130 L 138 130 Z M 138 18 " clip-rule="nonzero"/></clipPath><clipPath id="043e22bb25"><path d="M 113.035156 34.644531 L 191.8125 12.804688 L 221.667969 120.492188 L 142.890625 142.332031 Z M 113.035156 34.644531 " clip-rule="nonzero"/></clipPath><clipPath id="e694292a0e"><path d="M -38.28125 76.597656 L 351.273438 -31.40625 L 434.628906 269.253906 L 45.074219 377.257812 Z M -38.28125 76.597656 " clip-rule="nonzero"/></clipPath><clipPath id="e81972b8a6"><path d="M 243 53.089844 L 309 53.089844 L 309 159 L 243 159 Z M 243 53.089844 " clip-rule="nonzero"/></clipPath><clipPath id="bdf1fe5be0"><path d="M 294 159 L 370 159 L 370 242 L 294 242 Z M 294 159 " clip-rule="nonzero"/></clipPath><clipPath id="57f8753a4a"><path d="M 313.304688 134.179688 L 387.765625 167.925781 L 341.636719 269.710938 L 267.175781 235.964844 Z M 313.304688 134.179688 " clip-rule="nonzero"/></clipPath><clipPath id="b294279fa9"><path d="M 170.28125 69.367188 L 538.488281 236.230469 L 409.703125 520.410156 L 41.496094 353.546875 Z M 170.28125 69.367188 " clip-rule="nonzero"/></clipPath><clipPath id="830369d2b4"><path d="M 2 172 L 86 172 L 86 247 L 2 247 Z M 2 172 " clip-rule="nonzero"/></clipPath><clipPath id="f489e91ad5"><path d="M -22.484375 228.75 L 10.683594 154.03125 L 112.824219 199.371094 L 79.652344 274.089844 Z M -22.484375 228.75 " clip-rule="nonzero"/></clipPath><clipPath id="57ef656d66"><path d="M -86.195312 372.265625 L 77.824219 2.789062 L 362.988281 129.378906 L 198.964844 498.859375 Z M -86.195312 372.265625 " clip-rule="nonzero"/></clipPath></defs><g clip-path="url(#a426c59502)"><path fill="#1b575f" d="M 143.929688 313.027344 L 144.847656 361.613281 L 229.457031 361.613281 L 228.597656 316.242188 C 257.90625 285.546875 261.417969 246.007812 261.417969 246.007812 L 260.960938 246.550781 L 261.007812 246.371094 L 261.417969 246.007812 L 261.28125 245.363281 L 270.910156 209.507812 C 272.476562 205.464844 270.863281 200.765625 266.90625 198.648438 L 257.597656 193.667969 C 254.867188 192.203125 251.714844 192.492188 249.3125 194.0625 C 246.773438 192.578125 245.019531 189.984375 244.773438 187.050781 C 244.550781 184.386719 243.015625 181.894531 240.503906 180.550781 L 232.859375 176.457031 C 229.546875 174.683594 225.628906 175.46875 223.1875 177.996094 L 223.175781 177.988281 L 217.804688 174.335938 C 219.347656 170.488281 217.746094 166.097656 214.09375 164.140625 L 202.203125 157.777344 C 199.195312 156.167969 195.722656 156.6875 193.28125 158.648438 L 193.230469 158.617188 L 187.097656 155.019531 L 187.089844 155.023438 C 187.617188 151.65625 185.988281 148.25 182.898438 146.59375 L 169.148438 139.230469 C 163.328125 136.117188 156.105469 138.9375 153.9375 145.171875 L 144.382812 174.144531 L 138.523438 187.140625 L 137.394531 186.78125 C 131.199219 184.804688 124.53125 187.972656 122.148438 194.027344 L 106.566406 233.667969 C 103.71875 240.902344 104.449219 249.054688 108.53125 255.671875 Z M 143.929688 313.027344 " fill-opacity="1" fill-rule="nonzero"/></g><g clip-path="url(#26a66c296a)"><path fill="#1b575f" d="M 83.972656 76.144531 L 59.996094 106.707031 L 20.675781 67.046875 L 53.003906 144.914062 L 76.980469 114.351562 L 116.300781 154.011719 Z M 83.972656 76.144531 " fill-opacity="1" fill-rule="nonzero"/></g><g clip-path="url(#df54c780c3)"><path fill="#1b575f" d="M 294.039062 76.144531 L 318.015625 106.707031 L 357.335938 67.046875 L 325.007812 144.914062 L 301.03125 114.351562 L 261.710938 154.011719 Z M 294.039062 76.144531 " fill-opacity="1" fill-rule="nonzero"/></g><g clip-path="url(#9af9156973)"><g clip-path="url(#b40183ee83)"><g clip-path="url(#aad1337fce)"><path fill="#95ea62" d="M 99.671875 101.148438 L 77.136719 125.875 L 45.875 89.308594 L 68.703125 158.253906 L 91.238281 133.523438 L 122.5 170.089844 Z M 99.671875 101.148438 " fill-opacity="1" fill-rule="nonzero"/></g></g></g><g clip-path="url(#eb4886f48a)"><g clip-path="url(#043e22bb25)"><g clip-path="url(#e694292a0e)"><path fill="#95ea62" d="M 201.359375 65.101562 L 167.914062 66.050781 L 172.53125 18.164062 L 138.753906 82.457031 L 172.199219 81.507812 L 167.582031 129.394531 Z M 201.359375 65.101562 " fill-opacity="1" fill-rule="nonzero"/></g></g></g><g clip-path="url(#e81972b8a6)"><path fill="#95ea62" d="M 308.664062 106.035156 L 276.183594 98.015625 L 293.425781 53.105469 L 243.699219 106.035156 L 276.183594 114.058594 L 258.941406 158.96875 Z M 308.664062 106.035156 " fill-opacity="1" fill-rule="nonzero"/></g><g clip-path="url(#bdf1fe5be0)"><g clip-path="url(#57f8753a4a)"><g clip-path="url(#b294279fa9)"><path fill="#95ea62" d="M 361.5625 214.179688 L 335.289062 193.464844 L 369.53125 159.675781 L 302.390625 187.363281 L 328.667969 208.078125 L 294.425781 241.867188 Z M 361.5625 214.179688 " fill-opacity="1" fill-rule="nonzero"/></g></g></g><g clip-path="url(#830369d2b4)"><g clip-path="url(#f489e91ad5)"><g clip-path="url(#57ef656d66)"><path fill="#95ea62" d="M 57.136719 179.875 L 36.628906 206.308594 L 2.574219 172.328125 L 30.78125 239.253906 L 51.289062 212.820312 L 85.34375 246.800781 Z M 57.136719 179.875 " fill-opacity="1" fill-rule="nonzero"/></g></g></g></svg>