<svg xmlns="http://www.w3.org/2000/svg" xmlns:xlink="http://www.w3.org/1999/xlink" width="500" zoomAndPan="magnify" viewBox="0 0 375 374.999991" height="500" preserveAspectRatio="xMidYMid meet" version="1.0"><metadata><ContainsAiGeneratedContent>Yes</ContainsAiGeneratedContent></metadata><defs><clipPath id="9ef4b6f9a6"><path d="M 7.242188 68.679688 L 367.992188 68.679688 L 367.992188 305 L 7.242188 305 Z M 7.242188 68.679688 " clip-rule="nonzero"/></clipPath><clipPath id="3747d04daf"><path d="M 0.242188 2 L 360.921875 2 L 360.921875 236.800781 L 0.242188 236.800781 Z M 0.242188 2 " clip-rule="nonzero"/></clipPath><clipPath id="068430558e"><rect x="0" width="361" y="0" height="237"/></clipPath><clipPath id="a9601d152f"><path d="M 328.578125 68.671875 L 368.507812 68.671875 L 368.507812 162.582031 L 328.578125 162.582031 Z M 328.578125 68.671875 " clip-rule="nonzero"/></clipPath><clipPath id="a3b49d2448"><path d="M 0.578125 0.671875 L 40.507812 0.671875 L 40.507812 94.582031 L 0.578125 94.582031 Z M 0.578125 0.671875 " clip-rule="nonzero"/></clipPath><clipPath id="4d2c2f66a7"><rect x="0" width="41" y="0" height="95"/></clipPath><clipPath id="94b5a0478f"><path d="M 273.464844 68.683594 L 363.582031 68.683594 L 363.582031 109.113281 L 273.464844 109.113281 Z M 273.464844 68.683594 " clip-rule="nonzero"/></clipPath><clipPath id="648f073d72"><path d="M 0.464844 0.683594 L 90.582031 0.683594 L 90.582031 41.113281 L 0.464844 41.113281 Z M 0.464844 0.683594 " clip-rule="nonzero"/></clipPath><clipPath id="15289f8e9c"><rect x="0" width="91" y="0" height="42"/></clipPath></defs><g clip-path="url(#9ef4b6f9a6)"><g transform="matrix(1, 0, 0, 1, 7, 68)"><g clip-path="url(#068430558e)"><g clip-path="url(#3747d04daf)"><path fill="#1b575f" d="M 324.6875 92.445312 L 324.6875 63.605469 L 171.472656 216.820312 L 108.390625 153.734375 L 25.496094 236.664062 L 0.242188 211.410156 L 108.390625 103.261719 L 171.472656 166.347656 L 299.464844 38.386719 L 270.628906 38.386719 L 270.628906 2.316406 L 360.757812 2.316406 L 360.757812 92.445312 L 324.6875 92.445312 " fill-opacity="1" fill-rule="nonzero"/></g></g></g></g><g clip-path="url(#a9601d152f)"><g transform="matrix(1, 0, 0, 1, 328, 68)"><g clip-path="url(#4d2c2f66a7)"><g clip-path="url(#a3b49d2448)"><path fill="#93e85f" d="M 0.578125 94.582031 L 0.578125 0.6875 L 40.507812 0.6875 L 40.507812 94.582031 Z M 0.578125 94.582031 " fill-opacity="1" fill-rule="nonzero"/></g></g></g></g><g clip-path="url(#94b5a0478f)"><g transform="matrix(1, 0, 0, 1, 273, 68)"><g clip-path="url(#15289f8e9c)"><g clip-path="url(#648f073d72)"><path fill="#93e85f" d="M 0.464844 0.683594 L 90.640625 0.683594 L 90.640625 41.113281 L 0.464844 41.113281 Z M 0.464844 0.683594 " fill-opacity="1" fill-rule="nonzero"/></g></g></g></g></svg>