<svg xmlns="http://www.w3.org/2000/svg" xmlns:xlink="http://www.w3.org/1999/xlink" width="500" zoomAndPan="magnify" viewBox="0 0 375 374.999991" height="500" preserveAspectRatio="xMidYMid meet" version="1.0"><metadata><ContainsAiGeneratedContent>Yes</ContainsAiGeneratedContent></metadata><defs><clipPath id="19eeb0d032"><path d="M 155.964844 109.886719 L 282.457031 109.886719 L 282.457031 322.664062 L 155.964844 322.664062 Z M 155.964844 109.886719 " clip-rule="nonzero"/></clipPath><clipPath id="6436d70890"><path d="M 0.964844 0.886719 L 127.457031 0.886719 L 127.457031 213.664062 L 0.964844 213.664062 Z M 0.964844 0.886719 " clip-rule="nonzero"/></clipPath><clipPath id="5175d87b95"><rect x="0" width="128" y="0" height="214"/></clipPath><clipPath id="db70e2060a"><path d="M 152 4.78125 L 286 4.78125 L 286 74 L 152 74 Z M 152 4.78125 " clip-rule="nonzero"/></clipPath><clipPath id="9ca408baa6"><path d="M 74 86 L 366 86 L 366 361.679688 L 74 361.679688 Z M 74 86 " clip-rule="nonzero"/></clipPath><clipPath id="00a48e9f97"><path d="M 0.964844 325 L 127 325 L 127 361.679688 L 0.964844 361.679688 Z M 0.964844 325 " clip-rule="nonzero"/></clipPath><clipPath id="bb28bb18c9"><path d="M 0.964844 276 L 127 276 L 127 313 L 0.964844 313 Z M 0.964844 276 " clip-rule="nonzero"/></clipPath><clipPath id="5c50601e04"><rect x="0" width="372" y="0" height="366"/></clipPath></defs><g transform="matrix(1, 0, 0, 1, 3, 4)"><g clip-path="url(#5c50601e04)"><g clip-path="url(#19eeb0d032)"><g transform="matrix(1, 0, 0, 1, 155, 109)"><g clip-path="url(#5175d87b95)"><g clip-path="url(#6436d70890)"><path fill="#93e85f" d="M 0.964844 0.886719 L 127.457031 0.886719 L 127.457031 213.847656 L 0.964844 213.847656 Z M 0.964844 0.886719 " fill-opacity="1" fill-rule="nonzero"/></g></g></g></g><g clip-path="url(#db70e2060a)"><path fill="#1b575f" d="M 262.457031 73.089844 L 285.875 6.675781 L 241.640625 32.695312 L 222.128906 6.675781 C 221.878906 6.15625 221.511719 5.742188 221.023438 5.4375 C 220.535156 5.128906 220.003906 4.976562 219.425781 4.976562 C 218.851562 4.976562 218.320312 5.128906 217.832031 5.4375 C 217.34375 5.742188 216.976562 6.15625 216.726562 6.675781 L 197.214844 32.695312 L 152.980469 6.675781 L 176.59375 73.089844 Z M 262.457031 73.089844 " fill-opacity="1" fill-rule="nonzero"/></g><g clip-path="url(#9ca408baa6)"><path fill="#1b575f" d="M 363.542969 255.808594 C 338.628906 129.421875 275.011719 92.019531 265.578125 86.683594 L 173.472656 86.683594 C 164.105469 91.695312 100.359375 130.007812 75.507812 255.808594 C 75.054688 258.410156 74.597656 261.011719 74.339844 263.484375 L 126.375 263.484375 C 127.230469 263.484375 128.078125 263.570312 128.914062 263.734375 C 129.753906 263.902344 130.566406 264.148438 131.355469 264.476562 C 132.144531 264.800781 132.894531 265.203125 133.605469 265.679688 C 134.316406 266.152344 134.972656 266.691406 135.574219 267.296875 C 136.179688 267.898438 136.71875 268.558594 137.195312 269.265625 C 137.667969 269.976562 138.070312 270.726562 138.394531 271.515625 C 138.722656 272.304688 138.96875 273.121094 139.136719 273.957031 C 139.304688 274.792969 139.386719 275.640625 139.386719 276.496094 L 139.386719 312.269531 C 139.382812 314.597656 138.796875 316.765625 137.628906 318.777344 C 138.796875 320.789062 139.382812 322.957031 139.386719 325.28125 L 139.386719 358.714844 C 146.058594 360.460938 152.847656 361.332031 159.746094 361.316406 L 279.175781 361.316406 C 281.160156 361.304688 283.140625 361.222656 285.121094 361.074219 C 287.101562 360.925781 289.074219 360.707031 291.039062 360.417969 C 293 360.132812 294.953125 359.777344 296.894531 359.355469 C 298.832031 358.933594 300.757812 358.445312 302.664062 357.890625 C 304.566406 357.332031 306.453125 356.710938 308.316406 356.027344 C 310.179688 355.339844 312.015625 354.589844 313.824219 353.773438 C 315.636719 352.960938 317.417969 352.085938 319.164062 351.148438 C 320.914062 350.210938 322.632812 349.210938 324.3125 348.15625 C 325.992188 347.097656 327.632812 345.984375 329.238281 344.816406 C 330.839844 343.644531 332.402344 342.417969 333.921875 341.140625 C 335.4375 339.863281 336.910156 338.53125 338.335938 337.152344 C 339.761719 335.769531 341.140625 334.339844 342.464844 332.863281 C 343.792969 331.386719 345.066406 329.867188 346.289062 328.300781 C 347.507812 326.734375 348.675781 325.128906 349.785156 323.484375 C 350.894531 321.835938 351.945312 320.15625 352.9375 318.4375 C 353.933594 316.71875 354.863281 314.964844 355.734375 313.183594 C 357.953125 308.78125 359.792969 304.230469 361.25 299.527344 C 362.710938 294.824219 363.773438 290.03125 364.4375 285.148438 C 365.101562 280.269531 365.359375 275.367188 365.210938 270.441406 C 365.058594 265.519531 364.503906 260.640625 363.542969 255.808594 Z M 273.191406 280.136719 C 270.832031 283.699219 267.984375 286.820312 264.65625 289.496094 C 261.324219 292.171875 257.664062 294.277344 253.675781 295.8125 C 247.671875 298.011719 241.492188 299.464844 235.136719 300.171875 L 232.078125 300.171875 L 232.078125 319.035156 L 207.167969 319.035156 L 207.167969 300.171875 L 204.238281 299.78125 C 198.863281 299.308594 193.664062 298.085938 188.640625 296.117188 C 183.617188 294.148438 178.972656 291.507812 174.707031 288.203125 C 172.40625 286.359375 170.324219 284.292969 168.457031 282.007812 C 166.589844 279.722656 164.984375 277.269531 163.632812 274.648438 C 162.28125 272.027344 161.21875 269.292969 160.445312 266.445312 C 159.667969 263.601562 159.199219 260.707031 159.03125 257.761719 L 186.9375 256.65625 C 187.304688 258.136719 187.757812 259.589844 188.300781 261.011719 C 188.960938 262.6875 189.84375 264.230469 190.949219 265.648438 C 192.058594 267.066406 193.34375 268.296875 194.808594 269.339844 C 198.5625 272.417969 202.726562 274.78125 207.296875 276.429688 L 207.296875 234.472656 L 204.824219 233.824219 C 199.226562 232.625 193.8125 230.855469 188.585938 228.523438 C 183.355469 226.1875 178.425781 223.335938 173.796875 219.96875 C 171.476562 218.132812 169.390625 216.0625 167.539062 213.753906 C 165.6875 211.445312 164.121094 208.957031 162.835938 206.292969 C 161.550781 203.628906 160.582031 200.851562 159.929688 197.96875 C 159.277344 195.082031 158.953125 192.160156 158.964844 189.199219 C 158.992188 185.335938 159.605469 181.5625 160.804688 177.890625 C 162.003906 174.214844 163.730469 170.808594 165.992188 167.667969 C 168.335938 164.09375 171.171875 160.964844 174.507812 158.289062 C 177.839844 155.609375 181.507812 153.511719 185.503906 151.992188 C 191.480469 149.753906 197.640625 148.257812 203.980469 147.503906 L 207.101562 147.179688 L 207.101562 128.707031 L 231.820312 128.707031 L 231.820312 147.503906 L 234.8125 147.894531 C 240.179688 148.359375 245.371094 149.578125 250.382812 151.546875 C 255.398438 153.519531 260.03125 156.160156 264.277344 159.472656 C 266.5625 161.339844 268.632812 163.421875 270.488281 165.714844 C 272.34375 168.011719 273.945312 170.46875 275.296875 173.09375 C 276.644531 175.71875 277.710938 178.453125 278.496094 181.296875 C 279.28125 184.140625 279.765625 187.035156 279.953125 189.980469 L 252.050781 191.023438 C 251.339844 187.644531 250.09375 184.476562 248.308594 181.519531 C 246.523438 178.5625 244.300781 175.984375 241.640625 173.785156 C 240.550781 173.003906 239.382812 172.375 238.128906 171.898438 C 235.988281 171.222656 233.820312 170.65625 231.625 170.207031 L 231.625 213.269531 L 234.097656 214.050781 C 239.691406 215.226562 245.101562 216.96875 250.332031 219.28125 C 255.558594 221.59375 260.488281 224.425781 265.125 227.773438 C 267.449219 229.613281 269.539062 231.6875 271.390625 234 C 273.246094 236.316406 274.8125 238.808594 276.097656 241.480469 C 277.382812 244.148438 278.351562 246.929688 279.003906 249.824219 C 279.652344 252.714844 279.96875 255.644531 279.953125 258.605469 C 279.945312 262.457031 279.363281 266.214844 278.210938 269.886719 C 277.058594 273.558594 275.382812 276.976562 273.191406 280.136719 Z M 273.191406 280.136719 " fill-opacity="1" fill-rule="nonzero"/></g><g clip-path="url(#00a48e9f97)"><path fill="#1b575f" d="M 0.964844 325.800781 L 0.964844 361.316406 L 126.246094 361.121094 L 126.050781 325.800781 Z M 0.964844 325.800781 " fill-opacity="1" fill-rule="nonzero"/></g><g clip-path="url(#bb28bb18c9)"><path fill="#1b575f" d="M 0.964844 276.949219 L 0.964844 312.335938 L 126.246094 312.335938 L 126.050781 276.753906 Z M 0.964844 276.949219 " fill-opacity="1" fill-rule="nonzero"/></g><path fill="#1b575f" d="M 247.757812 248.132812 C 244.335938 245.773438 240.652344 243.953125 236.699219 242.671875 L 231.882812 240.847656 L 231.882812 277.859375 L 232.988281 277.859375 C 235.964844 277.195312 238.820312 276.191406 241.558594 274.851562 C 244.296875 273.511719 246.839844 271.867188 249.1875 269.925781 C 257.121094 262.507812 250.421875 251.777344 249.1875 250.085938 C 248.796875 249.109375 248.144531 248.589844 247.757812 248.132812 Z M 247.757812 248.132812 " fill-opacity="1" fill-rule="nonzero"/><path fill="#1b575f" d="M 193.832031 172.875 C 193.28125 173.175781 192.761719 173.523438 192.269531 173.914062 C 191.160156 174.59375 190.152344 175.402344 189.253906 176.34375 C 188.355469 177.285156 187.59375 178.328125 186.964844 179.46875 C 186.335938 180.609375 185.867188 181.8125 185.554688 183.074219 C 185.238281 184.339844 185.09375 185.621094 185.113281 186.925781 C 185.152344 188.148438 185.328125 189.351562 185.636719 190.535156 C 185.945312 191.71875 186.382812 192.851562 186.945312 193.9375 C 187.507812 195.023438 188.183594 196.035156 188.972656 196.96875 C 189.761719 197.90625 190.644531 198.742188 191.621094 199.476562 C 195.078125 201.835938 198.789062 203.699219 202.742188 205.074219 L 207.554688 206.828125 L 207.554688 169.164062 C 203.089844 169.800781 198.753906 170.925781 194.546875 172.546875 Z M 193.832031 172.875 " fill-opacity="1" fill-rule="nonzero"/></g></g></svg>