<svg xmlns="http://www.w3.org/2000/svg" xmlns:xlink="http://www.w3.org/1999/xlink" width="500" zoomAndPan="magnify" viewBox="0 0 375 374.999991" height="500" preserveAspectRatio="xMidYMid meet" version="1.0"><metadata><ContainsAiGeneratedContent>Yes</ContainsAiGeneratedContent></metadata><defs><clipPath id="4e7847dca3"><path d="M 19.035156 197 L 182.832031 197 L 182.832031 360.644531 L 19.035156 360.644531 Z M 19.035156 197 " clip-rule="nonzero"/></clipPath><clipPath id="71bb63e95b"><path d="M 214.457031 5.597656 L 369.683594 5.597656 L 369.683594 160.691406 L 214.457031 160.691406 Z M 214.457031 5.597656 " clip-rule="nonzero"/></clipPath></defs><path fill="#1b575f" d="M 200.257812 192.015625 L 200.144531 191.90625 L 195.285156 191.90625 L 195.285156 187.140625 L 195.234375 187.085938 L 190.25 187.085938 L 190.25 182.210938 L 185.632812 182.210938 L 142.046875 225.796875 C 138.042969 229.800781 138.042969 236.285156 142.046875 240.289062 C 144.046875 242.289062 146.667969 243.289062 149.292969 243.289062 C 151.914062 243.289062 154.535156 242.289062 156.535156 240.289062 L 200.269531 196.558594 L 200.257812 196.558594 L 200.257812 192.015625 " fill-opacity="1" fill-rule="nonzero"/><g clip-path="url(#4e7847dca3)"><path fill="#1b575f" d="M 161.152344 243.519531 C 164.15625 255.074219 161.152344 267.878906 152.117188 276.914062 L 98.863281 330.167969 C 85.304688 343.726562 63.246094 343.726562 49.6875 330.167969 C 36.132812 316.609375 36.132812 294.550781 49.6875 280.992188 L 102.941406 227.738281 C 112.96875 217.710938 127.640625 215.109375 140.085938 219.914062 L 155.398438 204.601562 C 134.238281 192.25 106.570312 195.128906 88.449219 213.246094 L 35.199219 266.5 C 13.648438 288.046875 13.648438 323.113281 35.199219 344.660156 C 56.746094 366.207031 91.808594 366.207031 113.359375 344.660156 L 166.605469 291.40625 C 183.820312 274.195312 187.269531 248.363281 176.984375 227.683594 L 161.152344 243.519531 " fill-opacity="1" fill-rule="nonzero"/></g><path fill="#95ea62" d="M 255.839844 135.789062 C 259.625 132 259.625 125.859375 255.839844 122.070312 C 252.046875 118.28125 245.90625 118.28125 242.117188 122.070312 L 200.496094 163.6875 L 203.800781 163.6875 L 203.871094 168.550781 L 209.050781 168.597656 L 209.082031 173.660156 L 214.371094 173.6875 L 214.371094 177.257812 L 255.839844 135.789062 " fill-opacity="1" fill-rule="nonzero"/><g clip-path="url(#71bb63e95b)"><path fill="#95ea62" d="M 354.664062 20.898438 C 334.261719 0.492188 301.058594 0.492188 280.65625 20.898438 L 230.234375 71.320312 C 213.078125 88.476562 210.351562 114.675781 222.050781 134.714844 L 236.546875 120.214844 C 231.996094 108.429688 234.460938 94.535156 243.957031 85.039062 L 294.378906 34.617188 C 307.214844 21.78125 328.105469 21.78125 340.941406 34.617188 C 353.78125 47.457031 353.78125 68.34375 340.941406 81.183594 L 290.519531 131.605469 C 281.964844 140.160156 269.835938 143.003906 258.898438 140.15625 L 243.902344 155.152344 C 263.484375 164.886719 287.941406 161.621094 304.242188 145.324219 L 354.664062 94.90625 C 375.066406 74.5 375.066406 41.300781 354.664062 20.898438 " fill-opacity="1" fill-rule="nonzero"/></g></svg>