<svg xmlns="http://www.w3.org/2000/svg" xmlns:xlink="http://www.w3.org/1999/xlink" width="500" zoomAndPan="magnify" viewBox="0 0 375 374.999991" height="500" preserveAspectRatio="xMidYMid meet" version="1.0"><metadata><ContainsAiGeneratedContent>Yes</ContainsAiGeneratedContent></metadata><defs><clipPath id="157da9b615"><path d="M 6.511719 228.214844 L 366.097656 228.214844 L 366.097656 368.875 L 6.511719 368.875 Z M 6.511719 228.214844 " clip-rule="nonzero"/></clipPath><clipPath id="f11a0e5856"><path d="M 75.097656 6.417969 L 300.097656 6.417969 L 300.097656 227.667969 L 75.097656 227.667969 Z M 75.097656 6.417969 " clip-rule="nonzero"/></clipPath></defs><g clip-path="url(#157da9b615)"><path fill="#1b575f" d="M 364.402344 241.082031 C 358.800781 235.875 344.945312 230.886719 312.535156 248.890625 C 298.507812 257.632812 290.90625 263.246094 287.070312 266.351562 C 284.605469 268.339844 281.585938 269.519531 278.425781 269.734375 C 261.546875 270.910156 208.226562 276.050781 189.957031 275.6875 C 187.292969 275.636719 186.394531 272.039062 188.183594 270.636719 C 189.523438 269.589844 191.582031 269.070312 194.515625 268.15625 C 204.882812 264.921875 262.484375 265.191406 261.222656 243.640625 C 260.011719 222.980469 218.714844 230.601562 206.457031 233.214844 C 201.703125 234.226562 196.40625 235.019531 191.515625 235.609375 C 191.515625 235.609375 173.746094 236.390625 165.003906 234.300781 C 146.777344 229.535156 108.4375 221.808594 84.214844 241.433594 C 64.703125 257.238281 56.046875 267.65625 52.269531 273.335938 C 49.71875 277.171875 46.226562 280.28125 42.140625 282.410156 L 8.011719 306.433594 C 6.214844 307.695312 5.996094 310.269531 7.550781 311.824219 L 45.59375 349.875 L 63.5625 367.835938 C 65.089844 369.367188 67.617188 369.179688 68.902344 367.441406 C 76.605469 357.027344 104.160156 326.515625 161.617188 328.371094 C 230.824219 330.601562 231.269531 329.261719 246.453125 321.226562 C 258.367188 314.921875 286.707031 304.773438 298.359375 300.691406 C 301.789062 299.496094 304.976562 297.703125 307.78125 295.394531 L 364.027344 249.199219 C 366.636719 247.191406 366.808594 243.320312 364.402344 241.082031 " fill-opacity="1" fill-rule="nonzero"/></g><path fill="#1b575f" d="M 257.902344 227.4375 C 259.683594 228.4375 261.242188 229.605469 262.550781 230.917969 C 263.359375 231.71875 264.085938 232.59375 264.71875 233.507812 C 268.847656 231.550781 273.457031 229.472656 278.433594 227.320312 L 278.503906 227.292969 C 290.996094 222.625 301.765625 220.128906 310.578125 219.859375 C 307.699219 218.332031 304.097656 217.429688 299.839844 217.175781 C 290.820312 216.640625 279.09375 219.042969 264.976562 224.316406 C 262.53125 225.371094 260.15625 226.421875 257.902344 227.4375 " fill-opacity="1" fill-rule="nonzero"/><path fill="#1b575f" d="M 250.535156 263.34375 C 253.84375 263.09375 257.007812 262.847656 259.957031 262.617188 L 259.992188 262.613281 C 267.898438 262 274.722656 261.464844 279.078125 261.191406 C 279.816406 261.144531 280.558594 260.996094 281.277344 260.75 C 282.203125 260.433594 283.050781 259.96875 283.796875 259.367188 C 287.738281 256.1875 295.328125 250.609375 309.082031 242.09375 L 309.238281 242 L 309.363281 241.925781 C 313.292969 239.765625 317.128906 237.84375 320.761719 236.21875 C 324.351562 234.679688 327.792969 233.425781 330.996094 232.484375 C 331.4375 232.355469 331.882812 232.226562 332.328125 232.105469 C 331.816406 231.664062 331.261719 231.242188 330.679688 230.859375 C 327.394531 228.707031 323.011719 227.527344 317.640625 227.347656 C 309.0625 227.066406 298.117188 229.355469 285.101562 234.148438 C 279.179688 236.679688 273.835938 239.09375 269.203125 241.328125 C 269.226562 241.535156 269.238281 241.746094 269.25 241.945312 C 269.863281 251.457031 263.574219 258.648438 250.535156 263.34375 " fill-opacity="1" fill-rule="nonzero"/><g clip-path="url(#f11a0e5856)"><path fill="#93e85f" d="M 185.589844 227.539062 L 188.867188 227.539062 C 189.125 227.574219 189.378906 227.574219 189.632812 227.539062 C 191.441406 227.535156 193.25 227.488281 195.054688 227.398438 C 196.863281 227.308594 198.667969 227.171875 200.46875 226.992188 C 202.269531 226.816406 204.0625 226.589844 205.851562 226.324219 C 207.640625 226.058594 209.425781 225.746094 211.199219 225.390625 C 212.972656 225.035156 214.738281 224.636719 216.492188 224.195312 C 218.246094 223.753906 219.988281 223.269531 221.71875 222.742188 C 223.453125 222.214844 225.167969 221.648438 226.871094 221.035156 C 228.574219 220.425781 230.261719 219.773438 231.933594 219.078125 C 233.601562 218.382812 235.257812 217.648438 236.890625 216.875 C 238.527344 216.097656 240.140625 215.285156 241.734375 214.429688 C 243.332031 213.574219 244.902344 212.679688 246.453125 211.75 C 248.003906 210.816406 249.53125 209.847656 251.035156 208.839844 C 252.539062 207.835938 254.015625 206.792969 255.46875 205.710938 C 256.921875 204.632812 258.347656 203.519531 259.746094 202.367188 C 261.140625 201.21875 262.511719 200.035156 263.851562 198.820312 C 265.1875 197.605469 266.496094 196.355469 267.777344 195.074219 C 269.054688 193.792969 270.300781 192.480469 271.515625 191.140625 C 272.726562 189.796875 273.90625 188.425781 275.054688 187.027344 C 276.199219 185.628906 277.3125 184.199219 278.386719 182.746094 C 279.464844 181.292969 280.503906 179.8125 281.507812 178.304688 C 282.511719 176.800781 283.476562 175.269531 284.40625 173.71875 C 285.335938 172.164062 286.226562 170.589844 287.078125 168.992188 C 287.929688 167.398438 288.738281 165.78125 289.511719 164.144531 C 290.285156 162.507812 291.015625 160.851562 291.707031 159.179688 C 292.394531 157.507812 293.046875 155.820312 293.652344 154.117188 C 294.261719 152.410156 294.828125 150.695312 295.351562 148.960938 C 295.875 147.230469 296.355469 145.484375 296.792969 143.730469 C 297.230469 141.972656 297.625 140.210938 297.976562 138.433594 C 298.328125 136.660156 298.632812 134.875 298.898438 133.085938 C 299.160156 131.296875 299.382812 129.5 299.554688 127.699219 C 299.730469 125.898438 299.863281 124.09375 299.949219 122.289062 C 300.035156 120.480469 300.078125 118.671875 300.078125 116.863281 C 300.074219 115.054688 300.03125 113.246094 299.9375 111.4375 C 299.847656 109.628906 299.714844 107.828125 299.535156 106.027344 C 299.355469 104.226562 299.132812 102.429688 298.863281 100.640625 C 298.597656 98.851562 298.285156 97.070312 297.929688 95.296875 C 297.574219 93.519531 297.179688 91.757812 296.738281 90 C 296.296875 88.246094 295.8125 86.503906 295.285156 84.773438 C 294.757812 83.042969 294.1875 81.324219 293.574219 79.621094 C 292.964844 77.917969 292.3125 76.234375 291.617188 74.5625 C 290.921875 72.890625 290.1875 71.238281 289.414062 69.601562 C 288.636719 67.96875 287.824219 66.351562 286.96875 64.757812 C 286.113281 63.164062 285.222656 61.589844 284.289062 60.039062 C 283.355469 58.488281 282.386719 56.960938 281.382812 55.457031 C 280.375 53.953125 279.332031 52.476562 278.25 51.023438 C 277.171875 49.570312 276.058594 48.148438 274.910156 46.75 C 273.757812 45.351562 272.578125 43.984375 271.359375 42.644531 C 270.144531 41.304688 268.894531 39.996094 267.613281 38.71875 C 266.332031 37.441406 265.023438 36.195312 263.679688 34.980469 C 262.339844 33.765625 260.96875 32.585938 259.566406 31.441406 C 258.167969 30.292969 256.742188 29.183594 255.285156 28.105469 C 253.832031 27.03125 252.351562 25.988281 250.847656 24.984375 C 249.339844 23.980469 247.8125 23.015625 246.257812 22.085938 C 244.707031 21.160156 243.128906 20.269531 241.535156 19.417969 C 239.9375 18.566406 238.320312 17.753906 236.683594 16.984375 C 235.046875 16.210938 233.394531 15.480469 231.722656 14.789062 C 230.046875 14.097656 228.359375 13.449219 226.65625 12.839844 C 224.953125 12.234375 223.234375 11.667969 221.5 11.144531 C 219.769531 10.621094 218.027344 10.140625 216.269531 9.703125 C 214.515625 9.265625 212.75 8.871094 210.972656 8.519531 C 209.199219 8.167969 207.417969 7.859375 205.625 7.597656 C 203.835938 7.332031 202.039062 7.113281 200.238281 6.9375 C 198.4375 6.761719 196.636719 6.628906 194.828125 6.542969 C 193.019531 6.457031 191.210938 6.414062 189.402344 6.417969 L 185.589844 6.417969 C 183.78125 6.417969 181.972656 6.460938 180.167969 6.550781 C 178.359375 6.640625 176.554688 6.773438 174.757812 6.953125 C 172.957031 7.128906 171.160156 7.351562 169.371094 7.617188 C 167.582031 7.882812 165.800781 8.195312 164.027344 8.546875 C 162.253906 8.902344 160.488281 9.296875 158.734375 9.738281 C 156.976562 10.175781 155.234375 10.660156 153.503906 11.1875 C 151.773438 11.710938 150.058594 12.28125 148.355469 12.890625 C 146.652344 13.5 144.964844 14.152344 143.292969 14.84375 C 141.621094 15.535156 139.96875 16.269531 138.332031 17.042969 C 136.699219 17.816406 135.082031 18.628906 133.488281 19.484375 C 131.890625 20.335938 130.320312 21.226562 128.765625 22.160156 C 127.214844 23.089844 125.6875 24.058594 124.183594 25.0625 C 122.679688 26.066406 121.203125 27.109375 119.75 28.1875 C 118.296875 29.265625 116.871094 30.378906 115.472656 31.527344 C 114.074219 32.675781 112.707031 33.855469 111.367188 35.070312 C 110.023438 36.285156 108.714844 37.53125 107.4375 38.8125 C 106.15625 40.089844 104.910156 41.402344 103.695312 42.742188 C 102.480469 44.082031 101.300781 45.453125 100.152344 46.851562 C 99.007812 48.25 97.894531 49.675781 96.816406 51.128906 C 95.738281 52.582031 94.699219 54.058594 93.691406 55.566406 C 92.6875 57.070312 91.71875 58.597656 90.789062 60.148438 C 89.859375 61.699219 88.96875 63.273438 88.117188 64.871094 C 87.265625 66.464844 86.453125 68.082031 85.679688 69.714844 C 84.90625 71.351562 84.171875 73.003906 83.480469 74.675781 C 82.789062 76.347656 82.136719 78.035156 81.527344 79.738281 C 80.917969 81.441406 80.351562 83.160156 79.828125 84.890625 C 79.300781 86.621094 78.820312 88.363281 78.378906 90.117188 C 77.941406 91.875 77.542969 93.636719 77.191406 95.414062 C 76.839844 97.1875 76.53125 98.96875 76.265625 100.757812 C 76 102.546875 75.777344 104.34375 75.601562 106.140625 C 75.421875 107.941406 75.289062 109.746094 75.199219 111.554688 C 75.113281 113.359375 75.066406 115.167969 75.066406 116.976562 C 75.066406 118.785156 75.113281 120.59375 75.199219 122.402344 C 75.289062 124.207031 75.421875 126.011719 75.601562 127.8125 C 75.777344 129.613281 76 131.40625 76.265625 133.195312 C 76.53125 134.984375 76.839844 136.765625 77.191406 138.542969 C 77.542969 140.316406 77.941406 142.082031 78.378906 143.835938 C 78.820312 145.589844 79.300781 147.332031 79.828125 149.0625 C 80.351562 150.796875 80.917969 152.511719 81.527344 154.214844 C 82.136719 155.917969 82.789062 157.605469 83.480469 159.277344 C 84.171875 160.949219 84.90625 162.601562 85.679688 164.238281 C 86.453125 165.875 87.265625 167.488281 88.117188 169.085938 C 88.96875 170.679688 89.859375 172.253906 90.789062 173.804688 C 91.71875 175.355469 92.6875 176.886719 93.691406 178.390625 C 94.699219 179.894531 95.738281 181.371094 96.816406 182.824219 C 97.894531 184.277344 99.007812 185.703125 100.152344 187.101562 C 101.300781 188.5 102.480469 189.871094 103.695312 191.210938 C 104.910156 192.550781 106.15625 193.863281 107.4375 195.140625 C 108.714844 196.421875 110.023438 197.667969 111.367188 198.882812 C 112.707031 200.097656 114.074219 201.28125 115.472656 202.425781 C 116.871094 203.574219 118.296875 204.6875 119.75 205.765625 C 121.203125 206.84375 122.679688 207.886719 124.183594 208.890625 C 125.6875 209.898438 127.214844 210.863281 128.765625 211.796875 C 130.320312 212.726562 131.890625 213.617188 133.488281 214.46875 C 135.082031 215.324219 136.699219 216.136719 138.332031 216.910156 C 139.96875 217.683594 141.621094 218.417969 143.292969 219.109375 C 144.964844 219.804688 146.652344 220.453125 148.355469 221.066406 C 150.058594 221.675781 151.773438 222.242188 153.503906 222.769531 C 155.234375 223.292969 156.976562 223.777344 158.734375 224.214844 C 160.488281 224.65625 162.253906 225.054688 164.027344 225.40625 C 165.800781 225.761719 167.582031 226.070312 169.371094 226.335938 C 171.160156 226.601562 172.957031 226.824219 174.757812 227 C 176.554688 227.179688 178.359375 227.3125 180.167969 227.402344 C 181.972656 227.492188 183.78125 227.535156 185.589844 227.539062 Z M 120.777344 115.910156 C 120.878906 108.351562 121.730469 100.878906 123.332031 93.492188 C 133.847656 95.929688 144.46875 97.695312 155.207031 98.792969 C 154.785156 104.089844 154.519531 109.542969 154.441406 115.109375 C 154.441406 122.351562 154.710938 129.292969 155.28125 136.078125 C 144.574219 137.226562 133.988281 139.070312 123.523438 141.605469 C 121.644531 133.144531 120.726562 124.578125 120.777344 115.910156 Z M 253.488281 115.910156 C 253.589844 124.921875 252.609375 133.820312 250.554688 142.597656 C 240.144531 139.960938 229.609375 137.992188 218.949219 136.6875 C 219.558594 129.785156 219.902344 122.65625 219.824219 115.261719 C 219.824219 109.542969 219.519531 103.824219 219.0625 98.523438 C 229.765625 97.273438 240.351562 95.367188 250.820312 92.804688 C 252.539062 100.410156 253.453125 108.113281 253.566406 115.910156 Z M 161.992188 115.183594 C 161.992188 109.808594 162.296875 104.546875 162.675781 99.476562 C 169.84375 100.011719 177.277344 100.355469 185.054688 100.355469 L 187.152344 100.355469 C 195.769531 100.355469 204.015625 99.949219 211.894531 99.132812 C 212.316406 104.320312 212.582031 109.65625 212.621094 115.183594 C 212.621094 122.277344 212.351562 129.101562 211.78125 135.734375 C 203.929688 135.007812 195.691406 134.550781 187.113281 134.476562 C 178.539062 134.398438 170.53125 134.742188 162.792969 135.390625 C 162.144531 128.871094 161.839844 122.125 161.914062 115.183594 Z M 187.191406 56.742188 L 187.992188 56.742188 C 193.632812 56.742188 198.894531 56.472656 203.851562 56.128906 C 207.265625 67.820312 209.667969 79.714844 211.058594 91.816406 C 203.433594 92.5 195.386719 92.921875 187 92.957031 C 178.613281 92.996094 170.875 92.730469 163.324219 92.15625 C 164.753906 79.898438 167.179688 67.835938 170.605469 55.976562 C 176.136719 56.472656 181.777344 56.742188 187.191406 56.742188 Z M 172.855469 48.773438 C 176.6875 37.066406 181.480469 25.769531 187.230469 14.878906 C 192.976562 25.816406 197.78125 37.152344 201.640625 48.886719 C 197.332031 49.191406 192.796875 49.34375 187.953125 49.382812 L 187.191406 49.382812 C 182.425781 49.382812 177.621094 49.152344 172.855469 48.773438 Z M 186.960938 141.871094 C 195.351562 141.871094 203.355469 142.367188 210.941406 143.09375 C 209.480469 155.148438 207.039062 167.007812 203.621094 178.660156 C 198.703125 178.320312 193.519531 178.089844 187.992188 178.089844 C 182.464844 178.089844 176.554688 178.320312 170.875 178.777344 C 167.378906 166.964844 164.898438 154.941406 163.441406 142.710938 C 170.949219 142.101562 178.804688 141.796875 186.960938 141.871094 Z M 187.953125 185.601562 C 192.679688 185.601562 197.105469 185.601562 201.335938 186.058594 C 197.535156 197.496094 192.832031 208.554688 187.230469 219.226562 C 181.625 208.582031 176.921875 197.550781 173.125 186.132812 C 177.964844 185.601562 183.035156 185.601562 187.953125 185.601562 Z M 176.9375 215.222656 C 165.546875 208.445312 155.625 199.953125 147.160156 189.757812 C 153.222656 188.5 159.398438 187.507812 165.574219 186.820312 C 168.738281 196.488281 172.523438 205.90625 176.9375 215.070312 Z M 168.890625 219.035156 C 160.054688 217.523438 151.558594 214.902344 143.402344 211.171875 C 135.246094 207.445312 127.707031 202.730469 120.777344 197.039062 C 126.871094 194.828125 133.058594 192.933594 139.34375 191.359375 C 147.65625 202.164062 157.503906 211.3125 168.890625 218.808594 Z M 197.484375 215.222656 C 201.945312 205.964844 205.757812 196.445312 208.921875 186.667969 C 215.171875 187.261719 221.371094 188.175781 227.527344 189.414062 C 219.019531 199.726562 209.003906 208.28125 197.484375 215.070312 Z M 235.609375 191.242188 C 241.078125 192.652344 246.453125 194.355469 251.734375 196.351562 C 245.265625 201.769531 238.234375 206.316406 230.640625 210 C 223.050781 213.683594 215.121094 216.390625 206.863281 218.121094 C 217.886719 210.679688 227.433594 201.667969 235.496094 191.089844 Z M 211.210938 179.460938 C 214.566406 167.839844 216.957031 156.019531 218.378906 144.007812 C 228.664062 145.269531 238.832031 147.175781 248.875 149.726562 C 245.277344 161.691406 239.851562 172.757812 232.597656 182.933594 C 225.5 181.304688 218.332031 180.097656 211.09375 179.308594 Z M 218.414062 91.050781 C 216.996094 79.007812 214.632812 67.152344 211.324219 55.480469 C 218.601562 54.742188 225.808594 53.5625 232.941406 51.9375 C 240.15625 62.25 245.53125 73.445312 249.066406 85.523438 C 238.964844 88 228.746094 89.839844 218.414062 91.050781 Z M 209.152344 48.351562 C 205.949219 38.28125 202.0625 28.484375 197.484375 18.960938 C 209.253906 26.023438 219.417969 34.921875 227.984375 45.644531 C 221.753906 46.875 215.476562 47.777344 209.152344 48.351562 Z M 206.710938 16.0625 C 215.15625 17.8125 223.25 20.582031 230.996094 24.371094 C 238.742188 28.160156 245.894531 32.847656 252.460938 38.441406 C 247.113281 40.464844 241.671875 42.207031 236.144531 43.664062 C 227.886719 32.785156 218.074219 23.558594 206.710938 15.984375 Z M 176.9375 18.996094 C 172.445312 28.453125 168.632812 38.175781 165.5 48.164062 C 159.207031 47.476562 152.957031 46.445312 146.816406 45.152344 C 155.304688 34.621094 165.34375 25.878906 176.9375 18.921875 Z M 138.8125 43.320312 C 132.449219 41.707031 126.183594 39.773438 120.015625 37.527344 C 123.507812 34.625 127.171875 31.964844 131.015625 29.546875 C 134.855469 27.132812 138.839844 24.980469 142.96875 23.089844 C 147.09375 21.199219 151.328125 19.589844 155.667969 18.261719 C 160.007812 16.929688 164.414062 15.894531 168.890625 15.148438 C 157.21875 22.785156 147.15625 32.152344 138.699219 43.246094 Z M 163.289062 55.328125 C 159.90625 67.21875 157.519531 79.304688 156.121094 91.585938 C 145.695312 90.535156 135.375 88.832031 125.164062 86.476562 C 128.722656 73.949219 134.25 62.359375 141.746094 51.707031 C 148.824219 53.273438 155.96875 54.453125 163.171875 55.253906 Z M 156.121094 143.398438 C 157.542969 155.648438 159.96875 167.695312 163.402344 179.539062 C 156.261719 180.371094 149.183594 181.566406 142.167969 183.121094 C 134.660156 172.625 129.078125 161.1875 125.429688 148.8125 C 135.539062 146.328125 145.769531 144.523438 156.121094 143.398438 Z M 134.578125 185.027344 C 127.726562 186.839844 120.992188 189.015625 114.375 191.546875 C 109.742188 187.125 105.554688 182.316406 101.808594 177.121094 C 98.066406 171.921875 94.835938 166.425781 92.109375 160.628906 C 100.5 156.398438 109.230469 153.058594 118.300781 150.601562 C 121.890625 162.945312 127.316406 174.421875 134.578125 185.027344 Z M 257.722656 190.671875 C 251.96875 188.324219 246.097656 186.328125 240.109375 184.6875 C 247.042969 174.445312 252.292969 163.402344 255.851562 151.554688 C 263.859375 153.882812 271.585938 156.917969 279.03125 160.667969 C 273.746094 171.960938 266.640625 181.960938 257.722656 190.671875 Z M 281.929688 153.882812 C 274.15625 149.988281 266.085938 146.847656 257.722656 144.464844 C 259.832031 135.640625 260.914062 126.695312 260.964844 117.625 C 261.019531 108.550781 260.039062 99.59375 258.027344 90.746094 C 266.46875 88.4375 274.652344 85.425781 282.578125 81.710938 C 284.6875 87.5 286.261719 93.433594 287.304688 99.503906 C 288.347656 105.578125 288.84375 111.695312 288.785156 117.855469 C 288.730469 124.015625 288.128906 130.125 286.976562 136.175781 C 285.824219 142.230469 284.140625 148.128906 281.929688 153.882812 Z M 279.757812 75.039062 C 272.144531 78.65625 264.277344 81.589844 256.160156 83.847656 C 252.679688 71.828125 247.484375 60.609375 240.566406 50.183594 C 246.617188 48.492188 252.550781 46.457031 258.371094 44.082031 C 267.398438 53.089844 274.527344 63.410156 279.757812 75.039062 Z M 113.726562 43.015625 C 120.359375 45.570312 127.105469 47.769531 133.96875 49.609375 C 126.765625 60.386719 121.417969 72.015625 117.917969 84.496094 C 108.71875 82.121094 99.824219 78.90625 91.234375 74.847656 C 93.949219 68.882812 97.195312 63.226562 100.980469 57.871094 C 104.761719 52.519531 109.011719 47.566406 113.726562 43.015625 Z M 88.601562 81.75 C 97.511719 85.910156 106.726562 89.226562 116.242188 91.699219 C 114.496094 99.648438 113.582031 107.695312 113.496094 115.832031 C 113.410156 125.226562 114.402344 134.503906 116.472656 143.664062 C 107.046875 146.214844 97.960938 149.660156 89.210938 153.996094 C 87.011719 148.253906 85.335938 142.359375 84.191406 136.316406 C 83.046875 130.269531 82.449219 124.175781 82.394531 118.023438 C 82.34375 111.871094 82.839844 105.765625 83.882812 99.703125 C 84.925781 93.640625 86.496094 87.71875 88.601562 81.941406 Z M 88.601562 81.75 " fill-opacity="1" fill-rule="nonzero"/></g></svg>