<svg xmlns="http://www.w3.org/2000/svg" xmlns:xlink="http://www.w3.org/1999/xlink" width="500" zoomAndPan="magnify" viewBox="0 0 375 374.999991" height="500" preserveAspectRatio="xMidYMid meet" version="1.0"><metadata><ContainsAiGeneratedContent>Yes</ContainsAiGeneratedContent></metadata><defs><clipPath id="8efe8baa7c"><path d="M 102.347656 103.347656 L 269.597656 103.347656 L 269.597656 256.347656 L 102.347656 256.347656 Z M 102.347656 103.347656 " clip-rule="nonzero"/></clipPath></defs><path fill="#1b575f" d="M 144.84375 341.035156 C 201.742188 362.679688 266.761719 343.714844 303.003906 293.84375 C 323.410156 265.769531 333.132812 229.945312 327.371094 192.988281 C 327.324219 192.757812 327.285156 192.527344 327.265625 192.296875 C 321.34375 155.480469 301.054688 124.367188 272.941406 103.929688 C 244.851562 83.507812 208.960938 73.753906 171.800781 79.628906 C 168.632812 80.121094 165.664062 77.949219 165.171875 74.777344 C 164.683594 71.609375 166.855469 68.640625 170.027344 68.148438 C 210.363281 61.773438 249.304688 72.347656 279.777344 94.496094 C 310.320312 116.703125 332.359375 150.550781 338.765625 190.625 C 345.601562 228.417969 334.878906 269.800781 312.4375 300.679688 C 273.550781 354.183594 204.007812 375.011719 142.636719 352.636719 L 146.734375 359.476562 C 148.382812 362.230469 147.488281 365.804688 144.730469 367.449219 C 141.976562 369.097656 138.40625 368.203125 136.757812 365.445312 L 123.320312 343.011719 C 121.375 339.761719 123.027344 335.570312 126.597656 334.46875 L 151.601562 326.796875 C 154.671875 325.855469 157.921875 327.578125 158.867188 330.648438 C 159.8125 333.71875 158.085938 336.972656 155.019531 337.914062 Z M 135.226562 248.851562 L 254.550781 248.851562 C 256.953125 248.851562 258.75 246.703125 258.328125 244.335938 C 252.921875 214.199219 226.578125 191.332031 194.890625 191.332031 C 163.199219 191.332031 136.855469 214.203125 131.449219 244.335938 C 131.023438 246.703125 132.824219 248.851562 135.226562 248.851562 Z M 194.886719 118.503906 C 176.890625 118.503906 162.300781 133.09375 162.300781 151.09375 C 162.300781 169.089844 176.890625 183.683594 194.886719 183.683594 C 212.886719 183.683594 227.476562 169.089844 227.476562 151.09375 C 227.476562 133.09375 212.886719 118.503906 194.886719 118.503906 Z M 243.039062 15.523438 L 247.136719 22.363281 C 185.757812 -0.015625 116.234375 20.804688 77.339844 74.320312 C 29.402344 140.277344 44.066406 232.570312 110 280.503906 C 140.46875 302.652344 179.414062 313.226562 219.75 306.851562 C 222.921875 306.359375 225.09375 303.394531 224.601562 300.222656 C 224.113281 297.050781 221.144531 294.878906 217.972656 295.371094 C 180.8125 301.246094 144.925781 291.492188 116.832031 271.070312 C 56.074219 226.902344 42.597656 141.933594 86.769531 81.15625 C 123.023438 31.277344 188.023438 12.316406 244.933594 33.964844 L 234.757812 37.085938 C 231.6875 38.027344 229.964844 41.285156 230.90625 44.351562 C 231.851562 47.421875 235.105469 49.148438 238.175781 48.203125 L 263.175781 40.53125 C 266.75 39.429688 268.402344 35.238281 266.457031 31.988281 L 253.019531 9.554688 C 251.371094 6.800781 247.800781 5.902344 245.042969 7.550781 C 242.289062 9.199219 241.390625 12.769531 243.039062 15.523438 Z M 243.039062 15.523438 " fill-opacity="1" fill-rule="evenodd"/><g clip-path="url(#8efe8baa7c)"><path fill="#93e85f" d="M 143.265625 346.265625 C 202.039062 368.621094 269.199219 349.03125 306.632812 297.519531 C 327.710938 268.523438 337.753906 231.519531 331.804688 193.347656 C 331.75 193.105469 331.714844 192.867188 331.691406 192.628906 C 325.578125 154.601562 304.621094 122.464844 275.582031 101.355469 C 246.566406 80.261719 209.496094 70.1875 171.113281 76.257812 C 167.839844 76.761719 164.773438 74.519531 164.265625 71.246094 C 163.761719 67.96875 166.003906 64.902344 169.277344 64.398438 C 210.941406 57.8125 251.167969 68.734375 282.640625 91.613281 C 314.191406 114.546875 336.953125 149.511719 343.570312 190.90625 C 350.632812 229.941406 339.558594 272.683594 316.375 304.578125 C 276.210938 359.84375 204.378906 381.359375 140.988281 358.246094 L 145.222656 365.3125 C 146.925781 368.15625 145.996094 371.847656 143.152344 373.546875 C 140.308594 375.25 136.617188 374.324219 134.917969 371.476562 L 121.035156 348.304688 C 119.027344 344.949219 120.734375 340.617188 124.421875 339.480469 L 150.246094 331.558594 C 153.417969 330.582031 156.777344 332.363281 157.753906 335.535156 C 158.726562 338.703125 156.949219 342.066406 153.777344 343.039062 Z M 133.335938 251.046875 L 256.582031 251.046875 C 259.066406 251.046875 260.925781 248.824219 260.488281 246.382812 C 254.90625 215.253906 227.691406 191.632812 194.960938 191.632812 C 162.230469 191.632812 135.015625 215.253906 129.433594 246.382812 C 128.996094 248.828125 130.851562 251.046875 133.335938 251.046875 Z M 194.960938 116.410156 C 176.367188 116.410156 161.296875 131.480469 161.296875 150.070312 C 161.296875 168.660156 176.367188 183.730469 194.960938 183.730469 C 213.550781 183.730469 228.621094 168.660156 228.621094 150.070312 C 228.621094 131.480469 213.550781 116.410156 194.960938 116.410156 Z M 244.695312 10.039062 L 248.929688 17.105469 C 185.527344 -6.011719 113.71875 15.496094 73.542969 70.773438 C 24.03125 138.898438 39.175781 234.230469 107.277344 283.738281 C 138.75 306.617188 178.976562 317.542969 220.640625 310.957031 C 223.914062 310.449219 226.160156 307.382812 225.652344 304.105469 C 225.144531 300.832031 222.078125 298.589844 218.804688 299.09375 C 180.421875 305.164062 143.351562 295.089844 114.335938 273.996094 C 51.578125 228.375 37.65625 140.609375 83.285156 77.832031 C 120.726562 26.3125 187.871094 6.726562 246.652344 29.085938 L 236.140625 32.3125 C 232.96875 33.285156 231.1875 36.648438 232.164062 39.820312 C 233.140625 42.988281 236.5 44.769531 239.671875 43.796875 L 265.496094 35.871094 C 269.183594 34.734375 270.890625 30.402344 268.882812 27.046875 L 255 3.875 C 253.300781 1.027344 249.613281 0.101562 246.765625 1.804688 C 243.921875 3.507812 242.992188 7.195312 244.695312 10.039062 Z M 244.695312 10.039062 " fill-opacity="1" fill-rule="evenodd"/></g></svg>