<svg xmlns="http://www.w3.org/2000/svg" xmlns:xlink="http://www.w3.org/1999/xlink" width="500" zoomAndPan="magnify" viewBox="0 0 375 374.999991" height="500" preserveAspectRatio="xMidYMid meet" version="1.0"><metadata><ContainsAiGeneratedContent>Yes</ContainsAiGeneratedContent></metadata><defs><clipPath id="988d70ef35"><path d="M 18.65625 228 L 151 228 L 151 361 L 18.65625 361 Z M 18.65625 228 " clip-rule="nonzero"/></clipPath><clipPath id="14bb811939"><path d="M 125 120 L 259 120 L 259 254 L 125 254 Z M 125 120 " clip-rule="nonzero"/></clipPath><clipPath id="ef8206982a"><path d="M 40.644531 210.324219 L 225.308594 34.472656 L 334.441406 149.070312 L 149.777344 324.921875 Z M 40.644531 210.324219 " clip-rule="nonzero"/></clipPath><clipPath id="ba5db93223"><path d="M 17.953125 10.085938 L 370.449219 11.300781 L 369.238281 363.796875 L 16.742188 362.585938 Z M 17.953125 10.085938 " clip-rule="nonzero"/></clipPath><clipPath id="6daf4fdd0f"><path d="M 40 228 L 150 228 L 150 325 L 40 325 Z M 40 228 " clip-rule="nonzero"/></clipPath><clipPath id="3e017d0737"><path d="M 40.644531 210.324219 L 225.308594 34.472656 L 334.441406 149.070312 L 149.777344 324.921875 Z M 40.644531 210.324219 " clip-rule="nonzero"/></clipPath><clipPath id="9f68081601"><path d="M 17.953125 10.085938 L 370.449219 11.300781 L 369.238281 363.796875 L 16.742188 362.585938 Z M 17.953125 10.085938 " clip-rule="nonzero"/></clipPath><clipPath id="b85b2bf0c9"><path d="M 234 34 L 335 34 L 335 146 L 234 146 Z M 234 34 " clip-rule="nonzero"/></clipPath><clipPath id="c57c877c6b"><path d="M 40.644531 210.324219 L 225.308594 34.472656 L 334.441406 149.070312 L 149.777344 324.921875 Z M 40.644531 210.324219 " clip-rule="nonzero"/></clipPath><clipPath id="b902eee40e"><path d="M 17.953125 10.085938 L 370.449219 11.300781 L 369.238281 363.796875 L 16.742188 362.585938 Z M 17.953125 10.085938 " clip-rule="nonzero"/></clipPath><clipPath id="5d575842d5"><path d="M 99 203 L 176 203 L 176 279 L 99 279 Z M 99 203 " clip-rule="nonzero"/></clipPath><clipPath id="892e8fad72"><path d="M 40.644531 210.324219 L 225.308594 34.472656 L 334.441406 149.070312 L 149.777344 324.921875 Z M 40.644531 210.324219 " clip-rule="nonzero"/></clipPath><clipPath id="db74838630"><path d="M 17.953125 10.085938 L 370.449219 11.300781 L 369.238281 363.796875 L 16.742188 362.585938 Z M 17.953125 10.085938 " clip-rule="nonzero"/></clipPath><clipPath id="b906a2ec34"><path d="M 208 95 L 285 95 L 285 171 L 208 171 Z M 208 95 " clip-rule="nonzero"/></clipPath><clipPath id="94928bbf37"><path d="M 40.644531 210.324219 L 225.308594 34.472656 L 334.441406 149.070312 L 149.777344 324.921875 Z M 40.644531 210.324219 " clip-rule="nonzero"/></clipPath><clipPath id="180e583d7a"><path d="M 17.953125 10.085938 L 370.449219 11.300781 L 369.238281 363.796875 L 16.742188 362.585938 Z M 17.953125 10.085938 " clip-rule="nonzero"/></clipPath><clipPath id="decdc6bedc"><path d="M 122 158 L 138 158 L 138 170 L 122 170 Z M 122 158 " clip-rule="nonzero"/></clipPath><clipPath id="891df6147f"><path d="M 40.644531 210.324219 L 225.308594 34.472656 L 334.441406 149.070312 L 149.777344 324.921875 Z M 40.644531 210.324219 " clip-rule="nonzero"/></clipPath><clipPath id="0cb37da136"><path d="M 17.953125 10.085938 L 370.449219 11.300781 L 369.238281 363.796875 L 16.742188 362.585938 Z M 17.953125 10.085938 " clip-rule="nonzero"/></clipPath><clipPath id="9dbc532751"><path d="M 128 138 L 143 138 L 143 152 L 128 152 Z M 128 138 " clip-rule="nonzero"/></clipPath><clipPath id="6257aff750"><path d="M 40.644531 210.324219 L 225.308594 34.472656 L 334.441406 149.070312 L 149.777344 324.921875 Z M 40.644531 210.324219 " clip-rule="nonzero"/></clipPath><clipPath id="807e2349c9"><path d="M 17.953125 10.085938 L 370.449219 11.300781 L 369.238281 363.796875 L 16.742188 362.585938 Z M 17.953125 10.085938 " clip-rule="nonzero"/></clipPath><clipPath id="f2b853dad8"><path d="M 144 128 L 157 128 L 157 143 L 144 143 Z M 144 128 " clip-rule="nonzero"/></clipPath><clipPath id="d9f0f1180e"><path d="M 40.644531 210.324219 L 225.308594 34.472656 L 334.441406 149.070312 L 149.777344 324.921875 Z M 40.644531 210.324219 " clip-rule="nonzero"/></clipPath><clipPath id="f859f0760f"><path d="M 17.953125 10.085938 L 370.449219 11.300781 L 369.238281 363.796875 L 16.742188 362.585938 Z M 17.953125 10.085938 " clip-rule="nonzero"/></clipPath><clipPath id="f874249c61"><path d="M 134 320 L 150 320 L 150 325 L 134 325 Z M 134 320 " clip-rule="nonzero"/></clipPath><clipPath id="820d09adb5"><path d="M 40.644531 210.324219 L 225.308594 34.472656 L 334.441406 149.070312 L 149.777344 324.921875 Z M 40.644531 210.324219 " clip-rule="nonzero"/></clipPath><clipPath id="8766af9032"><path d="M 17.953125 10.085938 L 370.449219 11.300781 L 369.238281 363.796875 L 16.742188 362.585938 Z M 17.953125 10.085938 " clip-rule="nonzero"/></clipPath></defs><path fill="#1b575f" d="M 176.648438 253.058594 C 167.691406 253.058594 159.34375 249.597656 153.03125 243.289062 L 151.808594 242.066406 C 150.382812 240.4375 150.382812 237.789062 151.808594 236.363281 C 153.4375 234.734375 156.085938 234.734375 157.714844 236.363281 L 164.636719 230.867188 L 163.820312 230.054688 C 162.191406 228.425781 162.191406 225.980469 163.820312 224.351562 C 165.449219 222.722656 168.097656 222.722656 169.523438 224.351562 L 170.742188 225.574219 C 174 228.628906 179.292969 228.628906 182.550781 225.574219 L 231.007812 177.117188 C 234.0625 173.859375 234.0625 168.566406 231.007812 165.308594 L 229.789062 164.085938 C 228.160156 162.664062 228.160156 160.015625 229.789062 158.386719 C 230.804688 157.367188 236.710938 153.5 241.1875 151.464844 C 240.171875 149.835938 240.375 147.800781 241.800781 146.375 C 243.226562 144.949219 245.871094 144.949219 247.5 146.375 L 248.722656 147.597656 C 255.035156 153.90625 258.496094 162.253906 258.496094 171.214844 C 258.496094 180.171875 255.035156 188.519531 248.722656 194.832031 L 200.265625 243.289062 C 193.953125 249.597656 185.605469 253.058594 176.648438 253.058594 Z M 174.410156 174.472656 C 173.390625 174.472656 172.371094 174.0625 171.558594 173.25 L 159.75 161.238281 C 158.933594 160.421875 158.527344 159.40625 158.527344 158.386719 C 158.527344 157.367188 158.933594 156.351562 159.75 155.535156 L 184.589844 130.695312 C 190.695312 124.386719 199.246094 120.925781 208.003906 120.925781 C 216.960938 120.925781 225.308594 124.386719 231.621094 130.695312 L 232.839844 131.917969 C 234.46875 133.34375 234.46875 135.992188 232.839844 137.621094 C 231.417969 139.042969 229.378906 139.25 227.75 138.027344 L 220.828125 143.929688 C 222.457031 145.355469 222.457031 148.003906 220.828125 149.632812 C 219.402344 151.261719 216.757812 151.261719 215.128906 149.632812 L 213.90625 148.410156 C 210.851562 145.355469 205.355469 145.355469 202.300781 148.410156 L 177.460938 173.25 C 176.648438 174.0625 175.628906 174.472656 174.410156 174.472656 Z M 140.203125 228.628906 C 139.1875 228.628906 138.167969 228.222656 137.351562 227.40625 L 136.132812 226.183594 C 129.820312 219.875 126.359375 211.527344 126.359375 202.566406 C 126.359375 193.8125 129.820312 185.261719 136.132812 179.152344 L 146.109375 168.972656 C 147.738281 167.546875 150.382812 167.546875 152.011719 168.972656 L 163.820312 180.984375 C 164.636719 181.800781 165.042969 182.820312 165.042969 183.835938 C 165.042969 184.855469 164.636719 186.074219 163.820312 186.6875 L 153.84375 196.867188 C 152.214844 198.292969 151.402344 200.53125 151.402344 202.566406 C 151.402344 204.808594 152.214844 207.046875 153.84375 208.472656 L 155.066406 209.695312 C 156.695312 211.320312 156.695312 213.96875 155.066406 215.394531 C 153.4375 217.023438 150.792969 217.023438 149.367188 215.394531 L 148.550781 214.578125 L 143.054688 221.707031 C 144.683594 223.335938 144.683594 225.777344 143.054688 227.40625 C 142.238281 228.222656 141.222656 228.628906 140.203125 228.628906 Z M 140.203125 228.628906 " fill-opacity="1" fill-rule="evenodd"/><g clip-path="url(#988d70ef35)"><path fill="#1b575f" d="M 68.945312 360.765625 C 60.394531 360.765625 51.84375 357.507812 45.328125 350.992188 L 28.429688 333.890625 C 22.117188 327.578125 18.65625 319.230469 18.65625 310.269531 C 18.65625 301.515625 22.117188 292.964844 28.429688 286.855469 L 76.882812 238.402344 C 83.195312 232.089844 91.542969 228.628906 100.296875 228.628906 C 109.257812 228.628906 117.605469 232.089844 123.914062 238.402344 L 125.136719 239.621094 C 126.765625 241.046875 126.765625 243.695312 125.136719 245.324219 C 123.507812 246.953125 121.066406 246.953125 119.4375 245.324219 L 118.621094 244.507812 L 113.125 251.429688 C 114.753906 253.058594 114.753906 255.707031 113.125 257.335938 C 111.699219 258.964844 109.054688 258.964844 107.425781 257.335938 L 106.203125 256.113281 C 103.148438 253.058594 97.652344 253.058594 94.597656 256.113281 L 46.140625 304.570312 C 44.511719 305.996094 43.699219 308.234375 43.699219 310.269531 C 43.699219 312.511719 44.511719 314.75 46.140625 316.175781 L 63.039062 333.277344 C 66.296875 336.332031 71.589844 336.332031 74.847656 333.277344 L 93.171875 314.953125 C 94.597656 313.324219 97.246094 313.324219 98.875 314.953125 L 110.886719 326.964844 C 112.3125 328.390625 112.3125 331.039062 110.886719 332.667969 L 92.5625 350.992188 C 86.046875 357.507812 77.496094 360.765625 68.945312 360.765625 Z M 119.84375 321.875 C 118.824219 321.875 117.605469 321.46875 116.992188 320.859375 L 104.980469 308.847656 C 103.351562 307.21875 103.351562 304.570312 104.980469 303.144531 L 123.304688 284.820312 C 124.730469 283.191406 125.542969 281.15625 125.542969 278.917969 C 125.542969 276.675781 124.730469 274.640625 123.304688 273.011719 L 122.082031 271.792969 C 120.453125 270.367188 120.453125 267.71875 122.082031 266.089844 C 123.710938 264.460938 126.15625 264.460938 127.785156 266.089844 L 134.707031 260.59375 L 134.097656 259.980469 C 132.46875 258.355469 132.46875 255.707031 134.097656 254.078125 C 135.519531 252.652344 138.167969 252.652344 139.796875 254.078125 L 141.019531 255.300781 C 154.046875 268.328125 154.046875 289.503906 141.019531 302.535156 L 122.695312 320.859375 C 121.878906 321.46875 120.863281 321.875 119.84375 321.875 Z M 119.84375 321.875 " fill-opacity="1" fill-rule="evenodd"/></g><path fill="#1b575f" d="M 284.351562 145.355469 C 275.800781 145.355469 267.25 142.097656 260.734375 135.582031 L 259.511719 134.363281 C 258.085938 132.734375 258.085938 130.085938 259.511719 128.660156 C 261.140625 127.03125 263.789062 127.03125 265.417969 128.660156 L 272.136719 122.960938 L 271.523438 122.347656 C 269.894531 120.722656 269.894531 118.277344 271.523438 116.648438 C 273.152344 115.019531 275.800781 115.019531 277.226562 116.648438 L 278.449219 117.871094 C 281.5 120.925781 287.203125 120.925781 290.257812 117.871094 L 338.710938 69.414062 C 341.765625 66.15625 341.765625 60.863281 338.710938 57.605469 L 321.609375 40.707031 C 318.554688 37.652344 313.058594 37.652344 310.003906 40.707031 L 261.546875 89.164062 C 259.921875 90.589844 259.105469 92.828125 259.105469 94.863281 C 259.105469 97.101562 259.921875 99.34375 261.546875 100.769531 L 262.769531 101.988281 C 264.398438 103.617188 264.398438 106.265625 262.769531 107.691406 C 261.140625 109.320312 258.496094 109.320312 256.867188 107.691406 L 249.945312 113.1875 L 250.757812 114.003906 C 252.386719 115.628906 252.386719 118.074219 250.757812 119.703125 C 249.128906 121.332031 246.484375 121.332031 245.058594 119.703125 L 243.835938 118.480469 C 237.523438 112.167969 234.0625 103.820312 234.0625 95.066406 C 234.0625 86.109375 237.523438 77.761719 243.835938 71.449219 L 292.292969 22.992188 C 298.398438 16.683594 306.953125 13.21875 315.707031 13.21875 C 324.664062 13.21875 333.011719 16.683594 339.324219 22.992188 L 356.425781 39.890625 C 369.457031 52.921875 369.457031 74.097656 356.425781 87.128906 L 307.96875 135.582031 C 301.453125 142.097656 292.902344 145.355469 284.351562 145.355469 Z M 284.351562 145.355469 " fill-opacity="1" fill-rule="evenodd"/><path fill="#1b575f" d="M 115.160156 278.511719 C 111.292969 278.511719 107.832031 277.085938 104.980469 274.234375 C 99.484375 268.738281 99.484375 259.574219 104.980469 253.875 L 151.605469 207.25 C 154.457031 204.601562 157.917969 203.179688 161.785156 203.179688 C 165.652344 203.179688 169.320312 204.601562 171.964844 207.25 C 174.613281 210.101562 176.242188 213.5625 176.242188 217.429688 C 176.242188 221.296875 174.613281 224.964844 171.964844 227.609375 L 125.339844 274.234375 C 122.695312 277.085938 119.03125 278.511719 115.160156 278.511719 Z M 115.160156 278.511719 " fill-opacity="1" fill-rule="evenodd"/><path fill="#1b575f" d="M 222.863281 170.804688 C 218.996094 170.804688 215.535156 169.382812 212.683594 166.53125 C 210.039062 163.882812 208.613281 160.21875 208.613281 156.351562 C 208.613281 152.480469 210.039062 149.019531 212.683594 146.171875 L 259.308594 99.546875 C 262.160156 96.898438 265.621094 95.472656 269.488281 95.472656 C 273.359375 95.472656 277.023438 96.898438 279.667969 99.546875 C 282.519531 102.398438 283.945312 105.859375 283.945312 109.726562 C 283.945312 113.59375 282.519531 117.257812 279.667969 119.90625 L 233.046875 166.53125 C 230.398438 169.382812 226.734375 170.804688 222.863281 170.804688 Z M 222.863281 170.804688 " fill-opacity="1" fill-rule="evenodd"/><path fill="#1b575f" d="M 134.097656 169.382812 C 133.6875 169.382812 133.28125 169.175781 132.671875 168.972656 L 126.359375 166.734375 C 124.121094 165.917969 123.101562 163.679688 123.710938 161.441406 C 124.527344 159.40625 126.765625 158.386719 129.007812 158.996094 L 135.519531 161.441406 C 137.558594 162.050781 138.777344 164.496094 137.964844 166.53125 C 137.351562 168.160156 135.726562 169.382812 134.097656 169.382812 Z M 134.097656 169.382812 " fill-opacity="1" fill-rule="evenodd"/><path fill="#1b575f" d="M 138.574219 151.871094 C 137.558594 151.871094 136.539062 151.667969 135.726562 150.851562 L 130.023438 145.761719 C 128.394531 144.339844 128.191406 141.894531 129.617188 140.0625 C 131.042969 138.433594 133.6875 138.230469 135.316406 139.65625 L 141.222656 144.746094 C 142.851562 146.171875 143.054688 148.816406 141.628906 150.445312 C 140.816406 151.464844 139.59375 151.871094 138.574219 151.871094 Z M 138.574219 151.871094 " fill-opacity="1" fill-rule="evenodd"/><path fill="#1b575f" d="M 152.828125 143.117188 C 151.402344 143.117188 149.976562 142.300781 149.164062 141.082031 L 145.699219 134.566406 C 144.480469 132.53125 145.292969 130.085938 147.125 129.066406 C 149.164062 128.050781 151.605469 128.660156 152.828125 130.695312 L 156.289062 137.007812 C 157.304688 139.042969 156.695312 141.488281 154.660156 142.503906 C 154.046875 142.914062 153.4375 143.117188 152.828125 143.117188 Z M 152.828125 143.117188 " fill-opacity="1" fill-rule="evenodd"/><path fill="#1b575f" d="M 120.863281 357.097656 C 119.4375 357.097656 118.011719 356.285156 117.402344 355.0625 L 113.941406 348.953125 C 112.71875 347.121094 113.53125 344.679688 115.363281 343.457031 C 117.402344 342.441406 119.84375 343.050781 120.863281 344.882812 L 124.324219 350.992188 C 125.542969 352.824219 124.933594 355.46875 122.898438 356.488281 C 122.289062 356.894531 121.472656 357.097656 120.863281 357.097656 Z M 120.863281 357.097656 " fill-opacity="1" fill-rule="evenodd"/><path fill="#1b575f" d="M 139.796875 348.546875 C 138.777344 348.546875 137.964844 348.140625 137.148438 347.53125 L 131.246094 342.847656 C 129.414062 341.421875 129.210938 338.773438 130.632812 336.941406 C 131.855469 335.3125 134.503906 334.90625 136.335938 336.332031 L 142.238281 341.21875 C 144.074219 342.644531 144.277344 345.085938 142.851562 346.917969 C 142.035156 347.9375 141.019531 348.546875 139.796875 348.546875 Z M 139.796875 348.546875 " fill-opacity="1" fill-rule="evenodd"/><path fill="#1b575f" d="M 146.71875 330.425781 C 146.3125 330.425781 145.90625 330.222656 145.496094 330.222656 L 138.371094 327.78125 C 136.335938 327.171875 135.113281 324.726562 135.929688 322.691406 C 136.539062 320.453125 138.980469 319.433594 141.019531 320.042969 L 148.144531 322.488281 C 150.179688 323.097656 151.402344 325.542969 150.585938 327.578125 C 149.976562 329.207031 148.550781 330.425781 146.71875 330.425781 Z M 146.71875 330.425781 " fill-opacity="1" fill-rule="evenodd"/><g clip-path="url(#14bb811939)"><g clip-path="url(#ef8206982a)"><g clip-path="url(#ba5db93223)"><path fill="#93e85f" d="M 175.890625 253.292969 C 166.890625 253.261719 158.511719 249.753906 152.191406 243.390625 L 150.96875 242.160156 C 149.542969 240.519531 149.550781 237.859375 150.988281 236.429688 C 152.628906 234.800781 155.289062 234.808594 156.921875 236.449219 L 163.898438 230.949219 L 163.082031 230.128906 C 161.449219 228.488281 161.457031 226.03125 163.101562 224.398438 C 164.742188 222.769531 167.402344 222.777344 168.828125 224.421875 L 170.054688 225.652344 C 173.316406 228.730469 178.636719 228.75 181.921875 225.691406 L 230.785156 177.164062 C 233.863281 173.902344 233.882812 168.582031 230.824219 165.296875 L 229.601562 164.066406 C 227.96875 162.628906 227.976562 159.96875 229.621094 158.335938 C 230.648438 157.316406 236.59375 153.449219 241.101562 151.417969 C 240.085938 149.777344 240.296875 147.734375 241.734375 146.304688 C 243.171875 144.878906 245.832031 144.886719 247.460938 146.324219 L 248.6875 147.558594 C 255.007812 153.921875 258.457031 162.324219 258.425781 171.324219 C 258.394531 180.328125 254.886719 188.707031 248.523438 195.027344 L 199.660156 243.554688 C 193.292969 249.875 184.894531 253.324219 175.890625 253.292969 Z M 173.914062 174.308594 C 172.890625 174.304688 171.867188 173.894531 171.050781 173.070312 L 159.226562 160.957031 C 158.410156 160.136719 158.003906 159.113281 158.007812 158.089844 C 158.011719 157.066406 158.425781 156.046875 159.246094 155.230469 L 184.292969 130.355469 C 190.453125 124.03125 199.058594 120.582031 207.855469 120.613281 C 216.859375 120.644531 225.238281 124.152344 231.558594 130.515625 L 232.78125 131.75 C 234.414062 133.1875 234.402344 135.847656 232.761719 137.476562 C 231.324219 138.90625 229.277344 139.101562 227.644531 137.867188 L 220.667969 143.777344 C 222.300781 145.214844 222.289062 147.875 220.648438 149.507812 C 219.210938 151.140625 216.550781 151.128906 214.917969 149.488281 L 213.695312 148.257812 C 210.636719 145.175781 205.113281 145.15625 202.035156 148.214844 L 176.984375 173.09375 C 176.164062 173.90625 175.140625 174.3125 173.914062 174.308594 Z M 139.351562 228.617188 C 138.328125 228.613281 137.308594 228.199219 136.492188 227.378906 L 135.269531 226.144531 C 128.945312 219.78125 125.496094 211.378906 125.527344 202.378906 C 125.558594 193.582031 129.066406 185 135.429688 178.882812 L 145.492188 168.6875 C 147.132812 167.261719 149.792969 167.269531 151.425781 168.707031 L 163.25 180.820312 C 164.066406 181.640625 164.472656 182.664062 164.46875 183.6875 C 164.464844 184.710938 164.050781 185.9375 163.230469 186.546875 L 153.171875 196.746094 C 151.527344 198.171875 150.703125 200.417969 150.695312 202.464844 C 150.6875 204.714844 151.496094 206.96875 153.128906 208.40625 L 154.351562 209.636719 C 155.984375 211.28125 155.976562 213.941406 154.332031 215.367188 C 152.691406 217 150.03125 216.988281 148.605469 215.347656 L 147.789062 214.527344 L 142.238281 221.667969 C 143.871094 223.3125 143.863281 225.765625 142.21875 227.398438 C 141.398438 228.214844 140.375 228.617188 139.351562 228.617188 Z M 139.351562 228.617188 " fill-opacity="1" fill-rule="evenodd"/></g></g></g><g clip-path="url(#6daf4fdd0f)"><g clip-path="url(#3e017d0737)"><g clip-path="url(#9f68081601)"><path fill="#93e85f" d="M 67.285156 361.15625 C 58.691406 361.128906 50.109375 357.824219 43.582031 351.253906 L 26.660156 334.007812 C 20.339844 327.644531 16.890625 319.246094 16.921875 310.242188 C 16.953125 301.445312 20.460938 292.863281 26.824219 286.746094 L 75.6875 238.21875 C 82.050781 231.898438 90.453125 228.445312 99.25 228.476562 C 108.253906 228.507812 116.628906 232.015625 122.949219 238.378906 L 124.171875 239.613281 C 125.804688 241.050781 125.796875 243.710938 124.152344 245.339844 C 122.511719 246.972656 120.054688 246.964844 118.425781 245.320312 L 117.609375 244.5 L 112.0625 251.4375 C 113.691406 253.078125 113.683594 255.738281 112.039062 257.371094 C 110.601562 259.003906 107.941406 258.992188 106.3125 257.351562 L 105.089844 256.121094 C 102.03125 253.039062 96.503906 253.019531 93.425781 256.078125 L 44.5625 304.609375 C 42.921875 306.035156 42.09375 308.28125 42.085938 310.328125 C 42.078125 312.578125 42.890625 314.832031 44.523438 316.269531 L 61.445312 333.515625 C 64.707031 336.59375 70.027344 336.613281 73.3125 333.554688 L 91.789062 315.203125 C 93.226562 313.574219 95.886719 313.582031 97.519531 315.226562 L 109.550781 327.339844 C 110.976562 328.773438 110.96875 331.433594 109.527344 333.066406 L 91.050781 351.417969 C 84.480469 357.941406 75.878906 361.1875 67.285156 361.15625 Z M 118.570312 322.253906 C 117.546875 322.25 116.320312 321.835938 115.707031 321.222656 L 103.679688 309.109375 C 102.046875 307.464844 102.054688 304.804688 103.699219 303.378906 L 122.175781 285.027344 C 123.613281 283.394531 124.4375 281.351562 124.445312 279.101562 C 124.453125 276.851562 123.644531 274.800781 122.214844 273.160156 L 120.992188 271.929688 C 119.359375 270.492188 119.371094 267.832031 121.011719 266.199219 C 122.65625 264.570312 125.109375 264.578125 126.742188 266.21875 L 133.71875 260.71875 L 133.105469 260.101562 C 131.472656 258.460938 131.484375 255.800781 133.125 254.167969 C 134.5625 252.742188 137.222656 252.75 138.855469 254.191406 L 140.078125 255.421875 C 153.128906 268.5625 153.054688 289.839844 139.914062 302.890625 L 121.4375 321.242188 C 120.617188 321.851562 119.59375 322.257812 118.570312 322.253906 Z M 118.570312 322.253906 " fill-opacity="1" fill-rule="evenodd"/></g></g></g><g clip-path="url(#b85b2bf0c9)"><g clip-path="url(#c57c877c6b)"><g clip-path="url(#b902eee40e)"><path fill="#93e85f" d="M 284.5 145.429688 C 275.90625 145.402344 267.324219 142.097656 260.800781 135.527344 L 259.574219 134.296875 C 258.148438 132.652344 258.15625 129.996094 259.59375 128.566406 C 261.238281 126.9375 263.898438 126.945312 265.527344 128.585938 L 272.300781 122.882812 L 271.6875 122.265625 C 270.058594 120.625 270.066406 118.167969 271.707031 116.535156 C 273.351562 114.90625 276.011719 114.914062 277.4375 116.554688 L 278.660156 117.789062 C 281.71875 120.867188 287.449219 120.886719 290.527344 117.828125 L 339.390625 69.300781 C 342.472656 66.039062 342.488281 60.71875 339.433594 57.433594 L 322.304688 40.394531 C 319.246094 37.3125 313.722656 37.292969 310.640625 40.351562 L 261.777344 88.882812 C 260.136719 90.308594 259.308594 92.554688 259.304688 94.601562 C 259.296875 96.851562 260.105469 99.105469 261.738281 100.542969 L 262.960938 101.773438 C 264.59375 103.417969 264.582031 106.078125 262.941406 107.503906 C 261.300781 109.136719 258.640625 109.125 257.007812 107.484375 L 250.03125 112.984375 L 250.847656 113.804688 C 252.480469 115.449219 252.472656 117.902344 250.828125 119.535156 C 249.1875 121.164062 246.527344 121.15625 245.097656 119.515625 L 243.875 118.28125 C 237.554688 111.917969 234.105469 103.515625 234.136719 94.71875 C 234.167969 85.71875 237.675781 77.339844 244.039062 71.019531 L 292.902344 22.492188 C 299.0625 16.167969 307.667969 12.71875 316.464844 12.75 C 325.46875 12.78125 333.84375 16.289062 340.164062 22.652344 L 357.292969 39.695312 C 370.34375 52.835938 370.269531 74.113281 357.128906 87.164062 L 308.265625 135.691406 C 301.699219 142.214844 293.09375 145.460938 284.5 145.429688 Z M 284.5 145.429688 " fill-opacity="1" fill-rule="evenodd"/></g></g></g><g clip-path="url(#5d575842d5)"><g clip-path="url(#892e8fad72)"><g clip-path="url(#db74838630)"><path fill="#93e85f" d="M 114.011719 278.65625 C 110.125 278.644531 106.652344 277.199219 103.796875 274.324219 C 98.292969 268.78125 98.324219 259.574219 103.867188 253.863281 L 150.882812 207.171875 C 153.757812 204.519531 157.242188 203.101562 161.128906 203.113281 C 165.015625 203.128906 168.691406 204.574219 171.34375 207.242188 C 173.992188 210.117188 175.617188 213.597656 175.605469 217.488281 C 175.59375 221.375 173.941406 225.050781 171.273438 227.703125 L 124.257812 274.394531 C 121.589844 277.25 117.902344 278.671875 114.011719 278.65625 Z M 114.011719 278.65625 " fill-opacity="1" fill-rule="evenodd"/></g></g></g><g clip-path="url(#b906a2ec34)"><g clip-path="url(#94928bbf37)"><g clip-path="url(#180e583d7a)"><path fill="#93e85f" d="M 222.621094 170.792969 C 218.734375 170.78125 215.261719 169.335938 212.40625 166.460938 C 209.753906 163.792969 208.335938 160.105469 208.347656 156.21875 C 208.363281 152.328125 209.804688 148.855469 212.476562 146 L 259.492188 99.308594 C 262.363281 96.65625 265.847656 95.238281 269.734375 95.25 C 273.625 95.265625 277.300781 96.710938 279.953125 99.378906 C 282.804688 102.253906 284.226562 105.734375 284.214844 109.625 C 284.199219 113.511719 282.753906 117.1875 279.882812 119.839844 L 232.867188 166.53125 C 230.195312 169.386719 226.507812 170.808594 222.621094 170.792969 Z M 222.621094 170.792969 " fill-opacity="1" fill-rule="evenodd"/></g></g></g><g clip-path="url(#decdc6bedc)"><g clip-path="url(#891df6147f)"><g clip-path="url(#0cb37da136)"><path fill="#93e85f" d="M 133.417969 169.054688 C 133.007812 169.054688 132.601562 168.847656 131.988281 168.640625 L 125.652344 166.367188 C 123.40625 165.542969 122.390625 163.289062 123.011719 161.039062 C 123.835938 158.996094 126.089844 157.980469 128.339844 158.601562 L 134.878906 161.078125 C 136.921875 161.699219 138.140625 164.160156 137.316406 166.203125 C 136.695312 167.839844 135.054688 169.058594 133.417969 169.054688 Z M 133.417969 169.054688 " fill-opacity="1" fill-rule="evenodd"/></g></g></g><g clip-path="url(#9dbc532751)"><g clip-path="url(#6257aff750)"><g clip-path="url(#807e2349c9)"><path fill="#93e85f" d="M 137.980469 151.472656 C 136.957031 151.46875 135.933594 151.261719 135.121094 150.441406 L 129.40625 145.304688 C 127.777344 143.867188 127.578125 141.414062 129.019531 139.574219 C 130.457031 137.945312 133.117188 137.75 134.75 139.1875 L 140.664062 144.320312 C 142.296875 145.761719 142.492188 148.421875 141.054688 150.050781 C 140.230469 151.074219 139.003906 151.476562 137.980469 151.472656 Z M 137.980469 151.472656 " fill-opacity="1" fill-rule="evenodd"/></g></g></g><g clip-path="url(#f2b853dad8)"><g clip-path="url(#d9f0f1180e)"><g clip-path="url(#f859f0760f)"><path fill="#93e85f" d="M 152.332031 142.726562 C 150.902344 142.71875 149.472656 141.898438 148.65625 140.667969 L 145.203125 134.105469 C 143.980469 132.058594 144.808594 129.605469 146.652344 128.585938 C 148.703125 127.570312 151.15625 128.195312 152.375 130.246094 L 155.832031 136.597656 C 156.847656 138.648438 156.226562 141.101562 154.175781 142.117188 C 153.5625 142.523438 152.945312 142.726562 152.332031 142.726562 Z M 152.332031 142.726562 " fill-opacity="1" fill-rule="evenodd"/></g></g></g><g clip-path="url(#f874249c61)"><g clip-path="url(#820d09adb5)"><g clip-path="url(#8766af9032)"><path fill="#93e85f" d="M 145.546875 330.941406 C 145.136719 330.9375 144.730469 330.734375 144.320312 330.730469 L 137.167969 328.25 C 135.125 327.628906 133.90625 325.171875 134.730469 323.128906 C 135.351562 320.878906 137.808594 319.863281 139.855469 320.484375 L 147.007812 322.964844 C 149.050781 323.585938 150.269531 326.046875 149.445312 328.089844 C 148.824219 329.722656 147.390625 330.945312 145.546875 330.941406 Z M 145.546875 330.941406 " fill-opacity="1" fill-rule="evenodd"/></g></g></g></svg>