<svg xmlns="http://www.w3.org/2000/svg" xmlns:xlink="http://www.w3.org/1999/xlink" width="500" zoomAndPan="magnify" viewBox="0 0 375 374.999991" height="500" preserveAspectRatio="xMidYMid meet" version="1.0"><metadata><ContainsAiGeneratedContent>Yes</ContainsAiGeneratedContent></metadata><defs><clipPath id="7ae987f09e"><path d="M 4.992188 70 L 365.742188 70 L 365.742188 305 L 4.992188 305 Z M 4.992188 70 " clip-rule="nonzero"/></clipPath><clipPath id="22388b44b2"><path d="M 275.089844 266.390625 L 369 266.390625 L 369 306.320312 L 275.089844 306.320312 Z M 275.089844 266.390625 " clip-rule="nonzero"/></clipPath><clipPath id="7ef606c9cd"><path d="M 0.0898438 0.390625 L 94 0.390625 L 94 40.320312 L 0.0898438 40.320312 Z M 0.0898438 0.390625 " clip-rule="nonzero"/></clipPath><clipPath id="5d0e1462f4"><rect x="0" width="94" y="0" height="41"/></clipPath><clipPath id="44b5d36828"><path d="M 328.558594 211.277344 L 368.988281 211.277344 L 368.988281 301.390625 L 328.558594 301.390625 Z M 328.558594 211.277344 " clip-rule="nonzero"/></clipPath><clipPath id="f29a99499c"><path d="M 0.558594 0.277344 L 40.988281 0.277344 L 40.988281 90.390625 L 0.558594 90.390625 Z M 0.558594 0.277344 " clip-rule="nonzero"/></clipPath><clipPath id="636169ead7"><rect x="0" width="41" y="0" height="91"/></clipPath></defs><g clip-path="url(#7ae987f09e)"><path fill="#1b575f" d="M 329.4375 214.546875 L 329.4375 243.386719 L 176.222656 90.171875 L 113.140625 153.257812 L 30.246094 70.328125 L 4.992188 95.582031 L 113.140625 203.730469 L 176.222656 140.644531 L 304.214844 268.605469 L 275.378906 268.605469 L 275.378906 304.675781 L 365.507812 304.675781 L 365.507812 214.546875 L 329.4375 214.546875 " fill-opacity="1" fill-rule="nonzero"/></g><g clip-path="url(#22388b44b2)"><g transform="matrix(1, 0, 0, 1, 275, 266)"><g clip-path="url(#5d0e1462f4)"><g clip-path="url(#7ef606c9cd)"><path fill="#93e85f" d="M 0.0898438 0.390625 L 93.988281 0.390625 L 93.988281 40.320312 L 0.0898438 40.320312 Z M 0.0898438 0.390625 " fill-opacity="1" fill-rule="nonzero"/></g></g></g></g><g clip-path="url(#44b5d36828)"><g transform="matrix(1, 0, 0, 1, 328, 211)"><g clip-path="url(#636169ead7)"><g clip-path="url(#f29a99499c)"><path fill="#93e85f" d="M 40.988281 0.277344 L 40.988281 90.453125 L 0.558594 90.453125 L 0.558594 0.277344 Z M 40.988281 0.277344 " fill-opacity="1" fill-rule="nonzero"/></g></g></g></g></svg>