<svg xmlns="http://www.w3.org/2000/svg" xmlns:xlink="http://www.w3.org/1999/xlink" width="500" zoomAndPan="magnify" viewBox="0 0 375 374.999991" height="500" preserveAspectRatio="xMidYMid meet" version="1.0"><metadata><ContainsAiGeneratedContent>Yes</ContainsAiGeneratedContent></metadata><defs><clipPath id="50c3705653"><path d="M 244 231 L 299 231 L 299 369.390625 L 244 369.390625 Z M 244 231 " clip-rule="nonzero"/></clipPath><clipPath id="2670dc16d5"><path d="M 148 183 L 203 183 L 203 369.390625 L 148 369.390625 Z M 148 183 " clip-rule="nonzero"/></clipPath><clipPath id="3650659310"><path d="M 45 137 L 100 137 L 100 369.390625 L 45 369.390625 Z M 45 137 " clip-rule="nonzero"/></clipPath><clipPath id="bb9f8c6e3c"><path d="M 3.164062 73.890625 L 372 73.890625 L 372 290 L 3.164062 290 Z M 3.164062 73.890625 " clip-rule="nonzero"/></clipPath><clipPath id="1153448efe"><path d="M 39.808594 136.246094 L 102.359375 136.246094 L 102.359375 375 L 39.808594 375 Z M 39.808594 136.246094 " clip-rule="nonzero"/></clipPath><clipPath id="6ab6b1eca9"><path d="M 0.808594 0.246094 L 63.359375 0.246094 L 63.359375 239 L 0.808594 239 Z M 0.808594 0.246094 " clip-rule="nonzero"/></clipPath><clipPath id="0951e00060"><rect x="0" width="64" y="0" height="239"/></clipPath><clipPath id="44cf718cfb"><path d="M 241.609375 231.015625 L 304.160156 231.015625 L 304.160156 375 L 241.609375 375 Z M 241.609375 231.015625 " clip-rule="nonzero"/></clipPath><clipPath id="be826871ee"><path d="M 0.609375 0.015625 L 63.160156 0.015625 L 63.160156 144 L 0.609375 144 Z M 0.609375 0.015625 " clip-rule="nonzero"/></clipPath><clipPath id="e080c88d25"><rect x="0" width="64" y="0" height="144"/></clipPath><clipPath id="9e0a95b7d2"><path d="M 144.445312 182.5625 L 206.996094 182.5625 L 206.996094 375 L 144.445312 375 Z M 144.445312 182.5625 " clip-rule="nonzero"/></clipPath><clipPath id="059f91c090"><path d="M 0.445312 0.5625 L 62.996094 0.5625 L 62.996094 193 L 0.445312 193 Z M 0.445312 0.5625 " clip-rule="nonzero"/></clipPath><clipPath id="7dadcf2647"><rect x="0" width="63" y="0" height="193"/></clipPath></defs><g clip-path="url(#50c3705653)"><path fill="#93e85f" d="M 244.585938 231.445312 L 298.6875 231.445312 L 298.6875 369.25 L 244.585938 369.25 Z M 244.585938 231.445312 " fill-opacity="1" fill-rule="nonzero"/></g><g clip-path="url(#2670dc16d5)"><path fill="#93e85f" d="M 148.101562 183.648438 L 202.203125 183.648438 L 202.203125 369.253906 L 148.101562 369.253906 Z M 148.101562 183.648438 " fill-opacity="1" fill-rule="nonzero"/></g><g clip-path="url(#3650659310)"><path fill="#93e85f" d="M 45.320312 137.066406 L 99.421875 137.066406 L 99.421875 369.253906 L 45.320312 369.253906 Z M 45.320312 137.066406 " fill-opacity="1" fill-rule="nonzero"/></g><g clip-path="url(#bb9f8c6e3c)"><path fill="#93e85f" d="M 371.589844 289.433594 L 359.773438 226.816406 L 342.539062 241.636719 L 305.40625 200.066406 L 251.160156 200.066406 L 203.550781 149.832031 L 149.269531 149.832031 L 101.660156 103.246094 L 47.328125 103.246094 L 14.144531 73.871094 L 3.417969 85.988281 L 41.1875 119.4375 L 95.058594 119.4375 L 142.667969 166.019531 L 196.589844 166.019531 L 244.199219 216.257812 L 298.160156 216.257812 L 330.261719 252.1875 L 311.460938 268.355469 Z M 371.589844 289.433594 " fill-opacity="1" fill-rule="nonzero"/></g><g clip-path="url(#1153448efe)"><g transform="matrix(1, 0, 0, 1, 39, 136)"><g clip-path="url(#0951e00060)"><g clip-path="url(#6ab6b1eca9)"><path fill="#1b575f" d="M 0.808594 0.246094 L 63.359375 0.246094 L 63.359375 238.96875 L 0.808594 238.96875 Z M 0.808594 0.246094 " fill-opacity="1" fill-rule="nonzero"/></g></g></g></g><g clip-path="url(#44cf718cfb)"><g transform="matrix(1, 0, 0, 1, 241, 231)"><g clip-path="url(#e080c88d25)"><g clip-path="url(#be826871ee)"><path fill="#1b575f" d="M 0.609375 0.015625 L 63.160156 0.015625 L 63.160156 143.933594 L 0.609375 143.933594 Z M 0.609375 0.015625 " fill-opacity="1" fill-rule="nonzero"/></g></g></g></g><g clip-path="url(#9e0a95b7d2)"><g transform="matrix(1, 0, 0, 1, 144, 182)"><g clip-path="url(#7dadcf2647)"><g clip-path="url(#059f91c090)"><path fill="#93e85f" d="M 0.445312 0.5625 L 62.996094 0.5625 L 62.996094 201.660156 L 0.445312 201.660156 Z M 0.445312 0.5625 " fill-opacity="1" fill-rule="nonzero"/></g></g></g></g></svg>