<svg xmlns="http://www.w3.org/2000/svg" xmlns:xlink="http://www.w3.org/1999/xlink" width="500" zoomAndPan="magnify" viewBox="0 0 375 374.999991" height="500" preserveAspectRatio="xMidYMid meet" version="1.0"><metadata><ContainsAiGeneratedContent>Yes</ContainsAiGeneratedContent></metadata><defs><clipPath id="bcf0d136dd"><path d="M 190.714844 130 L 321 130 L 321 243 L 190.714844 243 Z M 190.714844 130 " clip-rule="nonzero"/></clipPath><clipPath id="a90d87cf8e"><path d="M 190.714844 300 L 206 300 L 206 341 L 190.714844 341 Z M 190.714844 300 " clip-rule="nonzero"/></clipPath><clipPath id="7fea6eb9e2"><path d="M 190.714844 129 L 311 129 L 311 338 L 190.714844 338 Z M 190.714844 129 " clip-rule="nonzero"/></clipPath><clipPath id="dad7913802"><path d="M 190.714844 18 L 197 18 L 197 72 L 190.714844 72 Z M 190.714844 18 " clip-rule="nonzero"/></clipPath></defs><path fill="#1b575f" d="M 356.320312 204.527344 L 341.292969 214.476562 C 336.710938 217.480469 330.84375 215.40625 328.410156 210.683594 L 271.160156 123.945312 C 271.160156 123.875 271.160156 123.875 271.160156 123.875 C 267.796875 119.796875 268.226562 113.496094 272.804688 110.492188 C 272.804688 110.492188 287.761719 100.617188 287.761719 100.617188 C 294.917969 95.964844 303.507812 94.320312 311.738281 95.964844 C 320.039062 97.683594 327.265625 102.546875 331.917969 109.703125 L 365.339844 160.371094 C 375 175.042969 370.992188 194.796875 356.320312 204.527344 Z M 356.320312 204.527344 " fill-opacity="1" fill-rule="nonzero"/><path fill="#1b575f" d="M 320.753906 213.761719 C 318.320312 224.566406 318.535156 234.585938 312.308594 243.675781 C 311.09375 242.601562 309.804688 241.457031 308.375 240.597656 C 308.375 240.597656 227.71875 191.789062 227.71875 191.789062 C 227.363281 191.574219 227.074219 191.359375 226.71875 191.289062 C 216.125 185.277344 202.742188 185.921875 192.652344 193.007812 L 164.3125 213.042969 C 151.503906 221.273438 138.550781 205.101562 148.925781 194.007812 C 160.019531 182.488281 173.257812 166.3125 188.714844 160.945312 C 192.582031 159.371094 230.867188 143.199219 235.804688 141.121094 C 235.804688 141.121094 266.148438 131.03125 266.148438 131.03125 Z M 320.753906 213.761719 " fill-opacity="1" fill-rule="nonzero"/><path fill="#1b575f" d="M 205.320312 313.019531 C 205.460938 315.742188 204.605469 318.460938 203.101562 320.679688 C 203.101562 320.679688 194.082031 333.847656 194.082031 333.847656 L 193.726562 334.417969 C 184.566406 350.378906 161.523438 337.136719 171.183594 321.394531 C 171.539062 320.75 176.980469 313.09375 177.125 312.734375 C 177.125 312.734375 177.195312 312.734375 177.195312 312.664062 C 178.054688 311.304688 180.34375 308.082031 181.273438 306.722656 C 188.859375 296.5625 204.820312 299.925781 205.320312 313.019531 Z M 205.320312 313.019531 " fill-opacity="1" fill-rule="nonzero"/><path fill="#1b575f" d="M 172.472656 300.785156 C 172.542969 303.359375 171.828125 306.007812 170.46875 308.15625 C 170.46875 308.15625 159.734375 323.753906 159.734375 323.753906 C 149.929688 337.351562 129.675781 323.96875 138.046875 309.65625 C 141.699219 304.574219 146.207031 297.132812 150.144531 292.410156 C 158.160156 283.964844 172.183594 289.191406 172.472656 300.785156 Z M 172.472656 300.785156 " fill-opacity="1" fill-rule="nonzero"/><path fill="#1b575f" d="M 140.554688 286.972656 C 140.695312 289.761719 139.835938 292.625 138.261719 294.988281 C 136.617188 297.347656 133.109375 302.574219 131.464844 304.933594 C 131.394531 304.933594 131.394531 305.003906 131.394531 305.003906 L 127.816406 310.230469 C 120.085938 321.464844 102.195312 314.378906 104.339844 300.925781 C 104.628906 297.0625 109.496094 291.550781 111.425781 288.402344 L 111.5 288.402344 L 117.222656 280.101562 C 123.949219 270.226562 140.265625 275.019531 140.554688 286.972656 Z M 140.554688 286.972656 " fill-opacity="1" fill-rule="nonzero"/><path fill="#1b575f" d="M 114.648438 267.074219 C 114.289062 270.152344 112.070312 273.015625 110.351562 275.519531 L 107.707031 279.386719 L 107.632812 279.386719 L 101.980469 287.617188 C 92.03125 301.5 71.351562 287.257812 80.652344 272.945312 C 80.652344 272.945312 83.730469 268.507812 83.730469 268.507812 C 83.730469 268.4375 83.730469 268.4375 83.730469 268.4375 C 85.519531 266.074219 90.816406 257.628906 92.890625 255.625 C 101.621094 246.964844 116.722656 254.980469 114.648438 267.074219 Z M 114.648438 267.074219 " fill-opacity="1" fill-rule="nonzero"/><path fill="#1b575f" d="M 310.164062 260.5625 C 308.945312 269.367188 298.785156 274.304688 291.199219 269.796875 L 242.535156 240.097656 C 240.601562 238.949219 238.097656 239.523438 236.953125 241.457031 C 235.804688 243.386719 236.378906 245.894531 238.3125 247.039062 L 287.191406 276.878906 C 287.476562 276.808594 299.070312 284.25 299.355469 284.25 C 309.160156 289.691406 306.65625 305.578125 295.707031 307.867188 C 292.34375 308.65625 288.90625 308.15625 285.902344 306.292969 L 266.578125 294.628906 C 266.578125 294.628906 266.578125 294.628906 266.507812 294.628906 L 226.074219 268.722656 C 224.140625 267.503906 221.636719 268.007812 220.492188 269.9375 C 219.273438 271.800781 219.777344 274.304688 221.707031 275.519531 L 262.070312 301.425781 C 262.070312 301.425781 262.070312 301.425781 262.140625 301.425781 C 275.882812 311.015625 262.714844 331.554688 248.332031 323.253906 C 224.285156 308.65625 224.070312 308.582031 223.925781 308.511719 C 248.332031 323.253906 224.425781 308.726562 224.425781 308.726562 C 221.707031 306.722656 218.628906 305.9375 216.769531 308.65625 C 215.480469 310.515625 215.984375 312.949219 217.773438 314.238281 C 231.296875 324.472656 217.128906 344.582031 203.03125 335.492188 L 209.972656 325.402344 C 213.40625 320.464844 214.480469 314.164062 213.046875 308.367188 C 209.828125 294.199219 191.9375 287.757812 180.273438 296.488281 C 179.554688 293.269531 178.054688 290.335938 175.976562 287.757812 C 169.464844 279.671875 157.085938 277.882812 148.425781 283.394531 C 146.277344 272.515625 135.042969 264.785156 124.09375 266.933594 C 123.734375 267.074219 123.304688 267.074219 122.949219 267.148438 C 124.664062 249.972656 105.558594 237.949219 90.957031 247.179688 C 86.234375 249.613281 82.441406 256.484375 79.507812 260.707031 C 72.566406 255.984375 68.128906 246.894531 64.265625 239.667969 C 59.972656 231.652344 56.464844 223.277344 53.816406 214.761719 L 109.78125 129.957031 L 136.761719 134.609375 C 155.367188 140.476562 170.46875 145.917969 185.28125 153.644531 C 168.605469 160.015625 155.082031 175.757812 143.128906 188.496094 C 126.167969 206.820312 147.996094 233.367188 169.035156 219.773438 C 169.035156 219.773438 197.375 199.734375 197.375 199.734375 C 205.105469 194.367188 214.980469 193.867188 222.996094 198.589844 C 223.496094 198.589844 303.792969 247.46875 304.222656 247.683594 C 308.515625 250.1875 311.09375 255.410156 310.164062 260.5625 Z M 310.164062 260.5625 " fill-opacity="1" fill-rule="nonzero"/><path fill="#1b575f" d="M 104.699219 122.660156 C 104.554688 123.015625 46.015625 211.398438 45.875 211.828125 C 43.296875 215.980469 37.785156 217.195312 33.707031 214.476562 L 18.679688 204.527344 C 4.007812 194.796875 0 175.042969 9.660156 160.371094 L 43.082031 109.703125 C 52.816406 94.890625 72.78125 91.097656 87.308594 100.617188 C 87.308594 100.617188 102.265625 110.492188 102.265625 110.492188 C 106.203125 113.070312 107.347656 118.722656 104.699219 122.660156 Z M 104.699219 122.660156 " fill-opacity="1" fill-rule="nonzero"/><path fill="#1b575f" d="M 150.644531 86.589844 C 149.5 91.527344 142.269531 92.457031 139.910156 88.019531 C 139.910156 88.019531 119.511719 52.667969 119.511719 52.667969 C 115.792969 46.011719 125.738281 40.144531 129.675781 46.800781 C 129.675781 46.800781 150.070312 82.082031 150.070312 82.082031 C 150.789062 83.441406 151 85.015625 150.644531 86.589844 Z M 150.644531 86.589844 " fill-opacity="1" fill-rule="nonzero"/><path fill="#1b575f" d="M 196.945312 25.402344 L 196.945312 66.195312 C 196.804688 73.851562 185.351562 73.921875 185.210938 66.195312 C 185.210938 66.195312 185.210938 25.402344 185.210938 25.402344 C 185.351562 17.671875 196.804688 17.742188 196.945312 25.402344 Z M 196.945312 25.402344 " fill-opacity="1" fill-rule="nonzero"/><path fill="#1b575f" d="M 262.714844 52.667969 L 242.320312 88.019531 C 239.957031 92.457031 232.730469 91.527344 231.582031 86.589844 C 231.15625 85.015625 231.371094 83.441406 232.15625 82.152344 L 252.550781 46.800781 C 256.488281 40.144531 266.4375 45.941406 262.714844 52.667969 Z M 262.714844 52.667969 " fill-opacity="1" fill-rule="nonzero"/><path fill="#93e85f" d="M 356.320312 203.777344 L 341.292969 213.726562 C 336.710938 216.730469 330.84375 214.65625 328.410156 209.933594 L 271.160156 123.195312 C 271.160156 123.125 271.160156 123.125 271.160156 123.125 C 267.796875 119.046875 268.226562 112.746094 272.804688 109.742188 C 272.804688 109.742188 287.761719 99.867188 287.761719 99.867188 C 294.917969 95.214844 303.507812 93.570312 311.738281 95.214844 C 320.039062 96.933594 327.265625 101.796875 331.917969 108.953125 L 365.339844 159.621094 C 375 174.292969 370.992188 194.046875 356.320312 203.777344 Z M 356.320312 203.777344 " fill-opacity="1" fill-rule="nonzero"/><g clip-path="url(#bcf0d136dd)"><path fill="#93e85f" d="M 320.753906 213.011719 C 318.320312 223.816406 318.535156 233.835938 312.308594 242.925781 C 311.09375 241.851562 309.804688 240.707031 308.375 239.847656 C 308.375 239.847656 227.71875 191.039062 227.71875 191.039062 C 227.363281 190.824219 227.074219 190.609375 226.71875 190.539062 C 216.125 184.527344 202.742188 185.171875 192.652344 192.257812 L 164.3125 212.292969 C 151.503906 220.523438 138.550781 204.351562 148.925781 193.257812 C 160.019531 181.738281 173.257812 165.5625 188.714844 160.195312 C 192.582031 158.621094 230.867188 142.449219 235.804688 140.371094 C 235.804688 140.371094 266.148438 130.28125 266.148438 130.28125 Z M 320.753906 213.011719 " fill-opacity="1" fill-rule="nonzero"/></g><g clip-path="url(#a90d87cf8e)"><path fill="#93e85f" d="M 205.320312 312.269531 C 205.460938 314.992188 204.605469 317.710938 203.101562 319.929688 C 203.101562 319.929688 194.082031 333.097656 194.082031 333.097656 L 193.726562 333.667969 C 184.566406 349.628906 161.523438 336.386719 171.183594 320.644531 C 171.539062 320 176.980469 312.34375 177.125 311.984375 C 177.125 311.984375 177.195312 311.984375 177.195312 311.914062 C 178.054688 310.554688 180.34375 307.332031 181.273438 305.972656 C 188.859375 295.8125 204.820312 299.175781 205.320312 312.269531 Z M 205.320312 312.269531 " fill-opacity="1" fill-rule="nonzero"/></g><g clip-path="url(#7fea6eb9e2)"><path fill="#93e85f" d="M 310.164062 259.8125 C 308.945312 268.617188 298.785156 273.554688 291.199219 269.046875 L 242.535156 239.347656 C 240.601562 238.199219 238.097656 238.773438 236.953125 240.707031 C 235.804688 242.636719 236.378906 245.144531 238.3125 246.289062 L 287.191406 276.128906 C 287.476562 276.058594 299.070312 283.5 299.355469 283.5 C 309.160156 288.941406 306.65625 304.828125 295.707031 307.117188 C 292.34375 307.90625 288.90625 307.40625 285.902344 305.542969 L 266.578125 293.878906 C 266.578125 293.878906 266.578125 293.878906 266.507812 293.878906 L 226.074219 267.972656 C 224.140625 266.753906 221.636719 267.257812 220.492188 269.1875 C 219.273438 271.050781 219.777344 273.554688 221.707031 274.769531 L 262.070312 300.675781 C 262.070312 300.675781 262.070312 300.675781 262.140625 300.675781 C 275.882812 310.265625 262.714844 330.804688 248.332031 322.503906 C 224.285156 307.90625 224.070312 307.832031 223.925781 307.761719 C 248.332031 322.503906 224.425781 307.976562 224.425781 307.976562 C 221.707031 305.972656 218.628906 305.1875 216.769531 307.90625 C 215.480469 309.765625 215.984375 312.199219 217.773438 313.488281 C 231.296875 323.722656 217.128906 343.832031 203.03125 334.742188 L 209.972656 324.652344 C 213.40625 319.714844 214.480469 313.414062 213.046875 307.617188 C 209.828125 293.449219 191.9375 287.007812 180.273438 295.738281 C 179.554688 292.519531 178.054688 289.585938 175.976562 287.007812 C 169.464844 278.921875 157.085938 277.132812 148.425781 282.644531 C 146.277344 271.765625 135.042969 264.035156 124.09375 266.183594 C 123.734375 266.324219 123.304688 266.324219 122.949219 266.398438 C 124.664062 249.222656 105.558594 237.199219 90.957031 246.429688 C 86.234375 248.863281 82.441406 255.734375 79.507812 259.957031 C 72.566406 255.234375 68.128906 246.144531 64.265625 238.917969 C 59.972656 230.902344 56.464844 222.527344 53.816406 214.011719 L 109.78125 129.207031 L 136.761719 133.859375 C 155.367188 139.726562 170.46875 145.167969 185.28125 152.894531 C 168.605469 159.265625 155.082031 175.007812 143.128906 187.746094 C 126.167969 206.070312 147.996094 232.617188 169.035156 219.023438 C 169.035156 219.023438 197.375 198.984375 197.375 198.984375 C 205.105469 193.617188 214.980469 193.117188 222.996094 197.839844 C 223.496094 197.839844 303.792969 246.71875 304.222656 246.933594 C 308.515625 249.4375 311.09375 254.660156 310.164062 259.8125 Z M 310.164062 259.8125 " fill-opacity="1" fill-rule="nonzero"/></g><g clip-path="url(#dad7913802)"><path fill="#93e85f" d="M 196.945312 24.652344 L 196.945312 65.445312 C 196.804688 73.101562 185.351562 73.171875 185.210938 65.445312 C 185.210938 65.445312 185.210938 24.652344 185.210938 24.652344 C 185.351562 16.921875 196.804688 16.992188 196.945312 24.652344 Z M 196.945312 24.652344 " fill-opacity="1" fill-rule="nonzero"/></g><path fill="#93e85f" d="M 262.714844 51.917969 L 242.320312 87.269531 C 239.957031 91.707031 232.730469 90.777344 231.582031 85.839844 C 231.15625 84.265625 231.371094 82.691406 232.15625 81.402344 L 252.550781 46.050781 C 256.488281 39.394531 266.4375 45.191406 262.714844 51.917969 Z M 262.714844 51.917969 " fill-opacity="1" fill-rule="nonzero"/></svg>