<svg xmlns="http://www.w3.org/2000/svg" xmlns:xlink="http://www.w3.org/1999/xlink" width="500" zoomAndPan="magnify" viewBox="0 0 375 374.999991" height="500" preserveAspectRatio="xMidYMid meet" version="1.0"><metadata><ContainsAiGeneratedContent>Yes</ContainsAiGeneratedContent></metadata><defs><clipPath id="aebb9e2e76"><path d="M 153.761719 8 L 370.511719 8 L 370.511719 245.242188 L 153.761719 245.242188 Z M 153.761719 8 " clip-rule="nonzero"/></clipPath><clipPath id="06f7b74287"><path d="M 11 141 L 220 141 L 220 368 L 11 368 Z M 11 141 " clip-rule="nonzero"/></clipPath><clipPath id="48618f38b3"><path d="M 12.832031 135.527344 L 223.523438 140.519531 L 218.035156 372.203125 L 7.34375 367.210938 Z M 12.832031 135.527344 " clip-rule="nonzero"/></clipPath><clipPath id="16c9c67ceb"><path d="M 12.832031 135.527344 L 223.523438 140.519531 L 218.035156 372.203125 L 7.34375 367.210938 Z M 12.832031 135.527344 " clip-rule="nonzero"/></clipPath><clipPath id="8329d470ab"><path d="M 9 139 L 222 139 L 222 370 L 9 370 Z M 9 139 " clip-rule="nonzero"/></clipPath><clipPath id="31eeea2858"><path d="M 12.832031 135.527344 L 223.523438 140.519531 L 218.035156 372.203125 L 7.34375 367.210938 Z M 12.832031 135.527344 " clip-rule="nonzero"/></clipPath><clipPath id="7cc038eccc"><path d="M 12.832031 135.527344 L 223.523438 140.519531 L 218.035156 372.203125 L 7.34375 367.210938 Z M 12.832031 135.527344 " clip-rule="nonzero"/></clipPath><clipPath id="0600be6b9d"><path d="M 111 205 L 201 205 L 201 351 L 111 351 Z M 111 205 " clip-rule="nonzero"/></clipPath><clipPath id="2da8e0ea5b"><path d="M 12.832031 135.527344 L 223.523438 140.519531 L 218.035156 372.203125 L 7.34375 367.210938 Z M 12.832031 135.527344 " clip-rule="nonzero"/></clipPath><clipPath id="1b939f10ee"><path d="M 12.832031 135.527344 L 223.523438 140.519531 L 218.035156 372.203125 L 7.34375 367.210938 Z M 12.832031 135.527344 " clip-rule="nonzero"/></clipPath><clipPath id="a84f5bc195"><path d="M 31 201 L 117 201 L 117 351 L 31 351 Z M 31 201 " clip-rule="nonzero"/></clipPath><clipPath id="1185062216"><path d="M 12.832031 135.527344 L 223.523438 140.519531 L 218.035156 372.203125 L 7.34375 367.210938 Z M 12.832031 135.527344 " clip-rule="nonzero"/></clipPath><clipPath id="506ba71e2e"><path d="M 12.832031 135.527344 L 223.523438 140.519531 L 218.035156 372.203125 L 7.34375 367.210938 Z M 12.832031 135.527344 " clip-rule="nonzero"/></clipPath><clipPath id="f7f2fcd305"><path d="M 31 201 L 201 201 L 201 249 L 31 249 Z M 31 201 " clip-rule="nonzero"/></clipPath><clipPath id="89331f42cc"><path d="M 12.832031 135.527344 L 223.523438 140.519531 L 218.035156 372.203125 L 7.34375 367.210938 Z M 12.832031 135.527344 " clip-rule="nonzero"/></clipPath><clipPath id="3194a70880"><path d="M 12.832031 135.527344 L 223.523438 140.519531 L 218.035156 372.203125 L 7.34375 367.210938 Z M 12.832031 135.527344 " clip-rule="nonzero"/></clipPath><clipPath id="540552b8d5"><path d="M 25 221 L 102 221 L 102 345 L 25 345 Z M 25 221 " clip-rule="nonzero"/></clipPath><clipPath id="514e7a26c5"><path d="M 12.832031 135.527344 L 223.523438 140.519531 L 218.035156 372.203125 L 7.34375 367.210938 Z M 12.832031 135.527344 " clip-rule="nonzero"/></clipPath><clipPath id="6ad1f53e61"><path d="M 12.832031 135.527344 L 223.523438 140.519531 L 218.035156 372.203125 L 7.34375 367.210938 Z M 12.832031 135.527344 " clip-rule="nonzero"/></clipPath><clipPath id="24399ad441"><path d="M 23 219 L 104 219 L 104 347 L 23 347 Z M 23 219 " clip-rule="nonzero"/></clipPath><clipPath id="112a9bf4a9"><path d="M 12.832031 135.527344 L 223.523438 140.519531 L 218.035156 372.203125 L 7.34375 367.210938 Z M 12.832031 135.527344 " clip-rule="nonzero"/></clipPath><clipPath id="5490e30395"><path d="M 12.832031 135.527344 L 223.523438 140.519531 L 218.035156 372.203125 L 7.34375 367.210938 Z M 12.832031 135.527344 " clip-rule="nonzero"/></clipPath><clipPath id="43cdec9d84"><path d="M 103 154 L 132 154 L 132 172 L 103 172 Z M 103 154 " clip-rule="nonzero"/></clipPath><clipPath id="bb551de078"><path d="M 12.832031 135.527344 L 223.523438 140.519531 L 218.035156 372.203125 L 7.34375 367.210938 Z M 12.832031 135.527344 " clip-rule="nonzero"/></clipPath><clipPath id="acde0fda5e"><path d="M 12.832031 135.527344 L 223.523438 140.519531 L 218.035156 372.203125 L 7.34375 367.210938 Z M 12.832031 135.527344 " clip-rule="nonzero"/></clipPath><clipPath id="b3977edcec"><path d="M 101 152 L 134 152 L 134 173 L 101 173 Z M 101 152 " clip-rule="nonzero"/></clipPath><clipPath id="f9bfdb7197"><path d="M 12.832031 135.527344 L 223.523438 140.519531 L 218.035156 372.203125 L 7.34375 367.210938 Z M 12.832031 135.527344 " clip-rule="nonzero"/></clipPath><clipPath id="2cff63907c"><path d="M 12.832031 135.527344 L 223.523438 140.519531 L 218.035156 372.203125 L 7.34375 367.210938 Z M 12.832031 135.527344 " clip-rule="nonzero"/></clipPath><clipPath id="c2623c015b"><path d="M 101 217 L 131 217 L 131 235 L 101 235 Z M 101 217 " clip-rule="nonzero"/></clipPath><clipPath id="c5701a5ce6"><path d="M 12.832031 135.527344 L 223.523438 140.519531 L 218.035156 372.203125 L 7.34375 367.210938 Z M 12.832031 135.527344 " clip-rule="nonzero"/></clipPath><clipPath id="3edb232bbe"><path d="M 12.832031 135.527344 L 223.523438 140.519531 L 218.035156 372.203125 L 7.34375 367.210938 Z M 12.832031 135.527344 " clip-rule="nonzero"/></clipPath><clipPath id="2aa0528e3e"><path d="M 99 216 L 132 216 L 132 237 L 99 237 Z M 99 216 " clip-rule="nonzero"/></clipPath><clipPath id="de7ec8490e"><path d="M 12.832031 135.527344 L 223.523438 140.519531 L 218.035156 372.203125 L 7.34375 367.210938 Z M 12.832031 135.527344 " clip-rule="nonzero"/></clipPath><clipPath id="18760170b2"><path d="M 12.832031 135.527344 L 223.523438 140.519531 L 218.035156 372.203125 L 7.34375 367.210938 Z M 12.832031 135.527344 " clip-rule="nonzero"/></clipPath><clipPath id="aa0a0fc86b"><path d="M 126 225 L 205 225 L 205 347 L 126 347 Z M 126 225 " clip-rule="nonzero"/></clipPath><clipPath id="cad98056ec"><path d="M 12.832031 135.527344 L 223.523438 140.519531 L 218.035156 372.203125 L 7.34375 367.210938 Z M 12.832031 135.527344 " clip-rule="nonzero"/></clipPath><clipPath id="5b78b4bdd2"><path d="M 12.832031 135.527344 L 223.523438 140.519531 L 218.035156 372.203125 L 7.34375 367.210938 Z M 12.832031 135.527344 " clip-rule="nonzero"/></clipPath><clipPath id="a10698ae3c"><path d="M 124 223 L 207 223 L 207 348 L 124 348 Z M 124 223 " clip-rule="nonzero"/></clipPath><clipPath id="f363c9186d"><path d="M 12.832031 135.527344 L 223.523438 140.519531 L 218.035156 372.203125 L 7.34375 367.210938 Z M 12.832031 135.527344 " clip-rule="nonzero"/></clipPath><clipPath id="40c3108356"><path d="M 12.832031 135.527344 L 223.523438 140.519531 L 218.035156 372.203125 L 7.34375 367.210938 Z M 12.832031 135.527344 " clip-rule="nonzero"/></clipPath></defs><path fill="#93e85f" d="M 283.457031 237.777344 L 347.429688 200.832031 C 360.613281 193.203125 368.679688 179.144531 368.679688 163.996094 L 368.679688 90.109375 C 368.679688 74.960938 360.613281 60.902344 347.429688 53.273438 L 283.457031 16.332031 C 270.378906 8.703125 254.140625 8.703125 240.957031 16.332031 L 176.984375 53.273438 C 163.796875 60.902344 155.734375 74.960938 155.734375 90.109375 L 155.734375 163.996094 C 155.734375 179.144531 163.796875 193.203125 176.984375 200.832031 L 240.957031 237.777344 C 254.140625 245.40625 270.378906 245.40625 283.457031 237.777344 Z M 283.457031 237.777344 " fill-opacity="1" fill-rule="nonzero"/><g clip-path="url(#aebb9e2e76)"><path fill="#000000" d="M 262.207031 245.40625 C 254.46875 245.40625 246.839844 243.441406 239.972656 239.410156 L 176.003906 202.46875 C 162.273438 194.621094 153.773438 179.910156 153.773438 163.996094 L 153.773438 90.109375 C 153.773438 74.308594 162.273438 59.488281 176.003906 51.640625 L 239.972656 14.695312 C 253.707031 6.742188 270.707031 6.742188 284.4375 14.695312 L 348.410156 51.640625 C 362.140625 59.59375 370.640625 74.308594 370.640625 90.109375 L 370.640625 163.996094 C 370.640625 179.800781 362.140625 194.621094 348.410156 202.46875 L 284.4375 239.410156 C 277.574219 243.441406 269.945312 245.40625 262.207031 245.40625 Z M 262.207031 12.515625 C 255.230469 12.515625 248.148438 14.371094 241.9375 17.964844 L 177.964844 54.910156 C 165.433594 62.101562 157.695312 75.617188 157.695312 90.109375 L 157.695312 163.996094 C 157.695312 178.492188 165.433594 191.894531 177.964844 199.199219 L 241.9375 236.140625 C 254.46875 243.335938 270.050781 243.335938 282.476562 236.140625 L 346.445312 199.199219 C 358.980469 192.003906 366.71875 178.492188 366.71875 163.996094 L 366.71875 90.109375 C 366.71875 75.617188 358.980469 62.210938 346.445312 54.910156 L 282.585938 17.964844 C 276.265625 14.371094 269.289062 12.515625 262.207031 12.515625 Z M 262.207031 12.515625 " fill-opacity="1" fill-rule="nonzero"/></g><path fill="#000000" d="M 261.007812 123.128906 C 253.269531 123.128906 245.640625 121.167969 238.777344 117.246094 L 174.695312 80.191406 C 173.824219 79.648438 173.496094 78.449219 174.042969 77.578125 C 174.585938 76.707031 175.785156 76.378906 176.65625 76.921875 L 240.628906 113.867188 C 253.160156 121.058594 268.746094 121.058594 281.167969 113.867188 L 345.140625 76.921875 C 346.011719 76.378906 347.210938 76.707031 347.753906 77.578125 C 348.300781 78.449219 347.972656 79.648438 347.101562 80.191406 L 283.128906 117.136719 C 276.375 121.167969 268.636719 123.128906 261.007812 123.128906 Z M 261.007812 123.128906 " fill-opacity="1" fill-rule="nonzero"/><path fill="#000000" d="M 261.007812 228.1875 C 259.917969 228.1875 259.046875 227.3125 259.046875 226.222656 L 259.046875 152.335938 C 259.046875 136.535156 267.546875 121.714844 281.277344 113.867188 L 345.25 76.921875 C 346.121094 76.378906 347.320312 76.707031 347.863281 77.578125 C 348.410156 78.449219 348.082031 79.648438 347.210938 80.191406 L 283.238281 117.136719 C 270.707031 124.328125 262.96875 137.84375 262.96875 152.335938 L 262.96875 226.222656 C 262.859375 227.3125 262.097656 228.1875 261.007812 228.1875 Z M 261.007812 228.1875 " fill-opacity="1" fill-rule="nonzero"/><path fill="#000000" d="M 261.007812 228.1875 C 259.917969 228.1875 259.046875 227.3125 259.046875 226.222656 L 259.046875 152.335938 C 259.046875 137.84375 251.308594 124.4375 238.777344 117.136719 L 174.695312 80.191406 C 173.824219 79.648438 173.496094 78.449219 174.042969 77.578125 C 174.585938 76.707031 175.785156 76.378906 176.65625 76.921875 L 240.628906 113.867188 C 254.359375 121.824219 262.859375 136.535156 262.859375 152.335938 L 262.859375 226.222656 C 262.859375 227.3125 262.097656 228.1875 261.007812 228.1875 Z M 261.007812 228.1875 " fill-opacity="1" fill-rule="nonzero"/><path stroke-linecap="round" transform="matrix(1.08979, 0, 0, 1.08979, 153.772127, 8.702482)" fill-opacity="1" fill="#000000" fill-rule="nonzero" stroke-linejoin="round" d="M 115.999741 61.899693 C 110.601626 65.000204 110.601626 69.900087 115.999741 73.000598 C 121.401441 76.101109 130.00043 76.101109 135.398545 73.000598 C 140.800245 69.900087 140.800245 65.000204 135.398545 61.899693 C 130.00043 58.899546 121.301077 58.899546 115.999741 61.899693 Z M 109.200123 76.900431 C 103.798424 73.79992 95.099071 73.79992 89.80132 76.900431 C 84.39962 80.000942 84.39962 84.900825 89.80132 88.001336 C 95.199435 91.098263 103.898787 91.098263 109.200123 88.001336 C 114.598238 84.900825 114.598238 80.000942 109.200123 76.900431 Z M 109.200123 17.10179 C 103.798424 14.001279 95.099071 14.001279 89.80132 17.10179 C 84.39962 20.198717 84.39962 25.0986 89.80132 28.19911 C 95.199435 31.299621 103.898787 31.299621 109.200123 28.19911 C 114.598238 25.0986 114.598238 20.098353 109.200123 17.10179 Z M 56.900059 58.100223 C 62.301759 54.999712 62.301759 50.09983 56.900059 46.999319 C 51.49836 43.898808 42.799007 43.898808 37.501255 46.999319 C 32.199919 50.09983 32.099556 54.999712 37.501255 58.100223 C 42.89937 61.100371 51.598723 61.100371 56.900059 58.100223 Z M 161.500188 58.100223 C 166.898303 54.999712 166.898303 50.09983 161.500188 46.999319 C 156.098488 43.898808 147.399135 43.898808 142.101384 46.999319 C 136.800048 50.09983 136.699684 54.999712 142.101384 58.100223 C 147.499499 61.100371 156.198852 61.100371 161.500188 58.100223 Z M 63.699677 31.998581 C 58.301562 35.099092 58.301562 39.998974 63.699677 43.099485 C 69.101376 46.199996 77.800729 46.199996 83.098481 43.099485 C 88.50018 39.998974 88.50018 35.099092 83.098481 31.998581 C 77.700366 28.998433 69.001013 28.998433 63.699677 31.998581 Z M 63.699677 31.998581 " stroke="#000000" stroke-width="3.543" stroke-opacity="1" stroke-miterlimit="10"/><path fill="#000000" d="M 315.0625 145.582031 C 309.285156 148.847656 304.707031 156.914062 304.707031 163.453125 C 304.707031 169.992188 309.503906 172.824219 315.277344 169.554688 C 321.054688 166.285156 325.632812 158.222656 325.632812 151.683594 C 325.523438 145.035156 320.835938 142.3125 315.0625 145.582031 Z M 315.0625 145.582031 " fill-opacity="1" fill-rule="nonzero"/><path fill="#000000" d="M 310.59375 172.933594 C 309.285156 172.933594 307.976562 172.605469 306.886719 171.953125 C 304.273438 170.425781 302.855469 167.484375 302.746094 163.5625 C 302.636719 156.152344 307.652344 147.542969 314.082031 143.945312 C 317.457031 141.984375 320.835938 141.765625 323.453125 143.292969 C 326.066406 144.816406 327.484375 147.757812 327.59375 151.683594 C 327.703125 159.09375 322.691406 167.703125 316.261719 171.300781 C 314.296875 172.390625 312.335938 172.933594 310.59375 172.933594 Z M 319.636719 146.125 C 318.546875 146.125 317.351562 146.453125 315.933594 147.214844 C 310.8125 150.15625 306.5625 157.566406 306.5625 163.453125 C 306.5625 165.960938 307.324219 167.703125 308.742188 168.574219 C 310.15625 169.335938 312.007812 169.121094 314.1875 167.921875 C 319.3125 164.976562 323.5625 157.566406 323.5625 151.683594 C 323.5625 149.175781 322.796875 147.324219 321.382812 146.5625 C 320.945312 146.34375 320.292969 146.125 319.636719 146.125 Z M 315.0625 145.582031 Z M 315.0625 145.582031 " fill-opacity="1" fill-rule="nonzero"/><path fill="#000000" d="M 286.835938 153.207031 C 292.613281 149.9375 297.1875 141.875 297.1875 135.335938 C 297.1875 128.6875 292.394531 125.964844 286.617188 129.234375 C 280.839844 132.503906 276.265625 140.566406 276.265625 147.105469 C 276.375 153.753906 281.058594 156.476562 286.835938 153.207031 Z M 286.835938 153.207031 " fill-opacity="1" fill-rule="nonzero"/><path fill="#000000" d="M 282.257812 156.476562 C 280.949219 156.476562 279.644531 156.152344 278.554688 155.496094 C 275.9375 153.972656 274.519531 151.027344 274.410156 147.105469 C 274.304688 139.695312 279.316406 131.085938 285.746094 127.488281 C 289.125 125.527344 292.503906 125.308594 295.117188 126.835938 C 297.734375 128.363281 299.148438 131.304688 299.257812 135.226562 C 299.367188 142.636719 294.355469 151.246094 287.925781 154.84375 C 285.855469 155.933594 284.003906 156.476562 282.257812 156.476562 Z M 286.835938 153.207031 Z M 291.304688 129.777344 C 290.214844 129.777344 289.015625 130.105469 287.597656 130.867188 C 282.476562 133.808594 278.226562 141.222656 278.226562 147.105469 C 278.226562 149.613281 278.988281 151.355469 280.40625 152.226562 C 281.824219 152.992188 283.785156 152.773438 285.855469 151.574219 C 290.976562 148.632812 295.226562 141.222656 295.226562 135.335938 C 295.226562 132.828125 294.464844 130.976562 293.046875 130.214844 C 292.613281 129.886719 291.957031 129.777344 291.304688 129.777344 Z M 291.304688 129.777344 " fill-opacity="1" fill-rule="nonzero"/><path fill="#000000" d="M 343.613281 186.011719 C 349.390625 182.742188 353.964844 174.675781 353.964844 168.140625 C 353.964844 161.492188 349.171875 158.765625 343.394531 162.035156 C 337.621094 165.304688 333.042969 173.371094 333.042969 179.910156 C 333.152344 186.554688 337.835938 189.28125 343.613281 186.011719 Z M 343.613281 186.011719 " fill-opacity="1" fill-rule="nonzero"/><path fill="#000000" d="M 339.035156 189.28125 C 337.730469 189.28125 336.421875 188.953125 335.332031 188.300781 C 332.714844 186.773438 331.300781 183.832031 331.191406 179.910156 C 331.082031 172.496094 336.09375 163.886719 342.523438 160.292969 C 345.902344 158.332031 349.28125 158.113281 351.894531 159.636719 C 354.511719 161.164062 355.929688 164.105469 356.039062 168.03125 C 356.144531 175.441406 351.132812 184.050781 344.703125 187.644531 C 342.632812 188.734375 340.78125 189.28125 339.035156 189.28125 Z M 348.082031 162.582031 C 346.992188 162.582031 345.792969 162.90625 344.375 163.671875 C 339.253906 166.613281 335.003906 174.023438 335.003906 179.910156 C 335.003906 182.414062 335.765625 184.160156 337.183594 185.03125 C 338.601562 185.792969 340.5625 185.574219 342.632812 184.375 C 347.753906 181.433594 352.003906 174.023438 352.003906 168.140625 C 352.003906 165.632812 351.242188 163.886719 349.824219 163.015625 C 349.390625 162.691406 348.734375 162.582031 348.082031 162.582031 Z M 348.082031 162.582031 " fill-opacity="1" fill-rule="nonzero"/><path stroke-linecap="round" transform="matrix(1.08979, 0, 0, 1.08979, 153.772127, 8.702482)" fill-opacity="1" fill="#000000" fill-rule="nonzero" stroke-linejoin="round" d="M 85.700759 127.69863 C 85.700759 121.501192 81.299109 113.999031 76.001357 110.89852 C 70.700021 107.801593 66.298371 110.299924 66.398734 116.500946 C 66.398734 122.698384 70.800385 130.200545 76.101721 133.301056 C 81.399472 136.401567 85.700759 133.899652 85.700759 127.69863 Z M 33.798564 157.700106 C 33.798564 151.499084 29.400498 144.000507 24.099162 140.899996 C 18.80141 137.799485 14.39976 140.3014 14.500124 146.498838 C 14.500124 152.69986 18.901774 160.198437 24.199526 163.298948 C 29.500862 166.399458 33.798564 163.901128 33.798564 157.700106 Z M 23.898435 80.599538 C 18.600684 77.499027 14.199034 80.000942 14.299397 86.19838 C 14.299397 92.399402 18.701047 99.901563 23.998799 102.99849 C 29.300135 106.099001 33.701785 103.60067 33.601422 97.399648 C 33.601422 91.298989 29.199772 83.700049 23.898435 80.599538 Z M 76.1985 171.198978 C 70.900748 168.098467 66.499098 170.600382 66.599461 176.801404 C 66.599461 182.998842 71.001111 190.501003 76.298863 193.601514 C 81.600199 196.69844 85.998265 194.200109 85.901486 187.999088 C 85.901486 181.80165 81.499836 174.299489 76.1985 171.198978 Z M 76.1985 171.198978 " stroke="#000000" stroke-width="3.543" stroke-opacity="1" stroke-miterlimit="10"/><g clip-path="url(#06f7b74287)"><g clip-path="url(#48618f38b3)"><g clip-path="url(#16c9c67ceb)"><path fill="#1b575f" d="M 12.875 216.503906 L 11.175781 288.136719 C 10.828125 302.820312 18.324219 316.636719 30.933594 324.335938 L 92.101562 361.621094 C 104.710938 369.320312 120.347656 369.691406 133.308594 362.597656 L 196.175781 328.25 C 209.132812 321.15625 217.273438 307.714844 217.621094 293.027344 L 219.320312 221.394531 C 219.667969 206.710938 212.171875 192.894531 199.5625 185.195312 L 138.394531 147.910156 C 125.890625 140.214844 110.148438 139.839844 97.1875 146.933594 L 34.320312 181.28125 C 21.363281 188.375 13.222656 201.816406 12.875 216.503906 Z M 12.875 216.503906 " fill-opacity="1" fill-rule="nonzero"/></g></g></g><g clip-path="url(#8329d470ab)"><g clip-path="url(#31eeea2858)"><g clip-path="url(#7cc038eccc)"><path fill="#000000" d="M 112.53125 369.503906 C 105.027344 369.328125 97.675781 367.25 91.113281 363.289062 L 29.941406 326.003906 C 16.8125 317.976562 8.910156 303.515625 9.273438 288.089844 L 10.972656 216.457031 C 11.335938 201.140625 19.917969 186.964844 33.410156 179.671875 L 96.277344 145.222656 C 109.773438 137.824219 126.253906 138.214844 139.382812 146.242188 L 200.554688 183.527344 C 213.683594 191.554688 221.585938 206.015625 221.222656 221.335938 L 219.527344 292.96875 C 219.164062 308.285156 210.582031 322.460938 197.089844 329.753906 L 134.222656 364.097656 C 127.472656 367.957031 120.03125 369.683594 112.53125 369.503906 Z M 117.878906 143.722656 C 111.117188 143.5625 104.207031 145.199219 98.101562 148.542969 L 35.234375 182.886719 C 22.921875 189.574219 15.109375 202.496094 14.777344 216.546875 L 13.078125 288.179688 C 12.746094 302.234375 19.9375 315.40625 31.921875 322.773438 L 93.089844 360.058594 C 105.074219 367.320312 120.183594 367.679688 132.394531 360.988281 L 195.261719 326.644531 C 207.574219 319.957031 215.386719 307.035156 215.722656 292.984375 L 217.417969 221.351562 C 217.75 207.296875 210.558594 194.125 198.574219 186.757812 L 137.511719 149.476562 C 131.464844 145.84375 124.746094 143.886719 117.878906 143.722656 Z M 117.878906 143.722656 " fill-opacity="1" fill-rule="nonzero"/></g></g></g><g clip-path="url(#0600be6b9d)"><g clip-path="url(#2da8e0ea5b)"><g clip-path="url(#1b939f10ee)"><path fill="#000000" d="M 112.976562 350.699219 C 111.917969 350.671875 111.09375 349.808594 111.117188 348.75 L 112.816406 277.117188 C 113.179688 261.800781 121.761719 247.625 135.253906 240.335938 L 198.121094 205.988281 C 198.976562 205.480469 200.132812 205.824219 200.640625 206.679688 C 201.148438 207.539062 200.804688 208.695312 199.945312 209.203125 L 137.078125 243.550781 C 124.765625 250.234375 116.953125 263.15625 116.621094 277.210938 L 114.921875 348.84375 C 114.898438 349.898438 114.03125 350.722656 112.976562 350.699219 Z M 112.976562 350.699219 " fill-opacity="1" fill-rule="nonzero"/></g></g></g><g clip-path="url(#a84f5bc195)"><g clip-path="url(#1185062216)"><g clip-path="url(#506ba71e2e)"><path fill="#000000" d="M 112.976562 350.699219 C 111.917969 350.671875 111.09375 349.808594 111.117188 348.75 L 112.816406 277.117188 C 113.148438 263.066406 105.957031 249.894531 93.972656 242.527344 L 32.804688 205.242188 C 31.96875 204.695312 31.679688 203.523438 32.230469 202.691406 C 32.777344 201.859375 33.945312 201.570312 34.78125 202.117188 L 95.949219 239.402344 C 109.078125 247.429688 116.980469 261.890625 116.621094 277.210938 L 114.921875 348.84375 C 114.898438 349.898438 114.03125 350.722656 112.976562 350.699219 Z M 112.976562 350.699219 " fill-opacity="1" fill-rule="nonzero"/></g></g></g><g clip-path="url(#f7f2fcd305)"><g clip-path="url(#89331f42cc)"><g clip-path="url(#3194a70880)"><path fill="#000000" d="M 115.386719 248.847656 C 107.886719 248.671875 100.535156 246.59375 93.96875 242.632812 L 32.804688 205.242188 C 31.96875 204.695312 31.679688 203.523438 32.230469 202.691406 C 32.777344 201.859375 33.945312 201.570312 34.78125 202.117188 L 95.949219 239.402344 C 107.933594 246.664062 123.042969 247.023438 135.253906 240.335938 L 198.121094 205.988281 C 198.976562 205.480469 200.132812 205.824219 200.640625 206.679688 C 201.148438 207.539062 200.804688 208.695312 199.945312 209.203125 L 137.078125 243.550781 C 130.332031 247.300781 122.890625 249.027344 115.386719 248.847656 Z M 115.386719 248.847656 " fill-opacity="1" fill-rule="nonzero"/></g></g></g><g clip-path="url(#540552b8d5)"><g clip-path="url(#514e7a26c5)"><g clip-path="url(#6ad1f53e61)"><path fill="#000000" d="M 101.257812 274.097656 C 101.414062 267.546875 96.953125 259.511719 91.429688 256.105469 C 85.910156 252.695312 81.199219 255.226562 81.148438 261.78125 C 80.992188 268.332031 85.453125 276.363281 90.976562 279.773438 C 96.5 283.179688 101.105469 280.648438 101.257812 274.097656 Z M 45.570312 304.492188 C 45.722656 297.941406 41.261719 289.90625 35.742188 286.5 C 30.21875 283.089844 25.507812 285.621094 25.457031 292.175781 C 25.300781 298.726562 29.761719 306.757812 35.285156 310.167969 C 40.808594 313.574219 45.414062 311.042969 45.570312 304.492188 Z M 37.039062 222.785156 C 31.515625 219.375 26.804688 221.90625 26.757812 228.460938 C 26.601562 235.011719 31.0625 243.046875 36.582031 246.453125 C 42.105469 249.863281 46.816406 247.332031 46.867188 240.777344 C 47.019531 234.332031 42.667969 226.195312 37.039062 222.785156 Z M 90.027344 319.816406 C 84.503906 316.40625 79.792969 318.9375 79.746094 325.492188 C 79.589844 332.042969 84.050781 340.078125 89.570312 343.484375 C 95.09375 346.890625 99.804688 344.359375 99.855469 337.808594 C 100.007812 331.363281 95.65625 323.226562 90.027344 319.816406 Z M 90.027344 319.816406 " fill-opacity="1" fill-rule="nonzero"/></g></g></g><g clip-path="url(#24399ad441)"><g clip-path="url(#112a9bf4a9)"><g clip-path="url(#5490e30395)"><path stroke-linecap="round" transform="matrix(1.05653, 0.0250331, -0.0250331, 1.05653, 12.841952, 137.535737)" fill="none" stroke-linejoin="round" d="M 86.698962 127.200865 C 86.699944 121.000565 82.299967 113.499587 76.998652 110.401198 C 71.700946 107.299026 67.301306 109.799084 67.400181 116.000715 C 67.399199 122.201016 71.799089 129.698299 77.100491 132.800383 C 82.401805 135.898772 86.701675 133.401078 86.698962 127.200865 Z M 34.701875 157.201117 C 34.699162 151.000904 30.299185 143.499926 25.001566 140.40145 C 19.700164 137.299366 15.300524 139.799423 15.399399 146.001055 C 15.398417 152.201355 19.798307 159.698638 25.099709 162.800722 C 30.401023 165.899111 34.700893 163.401418 34.701875 157.201117 Z M 24.8003 80.100481 C 19.498898 76.998397 15.099258 79.498454 15.201829 85.699998 C 15.200847 91.900299 19.600824 99.401277 24.898443 102.499754 C 30.199845 105.601837 34.599485 103.10178 34.50061 96.900148 C 34.500261 90.799705 30.201472 83.200201 24.8003 80.100481 Z M 77.10006 170.700836 C 71.798659 167.598752 67.399018 170.098809 67.501589 176.300353 C 67.500607 182.500654 71.900584 190.001632 77.198204 193.100108 C 82.499518 196.198497 86.899158 193.69844 86.80037 187.500503 C 86.800021 181.40006 82.501232 173.800556 77.10006 170.700836 Z M 77.10006 170.700836 " stroke="#000000" stroke-width="3.543" stroke-opacity="1" stroke-miterlimit="10"/></g></g></g><g clip-path="url(#43cdec9d84)"><g clip-path="url(#bb551de078)"><g clip-path="url(#acde0fda5e)"><path fill="#000000" d="M 127.324219 168.894531 C 121.753906 172.042969 112.773438 171.828125 107.25 168.421875 C 101.835938 165.015625 101.960938 159.734375 107.527344 156.691406 C 113.097656 153.652344 122.082031 153.761719 127.601562 157.167969 C 133.125 160.578125 133 165.859375 127.324219 168.894531 Z M 127.324219 168.894531 " fill-opacity="1" fill-rule="nonzero"/></g></g></g><g clip-path="url(#b3977edcec)"><g clip-path="url(#f9bfdb7197)"><g clip-path="url(#2cff63907c)"><path fill="#000000" d="M 117.1875 172.992188 C 113.277344 172.898438 109.285156 171.851562 106.261719 169.984375 C 103.03125 168.003906 101.300781 165.320312 101.371094 162.363281 C 101.4375 159.402344 103.296875 156.804688 106.617188 154.980469 C 112.832031 151.535156 122.550781 151.761719 128.59375 155.5 C 131.824219 157.480469 133.558594 160.164062 133.488281 163.121094 C 133.417969 166.082031 131.558594 168.679688 128.238281 170.503906 C 125.128906 172.332031 121.199219 173.085938 117.1875 172.992188 Z M 117.578125 156.402344 C 114.304688 156.324219 110.90625 156.984375 108.441406 158.40625 C 106.296875 159.625 105.101562 161.074219 105.066406 162.554688 C 105.027344 164.140625 106.152344 165.644531 108.238281 166.859375 C 113.136719 169.828125 121.378906 170.023438 126.410156 167.289062 C 128.554688 166.070312 129.753906 164.621094 129.789062 163.140625 C 129.824219 161.554688 128.699219 160.050781 126.613281 158.835938 C 124.21875 157.300781 120.960938 156.484375 117.578125 156.402344 Z M 127.324219 168.894531 Z M 127.324219 168.894531 " fill-opacity="1" fill-rule="nonzero"/></g></g></g><g clip-path="url(#c2623c015b)"><g clip-path="url(#c5701a5ce6)"><g clip-path="url(#3edb232bbe)"><path fill="#000000" d="M 125.820312 232.394531 C 120.25 235.539062 111.269531 235.324219 105.746094 231.917969 C 100.332031 228.511719 100.457031 223.230469 106.023438 220.191406 C 111.597656 217.046875 120.578125 217.257812 126.097656 220.667969 C 131.625 223.96875 131.5 229.25 125.820312 232.394531 Z M 125.820312 232.394531 " fill-opacity="1" fill-rule="nonzero"/></g></g></g><g clip-path="url(#2aa0528e3e)"><g clip-path="url(#de7ec8490e)"><g clip-path="url(#18760170b2)"><path fill="#000000" d="M 115.679688 236.488281 C 111.773438 236.394531 107.78125 235.347656 104.757812 233.480469 C 101.527344 231.5 99.792969 228.816406 99.863281 225.859375 C 99.933594 222.902344 101.792969 220.300781 105.113281 218.476562 C 111.328125 215.03125 121.046875 215.261719 127.089844 219 C 130.320312 220.976562 132.054688 223.660156 131.984375 226.621094 C 131.914062 229.578125 130.054688 232.175781 126.734375 234 C 123.628906 235.726562 119.695312 236.582031 115.679688 236.488281 Z M 116.078125 219.792969 C 112.800781 219.71875 109.402344 220.375 106.9375 221.796875 C 104.792969 223.015625 103.597656 224.46875 103.5625 225.945312 C 103.527344 227.425781 104.652344 229.039062 106.738281 230.25 C 111.636719 233.21875 119.875 233.414062 124.910156 230.679688 C 127.054688 229.464844 128.25 228.011719 128.285156 226.53125 C 128.324219 224.949219 127.195312 223.441406 125.109375 222.230469 C 122.714844 220.691406 119.457031 219.875 116.078125 219.792969 Z M 125.820312 232.394531 Z M 125.820312 232.394531 " fill-opacity="1" fill-rule="nonzero"/></g></g></g><g clip-path="url(#aa0a0fc86b)"><g clip-path="url(#cad98056ec)"><g clip-path="url(#5b78b4bdd2)"><path fill="#000000" d="M 148.328125 295.296875 C 148.480469 288.746094 144 285.996094 138.324219 289.140625 C 132.648438 292.28125 127.8125 300.097656 127.65625 306.648438 C 127.5 313.199219 131.980469 315.945312 137.660156 312.804688 C 143.441406 309.664062 148.171875 301.847656 148.328125 295.296875 Z M 138.625 281.007812 C 144.300781 277.863281 149.136719 270.050781 149.292969 263.5 C 149.445312 256.949219 144.964844 254.203125 139.289062 257.34375 C 133.613281 260.488281 128.777344 268.300781 128.621094 274.851562 C 128.359375 281.398438 132.839844 284.148438 138.625 281.007812 Z M 192.601562 313.894531 C 198.28125 310.753906 203.117188 302.9375 203.273438 296.386719 C 203.425781 289.835938 198.945312 287.089844 193.269531 290.230469 C 187.59375 293.375 182.753906 301.1875 182.601562 307.738281 C 182.339844 314.285156 186.820312 317.035156 192.601562 313.894531 Z M 184.320312 244.140625 C 184.164062 250.691406 188.644531 253.4375 194.320312 250.296875 C 200 247.152344 204.835938 239.339844 204.988281 232.789062 C 205.144531 226.238281 200.664062 223.488281 194.988281 226.632812 C 189.308594 229.773438 184.472656 237.589844 184.320312 244.140625 Z M 126.792969 338.550781 C 126.640625 345.101562 131.121094 347.851562 136.796875 344.707031 C 142.472656 341.566406 147.308594 333.753906 147.464844 327.203125 C 147.621094 320.652344 143.140625 317.902344 137.464844 321.046875 C 131.785156 324.1875 126.949219 332 126.792969 338.550781 Z M 204.132812 264.484375 C 204.289062 257.933594 199.808594 255.183594 194.132812 258.324219 C 188.453125 261.46875 183.617188 269.28125 183.460938 275.832031 C 183.308594 282.382812 187.789062 285.132812 193.464844 281.988281 C 199.140625 278.847656 203.976562 271.035156 204.132812 264.484375 Z M 204.132812 264.484375 " fill-opacity="1" fill-rule="nonzero"/></g></g></g><g clip-path="url(#a10698ae3c)"><g clip-path="url(#f363c9186d)"><g clip-path="url(#40c3108356)"><path stroke-linecap="round" transform="matrix(1.05653, 0.0250331, -0.0250331, 1.05653, 12.841952, 137.535737)" fill="none" stroke-linejoin="round" d="M 131.700894 146.199546 C 131.698181 139.999333 127.398185 137.498356 122.099584 140.60018 C 116.800895 143.698309 112.401468 151.200732 112.400486 157.401032 C 112.399504 163.601333 116.699411 166.098614 122.001795 163.000398 C 127.400254 159.899905 131.699912 152.399846 131.700894 146.199546 Z M 122.201829 132.900097 C 127.50043 129.798272 131.899945 122.299545 131.900927 116.099245 C 131.898214 109.899032 127.598306 107.40175 122.299617 110.499879 C 117.001016 113.601703 112.601501 121.100431 112.600519 127.300731 C 112.49968 133.4997 116.799675 136.000677 122.201829 132.900097 Z M 173.998774 162.79993 C 179.301158 159.701714 183.700586 152.199291 183.701568 145.998991 C 183.698855 139.798778 179.398947 137.301496 174.100258 140.399625 C 168.801657 143.501449 164.398447 151.000264 164.40116 157.200477 C 164.300321 163.399446 168.600316 165.900423 173.998774 162.79993 Z M 164.601599 97.000908 C 164.600617 103.201208 168.900525 105.69849 174.199214 102.600361 C 179.50151 99.498449 183.901026 91.999722 183.898312 85.799509 C 183.899294 79.599208 179.599299 77.098232 174.300698 80.200056 C 168.998314 83.298272 164.598886 90.800695 164.601599 97.000908 Z M 112.298891 187.598826 C 112.301604 193.799039 116.601599 196.300016 121.900201 193.198192 C 127.198889 190.100063 131.598404 182.601335 131.599386 176.401035 C 131.600368 170.200734 127.300373 167.699758 122.001772 170.801582 C 116.699388 173.899798 112.299873 181.398526 112.298891 187.598826 Z M 183.799468 115.801284 C 183.80045 109.600984 179.500454 107.100007 174.201765 110.198136 C 168.899469 113.300047 164.499954 120.798775 164.498972 126.999075 C 164.501685 133.199288 168.801681 135.700265 174.100282 132.598441 C 179.39897 129.500312 183.798486 122.001585 183.799468 115.801284 Z M 183.799468 115.801284 " stroke="#000000" stroke-width="3.543" stroke-opacity="1" stroke-miterlimit="10"/></g></g></g></svg>