<svg xmlns="http://www.w3.org/2000/svg" xmlns:xlink="http://www.w3.org/1999/xlink" width="500" zoomAndPan="magnify" viewBox="0 0 375 374.999991" height="500" preserveAspectRatio="xMidYMid meet" version="1.0"><metadata><ContainsAiGeneratedContent>Yes</ContainsAiGeneratedContent></metadata><defs><clipPath id="0062efabc1"><path d="M 10.808594 14.121094 L 364.058594 14.121094 L 364.058594 360.621094 L 10.808594 360.621094 Z M 10.808594 14.121094 " clip-rule="nonzero"/></clipPath></defs><g clip-path="url(#0062efabc1)"><path fill="#1b575f" d="M 155.023438 360.5 C 152.714844 360.5 150.421875 360.242188 148.203125 359.742188 C 133.617188 356.433594 126.335938 344.433594 121.027344 335.671875 C 120.207031 334.332031 119.136719 332.566406 118.210938 331.167969 C 116.589844 331.296875 114.632812 331.546875 112.734375 331.785156 C 108.894531 332.277344 104.550781 332.832031 100.0625 332.832031 C 90.972656 332.832031 83.308594 330.410156 77.316406 325.625 C 65.738281 316.378906 64.378906 302.503906 63.390625 292.375 C 63.242188 290.765625 63.027344 288.648438 62.789062 286.957031 C 61.203125 286.351562 59.210938 285.695312 57.691406 285.1875 C 48 281.980469 34.726562 277.582031 28.269531 264.175781 C 21.867188 250.917969 26.640625 237.882812 30.132812 228.378906 C 30.703125 226.820312 31.453125 224.769531 31.980469 223.109375 C 30.84375 221.917969 29.398438 220.527344 28.296875 219.453125 C 21.332031 212.707031 10.800781 202.523438 10.800781 187.503906 C 10.800781 172.488281 21.320312 162.285156 28.285156 155.539062 C 29.390625 154.464844 30.839844 153.058594 31.972656 151.863281 C 31.449219 150.199219 30.699219 148.148438 30.125 146.585938 C 26.632812 137.074219 21.847656 124.050781 28.242188 110.777344 C 34.6875 97.375 47.957031 92.964844 57.644531 89.742188 C 59.171875 89.238281 61.171875 88.574219 62.757812 87.964844 C 62.996094 86.269531 63.203125 84.148438 63.359375 82.53125 C 64.339844 72.394531 65.683594 58.519531 77.265625 49.269531 C 83.265625 44.472656 90.9375 42.039062 100.050781 42.039062 C 104.527344 42.039062 108.859375 42.59375 112.6875 43.078125 C 114.59375 43.320312 116.546875 43.566406 118.175781 43.691406 C 119.101562 42.300781 120.179688 40.523438 121 39.171875 C 126.316406 30.410156 133.59375 18.40625 148.179688 15.09375 C 150.394531 14.589844 152.699219 14.335938 155.007812 14.335938 C 166.277344 14.335938 175.265625 20.175781 182.484375 24.863281 C 183.960938 25.824219 185.933594 27.105469 187.488281 28.003906 C 189.054688 27.105469 191.023438 25.824219 192.507812 24.859375 C 199.726562 20.171875 208.710938 14.335938 219.976562 14.335938 C 222.285156 14.335938 224.585938 14.589844 226.808594 15.09375 C 241.398438 18.40625 248.675781 30.414062 253.992188 39.179688 C 254.804688 40.527344 255.882812 42.300781 256.816406 43.695312 C 258.441406 43.570312 260.394531 43.324219 262.308594 43.082031 C 266.132812 42.597656 270.460938 42.050781 274.929688 42.050781 C 284.054688 42.050781 291.722656 44.480469 297.734375 49.28125 C 309.3125 58.53125 310.652344 72.40625 311.632812 82.535156 C 311.789062 84.152344 311.992188 86.273438 312.234375 87.96875 C 313.824219 88.574219 315.820312 89.238281 317.34375 89.746094 C 327.03125 92.964844 340.296875 97.375 346.757812 110.78125 C 353.144531 124.0625 348.363281 137.085938 344.871094 146.59375 C 344.292969 148.152344 343.542969 150.203125 343.019531 151.871094 C 344.152344 153.0625 345.601562 154.46875 346.707031 155.542969 C 353.671875 162.289062 364.191406 172.488281 364.191406 187.503906 C 364.191406 202.515625 353.667969 212.707031 346.703125 219.453125 C 345.59375 220.527344 344.144531 221.929688 343.011719 223.121094 C 343.53125 224.785156 344.285156 226.839844 344.855469 228.394531 C 348.34375 237.90625 353.121094 250.933594 346.714844 264.199219 C 340.253906 277.597656 326.972656 281.992188 317.289062 285.207031 C 315.769531 285.710938 313.777344 286.367188 312.195312 286.96875 C 311.957031 288.660156 311.746094 290.773438 311.589844 292.382812 C 310.605469 302.515625 309.25 316.394531 297.65625 325.636719 C 291.664062 330.414062 284.015625 332.839844 274.921875 332.839844 C 270.433594 332.839844 266.082031 332.285156 262.246094 331.796875 C 260.339844 331.550781 258.386719 331.296875 256.765625 331.171875 C 255.84375 332.566406 254.773438 334.328125 253.953125 335.675781 C 248.644531 344.4375 241.367188 356.4375 226.78125 359.746094 C 224.566406 360.242188 222.273438 360.503906 219.960938 360.503906 C 208.691406 360.503906 199.703125 354.65625 192.484375 349.960938 C 191.011719 349.003906 189.050781 347.734375 187.492188 346.832031 C 185.9375 347.734375 183.972656 349.011719 182.5 349.96875 C 175.28125 354.65625 166.296875 360.503906 155.03125 360.503906 C 155.03125 360.5 155.03125 360.5 155.023438 360.5 Z M 187.488281 303.707031 C 199.050781 303.707031 208.207031 309.664062 215.570312 314.445312 C 215.949219 314.695312 216.367188 314.960938 216.800781 315.242188 C 217.132812 314.699219 217.445312 314.183594 217.734375 313.710938 C 222.207031 306.332031 227.773438 297.160156 237.941406 292.253906 C 242.882812 289.878906 248.421875 288.722656 254.894531 288.722656 C 259.402344 288.722656 263.769531 289.28125 267.617188 289.769531 C 268.164062 289.84375 268.71875 289.910156 269.261719 289.980469 C 269.328125 289.375 269.378906 288.796875 269.429688 288.265625 C 270.277344 279.628906 271.324219 268.871094 278.433594 259.96875 C 285.523438 251.097656 295.753906 247.710938 303.96875 244.988281 C 304.476562 244.820312 305.039062 244.632812 305.621094 244.4375 C 305.433594 243.917969 305.25 243.421875 305.085938 242.96875 C 302.082031 234.777344 298.347656 224.589844 300.890625 213.410156 C 303.371094 202.445312 311.0625 195 317.242188 189.011719 C 317.71875 188.554688 318.253906 188.035156 318.808594 187.492188 C 318.253906 186.945312 317.710938 186.417969 317.226562 185.957031 C 311.0625 179.972656 303.378906 172.527344 300.890625 161.558594 C 298.355469 150.375 302.101562 140.175781 305.105469 131.984375 C 305.277344 131.527344 305.460938 131.023438 305.648438 130.5 C 305.0625 130.300781 304.492188 130.113281 303.980469 129.941406 C 295.761719 127.210938 285.53125 123.808594 278.460938 114.9375 C 271.351562 106.023438 270.308594 95.265625 269.46875 86.617188 C 269.425781 86.085938 269.367188 85.503906 269.304688 84.894531 C 268.75 84.964844 268.1875 85.035156 267.636719 85.105469 C 263.804688 85.589844 259.460938 86.140625 254.96875 86.140625 C 248.484375 86.140625 242.925781 84.980469 237.980469 82.601562 C 227.808594 77.691406 222.242188 68.515625 217.769531 61.140625 C 217.484375 60.660156 217.160156 60.128906 216.828125 59.582031 C 216.390625 59.863281 215.964844 60.136719 215.582031 60.386719 C 208.210938 65.171875 199.050781 71.121094 187.488281 71.121094 C 175.9375 71.121094 166.777344 65.171875 159.410156 60.386719 C 159.023438 60.140625 158.605469 59.863281 158.164062 59.582031 C 157.832031 60.128906 157.511719 60.660156 157.21875 61.140625 C 152.746094 68.511719 147.179688 77.6875 137.007812 82.59375 C 132.070312 84.976562 126.515625 86.132812 120.027344 86.132812 C 115.535156 86.132812 111.191406 85.582031 107.351562 85.097656 C 106.804688 85.027344 106.242188 84.957031 105.691406 84.890625 C 105.628906 85.496094 105.566406 86.082031 105.527344 86.617188 C 104.683594 95.261719 103.640625 106.023438 96.535156 114.929688 C 89.472656 123.800781 79.238281 127.203125 71.015625 129.933594 C 70.503906 130.105469 69.941406 130.296875 69.347656 130.492188 C 69.535156 131.019531 69.722656 131.523438 69.890625 131.980469 C 72.902344 140.171875 76.636719 150.367188 74.105469 161.546875 C 71.621094 172.523438 63.9375 179.96875 57.769531 185.945312 C 57.289062 186.414062 56.75 186.945312 56.1875 187.484375 C 56.742188 188.03125 57.28125 188.546875 57.757812 189.007812 C 63.933594 194.988281 71.621094 202.433594 74.113281 213.40625 C 76.644531 224.582031 72.914062 234.773438 69.910156 242.957031 C 69.738281 243.410156 69.5625 243.90625 69.371094 244.425781 C 69.949219 244.625 70.511719 244.804688 71.015625 244.976562 C 79.242188 247.699219 89.472656 251.089844 96.558594 259.96875 C 103.660156 268.859375 104.707031 279.621094 105.554688 288.265625 C 105.605469 288.792969 105.660156 289.375 105.722656 289.976562 C 106.273438 289.90625 106.824219 289.835938 107.367188 289.765625 C 111.21875 289.277344 115.574219 288.722656 120.085938 288.722656 C 126.554688 288.722656 132.101562 289.878906 137.03125 292.253906 C 147.207031 297.15625 152.773438 306.332031 157.246094 313.703125 C 157.53125 314.175781 157.851562 314.699219 158.183594 315.242188 C 158.613281 314.960938 159.03125 314.691406 159.410156 314.449219 C 166.773438 309.664062 175.929688 303.707031 187.488281 303.707031 Z M 187.488281 303.707031 " fill-opacity="1" fill-rule="nonzero"/><path fill="#1b575f" d="M 155.023438 360.5 C 152.714844 360.5 150.421875 360.242188 148.203125 359.742188 C 133.617188 356.433594 126.335938 344.433594 121.027344 335.671875 C 120.207031 334.332031 119.136719 332.566406 118.210938 331.167969 C 116.589844 331.296875 114.632812 331.546875 112.734375 331.785156 C 108.894531 332.277344 104.550781 332.832031 100.0625 332.832031 C 90.972656 332.832031 83.308594 330.410156 77.316406 325.625 C 65.738281 316.378906 64.378906 302.503906 63.390625 292.375 C 63.242188 290.765625 63.027344 288.648438 62.789062 286.957031 C 61.203125 286.351562 59.210938 285.695312 57.691406 285.1875 C 48 281.980469 34.726562 277.582031 28.269531 264.175781 C 21.867188 250.917969 26.640625 237.882812 30.132812 228.378906 C 30.703125 226.820312 31.453125 224.769531 31.980469 223.109375 C 30.84375 221.917969 29.398438 220.527344 28.296875 219.453125 C 21.332031 212.707031 10.800781 202.523438 10.800781 187.503906 C 10.800781 172.488281 21.320312 162.285156 28.285156 155.539062 C 29.390625 154.464844 30.839844 153.058594 31.972656 151.863281 C 31.449219 150.199219 30.699219 148.148438 30.125 146.585938 C 26.632812 137.074219 21.847656 124.050781 28.242188 110.777344 C 34.6875 97.375 47.957031 92.964844 57.644531 89.742188 C 59.171875 89.238281 61.171875 88.574219 62.757812 87.964844 C 62.996094 86.269531 63.203125 84.148438 63.359375 82.53125 C 64.339844 72.394531 65.683594 58.519531 77.265625 49.269531 C 83.265625 44.472656 90.9375 42.039062 100.050781 42.039062 C 104.527344 42.039062 108.859375 42.59375 112.6875 43.078125 C 114.59375 43.320312 116.546875 43.566406 118.175781 43.691406 C 119.101562 42.300781 120.179688 40.523438 121 39.171875 C 126.316406 30.410156 133.59375 18.40625 148.179688 15.09375 C 150.394531 14.589844 152.699219 14.335938 155.007812 14.335938 C 166.277344 14.335938 175.265625 20.175781 182.484375 24.863281 C 183.960938 25.824219 185.933594 27.105469 187.488281 28.003906 C 189.054688 27.105469 191.023438 25.824219 192.507812 24.859375 C 199.726562 20.171875 208.710938 14.335938 219.976562 14.335938 C 222.285156 14.335938 224.585938 14.589844 226.808594 15.09375 C 241.398438 18.40625 248.675781 30.414062 253.992188 39.179688 C 254.804688 40.527344 255.882812 42.300781 256.816406 43.695312 C 258.441406 43.570312 260.394531 43.324219 262.308594 43.082031 C 266.132812 42.597656 270.460938 42.050781 274.929688 42.050781 C 284.054688 42.050781 291.722656 44.480469 297.734375 49.28125 C 309.3125 58.53125 310.652344 72.40625 311.632812 82.535156 C 311.789062 84.152344 311.992188 86.273438 312.234375 87.96875 C 313.824219 88.574219 315.820312 89.238281 317.34375 89.746094 C 327.03125 92.964844 340.296875 97.375 346.757812 110.78125 C 353.144531 124.0625 348.363281 137.085938 344.871094 146.59375 C 344.292969 148.152344 343.542969 150.203125 343.019531 151.871094 C 344.152344 153.0625 345.601562 154.46875 346.707031 155.542969 C 353.671875 162.289062 364.191406 172.488281 364.191406 187.503906 C 364.191406 202.515625 353.667969 212.707031 346.703125 219.453125 C 345.59375 220.527344 344.144531 221.929688 343.011719 223.121094 C 343.53125 224.785156 344.285156 226.839844 344.855469 228.394531 C 348.34375 237.90625 353.121094 250.933594 346.714844 264.199219 C 340.253906 277.597656 326.972656 281.992188 317.289062 285.207031 C 315.769531 285.710938 313.777344 286.367188 312.195312 286.96875 C 311.957031 288.660156 311.746094 290.773438 311.589844 292.382812 C 310.605469 302.515625 309.25 316.394531 297.65625 325.636719 C 291.664062 330.414062 284.015625 332.839844 274.921875 332.839844 C 270.433594 332.839844 266.082031 332.285156 262.246094 331.796875 C 260.339844 331.550781 258.386719 331.296875 256.765625 331.171875 C 255.84375 332.566406 254.773438 334.328125 253.953125 335.675781 C 248.644531 344.4375 241.367188 356.4375 226.78125 359.746094 C 224.566406 360.242188 222.273438 360.503906 219.960938 360.503906 C 208.691406 360.503906 199.703125 354.65625 192.484375 349.960938 C 191.011719 349.003906 189.050781 347.734375 187.492188 346.832031 C 185.9375 347.734375 183.972656 349.011719 182.5 349.96875 C 175.28125 354.65625 166.296875 360.503906 155.03125 360.503906 C 155.03125 360.5 155.03125 360.5 155.023438 360.5 Z M 187.488281 303.707031 C 199.050781 303.707031 208.207031 309.664062 215.570312 314.445312 C 215.949219 314.695312 216.367188 314.960938 216.800781 315.242188 C 217.132812 314.699219 217.445312 314.183594 217.734375 313.710938 C 222.207031 306.332031 227.773438 297.160156 237.941406 292.253906 C 242.882812 289.878906 248.421875 288.722656 254.894531 288.722656 C 259.402344 288.722656 263.769531 289.28125 267.617188 289.769531 C 268.164062 289.84375 268.71875 289.910156 269.261719 289.980469 C 269.328125 289.375 269.378906 288.796875 269.429688 288.265625 C 270.277344 279.628906 271.324219 268.871094 278.433594 259.96875 C 285.523438 251.097656 295.753906 247.710938 303.96875 244.988281 C 304.476562 244.820312 305.039062 244.632812 305.621094 244.4375 C 305.433594 243.917969 305.25 243.421875 305.085938 242.96875 C 302.082031 234.777344 298.347656 224.589844 300.890625 213.410156 C 303.371094 202.445312 311.0625 195 317.242188 189.011719 C 317.71875 188.554688 318.253906 188.035156 318.808594 187.492188 C 318.253906 186.945312 317.710938 186.417969 317.226562 185.957031 C 311.0625 179.972656 303.378906 172.527344 300.890625 161.558594 C 298.355469 150.375 302.101562 140.175781 305.105469 131.984375 C 305.277344 131.527344 305.460938 131.023438 305.648438 130.5 C 305.0625 130.300781 304.492188 130.113281 303.980469 129.941406 C 295.761719 127.210938 285.53125 123.808594 278.460938 114.9375 C 271.351562 106.023438 270.308594 95.265625 269.46875 86.617188 C 269.425781 86.085938 269.367188 85.503906 269.304688 84.894531 C 268.75 84.964844 268.1875 85.035156 267.636719 85.105469 C 263.804688 85.589844 259.460938 86.140625 254.96875 86.140625 C 248.484375 86.140625 242.925781 84.980469 237.980469 82.601562 C 227.808594 77.691406 222.242188 68.515625 217.769531 61.140625 C 217.484375 60.660156 217.160156 60.128906 216.828125 59.582031 C 216.390625 59.863281 215.964844 60.136719 215.582031 60.386719 C 208.210938 65.171875 199.050781 71.121094 187.488281 71.121094 C 175.9375 71.121094 166.777344 65.171875 159.410156 60.386719 C 159.023438 60.140625 158.605469 59.863281 158.164062 59.582031 C 157.832031 60.128906 157.511719 60.660156 157.21875 61.140625 C 152.746094 68.511719 147.179688 77.6875 137.007812 82.59375 C 132.070312 84.976562 126.515625 86.132812 120.027344 86.132812 C 115.535156 86.132812 111.191406 85.582031 107.351562 85.097656 C 106.804688 85.027344 106.242188 84.957031 105.691406 84.890625 C 105.628906 85.496094 105.566406 86.082031 105.527344 86.617188 C 104.683594 95.261719 103.640625 106.023438 96.535156 114.929688 C 89.472656 123.800781 79.238281 127.203125 71.015625 129.933594 C 70.503906 130.105469 69.941406 130.296875 69.347656 130.492188 C 69.535156 131.019531 69.722656 131.523438 69.890625 131.980469 C 72.902344 140.171875 76.636719 150.367188 74.105469 161.546875 C 71.621094 172.523438 63.9375 179.96875 57.769531 185.945312 C 57.289062 186.414062 56.75 186.945312 56.1875 187.484375 C 56.742188 188.03125 57.28125 188.546875 57.757812 189.007812 C 63.933594 194.988281 71.621094 202.433594 74.113281 213.40625 C 76.644531 224.582031 72.914062 234.773438 69.910156 242.957031 C 69.738281 243.410156 69.5625 243.90625 69.371094 244.425781 C 69.949219 244.625 70.511719 244.804688 71.015625 244.976562 C 79.242188 247.699219 89.472656 251.089844 96.558594 259.96875 C 103.660156 268.859375 104.707031 279.621094 105.554688 288.265625 C 105.605469 288.792969 105.660156 289.375 105.722656 289.976562 C 106.273438 289.90625 106.824219 289.835938 107.367188 289.765625 C 111.21875 289.277344 115.574219 288.722656 120.085938 288.722656 C 126.554688 288.722656 132.101562 289.878906 137.03125 292.253906 C 147.207031 297.15625 152.773438 306.332031 157.246094 313.703125 C 157.53125 314.175781 157.851562 314.699219 158.183594 315.242188 C 158.613281 314.960938 159.03125 314.691406 159.410156 314.449219 C 166.773438 309.664062 175.929688 303.707031 187.488281 303.707031 Z M 187.488281 303.707031 " fill-opacity="1" fill-rule="nonzero"/></g><path fill="#1b575f" d="M 167.609375 297.890625 L 56.835938 209.675781 L 129.609375 158.996094 L 160.796875 191.449219 L 238.898438 78.859375 L 315.621094 119.878906 Z M 167.609375 297.890625 " fill-opacity="1" fill-rule="nonzero"/><path fill="#93e85f" d="M 343.011719 187.503906 C 343.011719 198.710938 323.917969 207.625 321.539062 218.113281 C 319.074219 228.941406 332.355469 245.230469 327.640625 254.996094 C 322.851562 264.925781 301.792969 264.667969 294.976562 273.191406 C 288.136719 281.761719 293.027344 302.238281 284.453125 309.074219 C 275.925781 315.875 257.070312 306.554688 247.136719 311.335938 C 237.371094 316.042969 232.921875 336.628906 222.09375 339.085938 C 211.605469 341.464844 198.695312 324.886719 187.484375 324.886719 C 176.273438 324.886719 163.371094 341.46875 152.882812 339.085938 C 142.058594 336.628906 137.597656 316.042969 127.832031 311.335938 C 117.90625 306.550781 99.046875 315.871094 90.515625 309.066406 C 81.945312 302.222656 86.84375 281.75 80 273.1875 C 73.1875 264.65625 52.125 264.914062 47.34375 254.988281 C 42.628906 245.222656 55.90625 228.925781 53.449219 218.101562 C 51.070312 207.617188 31.976562 198.710938 31.976562 187.503906 C 31.976562 176.289062 51.0625 167.363281 53.445312 156.871094 C 55.902344 146.035156 42.609375 129.746094 47.316406 119.972656 C 52.105469 110.027344 73.171875 110.261719 79.972656 101.726562 C 86.816406 93.148438 81.902344 72.671875 90.476562 65.820312 C 99.011719 59.007812 117.867188 68.316406 127.800781 63.523438 C 137.574219 58.808594 142.027344 38.210938 152.859375 35.753906 C 163.347656 33.371094 176.269531 49.945312 187.480469 49.945312 C 198.699219 49.945312 211.625 33.371094 222.109375 35.753906 C 232.949219 38.214844 237.398438 58.8125 247.167969 63.527344 C 257.109375 68.320312 275.964844 59.019531 284.503906 65.835938 C 293.074219 72.683594 288.160156 93.15625 295 101.738281 C 301.808594 110.269531 322.875 110.035156 327.664062 119.976562 C 332.367188 129.75 319.078125 146.042969 321.53125 156.878906 C 323.925781 167.367188 343.011719 176.289062 343.011719 187.503906 Z M 343.011719 187.503906 " fill-opacity="1" fill-rule="nonzero"/><path fill="#1b575f" d="M 245.546875 106.429688 L 282.730469 126.3125 L 164.582031 268.402344 L 92.261719 210.8125 L 126.871094 186.710938 L 163.460938 224.78125 Z M 245.546875 106.429688 " fill-opacity="1" fill-rule="nonzero"/><path fill="#1b575f" d="M 164.582031 270.195312 C 164.191406 270.195312 163.789062 270.066406 163.464844 269.800781 L 91.148438 212.214844 C 90.707031 211.863281 90.449219 211.324219 90.472656 210.757812 C 90.488281 210.191406 90.777344 209.664062 91.234375 209.34375 L 125.847656 185.242188 C 126.582031 184.742188 127.5625 184.832031 128.160156 185.46875 L 163.234375 221.960938 L 244.078125 105.410156 C 244.59375 104.664062 245.585938 104.414062 246.394531 104.847656 L 283.574219 124.730469 C 284.050781 124.984375 284.386719 125.4375 284.484375 125.96875 C 284.589844 126.496094 284.449219 127.042969 284.109375 127.457031 L 165.953125 269.546875 C 165.605469 269.972656 165.089844 270.195312 164.582031 270.195312 Z M 95.257812 210.910156 L 164.320312 265.90625 L 279.945312 126.859375 L 246.105469 108.765625 L 164.929688 225.800781 C 164.628906 226.242188 164.136719 226.523438 163.597656 226.566406 C 163.050781 226.628906 162.542969 226.410156 162.167969 226.023438 L 126.636719 189.054688 Z M 95.257812 210.910156 " fill-opacity="1" fill-rule="nonzero"/></svg>