<svg xmlns="http://www.w3.org/2000/svg" xmlns:xlink="http://www.w3.org/1999/xlink" width="500" zoomAndPan="magnify" viewBox="0 0 375 374.999991" height="500" preserveAspectRatio="xMidYMid meet" version="1.0"><metadata><ContainsAiGeneratedContent>Yes</ContainsAiGeneratedContent></metadata><defs><clipPath id="e83273738a"><path d="M 8 7.792969 L 367 7.792969 L 367 366 L 8 366 Z M 8 7.792969 " clip-rule="nonzero"/></clipPath><clipPath id="951796679f"><path d="M 8 130.019531 L 367 130.019531 L 367 232.019531 L 8 232.019531 Z M 8 130.019531 " clip-rule="nonzero"/></clipPath></defs><g clip-path="url(#e83273738a)"><path fill="#93e85f" d="M 352.625 129.589844 C 330.210938 57.855469 262.960938 7.792969 187.496094 7.792969 C 111.28125 7.792969 44.78125 57.855469 22.363281 129.589844 C 14.144531 131.082031 8.167969 137.808594 8.167969 146.773438 L 8.167969 214.019531 C 8.167969 222.242188 14.144531 229.710938 22.363281 231.207031 C 44.035156 302.191406 110.535156 353 187.496094 353 C 220.371094 353 252.503906 343.285156 280.148438 326.101562 L 303.3125 359.726562 C 307.046875 365.703125 315.265625 367.195312 321.246094 362.714844 L 355.617188 338.804688 C 361.59375 335.066406 363.085938 326.847656 358.605469 320.871094 L 328.714844 278.28125 C 338.429688 264.082031 346.648438 248.390625 351.878906 231.207031 C 360.097656 229.710938 366.074219 222.988281 366.074219 214.019531 L 366.074219 146.773438 C 366.824219 137.808594 360.847656 131.082031 352.625 129.589844 Z M 336.1875 233.449219 C 335.441406 232.703125 334.695312 231.953125 333.945312 231.207031 L 336.933594 231.207031 C 336.1875 231.953125 336.1875 232.703125 336.1875 233.449219 Z M 38.054688 231.953125 L 90.359375 231.953125 C 91.105469 237.933594 92.601562 243.160156 94.097656 249.140625 L 45.527344 249.140625 C 42.539062 243.160156 40.296875 237.933594 38.054688 231.953125 Z M 105.304688 231.953125 L 180.023438 231.953125 L 180.023438 249.140625 L 109.039062 249.140625 C 107.546875 243.160156 106.796875 237.183594 105.304688 231.953125 Z M 232.328125 231.953125 L 231.582031 249.140625 L 194.96875 249.140625 L 194.96875 231.953125 Z M 180.023438 264.082031 L 180.023438 338.054688 C 153.125 333.574219 128.46875 306.675781 113.523438 264.082031 Z M 194.96875 338.054688 L 194.96875 264.082031 L 230.832031 264.082031 L 228.589844 301.445312 C 228.589844 305.925781 230.832031 310.410156 234.570312 312.652344 C 222.613281 326.847656 209.164062 335.066406 194.96875 338.054688 Z M 239.050781 207.296875 C 236.0625 209.539062 233.820312 213.273438 233.820312 217.011719 L 25.355469 217.011719 C 23.859375 217.011719 23.113281 216.261719 23.113281 214.769531 L 23.113281 147.519531 C 23.113281 146.027344 23.859375 145.277344 25.355469 145.277344 C 142.664062 145.277344 221.121094 145.277344 348.890625 145.277344 C 350.386719 145.277344 351.132812 146.027344 351.132812 147.519531 L 351.132812 214.769531 C 351.132812 216.261719 350.386719 217.011719 348.890625 217.011719 L 286.125 217.011719 L 249.511719 205.800781 C 246.523438 204.308594 242.042969 205.054688 239.050781 207.296875 Z M 45.527344 112.402344 L 94.097656 112.402344 C 92.601562 117.632812 91.105469 123.609375 90.359375 129.589844 L 38.054688 129.589844 C 40.296875 123.609375 42.539062 117.632812 45.527344 112.402344 Z M 336.933594 129.589844 L 284.632812 129.589844 C 283.882812 123.609375 282.390625 117.632812 280.894531 112.402344 L 329.464844 112.402344 C 332.453125 117.632812 334.695312 123.609375 336.933594 129.589844 Z M 269.6875 129.589844 L 194.96875 129.589844 L 194.96875 112.402344 L 265.953125 112.402344 C 267.445312 117.632812 268.191406 123.609375 269.6875 129.589844 Z M 194.96875 97.457031 L 194.96875 23.484375 C 222.613281 27.96875 246.523438 55.617188 261.46875 97.457031 Z M 180.023438 23.484375 L 180.023438 97.457031 L 113.523438 97.457031 C 128.46875 55.617188 152.378906 27.222656 180.023438 23.484375 Z M 180.023438 112.402344 L 180.023438 129.589844 L 105.304688 129.589844 C 106.796875 123.609375 107.546875 117.632812 109.039062 112.402344 Z M 321.246094 97.457031 L 276.414062 97.457031 C 267.445312 69.8125 253.996094 47.394531 238.304688 31.703125 C 272.675781 42.914062 301.816406 66.074219 321.246094 97.457031 Z M 135.9375 30.957031 C 120.246094 46.648438 106.796875 69.8125 97.832031 97.457031 L 53 97.457031 C 72.425781 66.074219 101.566406 42.914062 135.9375 30.957031 Z M 53.746094 264.082031 L 97.832031 264.082031 C 106.796875 291.730469 119.5 314.144531 135.191406 329.835938 C 101.566406 317.132812 72.425781 293.972656 53.746094 264.082031 Z M 239.050781 329.835938 C 245.777344 323.113281 251.753906 315.640625 256.984375 307.421875 L 263.710938 302.9375 L 271.929688 314.144531 C 261.46875 320.125 250.261719 325.355469 239.050781 329.835938 Z M 315.265625 349.265625 C 314.519531 348.515625 272.675781 288.742188 275.664062 291.730469 C 273.421875 288.742188 270.433594 287.246094 267.445312 286.5 C 263.710938 285.753906 260.722656 286.5 257.730469 288.742188 C 256.984375 289.488281 243.535156 298.453125 244.28125 297.707031 C 245.777344 273.050781 247.273438 243.160156 248.765625 220 L 322.738281 242.414062 L 309.289062 251.382812 C 303.3125 255.117188 301.816406 263.335938 306.300781 269.3125 C 307.792969 270.808594 347.394531 328.34375 345.902344 326.847656 Z M 319.75 264.082031 L 321.992188 264.082031 C 321.992188 264.832031 321.246094 264.832031 321.246094 265.578125 Z M 319.75 264.082031 " fill-opacity="1" fill-rule="nonzero"/></g><path fill="#93e85f" d="M 87.371094 191.605469 L 76.164062 157.980469 L 66.449219 157.980469 L 55.988281 191.605469 L 44.78125 157.980469 L 35.066406 157.980469 L 50.757812 202.066406 L 61.21875 202.066406 L 71.679688 172.179688 L 82.140625 202.066406 L 92.601562 202.066406 L 107.546875 157.980469 L 98.578125 157.980469 Z M 87.371094 191.605469 " fill-opacity="1" fill-rule="nonzero"/><path fill="#93e85f" d="M 162.839844 191.605469 L 151.628906 157.980469 L 142.664062 157.980469 L 131.457031 191.605469 L 120.246094 157.980469 L 110.535156 157.980469 L 126.226562 202.066406 L 136.6875 202.066406 L 147.148438 172.179688 L 157.609375 202.066406 L 168.070312 202.066406 L 183.761719 157.980469 L 174.046875 157.980469 Z M 162.839844 191.605469 " fill-opacity="1" fill-rule="nonzero"/><path fill="#93e85f" d="M 249.511719 157.980469 L 238.304688 191.605469 L 227.84375 157.980469 L 218.132812 157.980469 L 206.921875 191.605469 L 195.714844 157.980469 L 186 157.980469 L 201.691406 202.066406 L 212.152344 202.066406 L 222.613281 172.179688 L 233.074219 202.066406 L 243.535156 202.066406 L 259.226562 157.980469 Z M 249.511719 157.980469 " fill-opacity="1" fill-rule="nonzero"/><path fill="#93e85f" d="M 269.6875 202.8125 C 271.183594 202.8125 272.675781 202.066406 274.171875 201.320312 C 275.664062 199.824219 275.664062 198.332031 275.664062 196.835938 C 275.664062 195.339844 274.917969 193.847656 274.171875 192.351562 C 272.675781 190.859375 271.183594 190.859375 269.6875 190.859375 C 268.191406 190.859375 266.699219 191.605469 265.203125 192.351562 C 263.710938 193.847656 263.710938 195.339844 263.710938 196.835938 C 263.710938 198.332031 264.457031 199.824219 265.203125 201.320312 C 266.699219 202.066406 268.191406 202.8125 269.6875 202.8125 Z M 269.6875 202.8125 " fill-opacity="1" fill-rule="nonzero"/><g clip-path="url(#951796679f)"><path fill="#1b575f" d="M 352.625 129.589844 C 330.210938 57.855469 262.960938 7.792969 187.496094 7.792969 C 111.28125 7.792969 44.78125 57.855469 22.363281 129.589844 C 14.144531 131.082031 8.167969 137.808594 8.167969 146.773438 L 8.167969 214.019531 C 8.167969 222.242188 14.144531 229.710938 22.363281 231.207031 C 44.035156 302.191406 110.535156 353 187.496094 353 C 220.371094 353 252.503906 343.285156 280.148438 326.101562 L 303.3125 359.726562 C 307.046875 365.703125 315.265625 367.195312 321.246094 362.714844 L 355.617188 338.804688 C 361.59375 335.066406 363.085938 326.847656 358.605469 320.871094 L 328.714844 278.28125 C 338.429688 264.082031 346.648438 248.390625 351.878906 231.207031 C 360.097656 229.710938 366.074219 222.988281 366.074219 214.019531 L 366.074219 146.773438 C 366.824219 137.808594 360.847656 131.082031 352.625 129.589844 Z M 336.1875 233.449219 C 335.441406 232.703125 334.695312 231.953125 333.945312 231.207031 L 336.933594 231.207031 C 336.1875 231.953125 336.1875 232.703125 336.1875 233.449219 Z M 38.054688 231.953125 L 90.359375 231.953125 C 91.105469 237.933594 92.601562 243.160156 94.097656 249.140625 L 45.527344 249.140625 C 42.539062 243.160156 40.296875 237.933594 38.054688 231.953125 Z M 105.304688 231.953125 L 180.023438 231.953125 L 180.023438 249.140625 L 109.039062 249.140625 C 107.546875 243.160156 106.796875 237.183594 105.304688 231.953125 Z M 232.328125 231.953125 L 231.582031 249.140625 L 194.96875 249.140625 L 194.96875 231.953125 Z M 180.023438 264.082031 L 180.023438 338.054688 C 153.125 333.574219 128.46875 306.675781 113.523438 264.082031 Z M 194.96875 338.054688 L 194.96875 264.082031 L 230.832031 264.082031 L 228.589844 301.445312 C 228.589844 305.925781 230.832031 310.410156 234.570312 312.652344 C 222.613281 326.847656 209.164062 335.066406 194.96875 338.054688 Z M 239.050781 207.296875 C 236.0625 209.539062 233.820312 213.273438 233.820312 217.011719 L 25.355469 217.011719 C 23.859375 217.011719 23.113281 216.261719 23.113281 214.769531 L 23.113281 147.519531 C 23.113281 146.027344 23.859375 145.277344 25.355469 145.277344 C 142.664062 145.277344 221.121094 145.277344 348.890625 145.277344 C 350.386719 145.277344 351.132812 146.027344 351.132812 147.519531 L 351.132812 214.769531 C 351.132812 216.261719 350.386719 217.011719 348.890625 217.011719 L 286.125 217.011719 L 249.511719 205.800781 C 246.523438 204.308594 242.042969 205.054688 239.050781 207.296875 Z M 45.527344 112.402344 L 94.097656 112.402344 C 92.601562 117.632812 91.105469 123.609375 90.359375 129.589844 L 38.054688 129.589844 C 40.296875 123.609375 42.539062 117.632812 45.527344 112.402344 Z M 336.933594 129.589844 L 284.632812 129.589844 C 283.882812 123.609375 282.390625 117.632812 280.894531 112.402344 L 329.464844 112.402344 C 332.453125 117.632812 334.695312 123.609375 336.933594 129.589844 Z M 269.6875 129.589844 L 194.96875 129.589844 L 194.96875 112.402344 L 265.953125 112.402344 C 267.445312 117.632812 268.191406 123.609375 269.6875 129.589844 Z M 194.96875 97.457031 L 194.96875 23.484375 C 222.613281 27.96875 246.523438 55.617188 261.46875 97.457031 Z M 180.023438 23.484375 L 180.023438 97.457031 L 113.523438 97.457031 C 128.46875 55.617188 152.378906 27.222656 180.023438 23.484375 Z M 180.023438 112.402344 L 180.023438 129.589844 L 105.304688 129.589844 C 106.796875 123.609375 107.546875 117.632812 109.039062 112.402344 Z M 321.246094 97.457031 L 276.414062 97.457031 C 267.445312 69.8125 253.996094 47.394531 238.304688 31.703125 C 272.675781 42.914062 301.816406 66.074219 321.246094 97.457031 Z M 135.9375 30.957031 C 120.246094 46.648438 106.796875 69.8125 97.832031 97.457031 L 53 97.457031 C 72.425781 66.074219 101.566406 42.914062 135.9375 30.957031 Z M 53.746094 264.082031 L 97.832031 264.082031 C 106.796875 291.730469 119.5 314.144531 135.191406 329.835938 C 101.566406 317.132812 72.425781 293.972656 53.746094 264.082031 Z M 239.050781 329.835938 C 245.777344 323.113281 251.753906 315.640625 256.984375 307.421875 L 263.710938 302.9375 L 271.929688 314.144531 C 261.46875 320.125 250.261719 325.355469 239.050781 329.835938 Z M 315.265625 349.265625 C 314.519531 348.515625 272.675781 288.742188 275.664062 291.730469 C 273.421875 288.742188 270.433594 287.246094 267.445312 286.5 C 263.710938 285.753906 260.722656 286.5 257.730469 288.742188 C 256.984375 289.488281 243.535156 298.453125 244.28125 297.707031 C 245.777344 273.050781 247.273438 243.160156 248.765625 220 L 322.738281 242.414062 L 309.289062 251.382812 C 303.3125 255.117188 301.816406 263.335938 306.300781 269.3125 C 307.792969 270.808594 347.394531 328.34375 345.902344 326.847656 Z M 319.75 264.082031 L 321.992188 264.082031 C 321.992188 264.832031 321.246094 264.832031 321.246094 265.578125 Z M 319.75 264.082031 " fill-opacity="1" fill-rule="nonzero"/></g><path fill="#1b575f" d="M 87.371094 191.605469 L 76.164062 157.980469 L 66.449219 157.980469 L 55.988281 191.605469 L 44.78125 157.980469 L 35.066406 157.980469 L 50.757812 202.066406 L 61.21875 202.066406 L 71.679688 172.179688 L 82.140625 202.066406 L 92.601562 202.066406 L 107.546875 157.980469 L 98.578125 157.980469 Z M 87.371094 191.605469 " fill-opacity="1" fill-rule="nonzero"/><path fill="#1b575f" d="M 162.839844 191.605469 L 151.628906 157.980469 L 142.664062 157.980469 L 131.457031 191.605469 L 120.246094 157.980469 L 110.535156 157.980469 L 126.226562 202.066406 L 136.6875 202.066406 L 147.148438 172.179688 L 157.609375 202.066406 L 168.070312 202.066406 L 183.761719 157.980469 L 174.046875 157.980469 Z M 162.839844 191.605469 " fill-opacity="1" fill-rule="nonzero"/><path fill="#1b575f" d="M 249.511719 157.980469 L 238.304688 191.605469 L 227.84375 157.980469 L 218.132812 157.980469 L 206.921875 191.605469 L 195.714844 157.980469 L 186 157.980469 L 201.691406 202.066406 L 212.152344 202.066406 L 222.613281 172.179688 L 233.074219 202.066406 L 243.535156 202.066406 L 259.226562 157.980469 Z M 249.511719 157.980469 " fill-opacity="1" fill-rule="nonzero"/><path fill="#1b575f" d="M 269.6875 202.8125 C 271.183594 202.8125 272.675781 202.066406 274.171875 201.320312 C 275.664062 199.824219 275.664062 198.332031 275.664062 196.835938 C 275.664062 195.339844 274.917969 193.847656 274.171875 192.351562 C 272.675781 190.859375 271.183594 190.859375 269.6875 190.859375 C 268.191406 190.859375 266.699219 191.605469 265.203125 192.351562 C 263.710938 193.847656 263.710938 195.339844 263.710938 196.835938 C 263.710938 198.332031 264.457031 199.824219 265.203125 201.320312 C 266.699219 202.066406 268.191406 202.8125 269.6875 202.8125 Z M 269.6875 202.8125 " fill-opacity="1" fill-rule="nonzero"/></svg>