<svg xmlns="http://www.w3.org/2000/svg" xmlns:xlink="http://www.w3.org/1999/xlink" width="500" zoomAndPan="magnify" viewBox="0 0 375 374.999991" height="500" preserveAspectRatio="xMidYMid meet" version="1.0"><metadata><ContainsAiGeneratedContent>Yes</ContainsAiGeneratedContent></metadata><defs><clipPath id="40617f0be8"><path d="M 9.636719 9.636719 L 365.136719 9.636719 L 365.136719 365.136719 L 9.636719 365.136719 Z M 9.636719 9.636719 " clip-rule="nonzero"/></clipPath><clipPath id="2d3fc0e71f"><path d="M 115 9.636719 L 227 9.636719 L 227 121 L 115 121 Z M 115 9.636719 " clip-rule="nonzero"/></clipPath><clipPath id="4b32fdc164"><path d="M 70.878906 9.636719 L 273.378906 9.636719 L 273.378906 128.886719 L 70.878906 128.886719 Z M 70.878906 9.636719 " clip-rule="nonzero"/></clipPath><clipPath id="3f20d473d1"><path d="M 92 104 L 273.378906 104 L 273.378906 128.886719 L 92 128.886719 Z M 92 104 " clip-rule="nonzero"/></clipPath><clipPath id="823f253704"><path d="M 115 9.636719 L 227 9.636719 L 227 121 L 115 121 Z M 115 9.636719 " clip-rule="nonzero"/></clipPath></defs><g clip-path="url(#40617f0be8)"><path fill="#1b575f" d="M 359.800781 326.449219 L 337.566406 326.449219 L 337.566406 170.824219 C 337.566406 170.457031 337.53125 170.097656 337.460938 169.738281 C 337.390625 169.378906 337.285156 169.03125 337.144531 168.695312 C 337.003906 168.359375 336.832031 168.039062 336.632812 167.734375 C 336.429688 167.429688 336.199219 167.148438 335.941406 166.890625 C 335.683594 166.632812 335.402344 166.402344 335.097656 166.199219 C 334.792969 165.996094 334.472656 165.828125 334.136719 165.6875 C 333.800781 165.546875 333.453125 165.441406 333.09375 165.371094 C 332.734375 165.300781 332.375 165.265625 332.007812 165.265625 L 298.660156 165.265625 C 298.296875 165.265625 297.933594 165.300781 297.574219 165.371094 C 297.21875 165.441406 296.871094 165.546875 296.53125 165.6875 C 296.195312 165.828125 295.875 165.996094 295.570312 166.199219 C 295.269531 166.402344 294.988281 166.632812 294.730469 166.890625 C 294.472656 167.148438 294.242188 167.429688 294.039062 167.734375 C 293.835938 168.039062 293.664062 168.359375 293.523438 168.695312 C 293.386719 169.03125 293.28125 169.378906 293.207031 169.738281 C 293.136719 170.097656 293.101562 170.457031 293.101562 170.824219 L 293.101562 326.449219 L 265.3125 326.449219 L 265.3125 220.847656 C 265.3125 220.480469 265.277344 220.121094 265.203125 219.761719 C 265.132812 219.402344 265.027344 219.054688 264.886719 218.71875 C 264.75 218.382812 264.578125 218.0625 264.375 217.757812 C 264.171875 217.453125 263.941406 217.171875 263.683594 216.914062 C 263.425781 216.65625 263.144531 216.425781 262.839844 216.222656 C 262.539062 216.019531 262.21875 215.851562 261.878906 215.710938 C 261.542969 215.570312 261.195312 215.464844 260.835938 215.394531 C 260.480469 215.324219 260.117188 215.289062 259.753906 215.289062 L 226.402344 215.289062 C 226.039062 215.289062 225.675781 215.324219 225.320312 215.394531 C 224.960938 215.464844 224.613281 215.570312 224.277344 215.710938 C 223.941406 215.851562 223.621094 216.019531 223.316406 216.222656 C 223.011719 216.425781 222.730469 216.65625 222.472656 216.914062 C 222.214844 217.171875 221.984375 217.453125 221.78125 217.757812 C 221.578125 218.0625 221.410156 218.382812 221.269531 218.71875 C 221.128906 219.054688 221.023438 219.402344 220.953125 219.761719 C 220.882812 220.121094 220.847656 220.480469 220.847656 220.847656 L 220.847656 326.449219 L 193.054688 326.449219 L 193.054688 193.054688 C 193.054688 192.691406 193.019531 192.328125 192.949219 191.96875 C 192.878906 191.613281 192.773438 191.265625 192.632812 190.929688 C 192.492188 190.589844 192.320312 190.269531 192.117188 189.96875 C 191.917969 189.664062 191.6875 189.382812 191.425781 189.125 C 191.167969 188.867188 190.890625 188.636719 190.585938 188.433594 C 190.28125 188.230469 189.960938 188.058594 189.625 187.917969 C 189.285156 187.78125 188.9375 187.675781 188.582031 187.601562 C 188.222656 187.53125 187.863281 187.496094 187.496094 187.496094 L 154.148438 187.496094 C 153.78125 187.496094 153.421875 187.53125 153.0625 187.601562 C 152.707031 187.675781 152.359375 187.78125 152.019531 187.917969 C 151.683594 188.058594 151.363281 188.230469 151.058594 188.433594 C 150.757812 188.636719 150.476562 188.867188 150.21875 189.125 C 149.960938 189.382812 149.730469 189.664062 149.527344 189.96875 C 149.324219 190.269531 149.152344 190.589844 149.011719 190.929688 C 148.871094 191.265625 148.765625 191.613281 148.695312 191.96875 C 148.625 192.328125 148.589844 192.691406 148.589844 193.054688 L 148.589844 326.449219 L 120.800781 326.449219 L 120.800781 254.195312 C 120.800781 253.828125 120.761719 253.46875 120.691406 253.109375 C 120.621094 252.753906 120.515625 252.40625 120.375 252.066406 C 120.238281 251.730469 120.066406 251.410156 119.863281 251.105469 C 119.660156 250.804688 119.429688 250.523438 119.171875 250.265625 C 118.914062 250.007812 118.632812 249.777344 118.328125 249.574219 C 118.027344 249.371094 117.707031 249.199219 117.367188 249.058594 C 117.03125 248.917969 116.683594 248.8125 116.324219 248.742188 C 115.96875 248.671875 115.605469 248.636719 115.242188 248.636719 L 81.890625 248.636719 C 81.527344 248.636719 81.164062 248.671875 80.808594 248.742188 C 80.449219 248.8125 80.101562 248.917969 79.765625 249.058594 C 79.425781 249.199219 79.105469 249.371094 78.804688 249.574219 C 78.5 249.777344 78.21875 250.007812 77.960938 250.265625 C 77.703125 250.523438 77.472656 250.804688 77.269531 251.105469 C 77.066406 251.410156 76.894531 251.730469 76.757812 252.066406 C 76.617188 252.40625 76.511719 252.753906 76.441406 253.109375 C 76.367188 253.46875 76.332031 253.828125 76.332031 254.195312 L 76.332031 326.449219 L 48.542969 326.449219 L 48.542969 15.195312 C 48.542969 14.828125 48.507812 14.46875 48.4375 14.109375 C 48.363281 13.75 48.257812 13.402344 48.121094 13.066406 C 47.980469 12.730469 47.808594 12.410156 47.605469 12.105469 C 47.402344 11.800781 47.171875 11.519531 46.914062 11.261719 C 46.65625 11.003906 46.375 10.773438 46.074219 10.570312 C 45.769531 10.371094 45.449219 10.199219 45.113281 10.058594 C 44.773438 9.917969 44.425781 9.8125 44.070312 9.742188 C 43.710938 9.671875 43.347656 9.636719 42.984375 9.636719 L 15.195312 9.636719 C 14.828125 9.636719 14.46875 9.671875 14.109375 9.742188 C 13.75 9.8125 13.402344 9.917969 13.066406 10.058594 C 12.730469 10.199219 12.410156 10.371094 12.105469 10.570312 C 11.800781 10.773438 11.519531 11.003906 11.261719 11.261719 C 11.003906 11.519531 10.773438 11.800781 10.570312 12.105469 C 10.367188 12.410156 10.199219 12.730469 10.058594 13.066406 C 9.917969 13.402344 9.8125 13.75 9.742188 14.109375 C 9.671875 14.46875 9.636719 14.828125 9.636719 15.195312 L 9.636719 332.007812 C 9.636719 333.101562 9.691406 334.191406 9.800781 335.277344 C 9.90625 336.363281 10.070312 337.441406 10.28125 338.511719 C 10.496094 339.582031 10.761719 340.640625 11.078125 341.6875 C 11.398438 342.730469 11.765625 343.757812 12.183594 344.765625 C 12.601562 345.773438 13.070312 346.761719 13.585938 347.722656 C 14.097656 348.683594 14.660156 349.621094 15.265625 350.527344 C 15.875 351.4375 16.523438 352.3125 17.214844 353.15625 C 17.910156 354 18.640625 354.808594 19.414062 355.578125 C 20.1875 356.351562 20.992188 357.085938 21.839844 357.777344 C 22.683594 358.46875 23.558594 359.121094 24.464844 359.726562 C 25.375 360.332031 26.308594 360.894531 27.269531 361.410156 C 28.234375 361.925781 29.21875 362.390625 30.226562 362.808594 C 31.238281 363.226562 32.261719 363.597656 33.308594 363.914062 C 34.351562 364.230469 35.410156 364.496094 36.480469 364.710938 C 37.550781 364.925781 38.628906 365.085938 39.71875 365.195312 C 40.804688 365.300781 41.894531 365.355469 42.984375 365.359375 L 359.800781 365.359375 C 360.164062 365.359375 360.527344 365.324219 360.882812 365.25 C 361.242188 365.179688 361.589844 365.074219 361.925781 364.9375 C 362.265625 364.796875 362.585938 364.625 362.886719 364.421875 C 363.191406 364.21875 363.472656 363.988281 363.730469 363.730469 C 363.988281 363.472656 364.21875 363.191406 364.421875 362.886719 C 364.625 362.585938 364.796875 362.265625 364.9375 361.925781 C 365.074219 361.589844 365.179688 361.242188 365.25 360.882812 C 365.324219 360.527344 365.359375 360.164062 365.359375 359.800781 L 365.359375 332.007812 C 365.359375 331.644531 365.324219 331.28125 365.25 330.925781 C 365.179688 330.566406 365.074219 330.21875 364.9375 329.882812 C 364.796875 329.542969 364.625 329.222656 364.421875 328.921875 C 364.21875 328.617188 363.988281 328.335938 363.730469 328.078125 C 363.472656 327.820312 363.191406 327.589844 362.886719 327.386719 C 362.585938 327.183594 362.265625 327.011719 361.925781 326.875 C 361.589844 326.734375 361.242188 326.628906 360.882812 326.558594 C 360.527344 326.488281 360.164062 326.449219 359.800781 326.449219 Z M 304.21875 176.378906 L 326.449219 176.378906 L 326.449219 326.449219 L 304.21875 326.449219 Z M 231.960938 226.402344 L 254.195312 226.402344 L 254.195312 326.449219 L 231.960938 326.449219 Z M 159.707031 198.613281 L 181.9375 198.613281 L 181.9375 326.449219 L 159.707031 326.449219 Z M 87.449219 259.753906 L 109.683594 259.753906 L 109.683594 326.449219 L 87.449219 326.449219 Z M 354.242188 354.242188 L 42.984375 354.242188 C 42.257812 354.242188 41.53125 354.203125 40.804688 354.132812 C 40.082031 354.0625 39.363281 353.953125 38.648438 353.8125 C 37.933594 353.667969 37.230469 353.492188 36.535156 353.277344 C 35.835938 353.066406 35.152344 352.820312 34.480469 352.542969 C 33.808594 352.265625 33.152344 351.953125 32.507812 351.609375 C 31.867188 351.265625 31.242188 350.890625 30.636719 350.488281 C 30.035156 350.082031 29.449219 349.648438 28.886719 349.1875 C 28.324219 348.726562 27.785156 348.238281 27.269531 347.722656 C 26.757812 347.207031 26.269531 346.667969 25.804688 346.105469 C 25.34375 345.542969 24.910156 344.960938 24.507812 344.355469 C 24.101562 343.75 23.726562 343.125 23.382812 342.484375 C 23.039062 341.84375 22.730469 341.1875 22.449219 340.515625 C 22.171875 339.839844 21.925781 339.15625 21.714844 338.460938 C 21.503906 337.765625 21.324219 337.058594 21.183594 336.34375 C 21.039062 335.632812 20.933594 334.910156 20.859375 334.1875 C 20.789062 333.464844 20.753906 332.738281 20.75 332.007812 L 20.75 20.753906 L 37.425781 20.753906 L 37.425781 332.007812 C 37.425781 332.375 37.460938 332.734375 37.53125 333.09375 C 37.605469 333.453125 37.710938 333.800781 37.847656 334.136719 C 37.988281 334.472656 38.160156 334.792969 38.363281 335.097656 C 38.566406 335.402344 38.796875 335.683594 39.054688 335.941406 C 39.3125 336.199219 39.59375 336.429688 39.894531 336.632812 C 40.199219 336.832031 40.519531 337.003906 40.855469 337.144531 C 41.195312 337.285156 41.542969 337.390625 41.898438 337.460938 C 42.257812 337.53125 42.621094 337.566406 42.984375 337.566406 L 354.242188 337.566406 Z M 354.242188 354.242188 " fill-opacity="1" fill-rule="nonzero"/></g><path fill="#1b575f" d="M 102.882812 229.90625 L 171.585938 145.347656 L 233.960938 197.324219 C 234.230469 197.550781 234.519531 197.746094 234.828125 197.917969 C 235.136719 198.085938 235.457031 198.226562 235.792969 198.335938 C 236.125 198.445312 236.46875 198.523438 236.816406 198.566406 C 237.167969 198.609375 237.515625 198.621094 237.867188 198.601562 C 238.21875 198.578125 238.566406 198.523438 238.90625 198.4375 C 239.246094 198.347656 239.578125 198.230469 239.894531 198.078125 C 240.214844 197.929688 240.515625 197.75 240.796875 197.542969 C 241.082031 197.335938 241.34375 197.105469 241.585938 196.847656 L 309.777344 123.785156 L 309.777344 143.03125 C 309.777344 143.398438 309.8125 143.757812 309.882812 144.117188 C 309.953125 144.472656 310.058594 144.820312 310.199219 145.160156 C 310.339844 145.496094 310.511719 145.816406 310.714844 146.121094 C 310.917969 146.421875 311.144531 146.703125 311.40625 146.960938 C 311.664062 147.21875 311.941406 147.449219 312.246094 147.652344 C 312.550781 147.855469 312.871094 148.027344 313.207031 148.167969 C 313.542969 148.304688 313.890625 148.410156 314.25 148.484375 C 314.609375 148.554688 314.96875 148.589844 315.335938 148.589844 C 315.699219 148.589844 316.0625 148.554688 316.417969 148.484375 C 316.777344 148.410156 317.125 148.304688 317.460938 148.167969 C 317.800781 148.027344 318.121094 147.855469 318.421875 147.652344 C 318.726562 147.449219 319.007812 147.21875 319.265625 146.960938 C 319.523438 146.703125 319.753906 146.421875 319.957031 146.121094 C 320.160156 145.816406 320.332031 145.496094 320.46875 145.160156 C 320.609375 144.820312 320.714844 144.472656 320.785156 144.117188 C 320.855469 143.757812 320.894531 143.398438 320.894531 143.03125 L 320.894531 109.683594 C 320.882812 109.320312 320.839844 108.960938 320.761719 108.609375 C 320.6875 108.253906 320.574219 107.910156 320.433594 107.578125 C 320.289062 107.246094 320.117188 106.929688 319.914062 106.628906 C 319.710938 106.328125 319.480469 106.050781 319.222656 105.792969 C 318.96875 105.539062 318.691406 105.308594 318.390625 105.105469 C 318.089844 104.902344 317.773438 104.726562 317.441406 104.585938 C 317.105469 104.441406 316.761719 104.332031 316.410156 104.253906 C 316.054688 104.175781 315.695312 104.132812 315.335938 104.125 L 281.984375 104.125 C 281.621094 104.125 281.257812 104.160156 280.902344 104.230469 C 280.542969 104.300781 280.195312 104.40625 279.859375 104.546875 C 279.523438 104.6875 279.203125 104.859375 278.898438 105.0625 C 278.59375 105.265625 278.3125 105.496094 278.054688 105.753906 C 277.796875 106.011719 277.566406 106.292969 277.363281 106.59375 C 277.160156 106.898438 276.992188 107.21875 276.851562 107.554688 C 276.710938 107.894531 276.605469 108.242188 276.535156 108.597656 C 276.464844 108.957031 276.425781 109.316406 276.425781 109.683594 C 276.425781 110.046875 276.464844 110.410156 276.535156 110.765625 C 276.605469 111.125 276.710938 111.472656 276.851562 111.808594 C 276.992188 112.148438 277.160156 112.46875 277.363281 112.769531 C 277.566406 113.074219 277.796875 113.355469 278.054688 113.613281 C 278.3125 113.871094 278.59375 114.101562 278.898438 114.304688 C 279.203125 114.507812 279.523438 114.679688 279.859375 114.816406 C 280.195312 114.957031 280.542969 115.0625 280.902344 115.132812 C 281.257812 115.207031 281.621094 115.242188 281.984375 115.242188 L 302.542969 115.242188 L 237.042969 185.421875 L 174.382812 133.203125 C 173.8125 132.726562 173.175781 132.375 172.460938 132.15625 C 171.75 131.9375 171.027344 131.867188 170.285156 131.941406 C 169.546875 132.015625 168.847656 132.226562 168.191406 132.578125 C 167.539062 132.929688 166.976562 133.394531 166.507812 133.96875 L 94.25 222.902344 C 94.023438 223.183594 93.824219 223.488281 93.652344 223.808594 C 93.484375 224.132812 93.347656 224.46875 93.242188 224.816406 C 93.140625 225.167969 93.070312 225.523438 93.039062 225.886719 C 93.003906 226.25 93.007812 226.613281 93.046875 226.976562 C 93.082031 227.335938 93.15625 227.691406 93.265625 228.042969 C 93.371094 228.390625 93.511719 228.722656 93.6875 229.042969 C 93.859375 229.363281 94.0625 229.664062 94.296875 229.945312 C 94.527344 230.226562 94.785156 230.480469 95.070312 230.710938 C 95.351562 230.941406 95.65625 231.140625 95.976562 231.3125 C 96.300781 231.480469 96.636719 231.617188 96.984375 231.722656 C 97.335938 231.828125 97.691406 231.894531 98.054688 231.929688 C 98.417969 231.964844 98.777344 231.960938 99.140625 231.925781 C 99.503906 231.886719 99.859375 231.816406 100.207031 231.707031 C 100.554688 231.601562 100.890625 231.460938 101.210938 231.289062 C 101.53125 231.113281 101.832031 230.914062 102.113281 230.679688 C 102.394531 230.449219 102.652344 230.191406 102.882812 229.90625 Z M 102.882812 229.90625 " fill-opacity="1" fill-rule="nonzero"/><g clip-path="url(#2d3fc0e71f)"><path fill="#1b575f" d="M 170.824219 120.800781 C 172.644531 120.800781 174.457031 120.710938 176.269531 120.53125 C 178.082031 120.351562 179.878906 120.085938 181.664062 119.730469 C 183.453125 119.375 185.214844 118.933594 186.957031 118.40625 C 188.699219 117.878906 190.410156 117.265625 192.09375 116.566406 C 193.773438 115.871094 195.417969 115.09375 197.023438 114.234375 C 198.628906 113.378906 200.1875 112.441406 201.703125 111.433594 C 203.214844 110.421875 204.675781 109.335938 206.082031 108.183594 C 207.488281 107.027344 208.835938 105.804688 210.125 104.519531 C 211.410156 103.230469 212.632812 101.886719 213.789062 100.476562 C 214.941406 99.070312 216.027344 97.609375 217.035156 96.097656 C 218.046875 94.582031 218.984375 93.023438 219.839844 91.417969 C 220.699219 89.8125 221.476562 88.167969 222.171875 86.488281 C 222.871094 84.804688 223.480469 83.09375 224.011719 81.351562 C 224.539062 79.609375 224.980469 77.847656 225.335938 76.0625 C 225.691406 74.273438 225.957031 72.476562 226.136719 70.664062 C 226.316406 68.855469 226.402344 67.039062 226.402344 65.21875 C 226.402344 63.398438 226.316406 61.582031 226.136719 59.769531 C 225.957031 57.957031 225.691406 56.160156 225.335938 54.375 C 224.980469 52.589844 224.539062 50.824219 224.011719 49.082031 C 223.480469 47.339844 222.871094 45.628906 222.171875 43.945312 C 221.476562 42.265625 220.699219 40.621094 219.839844 39.015625 C 218.984375 37.410156 218.046875 35.851562 217.035156 34.335938 C 216.027344 32.824219 214.941406 31.363281 213.789062 29.957031 C 212.632812 28.550781 211.410156 27.203125 210.125 25.914062 C 208.835938 24.628906 207.488281 23.40625 206.082031 22.253906 C 204.675781 21.097656 203.214844 20.015625 201.703125 19.003906 C 200.1875 17.992188 198.628906 17.058594 197.023438 16.199219 C 195.417969 15.339844 193.773438 14.5625 192.09375 13.867188 C 190.410156 13.167969 188.699219 12.558594 186.957031 12.027344 C 185.214844 11.5 183.453125 11.058594 181.664062 10.703125 C 179.878906 10.347656 178.082031 10.082031 176.269531 9.902344 C 174.457031 9.726562 172.644531 9.636719 170.824219 9.636719 C 169.003906 9.636719 167.1875 9.726562 165.375 9.902344 C 163.5625 10.082031 161.765625 10.347656 159.980469 10.703125 C 158.195312 11.058594 156.429688 11.5 154.6875 12.027344 C 152.945312 12.558594 151.234375 13.167969 149.550781 13.867188 C 147.871094 14.5625 146.226562 15.339844 144.621094 16.199219 C 143.015625 17.058594 141.457031 17.992188 139.941406 19.003906 C 138.429688 20.015625 136.96875 21.097656 135.5625 22.253906 C 134.15625 23.40625 132.808594 24.628906 131.519531 25.914062 C 130.234375 27.203125 129.011719 28.550781 127.855469 29.957031 C 126.703125 31.363281 125.621094 32.824219 124.609375 34.335938 C 123.597656 35.851562 122.660156 37.410156 121.804688 39.015625 C 120.945312 40.621094 120.167969 42.265625 119.472656 43.945312 C 118.773438 45.628906 118.164062 47.339844 117.632812 49.082031 C 117.105469 50.824219 116.664062 52.589844 116.308594 54.375 C 115.953125 56.160156 115.6875 57.957031 115.507812 59.769531 C 115.328125 61.582031 115.242188 63.398438 115.242188 65.21875 C 115.242188 67.035156 115.332031 68.851562 115.515625 70.664062 C 115.695312 72.472656 115.960938 74.273438 116.320312 76.054688 C 116.675781 77.839844 117.117188 79.605469 117.648438 81.34375 C 118.179688 83.085938 118.792969 84.796875 119.488281 86.476562 C 120.1875 88.160156 120.964844 89.800781 121.824219 91.40625 C 122.679688 93.011719 123.617188 94.570312 124.628906 96.082031 C 125.640625 97.59375 126.722656 99.054688 127.875 100.460938 C 129.03125 101.867188 130.253906 103.214844 131.539062 104.5 C 132.824219 105.789062 134.171875 107.007812 135.578125 108.164062 C 136.984375 109.316406 138.445312 110.402344 139.957031 111.414062 C 141.472656 112.421875 143.03125 113.359375 144.632812 114.21875 C 146.238281 115.074219 147.882812 115.855469 149.5625 116.550781 C 151.242188 117.25 152.953125 117.863281 154.695312 118.390625 C 156.4375 118.921875 158.199219 119.363281 159.984375 119.71875 C 161.769531 120.078125 163.566406 120.34375 165.375 120.527344 C 167.1875 120.707031 169.003906 120.796875 170.824219 120.800781 Z M 170.824219 20.753906 C 172.277344 20.753906 173.730469 20.824219 175.179688 20.964844 C 176.628906 21.109375 178.070312 21.320312 179.496094 21.605469 C 180.925781 21.890625 182.335938 22.242188 183.730469 22.667969 C 185.125 23.089844 186.492188 23.578125 187.839844 24.136719 C 189.183594 24.695312 190.5 25.316406 191.785156 26.003906 C 193.066406 26.6875 194.316406 27.4375 195.527344 28.246094 C 196.738281 29.054688 197.90625 29.921875 199.03125 30.84375 C 200.15625 31.769531 201.234375 32.746094 202.265625 33.777344 C 203.292969 34.804688 204.269531 35.882812 205.195312 37.007812 C 206.117188 38.132812 206.984375 39.304688 207.792969 40.511719 C 208.601562 41.722656 209.351562 42.972656 210.039062 44.257812 C 210.722656 45.539062 211.347656 46.855469 211.902344 48.199219 C 212.460938 49.546875 212.949219 50.917969 213.375 52.308594 C 213.796875 53.703125 214.148438 55.113281 214.433594 56.542969 C 214.71875 57.972656 214.929688 59.410156 215.074219 60.859375 C 215.214844 62.308594 215.289062 63.761719 215.289062 65.21875 C 215.289062 66.671875 215.214844 68.125 215.074219 69.574219 C 214.929688 71.023438 214.71875 72.464844 214.433594 73.890625 C 214.148438 75.320312 213.796875 76.730469 213.375 78.125 C 212.949219 79.519531 212.460938 80.886719 211.902344 82.234375 C 211.347656 83.578125 210.722656 84.894531 210.039062 86.179688 C 209.351562 87.460938 208.601562 88.710938 207.792969 89.921875 C 206.984375 91.132812 206.117188 92.300781 205.195312 93.425781 C 204.269531 94.550781 203.292969 95.628906 202.265625 96.660156 C 201.234375 97.6875 200.15625 98.664062 199.03125 99.589844 C 197.90625 100.511719 196.738281 101.378906 195.527344 102.1875 C 194.316406 102.996094 193.066406 103.746094 191.785156 104.433594 C 190.5 105.117188 189.183594 105.742188 187.839844 106.296875 C 186.492188 106.855469 185.125 107.34375 183.730469 107.769531 C 182.335938 108.191406 180.925781 108.542969 179.496094 108.828125 C 178.070312 109.113281 176.628906 109.324219 175.179688 109.46875 C 173.730469 109.609375 172.277344 109.683594 170.824219 109.683594 C 169.367188 109.683594 167.914062 109.609375 166.464844 109.46875 C 165.015625 109.324219 163.574219 109.113281 162.148438 108.828125 C 160.71875 108.542969 159.308594 108.191406 157.914062 107.769531 C 156.519531 107.34375 155.152344 106.855469 153.804688 106.296875 C 152.460938 105.742188 151.144531 105.117188 149.863281 104.433594 C 148.578125 103.746094 147.328125 102.996094 146.117188 102.1875 C 144.90625 101.378906 143.738281 100.511719 142.613281 99.589844 C 141.488281 98.664062 140.410156 97.6875 139.378906 96.660156 C 138.351562 95.628906 137.375 94.550781 136.449219 93.425781 C 135.527344 92.300781 134.660156 91.132812 133.851562 89.921875 C 133.042969 88.710938 132.292969 87.460938 131.609375 86.179688 C 130.921875 84.894531 130.300781 83.578125 129.742188 82.234375 C 129.183594 80.886719 128.695312 79.519531 128.273438 78.125 C 127.847656 76.730469 127.496094 75.320312 127.210938 73.890625 C 126.925781 72.464844 126.714844 71.023438 126.570312 69.574219 C 126.429688 68.125 126.355469 66.671875 126.355469 65.21875 C 126.359375 63.761719 126.433594 62.308594 126.574219 60.859375 C 126.71875 59.410156 126.933594 57.972656 127.21875 56.546875 C 127.503906 55.117188 127.859375 53.707031 128.28125 52.316406 C 128.707031 50.921875 129.199219 49.554688 129.753906 48.210938 C 130.3125 46.863281 130.9375 45.550781 131.621094 44.265625 C 132.308594 42.984375 133.058594 41.734375 133.867188 40.527344 C 134.675781 39.316406 135.542969 38.148438 136.464844 37.023438 C 137.390625 35.898438 138.367188 34.820312 139.394531 33.789062 C 140.425781 32.761719 141.503906 31.785156 142.628906 30.859375 C 143.753906 29.9375 144.921875 29.070312 146.128906 28.261719 C 147.339844 27.453125 148.589844 26.703125 149.871094 26.015625 C 151.15625 25.332031 152.46875 24.707031 153.8125 24.148438 C 155.160156 23.59375 156.527344 23.101562 157.921875 22.679688 C 159.3125 22.253906 160.722656 21.898438 162.152344 21.613281 C 163.578125 21.328125 165.015625 21.113281 166.464844 20.96875 C 167.914062 20.828125 169.367188 20.753906 170.824219 20.753906 Z M 170.824219 20.753906 " fill-opacity="1" fill-rule="nonzero"/></g><path fill="#1b575f" d="M 165.265625 70.382812 L 165.265625 81.527344 C 161 80.804688 159.785156 79.207031 159.707031 78.558594 C 159.683594 78.195312 159.628906 77.839844 159.535156 77.488281 C 159.445312 77.136719 159.320312 76.796875 159.164062 76.46875 C 159.007812 76.140625 158.820312 75.828125 158.601562 75.539062 C 158.386719 75.246094 158.140625 74.976562 157.875 74.734375 C 157.605469 74.488281 157.316406 74.273438 157.003906 74.082031 C 156.695312 73.894531 156.367188 73.738281 156.027344 73.609375 C 155.683594 73.484375 155.335938 73.394531 154.976562 73.335938 C 154.617188 73.277344 154.257812 73.253906 153.894531 73.265625 C 153.527344 73.285156 153.167969 73.335938 152.816406 73.425781 C 152.460938 73.511719 152.117188 73.632812 151.789062 73.789062 C 151.457031 73.945312 151.144531 74.132812 150.851562 74.347656 C 150.558594 74.566406 150.289062 74.808594 150.042969 75.078125 C 149.796875 75.347656 149.582031 75.640625 149.390625 75.953125 C 149.203125 76.265625 149.046875 76.59375 148.925781 76.9375 C 148.800781 77.277344 148.710938 77.632812 148.65625 77.992188 C 148.601562 78.351562 148.582031 78.714844 148.601562 79.082031 C 148.699219 81.21875 150.054688 90.960938 165.265625 92.710938 L 165.265625 93.007812 C 165.265625 93.375 165.300781 93.734375 165.371094 94.09375 C 165.441406 94.449219 165.546875 94.796875 165.6875 95.136719 C 165.828125 95.472656 165.996094 95.792969 166.199219 96.097656 C 166.402344 96.398438 166.632812 96.679688 166.890625 96.9375 C 167.148438 97.195312 167.429688 97.425781 167.734375 97.628906 C 168.039062 97.832031 168.359375 98.003906 168.695312 98.144531 C 169.03125 98.28125 169.378906 98.386719 169.738281 98.460938 C 170.097656 98.53125 170.457031 98.566406 170.820312 98.566406 C 171.1875 98.566406 171.546875 98.53125 171.90625 98.460938 C 172.265625 98.386719 172.613281 98.28125 172.949219 98.144531 C 173.285156 98.003906 173.605469 97.832031 173.910156 97.628906 C 174.214844 97.425781 174.496094 97.195312 174.753906 96.9375 C 175.011719 96.679688 175.242188 96.398438 175.445312 96.097656 C 175.644531 95.792969 175.816406 95.472656 175.957031 95.136719 C 176.097656 94.796875 176.203125 94.449219 176.273438 94.09375 C 176.34375 93.734375 176.378906 93.375 176.378906 93.007812 L 176.378906 92.605469 C 187.335938 90.902344 193.054688 83.558594 193.054688 76.328125 C 193.050781 69.097656 187.328125 61.753906 176.378906 60.050781 L 176.378906 48.902344 C 180.617188 49.621094 181.851562 51.21875 181.9375 51.90625 C 181.960938 52.269531 182.015625 52.625 182.105469 52.976562 C 182.195312 53.328125 182.320312 53.667969 182.476562 53.996094 C 182.636719 54.324219 182.824219 54.632812 183.042969 54.921875 C 183.257812 55.210938 183.503906 55.480469 183.773438 55.722656 C 184.042969 55.964844 184.335938 56.179688 184.648438 56.363281 C 184.960938 56.550781 185.285156 56.703125 185.628906 56.824219 C 185.972656 56.945312 186.320312 57.035156 186.679688 57.085938 C 187.039062 57.140625 187.402344 57.15625 187.765625 57.140625 C 188.128906 57.121094 188.484375 57.066406 188.835938 56.980469 C 189.1875 56.890625 189.53125 56.769531 189.859375 56.617188 C 190.1875 56.460938 190.496094 56.273438 190.789062 56.058594 C 191.082031 55.84375 191.351562 55.601562 191.59375 55.332031 C 191.839844 55.066406 192.054688 54.777344 192.246094 54.464844 C 192.433594 54.15625 192.589844 53.828125 192.714844 53.488281 C 192.835938 53.144531 192.925781 52.796875 192.984375 52.4375 C 193.039062 52.078125 193.058594 51.71875 193.042969 51.355469 C 192.945312 49.214844 191.589844 39.472656 176.378906 37.722656 L 176.378906 37.425781 C 176.378906 37.0625 176.34375 36.699219 176.273438 36.34375 C 176.203125 35.984375 176.097656 35.636719 175.957031 35.300781 C 175.816406 34.960938 175.648438 34.640625 175.445312 34.339844 C 175.242188 34.035156 175.011719 33.753906 174.753906 33.496094 C 174.496094 33.238281 174.214844 33.007812 173.910156 32.804688 C 173.605469 32.601562 173.285156 32.429688 172.949219 32.292969 C 172.613281 32.152344 172.265625 32.046875 171.90625 31.976562 C 171.546875 31.902344 171.1875 31.867188 170.824219 31.867188 C 170.457031 31.867188 170.097656 31.902344 169.738281 31.976562 C 169.378906 32.046875 169.03125 32.152344 168.695312 32.292969 C 168.359375 32.429688 168.039062 32.601562 167.734375 32.804688 C 167.429688 33.007812 167.148438 33.238281 166.890625 33.496094 C 166.632812 33.753906 166.402344 34.035156 166.199219 34.339844 C 166 34.640625 165.828125 34.960938 165.6875 35.300781 C 165.546875 35.636719 165.441406 35.984375 165.371094 36.34375 C 165.300781 36.699219 165.265625 37.0625 165.265625 37.425781 L 165.265625 37.828125 C 154.308594 39.53125 148.589844 46.875 148.589844 54.105469 C 148.589844 61.335938 154.316406 68.679688 165.265625 70.382812 Z M 181.9375 76.332031 C 181.9375 78.316406 180.035156 80.328125 176.378906 81.292969 L 176.378906 71.367188 C 180.035156 72.332031 181.9375 74.347656 181.9375 76.332031 Z M 165.265625 49.140625 L 165.265625 59.066406 C 161.613281 58.101562 159.707031 56.089844 159.707031 54.105469 C 159.707031 52.117188 161.609375 50.105469 165.265625 49.140625 Z M 165.265625 49.140625 " fill-opacity="1" fill-rule="nonzero"/><g clip-path="url(#4b32fdc164)"><path fill="#93e85f" d="M 359.632812 326.472656 L 337.398438 326.472656 L 337.398438 170.832031 C 337.398438 170.46875 337.363281 170.105469 337.292969 169.75 C 337.222656 169.390625 337.117188 169.042969 336.976562 168.707031 C 336.835938 168.367188 336.664062 168.046875 336.460938 167.746094 C 336.257812 167.441406 336.027344 167.160156 335.769531 166.902344 C 335.511719 166.644531 335.230469 166.414062 334.929688 166.210938 C 334.625 166.007812 334.304688 165.835938 333.96875 165.695312 C 333.628906 165.558594 333.28125 165.453125 332.925781 165.382812 C 332.566406 165.308594 332.203125 165.273438 331.839844 165.273438 L 298.488281 165.273438 C 298.125 165.273438 297.761719 165.308594 297.402344 165.382812 C 297.046875 165.453125 296.699219 165.558594 296.363281 165.695312 C 296.023438 165.835938 295.703125 166.007812 295.398438 166.210938 C 295.097656 166.414062 294.816406 166.644531 294.558594 166.902344 C 294.300781 167.160156 294.070312 167.441406 293.867188 167.746094 C 293.664062 168.046875 293.492188 168.367188 293.351562 168.707031 C 293.214844 169.042969 293.109375 169.390625 293.035156 169.75 C 292.964844 170.105469 292.929688 170.46875 292.929688 170.832031 L 292.929688 326.472656 L 265.136719 326.472656 L 265.136719 220.859375 C 265.136719 220.496094 265.101562 220.132812 265.03125 219.773438 C 264.960938 219.417969 264.855469 219.070312 264.714844 218.734375 C 264.574219 218.394531 264.402344 218.074219 264.203125 217.769531 C 264 217.46875 263.769531 217.1875 263.511719 216.929688 C 263.25 216.671875 262.972656 216.441406 262.667969 216.238281 C 262.363281 216.035156 262.042969 215.863281 261.707031 215.722656 C 261.367188 215.585938 261.023438 215.480469 260.664062 215.40625 C 260.304688 215.335938 259.945312 215.300781 259.578125 215.300781 L 226.226562 215.300781 C 225.863281 215.300781 225.5 215.335938 225.144531 215.40625 C 224.785156 215.480469 224.4375 215.585938 224.101562 215.722656 C 223.761719 215.863281 223.441406 216.035156 223.140625 216.238281 C 222.835938 216.441406 222.554688 216.671875 222.296875 216.929688 C 222.039062 217.1875 221.808594 217.46875 221.605469 217.769531 C 221.402344 218.074219 221.230469 218.394531 221.09375 218.734375 C 220.953125 219.070312 220.847656 219.417969 220.777344 219.773438 C 220.703125 220.132812 220.667969 220.496094 220.667969 220.859375 L 220.667969 326.472656 L 192.875 326.472656 L 192.875 193.066406 C 192.875 192.703125 192.839844 192.339844 192.769531 191.984375 C 192.699219 191.625 192.59375 191.277344 192.453125 190.941406 C 192.3125 190.601562 192.144531 190.28125 191.941406 189.980469 C 191.738281 189.675781 191.507812 189.394531 191.25 189.136719 C 190.992188 188.878906 190.710938 188.648438 190.40625 188.445312 C 190.101562 188.242188 189.78125 188.070312 189.445312 187.929688 C 189.109375 187.792969 188.761719 187.6875 188.402344 187.613281 C 188.042969 187.542969 187.683594 187.507812 187.316406 187.507812 L 153.96875 187.507812 C 153.601562 187.507812 153.242188 187.542969 152.882812 187.613281 C 152.523438 187.6875 152.175781 187.792969 151.839844 187.929688 C 151.503906 188.070312 151.183594 188.242188 150.878906 188.445312 C 150.574219 188.648438 150.292969 188.878906 150.035156 189.136719 C 149.777344 189.394531 149.546875 189.675781 149.34375 189.980469 C 149.140625 190.28125 148.972656 190.601562 148.832031 190.941406 C 148.691406 191.277344 148.585938 191.625 148.515625 191.984375 C 148.445312 192.339844 148.410156 192.703125 148.410156 193.066406 L 148.410156 326.472656 L 120.617188 326.472656 L 120.617188 254.210938 C 120.617188 253.847656 120.582031 253.484375 120.507812 253.125 C 120.4375 252.769531 120.332031 252.421875 120.191406 252.082031 C 120.054688 251.746094 119.882812 251.425781 119.679688 251.121094 C 119.476562 250.820312 119.246094 250.539062 118.988281 250.28125 C 118.730469 250.023438 118.449219 249.792969 118.144531 249.589844 C 117.84375 249.386719 117.523438 249.214844 117.183594 249.074219 C 116.847656 248.9375 116.5 248.832031 116.140625 248.757812 C 115.785156 248.6875 115.421875 248.652344 115.058594 248.652344 L 81.707031 248.652344 C 81.339844 248.652344 80.980469 248.6875 80.621094 248.757812 C 80.261719 248.832031 79.914062 248.9375 79.578125 249.074219 C 79.242188 249.214844 78.921875 249.386719 78.617188 249.589844 C 78.3125 249.792969 78.03125 250.023438 77.773438 250.28125 C 77.515625 250.539062 77.285156 250.820312 77.082031 251.121094 C 76.882812 251.425781 76.710938 251.746094 76.570312 252.082031 C 76.429688 252.421875 76.324219 252.769531 76.253906 253.125 C 76.183594 253.484375 76.148438 253.847656 76.148438 254.210938 L 76.148438 326.472656 L 48.355469 326.472656 L 48.355469 15.195312 C 48.355469 14.828125 48.320312 14.46875 48.25 14.109375 C 48.175781 13.75 48.070312 13.402344 47.933594 13.066406 C 47.792969 12.730469 47.621094 12.410156 47.417969 12.105469 C 47.214844 11.800781 46.984375 11.519531 46.726562 11.261719 C 46.46875 11.003906 46.1875 10.773438 45.882812 10.570312 C 45.582031 10.371094 45.261719 10.199219 44.921875 10.058594 C 44.585938 9.917969 44.238281 9.8125 43.878906 9.742188 C 43.523438 9.671875 43.160156 9.636719 42.796875 9.636719 L 15.003906 9.636719 C 14.636719 9.636719 14.277344 9.671875 13.917969 9.742188 C 13.5625 9.8125 13.214844 9.917969 12.875 10.058594 C 12.539062 10.199219 12.21875 10.371094 11.914062 10.570312 C 11.613281 10.773438 11.332031 11.003906 11.074219 11.261719 C 10.816406 11.519531 10.585938 11.800781 10.382812 12.105469 C 10.179688 12.410156 10.007812 12.730469 9.867188 13.066406 C 9.726562 13.402344 9.621094 13.75 9.550781 14.109375 C 9.480469 14.46875 9.445312 14.828125 9.445312 15.195312 L 9.445312 332.03125 C 9.445312 333.121094 9.5 334.210938 9.609375 335.296875 C 9.71875 336.386719 9.878906 337.464844 10.09375 338.535156 C 10.304688 339.605469 10.570312 340.664062 10.890625 341.707031 C 11.207031 342.753906 11.574219 343.777344 11.992188 344.789062 C 12.410156 345.796875 12.878906 346.78125 13.394531 347.746094 C 13.910156 348.707031 14.46875 349.644531 15.078125 350.550781 C 15.683594 351.457031 16.332031 352.335938 17.027344 353.179688 C 17.71875 354.023438 18.453125 354.832031 19.222656 355.601562 C 19.996094 356.375 20.804688 357.105469 21.648438 357.800781 C 22.492188 358.492188 23.367188 359.144531 24.277344 359.75 C 25.183594 360.355469 26.117188 360.917969 27.082031 361.433594 C 28.042969 361.949219 29.03125 362.414062 30.039062 362.832031 C 31.046875 363.25 32.074219 363.621094 33.117188 363.9375 C 34.164062 364.253906 35.222656 364.519531 36.292969 364.734375 C 37.363281 364.949219 38.441406 365.109375 39.527344 365.21875 C 40.613281 365.324219 41.703125 365.378906 42.796875 365.382812 L 359.632812 365.382812 C 359.996094 365.382812 360.359375 365.347656 360.71875 365.273438 C 361.074219 365.203125 361.421875 365.097656 361.761719 364.957031 C 362.097656 364.820312 362.417969 364.648438 362.722656 364.445312 C 363.023438 364.242188 363.304688 364.011719 363.5625 363.753906 C 363.820312 363.496094 364.050781 363.214844 364.253906 362.910156 C 364.457031 362.609375 364.628906 362.289062 364.769531 361.949219 C 364.90625 361.613281 365.011719 361.265625 365.085938 360.90625 C 365.15625 360.550781 365.191406 360.1875 365.191406 359.824219 L 365.191406 332.03125 C 365.191406 331.664062 365.15625 331.304688 365.085938 330.945312 C 365.011719 330.589844 364.90625 330.242188 364.769531 329.902344 C 364.628906 329.566406 364.457031 329.246094 364.253906 328.941406 C 364.050781 328.636719 363.820312 328.359375 363.5625 328.101562 C 363.304688 327.839844 363.023438 327.609375 362.722656 327.410156 C 362.417969 327.207031 362.097656 327.035156 361.761719 326.894531 C 361.421875 326.753906 361.074219 326.648438 360.71875 326.578125 C 360.359375 326.507812 359.996094 326.472656 359.632812 326.472656 Z M 304.046875 176.390625 L 326.28125 176.390625 L 326.28125 326.472656 L 304.046875 326.472656 Z M 231.785156 226.417969 L 254.019531 226.417969 L 254.019531 326.472656 L 231.785156 326.472656 Z M 159.527344 198.625 L 181.757812 198.625 L 181.757812 326.472656 L 159.527344 326.472656 Z M 87.265625 259.769531 L 109.5 259.769531 L 109.5 326.472656 L 87.265625 326.472656 Z M 354.074219 354.265625 L 42.796875 354.265625 C 42.066406 354.265625 41.34375 354.226562 40.617188 354.15625 C 39.894531 354.082031 39.175781 353.976562 38.460938 353.832031 C 37.746094 353.691406 37.042969 353.515625 36.34375 353.300781 C 35.648438 353.089844 34.964844 352.84375 34.292969 352.566406 C 33.617188 352.285156 32.960938 351.976562 32.320312 351.632812 C 31.679688 351.289062 31.054688 350.914062 30.449219 350.511719 C 29.84375 350.105469 29.261719 349.671875 28.699219 349.210938 C 28.132812 348.75 27.597656 348.261719 27.082031 347.746094 C 26.566406 347.230469 26.078125 346.691406 25.617188 346.128906 C 25.15625 345.566406 24.722656 344.984375 24.316406 344.378906 C 23.910156 343.773438 23.539062 343.148438 23.195312 342.507812 C 22.851562 341.863281 22.539062 341.207031 22.261719 340.535156 C 21.980469 339.863281 21.738281 339.179688 21.523438 338.480469 C 21.3125 337.785156 21.136719 337.082031 20.992188 336.367188 C 20.851562 335.652344 20.742188 334.933594 20.671875 334.210938 C 20.597656 333.484375 20.5625 332.757812 20.5625 332.03125 L 20.5625 20.753906 L 37.238281 20.753906 L 37.238281 332.03125 C 37.238281 332.394531 37.273438 332.757812 37.34375 333.113281 C 37.414062 333.472656 37.519531 333.820312 37.660156 334.15625 C 37.800781 334.496094 37.972656 334.816406 38.175781 335.117188 C 38.375 335.421875 38.605469 335.703125 38.867188 335.960938 C 39.125 336.21875 39.402344 336.449219 39.707031 336.652344 C 40.011719 336.855469 40.332031 337.027344 40.667969 337.167969 C 41.007812 337.304688 41.355469 337.410156 41.710938 337.484375 C 42.070312 337.554688 42.429688 337.589844 42.796875 337.589844 L 354.074219 337.589844 Z M 354.074219 354.265625 " fill-opacity="1" fill-rule="nonzero"/></g><g clip-path="url(#3f20d473d1)"><path fill="#93e85f" d="M 102.695312 229.921875 L 171.40625 145.355469 L 233.785156 197.335938 C 234.054688 197.5625 234.34375 197.757812 234.652344 197.929688 C 234.960938 198.101562 235.28125 198.238281 235.617188 198.347656 C 235.949219 198.457031 236.292969 198.535156 236.640625 198.578125 C 236.992188 198.625 237.339844 198.636719 237.691406 198.613281 C 238.042969 198.589844 238.390625 198.535156 238.730469 198.449219 C 239.070312 198.359375 239.402344 198.242188 239.71875 198.089844 C 240.039062 197.941406 240.339844 197.761719 240.625 197.554688 C 240.90625 197.347656 241.171875 197.117188 241.410156 196.859375 L 309.605469 123.792969 L 309.605469 143.039062 C 309.605469 143.40625 309.640625 143.765625 309.710938 144.125 C 309.785156 144.484375 309.890625 144.832031 310.027344 145.167969 C 310.167969 145.503906 310.339844 145.824219 310.542969 146.128906 C 310.746094 146.433594 310.976562 146.710938 311.234375 146.972656 C 311.492188 147.230469 311.773438 147.460938 312.074219 147.664062 C 312.378906 147.863281 312.699219 148.035156 313.039062 148.175781 C 313.375 148.316406 313.722656 148.421875 314.078125 148.492188 C 314.4375 148.5625 314.800781 148.597656 315.164062 148.597656 C 315.527344 148.597656 315.890625 148.5625 316.25 148.492188 C 316.605469 148.421875 316.953125 148.316406 317.292969 148.175781 C 317.628906 148.035156 317.949219 147.863281 318.253906 147.664062 C 318.554688 147.460938 318.835938 147.230469 319.09375 146.972656 C 319.351562 146.710938 319.582031 146.433594 319.785156 146.128906 C 319.988281 145.824219 320.160156 145.503906 320.300781 145.167969 C 320.4375 144.832031 320.542969 144.484375 320.617188 144.125 C 320.6875 143.765625 320.722656 143.40625 320.722656 143.039062 L 320.722656 109.6875 C 320.714844 109.328125 320.671875 108.96875 320.59375 108.613281 C 320.515625 108.261719 320.40625 107.917969 320.261719 107.582031 C 320.121094 107.25 319.945312 106.933594 319.742188 106.632812 C 319.539062 106.335938 319.308594 106.054688 319.054688 105.800781 C 318.796875 105.542969 318.519531 105.3125 318.21875 105.109375 C 317.917969 104.90625 317.601562 104.734375 317.269531 104.589844 C 316.9375 104.449219 316.59375 104.339844 316.238281 104.261719 C 315.886719 104.183594 315.527344 104.140625 315.164062 104.128906 L 281.8125 104.128906 C 281.449219 104.128906 281.085938 104.167969 280.730469 104.238281 C 280.371094 104.308594 280.023438 104.414062 279.6875 104.554688 C 279.347656 104.695312 279.027344 104.863281 278.726562 105.066406 C 278.421875 105.269531 278.140625 105.5 277.882812 105.757812 C 277.625 106.015625 277.394531 106.296875 277.191406 106.601562 C 276.988281 106.90625 276.816406 107.226562 276.675781 107.5625 C 276.539062 107.898438 276.433594 108.246094 276.363281 108.605469 C 276.289062 108.960938 276.253906 109.324219 276.253906 109.6875 C 276.253906 110.054688 276.289062 110.414062 276.363281 110.773438 C 276.433594 111.132812 276.539062 111.480469 276.675781 111.816406 C 276.816406 112.152344 276.988281 112.472656 277.191406 112.777344 C 277.394531 113.082031 277.625 113.363281 277.882812 113.621094 C 278.140625 113.878906 278.421875 114.109375 278.726562 114.3125 C 279.027344 114.515625 279.347656 114.683594 279.6875 114.824219 C 280.023438 114.964844 280.371094 115.070312 280.730469 115.140625 C 281.085938 115.210938 281.449219 115.246094 281.8125 115.246094 L 302.371094 115.246094 L 236.867188 185.433594 L 174.203125 133.210938 C 173.632812 132.734375 172.992188 132.382812 172.28125 132.164062 C 171.570312 131.945312 170.84375 131.875 170.105469 131.949219 C 169.363281 132.023438 168.667969 132.234375 168.011719 132.585938 C 167.359375 132.9375 166.796875 133.402344 166.328125 133.976562 L 94.066406 222.914062 C 93.835938 223.199219 93.636719 223.5 93.46875 223.824219 C 93.296875 224.148438 93.160156 224.484375 93.058594 224.832031 C 92.953125 225.183594 92.886719 225.539062 92.851562 225.902344 C 92.820312 226.265625 92.820312 226.625 92.859375 226.988281 C 92.898438 227.351562 92.972656 227.707031 93.078125 228.054688 C 93.1875 228.402344 93.328125 228.738281 93.5 229.058594 C 93.675781 229.378906 93.878906 229.679688 94.109375 229.960938 C 94.34375 230.242188 94.601562 230.496094 94.886719 230.726562 C 95.167969 230.957031 95.46875 231.15625 95.792969 231.324219 C 96.113281 231.496094 96.449219 231.632812 96.800781 231.738281 C 97.148438 231.839844 97.503906 231.910156 97.867188 231.945312 C 98.230469 231.976562 98.59375 231.976562 98.957031 231.941406 C 99.320312 231.902344 99.675781 231.832031 100.023438 231.722656 C 100.371094 231.617188 100.707031 231.476562 101.027344 231.300781 C 101.347656 231.128906 101.648438 230.925781 101.929688 230.695312 C 102.210938 230.460938 102.464844 230.207031 102.695312 229.921875 Z M 102.695312 229.921875 " fill-opacity="1" fill-rule="nonzero"/></g><g clip-path="url(#823f253704)"><path fill="#93e85f" d="M 170.640625 120.804688 C 172.464844 120.804688 174.277344 120.71875 176.089844 120.539062 C 177.902344 120.359375 179.699219 120.09375 181.488281 119.738281 C 183.273438 119.382812 185.035156 118.941406 186.777344 118.414062 C 188.519531 117.882812 190.230469 117.273438 191.914062 116.574219 C 193.597656 115.878906 195.238281 115.101562 196.84375 114.242188 C 198.449219 113.382812 200.011719 112.449219 201.523438 111.4375 C 203.039062 110.425781 204.5 109.34375 205.90625 108.1875 C 207.3125 107.035156 208.660156 105.8125 209.945312 104.527344 C 211.234375 103.238281 212.457031 101.890625 213.609375 100.484375 C 214.765625 99.078125 215.847656 97.617188 216.859375 96.101562 C 217.871094 94.589844 218.804688 93.027344 219.664062 91.421875 C 220.523438 89.816406 221.300781 88.175781 221.996094 86.492188 C 222.691406 84.8125 223.304688 83.097656 223.835938 81.355469 C 224.363281 79.613281 224.804688 77.851562 225.160156 76.066406 C 225.515625 74.28125 225.78125 72.480469 225.960938 70.667969 C 226.136719 68.859375 226.226562 67.042969 226.226562 65.222656 C 226.226562 63.402344 226.136719 61.585938 225.960938 59.773438 C 225.78125 57.960938 225.515625 56.164062 225.160156 54.375 C 224.804688 52.589844 224.363281 50.828125 223.835938 49.085938 C 223.304688 47.34375 222.691406 45.632812 221.996094 43.949219 C 221.300781 42.265625 220.523438 40.625 219.664062 39.019531 C 218.804688 37.414062 217.871094 35.851562 216.859375 34.339844 C 215.847656 32.824219 214.765625 31.367188 213.609375 29.957031 C 212.457031 28.550781 211.234375 27.203125 209.945312 25.917969 C 208.660156 24.628906 207.3125 23.40625 205.90625 22.253906 C 204.5 21.097656 203.039062 20.015625 201.523438 19.003906 C 200.011719 17.992188 198.449219 17.058594 196.84375 16.199219 C 195.238281 15.339844 193.597656 14.5625 191.914062 13.867188 C 190.230469 13.171875 188.519531 12.558594 186.777344 12.027344 C 185.035156 11.5 183.273438 11.058594 181.488281 10.703125 C 179.699219 10.347656 177.902344 10.082031 176.089844 9.902344 C 174.277344 9.726562 172.464844 9.636719 170.640625 9.636719 C 168.820312 9.636719 167.007812 9.726562 165.195312 9.902344 C 163.382812 10.082031 161.582031 10.347656 159.796875 10.703125 C 158.011719 11.058594 156.25 11.5 154.507812 12.027344 C 152.765625 12.558594 151.054688 13.171875 149.371094 13.867188 C 147.6875 14.5625 146.046875 15.339844 144.441406 16.199219 C 142.835938 17.058594 141.273438 17.992188 139.761719 19.003906 C 138.246094 20.015625 136.785156 21.097656 135.378906 22.253906 C 133.972656 23.40625 132.625 24.628906 131.335938 25.917969 C 130.050781 27.203125 128.828125 28.550781 127.675781 29.957031 C 126.519531 31.367188 125.4375 32.824219 124.425781 34.339844 C 123.414062 35.851562 122.480469 37.414062 121.621094 39.019531 C 120.761719 40.625 119.984375 42.265625 119.289062 43.949219 C 118.589844 45.632812 117.980469 47.34375 117.449219 49.085938 C 116.921875 50.828125 116.480469 52.589844 116.125 54.375 C 115.769531 56.164062 115.503906 57.960938 115.324219 59.773438 C 115.144531 61.585938 115.058594 63.402344 115.058594 65.222656 C 115.058594 67.039062 115.148438 68.855469 115.332031 70.667969 C 115.511719 72.476562 115.777344 74.277344 116.136719 76.0625 C 116.492188 77.84375 116.933594 79.609375 117.464844 81.347656 C 117.996094 83.089844 118.609375 84.800781 119.304688 86.484375 C 120.003906 88.164062 120.78125 89.804688 121.640625 91.410156 C 122.496094 93.015625 123.433594 94.574219 124.445312 96.085938 C 125.457031 97.601562 126.539062 99.058594 127.695312 100.464844 C 128.847656 101.875 130.070312 103.21875 131.355469 104.507812 C 132.644531 105.792969 133.988281 107.015625 135.398438 108.167969 C 136.804688 109.324219 138.261719 110.40625 139.777344 111.417969 C 141.289062 112.429688 142.847656 113.367188 144.453125 114.222656 C 146.058594 115.082031 147.699219 115.859375 149.378906 116.558594 C 151.0625 117.253906 152.773438 117.867188 154.515625 118.398438 C 156.253906 118.929688 158.019531 119.371094 159.800781 119.726562 C 161.585938 120.085938 163.386719 120.351562 165.195312 120.53125 C 167.007812 120.714844 168.824219 120.804688 170.640625 120.804688 Z M 170.640625 20.753906 C 172.097656 20.753906 173.550781 20.824219 175 20.96875 C 176.449219 21.109375 177.890625 21.324219 179.316406 21.605469 C 180.746094 21.890625 182.15625 22.246094 183.550781 22.667969 C 184.945312 23.089844 186.3125 23.582031 187.660156 24.136719 C 189.003906 24.695312 190.320312 25.316406 191.605469 26.003906 C 192.890625 26.691406 194.136719 27.4375 195.347656 28.246094 C 196.558594 29.054688 197.726562 29.921875 198.851562 30.847656 C 199.980469 31.769531 201.054688 32.746094 202.085938 33.777344 C 203.117188 34.808594 204.09375 35.886719 205.015625 37.011719 C 205.941406 38.136719 206.808594 39.304688 207.617188 40.515625 C 208.425781 41.726562 209.171875 42.972656 209.859375 44.257812 C 210.546875 45.542969 211.167969 46.859375 211.726562 48.203125 C 212.28125 49.550781 212.773438 50.917969 213.195312 52.3125 C 213.617188 53.707031 213.972656 55.117188 214.257812 56.546875 C 214.539062 57.972656 214.753906 59.414062 214.898438 60.863281 C 215.039062 62.3125 215.109375 63.765625 215.109375 65.222656 C 215.109375 66.675781 215.039062 68.128906 214.898438 69.578125 C 214.753906 71.027344 214.539062 72.46875 214.257812 73.894531 C 213.972656 75.324219 213.617188 76.734375 213.195312 78.128906 C 212.773438 79.523438 212.28125 80.894531 211.726562 82.238281 C 211.167969 83.582031 210.546875 84.898438 209.859375 86.183594 C 209.171875 87.46875 208.425781 88.714844 207.617188 89.925781 C 206.808594 91.136719 205.941406 92.304688 205.015625 93.429688 C 204.09375 94.558594 203.117188 95.636719 202.085938 96.664062 C 201.054688 97.695312 199.980469 98.671875 198.851562 99.59375 C 197.726562 100.519531 196.558594 101.386719 195.347656 102.195312 C 194.136719 103.003906 192.890625 103.75 191.605469 104.4375 C 190.320312 105.125 189.003906 105.746094 187.660156 106.304688 C 186.3125 106.863281 184.945312 107.351562 183.550781 107.773438 C 182.15625 108.195312 180.746094 108.550781 179.316406 108.835938 C 177.890625 109.117188 176.449219 109.332031 175 109.476562 C 173.550781 109.617188 172.097656 109.6875 170.640625 109.6875 C 169.1875 109.6875 167.734375 109.617188 166.285156 109.476562 C 164.835938 109.332031 163.394531 109.117188 161.96875 108.835938 C 160.539062 108.550781 159.128906 108.195312 157.734375 107.773438 C 156.339844 107.351562 154.972656 106.863281 153.625 106.304688 C 152.28125 105.746094 150.964844 105.125 149.679688 104.4375 C 148.394531 103.75 147.148438 103.003906 145.9375 102.195312 C 144.726562 101.386719 143.558594 100.519531 142.433594 99.59375 C 141.304688 98.671875 140.226562 97.695312 139.199219 96.664062 C 138.167969 95.636719 137.191406 94.558594 136.269531 93.429688 C 135.34375 92.304688 134.476562 91.136719 133.667969 89.925781 C 132.859375 88.714844 132.113281 87.46875 131.425781 86.183594 C 130.738281 84.898438 130.117188 83.582031 129.558594 82.238281 C 129 80.894531 128.511719 79.523438 128.089844 78.128906 C 127.667969 76.734375 127.3125 75.324219 127.027344 73.894531 C 126.746094 72.46875 126.53125 71.027344 126.386719 69.578125 C 126.246094 68.128906 126.175781 66.675781 126.175781 65.222656 C 126.175781 63.765625 126.25 62.3125 126.394531 60.863281 C 126.535156 59.414062 126.75 57.976562 127.035156 56.550781 C 127.324219 55.121094 127.675781 53.710938 128.101562 52.316406 C 128.523438 50.925781 129.015625 49.554688 129.574219 48.210938 C 130.128906 46.867188 130.753906 45.550781 131.441406 44.269531 C 132.125 42.984375 132.875 41.738281 133.683594 40.527344 C 134.492188 39.316406 135.359375 38.148438 136.285156 37.023438 C 137.207031 35.898438 138.183594 34.820312 139.214844 33.792969 C 140.242188 32.761719 141.320312 31.785156 142.445312 30.863281 C 143.570312 29.9375 144.738281 29.070312 145.949219 28.261719 C 147.160156 27.453125 148.40625 26.707031 149.691406 26.019531 C 150.972656 25.332031 152.289062 24.710938 153.632812 24.152344 C 154.976562 23.59375 156.347656 23.101562 157.738281 22.679688 C 159.132812 22.253906 160.542969 21.902344 161.96875 21.617188 C 163.398438 21.332031 164.835938 21.117188 166.285156 20.972656 C 167.734375 20.828125 169.1875 20.753906 170.640625 20.753906 Z M 170.640625 20.753906 " fill-opacity="1" fill-rule="nonzero"/></g><path fill="#93e85f" d="M 165.082031 70.386719 L 165.082031 81.53125 C 160.816406 80.8125 159.605469 79.214844 159.527344 78.5625 C 159.503906 78.199219 159.445312 77.84375 159.355469 77.492188 C 159.265625 77.140625 159.140625 76.800781 158.984375 76.472656 C 158.824219 76.144531 158.636719 75.832031 158.421875 75.542969 C 158.203125 75.25 157.960938 74.980469 157.691406 74.738281 C 157.425781 74.492188 157.132812 74.277344 156.824219 74.085938 C 156.511719 73.898438 156.1875 73.742188 155.84375 73.617188 C 155.503906 73.488281 155.152344 73.398438 154.796875 73.339844 C 154.4375 73.28125 154.074219 73.257812 153.710938 73.269531 C 153.347656 73.289062 152.988281 73.339844 152.632812 73.429688 C 152.28125 73.515625 151.9375 73.636719 151.605469 73.792969 C 151.277344 73.949219 150.964844 74.136719 150.671875 74.351562 C 150.378906 74.570312 150.109375 74.8125 149.863281 75.082031 C 149.617188 75.351562 149.398438 75.644531 149.210938 75.957031 C 149.023438 76.269531 148.867188 76.597656 148.742188 76.941406 C 148.617188 77.285156 148.53125 77.636719 148.476562 77.996094 C 148.421875 78.355469 148.402344 78.71875 148.417969 79.085938 C 148.519531 81.226562 149.875 90.96875 165.082031 92.71875 L 165.082031 93.011719 C 165.082031 93.378906 165.121094 93.738281 165.191406 94.097656 C 165.261719 94.457031 165.367188 94.804688 165.507812 95.140625 C 165.644531 95.476562 165.816406 95.796875 166.019531 96.101562 C 166.222656 96.40625 166.453125 96.6875 166.710938 96.945312 C 166.96875 97.203125 167.25 97.433594 167.554688 97.636719 C 167.859375 97.839844 168.179688 98.007812 168.515625 98.148438 C 168.851562 98.289062 169.199219 98.394531 169.558594 98.464844 C 169.914062 98.535156 170.277344 98.570312 170.640625 98.570312 C 171.007812 98.570312 171.367188 98.535156 171.726562 98.464844 C 172.085938 98.394531 172.433594 98.289062 172.769531 98.148438 C 173.105469 98.007812 173.425781 97.839844 173.730469 97.636719 C 174.035156 97.433594 174.316406 97.203125 174.574219 96.945312 C 174.832031 96.6875 175.0625 96.40625 175.265625 96.101562 C 175.464844 95.796875 175.636719 95.476562 175.777344 95.140625 C 175.917969 94.804688 176.023438 94.457031 176.09375 94.097656 C 176.164062 93.738281 176.199219 93.378906 176.199219 93.011719 L 176.199219 92.613281 C 187.15625 90.910156 192.875 83.566406 192.875 76.332031 C 192.871094 69.101562 187.148438 61.757812 176.199219 60.054688 L 176.199219 48.90625 C 180.4375 49.625 181.671875 51.222656 181.757812 51.910156 C 181.78125 52.269531 181.835938 52.628906 181.925781 52.980469 C 182.019531 53.332031 182.140625 53.671875 182.300781 54 C 182.457031 54.324219 182.644531 54.632812 182.863281 54.925781 C 183.082031 55.214844 183.324219 55.480469 183.59375 55.726562 C 183.863281 55.96875 184.15625 56.183594 184.46875 56.367188 C 184.78125 56.554688 185.109375 56.707031 185.449219 56.828125 C 185.792969 56.949219 186.144531 57.035156 186.503906 57.089844 C 186.863281 57.140625 187.222656 57.160156 187.585938 57.140625 C 187.949219 57.125 188.304688 57.070312 188.660156 56.984375 C 189.011719 56.894531 189.351562 56.773438 189.679688 56.617188 C 190.007812 56.464844 190.320312 56.277344 190.609375 56.0625 C 190.902344 55.847656 191.171875 55.605469 191.417969 55.335938 C 191.660156 55.070312 191.878906 54.777344 192.066406 54.46875 C 192.253906 54.15625 192.410156 53.832031 192.535156 53.492188 C 192.660156 53.148438 192.75 52.800781 192.804688 52.441406 C 192.859375 52.082031 192.878906 51.71875 192.863281 51.355469 C 192.765625 49.214844 191.410156 39.472656 176.199219 37.726562 L 176.199219 37.429688 C 176.199219 37.0625 176.164062 36.703125 176.09375 36.34375 C 176.023438 35.984375 175.917969 35.636719 175.777344 35.300781 C 175.636719 34.964844 175.46875 34.644531 175.265625 34.339844 C 175.0625 34.035156 174.832031 33.757812 174.574219 33.496094 C 174.316406 33.238281 174.035156 33.007812 173.730469 32.804688 C 173.425781 32.605469 173.105469 32.433594 172.769531 32.292969 C 172.433594 32.152344 172.085938 32.046875 171.726562 31.976562 C 171.367188 31.90625 171.007812 31.871094 170.640625 31.871094 C 170.277344 31.871094 169.914062 31.90625 169.558594 31.976562 C 169.199219 32.046875 168.851562 32.152344 168.515625 32.292969 C 168.179688 32.433594 167.859375 32.605469 167.554688 32.804688 C 167.25 33.007812 166.96875 33.238281 166.710938 33.496094 C 166.453125 33.757812 166.222656 34.035156 166.019531 34.339844 C 165.816406 34.644531 165.648438 34.964844 165.507812 35.300781 C 165.367188 35.636719 165.261719 35.984375 165.191406 36.34375 C 165.121094 36.703125 165.082031 37.0625 165.082031 37.429688 L 165.082031 37.828125 C 154.128906 39.535156 148.410156 46.878906 148.410156 54.109375 C 148.410156 61.339844 154.136719 68.683594 165.082031 70.386719 Z M 181.757812 76.339844 C 181.757812 78.320312 179.855469 80.332031 176.199219 81.296875 L 176.199219 71.371094 C 179.855469 72.335938 181.757812 74.351562 181.757812 76.339844 Z M 165.082031 49.144531 L 165.082031 59.070312 C 161.433594 58.105469 159.527344 56.09375 159.527344 54.105469 C 159.527344 52.121094 161.429688 50.109375 165.082031 49.144531 Z M 165.082031 49.144531 " fill-opacity="1" fill-rule="nonzero"/></svg>