<svg xmlns="http://www.w3.org/2000/svg" xmlns:xlink="http://www.w3.org/1999/xlink" width="500" zoomAndPan="magnify" viewBox="0 0 375 374.999991" height="500" preserveAspectRatio="xMidYMid meet" version="1.0"><metadata><ContainsAiGeneratedContent>Yes</ContainsAiGeneratedContent></metadata><defs><clipPath id="99c9cf9fe5"><path d="M 4 194.117188 L 372 194.117188 L 372 346.367188 L 4 346.367188 Z M 4 194.117188 " clip-rule="nonzero"/></clipPath><clipPath id="5423f71234"><path d="M 34 194.117188 L 342 194.117188 L 342 323 L 34 323 Z M 34 194.117188 " clip-rule="nonzero"/></clipPath><clipPath id="5bbbb0372c"><path d="M 170 194.117188 L 205 194.117188 L 205 255 L 170 255 Z M 170 194.117188 " clip-rule="nonzero"/></clipPath></defs><path fill="#1b575f" d="M 198.449219 37.328125 L 367.980469 320.242188 C 374.769531 331.570312 366.65625 345.886719 353.453125 345.886719 L 21.472656 345.886719 C 8.269531 345.886719 0.15625 331.570312 6.941406 320.242188 L 176.476562 37.328125 C 181.4375 29.046875 193.488281 29.046875 198.449219 37.328125 Z M 198.449219 37.328125 " fill-opacity="1" fill-rule="evenodd"/><path fill="#eff4f7" d="M 187.460938 66.082031 L 34.296875 321.683594 L 340.628906 321.683594 Z M 187.460938 66.082031 " fill-opacity="1" fill-rule="evenodd"/><path fill="#1b575f" d="M 197.652344 243.144531 C 197.652344 257.171875 176.300781 257.171875 176.300781 243.144531 L 169.746094 143.316406 C 169.746094 120.675781 204.207031 120.671875 204.207031 143.316406 Z M 197.652344 243.144531 " fill-opacity="1" fill-rule="evenodd"/><path fill="#1b575f" d="M 186.980469 295.683594 C 194.542969 295.683594 200.71875 289.511719 200.71875 281.945312 C 200.71875 274.378906 194.546875 268.207031 186.980469 268.207031 C 179.414062 268.207031 173.238281 274.378906 173.238281 281.945312 C 173.238281 289.511719 179.414062 295.683594 186.980469 295.683594 Z M 186.980469 295.683594 " fill-opacity="1" fill-rule="evenodd"/><g clip-path="url(#99c9cf9fe5)"><path fill="#93e85f" d="M 198.84375 37.460938 L 368.71875 320.941406 C 375.519531 332.289062 367.386719 346.636719 354.160156 346.636719 L 21.515625 346.636719 C 8.285156 346.636719 0.15625 332.289062 6.957031 320.941406 L 176.828125 37.460938 C 181.800781 29.164062 193.875 29.164062 198.84375 37.460938 Z M 198.84375 37.460938 " fill-opacity="1" fill-rule="evenodd"/></g><g clip-path="url(#5423f71234)"><path fill="#eff4f7" d="M 187.835938 66.273438 L 34.367188 322.382812 L 341.308594 322.382812 Z M 187.835938 66.273438 " fill-opacity="1" fill-rule="evenodd"/></g><g clip-path="url(#5bbbb0372c)"><path fill="#93e85f" d="M 198.050781 243.6875 C 198.050781 257.742188 176.652344 257.742188 176.652344 243.6875 L 170.085938 143.660156 C 170.085938 120.972656 204.617188 120.972656 204.617188 143.660156 Z M 198.050781 243.6875 " fill-opacity="1" fill-rule="evenodd"/></g><path fill="#93e85f" d="M 187.351562 296.332031 C 194.933594 296.332031 201.121094 290.148438 201.121094 282.566406 C 201.121094 274.984375 194.933594 268.800781 187.351562 268.800781 C 179.773438 268.800781 173.585938 274.984375 173.585938 282.566406 C 173.585938 290.148438 179.769531 296.332031 187.351562 296.332031 Z M 187.351562 296.332031 " fill-opacity="1" fill-rule="evenodd"/></svg>