<svg xmlns="http://www.w3.org/2000/svg" xmlns:xlink="http://www.w3.org/1999/xlink" width="500" zoomAndPan="magnify" viewBox="0 0 375 374.999991" height="500" preserveAspectRatio="xMidYMid meet" version="1.0"><metadata><ContainsAiGeneratedContent>Yes</ContainsAiGeneratedContent></metadata><defs><clipPath id="f2e923bc74"><path d="M 9.078125 9.417969 L 366 9.417969 L 366 122 L 9.078125 122 Z M 9.078125 9.417969 " clip-rule="nonzero"/></clipPath><clipPath id="810b819a83"><path d="M 281 307 L 313 307 L 313 363.335938 L 281 363.335938 Z M 281 307 " clip-rule="nonzero"/></clipPath><clipPath id="63c2f2952b"><path d="M 9.078125 140 L 92 140 L 92 264 L 9.078125 264 Z M 9.078125 140 " clip-rule="nonzero"/></clipPath></defs><g clip-path="url(#f2e923bc74)"><path fill="#1b575f" d="M 363.332031 18.492188 L 319.089844 9.746094 C 318.492188 9.628906 317.914062 9.679688 317.347656 9.902344 C 316.78125 10.125 316.324219 10.484375 315.972656 10.980469 C 315.613281 11.472656 315.417969 12.023438 315.386719 12.628906 C 315.359375 13.238281 315.5 13.804688 315.808594 14.328125 L 323.519531 27.691406 C 323.628906 27.882812 323.714844 28.082031 323.78125 28.289062 C 323.847656 28.5 323.890625 28.710938 323.914062 28.929688 C 323.933594 29.148438 323.933594 29.367188 323.90625 29.582031 C 323.882812 29.800781 323.835938 30.011719 323.765625 30.21875 C 323.695312 30.429688 323.605469 30.625 323.492188 30.816406 C 323.382812 31.003906 323.253906 31.179688 323.105469 31.339844 C 322.957031 31.5 322.792969 31.644531 322.613281 31.769531 C 322.4375 31.898438 322.246094 32.003906 322.042969 32.089844 L 226.464844 72.550781 C 226.101562 72.703125 225.726562 72.785156 225.332031 72.792969 C 224.9375 72.804688 224.554688 72.738281 224.1875 72.601562 C 223.816406 72.46875 223.488281 72.269531 223.191406 72.003906 C 222.898438 71.742188 222.664062 71.4375 222.488281 71.082031 L 199.640625 25.382812 C 199.199219 24.496094 198.679688 23.660156 198.078125 22.875 C 197.476562 22.089844 196.804688 21.367188 196.066406 20.710938 C 195.328125 20.054688 194.53125 19.472656 193.679688 18.96875 C 192.828125 18.464844 191.9375 18.046875 191.003906 17.714844 C 190.074219 17.382812 189.121094 17.140625 188.140625 16.992188 C 187.164062 16.84375 186.179688 16.789062 185.191406 16.832031 C 184.203125 16.871094 183.226562 17.003906 182.265625 17.230469 C 181.304688 17.457031 180.371094 17.777344 179.46875 18.183594 L 14.984375 87.695312 C 14.144531 88.050781 13.371094 88.519531 12.667969 89.101562 C 11.964844 89.683594 11.363281 90.355469 10.855469 91.117188 C 10.351562 91.878906 9.96875 92.695312 9.707031 93.570312 C 9.441406 94.441406 9.3125 95.335938 9.3125 96.25 L 9.3125 112.441406 C 9.09375 118.941406 16.457031 123.753906 22.324219 120.949219 L 175.902344 53.707031 C 176.265625 53.546875 176.644531 53.457031 177.042969 53.445312 C 177.441406 53.433594 177.824219 53.492188 178.199219 53.628906 C 178.570312 53.761719 178.90625 53.960938 179.203125 54.226562 C 179.5 54.492188 179.738281 54.800781 179.914062 55.15625 L 202.910156 101.152344 C 203.363281 102.042969 203.898438 102.882812 204.511719 103.671875 C 205.125 104.457031 205.808594 105.179688 206.5625 105.835938 C 207.316406 106.496094 208.125 107.074219 208.988281 107.574219 C 209.851562 108.074219 210.757812 108.488281 211.699219 108.816406 C 212.644531 109.144531 213.609375 109.378906 214.597656 109.519531 C 215.589844 109.660156 216.582031 109.707031 217.578125 109.65625 C 218.578125 109.605469 219.5625 109.460938 220.53125 109.222656 C 221.5 108.984375 222.4375 108.652344 223.347656 108.234375 L 334.953125 53.265625 C 335.304688 53.09375 335.679688 52.992188 336.070312 52.960938 C 336.460938 52.929688 336.84375 52.96875 337.21875 53.085938 C 337.59375 53.199219 337.9375 53.378906 338.246094 53.621094 C 338.554688 53.863281 338.804688 54.15625 339.003906 54.496094 L 345.511719 65.769531 C 345.816406 66.296875 346.238281 66.699219 346.777344 66.976562 C 347.320312 67.253906 347.890625 67.363281 348.496094 67.304688 C 349.101562 67.242188 349.640625 67.027344 350.117188 66.648438 C 350.59375 66.269531 350.929688 65.796875 351.125 65.21875 L 365.671875 22.53125 C 365.742188 22.320312 365.789062 22.105469 365.8125 21.886719 C 365.835938 21.667969 365.839844 21.449219 365.816406 21.230469 C 365.792969 21.007812 365.75 20.796875 365.679688 20.585938 C 365.613281 20.375 365.523438 20.175781 365.414062 19.984375 C 365.300781 19.792969 365.171875 19.617188 365.023438 19.453125 C 364.875 19.289062 364.710938 19.144531 364.53125 19.015625 C 364.355469 18.886719 364.164062 18.777344 363.960938 18.691406 C 363.757812 18.601562 363.550781 18.535156 363.332031 18.492188 Z M 363.332031 18.492188 " fill-opacity="1" fill-rule="nonzero"/></g><g clip-path="url(#810b819a83)"><path fill="#93e85f" d="M 281.910156 310.960938 L 281.910156 354.308594 C 281.910156 354.917969 281.96875 355.523438 282.089844 356.121094 C 282.207031 356.71875 282.382812 357.300781 282.617188 357.863281 C 282.851562 358.425781 283.136719 358.960938 283.476562 359.46875 C 283.816406 359.972656 284.199219 360.441406 284.632812 360.875 C 285.0625 361.304688 285.53125 361.691406 286.039062 362.027344 C 286.546875 362.367188 287.082031 362.652344 287.644531 362.886719 C 288.207031 363.121094 288.789062 363.296875 289.386719 363.417969 C 289.984375 363.535156 290.585938 363.597656 291.195312 363.597656 L 303.582031 363.597656 C 304.191406 363.597656 304.796875 363.535156 305.394531 363.417969 C 305.992188 363.296875 306.570312 363.121094 307.132812 362.886719 C 307.699219 362.652344 308.234375 362.367188 308.738281 362.027344 C 309.246094 361.691406 309.714844 361.304688 310.148438 360.875 C 310.578125 360.441406 310.960938 359.972656 311.300781 359.46875 C 311.640625 358.960938 311.925781 358.425781 312.160156 357.863281 C 312.394531 357.300781 312.570312 356.71875 312.691406 356.121094 C 312.808594 355.523438 312.871094 354.917969 312.871094 354.308594 L 312.871094 310.960938 C 312.871094 310.550781 312.792969 310.15625 312.632812 309.777344 C 312.476562 309.398438 312.253906 309.0625 311.964844 308.773438 C 311.671875 308.484375 311.339844 308.257812 310.957031 308.101562 C 310.578125 307.945312 310.183594 307.867188 309.773438 307.867188 L 285.003906 307.867188 C 284.59375 307.867188 284.199219 307.945312 283.820312 308.101562 C 283.441406 308.257812 283.105469 308.484375 282.816406 308.773438 C 282.523438 309.0625 282.300781 309.398438 282.144531 309.777344 C 281.988281 310.15625 281.910156 310.550781 281.910156 310.960938 Z M 281.910156 310.960938 " fill-opacity="1" fill-rule="nonzero"/></g><path fill="#93e85f" d="M 297.390625 270.710938 C 294.277344 270.6875 291.179688 270.453125 288.101562 270.003906 L 288.101562 301.671875 L 306.679688 301.671875 L 306.679688 270.003906 C 303.597656 270.453125 300.5 270.6875 297.390625 270.710938 Z M 297.390625 270.710938 " fill-opacity="1" fill-rule="nonzero"/><path fill="#93e85f" d="M 334.542969 202.597656 C 334.542969 203.8125 334.484375 205.027344 334.363281 206.238281 C 334.246094 207.449219 334.066406 208.652344 333.828125 209.84375 C 333.59375 211.039062 333.296875 212.214844 332.945312 213.382812 C 332.589844 214.546875 332.179688 215.691406 331.714844 216.8125 C 331.25 217.9375 330.730469 219.035156 330.15625 220.109375 C 329.582031 221.183594 328.957031 222.226562 328.28125 223.238281 C 327.605469 224.25 326.882812 225.226562 326.109375 226.167969 C 325.335938 227.105469 324.523438 228.007812 323.660156 228.867188 C 322.800781 229.726562 321.898438 230.542969 320.960938 231.316406 C 320.019531 232.089844 319.042969 232.8125 318.03125 233.488281 C 317.019531 234.164062 315.976562 234.789062 314.902344 235.363281 C 313.832031 235.9375 312.730469 236.457031 311.609375 236.921875 C 310.484375 237.386719 309.339844 237.796875 308.175781 238.148438 C 307.011719 238.503906 305.832031 238.796875 304.636719 239.035156 C 303.445312 239.273438 302.242188 239.453125 301.03125 239.570312 C 299.820312 239.691406 298.605469 239.75 297.390625 239.75 C 296.171875 239.75 294.957031 239.691406 293.746094 239.570312 C 292.535156 239.453125 291.335938 239.273438 290.140625 239.035156 C 288.945312 238.796875 287.769531 238.503906 286.605469 238.148438 C 285.4375 237.796875 284.296875 237.386719 283.171875 236.921875 C 282.046875 236.457031 280.949219 235.9375 279.875 235.363281 C 278.800781 234.789062 277.757812 234.164062 276.746094 233.488281 C 275.734375 232.8125 274.757812 232.089844 273.820312 231.316406 C 272.878906 230.542969 271.976562 229.726562 271.117188 228.867188 C 270.257812 228.007812 269.441406 227.105469 268.667969 226.167969 C 267.898438 225.226562 267.171875 224.25 266.496094 223.238281 C 265.820312 222.226562 265.195312 221.183594 264.621094 220.109375 C 264.046875 219.035156 263.527344 217.9375 263.0625 216.8125 C 262.597656 215.691406 262.1875 214.546875 261.835938 213.382812 C 261.480469 212.214844 261.1875 211.039062 260.949219 209.84375 C 260.710938 208.652344 260.53125 207.449219 260.414062 206.238281 C 260.292969 205.027344 260.234375 203.8125 260.234375 202.597656 C 260.234375 201.378906 260.292969 200.164062 260.414062 198.953125 C 260.53125 197.742188 260.710938 196.539062 260.949219 195.347656 C 261.1875 194.152344 261.480469 192.976562 261.835938 191.808594 C 262.1875 190.644531 262.597656 189.5 263.0625 188.378906 C 263.527344 187.253906 264.046875 186.15625 264.621094 185.082031 C 265.195312 184.007812 265.820312 182.964844 266.496094 181.953125 C 267.171875 180.941406 267.898438 179.964844 268.667969 179.023438 C 269.441406 178.085938 270.257812 177.183594 271.117188 176.324219 C 271.976562 175.464844 272.878906 174.648438 273.820312 173.875 C 274.757812 173.101562 275.734375 172.378906 276.746094 171.703125 C 277.757812 171.027344 278.800781 170.402344 279.875 169.828125 C 280.949219 169.253906 282.046875 168.734375 283.171875 168.269531 C 284.296875 167.804688 285.4375 167.394531 286.605469 167.042969 C 287.769531 166.6875 288.945312 166.394531 290.140625 166.15625 C 291.335938 165.917969 292.535156 165.738281 293.746094 165.621094 C 294.957031 165.5 296.171875 165.441406 297.390625 165.441406 C 298.605469 165.441406 299.820312 165.5 301.03125 165.621094 C 302.242188 165.738281 303.445312 165.917969 304.636719 166.15625 C 305.832031 166.394531 307.011719 166.6875 308.175781 167.042969 C 309.339844 167.394531 310.484375 167.804688 311.609375 168.269531 C 312.730469 168.734375 313.832031 169.253906 314.902344 169.828125 C 315.976562 170.402344 317.019531 171.027344 318.03125 171.703125 C 319.042969 172.378906 320.019531 173.101562 320.960938 173.875 C 321.898438 174.648438 322.800781 175.464844 323.660156 176.324219 C 324.523438 177.183594 325.335938 178.085938 326.109375 179.023438 C 326.882812 179.964844 327.605469 180.941406 328.28125 181.953125 C 328.957031 182.964844 329.582031 184.007812 330.15625 185.082031 C 330.730469 186.15625 331.25 187.253906 331.714844 188.378906 C 332.179688 189.5 332.589844 190.644531 332.945312 191.808594 C 333.296875 192.976562 333.59375 194.152344 333.828125 195.347656 C 334.066406 196.539062 334.246094 197.742188 334.363281 198.953125 C 334.484375 200.164062 334.542969 201.378906 334.542969 202.597656 Z M 334.542969 202.597656 " fill-opacity="1" fill-rule="nonzero"/><path fill="#93e85f" d="M 359.3125 202.597656 C 359.3125 200.566406 359.214844 198.542969 359.015625 196.527344 C 358.816406 194.507812 358.519531 192.503906 358.125 190.515625 C 357.726562 188.527344 357.234375 186.5625 356.648438 184.621094 C 356.058594 182.679688 355.375 180.773438 354.597656 178.898438 C 353.824219 177.023438 352.957031 175.195312 352 173.40625 C 351.046875 171.617188 350.003906 169.878906 348.875 168.191406 C 347.75 166.507812 346.542969 164.878906 345.257812 163.3125 C 343.96875 161.742188 342.609375 160.242188 341.175781 158.808594 C 339.742188 157.375 338.242188 156.015625 336.671875 154.726562 C 335.105469 153.441406 333.476562 152.234375 331.792969 151.109375 C 330.105469 149.980469 328.367188 148.941406 326.578125 147.984375 C 324.792969 147.027344 322.960938 146.160156 321.085938 145.386719 C 319.210938 144.609375 317.304688 143.925781 315.363281 143.339844 C 313.425781 142.75 311.460938 142.257812 309.46875 141.863281 C 307.480469 141.464844 305.476562 141.167969 303.457031 140.96875 C 301.441406 140.769531 299.417969 140.671875 297.390625 140.671875 C 295.359375 140.671875 293.339844 140.769531 291.320312 140.96875 C 289.300781 141.167969 287.296875 141.464844 285.308594 141.863281 C 283.320312 142.257812 281.355469 142.75 279.414062 143.339844 C 277.472656 143.925781 275.566406 144.609375 273.691406 145.386719 C 271.816406 146.160156 269.988281 147.027344 268.199219 147.984375 C 266.410156 148.941406 264.671875 149.980469 262.984375 151.109375 C 261.300781 152.234375 259.671875 153.441406 258.105469 154.726562 C 256.539062 156.015625 255.035156 157.375 253.601562 158.808594 C 252.167969 160.242188 250.808594 161.742188 249.519531 163.3125 C 248.234375 164.878906 247.027344 166.507812 245.902344 168.191406 C 244.773438 169.878906 243.734375 171.617188 242.777344 173.40625 C 241.820312 175.195312 240.957031 177.023438 240.179688 178.898438 C 239.402344 180.773438 238.71875 182.679688 238.132812 184.621094 C 237.542969 186.5625 237.050781 188.527344 236.65625 190.515625 C 236.257812 192.503906 235.960938 194.507812 235.761719 196.527344 C 235.566406 198.542969 235.464844 200.566406 235.464844 202.597656 C 235.464844 204.625 235.566406 206.648438 235.761719 208.664062 C 235.960938 210.683594 236.257812 212.6875 236.65625 214.675781 C 237.050781 216.664062 237.542969 218.628906 238.132812 220.570312 C 238.71875 222.511719 239.402344 224.417969 240.179688 226.292969 C 240.957031 228.167969 241.820312 229.996094 242.777344 231.785156 C 243.734375 233.574219 244.773438 235.3125 245.902344 237 C 247.027344 238.683594 248.234375 240.3125 249.519531 241.878906 C 250.808594 243.449219 252.167969 244.949219 253.601562 246.382812 C 255.035156 247.816406 256.539062 249.175781 258.105469 250.464844 C 259.671875 251.75 261.300781 252.957031 262.984375 254.082031 C 264.671875 255.210938 266.410156 256.25 268.199219 257.207031 C 269.988281 258.164062 271.816406 259.03125 273.691406 259.804688 C 275.566406 260.582031 277.472656 261.265625 279.414062 261.851562 C 281.355469 262.441406 283.320312 262.933594 285.308594 263.328125 C 287.296875 263.726562 289.300781 264.023438 291.320312 264.222656 C 293.339844 264.421875 295.359375 264.519531 297.390625 264.519531 C 299.417969 264.515625 301.4375 264.414062 303.457031 264.214844 C 305.472656 264.015625 307.476562 263.714844 309.464844 263.316406 C 311.453125 262.921875 313.417969 262.425781 315.355469 261.835938 C 317.296875 261.246094 319.203125 260.5625 321.074219 259.789062 C 322.949219 259.011719 324.777344 258.144531 326.566406 257.1875 C 328.355469 256.230469 330.089844 255.1875 331.777344 254.0625 C 333.460938 252.933594 335.085938 251.730469 336.65625 250.441406 C 338.222656 249.15625 339.722656 247.796875 341.15625 246.363281 C 342.589844 244.929688 343.949219 243.429688 345.234375 241.859375 C 346.523438 240.292969 347.730469 238.667969 348.855469 236.980469 C 349.980469 235.296875 351.023438 233.558594 351.980469 231.773438 C 352.9375 229.984375 353.804688 228.15625 354.582031 226.28125 C 355.359375 224.410156 356.039062 222.503906 356.632812 220.5625 C 357.222656 218.625 357.714844 216.660156 358.113281 214.671875 C 358.507812 212.683594 358.808594 210.679688 359.007812 208.664062 C 359.210938 206.644531 359.3125 204.625 359.3125 202.597656 Z M 297.390625 245.941406 C 295.96875 245.941406 294.554688 245.871094 293.140625 245.734375 C 291.726562 245.59375 290.324219 245.386719 288.933594 245.109375 C 287.539062 244.832031 286.164062 244.488281 284.804688 244.074219 C 283.449219 243.664062 282.113281 243.1875 280.800781 242.644531 C 279.488281 242.097656 278.207031 241.492188 276.957031 240.824219 C 275.703125 240.15625 274.488281 239.425781 273.308594 238.636719 C 272.125 237.847656 270.988281 237.003906 269.890625 236.101562 C 268.792969 235.203125 267.742188 234.25 266.738281 233.246094 C 265.734375 232.242188 264.78125 231.191406 263.882812 230.09375 C 262.980469 228.996094 262.136719 227.859375 261.347656 226.679688 C 260.558594 225.496094 259.828125 224.28125 259.160156 223.027344 C 258.492188 221.777344 257.886719 220.496094 257.34375 219.183594 C 256.796875 217.871094 256.320312 216.535156 255.910156 215.179688 C 255.496094 213.820312 255.152344 212.445312 254.875 211.050781 C 254.597656 209.660156 254.390625 208.257812 254.25 206.84375 C 254.113281 205.429688 254.042969 204.015625 254.042969 202.597656 C 254.042969 201.175781 254.113281 199.761719 254.25 198.347656 C 254.390625 196.933594 254.597656 195.53125 254.875 194.140625 C 255.152344 192.746094 255.496094 191.371094 255.910156 190.011719 C 256.320312 188.65625 256.796875 187.320312 257.34375 186.007812 C 257.886719 184.695312 258.492188 183.414062 259.160156 182.164062 C 259.828125 180.910156 260.558594 179.695312 261.347656 178.511719 C 262.136719 177.332031 262.980469 176.195312 263.882812 175.097656 C 264.78125 174 265.734375 172.949219 266.738281 171.945312 C 267.742188 170.941406 268.792969 169.988281 269.890625 169.089844 C 270.988281 168.1875 272.125 167.34375 273.308594 166.554688 C 274.488281 165.765625 275.703125 165.035156 276.957031 164.367188 C 278.207031 163.699219 279.488281 163.09375 280.800781 162.546875 C 282.113281 162.003906 283.449219 161.527344 284.804688 161.117188 C 286.164062 160.703125 287.539062 160.359375 288.933594 160.082031 C 290.324219 159.804688 291.726562 159.597656 293.140625 159.457031 C 294.554688 159.320312 295.96875 159.25 297.390625 159.25 C 298.808594 159.25 300.226562 159.320312 301.636719 159.457031 C 303.050781 159.597656 304.453125 159.804688 305.847656 160.082031 C 307.238281 160.359375 308.613281 160.703125 309.972656 161.117188 C 311.332031 161.527344 312.664062 162.003906 313.976562 162.546875 C 315.289062 163.09375 316.570312 163.699219 317.824219 164.367188 C 319.074219 165.035156 320.289062 165.765625 321.472656 166.554688 C 322.652344 167.34375 323.789062 168.1875 324.886719 169.089844 C 325.984375 169.988281 327.035156 170.941406 328.039062 171.945312 C 329.042969 172.949219 329.996094 174 330.898438 175.097656 C 331.796875 176.195312 332.640625 177.332031 333.429688 178.511719 C 334.21875 179.695312 334.949219 180.910156 335.617188 182.164062 C 336.285156 183.414062 336.894531 184.695312 337.4375 186.007812 C 337.980469 187.320312 338.457031 188.65625 338.871094 190.011719 C 339.28125 191.371094 339.625 192.746094 339.902344 194.140625 C 340.179688 195.53125 340.386719 196.933594 340.527344 198.347656 C 340.667969 199.761719 340.734375 201.175781 340.734375 202.597656 C 340.734375 204.015625 340.664062 205.429688 340.523438 206.84375 C 340.382812 208.253906 340.171875 209.65625 339.894531 211.050781 C 339.617188 212.441406 339.269531 213.816406 338.859375 215.171875 C 338.445312 216.53125 337.96875 217.867188 337.421875 219.175781 C 336.878906 220.488281 336.273438 221.769531 335.601562 223.019531 C 334.933594 224.269531 334.203125 225.488281 333.414062 226.667969 C 332.625 227.847656 331.78125 228.984375 330.882812 230.082031 C 329.980469 231.179688 329.027344 232.230469 328.027344 233.230469 C 327.023438 234.234375 325.972656 235.1875 324.875 236.089844 C 323.777344 236.988281 322.640625 237.832031 321.460938 238.621094 C 320.28125 239.410156 319.0625 240.140625 317.8125 240.808594 C 316.5625 241.480469 315.28125 242.085938 313.96875 242.628906 C 312.660156 243.171875 311.324219 243.652344 309.964844 244.066406 C 308.609375 244.476562 307.234375 244.824219 305.84375 245.101562 C 304.449219 245.378906 303.046875 245.589844 301.636719 245.730469 C 300.222656 245.871094 298.808594 245.941406 297.390625 245.941406 Z M 297.390625 245.941406 " fill-opacity="1" fill-rule="nonzero"/><g clip-path="url(#63c2f2952b)"><path fill="#1b575f" d="M 55.925781 245.402344 L 40.132812 245.402344 C 39.363281 245.402344 38.597656 245.324219 37.839844 245.175781 C 37.082031 245.023438 36.347656 244.800781 35.632812 244.503906 C 34.921875 244.207031 34.242188 243.84375 33.601562 243.417969 C 32.957031 242.988281 32.363281 242.5 31.816406 241.953125 C 31.273438 241.40625 30.785156 240.8125 30.355469 240.171875 C 29.925781 239.527344 29.5625 238.851562 29.265625 238.136719 C 28.972656 237.425781 28.746094 236.6875 28.597656 235.929688 C 28.445312 235.175781 28.371094 234.410156 28.367188 233.636719 C 28.367188 233.027344 28.308594 232.421875 28.191406 231.824219 C 28.070312 231.226562 27.894531 230.644531 27.660156 230.082031 C 27.429688 229.519531 27.140625 228.984375 26.804688 228.476562 C 26.464844 227.96875 26.078125 227.5 25.648438 227.070312 C 25.21875 226.636719 24.746094 226.253906 24.242188 225.914062 C 23.734375 225.574219 23.199219 225.289062 22.636719 225.054688 C 22.070312 224.820312 21.492188 224.644531 20.890625 224.527344 C 20.292969 224.40625 19.691406 224.347656 19.082031 224.347656 C 18.46875 224.347656 17.867188 224.40625 17.269531 224.527344 C 16.671875 224.644531 16.089844 224.820312 15.527344 225.054688 C 14.960938 225.289062 14.425781 225.574219 13.917969 225.914062 C 13.414062 226.253906 12.945312 226.636719 12.511719 227.070312 C 12.082031 227.5 11.695312 227.96875 11.355469 228.476562 C 11.019531 228.984375 10.730469 229.519531 10.5 230.082031 C 10.265625 230.644531 10.089844 231.226562 9.96875 231.824219 C 9.851562 232.421875 9.792969 233.027344 9.792969 233.636719 C 9.792969 234.628906 9.84375 235.621094 9.941406 236.609375 C 10.039062 237.597656 10.1875 238.578125 10.378906 239.554688 C 10.574219 240.527344 10.816406 241.492188 11.105469 242.441406 C 11.394531 243.390625 11.730469 244.324219 12.109375 245.242188 C 12.492188 246.160156 12.917969 247.058594 13.386719 247.933594 C 13.851562 248.808594 14.363281 249.660156 14.917969 250.484375 C 15.46875 251.3125 16.058594 252.109375 16.691406 252.875 C 17.320312 253.644531 17.988281 254.378906 18.6875 255.082031 C 19.390625 255.785156 20.125 256.453125 20.894531 257.082031 C 21.664062 257.710938 22.460938 258.304688 23.285156 258.855469 C 24.109375 259.40625 24.960938 259.917969 25.835938 260.386719 C 26.714844 260.855469 27.609375 261.28125 28.527344 261.660156 C 29.445312 262.042969 30.378906 262.375 31.332031 262.664062 C 32.28125 262.953125 33.242188 263.195312 34.21875 263.390625 C 35.191406 263.585938 36.171875 263.730469 37.160156 263.832031 C 38.148438 263.929688 39.140625 263.980469 40.132812 263.980469 L 55.925781 263.980469 C 57.089844 263.980469 58.253906 263.921875 59.414062 263.808594 C 60.574219 263.695312 61.726562 263.523438 62.871094 263.296875 C 64.015625 263.066406 65.144531 262.785156 66.261719 262.445312 C 67.375 262.109375 68.472656 261.714844 69.550781 261.269531 C 70.628906 260.824219 71.679688 260.324219 72.710938 259.773438 C 73.738281 259.226562 74.738281 258.625 75.707031 257.980469 C 76.675781 257.332031 77.613281 256.636719 78.511719 255.898438 C 79.414062 255.15625 80.277344 254.375 81.101562 253.550781 C 81.925781 252.726562 82.710938 251.863281 83.449219 250.960938 C 84.1875 250.058594 84.882812 249.125 85.53125 248.15625 C 86.179688 247.1875 86.777344 246.1875 87.328125 245.15625 C 87.875 244.128906 88.375 243.078125 88.820312 242 C 89.265625 240.921875 89.660156 239.824219 89.996094 238.710938 C 90.335938 237.59375 90.621094 236.464844 90.847656 235.320312 C 91.074219 234.175781 91.246094 233.023438 91.359375 231.863281 C 91.472656 230.703125 91.53125 229.539062 91.53125 228.375 C 91.53125 227.207031 91.472656 226.042969 91.359375 224.882812 C 91.246094 223.722656 91.074219 222.570312 90.847656 221.425781 C 90.621094 220.285156 90.335938 219.152344 89.996094 218.039062 C 89.660156 216.921875 89.265625 215.824219 88.820312 214.746094 C 88.375 213.671875 87.875 212.617188 87.328125 211.589844 C 86.777344 210.558594 86.179688 209.5625 85.53125 208.589844 C 84.882812 207.621094 84.1875 206.6875 83.449219 205.785156 C 82.710938 204.882812 81.925781 204.019531 81.101562 203.195312 C 80.277344 202.371094 79.414062 201.589844 78.511719 200.847656 C 77.613281 200.109375 76.675781 199.414062 75.707031 198.769531 C 74.738281 198.121094 73.738281 197.519531 72.710938 196.972656 C 71.679688 196.421875 70.628906 195.925781 69.550781 195.476562 C 68.472656 195.03125 67.375 194.640625 66.261719 194.300781 C 65.144531 193.960938 64.015625 193.679688 62.871094 193.453125 C 61.726562 193.222656 60.574219 193.054688 59.414062 192.9375 C 58.253906 192.824219 57.089844 192.765625 55.925781 192.765625 L 45.398438 192.765625 C 44.839844 192.765625 44.285156 192.738281 43.730469 192.683594 C 43.171875 192.628906 42.621094 192.550781 42.074219 192.441406 C 41.527344 192.332031 40.988281 192.195312 40.453125 192.035156 C 39.921875 191.871094 39.394531 191.683594 38.882812 191.472656 C 38.367188 191.257812 37.863281 191.019531 37.371094 190.757812 C 36.878906 190.492188 36.402344 190.207031 35.9375 189.898438 C 35.472656 189.585938 35.027344 189.253906 34.59375 188.902344 C 34.164062 188.546875 33.75 188.175781 33.355469 187.78125 C 32.960938 187.386719 32.589844 186.972656 32.234375 186.542969 C 31.878906 186.109375 31.546875 185.664062 31.238281 185.199219 C 30.929688 184.734375 30.640625 184.257812 30.378906 183.765625 C 30.117188 183.273438 29.878906 182.769531 29.664062 182.253906 C 29.453125 181.738281 29.265625 181.214844 29.101562 180.679688 C 28.941406 180.148438 28.804688 179.609375 28.695312 179.058594 C 28.585938 178.511719 28.503906 177.960938 28.449219 177.40625 C 28.394531 176.851562 28.367188 176.296875 28.367188 175.738281 C 28.367188 175.179688 28.394531 174.625 28.449219 174.070312 C 28.503906 173.515625 28.585938 172.964844 28.695312 172.417969 C 28.804688 171.867188 28.941406 171.328125 29.101562 170.796875 C 29.265625 170.261719 29.453125 169.738281 29.664062 169.222656 C 29.878906 168.707031 30.117188 168.203125 30.378906 167.710938 C 30.640625 167.21875 30.929688 166.742188 31.238281 166.277344 C 31.546875 165.8125 31.878906 165.367188 32.234375 164.933594 C 32.589844 164.503906 32.960938 164.089844 33.355469 163.695312 C 33.75 163.300781 34.164062 162.929688 34.59375 162.574219 C 35.027344 162.222656 35.472656 161.890625 35.9375 161.578125 C 36.402344 161.269531 36.878906 160.984375 37.371094 160.71875 C 37.863281 160.457031 38.367188 160.21875 38.882812 160.003906 C 39.394531 159.792969 39.921875 159.605469 40.453125 159.441406 C 40.988281 159.28125 41.527344 159.144531 42.074219 159.035156 C 42.621094 158.925781 43.171875 158.847656 43.730469 158.792969 C 44.285156 158.738281 44.839844 158.710938 45.398438 158.710938 L 61.1875 158.710938 C 61.960938 158.710938 62.726562 158.785156 63.484375 158.9375 C 64.242188 159.089844 64.976562 159.3125 65.6875 159.609375 C 66.402344 159.902344 67.082031 160.265625 67.722656 160.695312 C 68.363281 161.125 68.957031 161.613281 69.503906 162.160156 C 70.050781 162.703125 70.539062 163.296875 70.96875 163.941406 C 71.398438 164.582031 71.757812 165.261719 72.054688 165.972656 C 72.351562 166.6875 72.574219 167.421875 72.726562 168.179688 C 72.878906 168.9375 72.953125 169.703125 72.953125 170.476562 C 72.953125 171.085938 73.011719 171.6875 73.132812 172.285156 C 73.25 172.886719 73.425781 173.464844 73.660156 174.03125 C 73.894531 174.59375 74.179688 175.128906 74.519531 175.636719 C 74.859375 176.140625 75.242188 176.613281 75.675781 177.042969 C 76.105469 177.472656 76.574219 177.859375 77.082031 178.199219 C 77.589844 178.535156 78.125 178.824219 78.6875 179.054688 C 79.25 179.289062 79.832031 179.464844 80.429688 179.585938 C 81.027344 179.703125 81.632812 179.761719 82.242188 179.761719 C 82.851562 179.761719 83.457031 179.703125 84.054688 179.585938 C 84.652344 179.464844 85.234375 179.289062 85.796875 179.054688 C 86.359375 178.824219 86.894531 178.535156 87.402344 178.199219 C 87.910156 177.859375 88.378906 177.472656 88.8125 177.042969 C 89.242188 176.613281 89.625 176.140625 89.964844 175.636719 C 90.304688 175.128906 90.589844 174.59375 90.824219 174.03125 C 91.058594 173.464844 91.234375 172.886719 91.351562 172.285156 C 91.472656 171.6875 91.53125 171.085938 91.53125 170.476562 C 91.53125 169.480469 91.480469 168.492188 91.382812 167.5 C 91.285156 166.511719 91.136719 165.53125 90.941406 164.558594 C 90.746094 163.582031 90.503906 162.621094 90.214844 161.671875 C 89.929688 160.71875 89.59375 159.785156 89.210938 158.867188 C 88.832031 157.949219 88.40625 157.054688 87.9375 156.179688 C 87.46875 155.300781 86.957031 154.453125 86.40625 153.625 C 85.855469 152.800781 85.261719 152.003906 84.632812 151.234375 C 84.003906 150.46875 83.335938 149.730469 82.632812 149.03125 C 81.929688 148.328125 81.195312 147.660156 80.429688 147.03125 C 79.660156 146.398438 78.863281 145.808594 78.039062 145.257812 C 77.210938 144.703125 76.359375 144.195312 75.484375 143.726562 C 74.609375 143.257812 73.710938 142.832031 72.792969 142.449219 C 71.878906 142.070312 70.941406 141.734375 69.992188 141.445312 C 69.042969 141.15625 68.078125 140.914062 67.105469 140.722656 C 66.132812 140.527344 65.148438 140.378906 64.160156 140.28125 C 63.171875 140.183594 62.183594 140.132812 61.1875 140.132812 L 45.398438 140.132812 C 44.230469 140.132812 43.070312 140.1875 41.90625 140.304688 C 40.746094 140.417969 39.59375 140.589844 38.453125 140.816406 C 37.308594 141.042969 36.179688 141.328125 35.0625 141.664062 C 33.945312 142.003906 32.847656 142.394531 31.773438 142.84375 C 30.695312 143.289062 29.640625 143.785156 28.613281 144.335938 C 27.585938 144.886719 26.585938 145.484375 25.617188 146.132812 C 24.648438 146.78125 23.710938 147.472656 22.808594 148.214844 C 21.90625 148.953125 21.046875 149.734375 20.21875 150.5625 C 19.394531 151.386719 18.613281 152.25 17.875 153.148438 C 17.132812 154.050781 16.441406 154.988281 15.792969 155.957031 C 15.144531 156.925781 14.546875 157.925781 13.996094 158.953125 C 13.445312 159.980469 12.949219 161.035156 12.503906 162.113281 C 12.054688 163.191406 11.664062 164.285156 11.324219 165.402344 C 10.988281 166.519531 10.703125 167.648438 10.476562 168.792969 C 10.25 169.9375 10.078125 171.085938 9.964844 172.25 C 9.847656 173.410156 9.792969 174.570312 9.792969 175.738281 C 9.792969 176.90625 9.847656 178.066406 9.964844 179.226562 C 10.078125 180.390625 10.25 181.539062 10.476562 182.683594 C 10.703125 183.828125 10.988281 184.957031 11.324219 186.074219 C 11.664062 187.191406 12.054688 188.285156 12.503906 189.363281 C 12.949219 190.441406 13.445312 191.496094 13.996094 192.523438 C 14.546875 193.550781 15.144531 194.550781 15.792969 195.519531 C 16.441406 196.488281 17.132812 197.425781 17.875 198.328125 C 18.613281 199.226562 19.394531 200.089844 20.21875 200.914062 C 21.046875 201.738281 21.90625 202.523438 22.808594 203.261719 C 23.710938 204.003906 24.648438 204.695312 25.617188 205.34375 C 26.585938 205.992188 27.585938 206.589844 28.613281 207.140625 C 29.640625 207.691406 30.695312 208.1875 31.773438 208.632812 C 32.847656 209.082031 33.945312 209.472656 35.0625 209.8125 C 36.179688 210.148438 37.308594 210.433594 38.453125 210.660156 C 39.59375 210.886719 40.746094 211.058594 41.90625 211.171875 C 43.070312 211.289062 44.230469 211.34375 45.398438 211.34375 L 55.925781 211.34375 C 56.484375 211.34375 57.039062 211.371094 57.59375 211.425781 C 58.148438 211.480469 58.699219 211.5625 59.246094 211.671875 C 59.792969 211.78125 60.335938 211.914062 60.867188 212.078125 C 61.402344 212.238281 61.925781 212.425781 62.441406 212.640625 C 62.957031 212.855469 63.460938 213.09375 63.953125 213.355469 C 64.445312 213.617188 64.921875 213.90625 65.386719 214.214844 C 65.847656 214.523438 66.296875 214.855469 66.726562 215.210938 C 67.160156 215.5625 67.570312 215.9375 67.964844 216.332031 C 68.359375 216.726562 68.734375 217.140625 69.089844 217.570312 C 69.441406 218 69.773438 218.449219 70.085938 218.914062 C 70.394531 219.375 70.679688 219.855469 70.941406 220.347656 C 71.207031 220.839844 71.445312 221.339844 71.65625 221.855469 C 71.871094 222.371094 72.058594 222.898438 72.222656 223.429688 C 72.382812 223.964844 72.519531 224.503906 72.625 225.050781 C 72.734375 225.597656 72.816406 226.148438 72.871094 226.703125 C 72.925781 227.257812 72.953125 227.816406 72.953125 228.375 C 72.953125 228.929688 72.925781 229.488281 72.871094 230.042969 C 72.816406 230.597656 72.734375 231.148438 72.625 231.695312 C 72.519531 232.242188 72.382812 232.78125 72.222656 233.316406 C 72.058594 233.851562 71.871094 234.375 71.65625 234.890625 C 71.445312 235.40625 71.207031 235.910156 70.941406 236.402344 C 70.679688 236.894531 70.394531 237.371094 70.085938 237.835938 C 69.773438 238.296875 69.441406 238.746094 69.089844 239.175781 C 68.734375 239.609375 68.359375 240.019531 67.964844 240.414062 C 67.570312 240.808594 67.160156 241.183594 66.726562 241.539062 C 66.296875 241.890625 65.847656 242.222656 65.386719 242.53125 C 64.921875 242.84375 64.445312 243.128906 63.953125 243.390625 C 63.460938 243.65625 62.957031 243.894531 62.441406 244.105469 C 61.925781 244.320312 61.402344 244.507812 60.867188 244.667969 C 60.335938 244.832031 59.792969 244.964844 59.246094 245.074219 C 58.699219 245.183594 58.148438 245.265625 57.59375 245.320312 C 57.039062 245.375 56.484375 245.402344 55.925781 245.402344 Z M 55.925781 245.402344 " fill-opacity="1" fill-rule="nonzero"/></g><path fill="#93e85f" d="M 151.054688 159.808594 L 190.945312 159.808594 C 196.066406 159.808594 200.230469 155.398438 200.230469 149.972656 C 200.230469 144.542969 196.066406 140.132812 190.945312 140.132812 L 151.054688 140.132812 C 134.929688 140.132812 121.816406 153.890625 121.816406 170.808594 L 121.816406 233.304688 C 121.816406 250.21875 134.929688 263.980469 151.054688 263.980469 L 190.945312 263.980469 C 196.066406 263.980469 200.230469 259.566406 200.230469 254.140625 C 200.230469 248.714844 196.066406 244.300781 190.945312 244.300781 L 151.054688 244.300781 C 150.34375 244.289062 149.640625 244.207031 148.945312 244.058594 C 148.25 243.90625 147.578125 243.691406 146.925781 243.410156 C 146.273438 243.125 145.65625 242.78125 145.070312 242.378906 C 144.484375 241.972656 143.945312 241.515625 143.449219 241.007812 C 142.957031 240.496094 142.515625 239.941406 142.128906 239.34375 C 141.746094 238.75 141.421875 238.121094 141.160156 237.460938 C 140.894531 236.796875 140.699219 236.117188 140.574219 235.417969 C 140.445312 234.71875 140.386719 234.015625 140.394531 233.304688 L 140.394531 214.992188 C 140.394531 214.582031 140.472656 214.183594 140.632812 213.804688 C 140.789062 213.425781 141.011719 213.09375 141.300781 212.800781 C 141.59375 212.511719 141.925781 212.289062 142.304688 212.128906 C 142.6875 211.972656 143.082031 211.894531 143.492188 211.894531 L 190.941406 211.894531 C 196.0625 211.894531 200.230469 207.484375 200.230469 202.054688 C 200.230469 196.628906 196.0625 192.21875 190.941406 192.21875 L 143.492188 192.21875 C 143.082031 192.21875 142.6875 192.136719 142.304688 191.980469 C 141.925781 191.824219 141.59375 191.601562 141.300781 191.308594 C 141.011719 191.019531 140.789062 190.683594 140.632812 190.304688 C 140.472656 189.925781 140.394531 189.53125 140.394531 189.121094 L 140.394531 170.808594 C 140.386719 170.097656 140.445312 169.390625 140.574219 168.691406 C 140.699219 167.992188 140.894531 167.3125 141.160156 166.652344 C 141.421875 165.992188 141.746094 165.363281 142.128906 164.765625 C 142.515625 164.167969 142.957031 163.617188 143.449219 163.105469 C 143.945312 162.59375 144.484375 162.136719 145.070312 161.734375 C 145.65625 161.328125 146.273438 160.984375 146.925781 160.703125 C 147.578125 160.421875 148.25 160.203125 148.945312 160.054688 C 149.640625 159.902344 150.34375 159.820312 151.054688 159.808594 Z M 151.054688 159.808594 " fill-opacity="1" fill-rule="nonzero"/></svg>