<svg xmlns="http://www.w3.org/2000/svg" xmlns:xlink="http://www.w3.org/1999/xlink" width="500" zoomAndPan="magnify" viewBox="0 0 375 374.999991" height="500" preserveAspectRatio="xMidYMid meet" version="1.0"><metadata><ContainsAiGeneratedContent>Yes</ContainsAiGeneratedContent></metadata><defs><clipPath id="dd7277ec05"><path d="M 6.179688 28 L 368 28 L 368 347.507812 L 6.179688 347.507812 Z M 6.179688 28 " clip-rule="nonzero"/></clipPath><clipPath id="c40056946d"><path d="M 6.179688 116.425781 L 98.429688 116.425781 L 98.429688 224.425781 L 6.179688 224.425781 Z M 6.179688 116.425781 " clip-rule="nonzero"/></clipPath></defs><g clip-path="url(#dd7277ec05)"><path fill="#1b575f" d="M 367.847656 35.632812 L 363.425781 55.902344 C 362.734375 59.105469 359.578125 61.140625 356.375 60.449219 C 354.164062 59.96875 352.511719 58.320312 351.925781 56.289062 L 240.382812 194.058594 C 238.078125 197.285156 233.253906 197.398438 230.828125 194.179688 L 186.152344 135.25 L 111.492188 193.589844 C 108.917969 195.597656 105.199219 195.140625 103.1875 192.566406 C 101.175781 189.992188 101.632812 186.273438 104.207031 184.261719 L 183.605469 122.21875 C 186.21875 120.183594 189.984375 120.675781 191.980469 123.3125 L 235.71875 181.003906 L 345.003906 46.023438 L 344.070312 46.320312 C 340.957031 47.308594 337.632812 45.585938 336.648438 42.46875 C 335.660156 39.355469 337.382812 36.035156 340.5 35.046875 L 360.261719 28.742188 C 364.632812 27.355469 368.792969 31.28125 367.847656 35.632812 Z M 50.761719 168.28125 C 63.410156 168.28125 73.664062 158.027344 73.664062 145.378906 C 73.664062 132.726562 63.410156 122.472656 50.761719 122.472656 C 38.109375 122.472656 27.855469 132.726562 27.855469 145.378906 C 27.855469 158.027344 38.113281 168.28125 50.761719 168.28125 Z M 94.339844 214.753906 C 95.070312 213.855469 95.328125 212.785156 95.089844 211.652344 C 90.78125 191.121094 72.574219 175.703125 50.761719 175.703125 C 28.949219 175.703125 10.738281 191.121094 6.429688 211.652344 C 6.191406 212.785156 6.453125 213.855469 7.179688 214.753906 C 7.910156 215.652344 8.90625 216.128906 10.0625 216.128906 L 91.457031 216.128906 C 92.617188 216.128906 93.609375 215.652344 94.339844 214.753906 Z M 60.582031 112.003906 L 60.582031 102.925781 C 60.582031 101.207031 61.988281 99.800781 63.707031 99.800781 L 286.179688 99.800781 L 301.4375 80.957031 L 64.273438 80.957031 C 51.878906 80.957031 41.738281 91.097656 41.738281 103.492188 L 41.738281 111.78125 C 44.617188 111.011719 47.640625 110.597656 50.761719 110.597656 C 54.171875 110.597656 57.46875 111.089844 60.582031 112.003906 Z M 316.027344 119.503906 L 316.027344 243.097656 L 60.582031 243.097656 L 60.582031 228.003906 L 41.738281 228.003906 L 41.738281 258.523438 C 41.738281 270.917969 51.878906 281.058594 64.273438 281.058594 L 142.242188 281.058594 L 142.242188 316.859375 L 107.9375 316.859375 C 97.367188 316.859375 88.722656 323.769531 88.722656 332.214844 L 88.722656 347.570312 L 287.886719 347.570312 L 287.886719 332.214844 C 287.886719 323.769531 279.238281 316.859375 268.667969 316.859375 L 234.367188 316.859375 L 234.367188 281.058594 L 312.335938 281.058594 C 324.730469 281.058594 334.871094 270.917969 334.871094 258.523438 L 334.871094 103.492188 C 334.871094 101.347656 334.566406 99.269531 334 97.304688 Z M 316.027344 119.503906 " fill-opacity="1" fill-rule="nonzero"/></g><g clip-path="url(#c40056946d)"><path fill="#93e85f" d="M 367.847656 35.632812 L 363.425781 55.902344 C 362.734375 59.105469 359.578125 61.140625 356.375 60.449219 C 354.164062 59.96875 352.511719 58.320312 351.925781 56.289062 L 240.382812 194.058594 C 238.078125 197.285156 233.253906 197.398438 230.828125 194.179688 L 186.152344 135.25 L 111.492188 193.589844 C 108.917969 195.597656 105.199219 195.140625 103.1875 192.566406 C 101.175781 189.992188 101.632812 186.273438 104.207031 184.261719 L 183.605469 122.21875 C 186.21875 120.183594 189.984375 120.675781 191.980469 123.3125 L 235.71875 181.003906 L 345.003906 46.023438 L 344.070312 46.320312 C 340.957031 47.308594 337.632812 45.582031 336.648438 42.46875 C 335.660156 39.355469 337.382812 36.035156 340.5 35.046875 L 360.261719 28.742188 C 364.632812 27.355469 368.792969 31.28125 367.847656 35.632812 Z M 50.761719 168.28125 C 63.410156 168.28125 73.664062 158.027344 73.664062 145.378906 C 73.664062 132.726562 63.410156 122.472656 50.761719 122.472656 C 38.109375 122.472656 27.855469 132.726562 27.855469 145.378906 C 27.855469 158.027344 38.113281 168.28125 50.761719 168.28125 Z M 94.339844 214.753906 C 95.070312 213.855469 95.328125 212.785156 95.089844 211.652344 C 90.78125 191.121094 72.574219 175.703125 50.761719 175.703125 C 28.949219 175.703125 10.738281 191.121094 6.429688 211.652344 C 6.191406 212.785156 6.453125 213.855469 7.179688 214.753906 C 7.910156 215.652344 8.90625 216.128906 10.0625 216.128906 L 91.457031 216.128906 C 92.617188 216.128906 93.609375 215.652344 94.339844 214.753906 Z M 60.582031 112.003906 L 60.582031 102.925781 C 60.582031 101.207031 61.988281 99.800781 63.707031 99.800781 L 286.179688 99.800781 L 301.4375 80.957031 L 64.273438 80.957031 C 51.878906 80.957031 41.738281 91.097656 41.738281 103.492188 L 41.738281 111.78125 C 44.617188 111.011719 47.640625 110.597656 50.761719 110.597656 C 54.171875 110.597656 57.46875 111.089844 60.582031 112.003906 Z M 316.027344 119.503906 L 316.027344 243.097656 L 60.582031 243.097656 L 60.582031 228.003906 L 41.738281 228.003906 L 41.738281 258.523438 C 41.738281 270.917969 51.878906 281.058594 64.273438 281.058594 L 142.242188 281.058594 L 142.242188 316.859375 L 107.9375 316.859375 C 97.367188 316.859375 88.722656 323.769531 88.722656 332.214844 L 88.722656 347.570312 L 287.886719 347.570312 L 287.886719 332.214844 C 287.886719 323.769531 279.238281 316.859375 268.667969 316.859375 L 234.367188 316.859375 L 234.367188 281.058594 L 312.335938 281.058594 C 324.730469 281.058594 334.871094 270.917969 334.871094 258.523438 L 334.871094 103.492188 C 334.871094 101.347656 334.566406 99.269531 334 97.304688 Z M 316.027344 119.503906 " fill-opacity="1" fill-rule="nonzero"/></g></svg>