<svg xmlns="http://www.w3.org/2000/svg" xmlns:xlink="http://www.w3.org/1999/xlink" width="500" zoomAndPan="magnify" viewBox="0 0 375 374.999991" height="500" preserveAspectRatio="xMidYMid meet" version="1.0"><metadata><ContainsAiGeneratedContent>Yes</ContainsAiGeneratedContent></metadata><defs><clipPath id="8acd7f5ec6"><path d="M 23.046875 0 L 250 0 L 250 238 L 23.046875 238 Z M 23.046875 0 " clip-rule="nonzero"/></clipPath><clipPath id="6979bd856b"><path d="M 23.046875 0 L 250 0 L 250 238 L 23.046875 238 Z M 23.046875 0 " clip-rule="nonzero"/></clipPath><clipPath id="f37d3700f1"><path d="M 224 91 L 277.296875 91 L 277.296875 225 L 224 225 Z M 224 91 " clip-rule="nonzero"/></clipPath><clipPath id="dbf9d01b72"><path d="M 127 195 L 277.296875 195 L 277.296875 261 L 127 261 Z M 127 195 " clip-rule="nonzero"/></clipPath></defs><g clip-path="url(#8acd7f5ec6)"><path fill="#95ea62" d="M 23.066406 118.8125 C 40.152344 119.039062 132.785156 126.007812 136.382812 237.300781 C 140.207031 126.007812 232.835938 119.035156 249.925781 118.8125 C 232.835938 118.363281 140.207031 111.394531 136.382812 0.101562 C 132.785156 111.394531 40.15625 118.363281 23.066406 118.8125 Z M 23.066406 118.8125 " fill-opacity="1" fill-rule="evenodd"/></g><path fill="#95ea62" d="M 224.96875 157.933594 C 234.636719 158.160156 286.570312 161.980469 288.59375 224.484375 C 290.621094 161.980469 342.554688 158.160156 352 157.933594 C 342.554688 157.710938 290.621094 153.886719 288.59375 91.609375 C 286.570312 153.886719 234.636719 157.710938 224.96875 157.933594 Z M 224.96875 157.933594 " fill-opacity="1" fill-rule="evenodd"/><path fill="#95ea62" d="M 127.613281 285.414062 C 140.65625 285.640625 210.578125 290.8125 213.273438 374.898438 C 216.199219 290.8125 286.121094 285.640625 298.9375 285.414062 C 286.121094 284.964844 216.199219 279.792969 213.273438 195.707031 C 210.578125 279.792969 140.652344 284.964844 127.613281 285.414062 Z M 127.613281 285.414062 " fill-opacity="1" fill-rule="evenodd"/><g clip-path="url(#6979bd856b)"><path fill="#1b575f" d="M 23.066406 118.8125 C 40.152344 119.039062 132.785156 126.007812 136.382812 237.300781 C 140.207031 126.007812 232.835938 119.035156 249.925781 118.8125 C 232.835938 118.363281 140.207031 111.394531 136.382812 0.101562 C 132.785156 111.394531 40.15625 118.363281 23.066406 118.8125 Z M 23.066406 118.8125 " fill-opacity="1" fill-rule="evenodd"/></g><g clip-path="url(#f37d3700f1)"><path fill="#1b575f" d="M 224.96875 157.933594 C 234.636719 158.160156 286.570312 161.980469 288.59375 224.484375 C 290.621094 161.980469 342.554688 158.160156 352 157.933594 C 342.554688 157.710938 290.621094 153.886719 288.59375 91.609375 C 286.570312 153.886719 234.636719 157.710938 224.96875 157.933594 Z M 224.96875 157.933594 " fill-opacity="1" fill-rule="evenodd"/></g><g clip-path="url(#dbf9d01b72)"><path fill="#1b575f" d="M 127.613281 285.414062 C 140.65625 285.640625 210.578125 290.8125 213.273438 374.898438 C 216.199219 290.8125 286.121094 285.640625 298.9375 285.414062 C 286.121094 284.964844 216.199219 279.792969 213.273438 195.707031 C 210.578125 279.792969 140.652344 284.964844 127.613281 285.414062 Z M 127.613281 285.414062 " fill-opacity="1" fill-rule="evenodd"/></g></svg>