<svg xmlns="http://www.w3.org/2000/svg" xmlns:xlink="http://www.w3.org/1999/xlink" width="500" zoomAndPan="magnify" viewBox="0 0 375 374.999991" height="500" preserveAspectRatio="xMidYMid meet" version="1.0"><metadata><ContainsAiGeneratedContent>Yes</ContainsAiGeneratedContent></metadata><defs><clipPath id="271553a345"><path d="M 14.957031 107 L 262 107 L 262 353.667969 L 14.957031 353.667969 Z M 14.957031 107 " clip-rule="nonzero"/></clipPath><clipPath id="c266409ae1"><path d="M 192 21.417969 L 359.957031 21.417969 L 359.957031 222 L 192 222 Z M 192 21.417969 " clip-rule="nonzero"/></clipPath><clipPath id="2f4572c64f"><path d="M 187.214844 107 L 262 107 L 262 223.167969 L 187.214844 223.167969 Z M 187.214844 107 " clip-rule="nonzero"/></clipPath><clipPath id="16432691d5"><path d="M 192 21.417969 L 359.714844 21.417969 L 359.714844 222 L 192 222 Z M 192 21.417969 " clip-rule="nonzero"/></clipPath><clipPath id="dc3e8fe5d4"><path d="M 14.957031 225.945312 L 143.207031 225.945312 L 143.207031 353.445312 L 14.957031 353.445312 Z M 14.957031 225.945312 " clip-rule="nonzero"/></clipPath></defs><g clip-path="url(#271553a345)"><path fill="#1b575f" d="M 256.742188 225.640625 L 142.921875 225.640625 L 142.921875 198.347656 C 145.886719 199.355469 149.019531 199.878906 152.222656 199.878906 C 159.914062 199.878906 167.148438 196.882812 172.585938 191.445312 C 178.023438 186.003906 181.019531 178.773438 181.019531 171.082031 C 181.019531 163.398438 178.046875 156.179688 172.652344 150.757812 C 167.257812 145.332031 160.054688 142.324219 152.371094 142.285156 C 149.113281 142.265625 145.933594 142.789062 142.921875 143.820312 L 142.921875 111.820312 C 142.921875 109.222656 140.816406 107.117188 138.21875 107.117188 L 96.703125 107.117188 C 94.835938 107.117188 93.144531 108.21875 92.394531 109.929688 C 91.644531 111.636719 91.976562 113.628906 93.238281 115 C 96.519531 118.570312 98.335938 123.210938 98.347656 128.058594 C 98.363281 133.21875 96.351562 138.089844 92.683594 141.777344 C 89.015625 145.460938 84.152344 147.496094 78.996094 147.507812 C 78.980469 147.507812 78.96875 147.507812 78.957031 147.507812 C 73.785156 147.507812 68.921875 145.496094 65.257812 141.839844 C 61.589844 138.175781 59.566406 133.304688 59.566406 128.117188 C 59.566406 123.246094 61.382812 118.585938 64.675781 115 C 65.941406 113.628906 66.269531 111.636719 65.519531 109.929688 C 64.769531 108.21875 63.082031 107.117188 61.214844 107.117188 L 35.773438 107.117188 C 24.316406 107.117188 14.996094 116.4375 14.996094 127.894531 L 14.996094 269.269531 C 14.996094 270.988281 15.929688 272.566406 17.4375 273.394531 C 18.941406 274.21875 20.777344 274.160156 22.226562 273.238281 C 25.394531 271.214844 29.070312 270.167969 32.851562 270.214844 C 38.007812 270.273438 42.828125 272.3125 46.433594 275.953125 C 50.035156 279.597656 52.019531 284.445312 52.019531 289.601562 C 52.019531 300.292969 43.320312 308.992188 32.628906 308.992188 C 28.925781 308.992188 25.328125 307.945312 22.226562 305.96875 C 20.777344 305.046875 18.941406 304.984375 17.4375 305.8125 C 15.929688 306.636719 14.996094 308.21875 14.996094 309.933594 L 14.996094 332.789062 C 14.996094 344.246094 24.316406 353.566406 35.773438 353.566406 L 240.667969 353.566406 C 252.125 353.566406 261.445312 344.246094 261.445312 332.789062 L 261.445312 308.710938 C 261.445312 306.921875 260.425781 305.285156 258.820312 304.492188 C 257.210938 303.703125 255.292969 303.894531 253.875 304.984375 C 250.464844 307.609375 246.382812 308.996094 242.066406 308.996094 C 231.375 308.996094 222.675781 300.296875 222.675781 289.605469 C 222.675781 284.425781 224.675781 279.5625 228.308594 275.914062 C 231.9375 272.261719 236.792969 270.242188 241.972656 270.214844 C 242.003906 270.214844 242.035156 270.214844 242.070312 270.214844 C 246.382812 270.214844 250.464844 271.601562 253.875 274.226562 C 255.296875 275.316406 257.214844 275.507812 258.820312 274.71875 C 260.425781 273.925781 261.445312 272.289062 261.445312 270.5 L 261.445312 230.34375 C 261.445312 227.746094 259.339844 225.640625 256.742188 225.640625 Z M 24.398438 127.898438 C 24.398438 121.628906 29.503906 116.523438 35.773438 116.523438 L 52.59375 116.523438 C 51 120.144531 50.164062 124.082031 50.164062 128.121094 C 50.164062 135.820312 53.164062 143.058594 58.617188 148.5 C 64.054688 153.929688 71.277344 156.914062 78.957031 156.914062 C 78.976562 156.914062 78.996094 156.914062 79.011719 156.914062 C 86.6875 156.898438 93.90625 153.882812 99.347656 148.414062 C 104.792969 142.945312 107.773438 135.710938 107.753906 128.035156 C 107.742188 124.027344 106.902344 120.121094 105.324219 116.523438 L 133.519531 116.523438 L 133.519531 151.476562 C 133.519531 153.238281 134.503906 154.851562 136.070312 155.660156 C 137.636719 156.464844 139.523438 156.328125 140.957031 155.300781 C 144.257812 152.941406 148.152344 151.695312 152.222656 151.695312 C 152.257812 151.695312 152.289062 151.695312 152.324219 151.695312 C 157.5 151.71875 162.351562 153.742188 165.984375 157.394531 C 169.613281 161.042969 171.613281 165.90625 171.613281 171.085938 C 171.613281 181.777344 162.914062 190.472656 152.222656 190.472656 C 148.152344 190.472656 144.253906 189.226562 140.957031 186.867188 C 139.523438 185.839844 137.636719 185.703125 136.070312 186.507812 C 134.503906 187.316406 133.519531 188.929688 133.519531 190.691406 L 133.519531 225.644531 L 24.398438 225.644531 Z M 24.398438 332.792969 L 24.398438 317.207031 C 27.050781 317.996094 29.820312 318.402344 32.628906 318.402344 C 40.320312 318.402344 47.550781 315.40625 52.988281 309.96875 C 58.429688 304.527344 61.425781 297.296875 61.425781 289.605469 C 61.425781 281.957031 58.476562 274.761719 53.121094 269.34375 C 47.765625 263.925781 40.605469 260.898438 32.957031 260.8125 C 30.039062 260.78125 27.15625 261.183594 24.402344 262.003906 L 24.402344 235.046875 L 133.519531 235.046875 L 133.519531 261.523438 C 131.519531 261.070312 129.472656 260.828125 127.417969 260.808594 C 127.324219 260.808594 127.238281 260.808594 127.144531 260.808594 C 119.535156 260.808594 112.359375 263.765625 106.914062 269.152344 C 101.402344 274.605469 98.363281 281.851562 98.351562 289.5625 C 98.339844 297.261719 101.328125 304.503906 106.769531 309.949219 C 112.210938 315.398438 119.445312 318.398438 127.148438 318.398438 C 129.292969 318.398438 131.433594 318.15625 133.519531 317.683594 L 133.519531 344.164062 L 35.773438 344.164062 C 29.503906 344.164062 24.398438 339.0625 24.398438 332.792969 Z M 252.039062 262.574219 C 248.886719 261.410156 245.527344 260.808594 242.070312 260.808594 C 242.023438 260.808594 241.976562 260.808594 241.925781 260.808594 C 234.242188 260.847656 227.039062 263.855469 221.640625 269.277344 C 216.246094 274.703125 213.273438 281.921875 213.273438 289.605469 C 213.273438 297.296875 216.269531 304.527344 221.707031 309.964844 C 227.144531 315.40625 234.378906 318.402344 242.070312 318.402344 C 245.527344 318.402344 248.886719 317.800781 252.042969 316.632812 L 252.042969 332.789062 C 252.042969 339.0625 246.9375 344.164062 240.667969 344.164062 L 142.925781 344.164062 L 142.925781 311.003906 C 142.925781 309.363281 142.066406 307.839844 140.664062 306.988281 C 139.261719 306.132812 137.515625 306.074219 136.054688 306.832031 C 133.289062 308.265625 130.289062 308.996094 127.144531 308.996094 C 121.960938 308.996094 117.085938 306.972656 113.425781 303.304688 C 109.761719 299.636719 107.746094 294.761719 107.753906 289.574219 C 107.761719 284.390625 109.8125 279.515625 113.527344 275.839844 C 117.242188 272.167969 122.144531 270.167969 127.328125 270.214844 C 130.40625 270.246094 133.34375 270.972656 136.054688 272.378906 C 137.515625 273.136719 139.261719 273.078125 140.664062 272.222656 C 142.066406 271.371094 142.925781 269.847656 142.925781 268.203125 L 142.925781 235.046875 L 252.042969 235.046875 L 252.042969 262.574219 Z M 252.039062 262.574219 " fill-opacity="1" fill-rule="nonzero"/></g><path fill="#1b575f" d="M 316.738281 71.195312 C 317.960938 69.050781 318.660156 66.574219 318.660156 63.933594 C 318.660156 55.835938 312.074219 49.246094 303.976562 49.246094 C 295.878906 49.246094 289.289062 55.835938 289.289062 63.933594 C 289.289062 66.570312 289.988281 69.050781 291.210938 71.191406 C 284.707031 75.445312 280.683594 82.71875 280.683594 90.683594 L 280.683594 96.074219 C 280.683594 98.117188 282.335938 99.769531 284.375 99.769531 L 323.574219 99.769531 C 325.613281 99.769531 327.269531 98.117188 327.269531 96.074219 L 327.269531 90.683594 C 327.269531 85.960938 325.863281 81.414062 323.203125 77.53125 C 321.464844 74.996094 319.269531 72.855469 316.738281 71.195312 Z M 303.976562 56.636719 C 308 56.636719 311.273438 59.910156 311.273438 63.933594 C 311.273438 67.957031 308 71.230469 303.976562 71.230469 C 299.953125 71.230469 296.679688 67.957031 296.679688 63.933594 C 296.675781 59.910156 299.949219 56.636719 303.976562 56.636719 Z M 319.878906 92.378906 L 288.070312 92.378906 L 288.070312 90.683594 C 288.070312 84.730469 291.363281 79.34375 296.5625 76.609375 C 298.738281 77.886719 301.273438 78.621094 303.972656 78.621094 C 306.675781 78.621094 309.207031 77.886719 311.386719 76.609375 C 316.589844 79.34375 319.878906 84.710938 319.878906 90.683594 Z M 319.878906 92.378906 " fill-opacity="1" fill-rule="nonzero"/><g clip-path="url(#c266409ae1)"><path fill="#1b575f" d="M 357.5 84.996094 L 349.363281 80.578125 L 349.363281 75.078125 L 357.5 70.660156 C 359.207031 69.734375 360.011719 67.722656 359.410156 65.875 L 355.851562 54.917969 C 355.25 53.070312 353.417969 51.914062 351.492188 52.167969 L 342.3125 53.375 L 339.078125 48.925781 L 343.0625 40.570312 C 343.898438 38.816406 343.367188 36.714844 341.796875 35.574219 L 332.476562 28.800781 C 330.902344 27.660156 328.742188 27.800781 327.332031 29.140625 L 320.617188 35.511719 L 315.382812 33.8125 L 313.699219 24.710938 C 313.34375 22.800781 311.675781 21.414062 309.734375 21.414062 L 298.214844 21.414062 C 296.269531 21.414062 294.605469 22.796875 294.25 24.710938 L 292.5625 33.8125 L 287.332031 35.511719 L 280.617188 29.140625 C 279.207031 27.800781 277.042969 27.660156 275.472656 28.800781 L 266.152344 35.574219 C 264.582031 36.714844 264.046875 38.816406 264.882812 40.570312 L 268.867188 48.925781 L 265.636719 53.375 L 256.457031 52.167969 C 254.53125 51.914062 252.699219 53.070312 252.097656 54.917969 L 250.660156 59.335938 L 196.992188 59.335938 C 194.542969 59.335938 192.558594 61.320312 192.558594 63.769531 L 192.558594 103.925781 C 192.558594 105.613281 193.515625 107.15625 195.03125 107.902344 C 196.546875 108.648438 198.355469 108.46875 199.695312 107.441406 C 203.152344 104.78125 207.292969 103.375 211.667969 103.375 C 222.507812 103.375 231.324219 112.191406 231.324219 123.03125 C 231.324219 133.871094 222.507812 142.691406 211.667969 142.691406 C 207.292969 142.691406 203.152344 141.285156 199.695312 138.625 C 198.355469 137.597656 196.546875 137.417969 195.03125 138.164062 C 193.515625 138.910156 192.558594 140.453125 192.558594 142.140625 L 192.558594 182.292969 C 192.558594 184.742188 194.542969 186.730469 196.992188 186.730469 L 230.136719 186.730469 C 229.441406 189.179688 229.082031 191.730469 229.082031 194.308594 C 229.082031 209.558594 241.488281 221.96875 256.742188 221.96875 C 271.992188 221.96875 284.398438 209.558594 284.398438 194.308594 C 284.398438 191.730469 284.039062 189.179688 283.34375 186.730469 L 315.515625 186.730469 C 317.960938 186.730469 319.949219 184.742188 319.949219 182.292969 L 319.949219 150.777344 C 322.117188 151.292969 324.351562 151.5625 326.589844 151.5625 C 342.320312 151.5625 355.117188 138.765625 355.117188 123.035156 C 355.117188 118.105469 353.839844 113.246094 351.417969 108.980469 C 350.152344 106.742188 348.578125 104.6875 346.765625 102.871094 L 351.488281 103.492188 C 353.414062 103.746094 355.25 102.589844 355.851562 100.742188 L 359.410156 89.785156 C 360.011719 87.9375 359.207031 85.925781 357.5 84.996094 Z M 326.589844 142.691406 C 323.40625 142.691406 320.363281 141.953125 317.558594 140.496094 C 316.183594 139.785156 314.535156 139.839844 313.210938 140.644531 C 311.890625 141.449219 311.082031 142.886719 311.082031 144.433594 L 311.082031 177.859375 L 276.621094 177.859375 C 275.023438 177.859375 273.546875 178.722656 272.757812 180.117188 C 271.972656 181.511719 272 183.222656 272.828125 184.589844 C 274.597656 187.511719 275.53125 190.871094 275.53125 194.308594 C 275.53125 204.667969 267.101562 213.097656 256.742188 213.097656 C 246.378906 213.097656 237.949219 204.667969 237.949219 194.308594 C 237.949219 190.871094 238.886719 187.511719 240.652344 184.589844 C 241.484375 183.222656 241.511719 181.511719 240.722656 180.117188 C 239.9375 178.722656 238.460938 177.859375 236.859375 177.859375 L 201.425781 177.859375 L 201.425781 149.675781 C 204.65625 150.917969 208.109375 151.558594 211.667969 151.558594 C 227.394531 151.558594 240.191406 138.761719 240.191406 123.03125 C 240.191406 107.304688 227.394531 94.503906 211.667969 94.503906 C 208.109375 94.503906 204.65625 95.148438 201.425781 96.390625 L 201.425781 68.203125 L 248.488281 68.203125 C 248.773438 69.226562 249.460938 70.125 250.449219 70.664062 L 258.582031 75.082031 L 258.582031 80.582031 L 250.449219 85 C 248.742188 85.925781 247.9375 87.9375 248.539062 89.785156 L 252.097656 100.742188 C 252.699219 102.589844 254.53125 103.746094 256.457031 103.492188 L 265.636719 102.285156 L 268.867188 106.734375 L 264.882812 115.089844 C 264.046875 116.84375 264.582031 118.945312 266.152344 120.085938 L 275.472656 126.859375 C 277.042969 128 279.207031 127.859375 280.617188 126.519531 L 287.332031 120.148438 L 292.5625 121.847656 L 294.25 130.949219 C 294.601562 132.859375 296.269531 134.246094 298.214844 134.246094 L 309.734375 134.246094 C 311.675781 134.246094 313.34375 132.859375 313.699219 130.949219 L 315.382812 121.847656 L 320.617188 120.148438 L 327.332031 126.519531 C 328.742188 127.859375 330.902344 128 332.476562 126.859375 L 341.796875 120.085938 C 343.367188 118.945312 343.902344 116.84375 343.0625 115.089844 L 339.984375 108.636719 C 343.960938 112.316406 346.25 117.480469 346.25 123.035156 C 346.25 133.871094 337.433594 142.691406 326.589844 142.691406 Z M 349.21875 95.0625 L 340.988281 93.980469 C 339.523438 93.785156 338.070312 94.410156 337.199219 95.605469 L 331.148438 103.9375 C 330.28125 105.132812 330.136719 106.707031 330.769531 108.042969 L 334.34375 115.535156 L 330.449219 118.367188 L 324.425781 112.652344 C 323.355469 111.632812 321.8125 111.285156 320.40625 111.742188 L 310.613281 114.925781 C 309.207031 115.382812 308.164062 116.570312 307.894531 118.023438 L 306.382812 126.1875 L 301.566406 126.1875 L 300.050781 118.023438 C 299.78125 116.570312 298.738281 115.382812 297.335938 114.925781 L 287.542969 111.742188 C 286.136719 111.285156 284.59375 111.632812 283.519531 112.652344 L 277.496094 118.367188 L 273.601562 115.535156 L 277.175781 108.042969 C 277.8125 106.707031 277.667969 105.132812 276.800781 103.9375 L 270.746094 95.605469 C 269.878906 94.410156 268.425781 93.785156 266.960938 93.980469 L 258.726562 95.0625 L 257.238281 90.484375 L 264.535156 86.523438 C 265.835938 85.816406 266.644531 84.457031 266.644531 82.980469 L 266.644531 72.679688 C 266.644531 71.203125 265.835938 69.84375 264.535156 69.140625 L 257.238281 65.175781 L 258.726562 60.597656 L 266.960938 61.679688 C 268.425781 61.875 269.878906 61.25 270.746094 60.054688 L 276.800781 51.722656 C 277.667969 50.527344 277.8125 48.953125 277.175781 47.621094 L 273.601562 40.125 L 277.496094 37.292969 L 283.519531 43.007812 C 284.59375 44.027344 286.132812 44.375 287.542969 43.917969 L 297.335938 40.738281 C 298.738281 40.28125 299.78125 39.089844 300.050781 37.636719 L 301.566406 29.472656 L 306.382812 29.472656 L 307.894531 37.636719 C 308.164062 39.089844 309.207031 40.28125 310.613281 40.738281 L 320.40625 43.917969 C 321.8125 44.375 323.355469 44.027344 324.425781 43.007812 L 330.449219 37.292969 L 334.34375 40.125 L 330.769531 47.621094 C 330.136719 48.953125 330.28125 50.527344 331.148438 51.722656 L 337.199219 60.054688 C 338.070312 61.25 339.523438 61.875 340.988281 61.679688 L 349.21875 60.597656 L 350.707031 65.175781 L 343.410156 69.140625 C 342.113281 69.84375 341.304688 71.203125 341.304688 72.679688 L 341.304688 82.980469 C 341.304688 84.457031 342.113281 85.816406 343.410156 86.519531 L 350.707031 90.484375 Z M 349.21875 95.0625 " fill-opacity="1" fill-rule="nonzero"/></g><g clip-path="url(#2f4572c64f)"><path fill="#95ea62" d="M 256.742188 225.640625 L 142.921875 225.640625 L 142.921875 198.347656 C 145.886719 199.355469 149.019531 199.878906 152.222656 199.878906 C 159.914062 199.878906 167.148438 196.882812 172.585938 191.445312 C 178.023438 186.003906 181.019531 178.773438 181.019531 171.082031 C 181.019531 163.398438 178.046875 156.179688 172.652344 150.757812 C 167.257812 145.332031 160.054688 142.324219 152.371094 142.285156 C 149.113281 142.265625 145.933594 142.789062 142.921875 143.820312 L 142.921875 111.820312 C 142.921875 109.222656 140.816406 107.117188 138.21875 107.117188 L 96.703125 107.117188 C 94.835938 107.117188 93.144531 108.21875 92.394531 109.929688 C 91.644531 111.636719 91.976562 113.628906 93.238281 115 C 96.519531 118.570312 98.335938 123.210938 98.347656 128.058594 C 98.363281 133.21875 96.351562 138.089844 92.683594 141.777344 C 89.015625 145.460938 84.152344 147.496094 78.996094 147.507812 C 78.980469 147.507812 78.96875 147.507812 78.957031 147.507812 C 73.785156 147.507812 68.921875 145.496094 65.257812 141.839844 C 61.589844 138.175781 59.566406 133.304688 59.566406 128.117188 C 59.566406 123.246094 61.382812 118.585938 64.675781 115 C 65.941406 113.628906 66.269531 111.636719 65.519531 109.929688 C 64.769531 108.21875 63.082031 107.117188 61.214844 107.117188 L 35.773438 107.117188 C 24.316406 107.117188 14.996094 116.4375 14.996094 127.894531 L 14.996094 269.269531 C 14.996094 270.988281 15.929688 272.566406 17.4375 273.394531 C 18.941406 274.21875 20.777344 274.160156 22.226562 273.238281 C 25.394531 271.214844 29.070312 270.167969 32.851562 270.214844 C 38.007812 270.273438 42.828125 272.3125 46.433594 275.953125 C 50.035156 279.597656 52.019531 284.445312 52.019531 289.601562 C 52.019531 300.292969 43.320312 308.992188 32.628906 308.992188 C 28.925781 308.992188 25.328125 307.945312 22.226562 305.96875 C 20.777344 305.046875 18.941406 304.984375 17.4375 305.8125 C 15.929688 306.636719 14.996094 308.21875 14.996094 309.933594 L 14.996094 332.789062 C 14.996094 344.246094 24.316406 353.566406 35.773438 353.566406 L 240.667969 353.566406 C 252.125 353.566406 261.445312 344.246094 261.445312 332.789062 L 261.445312 308.710938 C 261.445312 306.921875 260.425781 305.285156 258.820312 304.492188 C 257.210938 303.703125 255.292969 303.894531 253.875 304.984375 C 250.464844 307.609375 246.382812 308.996094 242.066406 308.996094 C 231.375 308.996094 222.675781 300.296875 222.675781 289.605469 C 222.675781 284.425781 224.675781 279.5625 228.308594 275.914062 C 231.9375 272.261719 236.792969 270.242188 241.972656 270.214844 C 242.003906 270.214844 242.035156 270.214844 242.070312 270.214844 C 246.382812 270.214844 250.464844 271.601562 253.875 274.226562 C 255.296875 275.316406 257.214844 275.507812 258.820312 274.71875 C 260.425781 273.925781 261.445312 272.289062 261.445312 270.5 L 261.445312 230.34375 C 261.445312 227.746094 259.339844 225.640625 256.742188 225.640625 Z M 24.398438 127.898438 C 24.398438 121.628906 29.503906 116.523438 35.773438 116.523438 L 52.59375 116.523438 C 51 120.144531 50.164062 124.082031 50.164062 128.121094 C 50.164062 135.820312 53.164062 143.058594 58.617188 148.5 C 64.054688 153.929688 71.277344 156.914062 78.957031 156.914062 C 78.976562 156.914062 78.996094 156.914062 79.011719 156.914062 C 86.6875 156.898438 93.90625 153.882812 99.347656 148.414062 C 104.792969 142.945312 107.773438 135.710938 107.753906 128.035156 C 107.742188 124.027344 106.902344 120.121094 105.324219 116.523438 L 133.519531 116.523438 L 133.519531 151.476562 C 133.519531 153.238281 134.503906 154.851562 136.070312 155.660156 C 137.636719 156.464844 139.523438 156.328125 140.957031 155.300781 C 144.257812 152.941406 148.152344 151.695312 152.222656 151.695312 C 152.257812 151.695312 152.289062 151.695312 152.324219 151.695312 C 157.5 151.71875 162.351562 153.742188 165.984375 157.394531 C 169.613281 161.042969 171.613281 165.90625 171.613281 171.085938 C 171.613281 181.777344 162.914062 190.472656 152.222656 190.472656 C 148.152344 190.472656 144.253906 189.226562 140.957031 186.867188 C 139.523438 185.839844 137.636719 185.703125 136.070312 186.507812 C 134.503906 187.316406 133.519531 188.929688 133.519531 190.691406 L 133.519531 225.644531 L 24.398438 225.644531 Z M 24.398438 332.792969 L 24.398438 317.207031 C 27.050781 317.996094 29.820312 318.402344 32.628906 318.402344 C 40.320312 318.402344 47.550781 315.40625 52.988281 309.96875 C 58.429688 304.527344 61.425781 297.296875 61.425781 289.605469 C 61.425781 281.957031 58.476562 274.761719 53.121094 269.34375 C 47.765625 263.925781 40.605469 260.898438 32.957031 260.8125 C 30.039062 260.78125 27.15625 261.183594 24.402344 262.003906 L 24.402344 235.046875 L 133.519531 235.046875 L 133.519531 261.523438 C 131.519531 261.070312 129.472656 260.828125 127.417969 260.808594 C 127.324219 260.808594 127.238281 260.808594 127.144531 260.808594 C 119.535156 260.808594 112.359375 263.765625 106.914062 269.152344 C 101.402344 274.605469 98.363281 281.851562 98.351562 289.5625 C 98.339844 297.261719 101.328125 304.503906 106.769531 309.949219 C 112.210938 315.398438 119.445312 318.398438 127.148438 318.398438 C 129.292969 318.398438 131.433594 318.15625 133.519531 317.683594 L 133.519531 344.164062 L 35.773438 344.164062 C 29.503906 344.164062 24.398438 339.0625 24.398438 332.792969 Z M 252.039062 262.574219 C 248.886719 261.410156 245.527344 260.808594 242.070312 260.808594 C 242.023438 260.808594 241.976562 260.808594 241.925781 260.808594 C 234.242188 260.847656 227.039062 263.855469 221.640625 269.277344 C 216.246094 274.703125 213.273438 281.921875 213.273438 289.605469 C 213.273438 297.296875 216.269531 304.527344 221.707031 309.964844 C 227.144531 315.40625 234.378906 318.402344 242.070312 318.402344 C 245.527344 318.402344 248.886719 317.800781 252.042969 316.632812 L 252.042969 332.789062 C 252.042969 339.0625 246.9375 344.164062 240.667969 344.164062 L 142.925781 344.164062 L 142.925781 311.003906 C 142.925781 309.363281 142.066406 307.839844 140.664062 306.988281 C 139.261719 306.132812 137.515625 306.074219 136.054688 306.832031 C 133.289062 308.265625 130.289062 308.996094 127.144531 308.996094 C 121.960938 308.996094 117.085938 306.972656 113.425781 303.304688 C 109.761719 299.636719 107.746094 294.761719 107.753906 289.574219 C 107.761719 284.390625 109.8125 279.515625 113.527344 275.839844 C 117.242188 272.167969 122.144531 270.167969 127.328125 270.214844 C 130.40625 270.246094 133.34375 270.972656 136.054688 272.378906 C 137.515625 273.136719 139.261719 273.078125 140.664062 272.222656 C 142.066406 271.371094 142.925781 269.847656 142.925781 268.203125 L 142.925781 235.046875 L 252.042969 235.046875 L 252.042969 262.574219 Z M 252.039062 262.574219 " fill-opacity="1" fill-rule="nonzero"/></g><path fill="#95ea62" d="M 316.738281 71.195312 C 317.960938 69.050781 318.660156 66.574219 318.660156 63.933594 C 318.660156 55.835938 312.074219 49.246094 303.976562 49.246094 C 295.878906 49.246094 289.289062 55.835938 289.289062 63.933594 C 289.289062 66.570312 289.988281 69.050781 291.210938 71.191406 C 284.707031 75.445312 280.683594 82.71875 280.683594 90.683594 L 280.683594 96.074219 C 280.683594 98.117188 282.335938 99.769531 284.375 99.769531 L 323.574219 99.769531 C 325.613281 99.769531 327.269531 98.117188 327.269531 96.074219 L 327.269531 90.683594 C 327.269531 85.960938 325.863281 81.414062 323.203125 77.53125 C 321.464844 74.996094 319.269531 72.855469 316.738281 71.195312 Z M 303.976562 56.636719 C 308 56.636719 311.273438 59.910156 311.273438 63.933594 C 311.273438 67.957031 308 71.230469 303.976562 71.230469 C 299.953125 71.230469 296.679688 67.957031 296.679688 63.933594 C 296.675781 59.910156 299.949219 56.636719 303.976562 56.636719 Z M 319.878906 92.378906 L 288.070312 92.378906 L 288.070312 90.683594 C 288.070312 84.730469 291.363281 79.34375 296.5625 76.609375 C 298.738281 77.886719 301.273438 78.621094 303.972656 78.621094 C 306.675781 78.621094 309.207031 77.886719 311.386719 76.609375 C 316.589844 79.34375 319.878906 84.710938 319.878906 90.683594 Z M 319.878906 92.378906 " fill-opacity="1" fill-rule="nonzero"/><g clip-path="url(#16432691d5)"><path fill="#95ea62" d="M 357.5 84.996094 L 349.363281 80.578125 L 349.363281 75.078125 L 357.5 70.660156 C 359.207031 69.734375 360.011719 67.722656 359.410156 65.875 L 355.851562 54.917969 C 355.25 53.070312 353.417969 51.914062 351.492188 52.167969 L 342.3125 53.375 L 339.078125 48.925781 L 343.0625 40.570312 C 343.898438 38.816406 343.367188 36.714844 341.796875 35.574219 L 332.476562 28.800781 C 330.902344 27.660156 328.742188 27.800781 327.332031 29.140625 L 320.617188 35.511719 L 315.382812 33.8125 L 313.699219 24.710938 C 313.34375 22.800781 311.675781 21.414062 309.734375 21.414062 L 298.214844 21.414062 C 296.269531 21.414062 294.605469 22.796875 294.25 24.710938 L 292.5625 33.8125 L 287.332031 35.511719 L 280.617188 29.140625 C 279.207031 27.800781 277.042969 27.660156 275.472656 28.800781 L 266.152344 35.574219 C 264.582031 36.714844 264.046875 38.816406 264.882812 40.570312 L 268.867188 48.925781 L 265.636719 53.375 L 256.457031 52.167969 C 254.53125 51.914062 252.699219 53.070312 252.097656 54.917969 L 250.660156 59.335938 L 196.992188 59.335938 C 194.542969 59.335938 192.558594 61.320312 192.558594 63.769531 L 192.558594 103.925781 C 192.558594 105.613281 193.515625 107.15625 195.03125 107.902344 C 196.546875 108.648438 198.355469 108.46875 199.695312 107.441406 C 203.152344 104.78125 207.292969 103.375 211.667969 103.375 C 222.507812 103.375 231.324219 112.191406 231.324219 123.03125 C 231.324219 133.871094 222.507812 142.691406 211.667969 142.691406 C 207.292969 142.691406 203.152344 141.285156 199.695312 138.625 C 198.355469 137.597656 196.546875 137.417969 195.03125 138.164062 C 193.515625 138.910156 192.558594 140.453125 192.558594 142.140625 L 192.558594 182.292969 C 192.558594 184.742188 194.542969 186.730469 196.992188 186.730469 L 230.136719 186.730469 C 229.441406 189.179688 229.082031 191.730469 229.082031 194.308594 C 229.082031 209.558594 241.488281 221.96875 256.742188 221.96875 C 271.992188 221.96875 284.398438 209.558594 284.398438 194.308594 C 284.398438 191.730469 284.039062 189.179688 283.34375 186.730469 L 315.515625 186.730469 C 317.960938 186.730469 319.949219 184.742188 319.949219 182.292969 L 319.949219 150.777344 C 322.117188 151.292969 324.351562 151.5625 326.589844 151.5625 C 342.320312 151.5625 355.117188 138.765625 355.117188 123.035156 C 355.117188 118.105469 353.839844 113.246094 351.417969 108.980469 C 350.152344 106.742188 348.578125 104.6875 346.765625 102.871094 L 351.488281 103.492188 C 353.414062 103.746094 355.25 102.589844 355.851562 100.742188 L 359.410156 89.785156 C 360.011719 87.9375 359.207031 85.925781 357.5 84.996094 Z M 326.589844 142.691406 C 323.40625 142.691406 320.363281 141.953125 317.558594 140.496094 C 316.183594 139.785156 314.535156 139.839844 313.210938 140.644531 C 311.890625 141.449219 311.082031 142.886719 311.082031 144.433594 L 311.082031 177.859375 L 276.621094 177.859375 C 275.023438 177.859375 273.546875 178.722656 272.757812 180.117188 C 271.972656 181.511719 272 183.222656 272.828125 184.589844 C 274.597656 187.511719 275.53125 190.871094 275.53125 194.308594 C 275.53125 204.667969 267.101562 213.097656 256.742188 213.097656 C 246.378906 213.097656 237.949219 204.667969 237.949219 194.308594 C 237.949219 190.871094 238.886719 187.511719 240.652344 184.589844 C 241.484375 183.222656 241.511719 181.511719 240.722656 180.117188 C 239.9375 178.722656 238.460938 177.859375 236.859375 177.859375 L 201.425781 177.859375 L 201.425781 149.675781 C 204.65625 150.917969 208.109375 151.558594 211.667969 151.558594 C 227.394531 151.558594 240.191406 138.761719 240.191406 123.03125 C 240.191406 107.304688 227.394531 94.503906 211.667969 94.503906 C 208.109375 94.503906 204.65625 95.148438 201.425781 96.390625 L 201.425781 68.203125 L 248.488281 68.203125 C 248.773438 69.226562 249.460938 70.125 250.449219 70.664062 L 258.582031 75.082031 L 258.582031 80.582031 L 250.449219 85 C 248.742188 85.925781 247.9375 87.9375 248.539062 89.785156 L 252.097656 100.742188 C 252.699219 102.589844 254.53125 103.746094 256.457031 103.492188 L 265.636719 102.285156 L 268.867188 106.734375 L 264.882812 115.089844 C 264.046875 116.84375 264.582031 118.945312 266.152344 120.085938 L 275.472656 126.859375 C 277.042969 128 279.207031 127.859375 280.617188 126.519531 L 287.332031 120.148438 L 292.5625 121.847656 L 294.25 130.949219 C 294.601562 132.859375 296.269531 134.246094 298.214844 134.246094 L 309.734375 134.246094 C 311.675781 134.246094 313.34375 132.859375 313.699219 130.949219 L 315.382812 121.847656 L 320.617188 120.148438 L 327.332031 126.519531 C 328.742188 127.859375 330.902344 128 332.476562 126.859375 L 341.796875 120.085938 C 343.367188 118.945312 343.902344 116.84375 343.0625 115.089844 L 339.984375 108.636719 C 343.960938 112.316406 346.25 117.480469 346.25 123.035156 C 346.25 133.871094 337.433594 142.691406 326.589844 142.691406 Z M 349.21875 95.0625 L 340.988281 93.980469 C 339.523438 93.785156 338.070312 94.410156 337.199219 95.605469 L 331.148438 103.9375 C 330.28125 105.132812 330.136719 106.707031 330.769531 108.042969 L 334.34375 115.535156 L 330.449219 118.367188 L 324.425781 112.652344 C 323.355469 111.632812 321.8125 111.285156 320.40625 111.742188 L 310.613281 114.925781 C 309.207031 115.382812 308.164062 116.570312 307.894531 118.023438 L 306.382812 126.1875 L 301.566406 126.1875 L 300.050781 118.023438 C 299.78125 116.570312 298.738281 115.382812 297.335938 114.925781 L 287.542969 111.742188 C 286.136719 111.285156 284.59375 111.632812 283.519531 112.652344 L 277.496094 118.367188 L 273.601562 115.535156 L 277.175781 108.042969 C 277.8125 106.707031 277.667969 105.132812 276.800781 103.9375 L 270.746094 95.605469 C 269.878906 94.410156 268.425781 93.785156 266.960938 93.980469 L 258.726562 95.0625 L 257.238281 90.484375 L 264.535156 86.523438 C 265.835938 85.816406 266.644531 84.457031 266.644531 82.980469 L 266.644531 72.679688 C 266.644531 71.203125 265.835938 69.84375 264.535156 69.140625 L 257.238281 65.175781 L 258.726562 60.597656 L 266.960938 61.679688 C 268.425781 61.875 269.878906 61.25 270.746094 60.054688 L 276.800781 51.722656 C 277.667969 50.527344 277.8125 48.953125 277.175781 47.621094 L 273.601562 40.125 L 277.496094 37.292969 L 283.519531 43.007812 C 284.59375 44.027344 286.132812 44.375 287.542969 43.917969 L 297.335938 40.738281 C 298.738281 40.28125 299.78125 39.089844 300.050781 37.636719 L 301.566406 29.472656 L 306.382812 29.472656 L 307.894531 37.636719 C 308.164062 39.089844 309.207031 40.28125 310.613281 40.738281 L 320.40625 43.917969 C 321.8125 44.375 323.355469 44.027344 324.425781 43.007812 L 330.449219 37.292969 L 334.34375 40.125 L 330.769531 47.621094 C 330.136719 48.953125 330.28125 50.527344 331.148438 51.722656 L 337.199219 60.054688 C 338.070312 61.25 339.523438 61.875 340.988281 61.679688 L 349.21875 60.597656 L 350.707031 65.175781 L 343.410156 69.140625 C 342.113281 69.84375 341.304688 71.203125 341.304688 72.679688 L 341.304688 82.980469 C 341.304688 84.457031 342.113281 85.816406 343.410156 86.519531 L 350.707031 90.484375 Z M 349.21875 95.0625 " fill-opacity="1" fill-rule="nonzero"/></g><g clip-path="url(#dc3e8fe5d4)"><path fill="#95ea62" d="M 256.742188 225.640625 L 142.921875 225.640625 L 142.921875 198.34375 C 145.886719 199.355469 149.019531 199.878906 152.222656 199.878906 C 159.914062 199.878906 167.148438 196.882812 172.585938 191.441406 C 178.023438 186.003906 181.019531 178.773438 181.019531 171.082031 C 181.019531 163.398438 178.046875 156.179688 172.652344 150.757812 C 167.257812 145.332031 160.054688 142.324219 152.371094 142.285156 C 149.113281 142.265625 145.933594 142.789062 142.921875 143.820312 L 142.921875 111.820312 C 142.921875 109.222656 140.816406 107.117188 138.21875 107.117188 L 96.703125 107.117188 C 94.835938 107.117188 93.144531 108.21875 92.394531 109.929688 C 91.644531 111.636719 91.976562 113.628906 93.238281 115 C 96.519531 118.570312 98.335938 123.210938 98.347656 128.058594 C 98.363281 133.21875 96.351562 138.089844 92.683594 141.777344 C 89.015625 145.460938 84.152344 147.496094 78.996094 147.507812 C 78.980469 147.507812 78.96875 147.507812 78.957031 147.507812 C 73.785156 147.507812 68.921875 145.496094 65.257812 141.839844 C 61.589844 138.175781 59.566406 133.304688 59.566406 128.117188 C 59.566406 123.246094 61.382812 118.585938 64.675781 115 C 65.941406 113.628906 66.269531 111.636719 65.519531 109.929688 C 64.769531 108.21875 63.082031 107.117188 61.214844 107.117188 L 35.773438 107.117188 C 24.316406 107.117188 14.996094 116.4375 14.996094 127.894531 L 14.996094 269.269531 C 14.996094 270.988281 15.929688 272.566406 17.4375 273.394531 C 18.941406 274.21875 20.777344 274.160156 22.226562 273.234375 C 25.394531 271.214844 29.070312 270.167969 32.851562 270.214844 C 38.007812 270.273438 42.828125 272.3125 46.433594 275.953125 C 50.035156 279.597656 52.019531 284.445312 52.019531 289.601562 C 52.019531 300.292969 43.320312 308.992188 32.628906 308.992188 C 28.925781 308.992188 25.328125 307.945312 22.226562 305.96875 C 20.777344 305.046875 18.941406 304.984375 17.4375 305.8125 C 15.929688 306.636719 14.996094 308.21875 14.996094 309.933594 L 14.996094 332.789062 C 14.996094 344.246094 24.316406 353.566406 35.773438 353.566406 L 240.667969 353.566406 C 252.125 353.566406 261.445312 344.246094 261.445312 332.789062 L 261.445312 308.710938 C 261.445312 306.921875 260.425781 305.285156 258.820312 304.492188 C 257.210938 303.703125 255.292969 303.894531 253.875 304.984375 C 250.464844 307.609375 246.382812 308.996094 242.066406 308.996094 C 231.375 308.996094 222.675781 300.296875 222.675781 289.605469 C 222.675781 284.425781 224.675781 279.5625 228.308594 275.914062 C 231.9375 272.261719 236.792969 270.242188 241.972656 270.214844 C 242.003906 270.214844 242.035156 270.214844 242.070312 270.214844 C 246.382812 270.214844 250.464844 271.601562 253.875 274.226562 C 255.296875 275.316406 257.214844 275.507812 258.820312 274.71875 C 260.425781 273.925781 261.445312 272.289062 261.445312 270.5 L 261.445312 230.34375 C 261.445312 227.746094 259.339844 225.640625 256.742188 225.640625 Z M 24.398438 127.898438 C 24.398438 121.628906 29.503906 116.523438 35.773438 116.523438 L 52.59375 116.523438 C 51 120.144531 50.164062 124.082031 50.164062 128.121094 C 50.164062 135.820312 53.164062 143.058594 58.617188 148.5 C 64.054688 153.925781 71.277344 156.914062 78.957031 156.914062 C 78.976562 156.914062 78.996094 156.914062 79.011719 156.914062 C 86.6875 156.898438 93.90625 153.882812 99.347656 148.414062 C 104.792969 142.945312 107.773438 135.710938 107.753906 128.035156 C 107.742188 124.027344 106.902344 120.117188 105.324219 116.523438 L 133.519531 116.523438 L 133.519531 151.476562 C 133.519531 153.238281 134.503906 154.851562 136.070312 155.660156 C 137.636719 156.464844 139.523438 156.328125 140.957031 155.300781 C 144.257812 152.941406 148.152344 151.695312 152.222656 151.695312 C 152.257812 151.695312 152.289062 151.695312 152.324219 151.695312 C 157.5 151.71875 162.351562 153.742188 165.984375 157.394531 C 169.613281 161.042969 171.613281 165.902344 171.613281 171.085938 C 171.613281 181.777344 162.914062 190.472656 152.222656 190.472656 C 148.152344 190.472656 144.253906 189.226562 140.957031 186.867188 C 139.523438 185.839844 137.636719 185.703125 136.070312 186.507812 C 134.503906 187.316406 133.519531 188.929688 133.519531 190.691406 L 133.519531 225.644531 L 24.398438 225.644531 Z M 24.398438 332.792969 L 24.398438 317.207031 C 27.050781 317.996094 29.820312 318.402344 32.628906 318.402344 C 40.320312 318.402344 47.550781 315.40625 52.988281 309.96875 C 58.429688 304.527344 61.425781 297.296875 61.425781 289.605469 C 61.425781 281.957031 58.476562 274.761719 53.121094 269.34375 C 47.765625 263.925781 40.605469 260.898438 32.957031 260.8125 C 30.039062 260.78125 27.15625 261.183594 24.402344 262.003906 L 24.402344 235.046875 L 133.519531 235.046875 L 133.519531 261.523438 C 131.519531 261.070312 129.472656 260.828125 127.417969 260.808594 C 127.324219 260.808594 127.238281 260.808594 127.144531 260.808594 C 119.535156 260.808594 112.359375 263.765625 106.914062 269.152344 C 101.402344 274.605469 98.363281 281.851562 98.351562 289.5625 C 98.339844 297.261719 101.328125 304.503906 106.769531 309.949219 C 112.210938 315.398438 119.445312 318.398438 127.148438 318.398438 C 129.292969 318.398438 131.433594 318.15625 133.519531 317.683594 L 133.519531 344.164062 L 35.773438 344.164062 C 29.503906 344.164062 24.398438 339.0625 24.398438 332.792969 Z M 252.039062 262.574219 C 248.886719 261.410156 245.527344 260.808594 242.070312 260.808594 C 242.023438 260.808594 241.976562 260.808594 241.925781 260.808594 C 234.242188 260.847656 227.039062 263.855469 221.640625 269.277344 C 216.246094 274.703125 213.273438 281.921875 213.273438 289.605469 C 213.273438 297.296875 216.269531 304.527344 221.707031 309.964844 C 227.144531 315.40625 234.378906 318.402344 242.070312 318.402344 C 245.527344 318.402344 248.886719 317.800781 252.042969 316.632812 L 252.042969 332.789062 C 252.042969 339.0625 246.9375 344.164062 240.667969 344.164062 L 142.925781 344.164062 L 142.925781 311.003906 C 142.925781 309.363281 142.066406 307.839844 140.664062 306.988281 C 139.261719 306.132812 137.515625 306.074219 136.054688 306.832031 C 133.289062 308.265625 130.289062 308.996094 127.144531 308.996094 C 121.960938 308.996094 117.085938 306.972656 113.425781 303.304688 C 109.761719 299.636719 107.746094 294.761719 107.753906 289.574219 C 107.761719 284.390625 109.8125 279.515625 113.527344 275.839844 C 117.242188 272.167969 122.144531 270.167969 127.328125 270.214844 C 130.40625 270.246094 133.34375 270.972656 136.054688 272.378906 C 137.515625 273.136719 139.261719 273.078125 140.664062 272.222656 C 142.066406 271.371094 142.925781 269.847656 142.925781 268.203125 L 142.925781 235.046875 L 252.042969 235.046875 L 252.042969 262.574219 Z M 252.039062 262.574219 " fill-opacity="1" fill-rule="nonzero"/></g></svg>