<svg xmlns="http://www.w3.org/2000/svg" xmlns:xlink="http://www.w3.org/1999/xlink" width="500" zoomAndPan="magnify" viewBox="0 0 375 374.999991" height="500" preserveAspectRatio="xMidYMid meet" version="1.0"><metadata><ContainsAiGeneratedContent>Yes</ContainsAiGeneratedContent></metadata><defs><clipPath id="34c9c29b80"><path d="M 10.792969 14 L 364 14 L 364 361.664062 L 10.792969 361.664062 Z M 10.792969 14 " clip-rule="nonzero"/></clipPath></defs><g clip-path="url(#34c9c29b80)"><path fill="#1b575f" d="M 362.953125 77.832031 C 361.898438 80.578125 358.640625 81.855469 356.003906 80.683594 L 348.660156 77.691406 C 345.882812 76.550781 344.492188 73.410156 345.683594 70.628906 C 346.875 67.914062 350.050781 66.625 352.828125 67.773438 L 359.972656 70.835938 C 362.753906 71.976562 364.144531 75.125 362.953125 77.832031 Z M 363.945312 47.722656 C 363.945312 50.714844 361.5625 53.070312 358.585938 53.070312 L 350.644531 53.070312 C 347.667969 53.070312 345.285156 50.714844 345.285156 47.722656 C 345.285156 44.789062 347.667969 42.363281 350.644531 42.363281 L 358.585938 42.363281 C 361.5625 42.363281 363.945312 44.789062 363.945312 47.722656 Z M 345.679688 24.816406 C 344.492188 22.101562 345.878906 18.960938 348.660156 17.820312 L 356.003906 14.75 C 358.78125 13.679688 361.761719 14.964844 362.949219 17.671875 C 364.140625 20.386719 362.753906 23.527344 359.972656 24.667969 L 352.828125 27.738281 C 349.9375 28.878906 346.726562 27.53125 345.679688 24.816406 Z M 177.945312 134.917969 C 173.378906 136.132812 172.582031 136.34375 171.394531 138.066406 C 170.203125 139.917969 169.605469 142.269531 169.40625 145.476562 L 168.019531 194.003906 C 167.804688 199.066406 168.683594 202.367188 169.40625 206.78125 L 151.742188 206.78125 C 143.007812 206.78125 136.058594 213.84375 136.058594 222.484375 L 136.058594 243.953125 L 96.554688 243.953125 C 103.503906 215.339844 108.070312 194.933594 108.070312 187.582031 L 108.070312 125.789062 C 108.070312 121.125 102.527344 118.835938 99.136719 121.71875 L 68.765625 147.410156 C 62.613281 152.6875 61.816406 160.324219 62.015625 165.535156 L 62.8125 215.628906 C 62.855469 221.308594 57.496094 221.269531 55.664062 220.125 C 55.070312 219.703125 55.070312 219.335938 54.871094 219.195312 L 45.539062 157.183594 C 44.546875 151.121094 44.152344 147.199219 46.535156 144.195312 L 79.089844 101.238281 C 82.265625 97.167969 85.242188 94.175781 89.609375 93.105469 L 123.355469 84.683594 C 132.277344 90.058594 143.65625 91.523438 153.527344 87.964844 L 169.609375 101.667969 C 175.429688 106.660156 182.414062 108.917969 189.855469 108.015625 L 213.476562 105.589844 C 221.617188 104.808594 228.367188 100.101562 231.742188 92.671875 L 241.070312 73.339844 L 252.78125 74.765625 L 241.667969 110.941406 C 240.671875 114.160156 238.292969 119.71875 232.136719 121.292969 C 225.035156 123.339844 196.484375 130.171875 186.679688 132.707031 C 183.105469 133.636719 180.128906 134.347656 177.945312 134.917969 Z M 198.589844 350.644531 L 198.589844 217.480469 L 151.742188 217.480469 C 148.960938 217.480469 146.777344 219.769531 146.777344 222.484375 L 146.777344 350.644531 Z M 209.308594 184.511719 L 209.308594 350.644531 L 261.316406 350.644531 L 261.316406 179.515625 L 214.46875 179.515625 C 211.691406 179.515625 209.308594 181.804688 209.308594 184.511719 Z M 272.035156 148.121094 C 272.035156 145.339844 274.21875 143.058594 277 143.058594 L 318.882812 143.058594 C 321.664062 143.058594 324.046875 145.339844 324.046875 148.121094 L 324.046875 345.582031 C 324.046875 348.355469 321.664062 350.644531 318.882812 350.644531 L 272.035156 350.644531 Z M 84.050781 350.644531 L 84.050781 259.726562 C 84.050781 256.941406 86.234375 254.664062 89.011719 254.664062 L 136.058594 254.664062 L 136.058594 350.644531 Z M 21.519531 345.582031 L 21.519531 296.910156 C 21.519531 294.125 23.703125 291.914062 26.484375 291.914062 L 73.332031 291.914062 L 73.332031 350.644531 L 26.484375 350.644531 C 23.703125 350.644531 21.519531 348.355469 21.519531 345.582031 Z M 142.015625 29.304688 C 128.117188 29.304688 117.003906 40.507812 117.003906 54.28125 C 117.003906 67.980469 128.117188 79.1875 142.015625 79.1875 C 155.710938 79.1875 167.027344 67.984375 167.027344 54.28125 C 167.027344 40.507812 155.710938 29.304688 142.015625 29.304688 Z M 175.957031 65.347656 C 173.578125 72.191406 169.40625 78.1875 163.652344 82.542969 L 176.554688 93.53125 C 180.128906 96.59375 184.097656 97.878906 188.859375 97.386719 L 212.484375 94.960938 C 216.851562 94.53125 220.226562 92.105469 222.210938 88.105469 L 229.953125 71.976562 Z M 301.8125 27.949219 C 296.242188 40.117188 296.257812 57.851562 301.8125 69.984375 L 177.746094 54.785156 C 177.746094 50.492188 177.074219 47.21875 175.957031 43.363281 Z M 326.03125 48.929688 C 326.03125 63.339844 320.308594 72.691406 316.5 71.835938 C 313.523438 70.765625 308.363281 62.769531 308.363281 48.929688 C 308.363281 35.160156 313.523438 27.164062 316.5 26.09375 C 320.328125 25.253906 326.03125 34.523438 326.03125 48.929688 Z M 180.128906 145.84375 C 180.128906 145.695312 180.128906 145.554688 180.128906 145.40625 C 186.28125 143.773438 202.359375 139.847656 213.675781 136.988281 C 223.996094 134.421875 232.929688 132.210938 234.914062 131.636719 C 243.054688 129.496094 249.207031 123.074219 251.988281 114.082031 L 263.5 76.117188 L 314.714844 82.324219 C 327.617188 84.867188 336.75 68.785156 336.75 48.929688 C 336.75 29.730469 328.410156 15.246094 317.296875 15.246094 C 316.300781 15.246094 315.507812 15.394531 314.714844 15.53125 L 170.796875 33.226562 C 164.246094 24.378906 153.726562 18.601562 142.015625 18.601562 C 122.363281 18.601562 106.28125 34.585938 106.28125 54.28125 C 106.28125 62.484375 109.0625 70.050781 113.824219 76.042969 L 87.027344 82.683594 C 79.285156 84.683594 74.324219 89.894531 70.75 94.742188 L 37.996094 137.707031 C 32.835938 144.484375 34.027344 152.46875 35.019531 158.820312 L 44.347656 220.769531 C 45.753906 229.632812 55.949219 233.351562 63.605469 230.46875 C 69.757812 228.261719 73.527344 222.484375 73.527344 215.410156 L 72.734375 165.390625 C 72.535156 160.398438 73.527344 157.394531 75.710938 155.542969 L 97.351562 137.34375 L 97.351562 187.582031 C 97.351562 195.292969 89.808594 226.480469 85.441406 244.390625 C 78.492188 246.035156 73.332031 252.304688 73.332031 259.730469 L 73.332031 281.207031 L 26.484375 281.207031 C 17.75 281.207031 10.800781 288.277344 10.800781 296.910156 L 10.800781 345.582031 C 10.800781 354.28125 17.746094 361.347656 26.484375 361.347656 L 318.882812 361.347656 C 327.617188 361.347656 334.566406 354.28125 334.566406 345.582031 L 334.566406 148.121094 C 334.566406 139.414062 327.617188 132.351562 318.882812 132.351562 L 276.996094 132.351562 C 268.265625 132.351562 261.316406 139.414062 261.316406 148.121094 L 261.316406 168.816406 L 214.46875 168.816406 C 205.734375 168.816406 198.589844 175.878906 198.589844 184.511719 L 198.589844 206.78125 L 180.324219 206.78125 C 179.28125 201.953125 178.460938 199.378906 178.738281 194.359375 Z M 180.128906 145.84375 " fill-opacity="1" fill-rule="evenodd"/></g></svg>