<svg xmlns="http://www.w3.org/2000/svg" xmlns:xlink="http://www.w3.org/1999/xlink" width="500" zoomAndPan="magnify" viewBox="0 0 375 374.999991" height="500" preserveAspectRatio="xMidYMid meet" version="1.0"><metadata><ContainsAiGeneratedContent>Yes</ContainsAiGeneratedContent></metadata><defs><clipPath id="ddec383634"><path d="M 6.171875 6.746094 L 367.671875 6.746094 L 367.671875 368 L 6.171875 368 Z M 6.171875 6.746094 " clip-rule="nonzero"/></clipPath><clipPath id="4259c73182"><path d="M 6.171875 90.890625 L 367.671875 90.890625 L 367.671875 211.640625 L 6.171875 211.640625 Z M 6.171875 90.890625 " clip-rule="nonzero"/></clipPath></defs><g clip-path="url(#ddec383634)"><path fill="#1b575f" d="M 283.109375 30.828125 C 283.109375 17.582031 293.945312 6.746094 307.1875 6.746094 C 320.433594 6.746094 331.269531 17.582031 331.269531 30.828125 C 331.269531 39.738281 326.332031 47.441406 319.230469 51.535156 L 319.230469 91.03125 L 320.796875 91.03125 L 240.484375 211.4375 L 161.015625 211.4375 L 241.328125 91.03125 L 295.027344 91.03125 L 295.027344 51.535156 C 287.925781 47.324219 282.988281 39.738281 282.988281 30.828125 Z M 355.351562 91.03125 L 349.8125 91.03125 L 269.503906 211.4375 L 295.148438 211.4375 L 295.148438 259.71875 L 78.417969 259.71875 L 78.417969 211.4375 L 132.117188 211.4375 L 212.429688 91.03125 L 132.960938 91.03125 L 52.769531 211.4375 L 54.335938 211.4375 L 54.335938 343.882812 L 42.296875 343.882812 C 35.671875 343.882812 30.253906 349.300781 30.253906 355.921875 C 30.253906 362.546875 35.671875 367.964844 42.296875 367.964844 L 90.457031 367.964844 C 97.082031 367.964844 102.5 362.546875 102.5 355.921875 C 102.5 349.300781 97.082031 343.882812 90.457031 343.882812 L 78.417969 343.882812 L 78.417969 283.800781 L 295.148438 283.800781 L 295.148438 343.882812 L 283.109375 343.882812 C 276.484375 343.882812 271.066406 349.300781 271.066406 355.921875 C 271.066406 362.546875 276.484375 367.964844 283.109375 367.964844 L 331.632812 367.964844 C 338.253906 367.964844 343.671875 362.546875 343.671875 355.921875 C 343.671875 349.300781 338.253906 343.882812 331.632812 343.882812 L 319.230469 343.882812 L 319.230469 211.4375 L 355.351562 211.4375 C 361.972656 211.4375 367.390625 206.019531 367.390625 199.394531 L 367.390625 103.070312 C 367.390625 96.449219 361.972656 91.03125 355.351562 91.03125 Z M 104.0625 91.03125 L 78.417969 91.03125 L 78.417969 51.535156 C 85.523438 47.324219 90.457031 39.738281 90.457031 30.828125 C 90.457031 17.582031 79.621094 6.746094 66.375 6.746094 C 53.132812 6.746094 42.296875 17.582031 42.296875 30.828125 C 42.296875 39.738281 47.230469 47.441406 54.335938 51.535156 L 54.335938 91.03125 L 18.214844 91.03125 C 11.59375 91.03125 6.171875 96.449219 6.171875 103.070312 L 6.171875 199.394531 C 6.171875 206.019531 11.59375 211.4375 18.214844 211.4375 L 23.753906 211.4375 Z M 104.0625 91.03125 " fill-opacity="1" fill-rule="nonzero"/></g><g clip-path="url(#4259c73182)"><path fill="#95ea62" d="M 283.109375 30.828125 C 283.109375 17.582031 293.945312 6.746094 307.1875 6.746094 C 320.433594 6.746094 331.269531 17.582031 331.269531 30.828125 C 331.269531 39.738281 326.332031 47.441406 319.230469 51.535156 L 319.230469 91.03125 L 320.796875 91.03125 L 240.484375 211.4375 L 161.015625 211.4375 L 241.328125 91.03125 L 295.027344 91.03125 L 295.027344 51.535156 C 287.925781 47.324219 282.988281 39.738281 282.988281 30.828125 Z M 355.351562 91.03125 L 349.8125 91.03125 L 269.503906 211.4375 L 295.148438 211.4375 L 295.148438 259.71875 L 78.417969 259.71875 L 78.417969 211.4375 L 132.117188 211.4375 L 212.429688 91.03125 L 132.960938 91.03125 L 52.769531 211.4375 L 54.335938 211.4375 L 54.335938 343.882812 L 42.296875 343.882812 C 35.671875 343.882812 30.253906 349.300781 30.253906 355.921875 C 30.253906 362.546875 35.671875 367.964844 42.296875 367.964844 L 90.457031 367.964844 C 97.082031 367.964844 102.5 362.546875 102.5 355.921875 C 102.5 349.300781 97.082031 343.882812 90.457031 343.882812 L 78.417969 343.882812 L 78.417969 283.800781 L 295.148438 283.800781 L 295.148438 343.882812 L 283.109375 343.882812 C 276.484375 343.882812 271.066406 349.300781 271.066406 355.921875 C 271.066406 362.546875 276.484375 367.964844 283.109375 367.964844 L 331.632812 367.964844 C 338.253906 367.964844 343.671875 362.546875 343.671875 355.921875 C 343.671875 349.300781 338.253906 343.882812 331.632812 343.882812 L 319.230469 343.882812 L 319.230469 211.4375 L 355.351562 211.4375 C 361.972656 211.4375 367.390625 206.019531 367.390625 199.394531 L 367.390625 103.070312 C 367.390625 96.449219 361.972656 91.03125 355.351562 91.03125 Z M 104.0625 91.03125 L 78.417969 91.03125 L 78.417969 51.535156 C 85.523438 47.324219 90.457031 39.738281 90.457031 30.828125 C 90.457031 17.582031 79.621094 6.746094 66.375 6.746094 C 53.132812 6.746094 42.296875 17.582031 42.296875 30.828125 C 42.296875 39.738281 47.230469 47.441406 54.335938 51.535156 L 54.335938 91.03125 L 18.214844 91.03125 C 11.59375 91.03125 6.171875 96.449219 6.171875 103.070312 L 6.171875 199.394531 C 6.171875 206.019531 11.59375 211.4375 18.214844 211.4375 L 23.753906 211.4375 Z M 104.0625 91.03125 " fill-opacity="1" fill-rule="nonzero"/></g></svg>