<svg xmlns="http://www.w3.org/2000/svg" xmlns:xlink="http://www.w3.org/1999/xlink" width="500" zoomAndPan="magnify" viewBox="0 0 375 374.999991" height="500" preserveAspectRatio="xMidYMid meet" version="1.0"><metadata><ContainsAiGeneratedContent>Yes</ContainsAiGeneratedContent></metadata><defs><clipPath id="07b196638b"><path d="M 7.242188 68.679688 L 367.992188 68.679688 L 367.992188 305 L 7.242188 305 Z M 7.242188 68.679688 " clip-rule="nonzero"/></clipPath><clipPath id="318a17e8fb"><path d="M 0.242188 2 L 360.921875 2 L 360.921875 236.800781 L 0.242188 236.800781 Z M 0.242188 2 " clip-rule="nonzero"/></clipPath><clipPath id="2f8918042d"><rect x="0" width="361" y="0" height="237"/></clipPath><clipPath id="c5385aa541"><path d="M 329.328125 68.671875 L 369.257812 68.671875 L 369.257812 162.582031 L 329.328125 162.582031 Z M 329.328125 68.671875 " clip-rule="nonzero"/></clipPath><clipPath id="ec20457535"><path d="M 0.328125 0.671875 L 40.257812 0.671875 L 40.257812 94.582031 L 0.328125 94.582031 Z M 0.328125 0.671875 " clip-rule="nonzero"/></clipPath><clipPath id="eb1de9f06e"><rect x="0" width="41" y="0" height="95"/></clipPath><clipPath id="282efa1bef"><path d="M 274.214844 68.683594 L 364.332031 68.683594 L 364.332031 109.113281 L 274.214844 109.113281 Z M 274.214844 68.683594 " clip-rule="nonzero"/></clipPath><clipPath id="6b290cb53d"><path d="M 0.214844 0.683594 L 90.332031 0.683594 L 90.332031 41.113281 L 0.214844 41.113281 Z M 0.214844 0.683594 " clip-rule="nonzero"/></clipPath><clipPath id="c7b49687ae"><rect x="0" width="91" y="0" height="42"/></clipPath></defs><g clip-path="url(#07b196638b)"><g transform="matrix(1, 0, 0, 1, 7, 68)"><g clip-path="url(#2f8918042d)"><g clip-path="url(#318a17e8fb)"><path fill="#1b575f" d="M 324.6875 92.445312 L 324.6875 63.605469 L 171.472656 216.820312 L 108.390625 153.734375 L 25.496094 236.664062 L 0.242188 211.410156 L 108.390625 103.261719 L 171.472656 166.347656 L 299.464844 38.386719 L 270.628906 38.386719 L 270.628906 2.316406 L 360.757812 2.316406 L 360.757812 92.445312 L 324.6875 92.445312 " fill-opacity="1" fill-rule="nonzero"/></g></g></g></g><g clip-path="url(#c5385aa541)"><g transform="matrix(1, 0, 0, 1, 329, 68)"><g clip-path="url(#eb1de9f06e)"><g clip-path="url(#ec20457535)"><path fill="#93e85f" d="M 0.328125 94.582031 L 0.328125 0.6875 L 40.257812 0.6875 L 40.257812 94.582031 Z M 0.328125 94.582031 " fill-opacity="1" fill-rule="nonzero"/></g></g></g></g><g clip-path="url(#282efa1bef)"><g transform="matrix(1, 0, 0, 1, 274, 68)"><g clip-path="url(#c7b49687ae)"><g clip-path="url(#6b290cb53d)"><path fill="#93e85f" d="M 0.214844 0.683594 L 90.390625 0.683594 L 90.390625 41.113281 L 0.214844 41.113281 Z M 0.214844 0.683594 " fill-opacity="1" fill-rule="nonzero"/></g></g></g></g></svg>