<svg xmlns="http://www.w3.org/2000/svg" xmlns:xlink="http://www.w3.org/1999/xlink" width="500" zoomAndPan="magnify" viewBox="0 0 375 374.999991" height="500" preserveAspectRatio="xMidYMid meet" version="1.0"><metadata><ContainsAiGeneratedContent>Yes</ContainsAiGeneratedContent></metadata><defs><clipPath id="f4bb24ea10"><path d="M 116 80 L 258.46875 80 L 258.46875 295 L 116 295 Z M 116 80 " clip-rule="nonzero"/></clipPath><clipPath id="7b7b26f71e"><path d="M 113.71875 79.457031 L 258.46875 79.457031 L 258.46875 295.457031 L 113.71875 295.457031 Z M 113.71875 79.457031 " clip-rule="nonzero"/></clipPath></defs><path fill="#1b575f" d="M 258.074219 170.3125 C 256.605469 167.703125 253.941406 166.164062 250.949219 166.164062 L 181.160156 166.164062 L 200.714844 88.847656 C 200.714844 84.992188 198.164062 81.722656 194.621094 80.914062 C 191.019531 79.921875 187.21875 81.503906 185.382812 84.679688 L 116.714844 196.605469 C 115.359375 199.15625 115.429688 202.257812 116.863281 204.644531 C 118.332031 207.253906 120.996094 208.792969 123.988281 208.792969 L 193.664062 208.792969 L 174.109375 286.109375 C 174.109375 289.890625 176.773438 293.234375 180.371094 294.058594 C 180.921875 294.1875 181.601562 294.371094 182.375 294.371094 C 185.402344 294.371094 188.175781 292.773438 189.570312 290.296875 L 258.164062 178.5 L 258.238281 178.371094 C 259.597656 175.820312 259.523438 172.714844 258.089844 170.328125 Z M 258.074219 170.3125 " fill-opacity="1" fill-rule="nonzero"/><path fill="#1b575f" d="M 363.992188 141.6875 L 348.828125 141.6875 L 348.828125 187.496094 C 348.828125 276.472656 276.453125 348.847656 187.476562 348.847656 C 141.90625 348.847656 100.597656 329.789062 71.386719 299.21875 L 87.503906 274.5625 C 111.871094 302.507812 147.636719 320.132812 187.476562 320.132812 C 260.570312 320.132812 320.113281 260.589844 320.113281 187.496094 L 320.113281 141.6875 L 304.945312 141.6875 C 298.136719 141.6875 294.023438 134.105469 297.710938 128.375 L 327.402344 83.046875 C 330.796875 77.902344 338.269531 77.976562 341.667969 83.15625 L 371.171875 128.359375 C 374.9375 134.085938 370.804688 141.667969 364.011719 141.667969 Z M 363.992188 141.6875 " fill-opacity="1" fill-rule="nonzero"/><path fill="#1b575f" d="M 303.605469 75.699219 L 287.359375 100.488281 C 263.101562 72.597656 227.28125 54.863281 187.441406 54.863281 C 114.347656 54.863281 54.804688 114.40625 54.804688 187.496094 L 54.804688 233.304688 L 69.972656 233.304688 C 75.277344 233.304688 78.929688 237.894531 78.507812 242.6875 C 78.453125 244.011719 78.03125 245.367188 77.1875 246.636719 L 47.625 291.839844 C 46.855469 292.976562 45.902344 293.875 44.816406 294.464844 C 41.054688 296.796875 35.859375 295.894531 33.230469 291.839844 L 3.726562 246.636719 C -0.0351562 240.90625 4.09375 233.324219 10.886719 233.324219 L 26.054688 233.324219 L 26.054688 187.515625 C 26.054688 98.542969 98.429688 26.164062 187.402344 26.164062 C 233.03125 26.164062 274.175781 45.148438 303.550781 75.738281 Z M 303.605469 75.699219 " fill-opacity="1" fill-rule="nonzero"/><g clip-path="url(#f4bb24ea10)"><path fill="#95ea62" d="M 258.394531 170.3125 C 256.925781 167.703125 254.265625 166.160156 251.273438 166.160156 L 181.484375 166.160156 L 201.039062 88.847656 C 201.039062 84.992188 198.484375 81.722656 194.941406 80.914062 C 191.34375 79.921875 187.542969 81.503906 185.707031 84.679688 L 117.039062 196.601562 C 115.679688 199.15625 115.753906 202.257812 117.1875 204.644531 C 118.65625 207.253906 121.316406 208.792969 124.308594 208.792969 L 193.988281 208.792969 L 174.433594 286.109375 C 174.433594 289.890625 177.097656 293.234375 180.695312 294.058594 C 181.246094 294.1875 181.925781 294.371094 182.695312 294.371094 C 185.726562 294.371094 188.496094 292.773438 189.894531 290.296875 L 258.488281 178.5 L 258.5625 178.371094 C 259.917969 175.820312 259.847656 172.714844 258.414062 170.328125 Z M 258.394531 170.3125 " fill-opacity="1" fill-rule="nonzero"/></g><g clip-path="url(#7b7b26f71e)"><path fill="#95ea62" d="M 364.316406 141.6875 L 349.152344 141.6875 L 349.152344 187.496094 C 349.152344 276.472656 276.773438 348.847656 187.800781 348.847656 C 142.230469 348.847656 100.917969 329.789062 71.707031 299.21875 L 87.828125 274.5625 C 112.191406 302.507812 147.957031 320.132812 187.800781 320.132812 C 260.894531 320.132812 320.433594 260.589844 320.433594 187.496094 L 320.433594 141.6875 L 305.269531 141.6875 C 298.457031 141.6875 294.34375 134.105469 298.035156 128.375 L 327.722656 83.042969 C 331.121094 77.902344 338.59375 77.976562 341.992188 83.15625 L 371.496094 128.359375 C 375.257812 134.085938 371.128906 141.667969 364.335938 141.667969 Z M 364.316406 141.6875 " fill-opacity="1" fill-rule="nonzero"/><path fill="#95ea62" d="M 303.929688 75.699219 L 287.679688 100.488281 C 263.425781 72.597656 227.605469 54.863281 187.761719 54.863281 C 114.671875 54.863281 55.128906 114.402344 55.128906 187.496094 L 55.128906 233.304688 L 70.292969 233.304688 C 75.601562 233.304688 79.253906 237.894531 78.832031 242.6875 C 78.777344 244.011719 78.355469 245.367188 77.511719 246.636719 L 47.949219 291.839844 C 47.179688 292.976562 46.222656 293.875 45.140625 294.464844 C 41.375 296.796875 36.179688 295.894531 33.554688 291.839844 L 4.050781 246.636719 C 0.285156 240.90625 4.417969 233.324219 11.210938 233.324219 L 26.375 233.324219 L 26.375 187.515625 C 26.375 98.539062 98.753906 26.164062 187.726562 26.164062 C 233.351562 26.164062 274.496094 45.148438 303.875 75.738281 Z M 303.929688 75.699219 " fill-opacity="1" fill-rule="nonzero"/></g></svg>