<svg xmlns="http://www.w3.org/2000/svg" xmlns:xlink="http://www.w3.org/1999/xlink" width="500" zoomAndPan="magnify" viewBox="0 0 375 374.999991" height="500" preserveAspectRatio="xMidYMid meet" version="1.0"><metadata><ContainsAiGeneratedContent>Yes</ContainsAiGeneratedContent></metadata><defs><clipPath id="9ad568cb6d"><path d="M 8 273 L 77 273 L 77 344.738281 L 8 344.738281 Z M 8 273 " clip-rule="nonzero"/></clipPath><clipPath id="cf64d40ec4"><path d="M 59 30.488281 L 367.542969 30.488281 L 367.542969 287 L 59 287 Z M 59 30.488281 " clip-rule="nonzero"/></clipPath><clipPath id="49ac1d53a6"><path d="M 170 93 L 285.351562 93 L 285.351562 246.746094 L 170 246.746094 Z M 170 93 " clip-rule="nonzero"/></clipPath><clipPath id="361d80d116"><path d="M 168.351562 239 L 285.351562 239 L 285.351562 246.746094 L 168.351562 246.746094 Z M 168.351562 239 " clip-rule="nonzero"/></clipPath><clipPath id="aa4cfad3fa"><path d="M 168.351562 81.746094 L 285.351562 81.746094 L 285.351562 246.746094 L 168.351562 246.746094 Z M 168.351562 81.746094 " clip-rule="nonzero"/></clipPath></defs><path fill="#1b575f" d="M 254.054688 137.988281 C 251.660156 136.746094 250.894531 133.683594 252.5 131.507812 L 272.324219 104.578125 C 275.601562 100.128906 272.421875 93.839844 266.894531 93.839844 L 188.714844 93.839844 C 183.191406 93.839844 180.007812 100.105469 183.285156 104.578125 L 203.113281 131.507812 C 204.714844 133.683594 203.972656 136.746094 201.558594 137.988281 C 181.96875 148.105469 168.960938 169.175781 170.65625 193.113281 C 172.691406 221.863281 196.296875 244.84375 225.089844 246.183594 C 257.976562 247.691406 285.09375 221.503906 285.09375 188.953125 C 285.121094 166.757812 272.492188 147.507812 254.054688 137.988281 Z M 221.382812 180.152344 C 222.675781 181.132812 225.59375 182.375 230.066406 183.882812 C 234.105469 185.199219 237.265625 186.515625 239.535156 187.804688 C 241.808594 189.097656 243.648438 190.890625 245.058594 193.234375 C 246.496094 195.554688 247.1875 198.28125 247.1875 201.390625 C 247.1875 205.457031 245.898438 209.089844 243.386719 212.34375 C 242.261719 213.777344 240.851562 214.996094 239.152344 215.929688 C 237.597656 216.792969 235.78125 217.460938 233.722656 217.890625 C 233.558594 217.9375 233.367188 217.964844 233.175781 218.011719 L 233.175781 225.542969 L 222.414062 225.542969 L 222.414062 218.058594 C 222.171875 218.011719 221.933594 217.964844 221.695312 217.914062 C 214.855469 216.457031 210.335938 212.199219 208.160156 205.144531 L 218.273438 201.222656 C 218.441406 201.652344 218.609375 202.082031 218.777344 202.488281 C 220.402344 206.21875 224.0625 208.683594 228.03125 208.707031 C 228.03125 208.707031 228.628906 208.683594 229.347656 208.636719 C 230.042969 208.5625 230.855469 208.46875 231.332031 208.347656 C 232.527344 208.039062 233.507812 207.511719 234.226562 206.769531 C 235.519531 205.480469 236.164062 203.925781 236.164062 202.082031 C 236.164062 200.195312 235.519531 198.734375 234.226562 197.777344 C 232.933594 196.796875 230.015625 195.554688 225.546875 194.046875 C 221.503906 192.730469 218.347656 191.417969 216.074219 190.125 C 213.800781 188.832031 211.960938 187.015625 210.527344 184.695312 C 209.113281 182.375 208.398438 179.648438 208.398438 176.539062 C 208.398438 172.476562 209.664062 168.839844 212.199219 165.585938 C 213.324219 164.152344 214.734375 162.933594 216.433594 162 C 217.988281 161.140625 219.804688 160.46875 221.839844 160.039062 C 222.03125 159.992188 222.222656 159.96875 222.386719 159.917969 L 222.386719 152.386719 L 233.148438 152.386719 L 233.148438 159.894531 C 233.390625 159.941406 233.628906 159.992188 233.867188 160.039062 C 240.707031 161.496094 245.226562 165.753906 247.402344 172.808594 L 237.289062 176.730469 C 237.097656 176.183594 236.882812 175.679688 236.667969 175.203125 C 235.015625 171.566406 231.453125 169.269531 227.53125 169.269531 C 227.53125 169.269531 226.933594 169.292969 226.238281 169.34375 C 225.519531 169.414062 224.707031 169.507812 224.230469 169.628906 C 223.035156 169.941406 222.054688 170.464844 221.335938 171.207031 C 220.042969 172.5 219.375 174.054688 219.375 175.894531 C 219.421875 177.738281 220.09375 179.195312 221.382812 180.152344 Z M 221.382812 180.152344 " fill-opacity="1" fill-rule="nonzero"/><path fill="#1b575f" d="M 279.835938 275.410156 C 275.148438 273.089844 270.195312 273.207031 265.222656 273.949219 C 256.15625 275.289062 247.691406 278.589844 240.0625 283.445312 C 230.902344 289.257812 221.097656 289.996094 211.003906 288.417969 C 202.824219 287.152344 194.765625 284.902344 186.730469 282.773438 C 182.617188 281.675781 178.671875 279.976562 174.652344 278.519531 C 174.390625 278.421875 174.222656 278.136719 174.269531 277.847656 C 174.316406 277.5625 174.605469 277.347656 174.890625 277.371094 C 176.828125 277.511719 178.765625 277.539062 180.679688 277.871094 C 188.09375 279.140625 195.433594 280.980469 202.898438 281.722656 C 207.367188 282.175781 212.246094 281.769531 216.480469 280.359375 C 223.65625 277.96875 224.707031 269.261719 218.441406 265.125 C 215.285156 263.042969 211.339844 261.730469 207.558594 261.058594 C 193.6875 258.621094 180.320312 255.007812 167.8125 248.214844 C 154.515625 240.992188 140.261719 236.738281 125.074219 240.347656 C 116.035156 242.5 107.136719 245.730469 98.550781 249.339844 C 88.027344 253.765625 78.773438 259.3125 68.320312 264.335938 L 92.429688 307.527344 C 106.421875 301.09375 120.722656 300.304688 135.285156 304.085938 C 144.902344 306.59375 154.515625 309.15625 164.082031 311.929688 C 191.058594 319.773438 217.605469 318.984375 243.386719 307.433594 C 255.726562 301.90625 267.636719 295.449219 279.785156 289.496094 C 282.632812 288.085938 285.09375 286.457031 285.121094 282.917969 C 285.144531 279.210938 282.941406 276.941406 279.835938 275.410156 Z M 279.835938 275.410156 " fill-opacity="1" fill-rule="nonzero"/><g clip-path="url(#9ad568cb6d)"><path fill="#1b575f" d="M 53.113281 275.839844 C 51.867188 273.664062 49.070312 272.921875 46.894531 274.164062 L 12.070312 294.207031 C 8.773438 296.097656 7.625 300.304688 9.535156 303.605469 C 15.347656 313.652344 26.78125 333.453125 30.488281 339.597656 C 31.898438 341.917969 34.21875 343.710938 36.921875 344.121094 C 38.90625 344.40625 40.960938 344.046875 42.828125 342.996094 L 71.597656 326.445312 C 76 323.910156 77.53125 318.289062 74.996094 313.867188 Z M 59.378906 323.121094 C 57.847656 328.8125 51.964844 332.210938 46.273438 330.65625 C 40.578125 329.125 37.183594 323.242188 38.738281 317.550781 C 40.269531 311.855469 46.152344 308.460938 51.84375 310.015625 C 57.535156 311.570312 60.90625 317.429688 59.378906 323.121094 Z M 59.378906 323.121094 " fill-opacity="1" fill-rule="nonzero"/></g><g clip-path="url(#cf64d40ec4)"><path fill="#1b575f" d="M 227.816406 30.511719 C 155.328125 30.511719 95.585938 86.042969 88.890625 156.808594 L 63.035156 156.808594 C 60.144531 156.808594 58.445312 160.0625 60.09375 162.453125 L 94.988281 212.820312 L 96.328125 214.757812 C 97.738281 216.816406 100.800781 216.816406 102.210938 214.757812 L 113.332031 198.710938 L 138.445312 162.453125 C 140.09375 160.0625 138.394531 156.808594 135.5 156.808594 L 110.582031 156.808594 C 117.183594 97.976562 167.238281 52.058594 227.816406 52.058594 C 292.867188 52.058594 345.792969 104.984375 345.792969 170.035156 C 345.792969 208.804688 327.019531 243.265625 298.058594 264.789062 C 302.507812 269.765625 304.898438 276.054688 304.851562 283.039062 C 304.828125 284.066406 304.753906 285.238281 304.585938 286.507812 C 342.375 261.488281 367.320312 218.632812 367.320312 170.058594 C 367.34375 93.097656 304.753906 30.511719 227.816406 30.511719 Z M 227.816406 30.511719 " fill-opacity="1" fill-rule="nonzero"/></g><g clip-path="url(#49ac1d53a6)"><path fill="#95ea62" d="M 254.054688 137.988281 C 251.660156 136.746094 250.894531 133.683594 252.5 131.507812 L 272.324219 104.578125 C 275.601562 100.128906 272.421875 93.839844 266.894531 93.839844 L 188.714844 93.839844 C 183.191406 93.839844 180.007812 100.105469 183.285156 104.578125 L 203.113281 131.507812 C 204.714844 133.683594 203.972656 136.746094 201.558594 137.988281 C 181.96875 148.105469 168.960938 169.175781 170.65625 193.113281 C 172.691406 221.863281 196.296875 244.84375 225.089844 246.183594 C 257.976562 247.691406 285.09375 221.503906 285.09375 188.953125 C 285.121094 166.757812 272.492188 147.507812 254.054688 137.988281 Z M 221.382812 180.152344 C 222.675781 181.132812 225.59375 182.375 230.066406 183.882812 C 234.105469 185.199219 237.265625 186.515625 239.535156 187.804688 C 241.808594 189.097656 243.648438 190.890625 245.058594 193.234375 C 246.496094 195.554688 247.1875 198.28125 247.1875 201.390625 C 247.1875 205.457031 245.898438 209.089844 243.386719 212.34375 C 242.261719 213.777344 240.851562 214.996094 239.152344 215.929688 C 237.597656 216.792969 235.78125 217.460938 233.722656 217.890625 C 233.558594 217.9375 233.367188 217.964844 233.175781 218.011719 L 233.175781 225.542969 L 222.414062 225.542969 L 222.414062 218.058594 C 222.171875 218.011719 221.933594 217.964844 221.695312 217.914062 C 214.855469 216.457031 210.335938 212.199219 208.160156 205.144531 L 218.273438 201.222656 C 218.441406 201.652344 218.609375 202.082031 218.777344 202.488281 C 220.402344 206.21875 224.0625 208.683594 228.03125 208.707031 C 228.03125 208.707031 228.628906 208.683594 229.347656 208.636719 C 230.042969 208.5625 230.855469 208.46875 231.332031 208.347656 C 232.527344 208.039062 233.507812 207.511719 234.226562 206.769531 C 235.519531 205.480469 236.164062 203.925781 236.164062 202.082031 C 236.164062 200.195312 235.519531 198.734375 234.226562 197.777344 C 232.933594 196.796875 230.015625 195.554688 225.546875 194.046875 C 221.503906 192.730469 218.347656 191.417969 216.074219 190.125 C 213.800781 188.832031 211.960938 187.015625 210.527344 184.695312 C 209.113281 182.375 208.398438 179.648438 208.398438 176.539062 C 208.398438 172.476562 209.664062 168.839844 212.199219 165.585938 C 213.324219 164.152344 214.734375 162.933594 216.433594 162 C 217.988281 161.140625 219.804688 160.46875 221.839844 160.039062 C 222.03125 159.992188 222.222656 159.96875 222.386719 159.917969 L 222.386719 152.386719 L 233.148438 152.386719 L 233.148438 159.894531 C 233.390625 159.941406 233.628906 159.992188 233.867188 160.039062 C 240.707031 161.496094 245.226562 165.753906 247.402344 172.808594 L 237.289062 176.730469 C 237.097656 176.183594 236.882812 175.679688 236.667969 175.203125 C 235.015625 171.566406 231.453125 169.269531 227.53125 169.269531 C 227.53125 169.269531 226.933594 169.292969 226.238281 169.34375 C 225.519531 169.414062 224.707031 169.507812 224.230469 169.628906 C 223.035156 169.941406 222.054688 170.464844 221.335938 171.207031 C 220.042969 172.5 219.375 174.054688 219.375 175.894531 C 219.421875 177.738281 220.09375 179.195312 221.382812 180.152344 Z M 221.382812 180.152344 " fill-opacity="1" fill-rule="nonzero"/></g><g clip-path="url(#361d80d116)"><path fill="#95ea62" d="M 279.835938 275.410156 C 275.148438 273.089844 270.195312 273.207031 265.222656 273.949219 C 256.15625 275.289062 247.691406 278.589844 240.0625 283.445312 C 230.902344 289.257812 221.097656 289.996094 211.003906 288.417969 C 202.824219 287.152344 194.765625 284.902344 186.730469 282.773438 C 182.617188 281.675781 178.671875 279.976562 174.652344 278.519531 C 174.390625 278.421875 174.222656 278.136719 174.269531 277.847656 C 174.316406 277.5625 174.605469 277.347656 174.890625 277.371094 C 176.828125 277.511719 178.765625 277.539062 180.679688 277.871094 C 188.09375 279.140625 195.433594 280.980469 202.898438 281.722656 C 207.367188 282.175781 212.246094 281.769531 216.480469 280.359375 C 223.65625 277.96875 224.707031 269.261719 218.441406 265.125 C 215.285156 263.042969 211.339844 261.730469 207.558594 261.058594 C 193.6875 258.621094 180.320312 255.007812 167.8125 248.214844 C 154.515625 240.992188 140.261719 236.738281 125.074219 240.347656 C 116.035156 242.5 107.136719 245.730469 98.550781 249.339844 C 88.027344 253.765625 78.773438 259.3125 68.320312 264.335938 L 92.429688 307.527344 C 106.421875 301.09375 120.722656 300.304688 135.285156 304.085938 C 144.902344 306.59375 154.515625 309.15625 164.082031 311.929688 C 191.058594 319.773438 217.605469 318.984375 243.386719 307.433594 C 255.726562 301.90625 267.636719 295.449219 279.785156 289.496094 C 282.632812 288.085938 285.09375 286.457031 285.121094 282.917969 C 285.144531 279.210938 282.941406 276.941406 279.835938 275.410156 Z M 279.835938 275.410156 " fill-opacity="1" fill-rule="nonzero"/></g><g clip-path="url(#aa4cfad3fa)"><path fill="#95ea62" d="M 227.816406 30.511719 C 155.328125 30.511719 95.585938 86.042969 88.890625 156.808594 L 63.035156 156.808594 C 60.144531 156.808594 58.445312 160.0625 60.09375 162.453125 L 94.988281 212.820312 L 96.328125 214.757812 C 97.738281 216.816406 100.800781 216.816406 102.210938 214.757812 L 113.332031 198.710938 L 138.445312 162.453125 C 140.09375 160.0625 138.394531 156.808594 135.5 156.808594 L 110.582031 156.808594 C 117.183594 97.976562 167.238281 52.058594 227.816406 52.058594 C 292.867188 52.058594 345.792969 104.984375 345.792969 170.035156 C 345.792969 208.804688 327.019531 243.265625 298.058594 264.789062 C 302.507812 269.765625 304.898438 276.054688 304.851562 283.039062 C 304.828125 284.066406 304.753906 285.238281 304.585938 286.507812 C 342.375 261.488281 367.320312 218.632812 367.320312 170.058594 C 367.34375 93.097656 304.753906 30.511719 227.816406 30.511719 Z M 227.816406 30.511719 " fill-opacity="1" fill-rule="nonzero"/></g></svg>