<svg xmlns="http://www.w3.org/2000/svg" xmlns:xlink="http://www.w3.org/1999/xlink" width="500" zoomAndPan="magnify" viewBox="0 0 375 374.999991" height="500" preserveAspectRatio="xMidYMid meet" version="1.0"><metadata><ContainsAiGeneratedContent>Yes</ContainsAiGeneratedContent></metadata><defs><clipPath id="633aec9091"><path d="M 50.992188 6 L 323.992188 6 L 323.992188 369.238281 L 50.992188 369.238281 Z M 50.992188 6 " clip-rule="nonzero"/></clipPath><clipPath id="6a0bcf5e06"><path d="M 111.183594 150.34375 L 261.933594 150.34375 L 261.933594 267.34375 L 111.183594 267.34375 Z M 111.183594 150.34375 " clip-rule="nonzero"/></clipPath></defs><g clip-path="url(#633aec9091)"><path fill="#1b575f" d="M 308.835938 126.828125 C 300.539062 126.828125 293.667969 133.699219 293.667969 141.996094 L 293.667969 202.664062 C 293.726562 266.828125 249.765625 323.175781 187.496094 338.695312 C 125.285156 323.175781 81.265625 266.828125 81.324219 202.664062 L 81.324219 96.492188 L 89.324219 96.492188 C 127.597656 96.613281 163.855469 79.015625 187.496094 48.917969 C 211.136719 79.015625 247.394531 96.613281 285.667969 96.492188 L 308.835938 96.492188 C 317.128906 96.492188 324.003906 89.621094 324.003906 81.328125 C 324.003906 73.03125 317.128906 66.160156 308.835938 66.160156 L 285.667969 66.160156 C 249.882812 66.277344 216.941406 45.957031 201.0625 13.902344 C 198.21875 9.105469 193.007812 6.140625 187.496094 6.140625 C 181.925781 6.140625 176.773438 9.105469 173.929688 13.902344 C 157.992188 45.957031 125.109375 66.277344 89.324219 66.160156 L 66.15625 66.160156 C 57.804688 66.160156 50.992188 73.03125 50.992188 81.328125 L 50.992188 202.664062 C 50.871094 280.695312 104.433594 349.300781 180.210938 368.144531 L 183.824219 369.03125 C 186.191406 369.683594 188.742188 369.683594 191.171875 369.03125 L 194.785156 368.144531 C 270.503906 349.300781 324.0625 280.695312 323.941406 202.664062 L 323.941406 141.996094 C 323.941406 133.699219 317.128906 126.828125 308.777344 126.828125 " fill-opacity="1" fill-rule="nonzero"/></g><path fill="#1b575f" d="M 222.273438 161.605469 L 172.328125 211.550781 L 152.71875 191.941406 C 149.875 189.214844 146.082031 187.675781 142.171875 187.675781 C 133.878906 187.675781 127.003906 194.546875 127.003906 202.84375 C 127.003906 206.753906 128.546875 210.542969 131.269531 213.386719 L 161.605469 243.722656 C 164.449219 246.566406 168.300781 248.167969 172.328125 248.167969 C 176.359375 248.167969 180.210938 246.566406 183.054688 243.722656 L 243.722656 183.054688 C 246.449219 180.210938 247.988281 176.417969 247.988281 172.507812 C 247.988281 164.214844 241.117188 157.339844 232.820312 157.339844 C 228.910156 157.339844 225.117188 158.882812 222.273438 161.605469 " fill-opacity="1" fill-rule="nonzero"/><g clip-path="url(#6a0bcf5e06)"><path fill="#95ea62" d="M 308.835938 126.828125 C 300.539062 126.828125 293.667969 133.699219 293.667969 141.996094 L 293.667969 202.664062 C 293.726562 266.828125 249.765625 323.175781 187.496094 338.695312 C 125.285156 323.175781 81.265625 266.828125 81.324219 202.664062 L 81.324219 96.492188 L 89.324219 96.492188 C 127.597656 96.613281 163.855469 79.015625 187.496094 48.917969 C 211.136719 79.015625 247.394531 96.613281 285.667969 96.492188 L 308.835938 96.492188 C 317.128906 96.492188 324.003906 89.621094 324.003906 81.328125 C 324.003906 73.03125 317.128906 66.160156 308.835938 66.160156 L 285.667969 66.160156 C 249.882812 66.277344 216.941406 45.957031 201.0625 13.902344 C 198.21875 9.105469 193.007812 6.140625 187.496094 6.140625 C 181.925781 6.140625 176.773438 9.105469 173.929688 13.902344 C 157.992188 45.957031 125.109375 66.277344 89.324219 66.160156 L 66.15625 66.160156 C 57.804688 66.160156 50.992188 73.03125 50.992188 81.328125 L 50.992188 202.664062 C 50.871094 280.695312 104.433594 349.300781 180.210938 368.144531 L 183.824219 369.03125 C 186.191406 369.683594 188.742188 369.683594 191.171875 369.03125 L 194.785156 368.144531 C 270.503906 349.300781 324.0625 280.695312 323.941406 202.664062 L 323.941406 141.996094 C 323.941406 133.699219 317.128906 126.828125 308.777344 126.828125 " fill-opacity="1" fill-rule="nonzero"/></g><path fill="#95ea62" d="M 222.273438 161.605469 L 172.328125 211.550781 L 152.71875 191.941406 C 149.875 189.214844 146.082031 187.675781 142.171875 187.675781 C 133.878906 187.675781 127.003906 194.546875 127.003906 202.84375 C 127.003906 206.753906 128.546875 210.542969 131.269531 213.386719 L 161.605469 243.722656 C 164.449219 246.566406 168.300781 248.167969 172.328125 248.167969 C 176.359375 248.167969 180.210938 246.566406 183.054688 243.722656 L 243.722656 183.054688 C 246.449219 180.210938 247.988281 176.417969 247.988281 172.507812 C 247.988281 164.214844 241.117188 157.339844 232.820312 157.339844 C 228.910156 157.339844 225.117188 158.882812 222.273438 161.605469 " fill-opacity="1" fill-rule="nonzero"/></svg>