<svg xmlns="http://www.w3.org/2000/svg" xmlns:xlink="http://www.w3.org/1999/xlink" width="500" zoomAndPan="magnify" viewBox="0 0 375 374.999991" height="500" preserveAspectRatio="xMidYMid meet" version="1.0"><metadata><ContainsAiGeneratedContent>Yes</ContainsAiGeneratedContent></metadata><defs><clipPath id="bcef56718c"><path d="M 11.550781 11.550781 L 363.300781 11.550781 L 363.300781 363.300781 L 11.550781 363.300781 Z M 11.550781 11.550781 " clip-rule="nonzero"/></clipPath><clipPath id="57bb8dcfa0"><path d="M 104.183594 100.433594 L 275.183594 100.433594 L 275.183594 271.433594 L 104.183594 271.433594 Z M 104.183594 100.433594 " clip-rule="nonzero"/></clipPath><clipPath id="5b8aef359b"><path d="M 104.183594 175.433594 L 104.183594 196.566406 C 104.183594 237.988281 137.761719 271.566406 179.183594 271.566406 L 200.316406 271.566406 C 241.738281 271.566406 275.316406 237.988281 275.316406 196.566406 L 275.316406 175.433594 C 275.316406 134.011719 241.738281 100.433594 200.316406 100.433594 L 179.183594 100.433594 C 137.761719 100.433594 104.183594 134.011719 104.183594 175.433594 Z M 104.183594 175.433594 " clip-rule="nonzero"/></clipPath></defs><g clip-path="url(#bcef56718c)"><path fill="#93e85f" d="M 293.894531 187.496094 L 363.441406 187.496094 L 363.441406 211.324219 L 334.292969 222.542969 C 330.601562 238.074219 324.417969 252.886719 316.074219 266.503906 L 328.730469 295.078125 L 295.078125 328.730469 L 266.503906 316.074219 C 252.9375 324.464844 238.074219 330.601562 222.542969 334.292969 L 211.324219 363.441406 L 163.71875 363.441406 L 152.5 334.292969 C 136.917969 330.601562 122.105469 324.417969 108.488281 316.074219 L 79.914062 328.730469 L 46.261719 295.078125 L 58.964844 266.503906 C 50.574219 252.9375 44.4375 238.074219 40.699219 222.542969 L 11.550781 211.324219 L 11.550781 163.71875 L 40.699219 152.5 C 44.4375 136.917969 50.574219 122.105469 58.964844 108.488281 L 46.261719 79.914062 L 79.914062 46.261719 L 108.488281 58.964844 C 122.105469 50.574219 136.917969 44.4375 152.449219 40.746094 L 163.71875 11.550781 L 187.5 11.550781 L 187.5 81.097656 L 187.496094 81.097656 C 128.90625 81.097656 81.097656 128.90625 81.097656 187.496094 C 81.097656 246.085938 128.90625 293.894531 187.496094 293.894531 C 246.085938 293.894531 293.894531 246.085938 293.894531 187.496094 Z M 221.296875 86.617188 C 220.328125 86.296875 219.539062 85.589844 219.117188 84.664062 C 218.695312 83.738281 218.675781 82.679688 219.066406 81.742188 C 222.382812 73.722656 230.210938 54.824219 233.332031 47.292969 C 234.074219 45.492188 236.101562 44.589844 237.9375 45.238281 C 241.953125 46.671875 245.894531 48.269531 249.75 50.027344 C 251.539062 50.847656 252.359375 52.9375 251.605469 54.757812 C 248.464844 62.339844 240.644531 81.226562 237.355469 89.164062 C 236.96875 90.09375 236.222656 90.824219 235.285156 91.183594 C 234.347656 91.542969 233.304688 91.503906 232.398438 91.074219 C 228.800781 89.386719 225.097656 87.898438 221.296875 86.617188 Z M 327.980469 132.339844 C 328.707031 134.195312 327.816406 136.296875 325.972656 137.058594 C 318.332031 140.222656 299.441406 148.050781 291.578125 151.304688 C 290.664062 151.683594 289.636719 151.679688 288.726562 151.285156 C 287.820312 150.894531 287.105469 150.152344 286.753906 149.230469 C 285.308594 145.488281 283.652344 141.851562 281.804688 138.328125 C 281.320312 137.417969 281.246094 136.34375 281.59375 135.375 C 281.941406 134.402344 282.683594 133.625 283.636719 133.230469 C 291.734375 129.875 310.640625 122.042969 318.121094 118.945312 C 319.898438 118.207031 321.941406 118.96875 322.800781 120.691406 C 324.683594 124.484375 326.414062 128.371094 327.980469 132.339844 Z M 256.375 106.515625 C 255.59375 105.855469 255.121094 104.894531 255.078125 103.871094 C 255.035156 102.847656 255.421875 101.851562 256.148438 101.128906 C 262.308594 94.960938 276.761719 80.507812 282.503906 74.765625 C 283.871094 73.398438 286.070312 73.328125 287.523438 74.609375 C 290.699219 77.429688 293.757812 80.382812 296.6875 83.457031 C 298.054688 84.898438 298.023438 87.164062 296.621094 88.570312 C 290.792969 94.398438 276.351562 108.839844 270.316406 114.875 C 269.613281 115.578125 268.652344 115.964844 267.65625 115.949219 C 266.664062 115.929688 265.71875 115.507812 265.039062 114.78125 C 262.308594 111.867188 259.414062 109.105469 256.375 106.515625 Z M 187.496094 106.269531 C 232.363281 106.269531 268.722656 142.628906 268.722656 187.496094 C 268.722656 232.363281 232.363281 268.722656 187.496094 268.722656 C 142.628906 268.722656 106.269531 232.363281 106.269531 187.496094 C 106.269531 142.628906 142.628906 106.269531 187.496094 106.269531 Z M 240.652344 232.273438 C 250.847656 220.179688 256.996094 204.554688 256.996094 187.496094 C 256.996094 149.109375 225.882812 117.996094 187.496094 117.996094 C 149.109375 117.996094 117.996094 149.109375 117.996094 187.496094 C 117.996094 204.554688 124.140625 220.179688 134.339844 232.273438 C 142.371094 210.703125 163.144531 195.335938 187.496094 195.335938 C 211.847656 195.335938 232.621094 210.703125 240.652344 232.273438 Z M 187.496094 188.007812 C 171.714844 188.007812 158.808594 175.101562 158.808594 159.320312 C 158.808594 143.539062 171.714844 130.632812 187.496094 130.632812 C 203.277344 130.632812 216.183594 143.539062 216.183594 159.320312 C 216.183594 175.101562 203.277344 188.007812 187.496094 188.007812 Z M 187.496094 188.007812 " fill-opacity="1" fill-rule="evenodd"/></g><g clip-path="url(#57bb8dcfa0)"><g clip-path="url(#5b8aef359b)"><path fill="#95ea62" d="M 293.730469 187.28125 L 363.28125 187.28125 L 363.28125 211.105469 L 334.132812 222.324219 C 330.441406 237.859375 324.253906 252.671875 315.914062 266.289062 L 328.570312 294.859375 L 294.914062 328.515625 L 266.34375 315.859375 C 252.773438 324.25 237.914062 330.386719 222.378906 334.078125 L 211.160156 363.226562 L 163.554688 363.226562 L 152.335938 334.078125 C 136.757812 330.386719 121.941406 324.199219 108.328125 315.859375 L 79.753906 328.515625 L 46.097656 294.859375 L 58.804688 266.289062 C 50.414062 252.71875 44.277344 237.859375 40.539062 222.324219 L 11.390625 211.105469 L 11.390625 163.5 L 40.539062 152.285156 C 44.277344 136.703125 50.414062 121.886719 58.804688 108.273438 L 46.097656 79.699219 L 79.753906 46.042969 L 108.328125 58.75 C 121.941406 50.359375 136.757812 44.222656 152.289062 40.53125 L 163.554688 11.335938 L 187.339844 11.335938 L 187.339844 80.882812 L 187.335938 80.882812 C 128.746094 80.882812 80.9375 128.691406 80.9375 187.28125 C 80.9375 245.871094 128.746094 293.675781 187.335938 293.675781 C 245.925781 293.675781 293.730469 245.871094 293.730469 187.28125 Z M 221.132812 86.402344 C 220.167969 86.082031 219.378906 85.375 218.957031 84.449219 C 218.535156 83.523438 218.515625 82.464844 218.902344 81.527344 C 222.222656 73.507812 230.046875 54.609375 233.167969 47.074219 C 233.914062 45.277344 235.9375 44.375 237.777344 45.023438 C 241.792969 46.457031 245.734375 48.054688 249.589844 49.808594 C 251.378906 50.632812 252.199219 52.722656 251.445312 54.542969 C 248.304688 62.125 240.480469 81.011719 237.191406 88.949219 C 236.808594 89.878906 236.0625 90.605469 235.125 90.96875 C 234.1875 91.328125 233.144531 91.289062 232.238281 90.859375 C 228.640625 89.171875 224.933594 87.683594 221.132812 86.402344 Z M 327.820312 132.121094 C 328.546875 133.980469 327.652344 136.078125 325.808594 136.84375 C 318.171875 140.007812 299.28125 147.832031 291.417969 151.089844 C 290.503906 151.46875 289.476562 151.460938 288.566406 151.070312 C 287.65625 150.679688 286.945312 149.9375 286.59375 149.011719 C 285.144531 145.273438 283.492188 141.636719 281.644531 138.113281 C 281.160156 137.203125 281.082031 136.128906 281.433594 135.160156 C 281.78125 134.1875 282.523438 133.410156 283.476562 133.015625 C 291.570312 129.65625 310.480469 121.828125 317.957031 118.726562 C 319.734375 117.992188 321.777344 118.753906 322.640625 120.472656 C 324.523438 124.269531 326.253906 128.15625 327.820312 132.121094 Z M 256.214844 106.300781 C 255.429688 105.640625 254.960938 104.679688 254.917969 103.65625 C 254.875 102.632812 255.261719 101.636719 255.988281 100.914062 C 262.148438 94.746094 276.601562 80.292969 282.34375 74.550781 C 283.710938 73.183594 285.910156 73.113281 287.359375 74.394531 C 290.539062 77.214844 293.597656 80.167969 296.527344 83.242188 C 297.894531 84.683594 297.863281 86.949219 296.460938 88.355469 C 290.632812 94.179688 276.191406 108.625 270.15625 114.660156 C 269.449219 115.363281 268.492188 115.75 267.496094 115.734375 C 266.5 115.714844 265.554688 115.292969 264.878906 114.5625 C 262.148438 111.652344 259.253906 108.890625 256.214844 106.300781 Z M 187.335938 106.050781 C 232.199219 106.050781 268.5625 142.414062 268.5625 187.28125 C 268.5625 232.144531 232.199219 268.507812 187.335938 268.507812 C 142.46875 268.507812 106.105469 232.144531 106.105469 187.28125 C 106.105469 142.414062 142.46875 106.050781 187.335938 106.050781 Z M 240.492188 232.058594 C 250.6875 219.960938 256.832031 204.339844 256.832031 187.28125 C 256.832031 148.894531 225.722656 117.78125 187.335938 117.78125 C 148.949219 117.78125 117.835938 148.894531 117.835938 187.28125 C 117.835938 204.339844 123.980469 219.960938 134.179688 232.058594 C 142.207031 210.488281 162.984375 195.121094 187.335938 195.121094 C 211.6875 195.121094 232.460938 210.488281 240.492188 232.058594 Z M 187.335938 187.789062 C 171.550781 187.789062 158.648438 174.886719 158.648438 159.105469 C 158.648438 143.320312 171.550781 130.417969 187.335938 130.417969 C 203.117188 130.417969 216.019531 143.320312 216.019531 159.105469 C 216.019531 174.886719 203.117188 187.789062 187.335938 187.789062 Z M 187.335938 187.789062 " fill-opacity="1" fill-rule="evenodd"/></g></g></svg>