<svg xmlns="http://www.w3.org/2000/svg" xmlns:xlink="http://www.w3.org/1999/xlink" width="500" zoomAndPan="magnify" viewBox="0 0 375 374.999991" height="500" preserveAspectRatio="xMidYMid meet" version="1.0"><metadata><ContainsAiGeneratedContent>Yes</ContainsAiGeneratedContent></metadata><defs><clipPath id="03b5e1bfff"><path d="M 35.980469 15.320312 L 338.980469 15.320312 L 338.980469 359.570312 L 35.980469 359.570312 Z M 35.980469 15.320312 " clip-rule="nonzero"/></clipPath></defs><g clip-path="url(#03b5e1bfff)"><path fill="#1b575f" d="M 330.722656 310.097656 L 191.65625 310.097656 L 191.65625 266.421875 C 195.628906 268.410156 200.035156 269.464844 204.582031 269.464844 C 220.523438 269.464844 233.488281 256.496094 233.488281 240.554688 C 233.488281 224.617188 220.523438 211.648438 204.582031 211.648438 C 200.035156 211.648438 195.628906 212.703125 191.65625 214.691406 L 191.65625 171.011719 L 235.324219 171.011719 C 233.328125 174.988281 232.269531 179.402344 232.269531 183.960938 C 232.269531 199.898438 245.238281 212.867188 261.179688 212.867188 C 277.117188 212.867188 290.085938 199.898438 290.085938 183.960938 C 290.085938 179.402344 289.023438 174.988281 287.03125 171.011719 L 330.722656 171.011719 Z M 190.253906 255.382812 C 190.191406 255.328125 190.136719 255.277344 190.074219 255.226562 C 190.023438 255.1875 189.972656 255.152344 189.921875 255.113281 C 189.863281 255.070312 189.804688 255.03125 189.746094 254.988281 C 189.691406 254.953125 189.632812 254.921875 189.574219 254.886719 C 189.515625 254.851562 189.457031 254.816406 189.394531 254.789062 C 189.335938 254.753906 189.277344 254.726562 189.214844 254.699219 C 189.152344 254.667969 189.089844 254.640625 189.027344 254.617188 C 188.964844 254.59375 188.902344 254.570312 188.839844 254.550781 C 188.777344 254.527344 188.710938 254.503906 188.644531 254.484375 C 188.578125 254.46875 188.515625 254.449219 188.453125 254.4375 C 188.386719 254.421875 188.316406 254.40625 188.25 254.390625 C 188.183594 254.378906 188.113281 254.371094 188.042969 254.359375 C 187.980469 254.351562 187.914062 254.34375 187.851562 254.335938 C 187.773438 254.332031 187.699219 254.328125 187.621094 254.324219 C 187.578125 254.324219 187.53125 254.316406 187.488281 254.316406 C 187.46875 254.316406 187.457031 254.320312 187.441406 254.320312 C 187.363281 254.320312 187.285156 254.328125 187.207031 254.332031 C 187.148438 254.335938 187.085938 254.339844 187.027344 254.34375 C 186.957031 254.355469 186.890625 254.367188 186.820312 254.375 C 186.753906 254.386719 186.6875 254.394531 186.621094 254.410156 C 186.558594 254.421875 186.5 254.441406 186.441406 254.457031 C 186.371094 254.472656 186.300781 254.492188 186.230469 254.511719 C 186.167969 254.53125 186.109375 254.558594 186.050781 254.578125 C 185.984375 254.601562 185.917969 254.625 185.855469 254.652344 C 185.789062 254.679688 185.726562 254.714844 185.660156 254.746094 C 185.605469 254.773438 185.546875 254.800781 185.496094 254.828125 C 185.429688 254.863281 185.367188 254.90625 185.304688 254.945312 C 185.253906 254.972656 185.203125 255.003906 185.152344 255.039062 C 185.09375 255.078125 185.039062 255.121094 184.984375 255.164062 C 184.933594 255.203125 184.875 255.242188 184.824219 255.289062 C 184.777344 255.328125 184.734375 255.371094 184.6875 255.410156 C 184.632812 255.460938 184.574219 255.515625 184.519531 255.570312 C 184.511719 255.582031 184.496094 255.589844 184.488281 255.601562 C 184.453125 255.636719 184.429688 255.667969 184.398438 255.703125 C 184.347656 255.757812 184.296875 255.816406 184.25 255.878906 C 184.207031 255.925781 184.167969 255.980469 184.132812 256.035156 C 184.089844 256.089844 184.050781 256.144531 184.011719 256.203125 C 183.972656 256.261719 183.941406 256.320312 183.90625 256.378906 C 183.871094 256.4375 183.839844 256.496094 183.808594 256.554688 C 183.777344 256.613281 183.746094 256.675781 183.71875 256.738281 C 183.691406 256.800781 183.664062 256.859375 183.640625 256.921875 C 183.613281 256.984375 183.589844 257.050781 183.570312 257.113281 C 183.546875 257.175781 183.523438 257.242188 183.503906 257.308594 C 183.488281 257.371094 183.472656 257.4375 183.457031 257.5 C 183.441406 257.570312 183.425781 257.632812 183.410156 257.699219 C 183.398438 257.769531 183.390625 257.839844 183.378906 257.910156 C 183.371094 257.972656 183.363281 258.035156 183.355469 258.101562 C 183.351562 258.179688 183.347656 258.253906 183.34375 258.332031 C 183.34375 258.375 183.339844 258.421875 183.339844 258.464844 L 183.339844 310.097656 L 132.273438 310.097656 C 130.636719 310.097656 129.152344 311.0625 128.484375 312.554688 C 127.816406 314.050781 128.089844 315.796875 129.183594 317.015625 C 132.566406 320.792969 134.433594 325.671875 134.433594 330.753906 C 134.433594 342.121094 125.183594 351.367188 113.820312 351.367188 C 102.453125 351.367188 93.207031 342.121094 93.207031 330.753906 C 93.207031 325.671875 95.070312 320.792969 98.453125 317.015625 C 99.546875 315.796875 99.820312 314.050781 99.152344 312.554688 C 98.484375 311.0625 97.003906 310.097656 95.367188 310.097656 L 44.273438 310.097656 L 44.273438 171.011719 L 95.910156 171.011719 C 97.570312 171.011719 99.070312 170.023438 99.722656 168.496094 C 100.375 166.96875 100.054688 165.199219 98.90625 164 C 95.230469 160.148438 93.207031 155.09375 93.207031 149.769531 C 93.207031 138.402344 102.453125 129.152344 113.820312 129.152344 C 125.183594 129.152344 134.433594 138.402344 134.433594 149.769531 C 134.433594 155.09375 132.40625 160.148438 128.730469 164 C 127.582031 165.199219 127.261719 166.96875 127.917969 168.496094 C 128.570312 170.023438 130.070312 171.011719 131.730469 171.011719 L 183.339844 171.011719 L 183.339844 222.644531 C 183.339844 222.691406 183.34375 222.734375 183.34375 222.78125 C 183.347656 222.859375 183.351562 222.933594 183.355469 223.007812 C 183.363281 223.074219 183.371094 223.140625 183.378906 223.203125 C 183.390625 223.273438 183.398438 223.339844 183.410156 223.410156 C 183.425781 223.476562 183.441406 223.542969 183.457031 223.609375 C 183.472656 223.675781 183.488281 223.738281 183.503906 223.804688 C 183.523438 223.871094 183.546875 223.933594 183.570312 224 C 183.589844 224.0625 183.613281 224.125 183.640625 224.1875 C 183.664062 224.25 183.691406 224.3125 183.71875 224.371094 C 183.746094 224.433594 183.777344 224.496094 183.808594 224.558594 C 183.839844 224.617188 183.871094 224.675781 183.90625 224.730469 C 183.9375 224.789062 183.972656 224.847656 184.011719 224.90625 C 184.050781 224.964844 184.089844 225.019531 184.132812 225.078125 C 184.167969 225.128906 184.207031 225.183594 184.25 225.234375 C 184.296875 225.292969 184.347656 225.351562 184.398438 225.40625 C 184.425781 225.441406 184.453125 225.476562 184.488281 225.511719 C 184.496094 225.523438 184.511719 225.53125 184.519531 225.542969 C 184.574219 225.597656 184.628906 225.648438 184.6875 225.699219 C 184.730469 225.742188 184.777344 225.785156 184.824219 225.824219 C 184.875 225.867188 184.929688 225.90625 184.984375 225.949219 C 185.039062 225.988281 185.09375 226.035156 185.152344 226.074219 C 185.199219 226.105469 185.25 226.136719 185.300781 226.167969 C 185.367188 226.207031 185.429688 226.246094 185.496094 226.285156 C 185.546875 226.3125 185.601562 226.335938 185.65625 226.363281 C 185.722656 226.398438 185.789062 226.429688 185.855469 226.460938 C 185.917969 226.488281 185.984375 226.507812 186.046875 226.53125 C 186.109375 226.554688 186.167969 226.578125 186.230469 226.597656 C 186.296875 226.621094 186.367188 226.636719 186.4375 226.652344 C 186.5 226.671875 186.558594 226.6875 186.621094 226.703125 C 186.6875 226.714844 186.753906 226.722656 186.816406 226.734375 C 186.886719 226.746094 186.957031 226.757812 187.027344 226.765625 C 187.085938 226.773438 187.144531 226.777344 187.203125 226.777344 C 187.28125 226.785156 187.363281 226.789062 187.441406 226.789062 C 187.457031 226.789062 187.472656 226.792969 187.488281 226.792969 C 187.53125 226.792969 187.574219 226.789062 187.617188 226.785156 C 187.695312 226.785156 187.773438 226.78125 187.851562 226.773438 C 187.914062 226.769531 187.976562 226.761719 188.039062 226.753906 C 188.113281 226.742188 188.183594 226.730469 188.25 226.71875 C 188.316406 226.707031 188.382812 226.691406 188.449219 226.675781 C 188.515625 226.660156 188.578125 226.644531 188.644531 226.625 C 188.710938 226.605469 188.773438 226.585938 188.839844 226.5625 C 188.902344 226.542969 188.964844 226.519531 189.027344 226.492188 C 189.089844 226.46875 189.152344 226.441406 189.210938 226.414062 C 189.273438 226.386719 189.335938 226.355469 189.398438 226.324219 C 189.457031 226.292969 189.515625 226.257812 189.574219 226.226562 C 189.632812 226.191406 189.6875 226.15625 189.746094 226.121094 C 189.804688 226.082031 189.863281 226.039062 189.921875 226 C 189.972656 225.960938 190.023438 225.925781 190.074219 225.882812 C 190.136719 225.835938 190.191406 225.78125 190.25 225.730469 C 190.285156 225.703125 190.320312 225.675781 190.351562 225.644531 C 194.203125 221.96875 199.253906 219.941406 204.582031 219.941406 C 215.949219 219.941406 225.195312 229.191406 225.195312 240.554688 C 225.195312 251.921875 215.949219 261.167969 204.582031 261.167969 C 199.253906 261.167969 194.203125 259.144531 190.351562 255.46875 C 190.320312 255.4375 190.285156 255.410156 190.253906 255.382812 Z M 44.273438 23.628906 L 183.363281 23.628906 L 183.363281 67.320312 C 179.386719 65.324219 174.972656 64.265625 170.414062 64.265625 C 154.476562 64.265625 141.507812 77.234375 141.507812 93.171875 C 141.507812 109.113281 154.476562 122.082031 170.414062 122.082031 C 174.972656 122.082031 179.386719 121.019531 183.363281 119.027344 L 183.363281 162.71875 L 139.675781 162.71875 C 141.667969 158.738281 142.726562 154.324219 142.726562 149.769531 C 142.726562 133.828125 129.757812 120.859375 113.820312 120.859375 C 97.878906 120.859375 84.910156 133.828125 84.910156 149.769531 C 84.910156 154.324219 85.96875 158.738281 87.964844 162.71875 L 44.273438 162.71875 Z M 334.871094 162.71875 L 279.085938 162.71875 C 279.042969 162.71875 279 162.722656 278.953125 162.722656 C 278.878906 162.726562 278.800781 162.730469 278.722656 162.734375 C 278.660156 162.742188 278.59375 162.75 278.53125 162.757812 C 278.460938 162.769531 278.390625 162.777344 278.324219 162.789062 C 278.257812 162.800781 278.191406 162.820312 278.125 162.832031 C 278.058594 162.847656 277.992188 162.867188 277.929688 162.882812 C 277.863281 162.902344 277.800781 162.925781 277.734375 162.949219 C 277.671875 162.96875 277.609375 162.992188 277.546875 163.015625 C 277.484375 163.042969 277.421875 163.070312 277.359375 163.097656 C 277.300781 163.125 277.238281 163.15625 277.179688 163.1875 C 277.117188 163.214844 277.058594 163.25 277 163.285156 C 276.941406 163.316406 276.886719 163.351562 276.828125 163.390625 C 276.765625 163.429688 276.710938 163.46875 276.65625 163.511719 C 276.601562 163.546875 276.550781 163.585938 276.5 163.625 C 276.4375 163.675781 276.378906 163.726562 276.324219 163.777344 C 276.289062 163.808594 276.257812 163.832031 276.222656 163.863281 C 276.210938 163.875 276.203125 163.886719 276.191406 163.898438 C 276.136719 163.953125 276.082031 164.011719 276.03125 164.070312 C 275.988281 164.113281 275.949219 164.15625 275.90625 164.203125 C 275.863281 164.253906 275.824219 164.3125 275.78125 164.367188 C 275.738281 164.421875 275.699219 164.472656 275.660156 164.527344 C 275.628906 164.578125 275.59375 164.632812 275.5625 164.6875 C 275.527344 164.75 275.484375 164.808594 275.449219 164.875 C 275.421875 164.925781 275.394531 164.984375 275.367188 165.039062 C 275.335938 165.105469 275.300781 165.167969 275.273438 165.234375 C 275.246094 165.296875 275.226562 165.363281 275.199219 165.429688 C 275.179688 165.488281 275.15625 165.546875 275.132812 165.609375 C 275.113281 165.675781 275.097656 165.746094 275.078125 165.816406 C 275.0625 165.878906 275.042969 165.9375 275.03125 166 C 275.019531 166.0625 275.007812 166.128906 275 166.195312 C 274.988281 166.265625 274.976562 166.335938 274.96875 166.40625 C 274.960938 166.464844 274.960938 166.523438 274.953125 166.582031 C 274.949219 166.660156 274.941406 166.738281 274.941406 166.820312 C 274.941406 166.835938 274.941406 166.847656 274.941406 166.863281 C 274.941406 166.910156 274.945312 166.953125 274.949219 166.996094 C 274.949219 167.074219 274.953125 167.152344 274.960938 167.230469 C 274.964844 167.292969 274.972656 167.355469 274.980469 167.417969 C 274.992188 167.488281 275 167.558594 275.015625 167.628906 C 275.027344 167.695312 275.042969 167.761719 275.058594 167.828125 C 275.070312 167.890625 275.089844 167.957031 275.109375 168.023438 C 275.128906 168.089844 275.148438 168.152344 275.171875 168.214844 C 275.191406 168.28125 275.214844 168.34375 275.238281 168.40625 C 275.265625 168.46875 275.289062 168.53125 275.320312 168.589844 C 275.347656 168.652344 275.378906 168.714844 275.410156 168.777344 C 275.441406 168.835938 275.472656 168.890625 275.503906 168.949219 C 275.542969 169.007812 275.578125 169.066406 275.613281 169.125 C 275.652344 169.183594 275.691406 169.238281 275.734375 169.292969 C 275.769531 169.347656 275.808594 169.402344 275.851562 169.453125 C 275.898438 169.511719 275.949219 169.566406 275.996094 169.625 C 276.027344 169.660156 276.054688 169.695312 276.089844 169.726562 C 279.765625 173.578125 281.789062 178.632812 281.789062 183.960938 C 281.789062 195.328125 272.542969 204.574219 261.179688 204.574219 C 249.8125 204.574219 240.5625 195.328125 240.5625 183.960938 C 240.5625 178.632812 242.589844 173.578125 246.265625 169.726562 C 246.300781 169.695312 246.328125 169.660156 246.355469 169.625 C 246.40625 169.566406 246.457031 169.511719 246.503906 169.453125 C 246.546875 169.402344 246.585938 169.347656 246.625 169.292969 C 246.664062 169.238281 246.703125 169.183594 246.742188 169.125 C 246.78125 169.066406 246.8125 169.007812 246.847656 168.949219 C 246.882812 168.890625 246.914062 168.835938 246.945312 168.777344 C 246.976562 168.714844 247.007812 168.652344 247.035156 168.589844 C 247.0625 168.53125 247.089844 168.46875 247.113281 168.40625 C 247.140625 168.34375 247.164062 168.28125 247.183594 168.214844 C 247.207031 168.152344 247.230469 168.089844 247.25 168.023438 C 247.265625 167.957031 247.28125 167.890625 247.296875 167.828125 C 247.3125 167.761719 247.328125 167.695312 247.339844 167.628906 C 247.355469 167.558594 247.363281 167.488281 247.375 167.417969 C 247.382812 167.355469 247.390625 167.292969 247.398438 167.230469 C 247.402344 167.152344 247.40625 167.074219 247.410156 166.996094 C 247.410156 166.953125 247.414062 166.910156 247.414062 166.863281 C 247.414062 166.847656 247.414062 166.835938 247.414062 166.820312 C 247.410156 166.738281 247.40625 166.660156 247.402344 166.582031 C 247.398438 166.523438 247.394531 166.464844 247.386719 166.40625 C 247.378906 166.335938 247.367188 166.265625 247.355469 166.195312 C 247.347656 166.128906 247.335938 166.0625 247.324219 166 C 247.308594 165.9375 247.292969 165.878906 247.277344 165.816406 C 247.257812 165.746094 247.242188 165.675781 247.21875 165.609375 C 247.203125 165.546875 247.175781 165.488281 247.15625 165.429688 C 247.128906 165.363281 247.109375 165.296875 247.082031 165.234375 C 247.054688 165.167969 247.019531 165.105469 246.988281 165.039062 C 246.960938 164.984375 246.9375 164.925781 246.90625 164.875 C 246.871094 164.808594 246.832031 164.75 246.792969 164.6875 C 246.757812 164.632812 246.730469 164.578125 246.695312 164.527344 C 246.65625 164.472656 246.613281 164.421875 246.574219 164.367188 C 246.53125 164.3125 246.492188 164.253906 246.445312 164.203125 C 246.40625 164.15625 246.367188 164.113281 246.324219 164.070312 C 246.273438 164.011719 246.21875 163.953125 246.164062 163.898438 C 246.152344 163.886719 246.144531 163.875 246.132812 163.863281 C 246.101562 163.832031 246.066406 163.808594 246.03125 163.777344 C 245.972656 163.726562 245.914062 163.675781 245.855469 163.625 C 245.804688 163.585938 245.753906 163.546875 245.703125 163.511719 C 245.644531 163.46875 245.585938 163.429688 245.527344 163.390625 C 245.46875 163.351562 245.414062 163.316406 245.355469 163.285156 C 245.296875 163.25 245.238281 163.214844 245.179688 163.1875 C 245.117188 163.15625 245.054688 163.125 244.996094 163.097656 C 244.933594 163.070312 244.871094 163.042969 244.808594 163.015625 C 244.746094 162.992188 244.683594 162.96875 244.621094 162.949219 C 244.558594 162.925781 244.492188 162.902344 244.425781 162.882812 C 244.363281 162.867188 244.296875 162.847656 244.230469 162.832031 C 244.164062 162.820312 244.101562 162.800781 244.03125 162.789062 C 243.964844 162.777344 243.894531 162.769531 243.824219 162.757812 C 243.761719 162.75 243.695312 162.742188 243.632812 162.734375 C 243.554688 162.730469 243.480469 162.726562 243.402344 162.722656 C 243.355469 162.722656 243.3125 162.71875 243.269531 162.71875 L 191.65625 162.71875 L 191.65625 111.082031 C 191.65625 111.039062 191.652344 110.996094 191.652344 110.953125 C 191.648438 110.871094 191.644531 110.792969 191.640625 110.714844 C 191.632812 110.652344 191.625 110.59375 191.617188 110.53125 C 191.609375 110.457031 191.597656 110.386719 191.585938 110.316406 C 191.570312 110.25 191.558594 110.1875 191.542969 110.121094 C 191.527344 110.054688 191.507812 109.988281 191.492188 109.925781 C 191.472656 109.859375 191.449219 109.792969 191.429688 109.734375 C 191.40625 109.667969 191.382812 109.605469 191.359375 109.539062 C 191.332031 109.476562 191.304688 109.417969 191.277344 109.359375 C 191.25 109.296875 191.21875 109.234375 191.1875 109.171875 C 191.15625 109.113281 191.125 109.054688 191.09375 109 C 191.058594 108.941406 191.023438 108.878906 190.984375 108.820312 C 190.945312 108.761719 190.90625 108.707031 190.867188 108.652344 C 190.828125 108.597656 190.789062 108.546875 190.746094 108.492188 C 190.699219 108.4375 190.648438 108.378906 190.601562 108.320312 C 190.570312 108.289062 190.542969 108.25 190.511719 108.21875 C 190.5 108.207031 190.488281 108.199219 190.476562 108.1875 C 190.421875 108.132812 190.367188 108.082031 190.308594 108.027344 C 190.265625 107.988281 190.21875 107.941406 190.171875 107.902344 C 190.121094 107.859375 190.0625 107.820312 190.011719 107.777344 C 189.957031 107.738281 189.902344 107.695312 189.847656 107.65625 C 189.796875 107.621094 189.742188 107.589844 189.6875 107.558594 C 189.625 107.519531 189.566406 107.480469 189.503906 107.445312 C 189.445312 107.414062 189.386719 107.390625 189.332031 107.359375 C 189.265625 107.328125 189.207031 107.296875 189.140625 107.269531 C 189.074219 107.242188 189.007812 107.21875 188.941406 107.195312 C 188.882812 107.171875 188.824219 107.148438 188.765625 107.128906 C 188.695312 107.109375 188.625 107.089844 188.550781 107.070312 C 188.492188 107.058594 188.433594 107.039062 188.375 107.027344 C 188.308594 107.011719 188.242188 107.003906 188.171875 106.992188 C 188.105469 106.980469 188.039062 106.96875 187.972656 106.964844 C 187.910156 106.957031 187.847656 106.953125 187.789062 106.949219 C 187.710938 106.945312 187.632812 106.9375 187.554688 106.9375 C 187.542969 106.9375 187.527344 106.933594 187.511719 106.933594 C 187.464844 106.933594 187.421875 106.941406 187.375 106.941406 C 187.300781 106.945312 187.222656 106.945312 187.144531 106.953125 C 187.082031 106.957031 187.015625 106.96875 186.953125 106.976562 C 186.882812 106.988281 186.816406 106.996094 186.746094 107.007812 C 186.679688 107.019531 186.613281 107.035156 186.546875 107.054688 C 186.480469 107.066406 186.417969 107.082031 186.351562 107.101562 C 186.285156 107.121094 186.222656 107.144531 186.15625 107.164062 C 186.09375 107.1875 186.03125 107.210938 185.96875 107.234375 C 185.90625 107.261719 185.84375 107.289062 185.785156 107.316406 C 185.722656 107.34375 185.660156 107.375 185.597656 107.402344 C 185.539062 107.4375 185.484375 107.46875 185.425781 107.503906 C 185.367188 107.539062 185.308594 107.570312 185.25 107.609375 C 185.191406 107.648438 185.136719 107.6875 185.078125 107.726562 C 185.027344 107.769531 184.972656 107.804688 184.921875 107.847656 C 184.863281 107.894531 184.804688 107.945312 184.75 107.992188 C 184.714844 108.023438 184.679688 108.050781 184.648438 108.082031 C 180.796875 111.761719 175.742188 113.785156 170.414062 113.785156 C 159.046875 113.785156 149.800781 104.539062 149.800781 93.171875 C 149.800781 81.808594 159.046875 72.5625 170.414062 72.5625 C 175.742188 72.5625 180.796875 74.582031 184.648438 78.261719 C 184.679688 78.292969 184.714844 78.320312 184.75 78.351562 C 184.804688 78.402344 184.863281 78.453125 184.921875 78.5 C 184.972656 78.542969 185.027344 78.578125 185.078125 78.617188 C 185.136719 78.65625 185.191406 78.699219 185.25 78.738281 C 185.308594 78.773438 185.367188 78.808594 185.425781 78.84375 C 185.484375 78.875 185.539062 78.910156 185.597656 78.941406 C 185.660156 78.972656 185.722656 79.003906 185.785156 79.03125 C 185.84375 79.058594 185.90625 79.085938 185.96875 79.113281 C 186.03125 79.136719 186.09375 79.15625 186.15625 79.179688 C 186.222656 79.203125 186.285156 79.222656 186.351562 79.242188 C 186.417969 79.261719 186.480469 79.277344 186.546875 79.292969 C 186.613281 79.308594 186.679688 79.324219 186.746094 79.335938 C 186.816406 79.347656 186.882812 79.359375 186.953125 79.371094 C 187.015625 79.375 187.082031 79.386719 187.148438 79.390625 C 187.222656 79.398438 187.300781 79.402344 187.375 79.402344 C 187.421875 79.402344 187.464844 79.410156 187.511719 79.410156 C 187.527344 79.410156 187.542969 79.410156 187.554688 79.410156 C 187.632812 79.40625 187.710938 79.402344 187.789062 79.398438 C 187.847656 79.390625 187.910156 79.390625 187.972656 79.382812 C 188.039062 79.375 188.105469 79.363281 188.175781 79.351562 C 188.242188 79.34375 188.308594 79.332031 188.375 79.320312 C 188.4375 79.304688 188.496094 79.285156 188.554688 79.273438 C 188.625 79.253906 188.699219 79.238281 188.765625 79.214844 C 188.828125 79.195312 188.886719 79.171875 188.945312 79.148438 C 189.011719 79.125 189.078125 79.105469 189.140625 79.078125 C 189.207031 79.046875 189.273438 79.015625 189.339844 78.980469 C 189.394531 78.953125 189.449219 78.929688 189.5 78.902344 C 189.566406 78.863281 189.632812 78.824219 189.695312 78.785156 C 189.746094 78.75 189.796875 78.722656 189.84375 78.6875 C 189.902344 78.652344 189.957031 78.605469 190.015625 78.566406 C 190.066406 78.523438 190.121094 78.484375 190.171875 78.441406 C 190.21875 78.402344 190.265625 78.359375 190.3125 78.316406 C 190.367188 78.265625 190.421875 78.210938 190.476562 78.160156 C 190.488281 78.148438 190.5 78.136719 190.511719 78.128906 C 190.542969 78.09375 190.570312 78.058594 190.601562 78.023438 C 190.648438 77.964844 190.699219 77.910156 190.746094 77.851562 C 190.789062 77.800781 190.828125 77.746094 190.867188 77.691406 C 190.90625 77.636719 190.945312 77.582031 190.984375 77.523438 C 191.023438 77.464844 191.058594 77.40625 191.09375 77.347656 C 191.125 77.289062 191.15625 77.234375 191.1875 77.175781 C 191.21875 77.113281 191.25 77.050781 191.277344 76.988281 C 191.304688 76.925781 191.332031 76.867188 191.359375 76.808594 C 191.382812 76.742188 191.40625 76.679688 191.429688 76.613281 C 191.449219 76.550781 191.472656 76.488281 191.492188 76.421875 C 191.507812 76.355469 191.527344 76.289062 191.542969 76.222656 C 191.558594 76.160156 191.570312 76.09375 191.585938 76.027344 C 191.597656 75.960938 191.609375 75.886719 191.617188 75.816406 C 191.625 75.753906 191.632812 75.691406 191.640625 75.628906 C 191.644531 75.550781 191.648438 75.472656 191.652344 75.390625 C 191.652344 75.347656 191.65625 75.308594 191.65625 75.265625 L 191.65625 19.480469 C 191.65625 17.191406 189.800781 15.332031 187.511719 15.332031 L 40.128906 15.332031 C 37.835938 15.332031 35.980469 17.191406 35.980469 19.480469 L 35.980469 314.246094 C 35.980469 316.539062 37.835938 318.394531 40.128906 318.394531 L 87.683594 318.394531 C 85.871094 322.222656 84.910156 326.4375 84.910156 330.753906 C 84.910156 346.691406 97.878906 359.664062 113.820312 359.664062 C 129.757812 359.664062 142.726562 346.691406 142.726562 330.753906 C 142.726562 326.4375 141.765625 322.222656 139.957031 318.394531 L 334.871094 318.394531 C 337.160156 318.394531 339.019531 316.539062 339.019531 314.246094 L 339.019531 166.863281 C 339.019531 164.574219 337.160156 162.71875 334.871094 162.71875 " fill-opacity="1" fill-rule="nonzero"/></g><path fill="#95ea62" d="M 229.785156 65.390625 C 230.015625 65.417969 230.246094 65.433594 230.476562 65.433594 C 233.042969 65.433594 235.257812 63.765625 235.984375 61.285156 C 237.625 55.667969 240.164062 51.230469 243.523438 48.089844 C 248.148438 43.761719 253.976562 41.566406 260.839844 41.566406 C 267.9375 41.566406 274.027344 43.980469 278.933594 48.738281 C 283.855469 53.511719 286.355469 59.15625 286.355469 65.503906 C 286.355469 69.054688 285.484375 72.382812 283.761719 75.390625 C 282.085938 78.324219 278.65625 82.0625 273.261719 86.820312 C 268.199219 91.285156 264.65625 94.71875 262.734375 97.007812 C 260.183594 100.082031 258.316406 103.148438 257.1875 106.132812 C 255.621094 110.148438 254.828125 115.011719 254.828125 120.589844 C 254.832031 121.9375 255.929688 123.035156 257.277344 123.035156 L 262.863281 123.035156 C 264.183594 123.035156 265.273438 122.003906 265.339844 120.6875 C 265.550781 116.703125 265.929688 113.726562 266.507812 111.597656 C 267.289062 108.714844 268.511719 106.121094 270.148438 103.878906 C 271.746094 101.6875 274.960938 98.464844 279.980469 94.015625 C 287.019531 87.78125 291.789062 82.460938 294.15625 78.207031 C 296.460938 74.050781 297.632812 69.445312 297.632812 64.511719 C 297.632812 55.96875 294.28125 48.574219 287.671875 42.535156 C 281.015625 36.449219 271.902344 33.363281 260.59375 33.363281 C 249.929688 33.363281 241.269531 36.234375 234.855469 41.894531 C 230.269531 45.9375 226.945312 51.359375 224.96875 58.003906 C 224.476562 59.652344 224.734375 61.421875 225.675781 62.851562 C 226.605469 64.261719 228.105469 65.191406 229.785156 65.390625 " fill-opacity="1" fill-rule="nonzero"/><path fill="#95ea62" d="M 260.46875 128.527344 C 256.902344 128.527344 254 131.429688 254 134.996094 C 254 138.5625 256.902344 141.460938 260.46875 141.460938 C 264.035156 141.460938 266.9375 138.5625 266.9375 134.996094 C 266.9375 131.429688 264.035156 128.527344 260.46875 128.527344 " fill-opacity="1" fill-rule="nonzero"/></svg>