<svg xmlns="http://www.w3.org/2000/svg" xmlns:xlink="http://www.w3.org/1999/xlink" width="40" zoomAndPan="magnify" viewBox="0 0 30 30.000001" height="40" preserveAspectRatio="xMidYMid meet" version="1.0"><defs><clipPath id="4c0e77158e"><path d="M 0.484375 0 L 29.515625 0 L 29.515625 29.03125 L 0.484375 29.03125 Z M 0.484375 0 " clip-rule="nonzero"/></clipPath><clipPath id="3f7a5d2c57"><path d="M 0.484375 0 L 29.515625 0 L 29.515625 29.03125 L 0.484375 29.03125 Z M 0.484375 0 " clip-rule="nonzero"/></clipPath><clipPath id="1b6b8c7cc9"><path d="M 1.933594 0 L 28.066406 0 C 28.867188 0 29.515625 0.648438 29.515625 1.453125 L 29.515625 27.582031 C 29.515625 28.382812 28.867188 29.03125 28.066406 29.03125 L 1.933594 29.03125 C 1.132812 29.03125 0.484375 28.382812 0.484375 27.582031 L 0.484375 1.453125 C 0.484375 0.648438 1.132812 0 1.933594 0 Z M 1.933594 0 " clip-rule="nonzero"/></clipPath><clipPath id="abfcc6ad10"><path d="M 0.484375 0 L 29.515625 0 L 29.515625 29.03125 L 0.484375 29.03125 Z M 0.484375 0 " clip-rule="nonzero"/></clipPath><clipPath id="9f37556857"><path d="M 1.933594 0 L 28.066406 0 C 28.867188 0 29.515625 0.648438 29.515625 1.453125 L 29.515625 27.582031 C 29.515625 28.382812 28.867188 29.03125 28.066406 29.03125 L 1.933594 29.03125 C 1.132812 29.03125 0.484375 28.382812 0.484375 27.582031 L 0.484375 1.453125 C 0.484375 0.648438 1.132812 0 1.933594 0 Z M 1.933594 0 " clip-rule="nonzero"/></clipPath><clipPath id="1fb2e2489d"><rect x="0" width="30" y="0" height="30"/></clipPath><clipPath id="d5b68b65d4"><path d="M 5.457031 5 L 24.328125 5 L 24.328125 16 L 5.457031 16 Z M 5.457031 5 " clip-rule="nonzero"/></clipPath><clipPath id="7906685fb4"><path d="M 12 22 L 15 22 L 15 23.871094 L 12 23.871094 Z M 12 22 " clip-rule="nonzero"/></clipPath></defs><g clip-path="url(#4c0e77158e)"><path fill="#ffffff" d="M 0.484375 0 L 29.515625 0 L 29.515625 29.03125 L 0.484375 29.03125 Z M 0.484375 0 " fill-opacity="1" fill-rule="nonzero"/><path fill="#ffffff" d="M 0.484375 0 L 29.515625 0 L 29.515625 29.03125 L 0.484375 29.03125 Z M 0.484375 0 " fill-opacity="1" fill-rule="nonzero"/></g><g clip-path="url(#3f7a5d2c57)"><g clip-path="url(#1b6b8c7cc9)"><g transform="matrix(1, 0, 0, 1, 0, 0.000000000000005692)"><g clip-path="url(#1fb2e2489d)"><g clip-path="url(#abfcc6ad10)"><g clip-path="url(#9f37556857)"><path fill="#93e85f" d="M 0.484375 0 L 29.515625 0 L 29.515625 29.03125 L 0.484375 29.03125 Z M 0.484375 0 " fill-opacity="1" fill-rule="nonzero"/></g></g></g></g></g></g><g clip-path="url(#d5b68b65d4)"><path fill="#000000" d="M 21.871094 15.785156 L 18.984375 15.785156 C 18.820312 15.785156 18.6875 15.652344 18.6875 15.488281 C 18.6875 15.324219 18.820312 15.191406 18.984375 15.191406 L 21.871094 15.191406 C 22.367188 15.191406 22.835938 15 23.191406 14.644531 C 23.542969 14.289062 23.738281 13.820312 23.738281 13.320312 C 23.738281 12.289062 22.898438 11.449219 21.871094 11.449219 C 21.753906 11.449219 21.648438 11.460938 21.535156 11.480469 C 21.457031 11.496094 21.371094 11.476562 21.304688 11.425781 C 21.238281 11.375 21.195312 11.300781 21.191406 11.214844 C 21.042969 9.644531 19.742188 8.457031 18.164062 8.457031 C 17.945312 8.457031 17.722656 8.480469 17.503906 8.53125 C 17.351562 8.566406 17.199219 8.476562 17.15625 8.324219 C 16.683594 6.714844 15.1875 5.589844 13.511719 5.589844 C 11.417969 5.589844 9.710938 7.296875 9.710938 9.398438 C 9.710938 9.40625 9.710938 9.417969 9.714844 9.433594 C 9.714844 9.449219 9.714844 9.46875 9.714844 9.488281 C 9.714844 9.578125 9.675781 9.664062 9.605469 9.71875 C 9.535156 9.777344 9.445312 9.796875 9.359375 9.777344 C 9.164062 9.738281 8.976562 9.71875 8.78125 9.71875 C 7.273438 9.71875 6.050781 10.945312 6.050781 12.453125 C 6.050781 13.964844 7.273438 15.191406 8.78125 15.191406 L 10.804688 15.191406 C 10.96875 15.191406 11.097656 15.324219 11.101562 15.488281 C 11.101562 15.652344 10.96875 15.785156 10.804688 15.785156 L 8.78125 15.785156 C 8.332031 15.785156 7.898438 15.695312 7.488281 15.523438 C 7.09375 15.355469 6.738281 15.113281 6.433594 14.808594 C 6.128906 14.503906 5.890625 14.144531 5.722656 13.75 C 5.546875 13.339844 5.460938 12.902344 5.460938 12.453125 C 5.460938 12.003906 5.546875 11.570312 5.722656 11.160156 C 5.890625 10.761719 6.128906 10.40625 6.433594 10.101562 C 6.738281 9.796875 7.09375 9.554688 7.488281 9.386719 C 7.898438 9.214844 8.332031 9.125 8.78125 9.125 C 8.898438 9.125 9.011719 9.132812 9.128906 9.144531 C 9.15625 8.640625 9.269531 8.152344 9.46875 7.6875 C 9.6875 7.160156 10.003906 6.691406 10.40625 6.289062 C 10.808594 5.882812 11.277344 5.566406 11.800781 5.34375 C 12.34375 5.113281 12.917969 5 13.511719 5 C 14 5 14.480469 5.078125 14.9375 5.234375 C 15.378906 5.386719 15.792969 5.609375 16.164062 5.894531 C 16.535156 6.175781 16.855469 6.511719 17.117188 6.894531 C 17.335938 7.207031 17.507812 7.546875 17.636719 7.90625 C 17.8125 7.878906 17.988281 7.863281 18.164062 7.863281 C 19.074219 7.863281 19.945312 8.203125 20.613281 8.820312 C 21.203125 9.363281 21.597656 10.078125 21.734375 10.863281 C 21.78125 10.859375 21.824219 10.859375 21.871094 10.859375 C 22.199219 10.859375 22.523438 10.921875 22.824219 11.050781 C 23.117188 11.175781 23.382812 11.351562 23.605469 11.578125 C 23.832031 11.804688 24.011719 12.066406 24.132812 12.359375 C 24.261719 12.664062 24.328125 12.988281 24.328125 13.320312 C 24.328125 13.976562 24.070312 14.597656 23.609375 15.0625 C 23.144531 15.527344 22.527344 15.785156 21.871094 15.785156 Z M 21.871094 15.785156 " fill-opacity="1" fill-rule="nonzero"/></g><path fill="#000000" d="M 18.984375 20.964844 C 18.820312 20.964844 18.6875 20.832031 18.6875 20.667969 L 18.6875 15.488281 C 18.6875 15.324219 18.820312 15.191406 18.984375 15.191406 C 19.148438 15.191406 19.277344 15.324219 19.277344 15.488281 L 19.277344 20.667969 C 19.277344 20.832031 19.148438 20.964844 18.984375 20.964844 Z M 18.984375 20.964844 " fill-opacity="1" fill-rule="nonzero"/><path fill="#000000" d="M 10.804688 19.632812 C 10.640625 19.632812 10.511719 19.5 10.511719 19.335938 L 10.511719 15.488281 C 10.511719 15.324219 10.640625 15.191406 10.804688 15.191406 C 10.96875 15.191406 11.101562 15.324219 11.101562 15.488281 L 11.101562 19.335938 C 11.101562 19.5 10.96875 19.632812 10.804688 19.632812 Z M 10.804688 19.632812 " fill-opacity="1" fill-rule="nonzero"/><path fill="#000000" d="M 10.804688 20.8125 C 10.316406 20.8125 9.921875 20.417969 9.921875 19.925781 C 9.921875 19.4375 10.316406 19.042969 10.804688 19.042969 C 11.292969 19.042969 11.6875 19.4375 11.6875 19.925781 C 11.6875 20.417969 11.292969 20.8125 10.804688 20.8125 Z M 10.804688 19.632812 C 10.640625 19.632812 10.511719 19.765625 10.511719 19.925781 C 10.511719 20.089844 10.640625 20.222656 10.804688 20.222656 C 10.96875 20.222656 11.101562 20.089844 11.101562 19.925781 C 11.101562 19.765625 10.96875 19.632812 10.804688 19.632812 Z M 10.804688 19.632812 " fill-opacity="1" fill-rule="nonzero"/><path fill="#000000" d="M 18.984375 22.148438 C 18.496094 22.148438 18.097656 21.75 18.097656 21.261719 C 18.097656 20.769531 18.496094 20.375 18.984375 20.375 C 19.472656 20.375 19.867188 20.769531 19.867188 21.261719 C 19.867188 21.75 19.472656 22.148438 18.984375 22.148438 Z M 18.984375 20.964844 C 18.820312 20.964844 18.6875 21.097656 18.6875 21.261719 C 18.6875 21.421875 18.820312 21.554688 18.984375 21.554688 C 19.144531 21.554688 19.277344 21.421875 19.277344 21.261719 C 19.277344 21.097656 19.144531 20.964844 18.984375 20.964844 Z M 18.984375 20.964844 " fill-opacity="1" fill-rule="nonzero"/><path fill="#000000" d="M 13.453125 22.6875 C 13.292969 22.6875 13.160156 22.554688 13.160156 22.394531 L 13.160156 14.570312 L 11.933594 13.339844 C 11.878906 13.285156 11.847656 13.210938 11.847656 13.132812 L 11.847656 11.210938 C 11.847656 11.046875 11.980469 10.914062 12.140625 10.914062 C 12.304688 10.914062 12.4375 11.046875 12.4375 11.210938 L 12.4375 13.007812 L 13.664062 14.238281 C 13.71875 14.292969 13.75 14.371094 13.75 14.449219 L 13.75 22.394531 C 13.75 22.554688 13.617188 22.6875 13.453125 22.6875 Z M 13.453125 22.6875 " fill-opacity="1" fill-rule="nonzero"/><g clip-path="url(#7906685fb4)"><path fill="#000000" d="M 13.453125 23.871094 C 12.96875 23.871094 12.570312 23.472656 12.570312 22.984375 C 12.570312 22.496094 12.96875 22.097656 13.453125 22.097656 C 13.941406 22.097656 14.339844 22.496094 14.339844 22.984375 C 14.339844 23.472656 13.941406 23.871094 13.453125 23.871094 Z M 13.453125 22.6875 C 13.292969 22.6875 13.160156 22.820312 13.160156 22.984375 C 13.160156 23.148438 13.292969 23.277344 13.453125 23.277344 C 13.617188 23.277344 13.75 23.148438 13.75 22.984375 C 13.75 22.820312 13.617188 22.6875 13.453125 22.6875 Z M 13.453125 22.6875 " fill-opacity="1" fill-rule="nonzero"/></g><path fill="#000000" d="M 12.140625 11.507812 C 11.652344 11.507812 11.257812 11.109375 11.257812 10.621094 C 11.257812 10.128906 11.652344 9.734375 12.140625 9.734375 C 12.628906 9.734375 13.027344 10.128906 13.027344 10.621094 C 13.027344 11.109375 12.628906 11.507812 12.140625 11.507812 Z M 12.140625 10.324219 C 11.980469 10.324219 11.847656 10.457031 11.847656 10.621094 C 11.847656 10.78125 11.980469 10.914062 12.140625 10.914062 C 12.304688 10.914062 12.4375 10.78125 12.4375 10.621094 C 12.4375 10.457031 12.304688 10.324219 12.140625 10.324219 Z M 12.140625 10.324219 " fill-opacity="1" fill-rule="nonzero"/><path fill="#000000" d="M 16.332031 17.949219 C 16.167969 17.949219 16.035156 17.816406 16.035156 17.652344 L 16.035156 11.777344 C 16.035156 11.699219 16.066406 11.625 16.125 11.570312 L 17.277344 10.410156 C 17.394531 10.296875 17.578125 10.296875 17.695312 10.410156 C 17.808594 10.527344 17.808594 10.714844 17.695312 10.828125 L 16.625 11.898438 L 16.625 17.652344 C 16.625 17.816406 16.496094 17.949219 16.332031 17.949219 Z M 16.332031 17.949219 " fill-opacity="1" fill-rule="nonzero"/><path fill="#000000" d="M 16.332031 19.132812 C 15.84375 19.132812 15.445312 18.734375 15.445312 18.246094 C 15.445312 17.757812 15.84375 17.359375 16.332031 17.359375 C 16.820312 17.359375 17.214844 17.757812 17.214844 18.246094 C 17.214844 18.734375 16.820312 19.132812 16.332031 19.132812 Z M 16.332031 17.949219 C 16.167969 17.949219 16.035156 18.082031 16.035156 18.246094 C 16.035156 18.40625 16.167969 18.539062 16.332031 18.539062 C 16.492188 18.539062 16.625 18.40625 16.625 18.246094 C 16.625 18.082031 16.492188 17.949219 16.332031 17.949219 Z M 16.332031 17.949219 " fill-opacity="1" fill-rule="nonzero"/><path fill="#000000" d="M 18.074219 11.507812 C 17.589844 11.507812 17.191406 11.109375 17.191406 10.621094 C 17.191406 10.128906 17.589844 9.734375 18.074219 9.734375 C 18.5625 9.734375 18.960938 10.128906 18.960938 10.621094 C 18.960938 11.109375 18.5625 11.507812 18.074219 11.507812 Z M 18.074219 10.324219 C 17.914062 10.324219 17.78125 10.457031 17.78125 10.621094 C 17.78125 10.78125 17.914062 10.914062 18.074219 10.914062 C 18.238281 10.914062 18.371094 10.78125 18.371094 10.621094 C 18.371094 10.457031 18.238281 10.324219 18.074219 10.324219 Z M 18.074219 10.324219 " fill-opacity="1" fill-rule="nonzero"/></svg>