<svg xmlns="http://www.w3.org/2000/svg" xmlns:xlink="http://www.w3.org/1999/xlink" width="500" zoomAndPan="magnify" viewBox="0 0 375 374.999991" height="500" preserveAspectRatio="xMidYMid meet" version="1.0"><defs><clipPath id="aa41bdae57"><path d="M 7.5 0 L 367.5 0 C 371.640625 0 375 3.359375 375 7.5 L 375 367.5 C 375 371.640625 371.640625 375 367.5 375 L 7.5 375 C 3.359375 375 0 371.640625 0 367.5 L 0 7.5 C 0 3.359375 3.359375 0 7.5 0 Z M 7.5 0 " clip-rule="nonzero"/></clipPath><clipPath id="26da2c7ebb"><path d="M 0 0 L 375 0 L 375 375 L 0 375 Z M 0 0 " clip-rule="nonzero"/></clipPath><clipPath id="3436e1fcb4"><path d="M 7.5 0 L 367.5 0 C 371.640625 0 375 3.359375 375 7.5 L 375 367.5 C 375 371.640625 371.640625 375 367.5 375 L 7.5 375 C 3.359375 375 0 371.640625 0 367.5 L 0 7.5 C 0 3.359375 3.359375 0 7.5 0 Z M 7.5 0 " clip-rule="nonzero"/></clipPath><clipPath id="76f8be0989"><rect x="0" width="375" y="0" height="375"/></clipPath><clipPath id="7ae8f80d26"><path d="M 12.222656 74.234375 L 225.972656 74.234375 L 225.972656 239.984375 L 12.222656 239.984375 Z M 12.222656 74.234375 " clip-rule="nonzero"/></clipPath><clipPath id="d92ac49199"><path d="M 144.042969 166.957031 L 363.042969 166.957031 L 363.042969 336.457031 L 144.042969 336.457031 Z M 144.042969 166.957031 " clip-rule="nonzero"/></clipPath><clipPath id="9873716e13"><path d="M 0.0429688 0.957031 L 218.773438 0.957031 L 218.773438 170.457031 L 0.0429688 170.457031 Z M 0.0429688 0.957031 " clip-rule="nonzero"/></clipPath><clipPath id="b2726d6e0b"><rect x="0" width="220" y="0" height="171"/></clipPath><clipPath id="511e51e361"><path d="M 147.285156 171.386719 L 361.035156 171.386719 L 361.035156 337.136719 L 147.285156 337.136719 Z M 147.285156 171.386719 " clip-rule="nonzero"/></clipPath><clipPath id="bbc8f0dff1"><path d="M 0.519531 0.386719 L 214.035156 0.386719 L 214.035156 166.136719 L 0.519531 166.136719 Z M 0.519531 0.386719 " clip-rule="nonzero"/></clipPath><clipPath id="8ed5da7089"><rect x="0" width="215" y="0" height="167"/></clipPath><clipPath id="2ed96f9309"><path d="M 65.929688 80.921875 L 172.429688 80.921875 L 172.429688 187.421875 L 65.929688 187.421875 Z M 65.929688 80.921875 " clip-rule="nonzero"/></clipPath><clipPath id="1c3147d253"><path d="M 201.28125 179.675781 L 313.78125 179.675781 L 313.78125 292.175781 L 201.28125 292.175781 Z M 201.28125 179.675781 " clip-rule="nonzero"/></clipPath></defs><g clip-path="url(#aa41bdae57)"><g transform="matrix(1, 0, 0, 1, 0, 0)"><g clip-path="url(#76f8be0989)"><g clip-path="url(#26da2c7ebb)"><g clip-path="url(#3436e1fcb4)"><rect x="-82.5" width="540" fill="#ffffff" height="539.999987" y="-82.499998" fill-opacity="1"/></g></g></g></g></g><path fill="#155655" d="M 224.507812 176.363281 C 224.507812 192.078125 211.769531 204.824219 196.050781 204.824219 L 119.179688 204.824219 L 71.734375 238.640625 L 78.898438 204.824219 L 42.3125 204.824219 C 26.597656 204.824219 13.855469 192.078125 13.855469 176.363281 L 13.855469 104.261719 C 13.855469 88.546875 26.597656 75.800781 42.3125 75.800781 L 196.050781 75.800781 C 211.769531 75.800781 224.507812 88.546875 224.507812 104.261719 L 224.507812 176.363281 " fill-opacity="1" fill-rule="nonzero"/><g clip-path="url(#7ae8f80d26)"><path fill="#155655" d="M 224.507812 176.363281 L 222.925781 176.363281 C 222.925781 183.789062 219.917969 190.496094 215.054688 195.367188 C 210.183594 200.230469 203.476562 203.238281 196.050781 203.238281 L 119.179688 203.238281 C 118.847656 203.238281 118.527344 203.339844 118.257812 203.53125 L 74.128906 234.988281 L 80.453125 205.148438 C 80.550781 204.6875 80.433594 204.195312 80.132812 203.824219 C 79.835938 203.457031 79.378906 203.238281 78.898438 203.238281 L 42.3125 203.238281 C 34.886719 203.238281 28.179688 200.230469 23.3125 195.367188 C 18.445312 190.496094 15.4375 183.789062 15.4375 176.363281 L 15.4375 104.261719 C 15.4375 96.835938 18.445312 90.128906 23.3125 85.257812 C 28.179688 80.394531 34.886719 77.390625 42.3125 77.386719 L 196.050781 77.386719 C 203.476562 77.390625 210.183594 80.394531 215.054688 85.257812 C 219.917969 90.128906 222.925781 96.835938 222.925781 104.261719 L 222.925781 176.363281 L 226.09375 176.363281 L 226.09375 104.261719 C 226.09375 87.667969 212.640625 74.21875 196.050781 74.21875 L 42.3125 74.21875 C 25.722656 74.21875 12.269531 87.667969 12.269531 104.261719 L 12.269531 176.363281 C 12.269531 192.957031 25.722656 206.40625 42.3125 206.410156 L 76.945312 206.410156 L 70.183594 238.3125 C 70.046875 238.953125 70.316406 239.609375 70.867188 239.96875 C 71.414062 240.324219 72.121094 240.3125 72.65625 239.933594 L 119.683594 206.410156 L 196.050781 206.410156 C 212.640625 206.40625 226.09375 192.957031 226.09375 176.363281 L 224.507812 176.363281 " fill-opacity="1" fill-rule="nonzero"/></g><g clip-path="url(#d92ac49199)"><g transform="matrix(1, 0, 0, 1, 144, 166)"><g clip-path="url(#b2726d6e0b)"><path fill="#ffffff" d="M 1.773438 105.351562 C 1.773438 121.421875 14.796875 134.449219 30.863281 134.449219 L 109.441406 134.449219 L 157.941406 169.019531 L 150.617188 134.449219 L 188.019531 134.449219 C 204.082031 134.449219 217.109375 121.421875 217.109375 105.351562 L 217.109375 31.652344 C 217.109375 15.585938 204.082031 2.558594 188.019531 2.558594 L 30.863281 2.558594 C 14.796875 2.558594 1.773438 15.585938 1.773438 31.652344 L 1.773438 105.351562 " fill-opacity="1" fill-rule="nonzero"/><g clip-path="url(#9873716e13)"><path fill="#ffffff" d="M 1.773438 105.351562 L 3.394531 105.351562 C 3.394531 112.945312 6.464844 119.804688 11.4375 124.78125 C 16.414062 129.753906 23.273438 132.828125 30.863281 132.828125 L 109.441406 132.828125 C 109.78125 132.828125 110.109375 132.929688 110.382812 133.128906 L 155.496094 165.285156 L 149.03125 134.78125 C 148.933594 134.308594 149.050781 133.804688 149.355469 133.425781 C 149.664062 133.050781 150.128906 132.828125 150.617188 132.828125 L 188.019531 132.828125 C 195.609375 132.828125 202.464844 129.753906 207.441406 124.78125 C 212.417969 119.804688 215.488281 112.945312 215.488281 105.351562 L 215.488281 31.652344 C 215.488281 24.0625 212.417969 17.203125 207.441406 12.226562 C 202.464844 7.253906 195.609375 4.179688 188.019531 4.179688 L 30.863281 4.179688 C 23.273438 4.179688 16.414062 7.253906 11.4375 12.226562 C 6.464844 17.203125 3.394531 24.0625 3.394531 31.652344 L 3.394531 105.351562 L 0.152344 105.351562 L 0.152344 31.652344 C 0.152344 14.691406 13.902344 0.941406 30.863281 0.9375 L 188.019531 0.9375 C 204.980469 0.941406 218.730469 14.691406 218.730469 31.652344 L 218.730469 105.351562 C 218.730469 122.316406 204.980469 136.066406 188.019531 136.066406 L 152.613281 136.066406 L 159.527344 168.679688 C 159.667969 169.335938 159.390625 170.003906 158.828125 170.371094 C 158.269531 170.738281 157.550781 170.726562 157.003906 170.335938 L 108.925781 136.066406 L 30.863281 136.066406 C 13.902344 136.066406 0.152344 122.316406 0.152344 105.351562 L 1.773438 105.351562 " fill-opacity="1" fill-rule="nonzero"/></g></g></g></g><g clip-path="url(#511e51e361)"><g transform="matrix(1, 0, 0, 1, 147, 171)"><g clip-path="url(#8ed5da7089)"><path fill="#93e85f" d="M 1.980469 102.515625 C 1.980469 118.230469 14.722656 130.976562 30.441406 130.976562 L 107.308594 130.976562 L 154.753906 164.792969 L 147.589844 130.976562 L 184.175781 130.976562 C 199.894531 130.976562 212.636719 118.230469 212.636719 102.515625 L 212.636719 30.414062 C 212.636719 14.699219 199.894531 1.953125 184.175781 1.953125 L 30.441406 1.953125 C 14.722656 1.953125 1.980469 14.699219 1.980469 30.414062 L 1.980469 102.515625 " fill-opacity="1" fill-rule="nonzero"/><g clip-path="url(#bbc8f0dff1)"><path fill="#93e85f" d="M 1.980469 102.515625 L 3.566406 102.515625 C 3.566406 109.941406 6.574219 116.648438 11.4375 121.519531 C 16.304688 126.382812 23.015625 129.390625 30.441406 129.390625 L 107.308594 129.390625 C 107.640625 129.390625 107.960938 129.492188 108.230469 129.6875 L 152.363281 161.140625 L 146.039062 131.304688 C 145.941406 130.839844 146.058594 130.347656 146.355469 129.976562 C 146.65625 129.609375 147.113281 129.390625 147.589844 129.390625 L 184.175781 129.390625 C 191.601562 129.390625 198.3125 126.382812 203.179688 121.519531 C 208.046875 116.648438 211.050781 109.941406 211.050781 102.515625 L 211.050781 30.414062 C 211.050781 22.988281 208.046875 16.28125 203.179688 11.410156 C 198.3125 6.546875 191.601562 3.542969 184.175781 3.539062 L 30.441406 3.539062 C 23.015625 3.542969 16.304688 6.546875 11.4375 11.410156 C 6.574219 16.28125 3.566406 22.988281 3.566406 30.414062 L 3.566406 102.515625 L 0.398438 102.515625 L 0.398438 30.414062 C 0.398438 13.820312 13.847656 0.371094 30.441406 0.371094 L 184.175781 0.371094 C 200.769531 0.371094 214.222656 13.820312 214.222656 30.414062 L 214.222656 102.515625 C 214.222656 119.109375 200.769531 132.558594 184.175781 132.5625 L 149.542969 132.5625 L 156.308594 164.464844 C 156.445312 165.105469 156.171875 165.761719 155.625 166.121094 C 155.078125 166.476562 154.371094 166.464844 153.835938 166.085938 L 106.804688 132.5625 L 30.441406 132.5625 C 13.847656 132.558594 0.398438 119.109375 0.398438 102.515625 L 1.980469 102.515625 " fill-opacity="1" fill-rule="nonzero"/></g></g></g></g><path fill="#ffffff" d="M 119.207031 164.648438 C 106.292969 164.648438 95.0625 157.265625 90.601562 145.835938 L 95.332031 143.996094 C 99.027344 153.457031 108.398438 159.574219 119.207031 159.574219 C 130.015625 159.574219 139.386719 153.457031 143.085938 143.996094 L 147.8125 145.835938 C 143.351562 157.265625 132.125 164.648438 119.210938 164.648438 Z M 119.207031 164.648438 " fill-opacity="1" fill-rule="nonzero"/><path fill="#ffffff" d="M 147.296875 121.511719 L 142.222656 121.511719 C 142.222656 120.492188 140.015625 118.976562 136.964844 118.976562 C 133.917969 118.976562 131.710938 120.492188 131.710938 121.511719 L 126.636719 121.511719 C 126.636719 117.246094 131.171875 113.898438 136.964844 113.898438 C 142.757812 113.898438 147.296875 117.242188 147.296875 121.511719 Z M 147.296875 121.511719 " fill-opacity="1" fill-rule="nonzero"/><path fill="#ffffff" d="M 111.773438 121.511719 L 106.695312 121.511719 C 106.695312 120.492188 104.492188 118.976562 101.441406 118.976562 C 98.394531 118.976562 96.1875 120.492188 96.1875 121.511719 L 91.113281 121.511719 C 91.113281 117.246094 95.648438 113.898438 101.441406 113.898438 C 107.234375 113.898438 111.773438 117.242188 111.773438 121.511719 Z M 111.773438 121.511719 " fill-opacity="1" fill-rule="nonzero"/><g clip-path="url(#2ed96f9309)"><path fill="#ffffff" d="M 119.207031 187.484375 C 89.824219 187.484375 65.921875 163.582031 65.921875 134.199219 C 65.921875 104.820312 89.824219 80.914062 119.207031 80.914062 C 148.589844 80.914062 172.492188 104.816406 172.492188 134.199219 C 172.492188 163.578125 148.585938 187.484375 119.207031 187.484375 Z M 119.207031 85.988281 C 92.621094 85.988281 70.992188 107.617188 70.992188 134.199219 C 70.992188 160.785156 92.621094 182.414062 119.207031 182.414062 C 145.789062 182.414062 167.417969 160.785156 167.417969 134.199219 C 167.417969 107.617188 145.789062 85.988281 119.207031 85.988281 Z M 119.207031 85.988281 " fill-opacity="1" fill-rule="nonzero"/></g><g clip-path="url(#1c3147d253)"><path fill="#ffffff" d="M 257.679688 185.941406 C 256.71875 185.9375 255.761719 185.964844 254.804688 186.019531 C 253.847656 186.074219 252.894531 186.152344 251.941406 186.261719 C 250.988281 186.371094 250.039062 186.507812 249.09375 186.667969 C 248.152344 186.832031 247.210938 187.023438 246.277344 187.238281 C 245.34375 187.457031 244.417969 187.699219 243.496094 187.96875 C 242.578125 188.238281 241.664062 188.535156 240.761719 188.855469 C 239.859375 189.179688 238.96875 189.527344 238.085938 189.898438 C 237.199219 190.273438 236.328125 190.671875 235.46875 191.09375 C 234.609375 191.515625 233.761719 191.964844 232.925781 192.4375 C 232.09375 192.90625 231.273438 193.402344 230.464844 193.921875 C 229.660156 194.441406 228.871094 194.980469 228.09375 195.546875 C 227.320312 196.109375 226.558594 196.695312 225.820312 197.300781 C 225.078125 197.910156 224.355469 198.539062 223.648438 199.1875 C 222.941406 199.835938 222.257812 200.503906 221.589844 201.191406 C 220.921875 201.882812 220.273438 202.585938 219.648438 203.3125 C 219.019531 204.039062 218.414062 204.78125 217.832031 205.539062 C 217.246094 206.300781 216.683594 207.078125 216.144531 207.871094 C 215.605469 208.660156 215.089844 209.46875 214.59375 210.289062 C 214.101562 211.113281 213.632812 211.945312 213.1875 212.796875 C 212.738281 213.644531 212.320312 214.503906 211.921875 215.378906 C 211.527344 216.25 211.15625 217.132812 210.808594 218.027344 C 210.464844 218.921875 210.144531 219.824219 209.851562 220.738281 C 209.554688 221.652344 209.289062 222.570312 209.046875 223.5 C 208.804688 224.425781 208.589844 225.359375 208.402344 226.300781 C 208.214844 227.238281 208.054688 228.183594 207.921875 229.132812 C 207.789062 230.082031 207.679688 231.035156 207.601562 231.992188 C 207.523438 232.945312 207.472656 233.902344 207.445312 234.863281 C 207.421875 235.820312 207.425781 236.777344 207.457031 237.734375 C 207.488281 238.695312 207.542969 239.652344 207.628906 240.605469 C 207.714844 241.558594 207.828125 242.511719 207.96875 243.460938 C 208.109375 244.410156 208.273438 245.351562 208.46875 246.289062 C 208.664062 247.230469 208.882812 248.164062 209.132812 249.089844 C 209.378906 250.015625 209.652344 250.933594 209.953125 251.84375 C 210.253906 252.753906 210.578125 253.65625 210.929688 254.546875 C 211.28125 255.4375 211.660156 256.320312 212.0625 257.191406 C 212.464844 258.058594 212.890625 258.917969 213.339844 259.761719 C 213.792969 260.609375 214.265625 261.441406 214.765625 262.257812 C 215.265625 263.078125 215.789062 263.882812 216.332031 264.671875 C 216.878906 265.460938 217.445312 266.230469 218.035156 266.988281 C 218.625 267.742188 219.234375 268.480469 219.867188 269.203125 C 220.496094 269.925781 221.148438 270.625 221.820312 271.3125 C 222.492188 271.996094 223.183594 272.660156 223.894531 273.300781 C 224.601562 273.945312 225.332031 274.570312 226.078125 275.171875 C 226.820312 275.773438 227.585938 276.355469 228.363281 276.914062 C 229.140625 277.472656 229.9375 278.007812 230.746094 278.523438 C 231.554688 279.035156 232.378906 279.527344 233.214844 279.992188 C 234.054688 280.457031 234.90625 280.898438 235.765625 281.316406 C 236.628906 281.734375 237.503906 282.128906 238.390625 282.496094 C 239.277344 282.863281 240.171875 283.203125 241.074219 283.519531 C 241.980469 283.835938 242.894531 284.125 243.816406 284.390625 C 244.738281 284.652344 245.664062 284.890625 246.601562 285.101562 C 247.535156 285.3125 248.476562 285.496094 249.421875 285.652344 C 250.367188 285.808594 251.316406 285.9375 252.269531 286.039062 C 253.222656 286.140625 254.179688 286.214844 255.136719 286.265625 C 256.09375 286.3125 257.050781 286.332031 258.011719 286.324219 C 258.96875 286.316406 259.925781 286.28125 260.882812 286.21875 C 261.839844 286.15625 262.792969 286.066406 263.746094 285.949219 C 264.695312 285.835938 265.644531 285.691406 266.585938 285.519531 C 267.53125 285.347656 268.46875 285.148438 269.398438 284.925781 C 270.332031 284.699219 271.257812 284.449219 272.175781 284.171875 C 273.089844 283.894531 274 283.589844 274.898438 283.257812 C 275.800781 282.929688 276.691406 282.574219 277.570312 282.191406 C 278.449219 281.8125 279.316406 281.40625 280.175781 280.976562 C 281.03125 280.542969 281.875 280.089844 282.703125 279.609375 C 283.535156 279.132812 284.351562 278.628906 285.152344 278.101562 C 285.953125 277.578125 286.738281 277.027344 287.507812 276.457031 C 288.28125 275.886719 289.03125 275.296875 289.769531 274.679688 C 290.503906 274.066406 291.222656 273.433594 291.921875 272.777344 C 292.625 272.121094 293.304688 271.449219 293.964844 270.753906 C 294.625 270.058594 295.265625 269.347656 295.886719 268.617188 C 296.507812 267.886719 297.105469 267.136719 297.683594 266.371094 C 298.261719 265.609375 298.816406 264.828125 299.351562 264.03125 C 299.882812 263.234375 300.390625 262.421875 300.878906 261.59375 C 301.363281 260.769531 301.828125 259.929688 302.265625 259.078125 C 302.703125 258.222656 303.117188 257.359375 303.503906 256.484375 C 303.894531 255.609375 304.257812 254.722656 304.59375 253.824219 C 304.933594 252.925781 305.246094 252.019531 305.53125 251.105469 C 305.816406 250.191406 306.078125 249.269531 306.308594 248.339844 C 306.542969 247.410156 306.75 246.472656 306.929688 245.53125 C 307.109375 244.589844 307.261719 243.644531 307.386719 242.691406 C 307.511719 241.742188 307.609375 240.789062 307.679688 239.832031 C 307.75 238.878906 307.792969 237.921875 307.808594 236.960938 C 307.824219 236.003906 307.8125 235.046875 307.773438 234.085938 C 307.734375 233.128906 307.667969 232.171875 307.574219 231.21875 C 307.480469 230.265625 307.359375 229.316406 307.210938 228.367188 C 307.0625 227.421875 306.886719 226.480469 306.6875 225.542969 C 306.484375 224.605469 306.253906 223.675781 306 222.75 C 305.742188 221.828125 305.460938 220.910156 305.152344 220.003906 C 304.847656 219.09375 304.511719 218.195312 304.152344 217.308594 C 303.792969 216.417969 303.410156 215.542969 303 214.675781 C 302.589844 213.808594 302.15625 212.953125 301.695312 212.113281 C 301.238281 211.269531 300.753906 210.441406 300.25 209.628906 C 299.742188 208.816406 299.214844 208.015625 298.660156 207.234375 C 298.109375 206.449219 297.535156 205.679688 296.9375 204.929688 C 296.34375 204.179688 295.726562 203.445312 295.089844 202.730469 C 294.449219 202.015625 293.792969 201.320312 293.113281 200.640625 C 290.789062 198.3125 288.257812 196.234375 285.519531 194.40625 C 282.785156 192.578125 279.898438 191.03125 276.855469 189.769531 C 273.816406 188.507812 270.683594 187.558594 267.457031 186.914062 C 264.230469 186.269531 260.96875 185.945312 257.679688 185.941406 M 257.679688 179.675781 C 259.527344 179.675781 261.367188 179.765625 263.207031 179.945312 C 265.042969 180.125 266.871094 180.398438 268.679688 180.757812 C 270.492188 181.117188 272.28125 181.566406 274.050781 182.101562 C 275.816406 182.636719 277.554688 183.261719 279.261719 183.964844 C 280.96875 184.671875 282.636719 185.460938 284.265625 186.332031 C 285.894531 187.203125 287.476562 188.152344 289.011719 189.179688 C 290.546875 190.203125 292.027344 191.304688 293.457031 192.476562 C 294.882812 193.648438 296.25 194.886719 297.558594 196.191406 C 298.863281 197.5 300.101562 198.863281 301.273438 200.292969 C 302.445312 201.71875 303.542969 203.203125 304.570312 204.738281 C 305.597656 206.273438 306.546875 207.855469 307.417969 209.484375 C 308.285156 211.113281 309.074219 212.78125 309.78125 214.488281 C 310.488281 216.195312 311.109375 217.933594 311.648438 219.699219 C 312.183594 221.46875 312.632812 223.257812 312.992188 225.066406 C 313.351562 226.878906 313.621094 228.703125 313.804688 230.542969 C 313.984375 232.378906 314.074219 234.222656 314.074219 236.070312 C 314.074219 237.917969 313.984375 239.761719 313.804688 241.597656 C 313.621094 243.4375 313.351562 245.261719 312.992188 247.074219 C 312.632812 248.882812 312.183594 250.675781 311.648438 252.441406 C 311.109375 254.207031 310.488281 255.945312 309.78125 257.652344 C 309.074219 259.359375 308.285156 261.027344 307.417969 262.65625 C 306.546875 264.285156 305.597656 265.867188 304.570312 267.402344 C 303.542969 268.9375 302.445312 270.421875 301.273438 271.847656 C 300.101562 273.277344 298.863281 274.644531 297.558594 275.949219 C 296.25 277.253906 294.882812 278.492188 293.457031 279.664062 C 292.027344 280.835938 290.546875 281.9375 289.011719 282.960938 C 287.476562 283.988281 285.894531 284.9375 284.265625 285.808594 C 282.636719 286.679688 280.96875 287.46875 279.261719 288.175781 C 277.554688 288.878906 275.816406 289.503906 274.050781 290.039062 C 272.28125 290.574219 270.492188 291.023438 268.679688 291.382812 C 266.871094 291.742188 265.042969 292.015625 263.207031 292.195312 C 261.367188 292.375 259.527344 292.46875 257.679688 292.46875 C 255.832031 292.46875 253.988281 292.375 252.152344 292.195312 C 250.3125 292.015625 248.488281 291.742188 246.675781 291.382812 C 244.863281 291.023438 243.074219 290.574219 241.308594 290.039062 C 239.539062 289.503906 237.804688 288.878906 236.097656 288.175781 C 234.390625 287.46875 232.722656 286.679688 231.09375 285.808594 C 229.464844 284.9375 227.882812 283.988281 226.347656 282.960938 C 224.8125 281.9375 223.328125 280.835938 221.902344 279.664062 C 220.472656 278.492188 219.105469 277.253906 217.800781 275.949219 C 216.496094 274.644531 215.253906 273.277344 214.082031 271.847656 C 212.914062 270.421875 211.8125 268.9375 210.785156 267.402344 C 209.761719 265.867188 208.8125 264.285156 207.941406 262.65625 C 207.070312 261.027344 206.28125 259.359375 205.574219 257.652344 C 204.867188 255.945312 204.246094 254.207031 203.710938 252.441406 C 203.175781 250.675781 202.726562 248.882812 202.367188 247.074219 C 202.003906 245.261719 201.734375 243.4375 201.554688 241.597656 C 201.371094 239.761719 201.28125 237.917969 201.28125 236.070312 C 201.285156 234.222656 201.375 232.382812 201.558594 230.542969 C 201.742188 228.707031 202.015625 226.882812 202.375 225.074219 C 202.738281 223.261719 203.1875 221.472656 203.726562 219.707031 C 204.261719 217.941406 204.882812 216.203125 205.59375 214.5 C 206.300781 212.792969 207.089844 211.125 207.960938 209.496094 C 208.832031 207.871094 209.78125 206.289062 210.804688 204.753906 C 211.832031 203.21875 212.929688 201.738281 214.101562 200.308594 C 215.273438 198.882812 216.511719 197.515625 217.820312 196.210938 C 219.125 194.90625 220.492188 193.667969 221.917969 192.496094 C 223.34375 191.324219 224.828125 190.222656 226.363281 189.199219 C 227.898438 188.171875 229.476562 187.222656 231.105469 186.351562 C 232.734375 185.480469 234.402344 184.691406 236.105469 183.984375 C 237.8125 183.277344 239.546875 182.652344 241.316406 182.117188 C 243.082031 181.578125 244.871094 181.128906 246.679688 180.769531 C 248.492188 180.40625 250.316406 180.132812 252.152344 179.949219 C 253.992188 179.769531 255.832031 179.675781 257.679688 179.675781 Z M 257.679688 179.675781 " fill-opacity="1" fill-rule="nonzero"/></g><path fill="#ffffff" d="M 245.144531 223.539062 C 245.144531 223.949219 245.105469 224.355469 245.027344 224.761719 C 244.945312 225.164062 244.828125 225.554688 244.667969 225.9375 C 244.511719 226.316406 244.320312 226.675781 244.089844 227.019531 C 243.863281 227.359375 243.601562 227.679688 243.3125 227.96875 C 243.019531 228.257812 242.703125 228.519531 242.363281 228.746094 C 242.019531 228.976562 241.660156 229.167969 241.277344 229.328125 C 240.898438 229.484375 240.507812 229.601562 240.101562 229.683594 C 239.699219 229.765625 239.292969 229.804688 238.878906 229.804688 C 238.46875 229.804688 238.0625 229.765625 237.65625 229.683594 C 237.253906 229.601562 236.863281 229.484375 236.480469 229.328125 C 236.101562 229.167969 235.742188 228.976562 235.398438 228.746094 C 235.058594 228.519531 234.738281 228.257812 234.449219 227.96875 C 234.160156 227.679688 233.898438 227.359375 233.667969 227.019531 C 233.441406 226.675781 233.25 226.316406 233.089844 225.9375 C 232.933594 225.554688 232.816406 225.164062 232.734375 224.761719 C 232.652344 224.355469 232.613281 223.949219 232.613281 223.539062 C 232.613281 223.125 232.652344 222.71875 232.734375 222.316406 C 232.816406 221.910156 232.933594 221.519531 233.089844 221.140625 C 233.25 220.757812 233.441406 220.398438 233.667969 220.054688 C 233.898438 219.714844 234.160156 219.398438 234.449219 219.105469 C 234.738281 218.816406 235.058594 218.554688 235.398438 218.328125 C 235.742188 218.097656 236.101562 217.90625 236.480469 217.75 C 236.863281 217.589844 237.253906 217.472656 237.65625 217.390625 C 238.0625 217.3125 238.46875 217.273438 238.878906 217.273438 C 239.292969 217.273438 239.699219 217.3125 240.101562 217.390625 C 240.507812 217.472656 240.898438 217.589844 241.277344 217.75 C 241.660156 217.90625 242.019531 218.097656 242.363281 218.328125 C 242.703125 218.554688 243.019531 218.816406 243.3125 219.105469 C 243.601562 219.398438 243.863281 219.714844 244.089844 220.054688 C 244.320312 220.398438 244.511719 220.757812 244.667969 221.140625 C 244.828125 221.519531 244.945312 221.910156 245.027344 222.316406 C 245.105469 222.71875 245.144531 223.125 245.144531 223.539062 Z M 245.144531 223.539062 " fill-opacity="1" fill-rule="nonzero"/><path fill="#ffffff" d="M 282.742188 223.539062 C 282.742188 223.949219 282.703125 224.355469 282.625 224.761719 C 282.542969 225.164062 282.425781 225.554688 282.265625 225.9375 C 282.109375 226.316406 281.917969 226.675781 281.6875 227.019531 C 281.460938 227.359375 281.199219 227.679688 280.910156 227.96875 C 280.617188 228.257812 280.300781 228.519531 279.960938 228.746094 C 279.617188 228.976562 279.257812 229.167969 278.875 229.328125 C 278.496094 229.484375 278.105469 229.601562 277.699219 229.683594 C 277.296875 229.765625 276.890625 229.804688 276.476562 229.804688 C 276.066406 229.804688 275.660156 229.765625 275.253906 229.683594 C 274.851562 229.601562 274.460938 229.484375 274.078125 229.328125 C 273.699219 229.167969 273.339844 228.976562 272.996094 228.746094 C 272.652344 228.519531 272.335938 228.257812 272.046875 227.96875 C 271.757812 227.679688 271.496094 227.359375 271.265625 227.019531 C 271.039062 226.675781 270.847656 226.316406 270.6875 225.9375 C 270.53125 225.554688 270.414062 225.164062 270.332031 224.761719 C 270.25 224.355469 270.210938 223.949219 270.210938 223.539062 C 270.210938 223.125 270.25 222.71875 270.332031 222.316406 C 270.414062 221.910156 270.53125 221.519531 270.6875 221.140625 C 270.847656 220.757812 271.039062 220.398438 271.265625 220.054688 C 271.496094 219.714844 271.757812 219.398438 272.046875 219.105469 C 272.335938 218.816406 272.652344 218.554688 272.996094 218.328125 C 273.339844 218.097656 273.699219 217.90625 274.078125 217.75 C 274.460938 217.589844 274.851562 217.472656 275.253906 217.390625 C 275.660156 217.3125 276.066406 217.273438 276.476562 217.273438 C 276.890625 217.273438 277.296875 217.3125 277.699219 217.390625 C 278.105469 217.472656 278.496094 217.589844 278.875 217.75 C 279.257812 217.90625 279.617188 218.097656 279.960938 218.328125 C 280.300781 218.554688 280.617188 218.816406 280.910156 219.105469 C 281.199219 219.398438 281.460938 219.714844 281.6875 220.054688 C 281.917969 220.398438 282.109375 220.757812 282.265625 221.140625 C 282.425781 221.519531 282.542969 221.910156 282.625 222.316406 C 282.703125 222.71875 282.742188 223.125 282.742188 223.539062 Z M 282.742188 223.539062 " fill-opacity="1" fill-rule="nonzero"/><path fill="#ffffff" d="M 286.480469 257.390625 C 286.773438 257.6875 287 258.023438 287.160156 258.410156 C 287.316406 258.792969 287.398438 259.191406 287.398438 259.609375 C 287.398438 260.023438 287.316406 260.421875 287.160156 260.804688 C 287 261.191406 286.773438 261.527344 286.480469 261.824219 C 286.1875 262.117188 285.847656 262.34375 285.464844 262.503906 C 285.078125 262.660156 284.679688 262.742188 284.265625 262.742188 C 283.847656 262.742188 283.449219 262.660156 283.066406 262.503906 C 282.679688 262.34375 282.34375 262.117188 282.046875 261.824219 C 281.25 261.027344 280.414062 260.269531 279.539062 259.554688 C 278.667969 258.839844 277.761719 258.167969 276.824219 257.542969 C 275.882812 256.917969 274.917969 256.339844 273.921875 255.808594 C 272.925781 255.277344 271.90625 254.792969 270.863281 254.363281 C 269.820312 253.933594 268.761719 253.554688 267.679688 253.226562 C 266.601562 252.898438 265.507812 252.625 264.398438 252.40625 C 263.292969 252.183594 262.179688 252.019531 261.054688 251.910156 C 259.933594 251.800781 258.808594 251.746094 257.679688 251.746094 C 256.550781 251.746094 255.425781 251.800781 254.300781 251.910156 C 253.179688 252.019531 252.0625 252.183594 250.957031 252.40625 C 249.851562 252.625 248.757812 252.898438 247.675781 253.226562 C 246.597656 253.554688 245.535156 253.933594 244.492188 254.363281 C 243.449219 254.792969 242.429688 255.277344 241.433594 255.808594 C 240.4375 256.339844 239.472656 256.917969 238.535156 257.542969 C 237.59375 258.167969 236.6875 258.839844 235.816406 259.554688 C 234.941406 260.269531 234.105469 261.027344 233.308594 261.824219 C 233.015625 262.117188 232.675781 262.34375 232.292969 262.503906 C 231.90625 262.660156 231.507812 262.742188 231.09375 262.742188 C 230.675781 262.742188 230.277344 262.660156 229.894531 262.503906 C 229.511719 262.34375 229.171875 262.117188 228.878906 261.824219 C 228.582031 261.527344 228.355469 261.191406 228.199219 260.804688 C 228.039062 260.421875 227.960938 260.023438 227.960938 259.609375 C 227.960938 259.191406 228.039062 258.792969 228.199219 258.410156 C 228.355469 258.023438 228.582031 257.6875 228.878906 257.390625 C 229.820312 256.449219 230.808594 255.554688 231.839844 254.710938 C 232.871094 253.867188 233.941406 253.074219 235.050781 252.335938 C 236.160156 251.59375 237.304688 250.910156 238.480469 250.28125 C 239.65625 249.65625 240.863281 249.085938 242.09375 248.574219 C 243.328125 248.066406 244.582031 247.617188 245.859375 247.230469 C 247.132812 246.84375 248.425781 246.523438 249.734375 246.261719 C 251.042969 246.003906 252.359375 245.808594 253.6875 245.675781 C 255.015625 245.546875 256.34375 245.480469 257.679688 245.480469 C 259.011719 245.480469 260.34375 245.546875 261.667969 245.675781 C 262.996094 245.808594 264.3125 246.003906 265.621094 246.261719 C 266.929688 246.523438 268.222656 246.84375 269.5 247.230469 C 270.773438 247.617188 272.03125 248.066406 273.261719 248.574219 C 274.496094 249.085938 275.699219 249.65625 276.875 250.28125 C 278.050781 250.910156 279.195312 251.59375 280.304688 252.335938 C 281.414062 253.074219 282.484375 253.867188 283.515625 254.710938 C 284.546875 255.554688 285.535156 256.449219 286.480469 257.390625 Z M 286.480469 257.390625 " fill-opacity="1" fill-rule="nonzero"/></svg>