<svg xmlns="http://www.w3.org/2000/svg" xmlns:xlink="http://www.w3.org/1999/xlink" width="40" zoomAndPan="magnify" viewBox="0 0 30 30.000001" height="40" preserveAspectRatio="xMidYMid meet" version="1.0"><defs><g/><clipPath id="de6f11c8c6"><path d="M 0.484375 0 L 29.515625 0 L 29.515625 29.03125 L 0.484375 29.03125 Z M 0.484375 0 " clip-rule="nonzero"/></clipPath><clipPath id="11993389d1"><path d="M 0.484375 0 L 29.515625 0 L 29.515625 29.03125 L 0.484375 29.03125 Z M 0.484375 0 " clip-rule="nonzero"/></clipPath><clipPath id="930c9f0360"><path d="M 1.933594 0 L 28.066406 0 C 28.867188 0 29.515625 0.648438 29.515625 1.453125 L 29.515625 27.582031 C 29.515625 28.382812 28.867188 29.03125 28.066406 29.03125 L 1.933594 29.03125 C 1.132812 29.03125 0.484375 28.382812 0.484375 27.582031 L 0.484375 1.453125 C 0.484375 0.648438 1.132812 0 1.933594 0 Z M 1.933594 0 " clip-rule="nonzero"/></clipPath><clipPath id="d52f26a218"><path d="M 0.484375 0 L 29.515625 0 L 29.515625 29.03125 L 0.484375 29.03125 Z M 0.484375 0 " clip-rule="nonzero"/></clipPath><clipPath id="ed691a976c"><path d="M 1.933594 0 L 28.066406 0 C 28.867188 0 29.515625 0.648438 29.515625 1.453125 L 29.515625 27.582031 C 29.515625 28.382812 28.867188 29.03125 28.066406 29.03125 L 1.933594 29.03125 C 1.132812 29.03125 0.484375 28.382812 0.484375 27.582031 L 0.484375 1.453125 C 0.484375 0.648438 1.132812 0 1.933594 0 Z M 1.933594 0 " clip-rule="nonzero"/></clipPath><clipPath id="40afe0e131"><rect x="0" width="30" y="0" height="30"/></clipPath><clipPath id="7ac1132a2a"><rect x="0" width="25" y="0" height="18"/></clipPath></defs><g clip-path="url(#de6f11c8c6)"><path fill="#ffffff" d="M 0.484375 0 L 29.515625 0 L 29.515625 29.03125 L 0.484375 29.03125 Z M 0.484375 0 " fill-opacity="1" fill-rule="nonzero"/><path fill="#ffffff" d="M 0.484375 0 L 29.515625 0 L 29.515625 29.03125 L 0.484375 29.03125 Z M 0.484375 0 " fill-opacity="1" fill-rule="nonzero"/></g><g clip-path="url(#11993389d1)"><g clip-path="url(#930c9f0360)"><g transform="matrix(1, 0, 0, 1, 0, 0.000000000000005692)"><g clip-path="url(#40afe0e131)"><g clip-path="url(#d52f26a218)"><g clip-path="url(#ed691a976c)"><path fill="#93e85f" d="M 0.484375 0 L 29.515625 0 L 29.515625 29.03125 L 0.484375 29.03125 Z M 0.484375 0 " fill-opacity="1" fill-rule="nonzero"/></g></g></g></g></g></g><g transform="matrix(1, 0, 0, 1, 3, 7)"><g clip-path="url(#7ac1132a2a)"><g fill="#000000" fill-opacity="1"><g transform="translate(1.387786, 14.557876)"><g><path d="M 2.746094 -11.582031 L 4.328125 -11.582031 C 5.070312 -11.582031 5.640625 -11.386719 6.039062 -10.988281 C 6.433594 -10.59375 6.632812 -10.023438 6.632812 -9.28125 L 6.632812 -7.78125 C 6.632812 -7.632812 6.585938 -7.511719 6.496094 -7.421875 C 6.40625 -7.332031 6.289062 -7.289062 6.140625 -7.289062 L 4.667969 -7.289062 C 4.519531 -7.289062 4.402344 -7.332031 4.3125 -7.421875 C 4.222656 -7.511719 4.175781 -7.632812 4.175781 -7.78125 L 4.175781 -8.882812 C 4.175781 -9 4.15625 -9.078125 4.113281 -9.121094 C 4.070312 -9.164062 3.992188 -9.183594 3.875 -9.183594 L 3.195312 -9.183594 C 3.082031 -9.183594 3.003906 -9.164062 2.960938 -9.121094 C 2.917969 -9.078125 2.898438 -9 2.898438 -8.882812 L 2.898438 -6.933594 L 2.632812 -6.933594 L 2.714844 -7.183594 L 6.089844 -6.078125 L 6.101562 -6.074219 C 6.269531 -6 6.402344 -5.902344 6.492188 -5.773438 C 6.585938 -5.640625 6.632812 -5.484375 6.632812 -5.304688 L 6.632812 -2.039062 C 6.632812 -1.304688 6.433594 -0.738281 6.039062 -0.335938 C 5.640625 0.0664062 5.074219 0.265625 4.328125 0.265625 L 2.746094 0.265625 C 2.011719 0.265625 1.445312 0.0664062 1.042969 -0.335938 C 0.640625 -0.738281 0.441406 -1.304688 0.441406 -2.039062 L 0.441406 -3.523438 C 0.441406 -3.671875 0.488281 -3.789062 0.578125 -3.878906 C 0.664062 -3.96875 0.785156 -4.015625 0.933594 -4.015625 L 2.40625 -4.015625 C 2.554688 -4.015625 2.671875 -3.96875 2.761719 -3.878906 C 2.851562 -3.789062 2.898438 -3.671875 2.898438 -3.523438 L 2.898438 -2.433594 C 2.898438 -2.316406 2.917969 -2.238281 2.960938 -2.195312 C 3.003906 -2.152344 3.082031 -2.132812 3.195312 -2.132812 L 3.875 -2.132812 C 3.992188 -2.132812 4.070312 -2.152344 4.113281 -2.195312 C 4.15625 -2.238281 4.175781 -2.316406 4.175781 -2.433594 L 4.175781 -4.316406 L 4.441406 -4.316406 L 4.359375 -4.0625 L 1.007812 -5.167969 C 0.824219 -5.226562 0.683594 -5.324219 0.589844 -5.457031 C 0.492188 -5.589844 0.441406 -5.753906 0.441406 -5.941406 L 0.441406 -9.28125 C 0.441406 -10.023438 0.644531 -10.59375 1.042969 -10.992188 C 1.445312 -11.386719 2.011719 -11.582031 2.746094 -11.582031 Z M 2.746094 -11.050781 C 2.15625 -11.050781 1.714844 -10.90625 1.417969 -10.613281 C 1.121094 -10.320312 0.972656 -9.875 0.972656 -9.28125 L 0.972656 -5.941406 C 0.972656 -5.867188 0.988281 -5.808594 1.015625 -5.769531 C 1.046875 -5.726562 1.097656 -5.695312 1.171875 -5.671875 L 4.707031 -4.507812 L 4.707031 -2.433594 C 4.707031 -2.171875 4.632812 -1.96875 4.488281 -1.820312 C 4.34375 -1.675781 4.136719 -1.601562 3.875 -1.601562 L 3.195312 -1.601562 C 2.933594 -1.601562 2.730469 -1.675781 2.585938 -1.820312 C 2.4375 -1.96875 2.367188 -2.171875 2.367188 -2.433594 L 2.367188 -3.523438 C 2.367188 -3.527344 2.367188 -3.535156 2.363281 -3.539062 L 2.367188 -3.539062 C 2.371094 -3.527344 2.375 -3.515625 2.386719 -3.503906 C 2.398438 -3.492188 2.410156 -3.488281 2.421875 -3.484375 C 2.417969 -3.484375 2.410156 -3.484375 2.40625 -3.484375 L 0.933594 -3.484375 C 0.925781 -3.484375 0.921875 -3.484375 0.917969 -3.484375 C 0.929688 -3.488281 0.941406 -3.492188 0.953125 -3.503906 C 0.960938 -3.515625 0.96875 -3.527344 0.972656 -3.539062 C 0.972656 -3.535156 0.972656 -3.527344 0.972656 -3.523438 L 0.972656 -2.039062 C 0.972656 -1.449219 1.121094 -1.007812 1.417969 -0.710938 C 1.714844 -0.414062 2.15625 -0.265625 2.746094 -0.265625 L 4.328125 -0.265625 C 4.925781 -0.265625 5.367188 -0.414062 5.660156 -0.710938 C 5.953125 -1.007812 6.101562 -1.449219 6.101562 -2.039062 L 6.101562 -5.304688 C 6.101562 -5.371094 6.085938 -5.425781 6.058594 -5.46875 C 6.023438 -5.511719 5.972656 -5.550781 5.894531 -5.585938 L 6 -5.828125 L 5.914062 -5.578125 L 2.367188 -6.738281 L 2.367188 -8.882812 C 2.367188 -9.144531 2.4375 -9.351562 2.585938 -9.496094 C 2.730469 -9.644531 2.933594 -9.714844 3.195312 -9.714844 L 3.875 -9.714844 C 4.136719 -9.714844 4.34375 -9.644531 4.488281 -9.496094 C 4.632812 -9.351562 4.707031 -9.144531 4.707031 -8.882812 L 4.707031 -7.78125 C 4.707031 -7.773438 4.707031 -7.769531 4.707031 -7.765625 C 4.703125 -7.777344 4.695312 -7.789062 4.6875 -7.796875 C 4.675781 -7.808594 4.664062 -7.816406 4.652344 -7.820312 C 4.65625 -7.820312 4.664062 -7.820312 4.667969 -7.820312 L 6.140625 -7.820312 C 6.144531 -7.820312 6.152344 -7.820312 6.15625 -7.820312 C 6.144531 -7.816406 6.132812 -7.808594 6.121094 -7.796875 C 6.109375 -7.789062 6.105469 -7.777344 6.101562 -7.765625 C 6.101562 -7.769531 6.101562 -7.773438 6.101562 -7.78125 L 6.101562 -9.28125 C 6.101562 -9.875 5.953125 -10.320312 5.664062 -10.613281 C 5.371094 -10.90625 4.925781 -11.050781 4.328125 -11.050781 Z M 2.746094 -11.050781 "/></g></g></g><g fill="#000000" fill-opacity="1"><g transform="translate(8.459866, 14.557876)"><g><path d="M 6.617188 -11.089844 L 6.617188 -9.675781 C 6.617188 -9.527344 6.574219 -9.40625 6.488281 -9.3125 C 6.398438 -9.21875 6.277344 -9.171875 6.125 -9.171875 L 2.589844 -9.171875 L 2.589844 -9.4375 L 2.855469 -9.4375 L 2.855469 -6.605469 L 2.589844 -6.605469 L 2.589844 -6.871094 L 5.289062 -6.871094 C 5.441406 -6.871094 5.5625 -6.824219 5.652344 -6.726562 C 5.738281 -6.636719 5.78125 -6.515625 5.78125 -6.367188 L 5.78125 -4.964844 C 5.78125 -4.816406 5.738281 -4.695312 5.652344 -4.601562 C 5.5625 -4.507812 5.441406 -4.460938 5.289062 -4.460938 L 2.589844 -4.460938 L 2.589844 -4.726562 L 2.855469 -4.726562 L 2.855469 -1.867188 L 2.589844 -1.867188 L 2.589844 -2.132812 L 6.125 -2.132812 C 6.273438 -2.132812 6.394531 -2.089844 6.484375 -2 C 6.574219 -1.910156 6.617188 -1.789062 6.617188 -1.640625 L 6.617188 -0.226562 C 6.617188 -0.078125 6.574219 0.0429688 6.484375 0.132812 C 6.394531 0.21875 6.273438 0.265625 6.125 0.265625 L 0.917969 0.265625 C 0.773438 0.265625 0.65625 0.21875 0.566406 0.125 C 0.484375 0.0351562 0.441406 -0.0820312 0.441406 -0.226562 L 0.441406 -11.089844 C 0.441406 -11.238281 0.484375 -11.355469 0.566406 -11.441406 C 0.65625 -11.535156 0.773438 -11.582031 0.917969 -11.582031 L 6.125 -11.582031 C 6.273438 -11.582031 6.394531 -11.539062 6.484375 -11.449219 C 6.574219 -11.359375 6.617188 -11.238281 6.617188 -11.089844 Z M 6.085938 -11.089844 C 6.085938 -11.097656 6.085938 -11.101562 6.085938 -11.105469 C 6.089844 -11.09375 6.097656 -11.085938 6.109375 -11.074219 C 6.117188 -11.0625 6.128906 -11.054688 6.140625 -11.050781 C 6.136719 -11.050781 6.132812 -11.050781 6.125 -11.050781 L 0.917969 -11.050781 C 0.914062 -11.050781 0.910156 -11.050781 0.910156 -11.050781 C 0.910156 -11.050781 0.914062 -11.050781 0.914062 -11.054688 C 0.929688 -11.058594 0.941406 -11.066406 0.953125 -11.078125 C 0.964844 -11.089844 0.972656 -11.101562 0.972656 -11.109375 C 0.972656 -11.109375 0.972656 -11.101562 0.972656 -11.089844 L 0.972656 -0.226562 C 0.972656 -0.214844 0.972656 -0.210938 0.972656 -0.207031 C 0.972656 -0.21875 0.964844 -0.226562 0.953125 -0.238281 C 0.941406 -0.25 0.929688 -0.257812 0.914062 -0.265625 C 0.914062 -0.265625 0.910156 -0.265625 0.910156 -0.265625 C 0.910156 -0.265625 0.914062 -0.265625 0.917969 -0.265625 L 6.125 -0.265625 C 6.132812 -0.265625 6.136719 -0.265625 6.140625 -0.265625 C 6.128906 -0.261719 6.117188 -0.253906 6.109375 -0.246094 C 6.097656 -0.234375 6.089844 -0.222656 6.085938 -0.210938 C 6.085938 -0.214844 6.085938 -0.21875 6.085938 -0.226562 L 6.085938 -1.640625 C 6.085938 -1.648438 6.085938 -1.652344 6.085938 -1.65625 C 6.089844 -1.644531 6.097656 -1.632812 6.109375 -1.625 C 6.117188 -1.613281 6.128906 -1.605469 6.140625 -1.601562 C 6.136719 -1.601562 6.132812 -1.601562 6.125 -1.601562 L 2.324219 -1.601562 L 2.324219 -4.992188 L 5.289062 -4.992188 C 5.296875 -4.992188 5.300781 -4.992188 5.304688 -4.992188 C 5.304688 -4.992188 5.304688 -4.992188 5.300781 -4.992188 C 5.289062 -4.984375 5.277344 -4.976562 5.265625 -4.96875 C 5.257812 -4.957031 5.253906 -4.949219 5.25 -4.941406 C 5.25 -4.945312 5.25 -4.953125 5.25 -4.964844 L 5.25 -6.367188 C 5.25 -6.378906 5.25 -6.386719 5.25 -6.390625 C 5.253906 -6.382812 5.257812 -6.375 5.265625 -6.363281 C 5.277344 -6.351562 5.289062 -6.347656 5.300781 -6.339844 C 5.304688 -6.339844 5.304688 -6.339844 5.304688 -6.339844 C 5.300781 -6.339844 5.296875 -6.339844 5.289062 -6.339844 L 2.324219 -6.339844 L 2.324219 -9.703125 L 6.125 -9.703125 C 6.132812 -9.703125 6.136719 -9.703125 6.140625 -9.703125 C 6.140625 -9.703125 6.136719 -9.703125 6.136719 -9.703125 C 6.125 -9.695312 6.113281 -9.6875 6.101562 -9.679688 C 6.09375 -9.667969 6.085938 -9.660156 6.085938 -9.652344 C 6.085938 -9.65625 6.085938 -9.664062 6.085938 -9.675781 Z M 6.085938 -11.089844 "/></g></g></g><g fill="#000000" fill-opacity="1"><g transform="translate(15.517798, 14.557876)"><g><path d="M 0.441406 -2.039062 L 0.441406 -9.28125 C 0.441406 -10.023438 0.644531 -10.59375 1.042969 -10.992188 C 1.445312 -11.386719 2.011719 -11.582031 2.746094 -11.582031 L 4.328125 -11.582031 C 5.070312 -11.582031 5.640625 -11.386719 6.039062 -10.988281 C 6.433594 -10.59375 6.632812 -10.023438 6.632812 -9.28125 L 6.632812 -2.039062 C 6.632812 -1.304688 6.433594 -0.738281 6.039062 -0.335938 C 5.640625 0.0664062 5.074219 0.265625 4.328125 0.265625 L 2.746094 0.265625 C 2.011719 0.265625 1.445312 0.0664062 1.042969 -0.335938 C 0.640625 -0.738281 0.441406 -1.304688 0.441406 -2.039062 Z M 0.972656 -2.039062 C 0.972656 -1.449219 1.121094 -1.007812 1.417969 -0.710938 C 1.714844 -0.414062 2.15625 -0.265625 2.746094 -0.265625 L 4.328125 -0.265625 C 4.925781 -0.265625 5.367188 -0.414062 5.660156 -0.710938 C 5.953125 -1.007812 6.101562 -1.449219 6.101562 -2.039062 L 6.101562 -9.28125 C 6.101562 -9.875 5.953125 -10.320312 5.664062 -10.613281 C 5.371094 -10.90625 4.925781 -11.050781 4.328125 -11.050781 L 2.746094 -11.050781 C 2.15625 -11.050781 1.714844 -10.90625 1.417969 -10.613281 C 1.121094 -10.320312 0.972656 -9.875 0.972656 -9.28125 Z M 3.15625 -2.089844 L 3.976562 -2.089844 C 4.089844 -2.089844 4.167969 -2.113281 4.210938 -2.152344 C 4.253906 -2.195312 4.277344 -2.277344 4.277344 -2.390625 L 4.277344 -8.925781 C 4.277344 -9.042969 4.253906 -9.121094 4.210938 -9.164062 C 4.167969 -9.207031 4.089844 -9.226562 3.976562 -9.226562 L 3.15625 -9.226562 C 3.039062 -9.226562 2.960938 -9.207031 2.917969 -9.164062 C 2.875 -9.121094 2.855469 -9.042969 2.855469 -8.925781 L 2.855469 -2.390625 C 2.855469 -2.277344 2.875 -2.195312 2.917969 -2.152344 C 2.960938 -2.113281 3.039062 -2.089844 3.15625 -2.089844 Z M 3.15625 -1.558594 C 2.894531 -1.558594 2.6875 -1.632812 2.542969 -1.777344 C 2.398438 -1.925781 2.324219 -2.128906 2.324219 -2.390625 L 2.324219 -8.925781 C 2.324219 -9.1875 2.398438 -9.394531 2.542969 -9.539062 C 2.6875 -9.683594 2.894531 -9.757812 3.15625 -9.757812 L 3.976562 -9.757812 C 4.238281 -9.757812 4.441406 -9.683594 4.585938 -9.539062 C 4.734375 -9.394531 4.804688 -9.1875 4.804688 -8.925781 L 4.804688 -2.390625 C 4.804688 -2.128906 4.734375 -1.925781 4.585938 -1.777344 C 4.441406 -1.632812 4.238281 -1.558594 3.976562 -1.558594 Z M 3.15625 -1.558594 "/></g></g></g></g></g></svg>