<svg xmlns="http://www.w3.org/2000/svg" xmlns:xlink="http://www.w3.org/1999/xlink" width="500" zoomAndPan="magnify" viewBox="0 0 375 374.999991" height="500" preserveAspectRatio="xMidYMid meet" version="1.0"><defs><clipPath id="81c7464f9b"><path d="M 108 37.5 L 326.8125 37.5 L 326.8125 314 L 108 314 Z M 108 37.5 " clip-rule="nonzero"/></clipPath></defs><g clip-path="url(#81c7464f9b)"><path fill="#c1ff72" d="M 108.027344 300 C 108.027344 307.53125 114.132812 313.636719 121.660156 313.636719 L 312.570312 313.636719 C 320.101562 313.636719 326.207031 307.53125 326.207031 300 L 326.207031 51.136719 C 326.207031 43.605469 320.101562 37.5 312.570312 37.5 L 163.183594 37.5 C 159.472656 37.5 155.921875 39.011719 153.351562 41.6875 L 111.832031 84.878906 C 109.390625 87.417969 108.027344 90.804688 108.027344 94.328125 Z M 108.027344 300 " fill-opacity="1" fill-rule="nonzero"/></g><path fill="#155655" d="M 268.253906 235.226562 C 273.902344 235.226562 278.480469 239.804688 278.480469 245.453125 C 278.480469 251.101562 273.902344 255.683594 268.253906 255.683594 L 162.570312 255.683594 C 156.921875 255.683594 152.34375 251.101562 152.34375 245.453125 C 152.34375 239.804688 156.921875 235.226562 162.570312 235.226562 Z M 268.253906 167.046875 C 273.902344 167.046875 278.480469 171.625 278.480469 177.273438 C 278.480469 182.921875 273.902344 187.5 268.253906 187.5 L 162.570312 187.5 C 156.921875 187.5 152.34375 182.921875 152.34375 177.273438 C 152.34375 171.625 156.921875 167.046875 162.570312 167.046875 Z M 268.253906 98.863281 C 273.902344 98.863281 278.480469 103.441406 278.480469 109.089844 C 278.480469 114.738281 273.902344 119.316406 268.253906 119.316406 L 193.253906 119.316406 C 187.605469 119.316406 183.027344 114.738281 183.027344 109.089844 C 183.027344 103.441406 187.605469 98.863281 193.253906 98.863281 Z M 268.253906 98.863281 " fill-opacity="1" fill-rule="nonzero"/><path fill="#155655" d="M 92.039062 335.417969 C 92.925781 337.488281 95.851562 337.488281 96.738281 335.417969 C 103.507812 319.59375 115.101562 306.308594 129.863281 297.457031 L 137.800781 292.695312 C 140.011719 291.371094 140.011719 288.171875 137.800781 286.847656 L 129.863281 282.089844 C 115.097656 273.238281 103.507812 259.953125 96.738281 244.128906 C 95.851562 242.0625 92.925781 242.0625 92.039062 244.128906 C 85.269531 259.953125 73.675781 273.238281 58.914062 282.089844 L 50.976562 286.847656 C 48.765625 288.171875 48.765625 291.371094 50.976562 292.695312 L 58.914062 297.457031 C 73.675781 306.308594 85.269531 319.59375 92.039062 335.417969 Z M 92.039062 335.417969 " fill-opacity="1" fill-rule="nonzero"/></svg>