<svg xmlns="http://www.w3.org/2000/svg" xmlns:xlink="http://www.w3.org/1999/xlink" width="500" zoomAndPan="magnify" viewBox="0 0 375 374.999991" height="500" preserveAspectRatio="xMidYMid meet" version="1.0"><defs><clipPath id="bc7586e672"><path d="M 7.5 0 L 367.5 0 C 371.640625 0 375 3.359375 375 7.5 L 375 367.5 C 375 371.640625 371.640625 375 367.5 375 L 7.5 375 C 3.359375 375 0 371.640625 0 367.5 L 0 7.5 C 0 3.359375 3.359375 0 7.5 0 Z M 7.5 0 " clip-rule="nonzero"/></clipPath><clipPath id="559be65821"><path d="M 0 0 L 375 0 L 375 375 L 0 375 Z M 0 0 " clip-rule="nonzero"/></clipPath><clipPath id="ff48f80f1f"><path d="M 7.5 0 L 367.5 0 C 371.640625 0 375 3.359375 375 7.5 L 375 367.5 C 375 371.640625 371.640625 375 367.5 375 L 7.5 375 C 3.359375 375 0 371.640625 0 367.5 L 0 7.5 C 0 3.359375 3.359375 0 7.5 0 Z M 7.5 0 " clip-rule="nonzero"/></clipPath><clipPath id="dc8604a1bb"><rect x="0" width="375" y="0" height="375"/></clipPath><clipPath id="e166c66cc7"><path d="M 115 337 L 191 337 L 191 367.0625 L 115 367.0625 Z M 115 337 " clip-rule="nonzero"/></clipPath><clipPath id="7d9505f791"><path d="M 4.640625 41.5625 L 300.890625 41.5625 L 300.890625 323 L 4.640625 323 Z M 4.640625 41.5625 " clip-rule="nonzero"/></clipPath><clipPath id="61aece2f36"><path d="M 187.5625 1.339844 L 375 1.339844 L 375 175.339844 L 187.5625 175.339844 Z M 187.5625 1.339844 " clip-rule="nonzero"/></clipPath><clipPath id="6d36641f4f"><path d="M 195.203125 14.125 L 369.632812 14.125 L 369.632812 169.90625 L 195.203125 169.90625 Z M 195.203125 14.125 " clip-rule="nonzero"/></clipPath></defs><g clip-path="url(#bc7586e672)"><g transform="matrix(1, 0, 0, 1, 0, 0)"><g clip-path="url(#dc8604a1bb)"><g clip-path="url(#559be65821)"><g clip-path="url(#ff48f80f1f)"><rect x="-82.5" width="540" fill="#ffffff" height="539.999987" y="-82.499998" fill-opacity="1"/></g></g></g></g></g><g clip-path="url(#e166c66cc7)"><path fill="#155655" d="M 189.863281 338.847656 C 189.136719 337.792969 187.6875 337.066406 186.765625 337.199219 L 118.742188 337.59375 C 118.742188 337.59375 116.300781 338.253906 115.640625 339.308594 C 114.984375 340.363281 114.851562 341.679688 115.378906 342.800781 C 121.839844 357.632812 136.539062 367.191406 152.6875 367.191406 C 169.101562 367.191406 183.800781 357.433594 190.191406 342.339844 C 190.65625 341.152344 190.523438 339.835938 189.863281 338.847656 Z M 189.863281 338.847656 " fill-opacity="1" fill-rule="nonzero"/></g><g clip-path="url(#7d9505f791)"><path fill="#155655" d="M 298.03125 302.328125 L 256.304688 267.527344 L 256.304688 174.78125 C 256.304688 127.785156 224.800781 88.035156 181.820312 75.382812 C 182.019531 73.996094 182.285156 72.613281 182.285156 71.164062 C 182.285156 54.816406 169.035156 41.566406 152.6875 41.566406 C 136.339844 41.566406 123.089844 54.816406 123.089844 71.164062 C 123.089844 72.613281 123.355469 73.996094 123.550781 75.382812 C 80.574219 88.035156 49.066406 127.71875 49.066406 174.78125 L 49.066406 267.523438 L 7.277344 302.328125 C 5.5625 303.714844 4.640625 305.824219 4.640625 307.996094 L 4.640625 315.378906 C 4.640625 319.46875 7.9375 322.761719 12.023438 322.761719 L 293.285156 322.761719 C 297.371094 322.761719 300.667969 319.46875 300.667969 315.378906 L 300.667969 307.996094 C 300.667969 305.824219 299.679688 303.714844 298.03125 302.328125 Z M 137.988281 72.347656 C 137.988281 71.953125 137.855469 71.558594 137.855469 71.164062 C 137.855469 62.988281 144.511719 56.332031 152.6875 56.332031 C 160.859375 56.332031 167.453125 62.988281 167.453125 71.164062 C 167.453125 71.558594 167.386719 71.953125 167.320312 72.347656 C 162.507812 71.691406 157.628906 71.164062 152.621094 71.164062 C 147.613281 71.164062 142.800781 71.625 137.988281 72.347656 Z M 137.988281 72.347656 " fill-opacity="1" fill-rule="nonzero"/></g><g clip-path="url(#61aece2f36)"><path fill="#ffffff" d="M 207.175781 175.460938 C 200.1875 175.460938 193.675781 171.703125 190.183594 165.652344 C 186.691406 159.597656 186.691406 152.082031 190.183594 146.03125 L 268.054688 11.152344 C 271.546875 5.101562 278.058594 1.339844 285.046875 1.339844 C 292.035156 1.339844 298.546875 5.101562 302.039062 11.152344 L 379.910156 146.03125 C 383.402344 152.082031 383.402344 159.597656 379.910156 165.652344 C 376.417969 171.703125 369.90625 175.460938 362.917969 175.460938 L 207.175781 175.460938 " fill-opacity="1" fill-rule="nonzero"/></g><path fill="#ffffff" d="M 278.46875 17.164062 L 200.597656 152.042969 C 197.675781 157.105469 201.328125 163.433594 207.175781 163.433594 L 362.921875 163.433594 C 368.765625 163.433594 372.421875 157.105469 369.496094 152.042969 L 291.625 17.164062 C 288.703125 12.101562 281.394531 12.101562 278.46875 17.164062 " fill-opacity="1" fill-rule="nonzero"/><path fill="#ffffff" d="M 278.46875 17.164062 L 200.597656 152.042969 C 197.675781 157.105469 201.328125 163.433594 207.175781 163.433594 L 362.921875 163.433594 C 368.765625 163.433594 372.421875 157.105469 369.496094 152.042969 L 291.625 17.164062 C 288.703125 12.101562 281.394531 12.101562 278.46875 17.164062 " fill-opacity="1" fill-rule="nonzero"/><path fill="#ffffff" d="M 278.46875 17.164062 L 282.398438 19.433594 L 204.527344 154.308594 C 203.730469 155.691406 204.261719 156.910156 204.527344 157.371094 C 204.792969 157.828125 205.582031 158.898438 207.175781 158.898438 L 362.917969 158.898438 C 364.511719 158.898438 365.300781 157.828125 365.566406 157.371094 C 365.832031 156.910156 366.363281 155.691406 365.566406 154.308594 L 287.695312 19.433594 C 286.898438 18.050781 285.578125 17.902344 285.046875 17.902344 C 284.515625 17.902344 283.195312 18.050781 282.398438 19.433594 Z M 362.917969 167.972656 L 207.175781 167.972656 C 202.789062 167.972656 198.863281 165.703125 196.667969 161.90625 C 194.476562 158.109375 194.476562 153.574219 196.667969 149.773438 L 274.542969 14.898438 C 276.734375 11.097656 280.660156 8.832031 285.046875 8.832031 C 289.433594 8.832031 293.359375 11.097656 295.554688 14.898438 L 373.425781 149.773438 C 375.617188 153.574219 375.617188 158.109375 373.425781 161.90625 C 371.234375 165.703125 367.304688 167.972656 362.917969 167.972656 " fill-opacity="1" fill-rule="nonzero"/><path fill="#ffffff" d="M 295.046875 56.574219 L 290.789062 121.984375 C 290.75 122.539062 290.289062 122.96875 289.734375 122.96875 L 280.359375 122.96875 C 279.804688 122.96875 279.34375 122.539062 279.308594 121.984375 L 275.046875 56.574219 C 275.007812 55.964844 275.492188 55.449219 276.101562 55.449219 L 293.992188 55.449219 C 294.601562 55.449219 295.085938 55.964844 295.046875 56.574219 " fill-opacity="1" fill-rule="nonzero"/><path fill="#ffffff" d="M 276.277344 137.941406 C 276.277344 133.097656 280.203125 129.171875 285.046875 129.171875 C 289.890625 129.171875 293.816406 133.097656 293.816406 137.941406 C 293.816406 142.78125 289.890625 146.707031 285.046875 146.707031 C 280.203125 146.707031 276.277344 142.78125 276.277344 137.941406 " fill-opacity="1" fill-rule="nonzero"/><g clip-path="url(#6d36641f4f)"><path fill="#93e85f" d="M 212.75 169.90625 C 206.496094 169.90625 200.671875 166.542969 197.546875 161.128906 C 194.421875 155.714844 194.421875 148.988281 197.546875 143.574219 L 267.214844 22.902344 C 270.339844 17.488281 276.167969 14.125 282.417969 14.125 C 288.667969 14.125 294.496094 17.488281 297.621094 22.902344 L 367.289062 143.574219 C 370.414062 148.988281 370.414062 155.714844 367.289062 161.128906 C 364.164062 166.542969 358.339844 169.90625 352.085938 169.90625 L 212.75 169.90625 " fill-opacity="1" fill-rule="nonzero"/></g><path fill="#93e85f" d="M 276.535156 28.28125 L 206.863281 148.953125 C 204.25 153.484375 207.519531 159.148438 212.75 159.148438 L 352.089844 159.148438 C 357.320312 159.148438 360.585938 153.484375 357.972656 148.953125 L 288.300781 28.28125 C 285.6875 23.753906 279.148438 23.753906 276.535156 28.28125 " fill-opacity="1" fill-rule="nonzero"/><path fill="#93e85f" d="M 276.535156 28.28125 L 206.863281 148.953125 C 204.25 153.484375 207.519531 159.148438 212.75 159.148438 L 352.089844 159.148438 C 357.320312 159.148438 360.585938 153.484375 357.972656 148.953125 L 288.300781 28.28125 C 285.6875 23.753906 279.148438 23.753906 276.535156 28.28125 " fill-opacity="1" fill-rule="nonzero"/><path fill="#000000" d="M 276.535156 28.285156 L 280.046875 30.3125 L 210.378906 150.984375 C 209.664062 152.21875 210.140625 153.308594 210.378906 153.71875 C 210.617188 154.132812 211.324219 155.089844 212.75 155.089844 L 352.085938 155.089844 C 353.511719 155.089844 354.21875 154.132812 354.457031 153.71875 C 354.695312 153.308594 355.167969 152.21875 354.457031 150.984375 L 284.789062 30.3125 C 284.074219 29.078125 282.894531 28.945312 282.417969 28.945312 C 281.941406 28.945312 280.761719 29.078125 280.046875 30.3125 Z M 352.085938 163.207031 L 212.75 163.207031 C 208.824219 163.207031 205.3125 161.175781 203.347656 157.777344 C 201.386719 154.378906 201.386719 150.324219 203.347656 146.925781 L 273.019531 26.253906 C 274.980469 22.855469 278.492188 20.828125 282.417969 20.828125 C 286.34375 20.828125 289.855469 22.855469 291.816406 26.253906 L 361.488281 146.925781 C 363.449219 150.324219 363.449219 154.378906 361.488281 157.777344 C 359.527344 161.175781 356.011719 163.207031 352.085938 163.207031 " fill-opacity="1" fill-rule="nonzero"/><path fill="#000000" d="M 291.363281 63.539062 L 287.554688 122.0625 C 287.519531 122.558594 287.109375 122.945312 286.613281 122.945312 L 278.222656 122.945312 C 277.726562 122.945312 277.316406 122.558594 277.28125 122.0625 L 273.472656 63.539062 C 273.4375 62.996094 273.867188 62.535156 274.414062 62.535156 L 290.421875 62.535156 C 290.96875 62.535156 291.398438 62.996094 291.363281 63.539062 " fill-opacity="1" fill-rule="nonzero"/><path fill="#000000" d="M 274.574219 136.335938 C 274.574219 132.003906 278.085938 128.492188 282.417969 128.492188 C 286.75 128.492188 290.261719 132.003906 290.261719 136.335938 C 290.261719 140.667969 286.75 144.183594 282.417969 144.183594 C 278.085938 144.183594 274.574219 140.667969 274.574219 136.335938 " fill-opacity="1" fill-rule="nonzero"/></svg>