<svg xmlns="http://www.w3.org/2000/svg" xmlns:xlink="http://www.w3.org/1999/xlink" width="500" zoomAndPan="magnify" viewBox="0 0 375 374.999991" height="500" preserveAspectRatio="xMidYMid meet" version="1.0"><defs><clipPath id="4fb2ec43ca"><path d="M 7 3.789062 L 374.910156 3.789062 L 374.910156 371 L 7 371 Z M 7 3.789062 " clip-rule="nonzero"/></clipPath></defs><g clip-path="url(#4fb2ec43ca)"><path fill="#93e85f" d="M 267.675781 348.226562 L 12.179688 348.226562 L 12.179688 364.027344 L 267.675781 364.027344 Z M 144.957031 338.152344 L 173.183594 338.152344 L 173.183594 217.878906 L 144.957031 217.878906 Z M 106.679688 338.152344 L 134.90625 338.152344 L 134.90625 250.136719 L 106.679688 250.136719 Z M 68.40625 338.152344 L 96.632812 338.152344 L 96.632812 219.394531 L 68.40625 219.394531 Z M 30.136719 338.152344 L 58.363281 338.152344 L 58.363281 276.335938 L 30.136719 276.335938 Z M 21.296875 206.617188 C 19.78125 205.097656 17.683594 204.167969 15.378906 204.167969 C 13.074219 204.167969 10.988281 205.097656 9.488281 206.617188 C 7.972656 208.132812 7.039062 210.203125 7.039062 212.53125 C 7.039062 214.835938 7.972656 216.925781 9.488281 218.425781 C 10.988281 219.941406 13.074219 220.871094 15.378906 220.871094 C 17.683594 220.871094 19.769531 219.941406 21.296875 218.425781 C 22.796875 216.925781 23.742188 214.835938 23.742188 212.53125 C 23.742188 210.203125 22.796875 208.132812 21.296875 206.617188 Z M 79.050781 158.601562 C 77.53125 157.101562 75.4375 156.15625 73.132812 156.15625 C 70.828125 156.15625 68.742188 157.101562 67.214844 158.601562 C 65.714844 160.117188 64.769531 162.214844 64.769531 164.519531 C 64.769531 166.824219 65.714844 168.910156 67.214844 170.433594 C 68.730469 171.933594 70.828125 172.855469 73.132812 172.855469 C 75.4375 172.855469 77.523438 171.925781 79.050781 170.433594 C 80.550781 168.917969 81.472656 166.824219 81.472656 164.519531 C 81.472656 162.214844 80.550781 160.125 79.050781 158.601562 Z M 129.441406 180.960938 C 127.941406 179.445312 125.855469 178.515625 123.550781 178.515625 C 121.246094 178.515625 119.160156 179.445312 117.632812 180.960938 C 116.117188 182.480469 115.1875 184.546875 115.1875 186.878906 C 115.1875 189.183594 116.117188 191.269531 117.632812 192.769531 C 119.152344 194.289062 121.246094 195.21875 123.550781 195.21875 C 125.855469 195.21875 127.941406 194.289062 129.441406 192.769531 C 130.960938 191.269531 131.890625 189.183594 131.890625 186.878906 C 131.890625 184.546875 130.960938 182.480469 129.441406 180.960938 Z M 211.449219 270.664062 C 200.453125 263.0625 190.898438 253.011719 183.726562 240.710938 C 183.558594 240.472656 183.390625 240.207031 183.273438 239.945312 L 183.222656 239.878906 L 183.222656 338.160156 L 211.449219 338.160156 Z M 249.71875 286.109375 C 246.625 285.605469 243.609375 284.941406 240.597656 284.140625 C 233.996094 282.378906 227.582031 279.890625 221.5 276.730469 L 221.5 338.160156 L 249.726562 338.160156 L 249.726562 286.109375 Z M 281.222656 132.5625 C 265.757812 128.429688 248.746094 130.140625 233.800781 138.6875 C 233.710938 138.738281 233.632812 138.78125 233.566406 138.832031 C 218.53125 147.503906 208.457031 161.449219 204.300781 176.964844 C 200.167969 192.425781 201.878906 209.441406 210.425781 224.410156 C 210.476562 224.476562 210.519531 224.550781 210.570312 224.625 C 219.246094 239.660156 233.164062 249.734375 248.703125 253.890625 C 264.242188 258.050781 281.347656 256.289062 296.355469 247.640625 C 311.375 238.964844 321.464844 225.019531 325.621094 209.492188 C 329.753906 194.042969 328.046875 177.015625 319.496094 162.070312 C 319.445312 161.996094 319.40625 161.902344 319.355469 161.835938 C 310.679688 146.816406 296.734375 136.71875 281.222656 132.5625 Z M 228.839844 129.996094 C 246.207031 120.066406 265.925781 118.070312 283.8125 122.875 C 301.695312 127.675781 317.785156 139.242188 327.851562 156.488281 C 328.019531 156.722656 328.164062 156.992188 328.28125 157.253906 C 338.117188 174.566406 340.113281 194.246094 335.3125 212.078125 C 330.535156 229.988281 318.945312 246.054688 301.695312 256.121094 C 301.484375 256.265625 301.269531 256.40625 301.035156 256.5 C 283.695312 266.40625 264 268.375 246.105469 263.605469 C 228.09375 258.785156 211.945312 247.070312 201.871094 229.65625 C 201.820312 229.5625 201.753906 229.460938 201.703125 229.34375 C 191.796875 212.003906 189.800781 192.257812 194.578125 174.375 C 199.421875 156.363281 211.113281 140.214844 228.53125 130.164062 C 228.621094 130.097656 228.738281 130.046875 228.839844 129.996094 Z M 294.933594 271.800781 C 295.101562 271.726562 295.265625 271.660156 295.433594 271.609375 C 299.238281 270.109375 302.96875 268.359375 306.625 266.261719 C 306.839844 266.121094 307.050781 265.976562 307.285156 265.886719 C 327.214844 254.246094 340.617188 235.664062 346.15625 214.996094 C 351.710938 194.328125 349.40625 171.566406 338.011719 151.5625 C 337.84375 151.34375 337.726562 151.132812 337.609375 150.898438 C 325.992188 130.96875 307.410156 117.570312 286.71875 112.039062 C 266.078125 106.507812 243.3125 108.785156 223.308594 120.207031 C 223.074219 120.375 222.804688 120.519531 222.546875 120.636719 C 207.652344 129.328125 196.441406 141.898438 189.410156 156.339844 C 189.265625 156.816406 189.046875 157.285156 188.761719 157.714844 C 186.691406 162.128906 185.035156 166.738281 183.75 171.464844 C 180.375 184.054688 179.929688 197.457031 182.660156 210.519531 C 183.023438 211.207031 183.230469 211.996094 183.230469 212.824219 L 183.230469 212.992188 C 185.082031 220.621094 188.035156 228.105469 192.164062 235.253906 L 192.140625 235.253906 L 192.164062 235.277344 C 198.988281 247.085938 208.222656 256.617188 218.941406 263.597656 C 219.109375 263.6875 219.304688 263.816406 219.460938 263.957031 C 226.828125 268.660156 234.832031 272.203125 243.195312 274.433594 C 247.09375 275.480469 251.082031 276.234375 255.074219 276.714844 C 255.242188 276.738281 255.40625 276.738281 255.574219 276.761719 C 268.632812 278.265625 282.125 276.695312 294.933594 271.800781 Z M 311.390625 291.3125 L 326.695312 282.496094 L 319.445312 269.949219 C 317.167969 271.59375 314.785156 273.109375 312.339844 274.535156 C 312.078125 274.703125 311.835938 274.84375 311.550781 274.960938 C 309.128906 276.363281 306.65625 277.617188 304.160156 278.785156 Z M 365.84375 368.800781 C 366.050781 368.660156 366.246094 368.542969 366.464844 368.441406 C 370.101562 366.230469 372.546875 362.785156 373.570312 358.9375 C 374.644531 354.972656 374.214844 350.648438 372.027344 346.871094 L 337.84375 287.640625 L 312.085938 302.507812 L 310.285156 303.53125 L 344.496094 362.785156 C 346.683594 366.539062 350.195312 369.078125 354.167969 370.152344 C 357.980469 371.183594 362.164062 370.796875 365.84375 368.800781 Z M 294.246094 166.746094 C 303.203125 172.210938 311.402344 180.175781 318.265625 190.316406 C 319.453125 191.972656 319.546875 194.261719 318.332031 196.039062 C 311.441406 206.230469 303.246094 214.234375 294.246094 219.722656 C 285.078125 225.304688 275.144531 228.273438 264.953125 228.273438 C 254.789062 228.273438 244.832031 225.304688 235.664062 219.722656 C 226.703125 214.257812 218.53125 206.28125 211.644531 196.132812 C 210.476562 194.472656 210.386719 192.207031 211.59375 190.433594 C 218.480469 180.214844 226.679688 172.210938 235.664062 166.746094 C 244.832031 161.140625 254.789062 158.199219 264.953125 158.199219 C 275.144531 158.199219 285.066406 161.140625 294.246094 166.746094 Z M 278.539062 180.820312 C 275.070312 177.347656 270.277344 175.210938 264.953125 175.210938 C 259.65625 175.210938 254.855469 177.347656 251.386719 180.820312 C 247.914062 184.3125 245.753906 189.109375 245.753906 194.40625 C 245.753906 199.703125 247.914062 204.503906 251.386719 207.972656 C 254.855469 211.46875 259.648438 213.605469 264.953125 213.605469 C 270.277344 213.605469 275.078125 211.46875 278.539062 207.972656 C 282.007812 204.503906 284.171875 199.710938 284.171875 194.40625 C 284.171875 189.097656 282.007812 184.304688 278.539062 180.820312 Z M 241.027344 211.25 C 237.675781 206.472656 235.703125 200.683594 235.703125 194.40625 C 235.703125 186.324219 238.980469 179.007812 244.277344 173.710938 C 244.472656 173.496094 244.679688 173.285156 244.921875 173.09375 C 243.550781 173.753906 242.214844 174.492188 240.882812 175.304688 C 233.96875 179.535156 227.53125 185.570312 221.902344 193.238281 C 227.53125 200.890625 233.96875 206.949219 240.882812 211.148438 Z M 285 173.09375 C 285.210938 173.285156 285.429688 173.496094 285.644531 173.710938 C 290.941406 179.007812 294.21875 186.324219 294.21875 194.40625 C 294.21875 200.671875 292.25 206.472656 288.871094 211.25 L 289.015625 211.15625 C 295.953125 206.949219 302.390625 200.890625 308.023438 193.25 C 302.390625 185.570312 295.953125 179.535156 289.015625 175.3125 C 287.707031 174.5 286.351562 173.761719 285 173.09375 Z M 188.644531 21.40625 C 177.742188 10.503906 162.707031 3.78125 146.097656 3.78125 C 129.46875 3.78125 114.425781 10.503906 103.546875 21.40625 C 92.667969 32.285156 85.921875 47.328125 85.921875 63.929688 C 85.921875 74.214844 88.484375 83.886719 93.003906 92.316406 C 97.664062 101.015625 104.410156 108.449219 112.582031 113.941406 C 114.742188 115.246094 115.625 118.03125 114.507812 120.351562 C 112.75 124.132812 110.636719 127.71875 108.214844 131.0625 L 108.1875 131.0625 C 107.828125 131.539062 107.476562 132.035156 107.117188 132.511719 C 110.082031 132.417969 113.035156 132.058594 115.882812 131.4375 C 121.96875 130.132812 127.691406 127.683594 132.753906 124.265625 C 133.800781 123.503906 135.125 123.125 136.535156 123.359375 C 138.007812 123.578125 139.601562 123.761719 141.3125 123.90625 C 142.851562 124.023438 144.445312 124.097656 146.113281 124.097656 C 162.714844 124.097656 177.757812 117.351562 188.664062 106.472656 C 199.539062 95.59375 206.261719 80.550781 206.261719 63.921875 C 206.246094 47.328125 199.523438 32.285156 188.644531 21.40625 Z M 150.394531 50.128906 L 142.625 40.648438 L 135.050781 49.894531 C 134.503906 50.65625 133.742188 51.25 132.820312 51.628906 L 121.414062 56.070312 L 128.019531 66.378906 C 128.472656 67.089844 128.757812 67.921875 128.804688 68.824219 L 129.519531 81.035156 L 141.300781 77.945312 C 142.105469 77.710938 143.011719 77.683594 143.890625 77.917969 L 155.742188 81.027344 L 156.453125 68.933594 C 156.480469 68.054688 156.738281 67.175781 157.242188 66.371094 L 163.847656 56.0625 L 152.441406 51.621094 L 152.441406 51.59375 C 151.679688 51.316406 150.964844 50.816406 150.394531 50.128906 Z M 146.546875 29.628906 L 157.308594 42.746094 L 173.199219 48.972656 C 175.789062 49.96875 177.046875 52.894531 176.050781 55.457031 C 175.90625 55.820312 175.738281 56.144531 175.53125 56.457031 L 166.402344 70.710938 L 165.40625 87.699219 C 165.238281 90.480469 162.890625 92.59375 160.109375 92.453125 C 159.707031 92.425781 159.277344 92.359375 158.894531 92.214844 L 142.617188 87.96875 L 126.109375 92.292969 C 123.425781 92.980469 120.695312 91.386719 119.996094 88.703125 C 119.90625 88.371094 119.855469 88.042969 119.855469 87.707031 L 119.832031 87.707031 L 118.859375 70.71875 L 109.640625 56.347656 C 108.140625 54.015625 108.835938 50.933594 111.15625 49.433594 C 111.441406 49.238281 111.726562 49.097656 112.035156 48.980469 C 117.332031 46.910156 122.628906 44.824219 127.925781 42.753906 L 138.738281 29.570312 C 140.496094 27.433594 143.65625 27.121094 145.792969 28.882812 C 146.097656 29.109375 146.332031 29.367188 146.546875 29.628906 Z M 28.613281 209.0625 L 21.890625 201.605469 L 57.878906 169.203125 L 64.601562 176.664062 Z M 82.023438 175.136719 L 86.441406 166.152344 L 111.976562 178.699219 L 107.5625 187.675781 Z M 137.5625 187.324219 L 132.621094 178.582031 L 181.0625 151.066406 L 186.007812 159.785156 Z M 137.5625 187.324219 " fill-opacity="1" fill-rule="nonzero"/></g></svg>