<svg xmlns="http://www.w3.org/2000/svg" xmlns:xlink="http://www.w3.org/1999/xlink" width="500" zoomAndPan="magnify" viewBox="0 0 375 374.999991" height="500" preserveAspectRatio="xMidYMid meet" version="1.0"><defs><clipPath id="215a24e200"><path d="M 7 4.539062 L 374.910156 4.539062 L 374.910156 372 L 7 372 Z M 7 4.539062 " clip-rule="nonzero"/></clipPath><clipPath id="290a7d2914"><path d="M 67.636719 219.773438 L 97.019531 219.773438 L 97.019531 339.421875 L 67.636719 339.421875 Z M 67.636719 219.773438 " clip-rule="nonzero"/></clipPath><clipPath id="3f776a1873"><path d="M 0.636719 0.773438 L 30.019531 0.773438 L 30.019531 120.421875 L 0.636719 120.421875 Z M 0.636719 0.773438 " clip-rule="nonzero"/></clipPath><clipPath id="11e2a43302"><rect x="0" width="31" y="0" height="121"/></clipPath><clipPath id="8e4a186264"><path d="M 144.5 218.332031 L 173.882812 218.332031 L 173.882812 339.421875 L 144.5 339.421875 Z M 144.5 218.332031 " clip-rule="nonzero"/></clipPath><clipPath id="00052d25da"><path d="M 0.5 0.332031 L 29.882812 0.332031 L 29.882812 121.421875 L 0.5 121.421875 Z M 0.5 0.332031 " clip-rule="nonzero"/></clipPath><clipPath id="e178afdd3d"><rect x="0" width="30" y="0" height="122"/></clipPath><clipPath id="38d8483405"><path d="M 219.199219 277.621094 L 251.449219 277.621094 L 251.449219 345.871094 L 219.199219 345.871094 Z M 219.199219 277.621094 " clip-rule="nonzero"/></clipPath></defs><g clip-path="url(#215a24e200)"><path fill="#155655" d="M 267.675781 348.976562 L 12.179688 348.976562 L 12.179688 364.777344 L 267.675781 364.777344 Z M 144.957031 338.902344 L 173.183594 338.902344 L 173.183594 218.628906 L 144.957031 218.628906 Z M 106.679688 338.902344 L 134.90625 338.902344 L 134.90625 250.886719 L 106.679688 250.886719 Z M 68.40625 338.902344 L 96.632812 338.902344 L 96.632812 220.144531 L 68.40625 220.144531 Z M 30.136719 338.902344 L 58.363281 338.902344 L 58.363281 277.085938 L 30.136719 277.085938 Z M 21.296875 207.367188 C 19.78125 205.847656 17.683594 204.917969 15.378906 204.917969 C 13.074219 204.917969 10.988281 205.847656 9.488281 207.367188 C 7.972656 208.882812 7.039062 210.953125 7.039062 213.28125 C 7.039062 215.585938 7.972656 217.675781 9.488281 219.175781 C 10.988281 220.691406 13.074219 221.621094 15.378906 221.621094 C 17.683594 221.621094 19.769531 220.691406 21.296875 219.175781 C 22.796875 217.675781 23.742188 215.585938 23.742188 213.28125 C 23.742188 210.953125 22.796875 208.882812 21.296875 207.367188 Z M 79.050781 159.351562 C 77.53125 157.851562 75.4375 156.90625 73.132812 156.90625 C 70.828125 156.90625 68.742188 157.851562 67.214844 159.351562 C 65.714844 160.867188 64.769531 162.964844 64.769531 165.269531 C 64.769531 167.574219 65.714844 169.660156 67.214844 171.183594 C 68.730469 172.683594 70.828125 173.605469 73.132812 173.605469 C 75.4375 173.605469 77.523438 172.675781 79.050781 171.183594 C 80.550781 169.667969 81.472656 167.574219 81.472656 165.269531 C 81.472656 162.964844 80.550781 160.875 79.050781 159.351562 Z M 129.441406 181.710938 C 127.941406 180.195312 125.855469 179.265625 123.550781 179.265625 C 121.246094 179.265625 119.160156 180.195312 117.632812 181.710938 C 116.117188 183.230469 115.1875 185.296875 115.1875 187.628906 C 115.1875 189.933594 116.117188 192.019531 117.632812 193.519531 C 119.152344 195.039062 121.246094 195.96875 123.550781 195.96875 C 125.855469 195.96875 127.941406 195.039062 129.441406 193.519531 C 130.960938 192.019531 131.890625 189.933594 131.890625 187.628906 C 131.890625 185.296875 130.960938 183.230469 129.441406 181.710938 Z M 211.449219 271.414062 C 200.453125 263.8125 190.898438 253.761719 183.726562 241.460938 C 183.558594 241.222656 183.390625 240.957031 183.273438 240.695312 L 183.222656 240.628906 L 183.222656 338.910156 L 211.449219 338.910156 Z M 249.71875 286.859375 C 246.625 286.355469 243.609375 285.691406 240.597656 284.890625 C 233.996094 283.128906 227.582031 280.640625 221.5 277.480469 L 221.5 338.910156 L 249.726562 338.910156 L 249.726562 286.859375 Z M 281.222656 133.3125 C 265.757812 129.179688 248.746094 130.890625 233.800781 139.4375 C 233.710938 139.488281 233.632812 139.53125 233.566406 139.582031 C 218.53125 148.253906 208.457031 162.199219 204.300781 177.714844 C 200.167969 193.175781 201.878906 210.191406 210.425781 225.160156 C 210.476562 225.226562 210.519531 225.300781 210.570312 225.375 C 219.246094 240.410156 233.164062 250.484375 248.703125 254.640625 C 264.242188 258.800781 281.347656 257.039062 296.355469 248.390625 C 311.375 239.714844 321.464844 225.769531 325.621094 210.242188 C 329.753906 194.792969 328.046875 177.765625 319.496094 162.820312 C 319.445312 162.746094 319.40625 162.652344 319.355469 162.585938 C 310.679688 147.566406 296.734375 137.46875 281.222656 133.3125 Z M 228.839844 130.746094 C 246.207031 120.816406 265.925781 118.820312 283.8125 123.625 C 301.695312 128.425781 317.785156 139.992188 327.851562 157.238281 C 328.019531 157.472656 328.164062 157.742188 328.28125 158.003906 C 338.117188 175.316406 340.113281 194.996094 335.3125 212.828125 C 330.535156 230.738281 318.945312 246.804688 301.695312 256.871094 C 301.484375 257.015625 301.269531 257.15625 301.035156 257.25 C 283.695312 267.15625 264 269.125 246.105469 264.355469 C 228.09375 259.535156 211.945312 247.820312 201.871094 230.40625 C 201.820312 230.3125 201.753906 230.210938 201.703125 230.09375 C 191.796875 212.753906 189.800781 193.007812 194.578125 175.125 C 199.421875 157.113281 211.113281 140.964844 228.53125 130.914062 C 228.621094 130.847656 228.738281 130.796875 228.839844 130.746094 Z M 294.933594 272.550781 C 295.101562 272.476562 295.265625 272.410156 295.433594 272.359375 C 299.238281 270.859375 302.96875 269.109375 306.625 267.011719 C 306.839844 266.871094 307.050781 266.726562 307.285156 266.636719 C 327.214844 254.996094 340.617188 236.414062 346.15625 215.746094 C 351.710938 195.078125 349.40625 172.316406 338.011719 152.3125 C 337.84375 152.09375 337.726562 151.882812 337.609375 151.648438 C 325.992188 131.71875 307.410156 118.320312 286.71875 112.789062 C 266.078125 107.257812 243.3125 109.535156 223.308594 120.957031 C 223.074219 121.125 222.804688 121.269531 222.546875 121.386719 C 207.652344 130.078125 196.441406 142.648438 189.410156 157.089844 C 189.265625 157.566406 189.046875 158.035156 188.761719 158.464844 C 186.691406 162.878906 185.035156 167.488281 183.75 172.214844 C 180.375 184.804688 179.929688 198.207031 182.660156 211.269531 C 183.023438 211.957031 183.230469 212.746094 183.230469 213.574219 L 183.230469 213.742188 C 185.082031 221.371094 188.035156 228.855469 192.164062 236.003906 L 192.140625 236.003906 L 192.164062 236.027344 C 198.988281 247.835938 208.222656 257.367188 218.941406 264.347656 C 219.109375 264.4375 219.304688 264.566406 219.460938 264.707031 C 226.828125 269.410156 234.832031 272.953125 243.195312 275.183594 C 247.09375 276.230469 251.082031 276.984375 255.074219 277.464844 C 255.242188 277.488281 255.40625 277.488281 255.574219 277.511719 C 268.632812 279.015625 282.125 277.445312 294.933594 272.550781 Z M 311.390625 292.0625 L 326.695312 283.246094 L 319.445312 270.699219 C 317.167969 272.34375 314.785156 273.859375 312.339844 275.285156 C 312.078125 275.453125 311.835938 275.59375 311.550781 275.710938 C 309.128906 277.113281 306.65625 278.367188 304.160156 279.535156 Z M 365.84375 369.550781 C 366.050781 369.410156 366.246094 369.292969 366.464844 369.191406 C 370.101562 366.980469 372.546875 363.535156 373.570312 359.6875 C 374.644531 355.722656 374.214844 351.398438 372.027344 347.621094 L 337.84375 288.390625 L 312.085938 303.257812 L 310.285156 304.28125 L 344.496094 363.535156 C 346.683594 367.289062 350.195312 369.828125 354.167969 370.902344 C 357.980469 371.933594 362.164062 371.546875 365.84375 369.550781 Z M 294.246094 167.496094 C 303.203125 172.960938 311.402344 180.925781 318.265625 191.066406 C 319.453125 192.722656 319.546875 195.011719 318.332031 196.789062 C 311.441406 206.980469 303.246094 214.984375 294.246094 220.472656 C 285.078125 226.054688 275.144531 229.023438 264.953125 229.023438 C 254.789062 229.023438 244.832031 226.054688 235.664062 220.472656 C 226.703125 215.007812 218.53125 207.03125 211.644531 196.882812 C 210.476562 195.222656 210.386719 192.957031 211.59375 191.183594 C 218.480469 180.964844 226.679688 172.960938 235.664062 167.496094 C 244.832031 161.890625 254.789062 158.949219 264.953125 158.949219 C 275.144531 158.949219 285.066406 161.890625 294.246094 167.496094 Z M 278.539062 181.570312 C 275.070312 178.097656 270.277344 175.960938 264.953125 175.960938 C 259.65625 175.960938 254.855469 178.097656 251.386719 181.570312 C 247.914062 185.0625 245.753906 189.859375 245.753906 195.15625 C 245.753906 200.453125 247.914062 205.253906 251.386719 208.722656 C 254.855469 212.21875 259.648438 214.355469 264.953125 214.355469 C 270.277344 214.355469 275.078125 212.21875 278.539062 208.722656 C 282.007812 205.253906 284.171875 200.460938 284.171875 195.15625 C 284.171875 189.847656 282.007812 185.054688 278.539062 181.570312 Z M 241.027344 212 C 237.675781 207.222656 235.703125 201.433594 235.703125 195.15625 C 235.703125 187.074219 238.980469 179.757812 244.277344 174.460938 C 244.472656 174.246094 244.679688 174.035156 244.921875 173.84375 C 243.550781 174.503906 242.214844 175.242188 240.882812 176.054688 C 233.96875 180.285156 227.53125 186.320312 221.902344 193.988281 C 227.53125 201.640625 233.96875 207.699219 240.882812 211.898438 Z M 285 173.84375 C 285.210938 174.035156 285.429688 174.246094 285.644531 174.460938 C 290.941406 179.757812 294.21875 187.074219 294.21875 195.15625 C 294.21875 201.421875 292.25 207.222656 288.871094 212 L 289.015625 211.90625 C 295.953125 207.699219 302.390625 201.640625 308.023438 194 C 302.390625 186.320312 295.953125 180.285156 289.015625 176.0625 C 287.707031 175.25 286.351562 174.511719 285 173.84375 Z M 188.644531 22.15625 C 177.742188 11.253906 162.707031 4.53125 146.097656 4.53125 C 129.46875 4.53125 114.425781 11.253906 103.546875 22.15625 C 92.667969 33.035156 85.921875 48.078125 85.921875 64.679688 C 85.921875 74.964844 88.484375 84.636719 93.003906 93.066406 C 97.664062 101.765625 104.410156 109.199219 112.582031 114.691406 C 114.742188 115.996094 115.625 118.78125 114.507812 121.101562 C 112.75 124.882812 110.636719 128.46875 108.214844 131.8125 L 108.1875 131.8125 C 107.828125 132.289062 107.476562 132.785156 107.117188 133.261719 C 110.082031 133.167969 113.035156 132.808594 115.882812 132.1875 C 121.96875 130.882812 127.691406 128.433594 132.753906 125.015625 C 133.800781 124.253906 135.125 123.875 136.535156 124.109375 C 138.007812 124.328125 139.601562 124.511719 141.3125 124.65625 C 142.851562 124.773438 144.445312 124.847656 146.113281 124.847656 C 162.714844 124.847656 177.757812 118.101562 188.664062 107.222656 C 199.539062 96.34375 206.261719 81.300781 206.261719 64.671875 C 206.246094 48.078125 199.523438 33.035156 188.644531 22.15625 Z M 150.394531 50.878906 L 142.625 41.398438 L 135.050781 50.644531 C 134.503906 51.40625 133.742188 52 132.820312 52.378906 L 121.414062 56.820312 L 128.019531 67.128906 C 128.472656 67.839844 128.757812 68.671875 128.804688 69.574219 L 129.519531 81.785156 L 141.300781 78.695312 C 142.105469 78.460938 143.011719 78.433594 143.890625 78.667969 L 155.742188 81.777344 L 156.453125 69.683594 C 156.480469 68.804688 156.738281 67.925781 157.242188 67.121094 L 163.847656 56.8125 L 152.441406 52.371094 L 152.441406 52.34375 C 151.679688 52.066406 150.964844 51.566406 150.394531 50.878906 Z M 146.546875 30.378906 L 157.308594 43.496094 L 173.199219 49.722656 C 175.789062 50.71875 177.046875 53.644531 176.050781 56.207031 C 175.90625 56.570312 175.738281 56.894531 175.53125 57.207031 L 166.402344 71.460938 L 165.40625 88.449219 C 165.238281 91.230469 162.890625 93.34375 160.109375 93.203125 C 159.707031 93.175781 159.277344 93.109375 158.894531 92.964844 L 142.617188 88.71875 L 126.109375 93.042969 C 123.425781 93.730469 120.695312 92.136719 119.996094 89.453125 C 119.90625 89.121094 119.855469 88.792969 119.855469 88.457031 L 119.832031 88.457031 L 118.859375 71.46875 L 109.640625 57.097656 C 108.140625 54.765625 108.835938 51.683594 111.15625 50.183594 C 111.441406 49.988281 111.726562 49.847656 112.035156 49.730469 C 117.332031 47.660156 122.628906 45.574219 127.925781 43.503906 L 138.738281 30.320312 C 140.496094 28.183594 143.65625 27.871094 145.792969 29.632812 C 146.097656 29.859375 146.332031 30.117188 146.546875 30.378906 Z M 28.613281 209.8125 L 21.890625 202.355469 L 57.878906 169.953125 L 64.601562 177.414062 Z M 82.023438 175.886719 L 86.441406 166.902344 L 111.976562 179.449219 L 107.5625 188.425781 Z M 137.5625 188.074219 L 132.621094 179.332031 L 181.0625 151.816406 L 186.007812 160.535156 Z M 137.5625 188.074219 " fill-opacity="1" fill-rule="nonzero"/></g><g clip-path="url(#290a7d2914)"><g transform="matrix(1, 0, 0, 1, 67, 219)"><g clip-path="url(#11e2a43302)"><g clip-path="url(#3f776a1873)"><path fill="#93e85f" d="M 0.636719 0.773438 L 30.019531 0.773438 L 30.019531 120.375 L 0.636719 120.375 Z M 0.636719 0.773438 " fill-opacity="1" fill-rule="nonzero"/></g></g></g></g><g clip-path="url(#8e4a186264)"><g transform="matrix(1, 0, 0, 1, 144, 218)"><g clip-path="url(#e178afdd3d)"><g clip-path="url(#00052d25da)"><path fill="#93e85f" d="M 0.5 0.332031 L 29.882812 0.332031 L 29.882812 121.425781 L 0.5 121.425781 Z M 0.5 0.332031 " fill-opacity="1" fill-rule="nonzero"/></g></g></g></g><g clip-path="url(#38d8483405)"><path fill="#93e85f" d="M 267.675781 348.976562 L 12.179688 348.976562 L 12.179688 364.777344 L 267.675781 364.777344 Z M 144.957031 338.902344 L 173.183594 338.902344 L 173.183594 218.628906 L 144.957031 218.628906 Z M 106.679688 338.902344 L 134.90625 338.902344 L 134.90625 250.886719 L 106.679688 250.886719 Z M 68.40625 338.902344 L 96.632812 338.902344 L 96.632812 220.148438 L 68.40625 220.148438 Z M 30.136719 338.902344 L 58.363281 338.902344 L 58.363281 277.085938 L 30.136719 277.085938 Z M 21.296875 207.367188 C 19.78125 205.847656 17.683594 204.917969 15.378906 204.917969 C 13.074219 204.917969 10.988281 205.847656 9.488281 207.367188 C 7.972656 208.882812 7.039062 210.953125 7.039062 213.28125 C 7.039062 215.585938 7.972656 217.675781 9.488281 219.175781 C 10.988281 220.691406 13.074219 221.621094 15.378906 221.621094 C 17.683594 221.621094 19.769531 220.691406 21.296875 219.175781 C 22.796875 217.675781 23.742188 215.585938 23.742188 213.28125 C 23.742188 210.953125 22.796875 208.882812 21.296875 207.367188 Z M 79.050781 159.351562 C 77.53125 157.851562 75.4375 156.90625 73.132812 156.90625 C 70.828125 156.90625 68.742188 157.851562 67.214844 159.351562 C 65.714844 160.867188 64.769531 162.964844 64.769531 165.269531 C 64.769531 167.574219 65.714844 169.660156 67.214844 171.183594 C 68.730469 172.6875 70.828125 173.609375 73.132812 173.609375 C 75.4375 173.609375 77.523438 172.675781 79.050781 171.183594 C 80.550781 169.667969 81.472656 167.574219 81.472656 165.269531 C 81.472656 162.964844 80.550781 160.875 79.050781 159.351562 Z M 129.441406 181.710938 C 127.941406 180.195312 125.855469 179.265625 123.550781 179.265625 C 121.246094 179.265625 119.160156 180.195312 117.632812 181.710938 C 116.117188 183.230469 115.1875 185.296875 115.1875 187.628906 C 115.1875 189.933594 116.117188 192.019531 117.632812 193.519531 C 119.152344 195.039062 121.246094 195.96875 123.550781 195.96875 C 125.855469 195.96875 127.941406 195.039062 129.441406 193.519531 C 130.960938 192.019531 131.890625 189.933594 131.890625 187.628906 C 131.890625 185.296875 130.960938 183.230469 129.441406 181.710938 Z M 211.449219 271.414062 C 200.453125 263.8125 190.898438 253.761719 183.726562 241.460938 C 183.558594 241.222656 183.390625 240.957031 183.273438 240.695312 L 183.222656 240.628906 L 183.222656 338.910156 L 211.449219 338.910156 Z M 249.71875 286.859375 C 246.625 286.355469 243.609375 285.695312 240.597656 284.890625 C 233.996094 283.128906 227.582031 280.640625 221.5 277.480469 L 221.5 338.910156 L 249.726562 338.910156 L 249.726562 286.859375 Z M 281.222656 133.3125 C 265.757812 129.179688 248.746094 130.890625 233.800781 139.4375 C 233.710938 139.488281 233.632812 139.53125 233.566406 139.582031 C 218.53125 148.253906 208.457031 162.199219 204.300781 177.714844 C 200.167969 193.175781 201.878906 210.191406 210.429688 225.160156 C 210.476562 225.226562 210.519531 225.300781 210.570312 225.375 C 219.246094 240.410156 233.164062 250.484375 248.703125 254.640625 C 264.242188 258.800781 281.347656 257.039062 296.355469 248.390625 C 311.375 239.714844 321.464844 225.769531 325.621094 210.242188 C 329.753906 194.792969 328.046875 177.765625 319.496094 162.820312 C 319.445312 162.746094 319.40625 162.652344 319.355469 162.585938 C 310.679688 147.566406 296.734375 137.46875 281.222656 133.3125 Z M 228.839844 130.746094 C 246.207031 120.816406 265.925781 118.820312 283.8125 123.625 C 301.695312 128.425781 317.785156 139.992188 327.851562 157.238281 C 328.019531 157.472656 328.164062 157.742188 328.28125 158.003906 C 338.117188 175.316406 340.113281 194.996094 335.3125 212.828125 C 330.535156 230.738281 318.945312 246.804688 301.695312 256.871094 C 301.484375 257.015625 301.269531 257.15625 301.035156 257.25 C 283.695312 267.15625 264 269.125 246.105469 264.355469 C 228.09375 259.535156 211.945312 247.820312 201.871094 230.40625 C 201.820312 230.3125 201.753906 230.210938 201.703125 230.09375 C 191.796875 212.753906 189.800781 193.007812 194.578125 175.125 C 199.421875 157.113281 211.113281 140.964844 228.53125 130.914062 C 228.621094 130.847656 228.738281 130.796875 228.839844 130.746094 Z M 294.933594 272.550781 C 295.101562 272.476562 295.265625 272.410156 295.433594 272.359375 C 299.238281 270.859375 302.96875 269.109375 306.625 267.011719 C 306.839844 266.871094 307.050781 266.726562 307.285156 266.636719 C 327.214844 254.996094 340.617188 236.414062 346.15625 215.746094 C 351.710938 195.078125 349.40625 172.316406 338.011719 152.3125 C 337.84375 152.09375 337.726562 151.882812 337.609375 151.648438 C 325.992188 131.71875 307.410156 118.320312 286.71875 112.789062 C 266.078125 107.257812 243.3125 109.535156 223.308594 120.957031 C 223.074219 121.125 222.804688 121.269531 222.546875 121.386719 C 207.652344 130.078125 196.441406 142.648438 189.410156 157.089844 C 189.265625 157.566406 189.046875 158.035156 188.761719 158.464844 C 186.691406 162.878906 185.035156 167.488281 183.75 172.214844 C 180.375 184.804688 179.929688 198.207031 182.660156 211.269531 C 183.023438 211.957031 183.230469 212.746094 183.230469 213.574219 L 183.230469 213.742188 C 185.082031 221.371094 188.035156 228.855469 192.164062 236.003906 L 192.140625 236.003906 L 192.164062 236.027344 C 198.988281 247.835938 208.222656 257.367188 218.941406 264.347656 C 219.109375 264.441406 219.304688 264.566406 219.460938 264.707031 C 226.828125 269.410156 234.832031 272.953125 243.195312 275.183594 C 247.09375 276.230469 251.082031 276.984375 255.074219 277.464844 C 255.242188 277.488281 255.40625 277.488281 255.574219 277.511719 C 268.632812 279.015625 282.125 277.445312 294.933594 272.550781 Z M 311.390625 292.0625 L 326.695312 283.246094 L 319.445312 270.699219 C 317.167969 272.34375 314.785156 273.859375 312.339844 275.285156 C 312.078125 275.453125 311.835938 275.59375 311.550781 275.710938 C 309.128906 277.113281 306.65625 278.367188 304.160156 279.535156 Z M 365.84375 369.550781 C 366.050781 369.410156 366.246094 369.292969 366.464844 369.191406 C 370.101562 366.980469 372.546875 363.535156 373.570312 359.6875 C 374.644531 355.722656 374.214844 351.398438 372.027344 347.621094 L 337.84375 288.390625 L 312.085938 303.257812 L 310.285156 304.28125 L 344.496094 363.535156 C 346.683594 367.289062 350.195312 369.828125 354.167969 370.902344 C 357.980469 371.933594 362.164062 371.546875 365.84375 369.550781 Z M 294.246094 167.496094 C 303.203125 172.960938 311.402344 180.925781 318.265625 191.066406 C 319.453125 192.722656 319.546875 195.011719 318.332031 196.789062 C 311.441406 206.980469 303.246094 214.984375 294.246094 220.472656 C 285.078125 226.054688 275.144531 229.023438 264.953125 229.023438 C 254.789062 229.023438 244.832031 226.054688 235.664062 220.472656 C 226.703125 215.007812 218.53125 207.03125 211.644531 196.882812 C 210.476562 195.222656 210.386719 192.957031 211.59375 191.183594 C 218.480469 180.964844 226.679688 172.960938 235.664062 167.496094 C 244.832031 161.890625 254.789062 158.949219 264.953125 158.949219 C 275.144531 158.949219 285.066406 161.890625 294.246094 167.496094 Z M 278.539062 181.570312 C 275.070312 178.097656 270.277344 175.960938 264.953125 175.960938 C 259.65625 175.960938 254.855469 178.097656 251.386719 181.570312 C 247.914062 185.0625 245.753906 189.859375 245.753906 195.15625 C 245.753906 200.453125 247.914062 205.253906 251.386719 208.722656 C 254.855469 212.21875 259.648438 214.355469 264.953125 214.355469 C 270.277344 214.355469 275.078125 212.21875 278.539062 208.722656 C 282.007812 205.253906 284.171875 200.460938 284.171875 195.15625 C 284.171875 189.847656 282.007812 185.054688 278.539062 181.570312 Z M 241.027344 212 C 237.675781 207.222656 235.703125 201.433594 235.703125 195.15625 C 235.703125 187.074219 238.980469 179.757812 244.277344 174.460938 C 244.472656 174.246094 244.679688 174.035156 244.921875 173.84375 C 243.550781 174.503906 242.214844 175.242188 240.882812 176.054688 C 233.96875 180.285156 227.53125 186.320312 221.902344 193.988281 C 227.53125 201.640625 233.96875 207.699219 240.882812 211.898438 Z M 285 173.84375 C 285.210938 174.035156 285.429688 174.246094 285.644531 174.460938 C 290.941406 179.757812 294.21875 187.074219 294.21875 195.15625 C 294.21875 201.421875 292.25 207.222656 288.871094 212 L 289.015625 211.90625 C 295.953125 207.699219 302.390625 201.640625 308.023438 194 C 302.390625 186.320312 295.953125 180.285156 289.015625 176.0625 C 287.707031 175.25 286.351562 174.511719 285 173.84375 Z M 188.644531 22.15625 C 177.742188 11.253906 162.707031 4.53125 146.097656 4.53125 C 129.46875 4.53125 114.425781 11.253906 103.546875 22.15625 C 92.667969 33.035156 85.921875 48.078125 85.921875 64.679688 C 85.921875 74.964844 88.484375 84.636719 93.003906 93.066406 C 97.664062 101.765625 104.410156 109.199219 112.582031 114.691406 C 114.742188 115.996094 115.625 118.78125 114.507812 121.101562 C 112.75 124.882812 110.636719 128.46875 108.214844 131.8125 L 108.1875 131.8125 C 107.828125 132.289062 107.476562 132.785156 107.117188 133.261719 C 110.082031 133.167969 113.035156 132.808594 115.882812 132.1875 C 121.96875 130.882812 127.691406 128.433594 132.753906 125.015625 C 133.800781 124.253906 135.125 123.875 136.535156 124.109375 C 138.007812 124.328125 139.601562 124.511719 141.3125 124.65625 C 142.851562 124.773438 144.445312 124.847656 146.113281 124.847656 C 162.714844 124.847656 177.757812 118.101562 188.664062 107.222656 C 199.539062 96.34375 206.261719 81.300781 206.261719 64.671875 C 206.246094 48.078125 199.523438 33.035156 188.644531 22.15625 Z M 150.394531 50.878906 L 142.625 41.398438 L 135.050781 50.644531 C 134.503906 51.40625 133.742188 52 132.820312 52.378906 L 121.414062 56.820312 L 128.019531 67.128906 C 128.472656 67.839844 128.757812 68.671875 128.804688 69.574219 L 129.519531 81.785156 L 141.300781 78.695312 C 142.105469 78.460938 143.011719 78.433594 143.890625 78.667969 L 155.742188 81.777344 L 156.453125 69.683594 C 156.480469 68.804688 156.738281 67.925781 157.242188 67.121094 L 163.847656 56.8125 L 152.441406 52.371094 L 152.441406 52.34375 C 151.679688 52.066406 150.964844 51.566406 150.394531 50.878906 Z M 146.546875 30.378906 L 157.308594 43.496094 L 173.199219 49.722656 C 175.789062 50.71875 177.046875 53.644531 176.050781 56.207031 C 175.90625 56.570312 175.738281 56.894531 175.53125 57.207031 L 166.402344 71.460938 L 165.40625 88.449219 C 165.238281 91.230469 162.890625 93.34375 160.109375 93.203125 C 159.707031 93.175781 159.277344 93.109375 158.894531 92.964844 L 142.617188 88.71875 L 126.109375 93.042969 C 123.425781 93.730469 120.695312 92.136719 119.996094 89.453125 C 119.90625 89.121094 119.855469 88.792969 119.855469 88.457031 L 119.832031 88.457031 L 118.859375 71.46875 L 109.640625 57.097656 C 108.140625 54.765625 108.835938 51.683594 111.15625 50.183594 C 111.441406 49.988281 111.726562 49.847656 112.035156 49.730469 C 117.332031 47.660156 122.628906 45.574219 127.925781 43.503906 L 138.738281 30.320312 C 140.496094 28.183594 143.65625 27.871094 145.792969 29.632812 C 146.097656 29.859375 146.332031 30.117188 146.546875 30.378906 Z M 28.613281 209.8125 L 21.890625 202.355469 L 57.878906 169.953125 L 64.601562 177.414062 Z M 82.023438 175.886719 L 86.441406 166.902344 L 111.976562 179.449219 L 107.5625 188.425781 Z M 137.5625 188.074219 L 132.621094 179.332031 L 181.0625 151.816406 L 186.007812 160.535156 Z M 137.5625 188.074219 " fill-opacity="1" fill-rule="nonzero"/></g></svg>