<svg xmlns="http://www.w3.org/2000/svg" xmlns:xlink="http://www.w3.org/1999/xlink" width="500" zoomAndPan="magnify" viewBox="0 0 375 374.999991" height="500" preserveAspectRatio="xMidYMid meet" version="1.2"><g id="a02b14257c"><path style=" stroke:none;fill-rule:nonzero;fill:#f16602;fill-opacity:1;" d="M 265.742188 350.667969 L 5.621094 350.667969 L 5.621094 366.75 L 265.742188 366.75 Z M 140.800781 340.410156 L 169.539062 340.410156 L 169.539062 217.960938 L 140.800781 217.960938 Z M 101.835938 340.410156 L 130.570312 340.410156 L 130.570312 250.804688 L 101.835938 250.804688 Z M 62.867188 340.410156 L 91.605469 340.410156 L 91.605469 219.503906 L 62.867188 219.503906 Z M 23.90625 340.410156 L 52.644531 340.410156 L 52.644531 277.476562 L 23.90625 277.476562 Z M 14.90625 206.492188 C 13.359375 204.949219 11.226562 204.003906 8.882812 204.003906 C 6.535156 204.003906 4.410156 204.949219 2.882812 206.492188 C 1.339844 208.039062 0.390625 210.144531 0.390625 212.519531 C 0.390625 214.863281 1.339844 216.988281 2.882812 218.515625 C 4.410156 220.058594 6.535156 221.007812 8.882812 221.007812 C 11.226562 221.007812 13.351562 220.058594 14.90625 218.515625 C 16.433594 216.988281 17.398438 214.863281 17.398438 212.519531 C 17.398438 210.144531 16.433594 208.039062 14.90625 206.492188 Z M 73.703125 157.613281 C 72.160156 156.085938 70.023438 155.121094 67.679688 155.121094 C 65.332031 155.121094 63.207031 156.085938 61.65625 157.613281 C 60.128906 159.15625 59.164062 161.289062 59.164062 163.636719 C 59.164062 165.980469 60.128906 168.105469 61.65625 169.660156 C 63.199219 171.1875 65.332031 172.125 67.679688 172.125 C 70.023438 172.125 72.148438 171.179688 73.703125 169.660156 C 75.230469 168.113281 76.167969 165.980469 76.167969 163.636719 C 76.167969 161.289062 75.230469 159.164062 73.703125 157.613281 Z M 125.007812 180.375 C 123.480469 178.832031 121.355469 177.882812 119.011719 177.882812 C 116.664062 177.882812 114.539062 178.832031 112.984375 180.375 C 111.441406 181.921875 110.496094 184.027344 110.496094 186.398438 C 110.496094 188.746094 111.441406 190.871094 112.984375 192.398438 C 114.53125 193.941406 116.664062 194.890625 119.011719 194.890625 C 121.355469 194.890625 123.480469 193.941406 125.007812 192.398438 C 126.550781 190.871094 127.5 188.746094 127.5 186.398438 C 127.5 184.027344 126.550781 181.921875 125.007812 180.375 Z M 208.5 271.699219 C 197.304688 263.960938 187.578125 253.730469 180.273438 241.203125 C 180.101562 240.964844 179.933594 240.691406 179.8125 240.425781 L 179.761719 240.359375 L 179.761719 340.417969 L 208.5 340.417969 Z M 247.457031 287.425781 C 244.308594 286.910156 241.238281 286.238281 238.175781 285.417969 C 231.449219 283.628906 224.921875 281.09375 218.730469 277.875 L 218.730469 340.417969 L 247.464844 340.417969 L 247.464844 287.425781 Z M 279.53125 131.101562 C 263.789062 126.894531 246.46875 128.636719 231.253906 137.339844 C 231.160156 137.390625 231.082031 137.433594 231.015625 137.484375 C 215.707031 146.3125 205.453125 160.511719 201.21875 176.304688 C 197.011719 192.046875 198.753906 209.371094 207.457031 224.609375 C 207.507812 224.675781 207.550781 224.753906 207.601562 224.828125 C 216.433594 240.136719 230.605469 250.394531 246.425781 254.625 C 262.246094 258.855469 279.660156 257.066406 294.941406 248.261719 C 310.230469 239.429688 320.503906 225.230469 324.734375 209.421875 C 328.941406 193.695312 327.203125 176.355469 318.5 161.144531 C 318.449219 161.066406 318.40625 160.972656 318.355469 160.90625 C 309.523438 145.613281 295.324219 135.332031 279.53125 131.101562 Z M 226.203125 128.488281 C 243.882812 118.378906 263.960938 116.347656 282.167969 121.238281 C 300.375 126.125 316.757812 137.902344 327.003906 155.460938 C 327.175781 155.699219 327.320312 155.972656 327.441406 156.238281 C 337.457031 173.867188 339.488281 193.898438 334.597656 212.058594 C 329.734375 230.289062 317.933594 246.648438 300.375 256.894531 C 300.164062 257.039062 299.941406 257.183594 299.703125 257.277344 C 282.046875 267.363281 261.996094 269.371094 243.78125 264.515625 C 225.445312 259.609375 209 247.679688 198.746094 229.949219 C 198.695312 229.855469 198.625 229.753906 198.574219 229.632812 C 188.488281 211.980469 186.460938 191.878906 191.324219 173.667969 C 196.253906 155.332031 208.15625 138.890625 225.886719 128.660156 C 225.980469 128.59375 226.101562 128.542969 226.203125 128.488281 Z M 293.488281 272.859375 C 293.660156 272.78125 293.832031 272.714844 294.003906 272.664062 C 297.875 271.136719 301.671875 269.351562 305.394531 267.21875 C 305.613281 267.074219 305.828125 266.929688 306.066406 266.835938 C 326.355469 254.984375 340 236.066406 345.640625 215.027344 C 351.296875 193.984375 348.949219 170.8125 337.347656 150.445312 C 337.175781 150.222656 337.058594 150.007812 336.9375 149.769531 C 325.109375 129.480469 306.195312 115.835938 285.128906 110.203125 C 264.113281 104.574219 240.9375 106.894531 220.570312 118.523438 C 220.332031 118.695312 220.058594 118.839844 219.796875 118.960938 C 204.632812 127.808594 193.214844 140.605469 186.058594 155.308594 C 185.914062 155.792969 185.691406 156.273438 185.402344 156.707031 C 183.292969 161.203125 181.605469 165.894531 180.296875 170.707031 C 176.859375 183.523438 176.40625 197.167969 179.1875 210.46875 C 179.554688 211.167969 179.769531 211.972656 179.769531 212.816406 L 179.769531 212.988281 C 181.65625 220.75 184.660156 228.371094 188.863281 235.648438 L 188.839844 235.648438 L 188.863281 235.675781 C 195.8125 247.695312 205.214844 257.398438 216.125 264.503906 C 216.296875 264.601562 216.492188 264.726562 216.65625 264.871094 C 224.15625 269.660156 232.304688 273.269531 240.820312 275.539062 C 244.785156 276.605469 248.847656 277.371094 252.910156 277.859375 C 253.082031 277.882812 253.25 277.882812 253.421875 277.910156 C 266.714844 279.4375 280.453125 277.84375 293.488281 272.859375 Z M 310.246094 292.722656 L 325.828125 283.746094 L 318.449219 270.972656 C 316.125 272.644531 313.703125 274.191406 311.210938 275.640625 C 310.949219 275.8125 310.699219 275.957031 310.410156 276.074219 C 307.945312 277.5 305.425781 278.78125 302.882812 279.964844 Z M 365.683594 371.613281 C 365.894531 371.46875 366.09375 371.347656 366.316406 371.246094 C 370.015625 368.996094 372.507812 365.488281 373.550781 361.570312 C 374.640625 357.535156 374.207031 353.132812 371.980469 349.285156 L 337.175781 288.984375 L 310.957031 304.121094 L 309.121094 305.164062 L 343.949219 365.488281 C 346.179688 369.308594 349.753906 371.894531 353.796875 372.988281 C 357.679688 374.035156 361.9375 373.644531 365.683594 371.613281 Z M 292.789062 165.90625 C 301.910156 171.46875 310.257812 179.574219 317.246094 189.898438 C 318.457031 191.585938 318.550781 193.917969 317.3125 195.726562 C 310.300781 206.101562 301.953125 214.25 292.789062 219.839844 C 283.457031 225.519531 273.34375 228.542969 262.96875 228.542969 C 252.621094 228.542969 242.484375 225.519531 233.148438 219.839844 C 224.027344 214.273438 215.707031 206.152344 208.695312 195.820312 C 207.507812 194.128906 207.414062 191.828125 208.644531 190.019531 C 215.65625 179.617188 224 171.46875 233.148438 165.90625 C 242.484375 160.195312 252.621094 157.203125 262.96875 157.203125 C 273.34375 157.203125 283.449219 160.195312 292.789062 165.90625 Z M 276.800781 180.230469 C 273.269531 176.699219 268.386719 174.523438 262.96875 174.523438 C 257.578125 174.523438 252.6875 176.699219 249.15625 180.230469 C 245.621094 183.789062 243.421875 188.667969 243.421875 194.0625 C 243.421875 199.453125 245.621094 204.34375 249.15625 207.875 C 252.6875 211.433594 257.570312 213.609375 262.96875 213.609375 C 268.386719 213.609375 273.277344 211.433594 276.800781 207.875 C 280.332031 204.34375 282.535156 199.464844 282.535156 194.0625 C 282.535156 188.660156 280.332031 183.78125 276.800781 180.230469 Z M 238.609375 211.210938 C 235.195312 206.347656 233.191406 200.453125 233.191406 194.0625 C 233.191406 185.835938 236.527344 178.386719 241.921875 172.996094 C 242.117188 172.773438 242.328125 172.558594 242.578125 172.363281 C 241.175781 173.039062 239.820312 173.789062 238.464844 174.617188 C 231.425781 178.925781 224.871094 185.070312 219.136719 192.875 C 224.871094 200.667969 231.425781 206.835938 238.464844 211.109375 Z M 283.378906 172.363281 C 283.59375 172.558594 283.8125 172.773438 284.035156 172.996094 C 289.429688 178.386719 292.765625 185.835938 292.765625 194.0625 C 292.765625 200.445312 290.757812 206.347656 287.320312 211.210938 L 287.464844 211.117188 C 294.53125 206.835938 301.082031 200.667969 306.816406 192.882812 C 301.082031 185.070312 294.53125 178.925781 287.464844 174.625 C 286.136719 173.796875 284.753906 173.046875 283.378906 172.363281 Z M 185.28125 17.933594 C 174.179688 6.835938 158.875 -0.0078125 141.960938 -0.0078125 C 125.035156 -0.0078125 109.71875 6.835938 98.644531 17.933594 C 87.566406 29.011719 80.699219 44.324219 80.699219 61.230469 C 80.699219 71.699219 83.308594 81.542969 87.910156 90.128906 C 92.652344 98.984375 99.523438 106.554688 107.839844 112.140625 C 110.042969 113.472656 110.9375 116.304688 109.804688 118.667969 C 108.011719 122.515625 105.863281 126.167969 103.394531 129.574219 L 103.371094 129.574219 C 103.003906 130.058594 102.644531 130.5625 102.277344 131.050781 C 105.296875 130.957031 108.300781 130.589844 111.203125 129.957031 C 117.398438 128.625 123.226562 126.136719 128.378906 122.652344 C 129.445312 121.878906 130.792969 121.492188 132.226562 121.730469 C 133.726562 121.953125 135.351562 122.140625 137.089844 122.285156 C 138.660156 122.40625 140.28125 122.484375 141.980469 122.484375 C 158.882812 122.484375 174.199219 115.613281 185.296875 104.539062 C 196.375 93.464844 203.214844 78.148438 203.214844 61.21875 C 203.199219 44.324219 196.355469 29.011719 185.28125 17.933594 Z M 146.339844 47.175781 L 138.429688 37.527344 L 130.714844 46.9375 C 130.160156 47.714844 129.386719 48.320312 128.445312 48.703125 L 116.835938 53.226562 L 123.558594 63.71875 C 124.019531 64.445312 124.308594 65.289062 124.359375 66.210938 L 125.085938 78.644531 L 137.082031 75.496094 C 137.902344 75.257812 138.824219 75.230469 139.71875 75.46875 L 151.78125 78.636719 L 152.507812 66.324219 C 152.535156 65.425781 152.796875 64.53125 153.308594 63.710938 L 160.035156 53.21875 L 148.421875 48.695312 L 148.421875 48.667969 C 147.644531 48.386719 146.917969 47.875 146.339844 47.175781 Z M 142.421875 26.304688 L 153.378906 39.660156 L 169.554688 46 C 172.191406 47.015625 173.472656 49.992188 172.457031 52.601562 C 172.3125 52.96875 172.140625 53.300781 171.929688 53.617188 L 162.636719 68.132812 L 161.621094 85.425781 C 161.449219 88.257812 159.0625 90.410156 156.230469 90.265625 C 155.820312 90.238281 155.382812 90.171875 154.992188 90.027344 L 138.421875 85.699219 L 121.613281 90.101562 C 118.882812 90.800781 116.101562 89.179688 115.390625 86.449219 C 115.296875 86.109375 115.246094 85.777344 115.246094 85.433594 L 115.222656 85.433594 L 114.230469 68.140625 L 104.847656 53.507812 C 103.320312 51.136719 104.027344 47.996094 106.390625 46.46875 C 106.679688 46.269531 106.972656 46.125 107.285156 46.007812 C 112.679688 43.898438 118.070312 41.773438 123.464844 39.667969 L 134.472656 26.246094 C 136.261719 24.070312 139.480469 23.753906 141.65625 25.546875 C 141.960938 25.777344 142.203125 26.042969 142.421875 26.304688 Z M 22.355469 208.984375 L 15.511719 201.390625 L 52.148438 168.40625 L 58.992188 176 Z M 76.730469 174.445312 L 81.226562 165.300781 L 107.226562 178.070312 L 102.730469 187.210938 Z M 133.277344 186.851562 L 128.242188 177.953125 L 177.558594 149.941406 L 182.59375 158.8125 Z M 133.277344 186.851562 "/></g></svg>